<svg width="261" height="85" viewBox="0 0 261 85" fill="none" xmlns="http://www.w3.org/2000/svg">
<path d="M13.4318 0.351562L0 30.3313H8.7448L11.2231 24.328H25.6309L28.0964 30.3313H37.0338L23.6148 0.351562H13.4318ZM18.4013 7.32875L22.793 17.8192H13.9968L18.4013 7.32875Z" fill="#016FD0"/>
<path d="M37.0337 30.3313V0.351562L49.3842 0.395879L56.5677 19.7249L63.5792 0.351562H75.831V30.3313H68.0715V8.24097L59.8463 30.3313H53.0413L44.7932 8.24097V30.3313H37.0337Z" fill="#016FD0"/>
<path d="M81.1216 30.3313V0.351562H105.811V7.05758H88.7673V12.1857H105.413V18.4972H88.7673V23.8225H105.811V30.3313H81.1216Z" fill="#016FD0"/>
<path d="M111.101 0.351562V30.3313H118.445V19.6806H121.537L130.343 30.3313H139.318L129.654 19.2861C133.62 18.9446 137.711 15.4709 137.711 10.0777C137.711 3.76896 132.859 0.351562 127.444 0.351562H111.101ZM118.445 7.05755H126.84C128.854 7.05755 130.319 8.66519 130.319 10.2133C130.319 12.205 128.421 13.3691 126.949 13.3691H118.445V7.05755Z" fill="#016FD0"/>
<path d="M148.135 30.3313H141.081V0.351562H148.135V30.3313Z" fill="#016FD0"/>
<path d="M167.767 30.3313H166.132C158.226 30.3313 153.426 24.0346 153.426 15.4647C153.426 6.68309 158.172 0.351562 168.157 0.351562H176.351V7.45202H167.857C163.804 7.45202 160.938 10.6495 160.938 15.5387C160.938 21.3446 164.215 23.7831 168.937 23.7831H170.888L167.767 30.3313Z" fill="#016FD0"/>
<path d="M183.853 0.351562L171.061 30.3313H179.389L181.749 24.328H195.471L197.819 30.3313H206.331L193.551 0.351562H183.853ZM188.586 7.32875L192.768 17.8192H184.391L188.586 7.32875Z" fill="#016FD0"/>
<path d="M208.094 30.3313V0.351562H217.881L230.377 19.1875V0.351562H238.074V30.3313H228.604L215.792 11.0023V30.3313H208.094Z" fill="#016FD0"/>
<path d="M56.4324 85.0001V53.2568H81.1216V60.3573H64.0781V65.7871H80.7234V72.4699H64.0781V78.1085H81.1216V85.0001H56.4324Z" fill="#016FD0"/>
<path d="M178.115 85.0001V53.2568H202.804V60.3573H185.76V65.7871H202.326V72.4699H185.76V78.1085H202.804V85.0001H178.115Z" fill="#016FD0"/>
<path d="M81.4089 85.0001L93.4774 69.3242L81.1216 53.2568H90.6914L98.0499 63.1896L105.433 53.2568H114.628L102.435 69.1285L114.526 85.0001H104.957L97.8125 75.2239L90.8413 85.0001H81.4089Z" fill="#016FD0"/>
<path d="M116.392 53.2568V85.0001H124.337V74.9759H132.486C139.382 74.9759 144.608 71.2261 144.608 63.9336C144.608 57.8926 140.509 53.2568 133.492 53.2568H116.392ZM124.337 60.4356H132.919C135.147 60.4356 136.739 61.8352 136.739 64.0903C136.739 66.2088 135.155 67.7449 132.894 67.7449H124.337V60.4356Z" fill="#016FD0"/>
<path d="M148.135 53.2568V85.0001H155.479V73.7229H158.571L167.377 85.0001H176.351L166.688 73.3052C170.654 72.9435 174.745 69.2655 174.745 63.5551C174.745 56.8752 169.893 53.2568 164.478 53.2568H148.135ZM155.479 60.3573H163.874C165.888 60.3573 167.353 62.0595 167.353 63.6987C167.353 65.8076 165.455 67.0401 163.983 67.0401H155.479V60.3573Z" fill="#016FD0"/>
<path d="M207.274 85.0001V78.1085H222.134C224.333 78.1085 225.285 76.8386 225.285 75.4458C225.285 74.1114 224.336 72.7622 222.134 72.7622H215.419C209.582 72.7622 206.331 68.9614 206.331 63.2549C206.331 58.1652 209.308 53.2568 217.982 53.2568H232.442L229.315 60.3991H216.81C214.419 60.3991 213.683 61.7397 213.683 63.02C213.683 64.3359 214.592 65.7871 216.419 65.7871H223.453C229.96 65.7871 232.784 69.7318 232.784 74.8976C232.784 80.4513 229.637 85.0001 223.099 85.0001H207.274Z" fill="#016FD0"/>
<path d="M233.789 85.0001V78.1085H249.64C251.986 78.1085 253.001 76.8386 253.001 75.4458C253.001 74.1114 251.989 72.7622 249.64 72.7622H242.478C236.251 72.7622 232.784 68.9614 232.784 63.2549C232.784 58.1652 235.959 53.2568 245.211 53.2568H260.635L257.3 60.3991H243.961C241.411 60.3991 240.626 61.7397 240.626 63.02C240.626 64.3359 241.596 65.7871 243.544 65.7871H251.047C257.988 65.7871 261 69.7318 261 74.8976C261 80.4513 257.644 85.0001 250.67 85.0001H233.789Z" fill="#016FD0"/>
</svg>
