<svg width="22" height="26" viewBox="0 0 22 26" fill="none" xmlns="http://www.w3.org/2000/svg">
<path d="M11.0075 -0.000488281C4.93233 -0.000488281 0 4.8285 0 10.7764C0 13.3234 0.902255 15.6496 2.40601 17.4899L2.52632 17.6224L3.12782 18.2849C3.18797 18.3585 3.26316 18.4174 3.33835 18.491L11.0075 25.9995L18.6767 18.491C18.7519 18.4321 18.812 18.3585 18.8722 18.2996L19.3233 17.7991L19.594 17.5046C21.0977 15.6643 22 13.3381 22 10.7911C22 4.8285 17.0827 -0.000488281 11.0075 -0.000488281ZM11.0075 13.824C8.97744 13.824 7.32331 12.2045 7.32331 10.217C7.32331 8.22941 8.97744 6.60993 11.0075 6.60993C13.0376 6.60993 14.6917 8.22941 14.6917 10.217C14.6917 12.2045 13.0376 13.824 11.0075 13.824Z" fill="#F8F4EE"/>
</svg>
