<svg width="87" height="87" viewBox="0 0 87 87" fill="none" xmlns="http://www.w3.org/2000/svg">
<path d="M84.7101 30.98C31.5601 46.31 19.4201 74.96 18.1201 78.43C25.2001 83.49 33.8701 86.49 43.2401 86.49C67.1201 86.49 86.4801 67.13 86.4801 43.25C86.4901 38.98 85.8601 34.87 84.7101 30.98Z" fill="#6CA92A"/>
<path d="M20.98 61.22C43.13 37.78 63.96 30.66 63.96 30.66C69.41 30.37 84.5 30.97 84.72 30.98C79.42 13.07 62.86 0 43.24 0C29.44 0 17.16 6.47 9.24 16.53C9.61 16.83 21.38 25.99 80.48 22.03L78.43 22.68C28.39 35.71 12.66 68.93 12.66 68.93C13.9 54.44 20.56 34.69 20.56 34.69C15.27 29.47 9.37 16.8 9.25 16.54C3.46 23.89 0 33.16 0 43.24C0 57.71 7.11 70.5 18.01 78.35C18.23 68.24 20.98 61.22 20.98 61.22Z" fill="#6CA92A"/>
</svg>
