<svg width="460" height="76" viewBox="0 0 460 76" fill="none" xmlns="http://www.w3.org/2000/svg">
<path fill-rule="evenodd" clip-rule="evenodd" d="M20.764 1.62H0V73.889H20.494C31.553 73.889 39.371 71.46 46.383 65.529C54.473 58.789 59.595 48.54 59.595 37.753C59.595 16.453 43.684 1.62 20.764 1.62ZM37.214 56.091C32.631 59.868 26.964 61.755 17.798 61.755H14.024V14.024H17.798C26.964 14.024 32.359 15.642 37.214 19.686C42.067 23.999 45.035 30.744 45.035 37.753C45.032 44.765 42.067 51.777 37.214 56.091ZM66.068 73.892H80.089V1.62H66.068V73.892ZM114.605 29.396C105.975 26.161 103.549 24.274 103.549 20.227C103.549 15.644 108.132 12.409 114.066 12.409C118.379 12.409 121.886 14.027 125.391 18.071L132.942 8.63499C126.739 3.24099 119.46 0.544998 111.639 0.544998C98.696 0.544998 88.988 9.444 88.988 21.308C88.988 31.286 93.571 36.141 106.787 40.994C112.451 42.881 115.147 44.229 116.495 45.038C119.46 46.927 120.808 49.621 120.808 52.589C120.808 58.522 116.225 62.836 109.752 62.836C103.279 62.836 97.618 59.331 94.38 53.128L85.484 62.027C91.957 71.463 99.775 75.779 110.561 75.779C125.121 75.779 135.371 66.071 135.371 52.049C135.368 40.452 130.516 35.327 114.605 29.396ZM139.685 37.753C139.685 59.056 156.404 75.506 177.974 75.506C183.908 75.506 189.3 74.426 195.503 71.46V54.74C189.839 60.402 184.986 62.83 178.513 62.83C164.492 62.83 154.245 52.314 154.245 37.751C154.245 23.999 164.762 12.943 177.974 12.943C184.717 12.943 189.839 15.369 195.503 21.033V4.58301C189.569 1.34601 184.447 0 178.244 0C156.941 0.003 139.685 16.992 139.685 37.753Z" fill="black"/>
<path fill-rule="evenodd" clip-rule="evenodd" d="M239.459 0.00292969C218.154 0.00292969 200.895 16.7229 200.895 37.2139C200.895 59.3279 217.345 75.5059 239.459 75.5059C261.026 75.5059 278.019 59.0559 278.019 37.7529C278.021 16.7229 261.299 0.00292969 239.459 0.00292969Z" fill="#DB8135"/>
<path fill-rule="evenodd" clip-rule="evenodd" d="M309.838 50.1601L290.692 1.62012H275.05L305.794 75.7761H313.345L344.626 1.62012H329.254L309.838 50.1601ZM351.099 73.8921H391.008V61.7551H365.12V42.3391H389.927V29.9351H365.12V14.0241H391.008V1.62012H351.099V73.8921ZM446.827 22.9231C446.827 9.44113 437.655 1.62012 421.21 1.62012H400.444V73.8891H414.465V45.0351H416.353L435.768 73.8891H453.027L430.376 43.4151C440.89 41.2611 446.827 33.9791 446.827 22.9231ZM418.509 35.0601H414.465V12.9481H418.779C427.678 12.9481 432.258 16.7231 432.258 23.7351C432.261 31.0141 427.681 35.0601 418.509 35.0601ZM455.066 8.03012C455.066 8.58512 454.687 8.87813 453.917 8.87813H453.655V7.22212H453.936C454.7 7.22412 455.066 7.48612 455.066 8.03012ZM457.322 12.4091L455.226 9.77612C456.121 9.54612 456.637 8.89112 456.637 7.99112C456.637 6.74512 455.762 6.04112 454.208 6.04112H452.179V12.4091H453.682V9.94412L455.467 12.4091H457.322ZM460 9.21312C460 6.17212 457.527 3.66512 454.524 3.66512C454.512 3.66412 454.5 3.66412 454.488 3.66412C451.457 3.66412 448.962 6.15912 448.962 9.19012V9.21312C448.962 12.3051 451.446 14.7701 454.524 14.7701C457.527 14.7671 460 12.2631 460 9.21312ZM458.88 9.22913C458.88 11.7261 456.917 13.7731 454.498 13.7731C452.064 13.7731 450.062 11.7371 450.062 9.22913C450.062 6.69313 452.046 4.67712 454.498 4.67712C456.917 4.67712 458.88 6.72413 458.88 9.22913Z" fill="black"/>
</svg>
