<svg width="13" height="13" viewBox="0 0 13 13" fill="none" xmlns="http://www.w3.org/2000/svg">
<path d="M12.9444 3.82197C12.9139 3.13126 12.8024 2.65628 12.6426 2.2449C12.4777 1.80808 12.2242 1.41705 11.892 1.09192C11.5674 0.761698 11.1744 0.505255 10.7434 0.342688C10.3301 0.182919 9.85864 0.0712343 9.16875 0.0407053C8.47403 0.00763225 8.2533 0 6.49123 0C4.72891 0 4.50843 0.00763224 3.816 0.0381612C3.12636 0.0686902 2.65212 0.180375 2.24139 0.340398C1.80525 0.505255 1.41484 0.759408 1.09021 1.09217C0.760507 1.41705 0.504718 1.81088 0.342406 2.24235C0.182633 2.65653 0.0711229 3.12871 0.0406416 3.81943C0.00762031 4.51549 0 4.73632 0 6.5014C0 8.26648 0.00762031 8.48731 0.0381015 9.18057C0.0685828 9.87129 0.180093 10.3463 0.339866 10.7576C0.504718 11.1945 0.76076 11.5855 1.09021 11.9106C1.41484 12.2408 1.80779 12.4973 2.23885 12.6599C2.65212 12.8199 3.12382 12.9316 3.81346 12.9618C4.50563 12.9924 4.72637 13 6.48869 13C8.25076 13 8.47149 12.9924 9.16367 12.9618C9.85331 12.9316 10.3275 12.8196 10.7383 12.6599C11.6106 12.322 12.3002 11.6313 12.6375 10.7576C12.7973 10.3437 12.9088 9.87129 12.9393 9.18057C12.9698 8.48731 12.9774 8.26623 12.9774 6.5014C12.9774 4.73632 12.9748 4.51549 12.9444 3.82197ZM11.7754 9.12994C11.7475 9.76495 11.641 10.1076 11.5521 10.3363C11.3339 10.9027 10.8854 11.3522 10.3197 11.5707C10.0916 11.6595 9.74663 11.7661 9.11516 11.7941C8.4306 11.8246 8.2251 11.8323 6.49326 11.8323C4.76142 11.8323 4.55339 11.8246 3.87137 11.7941C3.23736 11.7661 2.89521 11.6595 2.66685 11.5707C2.38541 11.4667 2.12937 11.3016 1.92159 11.0856C1.70619 10.8747 1.54108 10.6208 1.43719 10.3389C1.34854 10.1104 1.24211 9.76495 1.21417 9.13249C1.18369 8.44686 1.17607 8.24104 1.17607 6.50649C1.17607 4.77193 1.18369 4.56357 1.21417 3.88049C1.24211 3.24548 1.34854 2.9028 1.43719 2.67434C1.54108 2.39245 1.70619 2.13601 1.92413 1.92765C2.13445 1.71191 2.38795 1.5468 2.66939 1.44249C2.89749 1.35371 3.24244 1.24711 3.87391 1.21887C4.55847 1.18834 4.76396 1.18071 6.4958 1.18071C8.23018 1.18071 8.43568 1.18834 9.1177 1.21887C9.75171 1.24685 10.0939 1.35345 10.3222 1.44249C10.6037 1.54655 10.8597 1.71166 11.0675 1.92765C11.2831 2.13855 11.448 2.39245 11.5519 2.67434C11.6405 2.9028 11.747 3.24803 11.7752 3.88049C11.8056 4.56612 11.8133 4.77193 11.8133 6.50649C11.8135 8.24104 11.8059 8.44406 11.7754 9.12994Z" fill="#232323"/>
<path d="M6.49065 3.16187C4.64983 3.16187 3.15625 4.65753 3.15625 6.50148C3.15625 8.34518 4.64983 9.8411 6.49065 9.8411C8.33146 9.8411 9.82504 8.34518 9.82504 6.50148C9.82479 4.65753 8.33146 3.16187 6.49065 3.16187ZM6.49065 8.66777C5.29629 8.66777 4.32775 7.69771 4.32775 6.50148C4.32775 5.30525 5.29654 4.3352 6.49065 4.3352C7.685 4.3352 8.65354 5.30525 8.65354 6.50148C8.65354 7.69771 7.68475 8.66777 6.49065 8.66777Z" fill="#232323"/>
<path d="M10.7365 3.02975C10.7365 3.46046 10.388 3.80926 9.95798 3.80926C9.52819 3.80926 9.17969 3.46021 9.17969 3.02975C9.17969 2.59904 9.52819 2.25024 9.95798 2.25024C10.388 2.25024 10.7365 2.59904 10.7365 3.02975Z" fill="#232323"/>
</svg>
