<svg  viewBox="0 0 107 33" fill="none" xmlns="http://www.w3.org/2000/svg">
<path d="M88.3573 11.4547L92.7464 16.2918L96.9719 11.4547H105.995L97.1767 21.3706L106.116 31.3677H96.7287L92.3809 26.4922L88.0728 31.3677H79.0087L87.8695 21.4119L79.0087 11.4547H88.3573Z" fill="#FF5900"/>
<path d="M79.0095 11.4547V18.1828H68.9741V24.3567H79.0095V31.3677H61.599V0H79.0095V6.99189H68.9741V11.4547H79.0095Z" fill="#FF5900"/>
<path d="M54.2535 0V12.8371H54.1724C52.5453 10.9683 50.5144 10.3183 48.1577 10.3183C43.3294 10.3183 39.692 13.6021 38.4156 17.941C36.958 13.1599 33.2027 10.2284 27.6345 10.2284C23.1127 10.2284 19.5416 12.2579 17.6787 15.5652V11.4547H8.33161V6.99189H18.5321V0H0V31.3677H8.33161V18.1828H16.6367C16.3891 19.1511 16.2564 20.1887 16.2564 21.2837C16.2564 27.8261 21.2557 32.4186 27.6345 32.4186C32.9993 32.4186 36.535 29.8998 38.4038 25.3088H31.2631C30.2977 26.6898 29.5652 27.098 27.6345 27.098C25.3957 27.098 23.465 25.1452 23.465 22.8298H38.0044C38.6352 28.0265 42.6839 32.5085 48.2388 32.5085C50.6352 32.5085 52.8298 31.3294 54.171 29.3397H54.252V31.3707H61.5962V0H54.2535ZM23.6979 18.2756C24.1607 16.283 25.7067 14.9816 27.636 14.9816C29.7598 14.9816 31.2262 16.2432 31.6124 18.2756C31.7745 18.2756 23.6979 18.2756 23.6979 18.2756ZM49.7951 26.5925C47.0877 26.5925 45.4046 24.0693 45.4046 21.4355C45.4046 18.6205 46.8681 15.913 49.7951 15.913C52.8298 15.913 54.0383 18.6205 54.0383 21.4355C54.0383 24.1046 52.7576 26.5925 49.7951 26.5925Z" fill="#2A007C"/>
</svg>
