<svg fill="none" xmlns="http://www.w3.org/2000/svg">
<path d="M56.665 9.241C55.897 10.281 54.612 12.089 53.83 13.145C53.433 13.682 52.716 14.657 55.093 14.657C57.608 14.657 67.608 14.657 67.608 14.657C67.608 14.657 69.625 11.913 71.316 9.618C73.616 6.496 71.515 0 63.292 0C55.932 0 30.908 0 30.908 0L25.293 7.629C25.293 7.629 54.402 7.629 55.896 7.629C57.441 7.629 57.42 8.217 56.665 9.241ZM47.471 16.539C45.094 16.539 45.811 15.562 46.208 15.025C46.99 13.969 48.296 12.18 49.064 11.14C49.82 10.116 49.84 9.528 48.293 9.528C46.8 9.528 34.297 9.528 34.297 9.528L23.02 24.854C23.02 24.854 43.161 24.854 50.521 24.854C59.604 24.854 64.661 18.676 66.22 16.54C66.22 16.539 49.985 16.539 47.471 16.539ZM65.361 24.854H81.494L87.61 16.538L71.479 16.54C71.474 16.539 65.361 24.854 65.361 24.854ZM106.986 0L100.798 8.405H93.598L99.783 0H83.655L72.865 14.657H112.325L123.112 0H106.986ZM88.694 24.854H104.821L110.94 16.54H94.813C94.807 16.539 88.694 24.854 88.694 24.854ZM0 19.819V21.585H22.468L23.766 19.819H0ZM26.181 16.539H0V18.303H24.88L26.181 16.539ZM0 24.854H20.061L21.353 23.098H0V24.854ZM152.072 21.584H175.748V19.818H153.372L152.072 21.584ZM149.667 24.854H175.748V23.098H150.958L149.667 24.854ZM155.783 16.539L154.486 18.305H175.748V16.539H155.783ZM134.659 14.657L145.448 0H128.367C128.361 0 117.57 14.657 117.57 14.657H134.659ZM116.187 16.539C116.187 16.539 115.008 18.15 114.435 18.926C112.41 21.662 114.201 24.854 120.811 24.854C128.447 24.854 146.712 24.854 146.712 24.854L152.831 16.54H116.187V16.539Z" fill="#D50029"/>
</svg>
