<svg width="335" height="208" viewBox="0 0 335 208" fill="none" xmlns="http://www.w3.org/2000/svg">
<path d="M212.79 22.1416H122.21V184.897H212.79V22.1416Z" fill="#FF5F00"/>
<path d="M127.961 103.519C127.961 70.4506 143.489 41.1202 167.356 22.1417C149.815 8.33909 127.674 0 103.519 0C46.2961 0 0 46.2961 0 103.519C0 160.742 46.2961 207.039 103.519 207.039C127.674 207.039 149.815 198.7 167.356 184.897C143.489 166.206 127.961 136.588 127.961 103.519Z" fill="#EB001B"/>
<path d="M335 103.519C335 160.742 288.704 207.039 231.48 207.039C207.326 207.039 185.184 198.7 167.644 184.897C191.798 165.918 207.038 136.588 207.038 103.519C207.038 70.4506 191.511 41.1202 167.644 22.1417C185.184 8.33909 207.326 0 231.48 0C288.704 0 335 46.5837 335 103.519Z" fill="#F79E1B"/>
</svg>
