<svg width="487" height="128" viewBox="0 0 487 128" fill="none" xmlns="http://www.w3.org/2000/svg">
<path d="M58.4399 0.00774384H20.561C17.9685 0.00774384 15.7643 1.86563 15.3598 4.3903L0.039777 100.193C-0.264927 102.083 1.21977 103.787 3.16355 103.787H21.2476C23.8396 103.787 26.0438 101.93 26.4483 99.4009L30.5801 73.5617C30.9791 71.0318 33.1888 69.1742 35.7754 69.1742H47.7668C72.7186 69.1742 87.1191 57.2651 90.8803 33.6654C92.5749 23.3403 90.9521 15.2281 86.0502 9.54677C80.6666 3.30748 71.1179 0.00774384 58.4399 0.00774384ZM62.8101 34.9985C60.7386 48.4045 50.3534 48.4045 40.3117 48.4045H34.5959L38.6057 23.368C38.8442 21.8546 40.1731 20.7402 41.7242 20.7402H44.3437C51.1839 20.7402 57.6369 20.7402 60.971 24.5857C62.9596 26.8804 63.5689 30.2891 62.8101 34.9985Z" fill="#283B82"/>
<path d="M171.667 34.5672H153.529C151.984 34.5672 150.649 35.6817 150.41 37.1951L149.608 42.199L148.339 40.3851C144.412 34.7636 135.655 32.8848 126.915 32.8848C106.87 32.8848 89.7503 47.8585 86.4161 68.8634C84.6827 79.3411 87.1474 89.3602 93.1733 96.3469C98.7009 102.771 106.61 105.448 116.021 105.448C132.172 105.448 141.128 95.2057 141.128 95.2057L140.319 100.177C140.014 102.078 141.499 103.782 143.432 103.782H159.77C162.368 103.782 164.561 101.925 164.972 99.3959L174.775 38.1617C175.085 36.2769 173.606 34.5672 171.667 34.5672ZM146.383 69.3879C144.634 79.6086 136.408 86.4707 125.919 86.4707C120.651 86.4707 116.441 84.8041 113.738 81.6465C111.058 78.5108 110.038 74.0477 110.892 69.0762C112.525 58.9426 120.889 51.8576 131.218 51.8576C136.37 51.8576 140.557 53.5454 143.315 56.7298C146.08 59.9475 147.175 64.4382 146.383 69.3879Z" fill="#283B82"/>
<path d="M268.273 34.5672H250.046C248.306 34.5672 246.672 35.4194 245.687 36.8455L220.546 73.3704L209.89 38.2712C209.22 36.0748 207.165 34.5672 204.839 34.5672H186.927C184.75 34.5672 183.238 36.6647 183.931 38.6861L204.008 96.8005L185.132 123.083C183.647 125.153 185.143 128 187.708 128H205.914C207.642 128 209.259 127.169 210.239 125.771L270.865 39.4568C272.317 37.3914 270.827 34.5672 268.273 34.5672Z" fill="#283B82"/>
<path d="M328.623 0.00774384H290.738C288.152 0.00774384 285.947 1.86563 285.543 4.3903L270.223 100.193C269.919 102.083 271.403 103.787 273.336 103.787H292.777C294.582 103.787 296.128 102.488 296.41 100.718L300.758 73.5617C301.156 71.0318 303.367 69.1742 305.953 69.1742H317.939C342.896 69.1742 357.292 57.2651 361.058 33.6654C362.759 23.3403 361.125 15.2281 356.223 9.54677C350.844 3.30748 341.301 0.00774384 328.623 0.00774384ZM332.994 34.9985C330.927 48.4045 320.543 48.4045 310.495 48.4045H304.785L308.801 23.368C309.039 21.8546 310.356 20.7402 311.913 20.7402H314.533C321.368 20.7402 327.826 20.7402 331.16 24.5857C333.148 26.8804 333.752 30.2891 332.994 34.9985Z" fill="#469BDB"/>
<path d="M441.845 34.5672H423.717C422.161 34.5672 420.836 35.6817 420.604 37.1951L419.801 42.199L418.527 40.3851C414.601 34.7636 405.849 32.8848 397.109 32.8848C377.064 32.8848 359.95 47.8585 356.615 68.8634C354.887 79.3411 357.341 89.3602 363.367 96.3469C368.906 102.771 376.804 105.448 386.214 105.448C402.365 105.448 411.321 95.2057 411.321 95.2057L410.512 100.177C410.208 102.078 411.692 103.782 413.637 103.782H429.97C432.557 103.782 434.761 101.925 435.166 99.3959L444.975 38.1617C445.273 36.2769 443.789 34.5672 441.845 34.5672ZM416.56 69.3879C414.821 79.6086 406.585 86.4707 396.096 86.4707C390.839 86.4707 386.618 84.8041 383.915 81.6465C381.236 78.5108 380.227 74.0477 381.069 69.0762C382.714 58.9426 391.066 51.8576 401.396 51.8576C406.547 51.8576 410.734 53.5454 413.492 56.7298C416.267 59.9475 417.364 64.4382 416.56 69.3879Z" fill="#469BDB"/>
<path d="M463.23 2.63613L447.682 100.193C447.378 102.083 448.862 103.787 450.795 103.787H466.425C469.023 103.787 471.228 101.93 471.627 99.4009L486.957 3.60382C487.262 1.71289 485.778 0.00318909 483.845 0.00318909H466.342C464.797 0.00774384 463.468 1.12361 463.23 2.63613Z" fill="#469BDB"/>
</svg>
