<svg width="49" height="40" viewBox="0 0 49 40" fill="none" xmlns="http://www.w3.org/2000/svg">
<path d="M34.6706 40L25.9412 34.0249C31.0471 26.9986 33.6824 19.4191 33.8471 11.2863L33.8471 2.48999e-06L49 3.8147e-06L49 9.62656C49 15.2697 47.6824 20.8575 45.0471 26.39C42.3569 31.9225 38.898 36.4592 34.6706 40ZM8.72941 40L-3.29234e-06 34.0249C5.10588 26.9986 7.74118 19.4191 7.90588 11.2863L7.90588 2.22135e-07L23.0588 1.54685e-06L23.0588 9.62656C23.0588 15.2697 21.7412 20.8575 19.1059 26.39C16.4157 31.9225 12.9569 36.4592 8.72941 40Z" fill="#8F7A61"/>
</svg>
