<svg width="16" height="12" viewBox="0 0 16 12" fill="none" xmlns="http://www.w3.org/2000/svg">
<path d="M13.8255 2.99269C14.4221 2.56615 14.924 2.03385 15.3327 1.42115V1.42038C14.7869 1.66077 14.2063 1.82077 13.6002 1.89846C14.2235 1.52385 14.6998 0.935 14.9232 0.225385C14.3419 0.574231 13.7003 0.820385 13.0166 0.958077C12.4647 0.366154 11.6782 0 10.82 0C9.15549 0 7.81525 1.36077 7.81525 3.02808C7.81525 3.26808 7.83549 3.49885 7.88477 3.71846C5.38532 3.59538 3.1731 2.38923 1.68695 0.551154C1.42799 1.00462 1.27522 1.52346 1.27522 2.08154C1.27522 3.13 1.81108 4.05923 2.61126 4.59769C2.12772 4.58846 1.65411 4.44692 1.25268 4.22462V4.25769C1.25268 5.72923 2.29463 6.95154 3.66199 7.23308C3.41678 7.30077 3.15056 7.33269 2.87365 7.33269C2.68115 7.33269 2.48674 7.32154 2.30456 7.28115C2.69414 8.48 3.79987 9.36192 5.11376 9.39077C4.09091 10.1965 2.79154 10.6819 1.38522 10.6819C1.13886 10.6819 0.902439 10.6708 0.666016 10.6408C1.99824 11.5058 3.57605 12 5.27876 12C10.5851 12 14.0432 7.54231 13.8255 2.99269Z" fill="black"/>
</svg>
