<svg width="501" height="162" viewBox="0 0 501 162" fill="none" xmlns="http://www.w3.org/2000/svg">
<path d="M217.099 159.663H176.515L201.899 2.84277H242.482L217.099 159.663Z" fill="#00579F"/>
<path d="M364.222 6.67646C356.217 3.50343 343.52 0 327.821 0C287.742 0 259.519 21.3531 259.346 51.8817C259.013 74.4056 279.553 86.9159 294.915 94.4261C310.617 102.1 315.954 107.109 315.954 113.95C315.794 124.456 303.266 129.298 291.582 129.298C275.379 129.298 266.697 126.802 253.503 120.957L248.159 118.451L242.479 153.654C251.998 157.987 269.535 161.832 287.742 162C330.326 162 358.05 140.977 358.379 108.444C358.541 90.5923 347.695 76.9134 324.312 65.7357C310.117 58.5604 301.424 53.7221 301.424 46.3804C301.591 39.7062 308.777 32.8701 324.8 32.8701C337.994 32.5353 347.688 35.7039 355.032 38.8747L358.703 40.5399L364.222 6.67646Z" fill="#00579F"/>
<path d="M418.162 104.107C421.505 95.0981 434.365 60.2302 434.365 60.2302C434.197 60.565 437.701 51.0548 439.705 45.2165L442.541 58.729C442.541 58.729 450.227 96.2666 451.896 104.107C445.553 104.107 426.178 104.107 418.162 104.107ZM468.259 2.84277H436.867C427.186 2.84277 419.831 5.67655 415.654 15.8542L355.371 159.661H397.955C397.955 159.661 404.966 140.306 406.473 136.137C411.145 136.137 452.57 136.137 458.58 136.137C459.745 141.643 463.423 159.661 463.423 159.661H501L468.259 2.84277Z" fill="#00579F"/>
<path d="M142.617 2.84277L102.872 109.779L98.5285 88.0913C91.1804 63.0662 68.1351 35.877 42.4177 22.3577L78.8233 159.497H121.74L185.532 2.84277H142.617Z" fill="#00579F"/>
<path d="M65.9645 2.84277H0.668009L0 6.01137C50.9354 19.025 84.6689 50.394 98.5285 88.0979L84.3338 16.025C81.9968 6.00916 74.8151 3.17316 65.9645 2.84277Z" fill="#FAA61A"/>
</svg>
