<svg width="538" height="397" viewBox="0 0 538 397" fill="none" xmlns="http://www.w3.org/2000/svg">
<g opacity="0.4">
<path opacity="0.2" d="M537.999 0H243.914V28.6597H537.999V0Z" fill="#CD9E64"/>
<path opacity="0.2" d="M537.999 56.8445H243.914V85.5043H537.999V56.8445Z" fill="#CD9E64"/>
<path opacity="0.05" d="M537.999 28.4246H243.914V57.0844H537.999V28.4246Z" fill="#8F7A61"/>
<path opacity="0.2" d="M537.999 113.689H243.914V142.349H537.999V113.689Z" fill="#CD9E64"/>
<path opacity="0.05" d="M537.999 85.2693H243.914V113.929H537.999V85.2693Z" fill="#8F7A61"/>
<path opacity="0.2" d="M537.999 169.919H243.914V198.579H537.999V169.919Z" fill="#CD9E64"/>
<path opacity="0.05" d="M537.999 141.499H243.914V170.158H537.999V141.499Z" fill="#8F7A61"/>
<path opacity="0.05" d="M537.999 198.085H243.914V226.745H537.999V198.085Z" fill="#8F7A61"/>
<path opacity="0.2" d="M537.999 226.745H243.914V255.405H537.999V226.745Z" fill="#CD9E64"/>
<path opacity="0.2" d="M537.999 254.907H243.914V283.567H537.999V254.907Z" fill="#8F7A61"/>
</g>
<path d="M432.873 352.428H386.39C380.75 352.428 376.139 347.809 376.139 342.171V300.182C376.139 294.54 380.75 289.926 386.39 289.926H432.873C438.513 289.926 443.125 294.54 443.125 300.182V342.171C443.13 347.809 438.513 352.428 432.873 352.428Z" fill="#8F7A61"/>
<path d="M308.094 197.071C308.094 197.071 303.818 197.28 302.948 196.929C302.077 196.572 299.69 195.167 300.036 193.583C300.255 192.6 302.026 194.163 302.749 193.873C303.472 193.583 301.273 193.374 301.166 193.002C301.059 192.63 302.978 192.437 303.67 192.315C304.363 192.193 306.358 193.797 307.936 194.23C309.514 194.657 308.094 197.071 308.094 197.071Z" fill="#FFB27D"/>
<path d="M363.984 192.417C363.984 192.417 358.049 199.139 350.841 200.101C343.634 201.064 332.99 203.203 329.707 203.233C326.424 203.264 307.789 197.463 307.789 197.463C307.789 197.463 307.443 196.873 307.845 195.544C308.232 194.27 309.168 193.756 309.168 193.756C309.168 193.756 321.939 194.072 327.905 194.902C330.384 195.248 347.258 185.18 349.899 179.11C350.933 176.731 363.984 192.417 363.984 192.417Z" fill="#ED7D2B"/>
<path d="M189.771 251.604H71.7363V348.98H189.771V251.604Z" fill="#CD9E64"/>
<path d="M130.75 251.604H12.7207V348.98H130.75V251.604Z" fill="#8F7A61"/>
<path d="M189.706 324.286H171L172.649 319.02L171 315.257H189.706V324.286Z" fill="#8F7A61"/>
<path d="M130.755 281.737H112.049L113.698 276.471L112.049 272.713H130.755V281.737Z" fill="#232323"/>
<path d="M130.756 272.713H149.457L147.808 277.978L149.457 281.737H130.756V272.713Z" fill="#8F7A61"/>
<path d="M12.7207 325.33H31.4218L29.7726 330.596L31.4218 334.359H12.7207V325.33Z" fill="#232323"/>
<path d="M20.4516 271.425H54.418V258.204H20.4516V271.425Z" fill="#F8F4EE"/>
<path d="M177.049 154.318H59.0195V251.695H177.049V154.318Z" fill="#CD9E64"/>
<path d="M118.035 154.318H0V251.695H118.035V154.318Z" fill="#8F7A61"/>
<path d="M176.985 227.001H158.279L159.928 221.735L158.279 217.971H176.985V227.001Z" fill="#8F7A61"/>
<path d="M118.035 184.452H99.334L100.978 179.186L99.334 175.427H118.035V184.452Z" fill="#232323"/>
<path d="M118.033 175.427H136.734L135.09 180.688L136.734 184.452H118.033V175.427Z" fill="#8F7A61"/>
<path d="M0 228.045H18.7011L17.057 233.311L18.7011 237.074H0V228.045Z" fill="#232323"/>
<path d="M7.72896 174.139H41.6953V160.919H7.72896V174.139Z" fill="#F8F4EE"/>
<path d="M241.593 108.153H210.289V355.392H241.593V108.153Z" fill="#232323"/>
<path d="M409.485 296.567H330.161C324.312 296.567 319.527 291.78 319.527 285.928V266.011C319.527 260.159 324.312 255.372 330.161 255.372H409.485C415.334 255.372 420.118 260.159 420.118 266.011V285.928C420.118 291.78 415.334 296.567 409.485 296.567Z" fill="#F8F4EE"/>
<path d="M251.987 328.518L379.413 333.687V281.064L249.875 283.178L251.987 328.518Z" fill="#8F7A61"/>
<path d="M286.455 368.175C301.861 352.762 301.861 327.772 286.455 312.359C271.05 296.946 246.073 296.946 230.667 312.359C215.262 327.772 215.262 352.762 230.667 368.175C246.073 383.588 271.05 383.588 286.455 368.175Z" fill="#232323"/>
<path d="M281.01 343.911C283.022 331.512 274.606 319.83 262.213 317.817C249.82 315.805 238.143 324.225 236.132 336.624C234.121 349.023 242.537 360.706 254.929 362.718C267.322 364.731 278.999 356.31 281.01 343.911Z" fill="#8F7A61"/>
<path d="M465.411 355.809C469.357 339.09 459.009 322.336 442.298 318.389C425.588 314.441 408.842 324.794 404.897 341.513C400.951 358.232 411.299 374.985 428.009 378.933C444.72 382.881 461.465 372.528 465.411 355.809Z" fill="#232323"/>
<path d="M417.227 348.629C417.227 338.729 425.249 330.703 435.144 330.703C445.039 330.703 453.061 338.729 453.061 348.629C453.061 358.529 445.039 366.555 435.144 366.555C425.249 366.555 417.227 358.529 417.227 348.629Z" fill="#8F7A61"/>
<path d="M412.601 247.234V270.726H379.729L301.143 322.412V360.816H378.894C387.023 360.816 393.615 354.221 393.615 346.088V337.405C393.615 328.014 398.221 319.219 405.938 313.871C410.275 310.867 415.426 309.252 420.704 309.252H445.524C452.238 309.252 457.684 303.803 457.684 297.086V260.266C457.684 253.07 451.851 247.234 444.658 247.234H412.601Z" fill="#CD9E64"/>
<path d="M252.378 295.747L241.592 294.56L302.195 150.855C310.125 132.053 328.429 119.902 348.83 119.902H399.665C412.197 119.902 422.393 130.103 422.393 142.641V270.726H412.06V142.641C412.06 135.801 406.496 130.235 399.66 130.235H348.825C332.588 130.235 318.02 139.906 311.708 154.873L252.378 295.747Z" fill="#232323"/>
<path d="M304.273 363.637C302.716 363.637 301.454 362.374 301.454 360.816V331.894C301.454 311.982 285.262 295.782 265.359 295.782C265.248 295.782 265.141 295.777 265.029 295.762C264.81 295.736 242.683 293.358 225.774 306.543C224.547 307.5 222.776 307.282 221.819 306.054C220.862 304.827 221.081 303.055 222.307 302.097C240.464 287.945 263.13 289.895 265.512 290.145C288.448 290.231 307.083 308.926 307.083 331.894V360.816C307.093 362.374 305.831 363.637 304.273 363.637Z" fill="#232323"/>
<path d="M210.292 347.83H3.49609V355.392H210.292V347.83Z" fill="#232323"/>
<path d="M210.287 266.968H203.242V355.397H210.287V266.968Z" fill="#232323"/>
<path d="M391.903 208.041L388.172 255.377H329.483C329.483 255.377 326.378 242.151 336.115 241.571C345.847 240.995 369.165 237.476 369.165 237.476C369.165 237.476 368.02 208.076 385.978 203.172C389.118 202.317 392.152 204.848 391.903 208.041Z" fill="#232323"/>
<path d="M359.658 176.059C359.658 176.059 353.646 179.715 347.126 178.682C347.126 178.682 345.838 178.356 346.469 176.838C346.072 175.616 346.118 175.728 345.889 174.816C345.319 172.728 345.141 171.521 345.141 171.521L348.841 167.63L352.348 163.913C353.315 172.805 359.658 176.059 359.658 176.059Z" fill="#FFB27D"/>
<path d="M352.908 167.284C352.908 167.284 350.893 172.672 345.889 174.821C345.319 172.733 344.947 170.543 344.947 170.543L348.846 167.63L352.908 167.284Z" fill="#ED985F"/>
<path d="M340.993 171.338C340.993 171.338 352.471 172.774 353.276 165.716C354.08 158.662 356.106 154.094 348.812 152.877C341.518 151.665 339.787 154.196 338.937 156.488C338.082 158.785 338.026 170.783 340.993 171.338Z" fill="#FFB27D"/>
<path d="M356.894 151.732C356.99 151.609 357.23 151.502 357.759 151.457C357.759 151.457 357.326 151.207 356.756 151.212C356.619 150.479 356.176 149.185 354.888 148.915C354.888 148.915 355.585 149.256 355.703 150.036C354.17 148.579 350.974 147.596 342.26 148.615C330.776 149.959 334.848 157.196 336.375 158.021C337.902 158.846 341.562 156.289 344.352 156.407C347.141 156.524 347.818 160.521 348.785 161.036C349.747 161.55 349.34 160.593 350.592 159.966C351.844 159.34 352.048 161.453 351.732 162.839C351.417 164.229 353.239 165.976 353.239 165.976C353.239 165.976 353.239 165.976 354.939 164C356.639 162.024 358.003 153.881 357.133 152.185C357.051 152.037 356.97 151.884 356.894 151.732Z" fill="#8F7A61"/>
<path d="M370.444 220.044C370.444 220.044 318.102 222.387 310.961 227.566C303.819 232.75 291.328 276.476 291.328 276.476C291.328 276.476 293.863 278.681 301.376 276.476C301.376 276.476 311.953 263.001 316 253.753C319.594 245.543 320.876 241.408 322.413 241.826C325.686 242.717 359.251 243.878 369.166 237.471C375.519 233.377 369.604 220.039 370.444 220.044Z" fill="#8F7A61"/>
<path d="M359.658 174.995C359.658 174.995 366.367 180.515 368.484 197.005C370.602 213.495 372.969 227.999 371.671 228.585C362.499 232.73 337.811 228.498 338.427 218.685C339.043 208.871 341.308 179.802 347.126 177.225C352.939 174.648 359.658 174.995 359.658 174.995Z" fill="#FF9E55"/>
<path d="M311.846 220.431C310.762 220.885 309.499 220.365 309.046 219.28L298.174 193.226C297.721 192.142 298.24 190.879 299.324 190.425C300.413 189.972 301.671 190.492 302.124 191.576L312.996 217.63C313.454 218.715 312.935 219.978 311.846 220.431Z" fill="#232323"/>
<path d="M311.186 205.759C311.186 205.759 307.053 206.885 306.131 206.727C305.205 206.569 302.568 205.708 302.568 204.089C302.568 203.081 304.635 204.226 305.281 203.789C305.923 203.351 303.734 203.62 303.546 203.279C303.362 202.938 305.195 202.337 305.846 202.067C306.498 201.802 308.794 202.933 310.422 203.014C312.056 203.101 311.186 205.759 311.186 205.759Z" fill="#FFB27D"/>
<path d="M364.756 189.162C364.756 189.162 360.409 197.005 353.578 199.5C346.747 201.996 336.817 206.381 333.615 207.119C330.413 207.857 310.969 206.213 310.969 206.213C310.969 206.213 310.501 205.708 310.608 204.323C310.709 202.999 311.514 202.291 311.514 202.291C311.514 202.291 324.051 199.842 330.057 199.373C332.551 199.174 346.859 185.704 348.132 179.206C348.631 176.66 364.756 189.162 364.756 189.162Z" fill="#FF9E55"/>
<path d="M300.495 275.004C300.495 275.004 301.086 281.844 299.64 282.557L281.143 282.516C281.143 282.516 281.143 280.382 284.115 279.903C287.088 279.43 292.305 277.688 293.191 273.813C294.071 269.942 300.495 275.004 300.495 275.004Z" fill="#232323"/>
<path d="M290.54 202.031H298.939C301.117 202.031 303.056 203.396 303.795 205.449L306.222 212.207C306.711 213.571 306.604 215.079 305.927 216.362L304.533 219.005C301.188 225.341 294.816 229.501 287.674 230.016L277.428 230.749L285.628 205.591C286.325 203.468 288.305 202.031 290.54 202.031Z" fill="#232323"/>
</svg>
