<svg width="445" height="331" viewBox="0 0 445 331" fill="none" xmlns="http://www.w3.org/2000/svg">
<path opacity="0.1" d="M390.252 87.4292C390.332 86.914 390.385 86.3988 390.385 85.8569C390.385 80.3226 385.899 75.8365 380.365 75.8365C379.814 75.8365 379.272 75.8898 378.739 75.9787C376.74 72.6474 373.098 70.4177 368.932 70.4177C363.691 70.4177 359.276 73.9444 357.925 78.7591C357.224 78.5459 356.486 78.4216 355.714 78.4216C351.609 78.4216 348.287 81.7439 348.287 85.848C348.287 86.3899 348.349 86.914 348.456 87.4203H390.252V87.4292Z" fill="#8F7A61"/>
<path d="M128.817 47.8808C128.959 47.0013 129.048 46.1041 129.048 45.1803C129.048 35.6663 121.337 27.9556 111.823 27.9556C110.872 27.9556 109.94 28.0533 109.033 28.2043C105.596 22.4835 99.3418 18.6548 92.1819 18.6548C83.1742 18.6548 75.5879 24.7221 73.2694 32.9924C72.0701 32.6193 70.7998 32.415 69.4762 32.415C62.4318 32.415 56.7109 38.1269 56.7109 45.1803C56.7109 46.1041 56.8175 47.0102 57.0041 47.8808H128.817Z" fill="#F0F0F0"/>
<path d="M444.164 290.883H0V291.105H444.164V290.883Z" fill="#EBEBEB"/>
<path d="M399.658 305.176H370.236V305.398H399.658V305.176Z" fill="#EBEBEB"/>
<path d="M294.231 307.593H286.512V307.815H294.231V307.593Z" fill="#EBEBEB"/>
<path d="M369.35 296.933H352.303V297.155H369.35V296.933Z" fill="#EBEBEB"/>
<path d="M84.9685 298.425H46.6016V298.647H84.9685V298.425Z" fill="#EBEBEB"/>
<path d="M98.5079 298.425H92.8848V298.647H98.5079V298.425Z" fill="#EBEBEB"/>
<path d="M200.008 302.174H116.789V302.396H200.008V302.174Z" fill="#EBEBEB"/>
<path d="M210.543 251.264H39.0157C36.2175 251.264 33.9434 248.99 33.9434 246.191V5.07236C33.9434 2.27412 36.2175 0 39.0157 0H210.552C213.35 0 215.624 2.27412 215.624 5.07236V246.191C215.615 248.99 213.341 251.264 210.543 251.264ZM39.0157 0.222082C36.3418 0.222082 34.1654 2.39849 34.1654 5.07236V246.191C34.1654 248.865 36.3418 251.042 39.0157 251.042H210.552C213.226 251.042 215.402 248.865 215.402 246.191V5.07236C215.402 2.39849 213.226 0.222082 210.552 0.222082H39.0157Z" fill="#EBEBEB"/>
<path d="M402.689 251.264H231.152C228.354 251.264 226.08 248.99 226.08 246.191V5.07236C226.08 2.27412 228.354 0 231.152 0H402.689C405.487 0 407.761 2.27412 407.761 5.07236V246.191C407.761 248.99 405.487 251.264 402.689 251.264ZM231.152 0.222082C228.479 0.222082 226.302 2.39849 226.302 5.07236V246.191C226.302 248.865 228.479 251.042 231.152 251.042H402.689C405.363 251.042 407.539 248.865 407.539 246.191V5.07236C407.539 2.39849 405.363 0.222082 402.689 0.222082H231.152Z" fill="#EBEBEB"/>
<path opacity="0.1" d="M33.668 265.175V206.11H62.1211V189.969H75.7392V142.506L93.337 124.908H129.039V175.765H178.03V185.82H212.666V172.62H249.878V162.671H278.935V103.748H330.379V141.297H342.22V154.898H369.749V177.195H384.46L395.777 188.521V200.034H407.05V265.175H33.668Z" fill="#CD9E64"/>
<path opacity="0.1" d="M68.3217 206.11H62.6097L62.1211 205.781V206.11H33.668V265.175H68.3217V206.11Z" fill="#8F7A61"/>
<path opacity="0.1" d="M213.164 176.911V185.821H211.76L210.268 195.344L214.487 265.175H261.418V172.62H250.376H213.83L213.164 176.911Z" fill="#8F7A61"/>
<path opacity="0.1" d="M322.42 154.898V265.175H407.54V200.034H396.267V188.521L384.949 177.195H370.239V154.898H345.259H342.709H322.42Z" fill="#8F7A61"/>
<path d="M385.003 183.191H379.859V188.334H385.003V183.191Z" fill="white"/>
<path d="M375.915 183.191H370.771V188.334H375.915V183.191Z" fill="white"/>
<path d="M385.003 192.767H379.859V197.911H385.003V192.767Z" fill="white"/>
<path d="M375.915 192.767H370.771V197.911H375.915V192.767Z" fill="white"/>
<path d="M356.913 159.046H351.77V164.19H356.913V159.046Z" fill="white"/>
<path d="M347.825 159.046H342.682V164.19H347.825V159.046Z" fill="white"/>
<path d="M62.3524 214.443H57.209V219.586H62.3524V214.443Z" fill="white"/>
<path d="M53.2645 214.443H48.1211V219.586H53.2645V214.443Z" fill="white"/>
<path d="M255.486 192.878V187.734H250.343V192.878H255.486Z" fill="white"/>
<path d="M255.486 183.789V178.646H250.343V183.789H255.486Z" fill="white"/>
<path opacity="0.1" d="M220.359 331C315.483 331 392.597 326.498 392.597 320.944C392.597 315.39 315.483 310.888 220.359 310.888C125.235 310.888 48.1211 315.39 48.1211 320.944C48.1211 326.498 125.235 331 220.359 331Z" fill="#8F7A61"/>
<path d="M393.998 277.15H345.469V317.284H393.998V277.15Z" fill="#8F7A61"/>
<path opacity="0.3" d="M393.998 277.15H345.469V317.284H393.998V277.15Z" fill="white"/>
<path d="M357.436 277.15H319.824V317.285H357.436V277.15Z" fill="#8F7A61"/>
<path opacity="0.1" d="M357.436 277.15H319.824V317.285H357.436V277.15Z" fill="white"/>
<path opacity="0.3" d="M343.951 277.15H333.309V289.64H343.951V277.15Z" fill="white"/>
<path opacity="0.1" d="M383.66 277.15H373.018V289.64H383.66V277.15Z" fill="black"/>
<path d="M222.063 36.0308H102.175C94.8192 36.0308 88.8496 42.0003 88.8496 49.3557V299.456C88.8496 306.811 94.8192 312.781 102.175 312.781H222.054C229.41 312.781 235.379 306.811 235.379 299.456V49.3557C235.388 42.0003 229.419 36.0308 222.063 36.0308Z" fill="#263238"/>
<path d="M225.91 54.4724H98.3281V277.052H225.91V54.4724Z" fill="#8F7A61"/>
<path opacity="0.3" d="M225.91 254.995H98.3281V277.052H225.91V254.995Z" fill="white"/>
<path opacity="0.1" d="M225.91 146.059C193.477 178.323 133.417 238.658 98.3281 273.943V277.052H169.616L225.91 220.759V146.059Z" fill="white"/>
<path opacity="0.1" d="M98.3281 166.411L210.266 54.4724H157.917C144.059 68.2237 120.385 91.951 98.3281 114.088V166.411Z" fill="white"/>
<path opacity="0.1" d="M98.3281 213.199L225.91 85.6172V58.3188L98.3281 185.892V213.199Z" fill="white"/>
<path opacity="0.2" d="M225.91 54.4724H98.3281V64.5105H225.91V54.4724Z" fill="black"/>
<path d="M163.519 300.925C168.261 300.156 171.48 295.689 170.711 290.948C169.941 286.206 165.474 282.987 160.733 283.756C155.992 284.526 152.772 288.993 153.542 293.734C154.311 298.475 158.778 301.695 163.519 300.925Z" fill="#8F7A61"/>
<g opacity="0.6">
<path opacity="0.6" d="M112.125 61.7976H114.053V59.2215H112.125V61.7976Z" fill="white"/>
<path opacity="0.6" d="M108.977 61.8003H110.904V58.3625H108.977V61.8003Z" fill="white"/>
<path opacity="0.6" d="M105.834 61.7942H107.762V57.5036H105.834V61.7942Z" fill="white"/>
<path opacity="0.6" d="M102.686 61.7971H104.613V56.6448H102.686V61.7971Z" fill="white"/>
</g>
<path opacity="0.6" d="M212.373 58.2832H211.227V60.8594H212.373V58.2832Z" fill="white"/>
<path opacity="0.6" d="M213.15 61.8013H222.273V57.3507H213.15V61.8013Z" fill="white"/>
<path opacity="0.4" d="M168.471 187.473C165.539 184.852 162.119 188.406 162.119 188.406C162.119 188.406 158.699 184.852 155.768 187.473C151.592 191.213 157.66 197.902 162.119 199.243C166.579 197.902 172.646 191.204 168.471 187.473Z" fill="white"/>
<path d="M198.656 206.11H125.583C120.981 206.11 117.25 209.841 117.25 214.442C117.25 219.044 120.981 222.775 125.583 222.775H198.656C203.258 222.775 206.989 219.044 206.989 214.442C206.989 209.841 203.258 206.11 198.656 206.11Z" fill="#CD9E64"/>
<path d="M145.707 217.5V211.458H147.883C148.375 211.458 148.801 211.538 149.172 211.696C149.542 211.854 149.846 212.072 150.095 212.34C150.345 212.613 150.527 212.929 150.655 213.3C150.776 213.665 150.843 214.054 150.843 214.467C150.843 214.929 150.776 215.342 150.636 215.713C150.497 216.084 150.302 216.4 150.041 216.667C149.779 216.929 149.469 217.135 149.111 217.281C148.746 217.427 148.339 217.5 147.889 217.5H145.707ZM149.664 214.473C149.664 214.181 149.627 213.92 149.548 213.671C149.469 213.428 149.354 213.215 149.202 213.039C149.05 212.863 148.862 212.729 148.643 212.632C148.418 212.534 148.169 212.486 147.889 212.486H146.874V216.467H147.889C148.175 216.467 148.43 216.418 148.655 216.315C148.88 216.212 149.062 216.072 149.214 215.896C149.366 215.719 149.475 215.507 149.554 215.263C149.621 215.02 149.664 214.759 149.664 214.473Z" fill="white"/>
<path d="M154.302 217.543C153.865 217.543 153.463 217.458 153.111 217.281C152.752 217.111 152.448 216.88 152.193 216.595C151.938 216.309 151.737 215.981 151.597 215.61C151.458 215.239 151.385 214.862 151.385 214.479C151.385 214.078 151.458 213.689 151.61 213.325C151.762 212.954 151.962 212.632 152.224 212.346C152.485 212.06 152.795 211.835 153.153 211.671C153.512 211.501 153.907 211.422 154.327 211.422C154.758 211.422 155.153 211.513 155.512 211.69C155.87 211.866 156.174 212.103 156.43 212.395C156.685 212.686 156.879 213.015 157.019 213.379C157.159 213.75 157.232 214.121 157.232 214.504C157.232 214.905 157.159 215.288 157.013 215.659C156.867 216.023 156.667 216.345 156.405 216.631C156.144 216.911 155.834 217.136 155.475 217.306C155.117 217.464 154.728 217.543 154.302 217.543ZM152.564 214.479C152.564 214.741 152.6 214.99 152.679 215.239C152.758 215.482 152.874 215.701 153.02 215.883C153.172 216.072 153.354 216.224 153.567 216.333C153.786 216.449 154.029 216.503 154.302 216.503C154.582 216.503 154.831 216.443 155.05 216.327C155.269 216.212 155.451 216.054 155.597 215.865C155.749 215.671 155.858 215.458 155.937 215.215C156.016 214.972 156.053 214.729 156.053 214.479C156.053 214.218 156.01 213.969 155.931 213.72C155.852 213.477 155.737 213.258 155.585 213.075C155.433 212.887 155.25 212.741 155.038 212.632C154.819 212.522 154.576 212.468 154.308 212.468C154.029 212.468 153.78 212.528 153.555 212.644C153.336 212.759 153.153 212.911 153.008 213.106C152.862 213.294 152.752 213.513 152.673 213.75C152.606 213.987 152.564 214.23 152.564 214.479Z" fill="white"/>
<path d="M159.292 213.628V217.5H158.125V211.458H159.031L162.155 215.421V211.465H163.322V217.5H162.374L159.292 213.628Z" fill="white"/>
<path d="M166.27 211.458H167.297L169.576 217.5H168.379L167.82 215.993H165.729L165.182 217.5H163.984L166.27 211.458ZM167.613 215.172L166.786 212.796L165.923 215.172H167.613Z" fill="white"/>
<path d="M174.123 212.492H172.208V217.506H171.053V212.492H169.139V211.465H174.123V212.492Z" fill="white"/>
<path d="M179.027 216.473V217.5H174.869V211.458H178.954V212.486H176.036V213.938H178.559V214.893H176.036V216.467H179.027V216.473Z" fill="white"/>
<path opacity="0.3" d="M235.388 114.985L208.623 118.796L215.614 168.516L235.388 166.508V114.985Z" fill="#263238"/>
<path opacity="0.7" d="M163.355 177.195C190.564 177.195 212.621 155.138 212.621 127.928C212.621 100.719 190.564 78.6616 163.355 78.6616C136.145 78.6616 114.088 100.719 114.088 127.928C114.088 155.138 136.145 177.195 163.355 177.195Z" fill="white"/>
<path d="M181.026 97.8051C181.026 97.8051 191.09 112.685 196.74 113.298C202.39 113.902 224.492 94.8914 224.492 94.8914L228.249 98.1338C228.249 98.1338 207.223 121.266 198.446 122.581C189.669 123.895 172.986 106.537 172.986 106.537L181.026 97.8051Z" fill="#E4897B"/>
<path d="M178.626 98.9156C178.626 98.9156 182.17 95.4334 187.065 101.474C191.96 107.515 193.958 108.758 193.958 108.758L181.495 120.902C181.495 120.911 174.211 102.149 178.626 98.9156Z" fill="#8F7A61"/>
<path d="M222.741 93.5144C222.741 93.5144 223.176 87.9269 224.482 87.5626C225.788 87.1984 225.317 91.338 225.317 91.338C225.317 91.338 232.157 87.1718 233.534 87.536C234.911 87.9091 234.68 90.6096 234.44 91.338C232.343 97.5208 224.89 100.132 224.89 100.132L221.879 97.2987L222.741 93.5144Z" fill="#E4897B"/>
<path d="M171.45 83.0144C171.45 83.0144 178.317 94.4561 176.203 101.625C174.088 108.794 163.277 102.362 163.277 102.362L163.411 88.1667L171.45 83.0144Z" fill="#263238"/>
<path d="M153.033 63.3025C153.033 63.3025 142.879 68.4459 146.868 86.5412C153.548 116.878 163.409 104.299 163.409 104.299C163.409 104.299 162.973 92.3419 158.923 86.5412C154.872 80.7404 155.742 72.4523 155.742 72.4523L153.033 63.3025Z" fill="#263238"/>
<path d="M182.482 143.438L152.039 146.068C151.559 138.508 151.08 132.734 148.806 123.709C148.077 120.795 147.162 117.535 145.99 113.777C145.359 111.769 144.675 109.611 143.893 107.283C143.316 105.524 142.685 103.65 141.992 101.678C146.132 100.363 150.351 99.3328 154.624 98.6221C159.137 97.8226 163.712 97.3429 168.296 97.183C174.221 97.1386 181.025 97.8049 181.025 97.8049C181.025 97.8049 181.994 98.0358 182.607 104.316C183.157 110.206 183.699 121.994 182.482 143.438Z" fill="#8F7A61"/>
<path opacity="0.2" d="M182.482 143.438L152.039 146.068C151.559 138.508 151.08 132.734 148.806 123.709C148.077 120.795 147.162 117.535 145.99 113.777C145.359 111.769 144.675 109.611 143.893 107.283C143.316 105.524 142.685 103.65 141.992 101.678C146.132 100.363 150.351 99.3328 154.624 98.6221C159.137 97.8226 163.712 97.3429 168.296 97.183C174.221 97.1386 181.025 97.8049 181.025 97.8049C181.025 97.8049 181.994 98.0358 182.607 104.316C183.157 110.206 183.699 121.994 182.482 143.438Z" fill="white"/>
<path opacity="0.2" d="M151.887 143.785C156.764 141.893 172.843 133.995 172.843 133.995L151.479 138.81C151.638 140.445 151.772 142.088 151.887 143.785Z" fill="black"/>
<path d="M165.791 103.908C158.285 102.948 156.037 99.7415 156.037 99.7415C160.799 95.2466 156.845 87.4648 156.845 87.4648L165.88 89.1527C165.64 90.6451 165.542 91.8976 165.524 92.9547C165.453 98.4357 167.932 98.489 167.932 98.489C169.504 101.465 165.791 103.908 165.791 103.908Z" fill="#E4897B"/>
<path opacity="0.2" d="M165.86 89.1527C165.621 90.6451 165.523 91.8976 165.505 92.9547C159.402 92.9547 156.826 87.4648 156.826 87.4648L165.86 89.1527Z" fill="black"/>
<path d="M161.81 63.8709C169.662 63.4445 171.43 67.211 172.452 75.2681C173.722 85.3418 171.919 92.9725 161.987 91.3469C151.087 89.5702 148.032 72.31 154.587 65.7186C156.142 64.1552 159.313 64.013 161.81 63.8709Z" fill="#E4897B"/>
<path d="M167.396 76.2898C167.396 76.2898 168.596 78.2797 169.857 79.4167C169.857 79.4167 169.244 80.5182 167.841 80.4205L167.396 76.2898Z" fill="#DE5753"/>
<path d="M162.644 75.3837C163.097 75.2327 163.408 74.6108 163.408 74.6108L162.049 75.2682C162.058 75.2771 162.067 75.2771 162.076 75.2771C161.729 75.4103 161.498 75.8811 161.543 76.4497C161.596 77.0893 161.978 77.5867 162.413 77.5512C162.84 77.5157 163.15 76.9649 163.097 76.3253C163.062 75.9078 162.875 75.5702 162.644 75.3837Z" fill="#263238"/>
<path d="M170.267 74.6818C170.72 74.5308 171.031 73.9089 171.031 73.9089L169.672 74.5663C169.681 74.5752 169.69 74.5752 169.699 74.5841C169.352 74.7173 169.121 75.1881 169.166 75.7567C169.219 76.3963 169.601 76.8937 170.036 76.8582C170.463 76.8227 170.773 76.2719 170.72 75.6323C170.694 75.2059 170.507 74.8683 170.267 74.6818Z" fill="#263238"/>
<path d="M162.637 71.7593C162.637 71.7593 160.416 71.5905 159.297 73.1362" stroke="#263238" stroke-width="0.7073" stroke-miterlimit="10" stroke-linecap="round" stroke-linejoin="round"/>
<path d="M167.406 71.4395C167.406 71.4395 168.605 70.5779 170.595 71.2263" stroke="#263238" stroke-width="0.7073" stroke-miterlimit="10" stroke-linecap="round" stroke-linejoin="round"/>
<path d="M149.072 100.577C149.072 100.577 157.884 107.728 166.084 107.612C174.283 107.497 177.17 98.2759 177.17 98.2759C177.17 98.2759 164.449 94.5005 149.072 100.577Z" fill="#E4897B"/>
<path d="M136.111 118.423C136.111 118.423 133.339 134.777 133.668 139.423C133.996 144.078 141.032 144.22 144.994 143.75C149.551 143.208 173.314 133.809 173.314 133.809L172.221 129.11C172.221 129.11 153.611 134.12 145.705 135.035C144.097 135.222 142.764 133.836 143.004 132.237L144.852 120.102L136.111 118.423Z" fill="#E4897B"/>
<path d="M141.992 101.678C141.992 101.678 146.842 100.603 147.792 108.323C148.743 116.042 145.98 122.119 145.98 122.119L133.668 119.898C133.668 119.898 136.537 102.078 141.992 101.678Z" fill="#8F7A61"/>
<path d="M178.281 124.437C177.89 124.251 177.535 124.162 177.268 124.233C175.811 124.615 171.379 128.985 171.121 129.581L172.258 133.729C172.258 133.729 174.586 134.973 175.705 134.6C176.824 134.227 182.554 130.025 182.563 129.021C182.563 128.977 182.545 128.914 182.527 128.852C182.723 128.701 182.9 128.577 183.016 128.497C184.037 127.875 180.457 125.201 178.281 124.437Z" fill="#E4897B"/>
<path d="M161.348 63.8975C161.348 63.8975 162.352 73.749 154.144 74.0955C145.936 74.4419 152.793 65.2744 152.793 65.2744L161.348 63.8975Z" fill="#263238"/>
<path d="M159.589 60.8684C146.095 61.2948 147.215 81.0334 154.508 86.5322C154.508 86.5322 150.972 81.7619 153.015 77.6045C153.015 77.6045 155.636 71.173 154.81 66.225C154.81 66.225 157.83 64.8125 161.375 64.5283C162.894 66.376 166.678 71.9902 171.697 71.8748C171.901 72.6831 172.257 73.5715 172.354 74.5486C172.363 74.5397 173.101 60.442 159.589 60.8684Z" fill="#263238"/>
<path d="M169.441 84.2047C167.957 85.0042 166.03 85.0664 164.457 84.2846C164.369 84.2313 164.342 84.1159 164.386 84.027C164.431 83.9382 164.537 83.9027 164.626 83.956L164.635 83.9649C166.11 84.6666 167.815 84.6222 169.263 83.8671C169.352 83.8138 169.459 83.8494 169.512 83.9293C169.512 83.9382 169.521 83.9382 169.521 83.9471C169.574 84.0359 169.539 84.1425 169.459 84.1958C169.459 84.2047 169.45 84.2047 169.441 84.2047Z" fill="#263238"/>
<path d="M154.391 79.1948C154.267 77.9333 152.845 75.8635 150.509 76.2544C148.093 76.6542 147.204 81.7087 153.325 82.5793C154.196 82.7037 154.64 81.8242 154.391 79.1948Z" fill="#E4897B"/>
<path d="M153.477 115.092L161.649 113.928C161.649 113.928 164.332 122.643 159.473 123.584C154.161 124.606 153.477 115.092 153.477 115.092Z" fill="#8F7A61"/>
<path d="M184.264 162.049C183.856 158.016 183.225 152.517 182.399 148.209L182.479 143.447L152.036 146.077L151.76 150.501C151.05 151.815 147.941 158.327 146.537 174.255C151.787 176.164 157.446 177.204 163.353 177.204C171.357 177.204 178.917 175.285 185.597 171.892L184.264 162.049Z" fill="#263238"/>
<path d="M261.473 147.347L245.99 151.274C245.99 151.274 244.169 150.048 241.974 150.456C239.78 150.865 234.29 155.351 234.512 156.008C234.726 156.657 241.344 159.713 242.294 159.464C245.705 158.576 249.223 154.605 249.223 154.605L263.063 151.753L261.473 147.347Z" fill="#E4897B"/>
<path d="M300.285 91.6668C297.14 95.0158 288.808 94.7316 288.808 94.7316C288.808 94.7316 286.063 94.9714 285.379 92.6351C288.39 91.8889 288.852 89.7214 289.323 87.847C289.59 86.7544 289.554 85.5551 289.359 84.3293C289.261 83.6897 289.11 83.0412 288.95 82.4016L298.624 73.9802C297.664 79.1236 296.678 88.2912 300.285 91.6668Z" fill="#E4897B"/>
<path opacity="0.2" d="M296.624 79.0168C296.704 85.2085 291.774 87.3138 289.322 87.8557C289.589 86.7631 289.553 85.5638 289.358 84.3379L296.624 79.0168Z" fill="black"/>
<path d="M297.424 80.385C295.239 84.1338 291.277 85.3775 287.697 84.5513C285.387 84.0183 283.237 82.6236 281.807 80.4828C281.612 80.2074 281.443 79.9054 281.274 79.5944C278.307 73.9269 276.699 63.7378 282.589 59.4027C286.773 56.2847 292.698 57.1375 295.825 61.3304C296.722 62.5119 297.308 63.9066 297.566 65.3723C298.872 72.1769 299.956 76.1033 297.424 80.385Z" fill="#E4897B"/>
<path d="M287.491 70.267C287.669 70.8 287.456 71.3241 287.092 71.4129C286.727 71.5017 286.336 71.1286 286.194 70.5868C286.052 70.0449 286.239 69.5208 286.594 69.4408C286.949 69.352 287.349 69.7162 287.491 70.267Z" fill="#263238"/>
<path d="M281.495 71.5285C281.673 72.0615 281.451 72.5945 281.095 72.6744C280.74 72.7633 280.34 72.3902 280.198 71.8483C280.056 71.3064 280.243 70.7823 280.598 70.7024C280.953 70.6135 281.362 71.0133 281.495 71.5285Z" fill="#263238"/>
<path d="M283.655 71.6882C283.424 73.5271 283.122 75.1971 282.402 76.9027C283.3 77.2492 284.525 76.6984 285.378 76.2365L283.655 71.6882Z" fill="#DE5753"/>
<path d="M289.269 67.3444C289.153 67.3888 289.02 67.371 288.922 67.3C288.283 66.7581 287.421 66.5538 286.595 66.7492C286.426 66.8025 286.24 66.7137 286.178 66.5449C286.124 66.3761 286.213 66.1896 286.382 66.1274C287.359 65.8698 288.487 66.0918 289.322 66.7847C289.464 66.8913 289.5 67.0956 289.384 67.2467C289.384 67.2467 289.384 67.2467 289.376 67.2555C289.367 67.2911 289.322 67.3177 289.269 67.3444Z" fill="#263238"/>
<path d="M286.648 78.9281C288.229 78.7771 289.766 77.8088 290.574 76.3697C290.618 76.2809 290.583 76.1831 290.494 76.1387C290.414 76.0943 290.308 76.1299 290.263 76.2098C290.263 76.2098 290.263 76.2187 290.254 76.2187C289.473 77.5334 288.122 78.4129 286.603 78.5728C286.514 78.5816 286.443 78.6616 286.443 78.7504C286.443 78.7593 286.443 78.7593 286.443 78.7682C286.452 78.857 286.532 78.9281 286.621 78.9281C286.63 78.9281 286.639 78.9281 286.648 78.9281Z" fill="#263238"/>
<path d="M278.476 69.9383C278.423 69.9738 278.36 70.0004 278.289 70.0004C278.112 69.9649 277.996 69.7961 278.032 69.6185V69.6096C278.227 68.5614 278.911 67.673 279.888 67.22C280.057 67.1578 280.244 67.2377 280.315 67.4065C280.377 67.5753 280.297 67.7619 280.128 67.8329C279.373 68.206 278.84 68.9167 278.689 69.7428C278.645 69.8405 278.574 69.9116 278.476 69.9383Z" fill="#263238"/>
<path d="M301.893 70.1337C301.538 71.8393 300.516 73.3317 299.05 74.2822C297.114 75.5348 295.461 73.9535 295.426 71.7683C295.417 69.8228 296.385 66.7759 298.615 66.4205C300.845 66.083 302.302 68.0373 301.893 70.1337Z" fill="#E4897B"/>
<path d="M271.297 96.9432C271.297 96.9432 266.518 100.985 264.173 108.465C262.503 113.786 260.939 126.347 260.175 133.16C259.873 135.879 257.803 138.073 255.112 138.535L236.395 141.795L237.887 151.309L261.588 149.035C266.802 148.537 271.075 144.673 272.088 139.539C273.536 132.21 275.472 121.585 276.352 113.173C277.844 98.8532 276.289 95.4597 271.297 96.9432Z" fill="#8F7A61"/>
<path opacity="0.1" d="M271.297 96.9432C271.297 96.9432 266.518 100.985 264.173 108.465C262.503 113.786 260.939 126.347 260.175 133.16C259.873 135.879 257.803 138.073 255.112 138.535L236.395 141.795L237.887 151.309L261.588 149.035C266.802 148.537 271.075 144.673 272.088 139.539C273.536 132.21 275.472 121.585 276.352 113.173C277.844 98.8532 276.289 95.4597 271.297 96.9432Z" fill="black"/>
<path d="M258.159 308.383L251.123 306.651L255.129 291.576L262.165 293.308L258.159 308.383Z" fill="#E4897B"/>
<path d="M251.192 304.217L259.17 307.095C259.436 307.193 259.605 307.468 259.569 307.752L258.752 314.068C258.672 314.628 258.157 315.028 257.588 314.948C257.517 314.939 257.437 314.921 257.366 314.895C254.799 313.917 252.978 313.082 249.736 311.91C247.737 311.19 241.643 309.218 238.88 308.223C236.126 307.228 236.748 304.377 237.965 304.528C243.428 305.256 247.79 305.096 249.931 304.235C250.331 304.066 250.784 304.057 251.192 304.217Z" fill="#2E353A"/>
<path d="M248.598 304.581C248.136 304.457 247.737 304.182 247.461 303.791C247.293 303.498 247.275 303.142 247.435 302.84C247.497 302.654 247.666 302.52 247.861 302.503C248.723 302.387 250.375 304.457 250.553 304.697C250.597 304.741 250.606 304.821 250.571 304.875C250.535 304.937 250.473 304.972 250.402 304.963C249.798 304.901 249.185 304.777 248.598 304.581ZM248.11 302.867C248.039 302.84 247.968 302.823 247.897 302.84C247.852 302.823 247.781 302.867 247.728 302.991C247.63 303.196 247.63 303.427 247.737 303.631C248.35 304.235 249.176 304.573 250.038 304.59C249.513 303.888 248.856 303.311 248.11 302.867Z" fill="#8F7A61"/>
<path d="M250.368 304.954L250.297 304.928C249.755 304.315 248.965 302.396 249.347 301.747C249.48 301.525 249.755 301.428 249.995 301.517C250.244 301.57 250.457 301.73 250.581 301.952C251.114 302.849 250.599 304.794 250.573 304.883C250.555 304.937 250.502 304.981 250.448 304.999C250.413 304.999 250.386 304.981 250.368 304.954ZM250.004 301.81L249.933 301.783C249.729 301.712 249.675 301.819 249.649 301.863C249.409 302.263 249.853 303.657 250.342 304.412C250.564 303.648 250.555 302.831 250.306 302.076C250.244 301.952 250.137 301.863 250.004 301.81Z" fill="#8F7A61"/>
<path opacity="0.2" d="M262.165 293.308L255.129 291.576L253.068 299.349L260.104 301.081L262.165 293.308Z" fill="black"/>
<path d="M304.742 308.312L297.547 309.165L295.992 293.646L303.188 292.784L304.742 308.312Z" fill="#E4897B"/>
<path d="M296.756 306.855L305.239 306.749C305.524 306.749 305.773 306.944 305.844 307.22L307.3 313.42C307.425 313.971 307.078 314.531 306.519 314.655C306.448 314.673 306.368 314.682 306.297 314.682C303.552 314.673 301.553 314.531 298.106 314.575C295.983 314.602 289.578 314.904 286.647 314.948C283.715 314.984 283.298 312.097 284.488 311.812C289.854 310.569 293.887 308.89 295.592 307.326C295.903 307.024 296.321 306.855 296.756 306.855Z" fill="#2E353A"/>
<path d="M294.464 308.117C293.993 308.161 293.513 308.045 293.114 307.779C292.847 307.566 292.714 307.228 292.758 306.9C292.75 306.704 292.856 306.518 293.034 306.438C293.798 306.029 296.072 307.388 296.329 307.539C296.392 307.566 296.418 307.637 296.409 307.699C296.401 307.77 296.356 307.823 296.285 307.841C295.69 307.992 295.077 308.09 294.464 308.117ZM293.407 306.677C293.336 306.669 293.256 306.686 293.194 306.722C293.149 306.722 293.096 306.784 293.087 306.917C293.06 307.139 293.149 307.361 293.318 307.513C294.109 307.859 294.997 307.894 295.805 307.601C295.068 307.148 294.26 306.837 293.407 306.677Z" fill="#8F7A61"/>
<path d="M296.241 307.841H296.161C295.433 307.459 294.02 305.94 294.153 305.203C294.198 304.945 294.42 304.768 294.677 304.759C294.935 304.723 295.184 304.794 295.379 304.963C296.196 305.612 296.392 307.619 296.401 307.717C296.401 307.779 296.374 307.833 296.321 307.868C296.303 307.868 296.268 307.859 296.241 307.841ZM294.802 305.025H294.722C294.509 305.025 294.491 305.15 294.482 305.194C294.402 305.647 295.299 306.802 296.028 307.335C295.974 306.544 295.672 305.78 295.175 305.159C295.077 305.079 294.944 305.025 294.802 305.025Z" fill="#8F7A61"/>
<path opacity="0.2" d="M303.188 292.784L295.992 293.646L296.801 301.65L303.996 300.797L303.188 292.784Z" fill="black"/>
<path d="M271.279 166.482C271.279 166.482 253.192 255.022 252.553 288.982L264.616 294.374C264.616 294.374 274.441 255.972 277.63 234.395C277.63 234.395 286.087 217.259 288.37 203.294C288.37 203.294 287.899 264.562 294.242 296.933L305.559 296.062C305.559 296.062 316.974 181.086 314.922 162.671L271.279 166.482Z" fill="#8F7A61"/>
<path opacity="0.6" d="M271.279 166.482C271.279 166.482 253.192 255.022 252.553 288.982L264.616 294.374C264.616 294.374 274.441 255.972 277.63 234.395C277.63 234.395 286.087 217.259 288.37 203.294C288.37 203.294 287.899 264.562 294.242 296.933L305.559 296.062C305.559 296.062 316.974 181.086 314.922 162.671L271.279 166.482Z" fill="white"/>
<path opacity="0.2" d="M286.397 180.952C286.397 180.952 285.056 201.997 286.966 209.725C287.534 207.558 288.023 205.381 288.36 203.285L286.397 180.952Z" fill="black"/>
<path d="M292.804 299.509L308.34 297.199L307.861 292.891L291.711 295.014L292.804 299.509Z" fill="#8F7A61"/>
<path d="M250.508 292.287L265.512 296.915L266.942 292.829L251.458 287.765L250.508 292.287Z" fill="#8F7A61"/>
<path d="M271.296 96.9432C271.296 96.9432 273.214 93.15 290.075 92.1729C306.935 91.1957 314.486 93.6919 314.486 93.6919C314.486 93.6919 312.958 129.385 314.912 162.68C314.912 162.68 286.708 172.718 271.278 166.49C271.278 166.482 259.712 123.362 271.296 96.9432Z" fill="#CD9E64"/>
<path opacity="0.2" d="M296.117 91.9509C294.252 91.9776 292.244 92.0398 290.077 92.1641C288.78 92.2441 287.572 92.3329 286.443 92.4395C286.461 92.4662 287.882 95.1667 290.077 95.1667C292.768 95.1756 295.167 93.6032 296.117 91.9509Z" fill="black"/>
<path opacity="0.3" d="M314.035 138.331L288.371 151.309C288.371 151.309 304.548 151.807 314.23 146.565C314.142 143.785 314.079 141.04 314.035 138.331Z" fill="black"/>
<path opacity="0.1" d="M289.746 102.167L298.869 142.746L296.844 148.004L289.746 102.167Z" fill="black"/>
<path d="M289.738 102.172L241.781 109.592L248.873 155.424L296.829 148.004L289.738 102.172Z" fill="#8F7A61"/>
<path opacity="0.1" d="M289.738 102.172L241.781 109.592L248.873 155.424L296.829 148.004L289.738 102.172Z" fill="white"/>
<path d="M253.596 107.768L216.428 113.519L223.519 159.351L260.687 153.601L253.596 107.768Z" fill="#8F7A61"/>
<path opacity="0.3" d="M253.596 107.768L216.428 113.519L223.519 159.351L260.687 153.601L253.596 107.768Z" fill="white"/>
<path opacity="0.3" d="M240.276 109.826L229.76 111.453L231.669 123.795L242.186 122.168L240.276 109.826Z" fill="white"/>
<path opacity="0.1" d="M279.513 103.76L268.996 105.387L270.906 117.729L281.422 116.102L279.513 103.76Z" fill="black"/>
<path opacity="0.2" d="M256.887 144.44L245.396 146.218L246.479 153.214L257.97 151.436L256.887 144.44Z" fill="white"/>
<path opacity="0.2" d="M274.858 150.954L273.676 149.39L269.865 150.199C269.865 150.199 269.554 151.06 269.634 152.206L274.92 151.389L274.858 150.954Z" fill="#2E353A"/>
<path d="M296.906 141.795L281.387 145.579C281.387 145.579 279.575 144.336 277.381 144.718C275.186 145.109 269.652 149.541 269.865 150.199C270.07 150.856 275.213 154.88 276.146 154.578C277.079 154.276 283.066 150.057 283.066 150.057L297.857 148.822L296.906 141.795Z" fill="#E4897B"/>
<path d="M313.483 93.6389C313.483 93.6389 306.954 95.3711 307.887 107.47C308.295 112.729 308.5 118.343 308.597 123.016C308.74 129.403 305.177 135.293 299.448 138.135L286.709 143.341L288.352 151.318C288.352 151.318 306.856 149.63 313.368 144.416C319.879 139.201 322.144 128.097 321.087 118.894C319.63 106.093 320.119 93.1148 313.483 93.6389Z" fill="#8F7A61"/>
<path opacity="0.1" d="M313.483 93.6389C313.483 93.6389 306.954 95.3711 307.887 107.47C308.295 112.729 308.5 118.343 308.597 123.016C308.74 129.403 305.177 135.293 299.448 138.135L286.709 143.341L288.352 151.318C288.352 151.318 306.856 149.63 313.368 144.416C319.879 139.201 322.144 128.097 321.087 118.894C319.63 106.093 320.119 93.1148 313.483 93.6389Z" fill="black"/>
<path d="M287.926 141.298L289.01 152.411L286.016 152.704L284.426 142.293L287.926 141.298Z" fill="#8F7A61"/>
<path opacity="0.6" d="M287.926 141.298L289.01 152.411L286.016 152.704L284.426 142.293L287.926 141.298Z" fill="white"/>
<path opacity="0.4" d="M303.583 110.733L293.258 111.657L293.405 113.302L303.73 112.379L303.583 110.733Z" fill="white"/>
<path d="M290.076 92.173L293.416 96.6235L300.461 91.9776V91.5334C300.461 90.7783 300.159 90.0144 299.537 89.5791C298.977 89.1882 298.258 89.0994 297.272 89.4281L290.076 92.173Z" fill="#8F7A61"/>
<path d="M285.375 92.5283L286.201 91.1602C287.232 89.9343 288.058 90.565 288.058 90.565L290.065 92.1729L287.134 96.6234L285.375 92.5283Z" fill="#8F7A61"/>
<path opacity="0.6" d="M290.076 92.173L293.416 96.6235L300.461 91.9776V91.5334C300.461 90.7783 300.159 90.0144 299.537 89.5791C298.977 89.1882 298.258 89.0994 297.272 89.4281L290.076 92.173Z" fill="white"/>
<path opacity="0.6" d="M285.375 92.5283L286.201 91.1602C287.232 89.9343 288.058 90.565 288.058 90.565L290.065 92.1729L287.134 96.6234L285.375 92.5283Z" fill="white"/>
<path d="M301.714 69.947C302.185 66.9089 300.07 66.4914 298.685 66.8645C297.237 67.2465 295.797 69.4229 295.797 69.4229C294.447 67.2376 293.683 61.7122 293.683 61.7122C293.683 61.7122 288.895 64.8569 282.393 62.1919C282.393 62.1919 281.54 64.928 278.715 66.6957C278.715 66.6957 276.219 65.5498 277.604 59.7934C279.186 53.2553 289.02 46.9215 298.933 53.4419C308.847 59.9622 302.842 72.0701 302.842 72.0701C302.842 72.0701 300.603 76.0321 298.605 77.5244C298.605 77.5244 298.898 75.4991 298.596 73.9978C298.613 73.9889 301.261 72.914 301.714 69.947Z" fill="#2E353A"/>
<path d="M281.227 60.5662C281.769 61.2324 282.471 61.8809 283.208 62.405C283.945 62.9469 284.763 63.391 285.624 63.7197C286.486 64.0573 287.392 64.2883 288.325 64.3682C289.257 64.4837 290.199 64.4037 291.132 64.2971C290.208 64.4837 289.266 64.6347 288.307 64.5903C287.356 64.5814 286.397 64.4215 285.482 64.1372C284.558 63.8619 283.67 63.4621 282.844 62.9558C282.009 62.4405 281.254 61.8631 280.543 61.1169L281.227 60.5662Z" fill="#2E353A"/>
<path d="M395.458 110.766C388.271 104.334 379.858 113.057 379.858 113.057C379.858 113.057 371.455 104.334 364.259 110.766C354.008 119.942 368.914 136.367 379.858 139.663C390.803 136.367 405.709 119.942 395.458 110.766Z" fill="#8F7A61"/>
<path d="M250.215 25.2106C243.029 18.7791 234.616 27.5025 234.616 27.5025C234.616 27.5025 226.213 18.7791 219.017 25.2106C208.766 34.387 223.672 50.8122 234.616 54.1079C245.56 50.8211 260.467 34.387 250.215 25.2106Z" fill="#CD9E64"/>
<path d="M334.756 51.9226C331.816 49.2931 328.387 52.8553 328.387 52.8553C328.387 52.8553 324.949 49.2931 322.018 51.9226C317.825 55.6713 323.919 62.3871 328.387 63.7284C332.855 62.3871 338.94 55.6713 334.756 51.9226Z" fill="#8F7A61"/>
<path d="M66.1528 122.509C63.2124 119.88 59.7835 123.442 59.7835 123.442C59.7835 123.442 56.3456 119.88 53.4142 122.509C49.2213 126.258 55.3152 132.974 59.7835 134.315C64.2518 132.974 70.3457 126.258 66.1528 122.509Z" fill="#232323"/>
</svg>
