<svg width="548" height="497" viewBox="0 0 548 497" fill="none" xmlns="http://www.w3.org/2000/svg">
<path opacity="0.2" d="M146.4 -66H92V401H146.4V-66Z" fill="#CD9E64"/>
<path opacity="0.2" d="M461.57 156.211H209.264V180.799H461.57V156.211Z" fill="#CD9E64"/>
<path opacity="0.2" d="M461.57 204.98H209.264V229.569H461.57V204.98Z" fill="#CD9E64"/>
<path opacity="0.05" d="M461.57 180.598H209.264V205.186H461.57V180.598Z" fill="#8F7A61"/>
<path opacity="0.2" d="M461.57 253.75H209.264V278.338H461.57V253.75Z" fill="#CD9E64"/>
<path opacity="0.2" d="M461.57 301.991H209.264V326.579H461.57V301.991Z" fill="#CD9E64"/>
<path opacity="0.05" d="M461.57 277.608H209.264V302.197H461.57V277.608Z" fill="#8F7A61"/>
<path opacity="0.05" d="M461.57 326.156H209.264V350.744H461.57V326.156Z" fill="#8F7A61"/>
<path opacity="0.2" d="M461.57 350.744H209.264V375.333H461.57V350.744Z" fill="#CD9E64"/>
<path opacity="0.2" d="M461.57 374.906H209.264V399.494H461.57V374.906Z" fill="#8F7A61"/>
<path opacity="0.2" d="M470 83.9985H200.836V130.59H470V83.9985Z" fill="#8F7A61"/>
<path d="M371.378 458.572H331.498C326.66 458.572 322.703 454.61 322.703 449.773V413.749C322.703 408.908 326.66 404.949 331.498 404.949H371.378C376.216 404.949 380.173 408.908 380.173 413.749V449.773C380.177 454.61 376.216 458.572 371.378 458.572Z" fill="#8F7A61"/>
<path d="M264.325 325.286C264.325 325.286 260.657 325.465 259.91 325.164C259.163 324.858 257.115 323.652 257.412 322.293C257.6 321.45 259.12 322.791 259.74 322.542C260.36 322.293 258.473 322.114 258.381 321.795C258.29 321.476 259.936 321.31 260.53 321.205C261.124 321.1 262.836 322.477 264.19 322.848C265.543 323.215 264.325 325.286 264.325 325.286Z" fill="#FFB27D"/>
<path d="M312.276 321.293C312.276 321.293 307.184 327.06 301 327.886C294.817 328.711 285.685 330.547 282.868 330.573C280.052 330.599 264.064 325.622 264.064 325.622C264.064 325.622 263.767 325.116 264.112 323.975C264.444 322.883 265.248 322.442 265.248 322.442C265.248 322.442 276.204 322.713 281.323 323.425C283.449 323.722 297.926 315.084 300.192 309.876C301.079 307.835 312.276 321.293 312.276 321.293Z" fill="#ED7D2B"/>
<path d="M162.811 372.071H61.5449V455.615H162.811V372.071Z" fill="#CD9E64"/>
<path d="M112.176 372.071H10.9141V455.615H112.176V372.071Z" fill="#8F7A61"/>
<path d="M162.756 434.428H146.707L148.122 429.911L146.707 426.682H162.756V434.428Z" fill="#8F7A61"/>
<path d="M112.18 397.924H96.1309L97.5458 393.406L96.1309 390.182H112.18V397.924Z" fill="#232323"/>
<path d="M112.18 390.182H128.224L126.809 394.699L128.224 397.924H112.18V390.182Z" fill="#8F7A61"/>
<path d="M10.9141 435.324H26.9584L25.5435 439.842L26.9584 443.071H10.9141V435.324Z" fill="#232323"/>
<path d="M17.5465 389.077H46.6875V377.734H17.5465V389.077Z" fill="#F8F4EE"/>
<path d="M151.897 288.607H50.6348V372.15H151.897V288.607Z" fill="#CD9E64"/>
<path d="M101.266 288.607H0V372.15H101.266V288.607Z" fill="#8F7A61"/>
<path d="M151.842 350.964H135.793L137.208 346.446L135.793 343.217H151.842V350.964Z" fill="#8F7A61"/>
<path d="M101.267 314.459H85.2227L86.6332 309.941L85.2227 306.717H101.267V314.459Z" fill="#232323"/>
<path d="M101.266 306.717H117.31L115.899 311.23L117.31 314.459H101.266V306.717Z" fill="#8F7A61"/>
<path d="M0 351.859H16.0444L14.6338 356.377L16.0444 359.606H0V351.859Z" fill="#232323"/>
<path d="M6.63048 305.612H35.7715V294.269H6.63048V305.612Z" fill="#F8F4EE"/>
<path d="M207.271 249H180.414V461.115H207.271V249Z" fill="#232323"/>
<path d="M351.313 410.647H283.257C278.24 410.647 274.135 406.54 274.135 401.52V384.432C274.135 379.411 278.24 375.304 283.257 375.304H351.313C356.33 375.304 360.435 379.411 360.435 384.432V401.52C360.435 406.54 356.33 410.647 351.313 410.647Z" fill="#F8F4EE"/>
<path d="M216.189 438.059L325.513 442.494V397.347L214.377 399.16L216.189 438.059Z" fill="#8F7A61"/>
<path d="M245.761 472.082C258.978 458.859 258.978 437.419 245.761 424.196C232.544 410.972 211.115 410.972 197.898 424.196C184.681 437.419 184.681 458.859 197.898 472.082C211.115 485.306 232.544 485.306 245.761 472.082Z" fill="#232323"/>
<path d="M241.09 451.266C242.816 440.628 235.595 430.605 224.963 428.879C214.331 427.152 204.313 434.376 202.587 445.014C200.862 455.651 208.082 465.674 218.714 467.401C229.347 469.127 239.365 461.903 241.09 451.266Z" fill="#8F7A61"/>
<path d="M399.293 461.473C402.679 447.129 393.801 432.756 379.464 429.369C365.127 425.982 350.761 434.864 347.376 449.208C343.99 463.552 352.868 477.925 367.205 481.312C381.542 484.699 395.908 475.817 399.293 461.473Z" fill="#232323"/>
<path d="M357.955 455.313C357.955 446.819 364.837 439.933 373.327 439.933C381.816 439.933 388.699 446.819 388.699 455.313C388.699 463.807 381.816 470.692 373.327 470.692C364.837 470.692 357.955 463.807 357.955 455.313Z" fill="#8F7A61"/>
<path d="M353.986 368.323V388.478H325.783L258.361 432.82V465.768H325.067C332.041 465.768 337.697 460.11 337.697 453.133V445.683C337.697 437.627 341.649 430.081 348.269 425.493C351.99 422.915 356.409 421.53 360.938 421.53H382.231C387.991 421.53 392.664 416.855 392.664 411.092V379.503C392.664 373.33 387.66 368.323 381.489 368.323H353.986Z" fill="#CD9E64"/>
<path d="M216.525 409.943L207.271 408.925L259.265 285.636C266.069 269.504 281.773 259.08 299.276 259.08H342.889C353.64 259.08 362.387 267.831 362.387 278.588V388.477H353.522V278.588C353.522 272.72 348.749 267.945 342.884 267.945H299.271C285.34 267.945 272.842 276.242 267.427 289.083L216.525 409.943Z" fill="#232323"/>
<path d="M261.047 468.189C259.711 468.189 258.628 467.105 258.628 465.768V440.956C258.628 423.872 244.737 409.974 227.662 409.974C227.565 409.974 227.474 409.97 227.378 409.956C227.19 409.935 208.207 407.894 193.699 419.206C192.647 420.027 191.127 419.84 190.306 418.787C189.485 417.734 189.673 416.213 190.725 415.392C206.303 403.25 225.749 404.923 227.793 405.137C247.47 405.211 263.458 421.251 263.458 440.956V465.768C263.467 467.105 262.384 468.189 261.047 468.189Z" fill="#232323"/>
<path d="M180.418 454.627H3V461.115H180.418V454.627Z" fill="#232323"/>
<path d="M180.413 385.253H174.369V461.119H180.413V385.253Z" fill="#232323"/>
<path d="M336.228 334.697L333.027 375.309H282.675C282.675 375.309 280.012 363.962 288.366 363.464C296.715 362.97 316.721 359.951 316.721 359.951C316.721 359.951 315.738 334.728 331.145 330.52C333.839 329.786 336.442 331.958 336.228 334.697Z" fill="#232323"/>
<path d="M308.564 307.259C308.564 307.259 303.407 310.396 297.813 309.509C297.813 309.509 296.708 309.229 297.249 307.927C296.909 306.879 296.948 306.975 296.751 306.193C296.262 304.401 296.109 303.366 296.109 303.366L299.284 300.028L302.293 296.838C303.123 304.467 308.564 307.259 308.564 307.259Z" fill="#FFB27D"/>
<path d="M302.773 299.73C302.773 299.73 301.044 304.353 296.751 306.197C296.262 304.405 295.943 302.527 295.943 302.527L299.288 300.028L302.773 299.73Z" fill="#ED985F"/>
<path d="M292.551 303.208C292.551 303.208 302.398 304.441 303.088 298.385C303.778 292.334 305.516 288.414 299.258 287.37C293 286.33 291.516 288.502 290.786 290.468C290.053 292.438 290.005 302.732 292.551 303.208Z" fill="#FFB27D"/>
<path d="M306.192 286.387C306.275 286.282 306.481 286.191 306.935 286.151C306.935 286.151 306.564 285.937 306.074 285.942C305.956 285.312 305.577 284.203 304.472 283.971C304.472 283.971 305.07 284.264 305.17 284.932C303.856 283.683 301.113 282.839 293.637 283.713C283.785 284.867 287.279 291.075 288.589 291.783C289.899 292.491 293.039 290.298 295.432 290.398C297.825 290.499 298.406 293.928 299.236 294.37C300.061 294.811 299.712 293.99 300.786 293.452C301.86 292.915 302.035 294.728 301.764 295.916C301.493 297.109 303.057 298.608 303.057 298.608C303.057 298.608 303.057 298.608 304.515 296.913C305.974 295.217 307.144 288.231 306.398 286.776C306.328 286.649 306.258 286.518 306.192 286.387Z" fill="#232323"/>
<path d="M317.818 344.995C317.818 344.995 272.912 347.005 266.785 351.449C260.658 355.896 249.941 393.41 249.941 393.41C249.941 393.41 252.116 395.302 258.562 393.41C258.562 393.41 267.636 381.849 271.108 373.915C274.191 366.872 275.292 363.324 276.611 363.682C279.419 364.447 308.215 365.443 316.722 359.947C322.172 356.434 317.097 344.991 317.818 344.995Z" fill="#8F7A61"/>
<path d="M308.564 306.346C308.564 306.346 314.32 311.082 316.137 325.229C317.953 339.377 319.984 351.82 318.87 352.323C311.001 355.879 289.821 352.248 290.35 343.829C290.878 335.409 292.821 310.47 297.813 308.259C302.8 306.049 308.564 306.346 308.564 306.346Z" fill="#FF9E55"/>
<path d="M267.544 345.328C266.614 345.716 265.531 345.271 265.142 344.34L255.814 321.987C255.426 321.057 255.871 319.973 256.801 319.584C257.736 319.195 258.815 319.641 259.203 320.572L268.531 342.924C268.924 343.855 268.479 344.939 267.544 345.328Z" fill="#232323"/>
<path d="M266.977 332.74C266.977 332.74 263.431 333.705 262.641 333.57C261.846 333.435 259.584 332.696 259.584 331.307C259.584 330.442 261.357 331.425 261.912 331.049C262.462 330.673 260.584 330.905 260.422 330.612C260.265 330.319 261.837 329.804 262.396 329.572C262.955 329.345 264.925 330.315 266.322 330.385C267.724 330.459 266.977 332.74 266.977 332.74Z" fill="#FFB27D"/>
<path d="M312.938 318.501C312.938 318.501 309.209 325.229 303.349 327.37C297.488 329.511 288.968 333.273 286.221 333.906C283.474 334.54 266.792 333.129 266.792 333.129C266.792 333.129 266.391 332.696 266.482 331.508C266.57 330.372 267.26 329.764 267.26 329.764C267.26 329.764 278.016 327.663 283.169 327.261C285.308 327.09 297.584 315.534 298.676 309.959C299.104 307.774 312.938 318.501 312.938 318.501Z" fill="#FF9E55"/>
<path d="M257.806 392.148C257.806 392.148 258.313 398.015 257.073 398.627L241.203 398.592C241.203 398.592 241.203 396.762 243.753 396.351C246.304 395.945 250.78 394.45 251.54 391.125C252.295 387.805 257.806 392.148 257.806 392.148Z" fill="#232323"/>
<path d="M249.265 329.542H256.471C258.34 329.542 260.003 330.712 260.637 332.473L262.72 338.271C263.139 339.442 263.047 340.735 262.466 341.836L261.27 344.104C258.401 349.539 252.933 353.109 246.806 353.55L238.016 354.179L245.051 332.596C245.649 330.774 247.348 329.542 249.265 329.542Z" fill="#232323"/>
<g filter="url(#filter0_d)">
<rect x="468.562" y="191.424" width="76.9861" height="76.9861" rx="14" transform="rotate(45 468.562 191.424)" fill="#8F7A61"/>
</g>
<path d="M474.424 235.707L471.762 234.18L469.101 235.707L466.439 234.18L463.777 235.707L461.781 234.563V252.556H473.661V255.196C473.661 255.953 474.28 256.569 475.041 256.569C475.801 256.569 476.42 255.953 476.42 255.196V234.563L474.424 235.707ZM469.101 246.165H463.403V244.839H469.101L469.101 246.165ZM474.799 243.27H463.403V241.944H474.799V243.27ZM474.799 240.375H463.403V239.049H474.799V240.375Z" fill="#F8F4EE"/>
<path d="M472.606 253.986H458.336V255.249C458.336 255.977 458.939 256.569 459.681 256.569H472.975C472.741 256.182 472.606 255.731 472.606 255.249L472.606 253.986Z" fill="#F8F4EE"/>
<mask id="mask0" mask-type="alpha" maskUnits="userSpaceOnUse" x="419" y="197" width="98" height="98">
<rect x="468.295" y="191.424" width="76.9861" height="76.9861" rx="14" transform="rotate(45 468.295 191.424)" fill="#8F7A61"/>
</mask>
<g mask="url(#mask0)">
<g filter="url(#filter1_d)">
<rect x="434" y="251" width="40.2629" height="40.2629" rx="6" transform="rotate(45 434 251)" fill="#F8F4EE"/>
</g>
</g>
<mask id="mask1" mask-type="alpha" maskUnits="userSpaceOnUse" x="380" y="231" width="109" height="104">
<path d="M488.299 320.303L426.319 258.323L398.445 231.432L380.408 291.773L422.712 334.076L488.299 320.303Z" fill="#C4C4C4"/>
</mask>
<g mask="url(#mask1)">
<g filter="url(#filter2_d)">
<path d="M429.759 255.243C432.102 252.899 435.901 252.899 438.245 255.243L458.23 275.228C460.573 277.571 460.573 281.37 458.23 283.713L438.245 303.698C435.901 306.041 432.102 306.041 429.759 303.698L409.774 283.713C407.431 281.37 407.431 277.571 409.774 275.228L429.759 255.243Z" fill="#F8F4EE"/>
</g>
<path d="M438.528 280.169C438.169 280.169 437.877 280.461 437.877 280.82C437.877 281.18 438.169 281.471 438.528 281.471H440.482V280.169H438.528Z" fill="#8F7A61"/>
<path d="M437.155 280.789C437.155 279.97 437.806 279.3 438.602 279.3H440.05V277.439C440.05 277.231 439.89 277.067 439.688 277.067H438.964V275.951C438.964 275.742 438.805 275.578 438.602 275.578H437.741L437.118 274.298C437.024 274.112 436.807 274.037 436.634 274.127L435.794 274.559L435.671 274.298C435.577 274.112 435.36 274.037 435.186 274.127L432.363 275.578H430.279C429.678 275.578 429.193 276.077 429.193 276.695V283.395C429.193 284.012 429.678 284.511 430.279 284.511H439.688C439.89 284.511 440.05 284.347 440.05 284.139V282.278H438.602C437.806 282.278 437.155 281.608 437.155 280.789ZM438.24 276.323V276.606L438.103 276.323H438.24ZM436.634 274.961L437.654 277.067H437.017L436.12 275.221L436.634 274.961ZM430.279 276.323H430.916L429.939 276.822C429.924 276.784 429.917 276.74 429.917 276.695C429.917 276.487 430.076 276.323 430.279 276.323ZM431.09 277.067L435.186 274.961L436.207 277.067H431.09Z" fill="#8F7A61"/>
</g>
<defs>
<filter id="filter0_d" x="389.924" y="171.223" width="157.277" height="157.277" filterUnits="userSpaceOnUse" color-interpolation-filters="sRGB">
<feFlood flood-opacity="0" result="BackgroundImageFix"/>
<feColorMatrix in="SourceAlpha" type="matrix" values="0 0 0 0 0 0 0 0 0 0 0 0 0 0 0 0 0 0 127 0"/>
<feOffset dy="4"/>
<feGaussianBlur stdDeviation="15"/>
<feColorMatrix type="matrix" values="0 0 0 0 0 0 0 0 0 0 0 0 0 0 0 0 0 0 0.3 0"/>
<feBlend mode="normal" in2="BackgroundImageFix" result="effect1_dropShadow"/>
<feBlend mode="normal" in="SourceGraphic" in2="effect1_dropShadow" result="shape"/>
</filter>
<filter id="filter1_d" x="378.016" y="227.485" width="111.97" height="111.97" filterUnits="userSpaceOnUse" color-interpolation-filters="sRGB">
<feFlood flood-opacity="0" result="BackgroundImageFix"/>
<feColorMatrix in="SourceAlpha" type="matrix" values="0 0 0 0 0 0 0 0 0 0 0 0 0 0 0 0 0 0 127 0"/>
<feOffset dy="4"/>
<feGaussianBlur stdDeviation="15"/>
<feColorMatrix type="matrix" values="0 0 0 0 0.416667 0 0 0 0 0.343152 0 0 0 0 0.252431 0 0 0 1 0"/>
<feBlend mode="normal" in2="BackgroundImageFix" result="effect1_dropShadow"/>
<feBlend mode="normal" in="SourceGraphic" in2="effect1_dropShadow" result="shape"/>
</filter>
<filter id="filter2_d" x="378.018" y="227.485" width="111.97" height="111.97" filterUnits="userSpaceOnUse" color-interpolation-filters="sRGB">
<feFlood flood-opacity="0" result="BackgroundImageFix"/>
<feColorMatrix in="SourceAlpha" type="matrix" values="0 0 0 0 0 0 0 0 0 0 0 0 0 0 0 0 0 0 127 0"/>
<feOffset dy="4"/>
<feGaussianBlur stdDeviation="15"/>
<feColorMatrix type="matrix" values="0 0 0 0 0.8875 0 0 0 0 0.846781 0 0 0 0 0.796531 0 0 0 1 0"/>
<feBlend mode="normal" in2="BackgroundImageFix" result="effect1_dropShadow"/>
<feBlend mode="normal" in="SourceGraphic" in2="effect1_dropShadow" result="shape"/>
</filter>
</defs>
</svg>
