<svg width="696" height="680" viewBox="0 0 696 680" fill="none" xmlns="http://www.w3.org/2000/svg">
<g filter="url(#filter0_d)">
<path d="M315.473 42.5269C333.437 24.5628 362.563 24.5628 380.527 42.5269L633.473 295.473C651.437 313.437 651.437 342.563 633.473 360.527L380.527 613.473C362.563 631.437 333.437 631.437 315.473 613.473L62.5269 360.527C44.5628 342.563 44.5628 313.437 62.5269 295.473L315.473 42.5269Z" fill="#F8F4EE"/>
</g>
<g filter="url(#filter1_d)">
<path d="M175.601 139.899C181.068 134.432 189.932 134.432 195.399 139.899L218.101 162.601C223.568 168.068 223.568 176.932 218.101 182.399L195.399 205.101C189.932 210.568 181.068 210.568 175.601 205.101L152.899 182.399C147.432 176.932 147.432 168.068 152.899 162.601L175.601 139.899Z" fill="#F8F4EE"/>
</g>
<path d="M193.841 171.719C192.929 171.719 192.146 171.195 191.759 170.431C191.373 171.195 190.587 171.719 189.674 171.719C188.761 171.719 187.973 171.195 187.588 170.431C187.201 171.195 186.413 171.719 185.5 171.719C184.588 171.719 183.798 171.195 183.412 170.431C183.026 171.195 182.237 171.719 181.324 171.719C180.412 171.719 179.622 171.195 179.236 170.431C178.851 171.195 178.049 171.719 177.136 171.719C176.732 171.719 176.368 171.616 176.008 171.436V180.136H174.784V182.448H196.17V180.136H195.018V171.394C194.658 171.6 194.275 171.719 193.841 171.719ZM185.513 172.984H192.641V176.524H185.513V172.984ZM178.384 172.984H183.137V178.908H178.384V172.984Z" fill="#8F7A61"/>
<path d="M174.809 169.445H174.812C174.812 169.443 174.812 169.441 174.812 169.44L174.809 169.445Z" fill="#8F7A61"/>
<path d="M179.296 169.371L180.809 164.603H184.003L183.351 169.371H187.652L187.014 164.603H190.305L191.708 169.371H196.159L193.866 164.603V161.062H177.233V164.603L174.845 169.371H179.296Z" fill="#8F7A61"/>
<g filter="url(#filter2_d)">
<rect x="526.155" y="416" width="76.9861" height="76.9861" rx="14" transform="rotate(45 526.155 416)" fill="#8F7A61"/>
</g>
<path d="M532.017 460.284L529.355 458.757L526.693 460.284L524.031 458.757L521.37 460.284L519.374 459.139V477.132H531.254V479.772C531.254 480.529 531.873 481.145 532.633 481.145C533.393 481.145 534.012 480.529 534.012 479.772V459.139L532.017 460.284ZM526.693 470.741H520.995V469.415H526.693L526.693 470.741ZM532.391 467.846H520.995V466.52H532.391V467.846ZM532.391 464.951H520.995V463.625H532.391V464.951Z" fill="#F8F4EE"/>
<path d="M530.198 478.562H515.928V479.825C515.928 480.553 516.531 481.145 517.273 481.145H530.567C530.333 480.758 530.199 480.307 530.199 479.825L530.198 478.562Z" fill="#F8F4EE"/>
<mask id="mask0" mask-type="alpha" maskUnits="userSpaceOnUse" x="477" y="421" width="98" height="99">
<rect x="525.887" y="416" width="76.9861" height="76.9861" rx="14" transform="rotate(45 525.887 416)" fill="#8F7A61"/>
</mask>
<g mask="url(#mask0)">
<g filter="url(#filter3_d)">
<rect x="491.593" y="475.576" width="40.2629" height="40.2629" rx="6" transform="rotate(45 491.593 475.576)" fill="#F8F4EE"/>
</g>
</g>
<mask id="mask1" mask-type="alpha" maskUnits="userSpaceOnUse" x="438" y="456" width="108" height="103">
<path d="M545.891 544.879L483.911 482.899L456.037 456.008L438 516.349L480.304 558.653L545.891 544.879Z" fill="#C4C4C4"/>
</mask>
<g mask="url(#mask1)">
<g filter="url(#filter4_d)">
<path d="M487.35 479.819C489.693 477.476 493.492 477.476 495.835 479.819L515.82 499.804C518.163 502.147 518.163 505.946 515.82 508.289L495.835 528.274C493.492 530.617 489.693 530.617 487.35 528.274L467.365 508.289C465.022 505.946 465.022 502.147 467.365 499.804L487.35 479.819Z" fill="#F8F4EE"/>
</g>
<path d="M496.119 504.745C495.759 504.745 495.467 505.037 495.467 505.396C495.467 505.756 495.759 506.048 496.119 506.048H498.073V504.745H496.119Z" fill="#8F7A61"/>
<path d="M494.744 505.365C494.744 504.546 495.396 503.877 496.192 503.877H497.639V502.016C497.639 501.807 497.48 501.643 497.278 501.643H496.554V500.527C496.554 500.318 496.395 500.155 496.192 500.155H495.331L494.708 498.874C494.614 498.688 494.397 498.614 494.223 498.703L493.384 499.135L493.261 498.874C493.167 498.688 492.95 498.614 492.776 498.703L489.953 500.155H487.869C487.268 500.155 486.783 500.653 486.783 501.271V507.971C486.783 508.589 487.268 509.087 487.869 509.087H497.278C497.48 509.087 497.639 508.924 497.639 508.715V506.854H496.192C495.396 506.854 494.744 506.184 494.744 505.365ZM495.83 500.899V501.182L495.693 500.899H495.83ZM494.223 499.537L495.244 501.643H494.607L493.709 499.797L494.223 499.537ZM487.869 500.899H488.506L487.529 501.398C487.514 501.36 487.507 501.316 487.507 501.271C487.507 501.063 487.666 500.899 487.869 500.899ZM488.679 501.643L492.776 499.537L493.796 501.643H488.679Z" fill="#8F7A61"/>
</g>
<path d="M283.795 352.841L174.016 352.76L186.146 335.13L275.488 335.163L283.795 352.841Z" fill="#699DEE"/>
<g opacity="0.1">
<path opacity="0.1" d="M243.81 344.195C243.987 347.501 237.439 350.179 229.18 350.179C220.922 350.179 214.954 347.485 215.857 344.179C216.744 340.872 223.293 338.195 230.487 338.195C237.648 338.211 243.632 340.888 243.81 344.195Z" fill="black"/>
<path opacity="0.1" d="M206.712 343.792C206.422 344.55 204.502 345.163 202.405 345.163C200.308 345.163 198.905 344.55 199.26 343.792C199.615 343.034 201.534 342.421 203.567 342.421C205.583 342.421 206.986 343.034 206.712 343.792Z" fill="black"/>
<path opacity="0.1" d="M260.488 343.824C260.681 344.582 259.133 345.195 257.036 345.195C254.939 345.195 253.149 344.582 253.02 343.824C252.891 343.066 254.439 342.453 256.471 342.453C258.504 342.437 260.31 343.066 260.488 343.824Z" fill="black"/>
</g>
<g opacity="0.1">
<path opacity="0.1" d="M188.839 335.146L177.339 352.76H174L186.146 335.13L188.839 335.146Z" fill="black"/>
<path opacity="0.1" d="M283.795 352.841H280.473L272.779 335.163H275.489L283.795 352.841Z" fill="black"/>
<path opacity="0.1" d="M283.279 351.728L283.795 352.841L174 352.76L174.774 351.647L283.279 351.728Z" fill="black"/>
<path opacity="0.1" d="M275.488 335.162L276.02 336.275L185.387 336.243L186.145 335.13L275.488 335.162Z" fill="black"/>
<path opacity="0.1" d="M185.323 351.647H178.065L179.662 349.195C183.565 349.195 186.114 350.308 185.323 351.647Z" fill="#699DEE"/>
<path opacity="0.1" d="M278.923 349.26L279.988 351.712H272.713C272.23 350.357 275.004 349.26 278.923 349.26Z" fill="black"/>
<path opacity="0.1" d="M267.182 336.275H273.263L274.328 338.727C270.876 338.727 267.682 337.63 267.182 336.275Z" fill="black"/>
<path opacity="0.1" d="M186.517 338.695L188.114 336.243H194.179C193.404 337.598 189.985 338.695 186.517 338.695Z" fill="black"/>
</g>
<path d="M230.455 339.679C230.794 339.679 231.084 339.792 231.068 339.921L231.019 340.341C232.955 340.405 234.326 340.647 235.778 341.066C236.02 341.131 236.149 341.195 236.149 341.308C236.149 341.453 235.81 341.566 235.423 341.566C235.262 341.566 235.116 341.55 234.939 341.502C233.632 341.099 232.342 340.889 230.923 340.824L230.632 343.712C234.858 344.05 236.649 344.631 236.616 345.647C236.584 346.744 233.971 347.518 230.31 347.551L230.229 348.357C230.213 348.486 229.874 348.599 229.487 348.599C229.1 348.599 228.794 348.486 228.81 348.357L228.906 347.534C226.374 347.454 224.358 347.131 222.519 346.534C222.326 346.47 222.229 346.405 222.245 346.325C222.277 346.196 222.632 346.067 223.019 346.067C223.277 346.067 223.438 346.115 223.519 346.131C225.035 346.663 226.761 346.986 229.019 347.067L229.358 344.131C225.197 343.792 223.568 343.228 223.761 342.195C223.955 341.147 226.455 340.357 229.745 340.324L229.794 339.937C229.81 339.792 230.116 339.679 230.455 339.679ZM229.423 343.599L229.745 340.776C227.116 340.792 225.293 341.389 225.181 342.131C225.068 342.841 225.874 343.276 229.423 343.599ZM230.6 344.228L230.31 347.083C233.213 347.067 235.133 346.47 235.165 345.679C235.197 344.954 234.229 344.518 230.6 344.228Z" fill="#FFC727"/>
<path d="M283.796 364.583H174.017V352.76L283.796 352.841V364.583Z" fill="#4A75CB"/>
<path d="M242.116 352.776H215.695V364.583H242.116V352.776Z" fill="#EBEBEB"/>
<path d="M215.695 352.776H242.116L238.777 335.13H220.744L215.695 352.776Z" fill="#EBEBEB"/>
<path d="M290.069 337.437L180.274 337.356L192.403 319.726L281.762 319.759L290.069 337.437Z" fill="#699DEE"/>
<g opacity="0.1">
<path opacity="0.1" d="M250.066 328.791C250.243 332.097 243.694 334.775 235.436 334.775C227.178 334.775 221.21 332.081 222.113 328.775C223 325.468 229.549 322.791 236.743 322.791C243.92 322.807 249.888 325.484 250.066 328.791Z" fill="black"/>
<path opacity="0.1" d="M212.968 328.388C212.677 329.146 210.758 329.759 208.661 329.759C206.564 329.759 205.161 329.146 205.516 328.388C205.871 327.63 207.79 327.017 209.822 327.017C211.855 327.001 213.258 327.63 212.968 328.388Z" fill="black"/>
<path opacity="0.1" d="M266.76 328.42C266.954 329.178 265.405 329.791 263.308 329.791C261.212 329.791 259.421 329.178 259.292 328.42C259.163 327.662 260.712 327.049 262.744 327.049C264.776 327.033 266.567 327.646 266.76 328.42Z" fill="black"/>
</g>
<g opacity="0.1">
<path opacity="0.1" d="M195.113 319.726L183.597 337.356H180.274L192.403 319.726H195.113Z" fill="black"/>
<path opacity="0.1" d="M290.069 337.437H286.73L279.053 319.759H281.763L290.069 337.437Z" fill="black"/>
<path opacity="0.1" d="M289.537 336.324L290.069 337.437L180.274 337.356L181.032 336.243L289.537 336.324Z" fill="#699DEE"/>
<path opacity="0.1" d="M281.761 319.759L282.278 320.872L191.645 320.839L192.403 319.726L281.761 319.759Z" fill="black"/>
<path opacity="0.1" d="M191.596 336.243H184.338L185.935 333.791C189.838 333.791 192.371 334.888 191.596 336.243Z" fill="black"/>
<path opacity="0.1" d="M285.182 333.856L286.247 336.308H278.972C278.505 334.953 281.279 333.856 285.182 333.856Z" fill="black"/>
<path opacity="0.1" d="M273.454 320.872H279.535L280.6 323.323C277.148 323.323 273.938 322.226 273.454 320.872Z" fill="black"/>
<path opacity="0.1" d="M192.791 323.291L194.388 320.839H200.453C199.678 322.194 196.243 323.291 192.791 323.291Z" fill="black"/>
</g>
<path d="M236.729 324.259C237.068 324.259 237.358 324.372 237.342 324.501L237.293 324.92C239.229 324.985 240.6 325.227 242.052 325.646C242.294 325.727 242.423 325.775 242.423 325.888C242.423 326.033 242.084 326.146 241.697 326.146C241.536 326.146 241.39 326.13 241.213 326.082C239.906 325.678 238.616 325.469 237.197 325.404L236.906 328.291C241.132 328.63 242.923 329.211 242.89 330.227C242.858 331.324 240.245 332.098 236.584 332.13L236.503 332.937C236.487 333.066 236.148 333.179 235.761 333.179C235.374 333.179 235.067 333.066 235.084 332.937L235.18 332.114C232.648 332.034 230.632 331.711 228.793 331.114C228.599 331.05 228.503 330.985 228.519 330.905C228.551 330.775 228.906 330.646 229.293 330.646C229.551 330.646 229.712 330.695 229.793 330.711C231.309 331.243 233.035 331.566 235.293 331.646L235.632 328.711C231.471 328.372 229.841 327.808 230.035 326.775C230.229 325.727 232.729 324.937 236.019 324.904L236.068 324.517C236.068 324.372 236.374 324.259 236.729 324.259ZM235.697 328.179L236.019 325.356C233.39 325.372 231.567 325.969 231.454 326.711C231.325 327.437 232.148 327.872 235.697 328.179ZM236.858 328.824L236.568 331.679C239.471 331.663 241.39 331.066 241.423 330.275C241.471 329.55 240.503 329.114 236.858 328.824Z" fill="#FFC727"/>
<path d="M290.069 349.179H180.274V337.356L290.069 337.437V349.179Z" fill="#4A75CB"/>
<path d="M248.39 337.372H221.969V349.179H248.39V337.372Z" fill="#EBEBEB"/>
<path d="M221.969 337.372H248.374L245.051 319.726H227.018L221.969 337.372Z" fill="#EBEBEB"/>
<path d="M288.618 322.711L178.823 322.63L190.968 305L280.311 305.033L288.618 322.711Z" fill="#699DEE"/>
<g opacity="0.1">
<path opacity="0.1" d="M248.615 314.065C248.792 317.372 242.244 320.049 233.985 320.049C225.727 320.049 219.759 317.355 220.662 314.049C221.549 310.742 228.098 308.065 235.292 308.065C242.47 308.081 248.438 310.758 248.615 314.065Z" fill="black"/>
<path opacity="0.1" d="M211.517 313.662C211.227 314.42 209.307 315.033 207.21 315.033C205.114 315.033 203.71 314.42 204.065 313.662C204.42 312.904 206.339 312.291 208.372 312.291C210.404 312.291 211.807 312.904 211.517 313.662Z" fill="black"/>
<path opacity="0.1" d="M265.31 313.694C265.503 314.452 263.955 315.065 261.858 315.065C259.761 315.065 257.971 314.452 257.841 313.694C257.712 312.936 259.261 312.323 261.293 312.323C263.326 312.307 265.116 312.936 265.31 313.694Z" fill="black"/>
</g>
<g opacity="0.1">
<path opacity="0.1" d="M193.662 305.018L182.145 322.631H178.822L190.968 305.018H193.662Z" fill="black"/>
<path opacity="0.1" d="M288.618 322.711H285.295L277.601 305.032H280.311L288.618 322.711Z" fill="black"/>
<path opacity="0.1" d="M288.101 321.597L288.617 322.71L178.822 322.63L179.596 321.517L288.101 321.597Z" fill="black"/>
<path opacity="0.1" d="M280.31 305.032L280.842 306.145L190.193 306.113L190.967 305L280.31 305.032Z" fill="black"/>
<path opacity="0.1" d="M190.146 321.533H182.887L184.484 319.081C188.387 319.081 190.92 320.178 190.146 321.533Z" fill="black"/>
<path opacity="0.1" d="M283.747 319.13L284.811 321.581H277.537C277.053 320.226 279.827 319.13 283.747 319.13Z" fill="black"/>
<path opacity="0.1" d="M272.004 306.145H278.085L279.15 308.597C275.698 308.597 272.488 307.5 272.004 306.145Z" fill="black"/>
<path opacity="0.1" d="M191.339 308.565L192.936 306.113H199.001C198.227 307.468 194.807 308.565 191.339 308.565Z" fill="black"/>
</g>
<path d="M235.277 309.549C235.616 309.549 235.906 309.662 235.89 309.791L235.842 310.21C237.777 310.275 239.148 310.517 240.6 310.936C240.842 311.001 240.971 311.065 240.971 311.178C240.971 311.323 240.632 311.436 240.245 311.436C240.084 311.436 239.939 311.42 239.761 311.371C238.455 310.968 237.164 310.759 235.745 310.694L235.455 313.581C239.681 313.92 241.471 314.501 241.439 315.517C241.406 316.614 238.793 317.388 235.132 317.42L235.051 318.227C235.035 318.356 234.697 318.469 234.309 318.469C233.922 318.469 233.616 318.356 233.632 318.227L233.729 317.404C231.196 317.323 229.18 317.001 227.341 316.404C227.148 316.339 227.051 316.275 227.067 316.194C227.099 316.065 227.454 315.936 227.841 315.936C228.099 315.936 228.261 315.985 228.341 316.001C229.858 316.533 231.583 316.856 233.842 316.936L234.18 314.001C230.019 313.662 228.39 313.097 228.583 312.065C228.777 311.017 231.277 310.226 234.567 310.194L234.616 309.807C234.632 309.662 234.938 309.549 235.277 309.549ZM234.245 313.468L234.567 310.646C231.938 310.662 230.116 311.259 230.003 312.001C229.874 312.71 230.696 313.146 234.245 313.468ZM235.422 314.097L235.132 316.952C238.035 316.936 239.955 316.339 239.987 315.549C240.019 314.823 239.052 314.388 235.422 314.097Z" fill="#FFC727"/>
<path d="M288.617 334.453H178.822V322.63L288.617 322.711V334.453Z" fill="#4A75CB"/>
<path d="M246.938 322.646H220.518V334.453H246.938V322.646Z" fill="#EBEBEB"/>
<path d="M220.518 322.646H246.938L243.599 305H225.566L220.518 322.646Z" fill="#EBEBEB"/>
<path d="M364.283 360.019L254.488 359.938L266.618 342.308L355.977 342.34L364.283 360.019Z" fill="#699DEE"/>
<g opacity="0.1">
<path opacity="0.1" d="M324.282 351.373C324.459 354.679 317.911 357.357 309.652 357.357C301.394 357.357 295.426 354.663 296.329 351.356C297.216 348.05 303.765 345.372 310.959 345.372C318.137 345.388 324.105 348.066 324.282 351.373Z" fill="black"/>
<path opacity="0.1" d="M287.184 350.969C286.894 351.728 284.974 352.34 282.877 352.34C280.781 352.34 279.377 351.728 279.732 350.969C280.087 350.211 282.006 349.598 284.039 349.598C286.071 349.582 287.474 350.211 287.184 350.969Z" fill="black"/>
<path opacity="0.1" d="M340.977 351.002C341.17 351.76 339.622 352.373 337.525 352.373C335.428 352.373 333.638 351.76 333.508 351.002C333.379 350.244 334.928 349.631 336.96 349.631C338.993 349.615 340.783 350.227 340.977 351.002Z" fill="black"/>
</g>
<g opacity="0.1">
<path opacity="0.1" d="M269.328 342.308L257.811 359.938H254.488L266.618 342.308H269.328Z" fill="black"/>
<path opacity="0.1" d="M364.284 360.019H360.945L353.268 342.34H355.977L364.284 360.019Z" fill="black"/>
<path opacity="0.1" d="M363.752 358.905L364.284 360.018L254.489 359.938L255.247 358.825L363.752 358.905Z" fill="#699DEE"/>
<path opacity="0.1" d="M355.976 342.34L356.492 343.453L265.859 343.421L266.617 342.308L355.976 342.34Z" fill="black"/>
<path opacity="0.1" d="M265.811 358.825H258.553L260.15 356.373C264.053 356.373 266.585 357.47 265.811 358.825Z" fill="black"/>
<path opacity="0.1" d="M359.397 356.438L360.461 358.889H353.187C352.719 357.535 355.493 356.438 359.397 356.438Z" fill="black"/>
<path opacity="0.1" d="M347.669 343.453H353.75L354.815 345.905C351.363 345.905 348.153 344.808 347.669 343.453Z" fill="black"/>
<path opacity="0.1" d="M267.006 345.873L268.603 343.421H274.667C273.893 344.776 270.458 345.873 267.006 345.873Z" fill="black"/>
</g>
<path d="M310.943 346.841C311.282 346.841 311.572 346.954 311.556 347.083L311.508 347.502C313.443 347.567 314.814 347.809 316.266 348.228C316.508 348.309 316.637 348.357 316.637 348.47C316.637 348.615 316.298 348.728 315.911 348.728C315.75 348.728 315.605 348.712 315.427 348.663C314.121 348.26 312.83 348.051 311.411 347.986L311.121 350.873C315.347 351.212 317.137 351.793 317.105 352.809C317.073 353.906 314.46 354.68 310.798 354.712L310.717 355.519C310.701 355.648 310.363 355.761 309.975 355.761C309.588 355.761 309.282 355.648 309.298 355.519L309.395 354.696C306.862 354.615 304.846 354.293 303.007 353.696C302.814 353.631 302.717 353.567 302.733 353.486C302.765 353.357 303.12 353.228 303.507 353.228C303.765 353.228 303.927 353.277 304.007 353.293C305.524 353.825 307.25 354.148 309.508 354.228L309.846 351.293C305.685 350.954 304.056 350.389 304.249 349.357C304.443 348.309 306.943 347.518 310.233 347.486L310.282 347.099C310.282 346.954 310.588 346.841 310.943 346.841ZM309.911 350.76L310.233 347.938C307.604 347.954 305.782 348.551 305.669 349.293C305.54 350.018 306.362 350.454 309.911 350.76ZM311.072 351.406L310.782 354.261C313.685 354.244 315.605 353.648 315.637 352.857C315.685 352.131 314.718 351.696 311.072 351.406Z" fill="#FFC727"/>
<path d="M364.284 371.761H254.489V359.938L364.284 360.018V371.761Z" fill="#4A75CB"/>
<path d="M322.604 359.954H296.184V371.761H322.604V359.954Z" fill="#EBEBEB"/>
<path d="M296.184 359.954H322.588L319.265 342.308H301.232L296.184 359.954Z" fill="#EBEBEB"/>
<path d="M362.831 345.292L253.036 345.211L265.182 327.582L354.524 327.614L362.831 345.292Z" fill="#699DEE"/>
<g opacity="0.1">
<path opacity="0.1" d="M322.83 336.647C323.008 339.953 316.459 342.631 308.201 342.631C299.942 342.631 293.974 339.937 294.878 336.63C295.765 333.324 302.313 330.646 309.507 330.646C316.685 330.662 322.653 333.34 322.83 336.647Z" fill="black"/>
<path opacity="0.1" d="M285.732 336.243C285.442 337.001 283.523 337.614 281.426 337.614C279.329 337.614 277.926 337.001 278.28 336.243C278.635 335.485 280.555 334.872 282.587 334.872C284.619 334.872 286.023 335.485 285.732 336.243Z" fill="black"/>
<path opacity="0.1" d="M339.525 336.276C339.718 337.034 338.17 337.647 336.073 337.647C333.976 337.647 332.186 337.034 332.057 336.276C331.928 335.518 333.476 334.905 335.509 334.905C337.541 334.888 339.331 335.518 339.525 336.276Z" fill="black"/>
</g>
<g opacity="0.1">
<path opacity="0.1" d="M267.875 327.597L256.359 345.211H253.036L265.182 327.597H267.875Z" fill="black"/>
<path opacity="0.1" d="M362.833 345.292H359.51L351.816 327.614H354.526L362.833 345.292Z" fill="black"/>
<path opacity="0.1" d="M362.316 344.179L362.832 345.292L253.037 345.211L253.811 344.098L362.316 344.179Z" fill="black"/>
<path opacity="0.1" d="M354.525 327.614L355.057 328.727L264.408 328.694L265.182 327.582L354.525 327.614Z" fill="black"/>
<path opacity="0.1" d="M264.359 344.115H257.101L258.697 341.663C262.601 341.663 265.133 342.76 264.359 344.115Z" fill="black"/>
<path opacity="0.1" d="M357.96 341.711L359.025 344.163H351.75C351.266 342.808 354.041 341.711 357.96 341.711Z" fill="black"/>
<path opacity="0.1" d="M346.217 328.727H352.298L353.363 331.179C349.911 331.179 346.701 330.082 346.217 328.727Z" fill="black"/>
<path opacity="0.1" d="M265.554 331.146L267.151 328.694H273.215C272.441 330.049 269.022 331.146 265.554 331.146Z" fill="black"/>
</g>
<path d="M309.491 332.13C309.83 332.13 310.12 332.243 310.104 332.372L310.056 332.792C311.991 332.856 313.362 333.098 314.814 333.518C315.056 333.582 315.185 333.647 315.185 333.759C315.185 333.905 314.846 334.018 314.459 334.018C314.298 334.018 314.153 334.001 313.975 333.953C312.669 333.55 311.378 333.34 309.959 333.276L309.668 336.163C313.894 336.502 315.685 337.082 315.653 338.098C315.62 339.195 313.007 339.969 309.346 340.002L309.265 340.808C309.249 340.937 308.91 341.05 308.523 341.05C308.136 341.05 307.83 340.937 307.846 340.808L307.943 339.986C305.41 339.905 303.394 339.582 301.555 338.986C301.362 338.921 301.265 338.856 301.281 338.776C301.313 338.647 301.668 338.518 302.055 338.518C302.313 338.518 302.475 338.566 302.555 338.582C304.071 339.115 305.797 339.437 308.056 339.518L308.394 336.582C304.233 336.243 302.604 335.679 302.797 334.647C302.991 333.598 305.491 332.808 308.781 332.776L308.83 332.388C308.846 332.243 309.152 332.13 309.491 332.13ZM308.459 336.05L308.781 333.227C306.152 333.243 304.33 333.84 304.217 334.582C304.088 335.292 304.91 335.727 308.459 336.05ZM309.636 336.679L309.346 339.534C312.249 339.518 314.169 338.921 314.201 338.131C314.233 337.405 313.265 336.969 309.636 336.679Z" fill="#FFC727"/>
<path d="M362.831 357.035H253.036V345.211L362.831 345.292V357.035Z" fill="#4A75CB"/>
<path d="M321.152 345.228H294.731V357.035H321.152V345.228Z" fill="#EBEBEB"/>
<path d="M294.731 345.227H321.152L317.813 327.582H299.78L294.731 345.227Z" fill="#EBEBEB"/>
<path d="M327.636 371.1L217.841 371.019L229.971 353.39L319.33 353.422L327.636 371.1Z" fill="#699DEE"/>
<g opacity="0.1">
<path opacity="0.1" d="M287.635 362.454C287.812 365.761 281.263 368.438 273.005 368.438C264.746 368.438 258.778 365.745 259.682 362.438C260.569 359.131 267.118 356.454 274.311 356.454C281.489 356.47 287.457 359.148 287.635 362.454Z" fill="black"/>
<path opacity="0.1" d="M250.537 362.051C250.246 362.809 248.327 363.422 246.23 363.422C244.133 363.422 242.73 362.809 243.085 362.051C243.44 361.293 245.359 360.68 247.391 360.68C249.424 360.68 250.827 361.293 250.537 362.051Z" fill="black"/>
<path opacity="0.1" d="M304.329 362.083C304.523 362.841 302.974 363.454 300.877 363.454C298.78 363.454 296.99 362.841 296.861 362.083C296.732 361.325 298.28 360.712 300.313 360.712C302.345 360.696 304.136 361.325 304.329 362.083Z" fill="black"/>
</g>
<g opacity="0.1">
<path opacity="0.1" d="M232.679 353.405L221.163 371.018H217.84L229.969 353.405H232.679Z" fill="black"/>
<path opacity="0.1" d="M327.636 371.1H324.297L316.619 353.422H319.329L327.636 371.1Z" fill="black"/>
<path opacity="0.1" d="M327.103 369.987L327.635 371.1L217.84 371.019L218.598 369.906L327.103 369.987Z" fill="black"/>
<path opacity="0.1" d="M319.328 353.421L319.844 354.534L229.211 354.502L229.969 353.389L319.328 353.421Z" fill="black"/>
<path opacity="0.1" d="M229.163 369.922H221.904L223.501 367.47C227.405 367.47 229.937 368.567 229.163 369.922Z" fill="black"/>
<path opacity="0.1" d="M322.748 367.519L323.813 369.971H316.538C316.07 368.616 318.845 367.519 322.748 367.519Z" fill="black"/>
<path opacity="0.1" d="M311.02 354.535H317.101L318.165 356.986C314.714 356.986 311.504 355.89 311.02 354.535Z" fill="black"/>
<path opacity="0.1" d="M230.357 356.954L231.954 354.502H238.019C237.245 355.857 233.809 356.954 230.357 356.954Z" fill="black"/>
</g>
<path d="M274.295 357.938C274.634 357.938 274.924 358.051 274.908 358.18L274.876 358.599C276.811 358.664 278.183 358.906 279.634 359.325C279.876 359.39 280.005 359.454 280.005 359.567C280.005 359.712 279.666 359.825 279.279 359.825C279.118 359.825 278.973 359.809 278.795 359.761C277.489 359.357 276.199 359.148 274.779 359.083L274.489 361.97C278.715 362.309 280.505 362.89 280.473 363.906C280.441 365.003 277.828 365.777 274.166 365.809L274.086 366.616C274.069 366.745 273.731 366.858 273.344 366.858C272.956 366.858 272.65 366.745 272.666 366.616L272.763 365.793C270.231 365.713 268.214 365.39 266.376 364.793C266.182 364.729 266.085 364.664 266.101 364.583C266.134 364.454 266.488 364.325 266.876 364.325C267.134 364.325 267.295 364.374 267.376 364.39C268.892 364.922 270.618 365.245 272.876 365.325L273.215 362.39C269.053 362.051 267.424 361.487 267.618 360.454C267.811 359.406 270.311 358.615 273.602 358.583L273.65 358.196C273.634 358.051 273.94 357.938 274.295 357.938ZM273.263 361.858L273.586 359.035C270.956 359.051 269.134 359.648 269.021 360.39C268.892 361.099 269.714 361.535 273.263 361.858ZM274.424 362.487L274.134 365.342C277.037 365.325 278.957 364.729 278.989 363.938C279.037 363.212 278.07 362.777 274.424 362.487Z" fill="#FFC727"/>
<path d="M327.635 382.842H217.84V371.019L327.635 371.1V382.842Z" fill="#4A75CB"/>
<path d="M285.956 371.035H259.535V382.842H285.956V371.035Z" fill="#EBEBEB"/>
<path d="M259.535 371.035H285.94L282.617 353.389H264.584L259.535 371.035Z" fill="#EBEBEB"/>
<path d="M463.795 332.841L354.016 332.76L366.146 315.13L455.488 315.163L463.795 332.841Z" fill="#699DEE"/>
<g opacity="0.1">
<path opacity="0.1" d="M423.81 324.195C423.987 327.501 417.439 330.179 409.18 330.179C400.922 330.179 394.954 327.485 395.857 324.179C396.744 320.872 403.293 318.195 410.487 318.195C417.648 318.211 423.632 320.888 423.81 324.195Z" fill="black"/>
<path opacity="0.1" d="M386.712 323.792C386.422 324.55 384.502 325.163 382.405 325.163C380.308 325.163 378.905 324.55 379.26 323.792C379.615 323.034 381.534 322.421 383.567 322.421C385.583 322.421 386.986 323.034 386.712 323.792Z" fill="black"/>
<path opacity="0.1" d="M440.488 323.824C440.681 324.582 439.133 325.195 437.036 325.195C434.939 325.195 433.149 324.582 433.02 323.824C432.891 323.066 434.439 322.453 436.471 322.453C438.504 322.437 440.31 323.066 440.488 323.824Z" fill="black"/>
</g>
<g opacity="0.1">
<path opacity="0.1" d="M368.839 315.146L357.339 332.76H354L366.146 315.13L368.839 315.146Z" fill="black"/>
<path opacity="0.1" d="M463.795 332.841H460.473L452.779 315.163H455.489L463.795 332.841Z" fill="black"/>
<path opacity="0.1" d="M463.279 331.728L463.795 332.841L354 332.76L354.774 331.647L463.279 331.728Z" fill="black"/>
<path opacity="0.1" d="M455.488 315.162L456.02 316.275L365.387 316.243L366.145 315.13L455.488 315.162Z" fill="black"/>
<path opacity="0.1" d="M365.323 331.647H358.065L359.662 329.195C363.565 329.195 366.114 330.308 365.323 331.647Z" fill="#699DEE"/>
<path opacity="0.1" d="M458.923 329.26L459.988 331.712H452.713C452.23 330.357 455.004 329.26 458.923 329.26Z" fill="black"/>
<path opacity="0.1" d="M447.182 316.275H453.263L454.328 318.727C450.876 318.727 447.682 317.63 447.182 316.275Z" fill="black"/>
<path opacity="0.1" d="M366.517 318.695L368.114 316.243H374.179C373.404 317.598 369.985 318.695 366.517 318.695Z" fill="black"/>
</g>
<path d="M410.455 319.679C410.794 319.679 411.084 319.792 411.068 319.921L411.019 320.341C412.955 320.405 414.326 320.647 415.778 321.066C416.02 321.131 416.149 321.195 416.149 321.308C416.149 321.453 415.81 321.566 415.423 321.566C415.262 321.566 415.116 321.55 414.939 321.502C413.632 321.099 412.342 320.889 410.923 320.824L410.632 323.712C414.858 324.05 416.649 324.631 416.616 325.647C416.584 326.744 413.971 327.518 410.31 327.551L410.229 328.357C410.213 328.486 409.874 328.599 409.487 328.599C409.1 328.599 408.794 328.486 408.81 328.357L408.906 327.534C406.374 327.454 404.358 327.131 402.519 326.534C402.326 326.47 402.229 326.405 402.245 326.325C402.277 326.196 402.632 326.067 403.019 326.067C403.277 326.067 403.438 326.115 403.519 326.131C405.035 326.663 406.761 326.986 409.019 327.067L409.358 324.131C405.197 323.792 403.568 323.228 403.761 322.195C403.955 321.147 406.455 320.357 409.745 320.324L409.794 319.937C409.81 319.792 410.116 319.679 410.455 319.679ZM409.423 323.599L409.745 320.776C407.116 320.792 405.293 321.389 405.181 322.131C405.068 322.841 405.874 323.276 409.423 323.599ZM410.6 324.228L410.31 327.083C413.213 327.067 415.133 326.47 415.165 325.679C415.197 324.954 414.229 324.518 410.6 324.228Z" fill="#FFC727"/>
<path d="M463.796 344.583H354.017V332.76L463.796 332.841V344.583Z" fill="#4A75CB"/>
<path d="M422.116 332.776H395.695V344.583H422.116V332.776Z" fill="#EBEBEB"/>
<path d="M395.695 332.776H422.116L418.777 315.13H400.744L395.695 332.776Z" fill="#EBEBEB"/>
<path d="M470.069 317.437L360.274 317.356L372.403 299.726L461.762 299.759L470.069 317.437Z" fill="#699DEE"/>
<g opacity="0.1">
<path opacity="0.1" d="M430.066 308.791C430.243 312.097 423.694 314.775 415.436 314.775C407.178 314.775 401.21 312.081 402.113 308.775C403 305.468 409.549 302.791 416.743 302.791C423.92 302.807 429.888 305.484 430.066 308.791Z" fill="black"/>
<path opacity="0.1" d="M392.968 308.388C392.677 309.146 390.758 309.759 388.661 309.759C386.564 309.759 385.161 309.146 385.516 308.388C385.871 307.63 387.79 307.017 389.822 307.017C391.855 307.001 393.258 307.63 392.968 308.388Z" fill="black"/>
<path opacity="0.1" d="M446.76 308.42C446.954 309.178 445.405 309.791 443.308 309.791C441.212 309.791 439.421 309.178 439.292 308.42C439.163 307.662 440.712 307.049 442.744 307.049C444.776 307.033 446.567 307.646 446.76 308.42Z" fill="black"/>
</g>
<g opacity="0.1">
<path opacity="0.1" d="M375.113 299.726L363.597 317.356H360.274L372.403 299.726H375.113Z" fill="black"/>
<path opacity="0.1" d="M470.069 317.437H466.73L459.053 299.759H461.763L470.069 317.437Z" fill="black"/>
<path opacity="0.1" d="M469.537 316.324L470.069 317.437L360.274 317.356L361.032 316.243L469.537 316.324Z" fill="#699DEE"/>
<path opacity="0.1" d="M461.761 299.759L462.278 300.872L371.645 300.839L372.403 299.726L461.761 299.759Z" fill="black"/>
<path opacity="0.1" d="M371.596 316.243H364.338L365.935 313.791C369.838 313.791 372.371 314.888 371.596 316.243Z" fill="black"/>
<path opacity="0.1" d="M465.182 313.856L466.247 316.308H458.972C458.505 314.953 461.279 313.856 465.182 313.856Z" fill="black"/>
<path opacity="0.1" d="M453.454 300.872H459.535L460.6 303.323C457.148 303.323 453.938 302.226 453.454 300.872Z" fill="black"/>
<path opacity="0.1" d="M372.791 303.291L374.388 300.839H380.453C379.678 302.194 376.243 303.291 372.791 303.291Z" fill="black"/>
</g>
<path d="M416.729 304.259C417.068 304.259 417.358 304.372 417.342 304.501L417.293 304.92C419.229 304.985 420.6 305.227 422.052 305.646C422.294 305.727 422.423 305.775 422.423 305.888C422.423 306.033 422.084 306.146 421.697 306.146C421.536 306.146 421.39 306.13 421.213 306.082C419.906 305.678 418.616 305.469 417.197 305.404L416.906 308.291C421.132 308.63 422.923 309.211 422.89 310.227C422.858 311.324 420.245 312.098 416.584 312.13L416.503 312.937C416.487 313.066 416.148 313.179 415.761 313.179C415.374 313.179 415.067 313.066 415.084 312.937L415.18 312.114C412.648 312.034 410.632 311.711 408.793 311.114C408.599 311.05 408.503 310.985 408.519 310.905C408.551 310.775 408.906 310.646 409.293 310.646C409.551 310.646 409.712 310.695 409.793 310.711C411.309 311.243 413.035 311.566 415.293 311.646L415.632 308.711C411.471 308.372 409.841 307.808 410.035 306.775C410.229 305.727 412.729 304.937 416.019 304.904L416.068 304.517C416.068 304.372 416.374 304.259 416.729 304.259ZM415.697 308.179L416.019 305.356C413.39 305.372 411.567 305.969 411.454 306.711C411.325 307.437 412.148 307.872 415.697 308.179ZM416.858 308.824L416.568 311.679C419.471 311.663 421.39 311.066 421.423 310.275C421.471 309.55 420.503 309.114 416.858 308.824Z" fill="#FFC727"/>
<path d="M470.069 329.179H360.274V317.356L470.069 317.437V329.179Z" fill="#4A75CB"/>
<path d="M428.39 317.372H401.969V329.179H428.39V317.372Z" fill="#EBEBEB"/>
<path d="M401.969 317.372H428.374L425.051 299.726H407.018L401.969 317.372Z" fill="#EBEBEB"/>
<path d="M468.618 302.711L358.823 302.63L370.968 285L460.311 285.033L468.618 302.711Z" fill="#699DEE"/>
<g opacity="0.1">
<path opacity="0.1" d="M428.615 294.065C428.792 297.372 422.244 300.049 413.985 300.049C405.727 300.049 399.759 297.355 400.662 294.049C401.549 290.742 408.098 288.065 415.292 288.065C422.47 288.081 428.438 290.758 428.615 294.065Z" fill="black"/>
<path opacity="0.1" d="M391.517 293.662C391.227 294.42 389.307 295.033 387.21 295.033C385.114 295.033 383.71 294.42 384.065 293.662C384.42 292.904 386.339 292.291 388.372 292.291C390.404 292.291 391.807 292.904 391.517 293.662Z" fill="black"/>
<path opacity="0.1" d="M445.31 293.694C445.503 294.452 443.955 295.065 441.858 295.065C439.761 295.065 437.971 294.452 437.841 293.694C437.712 292.936 439.261 292.323 441.293 292.323C443.326 292.307 445.116 292.936 445.31 293.694Z" fill="black"/>
</g>
<g opacity="0.1">
<path opacity="0.1" d="M373.662 285.018L362.145 302.631H358.822L370.968 285.018H373.662Z" fill="black"/>
<path opacity="0.1" d="M468.618 302.711H465.295L457.601 285.032H460.311L468.618 302.711Z" fill="black"/>
<path opacity="0.1" d="M468.101 301.597L468.617 302.71L358.822 302.63L359.596 301.517L468.101 301.597Z" fill="black"/>
<path opacity="0.1" d="M460.31 285.032L460.842 286.145L370.193 286.113L370.967 285L460.31 285.032Z" fill="black"/>
<path opacity="0.1" d="M370.146 301.533H362.887L364.484 299.081C368.387 299.081 370.92 300.178 370.146 301.533Z" fill="black"/>
<path opacity="0.1" d="M463.747 299.13L464.811 301.581H457.537C457.053 300.226 459.827 299.13 463.747 299.13Z" fill="black"/>
<path opacity="0.1" d="M452.004 286.145H458.085L459.15 288.597C455.698 288.597 452.488 287.5 452.004 286.145Z" fill="black"/>
<path opacity="0.1" d="M371.339 288.565L372.936 286.113H379.001C378.227 287.468 374.807 288.565 371.339 288.565Z" fill="black"/>
</g>
<path d="M415.277 289.549C415.616 289.549 415.906 289.662 415.89 289.791L415.842 290.21C417.777 290.275 419.148 290.517 420.6 290.936C420.842 291.001 420.971 291.065 420.971 291.178C420.971 291.323 420.632 291.436 420.245 291.436C420.084 291.436 419.939 291.42 419.761 291.371C418.455 290.968 417.164 290.759 415.745 290.694L415.455 293.581C419.681 293.92 421.471 294.501 421.439 295.517C421.406 296.614 418.793 297.388 415.132 297.42L415.051 298.227C415.035 298.356 414.697 298.469 414.309 298.469C413.922 298.469 413.616 298.356 413.632 298.227L413.729 297.404C411.196 297.323 409.18 297.001 407.341 296.404C407.148 296.339 407.051 296.275 407.067 296.194C407.099 296.065 407.454 295.936 407.841 295.936C408.099 295.936 408.261 295.985 408.341 296.001C409.858 296.533 411.583 296.856 413.842 296.936L414.18 294.001C410.019 293.662 408.39 293.097 408.583 292.065C408.777 291.017 411.277 290.226 414.567 290.194L414.616 289.807C414.632 289.662 414.938 289.549 415.277 289.549ZM414.245 293.468L414.567 290.646C411.938 290.662 410.116 291.259 410.003 292.001C409.874 292.71 410.696 293.146 414.245 293.468ZM415.422 294.097L415.132 296.952C418.035 296.936 419.955 296.339 419.987 295.549C420.019 294.823 419.052 294.388 415.422 294.097Z" fill="#FFC727"/>
<path d="M468.617 314.453H358.822V302.63L468.617 302.711V314.453Z" fill="#4A75CB"/>
<path d="M426.938 302.646H400.518V314.453H426.938V302.646Z" fill="#EBEBEB"/>
<path d="M400.518 302.646H426.938L423.599 285H405.566L400.518 302.646Z" fill="#EBEBEB"/>
<path d="M544.283 340.019L434.488 339.938L446.618 322.308L535.977 322.34L544.283 340.019Z" fill="#699DEE"/>
<g opacity="0.1">
<path opacity="0.1" d="M504.282 331.373C504.459 334.679 497.911 337.357 489.652 337.357C481.394 337.357 475.426 334.663 476.329 331.356C477.216 328.05 483.765 325.372 490.959 325.372C498.137 325.388 504.105 328.066 504.282 331.373Z" fill="black"/>
<path opacity="0.1" d="M467.184 330.969C466.894 331.728 464.974 332.34 462.877 332.34C460.781 332.34 459.377 331.728 459.732 330.969C460.087 330.211 462.006 329.598 464.039 329.598C466.071 329.582 467.474 330.211 467.184 330.969Z" fill="black"/>
<path opacity="0.1" d="M520.977 331.002C521.17 331.76 519.622 332.373 517.525 332.373C515.428 332.373 513.638 331.76 513.508 331.002C513.379 330.244 514.928 329.631 516.96 329.631C518.993 329.615 520.783 330.227 520.977 331.002Z" fill="black"/>
</g>
<g opacity="0.1">
<path opacity="0.1" d="M449.328 322.308L437.811 339.938H434.488L446.618 322.308H449.328Z" fill="black"/>
<path opacity="0.1" d="M544.284 340.019H540.945L533.268 322.34H535.977L544.284 340.019Z" fill="black"/>
<path opacity="0.1" d="M543.752 338.905L544.284 340.018L434.489 339.938L435.247 338.825L543.752 338.905Z" fill="#699DEE"/>
<path opacity="0.1" d="M535.976 322.34L536.492 323.453L445.859 323.421L446.617 322.308L535.976 322.34Z" fill="black"/>
<path opacity="0.1" d="M445.811 338.825H438.553L440.15 336.373C444.053 336.373 446.585 337.47 445.811 338.825Z" fill="black"/>
<path opacity="0.1" d="M539.397 336.438L540.461 338.889H533.187C532.719 337.535 535.493 336.438 539.397 336.438Z" fill="black"/>
<path opacity="0.1" d="M527.669 323.453H533.75L534.815 325.905C531.363 325.905 528.153 324.808 527.669 323.453Z" fill="black"/>
<path opacity="0.1" d="M447.006 325.873L448.603 323.421H454.667C453.893 324.776 450.458 325.873 447.006 325.873Z" fill="black"/>
</g>
<path d="M490.943 326.841C491.282 326.841 491.572 326.954 491.556 327.083L491.508 327.502C493.443 327.567 494.814 327.809 496.266 328.228C496.508 328.309 496.637 328.357 496.637 328.47C496.637 328.615 496.298 328.728 495.911 328.728C495.75 328.728 495.605 328.712 495.427 328.663C494.121 328.26 492.83 328.051 491.411 327.986L491.121 330.873C495.347 331.212 497.137 331.793 497.105 332.809C497.073 333.906 494.46 334.68 490.798 334.712L490.717 335.519C490.701 335.648 490.363 335.761 489.975 335.761C489.588 335.761 489.282 335.648 489.298 335.519L489.395 334.696C486.862 334.615 484.846 334.293 483.007 333.696C482.814 333.631 482.717 333.567 482.733 333.486C482.765 333.357 483.12 333.228 483.507 333.228C483.765 333.228 483.927 333.277 484.007 333.293C485.524 333.825 487.25 334.148 489.508 334.228L489.846 331.293C485.685 330.954 484.056 330.389 484.249 329.357C484.443 328.309 486.943 327.518 490.233 327.486L490.282 327.099C490.282 326.954 490.588 326.841 490.943 326.841ZM489.911 330.76L490.233 327.938C487.604 327.954 485.782 328.551 485.669 329.293C485.54 330.018 486.362 330.454 489.911 330.76ZM491.072 331.406L490.782 334.261C493.685 334.244 495.605 333.648 495.637 332.857C495.685 332.131 494.718 331.696 491.072 331.406Z" fill="#FFC727"/>
<path d="M544.284 351.761H434.489V339.938L544.284 340.018V351.761Z" fill="#4A75CB"/>
<path d="M502.604 339.954H476.184V351.761H502.604V339.954Z" fill="#EBEBEB"/>
<path d="M476.184 339.954H502.588L499.265 322.308H481.232L476.184 339.954Z" fill="#EBEBEB"/>
<path d="M542.831 325.292L433.036 325.211L445.182 307.582L534.524 307.614L542.831 325.292Z" fill="#699DEE"/>
<g opacity="0.1">
<path opacity="0.1" d="M502.83 316.647C503.008 319.953 496.459 322.631 488.201 322.631C479.942 322.631 473.974 319.937 474.878 316.63C475.765 313.324 482.313 310.646 489.507 310.646C496.685 310.662 502.653 313.34 502.83 316.647Z" fill="black"/>
<path opacity="0.1" d="M465.732 316.243C465.442 317.001 463.523 317.614 461.426 317.614C459.329 317.614 457.926 317.001 458.28 316.243C458.635 315.485 460.555 314.872 462.587 314.872C464.619 314.872 466.023 315.485 465.732 316.243Z" fill="black"/>
<path opacity="0.1" d="M519.525 316.276C519.718 317.034 518.17 317.647 516.073 317.647C513.976 317.647 512.186 317.034 512.057 316.276C511.928 315.518 513.476 314.905 515.509 314.905C517.541 314.888 519.331 315.518 519.525 316.276Z" fill="black"/>
</g>
<g opacity="0.1">
<path opacity="0.1" d="M447.875 307.597L436.359 325.211H433.036L445.182 307.597H447.875Z" fill="black"/>
<path opacity="0.1" d="M542.833 325.292H539.51L531.816 307.614H534.526L542.833 325.292Z" fill="black"/>
<path opacity="0.1" d="M542.316 324.179L542.832 325.292L433.037 325.211L433.811 324.098L542.316 324.179Z" fill="black"/>
<path opacity="0.1" d="M534.525 307.614L535.057 308.727L444.408 308.694L445.182 307.582L534.525 307.614Z" fill="black"/>
<path opacity="0.1" d="M444.359 324.115H437.101L438.697 321.663C442.601 321.663 445.133 322.76 444.359 324.115Z" fill="black"/>
<path opacity="0.1" d="M537.96 321.711L539.025 324.163H531.75C531.266 322.808 534.041 321.711 537.96 321.711Z" fill="black"/>
<path opacity="0.1" d="M526.217 308.727H532.298L533.363 311.179C529.911 311.179 526.701 310.082 526.217 308.727Z" fill="black"/>
<path opacity="0.1" d="M445.554 311.146L447.151 308.694H453.215C452.441 310.049 449.022 311.146 445.554 311.146Z" fill="black"/>
</g>
<path d="M489.491 312.13C489.83 312.13 490.12 312.243 490.104 312.372L490.056 312.792C491.991 312.856 493.362 313.098 494.814 313.518C495.056 313.582 495.185 313.647 495.185 313.759C495.185 313.905 494.846 314.018 494.459 314.018C494.298 314.018 494.153 314.001 493.975 313.953C492.669 313.55 491.378 313.34 489.959 313.276L489.668 316.163C493.894 316.502 495.685 317.082 495.653 318.098C495.62 319.195 493.007 319.969 489.346 320.002L489.265 320.808C489.249 320.937 488.91 321.05 488.523 321.05C488.136 321.05 487.83 320.937 487.846 320.808L487.943 319.986C485.41 319.905 483.394 319.582 481.555 318.986C481.362 318.921 481.265 318.856 481.281 318.776C481.313 318.647 481.668 318.518 482.055 318.518C482.313 318.518 482.475 318.566 482.555 318.582C484.071 319.115 485.797 319.437 488.056 319.518L488.394 316.582C484.233 316.243 482.604 315.679 482.797 314.647C482.991 313.598 485.491 312.808 488.781 312.776L488.83 312.388C488.846 312.243 489.152 312.13 489.491 312.13ZM488.459 316.05L488.781 313.227C486.152 313.243 484.33 313.84 484.217 314.582C484.088 315.292 484.91 315.727 488.459 316.05ZM489.636 316.679L489.346 319.534C492.249 319.518 494.169 318.921 494.201 318.131C494.233 317.405 493.265 316.969 489.636 316.679Z" fill="#FFC727"/>
<path d="M542.831 337.035H433.036V325.211L542.831 325.292V337.035Z" fill="#4A75CB"/>
<path d="M501.152 325.228H474.731V337.035H501.152V325.228Z" fill="#EBEBEB"/>
<path d="M474.731 325.227H501.152L497.813 307.582H479.78L474.731 325.227Z" fill="#EBEBEB"/>
<path d="M507.636 351.1L397.841 351.019L409.971 333.39L499.33 333.422L507.636 351.1Z" fill="#699DEE"/>
<g opacity="0.1">
<path opacity="0.1" d="M467.635 342.454C467.812 345.761 461.263 348.438 453.005 348.438C444.746 348.438 438.778 345.745 439.682 342.438C440.569 339.131 447.118 336.454 454.311 336.454C461.489 336.47 467.457 339.148 467.635 342.454Z" fill="black"/>
<path opacity="0.1" d="M430.537 342.051C430.246 342.809 428.327 343.422 426.23 343.422C424.133 343.422 422.73 342.809 423.085 342.051C423.44 341.293 425.359 340.68 427.391 340.68C429.424 340.68 430.827 341.293 430.537 342.051Z" fill="black"/>
<path opacity="0.1" d="M484.329 342.083C484.523 342.841 482.974 343.454 480.877 343.454C478.78 343.454 476.99 342.841 476.861 342.083C476.732 341.325 478.28 340.712 480.313 340.712C482.345 340.696 484.136 341.325 484.329 342.083Z" fill="black"/>
</g>
<g opacity="0.1">
<path opacity="0.1" d="M412.679 333.405L401.163 351.018H397.84L409.969 333.405H412.679Z" fill="black"/>
<path opacity="0.1" d="M507.636 351.1H504.297L496.619 333.422H499.329L507.636 351.1Z" fill="black"/>
<path opacity="0.1" d="M507.103 349.987L507.635 351.1L397.84 351.019L398.598 349.906L507.103 349.987Z" fill="black"/>
<path opacity="0.1" d="M499.328 333.421L499.844 334.534L409.211 334.502L409.969 333.389L499.328 333.421Z" fill="black"/>
<path opacity="0.1" d="M409.163 349.922H401.904L403.501 347.47C407.405 347.47 409.937 348.567 409.163 349.922Z" fill="black"/>
<path opacity="0.1" d="M502.748 347.519L503.813 349.971H496.538C496.07 348.616 498.845 347.519 502.748 347.519Z" fill="black"/>
<path opacity="0.1" d="M491.02 334.535H497.101L498.165 336.986C494.714 336.986 491.504 335.89 491.02 334.535Z" fill="black"/>
<path opacity="0.1" d="M410.357 336.954L411.954 334.502H418.019C417.245 335.857 413.809 336.954 410.357 336.954Z" fill="black"/>
</g>
<path d="M454.295 337.938C454.634 337.938 454.924 338.051 454.908 338.18L454.876 338.599C456.811 338.664 458.183 338.906 459.634 339.325C459.876 339.39 460.005 339.454 460.005 339.567C460.005 339.712 459.666 339.825 459.279 339.825C459.118 339.825 458.973 339.809 458.795 339.761C457.489 339.357 456.199 339.148 454.779 339.083L454.489 341.97C458.715 342.309 460.505 342.89 460.473 343.906C460.441 345.003 457.828 345.777 454.166 345.809L454.086 346.616C454.069 346.745 453.731 346.858 453.344 346.858C452.956 346.858 452.65 346.745 452.666 346.616L452.763 345.793C450.231 345.713 448.214 345.39 446.376 344.793C446.182 344.729 446.085 344.664 446.101 344.583C446.134 344.454 446.488 344.325 446.876 344.325C447.134 344.325 447.295 344.374 447.376 344.39C448.892 344.922 450.618 345.245 452.876 345.325L453.215 342.39C449.053 342.051 447.424 341.487 447.618 340.454C447.811 339.406 450.311 338.615 453.602 338.583L453.65 338.196C453.634 338.051 453.94 337.938 454.295 337.938ZM453.263 341.858L453.586 339.035C450.956 339.051 449.134 339.648 449.021 340.39C448.892 341.099 449.714 341.535 453.263 341.858ZM454.424 342.487L454.134 345.342C457.037 345.325 458.957 344.729 458.989 343.938C459.037 343.212 458.07 342.777 454.424 342.487Z" fill="#FFC727"/>
<path d="M507.635 362.842H397.84V351.019L507.635 351.1V362.842Z" fill="#4A75CB"/>
<path d="M465.956 351.035H439.535V362.842H465.956V351.035Z" fill="#EBEBEB"/>
<path d="M439.535 351.035H465.94L462.617 333.389H444.584L439.535 351.035Z" fill="#EBEBEB"/>
<path d="M323.217 173.39C323.217 173.39 333.368 162.429 347.123 165.564C360.878 168.699 363.778 188.851 378.172 193.756C392.567 198.639 410.459 189.448 422.017 197.381C433.554 205.314 430.952 224.955 436.049 228.217C441.146 231.48 389.56 233.165 389.56 233.165C389.56 233.165 330.574 188.638 323.686 174.968" fill="#FFC727"/>
<path opacity="0.2" d="M323.217 173.39C323.217 173.39 333.368 162.429 347.123 165.564C360.878 168.699 363.778 188.851 378.172 193.756C392.567 198.639 410.459 189.448 422.017 197.381C433.554 205.314 430.952 224.955 436.049 228.217C441.146 231.48 389.56 233.165 389.56 233.165C389.56 233.165 330.574 188.638 323.686 174.968" fill="black"/>
<path d="M466.181 410.314C460.871 414.323 435.175 405.835 428.393 406.944C421.612 408.053 389.602 421.189 353.733 423.322C317.864 425.455 296.923 412.937 291.25 411.742C285.578 410.548 262.589 416.157 255.978 410.783C249.389 405.409 260.883 383.422 260.883 383.422C260.883 383.422 256.106 377.963 253.014 367.407C250.071 357.406 248.643 342.862 254.208 324.096C265.639 285.497 326.011 260.674 336.033 254.724C346.056 248.775 354.928 228.26 337.398 204.951C336.822 204.184 336.268 203.437 335.756 202.712C334.626 201.134 333.581 199.641 332.621 198.213V198.191C332.557 198.085 332.493 197.999 332.429 197.914C320.551 179.958 323.217 173.433 323.217 173.433C323.217 173.433 330.105 187.123 348.274 187.102C366.443 187.081 390.583 176.845 402.376 182.347C414.169 187.87 405.767 209.941 408.198 216.232C410.629 222.523 413.764 221.585 426.772 219.858C439.802 218.13 459.635 232.695 441.956 233.762C424.277 234.828 399.199 240.884 405.49 257.667C406.364 260.034 407.9 262.359 409.925 264.683L409.947 264.705C409.947 264.705 409.968 264.726 409.989 264.747C410.053 264.833 410.117 264.897 410.203 264.982C410.309 265.11 410.416 265.238 410.544 265.366C410.608 265.43 410.672 265.515 410.757 265.6C416.941 272.318 426.964 279.163 436.923 287.032L437.03 287.118C439.461 289.037 441.892 291.02 444.259 293.11C452.363 300.19 459.72 308.144 464.07 317.549C482.687 357.832 459.208 381.077 460.744 382.143C462.258 383.209 471.47 406.304 466.181 410.314Z" fill="#FFB93E"/>
<g opacity="0.2">
<path opacity="0.2" d="M291.25 411.743C289.374 411.935 287.561 411.466 285.855 410.869C284.149 410.229 282.549 409.355 281.078 408.353C279.585 407.35 278.242 406.135 277.026 404.834C276.429 404.173 275.853 403.469 275.32 402.744C274.83 401.976 274.318 401.23 273.934 400.377C274.808 400.718 275.576 401.166 276.344 401.614C277.133 402.04 277.858 402.509 278.583 402.957C280.054 403.874 281.441 404.834 282.827 405.794L286.964 408.715L291.25 411.743Z" fill="black"/>
<path opacity="0.2" d="M428.221 406.945L432.657 404.13L436.965 401.443C438.415 400.569 439.843 399.673 441.358 398.841C442.104 398.415 442.872 397.988 443.682 397.626C444.471 397.242 445.26 396.837 446.156 396.538C445.708 397.37 445.175 398.095 444.642 398.82C444.066 399.524 443.469 400.185 442.829 400.825C441.528 402.062 440.121 403.192 438.585 404.109C437.05 405.047 435.408 405.836 433.68 406.369C431.91 406.881 430.076 407.244 428.221 406.945Z" fill="black"/>
<path opacity="0.2" d="M347.378 257.071C345.758 258.991 343.86 260.59 341.919 262.083C339.957 263.554 337.91 264.898 335.778 266.113C333.645 267.307 331.449 268.395 329.167 269.312C326.885 270.229 324.539 270.997 322.065 271.444C323.985 269.824 326.011 268.48 328.037 267.137C330.084 265.836 332.131 264.578 334.242 263.405C336.332 262.232 338.465 261.08 340.64 260.014C342.815 258.948 345.011 257.924 347.378 257.071Z" fill="black"/>
<path opacity="0.2" d="M353.861 257.263C353.52 258.99 352.859 260.525 352.07 261.997C351.281 263.468 350.364 264.854 349.297 266.134C348.231 267.414 347.058 268.608 345.693 269.653C344.35 270.655 342.836 271.572 341.108 271.956C342.089 270.506 343.006 269.205 343.945 267.925C344.904 266.646 345.864 265.388 346.866 264.172C347.89 262.957 348.935 261.741 350.065 260.568C351.238 259.395 352.432 258.286 353.861 257.263Z" fill="black"/>
<path opacity="0.2" d="M384.568 259.14C385.464 261.485 386.36 263.703 387.362 265.878C388.343 268.032 389.409 270.143 390.582 272.169C391.755 274.195 392.992 276.179 394.399 278.098C395.743 280.081 397.299 281.872 398.792 283.941C396.51 282.917 394.378 281.489 392.565 279.719C390.71 277.991 389.153 275.923 387.895 273.726C386.616 271.53 385.656 269.141 385.059 266.689C384.483 264.194 384.184 261.656 384.568 259.14Z" fill="black"/>
<path opacity="0.2" d="M417.091 278.972C415.215 278.439 413.551 277.543 411.973 276.541C410.395 275.517 408.924 274.345 407.602 273.022C406.279 271.7 405.064 270.229 404.04 268.608C403.059 266.966 402.249 265.196 401.972 263.255C403.4 264.578 404.68 265.814 405.959 267.073C407.26 268.309 408.54 269.546 409.798 270.804C411.078 272.063 412.336 273.342 413.551 274.664C414.767 276.008 415.982 277.394 417.091 278.972Z" fill="black"/>
<path opacity="0.2" d="M395.19 264.257C396.832 266.326 398.347 268.394 399.882 270.42L404.446 276.498L409.073 282.512C410.609 284.559 412.229 286.521 413.701 288.739C411.355 287.502 409.201 285.945 407.26 284.175C405.299 282.426 403.529 280.465 401.951 278.375C400.351 276.285 398.965 274.046 397.792 271.7C396.662 269.354 395.66 266.88 395.19 264.257Z" fill="black"/>
<path opacity="0.2" d="M387.748 248.392C388.793 246.558 390.094 244.937 391.501 243.402C392.909 241.888 394.465 240.459 396.108 239.179C397.771 237.921 399.562 236.812 401.46 235.895C403.379 235.021 405.405 234.339 407.495 234.147C405.661 235.17 403.934 236.215 402.249 237.303C400.586 238.433 398.965 239.627 397.366 240.843C394.167 243.274 391.096 245.876 387.748 248.392Z" fill="black"/>
<path opacity="0.2" d="M363.904 245.897C363.371 242.826 362.625 240.053 361.473 237.388C360.876 236.066 360.279 234.765 359.511 233.507C358.786 232.227 357.933 231.012 357.123 229.647C358.509 230.372 359.789 231.353 360.834 232.547C361.921 233.72 362.753 235.106 363.393 236.577C364.032 238.049 364.395 239.627 364.523 241.226C364.63 242.783 364.502 244.404 363.904 245.897Z" fill="black"/>
<path opacity="0.2" d="M370.474 247.923C369.663 245.833 369.194 243.892 368.661 241.973L367.829 239.115C367.531 238.156 367.19 237.239 366.806 236.151C367.829 236.642 368.64 237.473 369.279 238.39C369.898 239.329 370.346 240.352 370.644 241.418C370.921 242.485 371.071 243.572 371.049 244.681C371.049 245.769 370.9 246.856 370.474 247.923Z" fill="black"/>
</g>
<path d="M330.382 250.95C335.841 256.026 343.305 259.203 350.236 261.592C369.94 268.352 391.33 268.33 411.802 266.134C419.244 265.345 416.387 254 409.008 254.789C390.626 256.751 371.305 256.474 353.648 250.417C349.468 248.988 345.779 247.389 342.026 245.086C340.959 244.425 339.936 243.7 338.912 242.975C337.633 242.1 339.915 243.913 338.848 242.932C333.368 237.835 324.859 245.832 330.382 250.95Z" fill="#232323"/>
<path d="M337.782 243.572C342.367 247.858 348.551 250.609 354.373 252.699C370.559 258.5 388.408 258.841 405.319 257.156C412.697 256.431 413.103 244.745 405.639 245.491C389.965 247.048 373.672 247.005 358.638 241.823C355.183 240.629 351.963 239.243 348.871 237.302C347.954 236.726 347.08 236.108 346.184 235.468C345.118 234.722 347.207 236.407 346.269 235.532C340.81 230.414 332.301 238.411 337.782 243.572Z" fill="#232323"/>
<g opacity="0.2">
<path opacity="0.7" d="M344.692 295.434C346.163 295.52 347.357 296.714 347.293 298.079L347.08 302.237C355.226 303.282 361.005 306.076 366.934 310.554C367.915 311.343 368.448 311.983 368.405 313.028C368.32 314.478 366.913 315.544 365.313 315.48C364.631 315.437 364.076 315.31 363.309 314.648C357.956 310.319 352.603 307.952 346.611 307.014L345.118 336.123C362.221 340.345 369.173 346.636 368.661 356.83C368.085 367.855 357.593 375.127 343.369 374.807L342.943 382.911C342.879 384.254 341.557 385.342 340.085 385.256C338.614 385.171 337.42 383.977 337.484 382.612L337.91 374.402C328.058 373.165 320.168 369.433 312.874 363.014C312.107 362.353 311.68 361.713 311.744 360.775C311.808 359.431 313.237 358.237 314.708 358.323C315.732 358.365 316.393 358.834 316.713 359.154C322.791 364.891 329.551 368.473 338.379 369.753L339.893 340.132C323.025 335.824 316.286 329.747 316.82 319.361C317.353 308.869 327.759 301.363 341.642 301.768L341.855 297.823C341.898 296.437 343.22 295.349 344.692 295.434ZM340.171 334.801L341.621 306.417C330.596 306.054 323.004 311.706 322.62 319.191C322.257 326.271 325.669 330.834 340.171 334.801ZM344.841 341.412L343.369 370.094C354.736 370.478 362.434 364.827 362.839 356.915C363.202 349.75 359.449 345.165 344.841 341.412Z" fill="black"/>
</g>
<path d="M321.795 417.914L212.016 417.833L224.146 400.203L313.488 400.236L321.795 417.914Z" fill="#699DEE"/>
<g opacity="0.1">
<path opacity="0.1" d="M281.81 409.268C281.987 412.574 275.439 415.252 267.18 415.252C258.922 415.252 252.954 412.558 253.857 409.252C254.744 405.945 261.293 403.268 268.487 403.268C275.648 403.284 281.632 405.961 281.81 409.268Z" fill="black"/>
<path opacity="0.1" d="M244.712 408.865C244.422 409.623 242.502 410.236 240.405 410.236C238.308 410.236 236.905 409.623 237.26 408.865C237.615 408.107 239.534 407.494 241.567 407.494C243.583 407.494 244.986 408.107 244.712 408.865Z" fill="black"/>
<path opacity="0.1" d="M298.488 408.897C298.681 409.655 297.133 410.268 295.036 410.268C292.939 410.268 291.149 409.655 291.02 408.897C290.891 408.139 292.439 407.526 294.471 407.526C296.504 407.51 298.31 408.139 298.488 408.897Z" fill="black"/>
</g>
<g opacity="0.1">
<path opacity="0.1" d="M226.839 400.219L215.339 417.833H212L224.146 400.203L226.839 400.219Z" fill="black"/>
<path opacity="0.1" d="M321.795 417.914H318.473L310.779 400.236H313.489L321.795 417.914Z" fill="black"/>
<path opacity="0.1" d="M321.279 416.801L321.795 417.914L212 417.833L212.774 416.72L321.279 416.801Z" fill="black"/>
<path opacity="0.1" d="M313.488 400.235L314.02 401.348L223.387 401.316L224.145 400.203L313.488 400.235Z" fill="black"/>
<path opacity="0.1" d="M223.323 416.72H216.065L217.662 414.268C221.565 414.268 224.114 415.381 223.323 416.72Z" fill="#699DEE"/>
<path opacity="0.1" d="M316.923 414.333L317.988 416.785H310.713C310.23 415.43 313.004 414.333 316.923 414.333Z" fill="black"/>
<path opacity="0.1" d="M305.182 401.348H311.263L312.328 403.8C308.876 403.8 305.682 402.703 305.182 401.348Z" fill="black"/>
<path opacity="0.1" d="M224.517 403.768L226.114 401.316H232.179C231.404 402.671 227.985 403.768 224.517 403.768Z" fill="black"/>
</g>
<path d="M268.455 404.752C268.794 404.752 269.084 404.865 269.068 404.994L269.019 405.414C270.955 405.478 272.326 405.72 273.778 406.139C274.02 406.204 274.149 406.268 274.149 406.381C274.149 406.526 273.81 406.639 273.423 406.639C273.262 406.639 273.116 406.623 272.939 406.575C271.632 406.172 270.342 405.962 268.923 405.897L268.632 408.785C272.858 409.123 274.649 409.704 274.616 410.72C274.584 411.817 271.971 412.591 268.31 412.624L268.229 413.43C268.213 413.559 267.874 413.672 267.487 413.672C267.1 413.672 266.794 413.559 266.81 413.43L266.906 412.607C264.374 412.527 262.358 412.204 260.519 411.607C260.326 411.543 260.229 411.478 260.245 411.398C260.277 411.269 260.632 411.14 261.019 411.14C261.277 411.14 261.438 411.188 261.519 411.204C263.035 411.736 264.761 412.059 267.019 412.14L267.358 409.204C263.197 408.865 261.568 408.301 261.761 407.268C261.955 406.22 264.455 405.43 267.745 405.397L267.794 405.01C267.81 404.865 268.116 404.752 268.455 404.752ZM267.423 408.672L267.745 405.849C265.116 405.865 263.293 406.462 263.181 407.204C263.068 407.914 263.874 408.349 267.423 408.672ZM268.6 409.301L268.31 412.156C271.213 412.14 273.133 411.543 273.165 410.752C273.197 410.027 272.229 409.591 268.6 409.301Z" fill="#FFC727"/>
<path d="M321.796 429.656H212.017V417.833L321.796 417.914V429.656Z" fill="#4A75CB"/>
<path d="M280.116 417.849H253.695V429.656H280.116V417.849Z" fill="#EBEBEB"/>
<path d="M253.695 417.849H280.116L276.777 400.203H258.744L253.695 417.849Z" fill="#EBEBEB"/>
<path d="M328.069 402.51L218.274 402.429L230.403 384.799L319.762 384.832L328.069 402.51Z" fill="#699DEE"/>
<g opacity="0.1">
<path opacity="0.1" d="M288.066 393.864C288.243 397.17 281.694 399.848 273.436 399.848C265.178 399.848 259.21 397.154 260.113 393.848C261 390.541 267.549 387.864 274.743 387.864C281.92 387.88 287.888 390.557 288.066 393.864Z" fill="black"/>
<path opacity="0.1" d="M250.968 393.461C250.677 394.219 248.758 394.832 246.661 394.832C244.564 394.832 243.161 394.219 243.516 393.461C243.871 392.703 245.79 392.09 247.822 392.09C249.855 392.074 251.258 392.703 250.968 393.461Z" fill="black"/>
<path opacity="0.1" d="M304.76 393.493C304.954 394.251 303.405 394.864 301.308 394.864C299.212 394.864 297.421 394.251 297.292 393.493C297.163 392.735 298.712 392.122 300.744 392.122C302.776 392.106 304.567 392.719 304.76 393.493Z" fill="black"/>
</g>
<g opacity="0.1">
<path opacity="0.1" d="M233.113 384.799L221.597 402.429H218.274L230.403 384.799H233.113Z" fill="black"/>
<path opacity="0.1" d="M328.069 402.51H324.73L317.053 384.832H319.763L328.069 402.51Z" fill="black"/>
<path opacity="0.1" d="M327.537 401.397L328.069 402.51L218.274 402.429L219.032 401.316L327.537 401.397Z" fill="#699DEE"/>
<path opacity="0.1" d="M319.761 384.832L320.278 385.945L229.645 385.912L230.403 384.799L319.761 384.832Z" fill="black"/>
<path opacity="0.1" d="M229.596 401.316H222.338L223.935 398.864C227.838 398.864 230.371 399.961 229.596 401.316Z" fill="black"/>
<path opacity="0.1" d="M323.182 398.929L324.247 401.381H316.972C316.505 400.026 319.279 398.929 323.182 398.929Z" fill="black"/>
<path opacity="0.1" d="M311.454 385.945H317.535L318.6 388.396C315.148 388.396 311.938 387.299 311.454 385.945Z" fill="black"/>
<path opacity="0.1" d="M230.791 388.364L232.388 385.912H238.453C237.678 387.267 234.243 388.364 230.791 388.364Z" fill="black"/>
</g>
<path d="M274.729 389.332C275.068 389.332 275.358 389.445 275.342 389.574L275.293 389.993C277.229 390.058 278.6 390.3 280.052 390.719C280.294 390.8 280.423 390.848 280.423 390.961C280.423 391.106 280.084 391.219 279.697 391.219C279.536 391.219 279.39 391.203 279.213 391.155C277.906 390.751 276.616 390.542 275.197 390.477L274.906 393.364C279.132 393.703 280.923 394.284 280.89 395.3C280.858 396.397 278.245 397.171 274.584 397.203L274.503 398.01C274.487 398.139 274.148 398.252 273.761 398.252C273.374 398.252 273.067 398.139 273.084 398.01L273.18 397.187C270.648 397.107 268.632 396.784 266.793 396.187C266.599 396.123 266.503 396.058 266.519 395.978C266.551 395.848 266.906 395.719 267.293 395.719C267.551 395.719 267.712 395.768 267.793 395.784C269.309 396.316 271.035 396.639 273.293 396.719L273.632 393.784C269.471 393.445 267.841 392.881 268.035 391.848C268.229 390.8 270.729 390.01 274.019 389.977L274.068 389.59C274.068 389.445 274.374 389.332 274.729 389.332ZM273.697 393.252L274.019 390.429C271.39 390.445 269.567 391.042 269.454 391.784C269.325 392.51 270.148 392.945 273.697 393.252ZM274.858 393.897L274.568 396.752C277.471 396.736 279.39 396.139 279.423 395.348C279.471 394.623 278.503 394.187 274.858 393.897Z" fill="#FFC727"/>
<path d="M328.069 414.252H218.274V402.429L328.069 402.51V414.252Z" fill="#4A75CB"/>
<path d="M286.39 402.445H259.969V414.252H286.39V402.445Z" fill="#EBEBEB"/>
<path d="M259.969 402.445H286.374L283.051 384.799H265.018L259.969 402.445Z" fill="#EBEBEB"/>
<path d="M326.618 387.784L216.823 387.703L228.968 370.073L318.311 370.106L326.618 387.784Z" fill="#699DEE"/>
<g opacity="0.1">
<path opacity="0.1" d="M286.615 379.138C286.792 382.445 280.244 385.122 271.985 385.122C263.727 385.122 257.759 382.428 258.662 379.122C259.549 375.815 266.098 373.138 273.292 373.138C280.47 373.154 286.438 375.831 286.615 379.138Z" fill="black"/>
<path opacity="0.1" d="M249.517 378.735C249.227 379.493 247.307 380.106 245.21 380.106C243.114 380.106 241.71 379.493 242.065 378.735C242.42 377.977 244.339 377.364 246.372 377.364C248.404 377.364 249.807 377.977 249.517 378.735Z" fill="black"/>
<path opacity="0.1" d="M303.31 378.767C303.503 379.525 301.955 380.138 299.858 380.138C297.761 380.138 295.971 379.525 295.841 378.767C295.712 378.009 297.261 377.396 299.293 377.396C301.326 377.38 303.116 378.009 303.31 378.767Z" fill="black"/>
</g>
<g opacity="0.1">
<path opacity="0.1" d="M231.662 370.091L220.145 387.704H216.822L228.968 370.091H231.662Z" fill="black"/>
<path opacity="0.1" d="M326.618 387.784H323.295L315.601 370.105H318.311L326.618 387.784Z" fill="black"/>
<path opacity="0.1" d="M326.101 386.67L326.617 387.783L216.822 387.703L217.596 386.59L326.101 386.67Z" fill="black"/>
<path opacity="0.1" d="M318.31 370.105L318.842 371.218L228.193 371.186L228.967 370.073L318.31 370.105Z" fill="black"/>
<path opacity="0.1" d="M228.146 386.606H220.887L222.484 384.154C226.387 384.154 228.92 385.251 228.146 386.606Z" fill="black"/>
<path opacity="0.1" d="M321.747 384.203L322.811 386.654H315.537C315.053 385.299 317.827 384.203 321.747 384.203Z" fill="black"/>
<path opacity="0.1" d="M310.004 371.218H316.085L317.15 373.67C313.698 373.67 310.488 372.573 310.004 371.218Z" fill="black"/>
<path opacity="0.1" d="M229.339 373.638L230.936 371.186H237.001C236.227 372.541 232.807 373.638 229.339 373.638Z" fill="black"/>
</g>
<path d="M273.277 374.622C273.616 374.622 273.906 374.735 273.89 374.864L273.842 375.283C275.777 375.348 277.148 375.59 278.6 376.009C278.842 376.074 278.971 376.138 278.971 376.251C278.971 376.396 278.632 376.509 278.245 376.509C278.084 376.509 277.939 376.493 277.761 376.444C276.455 376.041 275.164 375.832 273.745 375.767L273.455 378.654C277.681 378.993 279.471 379.574 279.439 380.59C279.406 381.687 276.793 382.461 273.132 382.493L273.051 383.3C273.035 383.429 272.697 383.542 272.309 383.542C271.922 383.542 271.616 383.429 271.632 383.3L271.729 382.477C269.196 382.396 267.18 382.074 265.341 381.477C265.148 381.412 265.051 381.348 265.067 381.267C265.099 381.138 265.454 381.009 265.841 381.009C266.099 381.009 266.261 381.058 266.341 381.074C267.858 381.606 269.583 381.929 271.842 382.009L272.18 379.074C268.019 378.735 266.39 378.17 266.583 377.138C266.777 376.09 269.277 375.299 272.567 375.267L272.616 374.88C272.632 374.735 272.938 374.622 273.277 374.622ZM272.245 378.541L272.567 375.719C269.938 375.735 268.116 376.332 268.003 377.074C267.874 377.783 268.696 378.219 272.245 378.541ZM273.422 379.17L273.132 382.025C276.035 382.009 277.955 381.412 277.987 380.622C278.019 379.896 277.052 379.461 273.422 379.17Z" fill="#FFC727"/>
<path d="M326.617 399.526H216.822V387.703L326.617 387.784V399.526Z" fill="#4A75CB"/>
<path d="M284.938 387.719H258.518V399.526H284.938V387.719Z" fill="#EBEBEB"/>
<path d="M258.518 387.719H284.938L281.599 370.073H263.566L258.518 387.719Z" fill="#EBEBEB"/>
<path d="M402.283 425.092L292.488 425.011L304.618 407.381L393.977 407.413L402.283 425.092Z" fill="#699DEE"/>
<g opacity="0.1">
<path opacity="0.1" d="M362.282 416.446C362.459 419.752 355.911 422.43 347.652 422.43C339.394 422.43 333.426 419.736 334.329 416.429C335.216 413.123 341.765 410.445 348.959 410.445C356.137 410.461 362.105 413.139 362.282 416.446Z" fill="black"/>
<path opacity="0.1" d="M325.184 416.042C324.894 416.801 322.974 417.413 320.877 417.413C318.781 417.413 317.377 416.801 317.732 416.042C318.087 415.284 320.006 414.671 322.039 414.671C324.071 414.655 325.474 415.284 325.184 416.042Z" fill="black"/>
<path opacity="0.1" d="M378.977 416.075C379.17 416.833 377.622 417.446 375.525 417.446C373.428 417.446 371.638 416.833 371.508 416.075C371.379 415.317 372.928 414.704 374.96 414.704C376.993 414.688 378.783 415.3 378.977 416.075Z" fill="black"/>
</g>
<g opacity="0.1">
<path opacity="0.1" d="M307.328 407.381L295.811 425.011H292.488L304.618 407.381H307.328Z" fill="black"/>
<path opacity="0.1" d="M402.284 425.092H398.945L391.268 407.413H393.977L402.284 425.092Z" fill="black"/>
<path opacity="0.1" d="M401.752 423.978L402.284 425.091L292.489 425.011L293.247 423.898L401.752 423.978Z" fill="#699DEE"/>
<path opacity="0.1" d="M393.976 407.413L394.492 408.526L303.859 408.494L304.617 407.381L393.976 407.413Z" fill="black"/>
<path opacity="0.1" d="M303.811 423.898H296.553L298.15 421.446C302.053 421.446 304.585 422.543 303.811 423.898Z" fill="black"/>
<path opacity="0.1" d="M397.397 421.511L398.461 423.962H391.187C390.719 422.608 393.493 421.511 397.397 421.511Z" fill="black"/>
<path opacity="0.1" d="M385.669 408.526H391.75L392.815 410.978C389.363 410.978 386.153 409.881 385.669 408.526Z" fill="black"/>
<path opacity="0.1" d="M305.006 410.946L306.603 408.494H312.667C311.893 409.849 308.458 410.946 305.006 410.946Z" fill="black"/>
</g>
<path d="M348.943 411.914C349.282 411.914 349.572 412.027 349.556 412.156L349.508 412.575C351.443 412.64 352.814 412.882 354.266 413.301C354.508 413.382 354.637 413.43 354.637 413.543C354.637 413.688 354.298 413.801 353.911 413.801C353.75 413.801 353.605 413.785 353.427 413.736C352.121 413.333 350.83 413.124 349.411 413.059L349.121 415.946C353.347 416.285 355.137 416.866 355.105 417.882C355.073 418.979 352.46 419.753 348.798 419.785L348.717 420.592C348.701 420.721 348.363 420.834 347.975 420.834C347.588 420.834 347.282 420.721 347.298 420.592L347.395 419.769C344.862 419.688 342.846 419.366 341.007 418.769C340.814 418.704 340.717 418.64 340.733 418.559C340.765 418.43 341.12 418.301 341.507 418.301C341.765 418.301 341.927 418.35 342.007 418.366C343.524 418.898 345.25 419.221 347.508 419.301L347.846 416.366C343.685 416.027 342.056 415.462 342.249 414.43C342.443 413.382 344.943 412.591 348.233 412.559L348.282 412.172C348.282 412.027 348.588 411.914 348.943 411.914ZM347.911 415.833L348.233 413.011C345.604 413.027 343.782 413.624 343.669 414.366C343.54 415.091 344.362 415.527 347.911 415.833ZM349.072 416.479L348.782 419.334C351.685 419.317 353.605 418.721 353.637 417.93C353.685 417.204 352.718 416.769 349.072 416.479Z" fill="#FFC727"/>
<path d="M402.284 436.834H292.489V425.011L402.284 425.091V436.834Z" fill="#4A75CB"/>
<path d="M360.604 425.027H334.184V436.834H360.604V425.027Z" fill="#EBEBEB"/>
<path d="M334.184 425.027H360.588L357.265 407.381H339.232L334.184 425.027Z" fill="#EBEBEB"/>
<path d="M400.831 410.365L291.036 410.284L303.182 392.655L392.524 392.687L400.831 410.365Z" fill="#699DEE"/>
<g opacity="0.1">
<path opacity="0.1" d="M360.83 401.72C361.008 405.026 354.459 407.704 346.201 407.704C337.942 407.704 331.974 405.01 332.878 401.703C333.765 398.397 340.313 395.719 347.507 395.719C354.685 395.735 360.653 398.413 360.83 401.72Z" fill="black"/>
<path opacity="0.1" d="M323.732 401.316C323.442 402.074 321.523 402.687 319.426 402.687C317.329 402.687 315.926 402.074 316.28 401.316C316.635 400.558 318.555 399.945 320.587 399.945C322.619 399.945 324.023 400.558 323.732 401.316Z" fill="black"/>
<path opacity="0.1" d="M377.525 401.349C377.718 402.107 376.17 402.72 374.073 402.72C371.976 402.72 370.186 402.107 370.057 401.349C369.928 400.591 371.476 399.978 373.509 399.978C375.541 399.961 377.331 400.591 377.525 401.349Z" fill="black"/>
</g>
<g opacity="0.1">
<path opacity="0.1" d="M305.875 392.67L294.359 410.284H291.036L303.182 392.67H305.875Z" fill="black"/>
<path opacity="0.1" d="M400.833 410.365H397.51L389.816 392.687H392.526L400.833 410.365Z" fill="black"/>
<path opacity="0.1" d="M400.316 409.252L400.832 410.365L291.037 410.284L291.811 409.171L400.316 409.252Z" fill="black"/>
<path opacity="0.1" d="M392.525 392.687L393.057 393.8L302.408 393.767L303.182 392.655L392.525 392.687Z" fill="black"/>
<path opacity="0.1" d="M302.359 409.188H295.101L296.697 406.736C300.601 406.736 303.133 407.833 302.359 409.188Z" fill="black"/>
<path opacity="0.1" d="M395.96 406.784L397.025 409.236H389.75C389.266 407.881 392.041 406.784 395.96 406.784Z" fill="black"/>
<path opacity="0.1" d="M384.217 393.8H390.298L391.363 396.252C387.911 396.252 384.701 395.155 384.217 393.8Z" fill="black"/>
<path opacity="0.1" d="M303.554 396.219L305.151 393.767H311.215C310.441 395.122 307.022 396.219 303.554 396.219Z" fill="black"/>
</g>
<path d="M347.491 397.203C347.83 397.203 348.12 397.316 348.104 397.445L348.056 397.865C349.991 397.929 351.362 398.171 352.814 398.591C353.056 398.655 353.185 398.72 353.185 398.832C353.185 398.978 352.846 399.091 352.459 399.091C352.298 399.091 352.153 399.074 351.975 399.026C350.669 398.623 349.378 398.413 347.959 398.349L347.668 401.236C351.894 401.575 353.685 402.155 353.653 403.171C353.62 404.268 351.007 405.042 347.346 405.075L347.265 405.881C347.249 406.01 346.91 406.123 346.523 406.123C346.136 406.123 345.83 406.01 345.846 405.881L345.943 405.059C343.41 404.978 341.394 404.655 339.555 404.059C339.362 403.994 339.265 403.929 339.281 403.849C339.313 403.72 339.668 403.591 340.055 403.591C340.313 403.591 340.475 403.639 340.555 403.655C342.071 404.188 343.797 404.51 346.056 404.591L346.394 401.655C342.233 401.316 340.604 400.752 340.797 399.72C340.991 398.671 343.491 397.881 346.781 397.849L346.83 397.461C346.846 397.316 347.152 397.203 347.491 397.203ZM346.459 401.123L346.781 398.3C344.152 398.316 342.33 398.913 342.217 399.655C342.088 400.365 342.91 400.8 346.459 401.123ZM347.636 401.752L347.346 404.607C350.249 404.591 352.169 403.994 352.201 403.204C352.233 402.478 351.265 402.042 347.636 401.752Z" fill="#FFC727"/>
<path d="M400.831 422.108H291.036V410.284L400.831 410.365V422.108Z" fill="#4A75CB"/>
<path d="M359.152 410.301H332.731V422.108H359.152V410.301Z" fill="#EBEBEB"/>
<path d="M332.731 410.3H359.152L355.813 392.655H337.78L332.731 410.3Z" fill="#EBEBEB"/>
<path d="M365.636 436.173L255.841 436.092L267.971 418.463L357.33 418.495L365.636 436.173Z" fill="#699DEE"/>
<g opacity="0.1">
<path opacity="0.1" d="M325.635 427.527C325.812 430.834 319.263 433.511 311.005 433.511C302.746 433.511 296.778 430.818 297.682 427.511C298.569 424.204 305.118 421.527 312.311 421.527C319.489 421.543 325.457 424.221 325.635 427.527Z" fill="black"/>
<path opacity="0.1" d="M288.537 427.124C288.246 427.882 286.327 428.495 284.23 428.495C282.133 428.495 280.73 427.882 281.085 427.124C281.44 426.366 283.359 425.753 285.391 425.753C287.424 425.753 288.827 426.366 288.537 427.124Z" fill="black"/>
<path opacity="0.1" d="M342.329 427.156C342.523 427.914 340.974 428.527 338.877 428.527C336.78 428.527 334.99 427.914 334.861 427.156C334.732 426.398 336.28 425.785 338.313 425.785C340.345 425.769 342.136 426.398 342.329 427.156Z" fill="black"/>
</g>
<g opacity="0.1">
<path opacity="0.1" d="M270.679 418.478L259.163 436.091H255.84L267.969 418.478H270.679Z" fill="black"/>
<path opacity="0.1" d="M365.636 436.173H362.297L354.619 418.495H357.329L365.636 436.173Z" fill="black"/>
<path opacity="0.1" d="M365.103 435.06L365.635 436.173L255.84 436.092L256.598 434.979L365.103 435.06Z" fill="black"/>
<path opacity="0.1" d="M357.328 418.494L357.844 419.607L267.211 419.575L267.969 418.462L357.328 418.494Z" fill="black"/>
<path opacity="0.1" d="M267.163 434.995H259.904L261.501 432.543C265.405 432.543 267.937 433.64 267.163 434.995Z" fill="black"/>
<path opacity="0.1" d="M360.748 432.592L361.813 435.044H354.538C354.07 433.689 356.845 432.592 360.748 432.592Z" fill="black"/>
<path opacity="0.1" d="M349.02 419.608H355.101L356.165 422.059C352.714 422.059 349.504 420.963 349.02 419.608Z" fill="black"/>
<path opacity="0.1" d="M268.357 422.027L269.954 419.575H276.019C275.245 420.93 271.809 422.027 268.357 422.027Z" fill="black"/>
</g>
<path d="M312.295 423.011C312.634 423.011 312.924 423.124 312.908 423.253L312.876 423.672C314.811 423.737 316.183 423.979 317.634 424.398C317.876 424.463 318.005 424.527 318.005 424.64C318.005 424.785 317.666 424.898 317.279 424.898C317.118 424.898 316.973 424.882 316.795 424.834C315.489 424.43 314.199 424.221 312.779 424.156L312.489 427.043C316.715 427.382 318.505 427.963 318.473 428.979C318.441 430.076 315.828 430.85 312.166 430.882L312.086 431.689C312.069 431.818 311.731 431.931 311.344 431.931C310.956 431.931 310.65 431.818 310.666 431.689L310.763 430.866C308.231 430.786 306.214 430.463 304.376 429.866C304.182 429.802 304.085 429.737 304.101 429.656C304.134 429.527 304.488 429.398 304.876 429.398C305.134 429.398 305.295 429.447 305.376 429.463C306.892 429.995 308.618 430.318 310.876 430.398L311.215 427.463C307.053 427.124 305.424 426.56 305.618 425.527C305.811 424.479 308.311 423.688 311.602 423.656L311.65 423.269C311.634 423.124 311.94 423.011 312.295 423.011ZM311.263 426.931L311.586 424.108C308.956 424.124 307.134 424.721 307.021 425.463C306.892 426.172 307.714 426.608 311.263 426.931ZM312.424 427.56L312.134 430.415C315.037 430.398 316.957 429.802 316.989 429.011C317.037 428.285 316.07 427.85 312.424 427.56Z" fill="#FFC727"/>
<path d="M365.635 447.915H255.84V436.092L365.635 436.173V447.915Z" fill="#4A75CB"/>
<path d="M323.956 436.108H297.535V447.915H323.956V436.108Z" fill="#EBEBEB"/>
<path d="M297.535 436.108H323.94L320.617 418.462H302.584L297.535 436.108Z" fill="#EBEBEB"/>
<defs>
<filter id="filter0_d" x="0" y="-16" width="696" height="696" filterUnits="userSpaceOnUse" color-interpolation-filters="sRGB">
<feFlood flood-opacity="0" result="BackgroundImageFix"/>
<feColorMatrix in="SourceAlpha" type="matrix" values="0 0 0 0 0 0 0 0 0 0 0 0 0 0 0 0 0 0 127 0"/>
<feOffset dy="4"/>
<feGaussianBlur stdDeviation="15"/>
<feColorMatrix type="matrix" values="0 0 0 0 0.8875 0 0 0 0 0.846781 0 0 0 0 0.796531 0 0 0 1 0"/>
<feBlend mode="normal" in2="BackgroundImageFix" result="effect1_dropShadow"/>
<feBlend mode="normal" in="SourceGraphic" in2="effect1_dropShadow" result="shape"/>
</filter>
<filter id="filter1_d" x="113" y="104" width="145" height="145" filterUnits="userSpaceOnUse" color-interpolation-filters="sRGB">
<feFlood flood-opacity="0" result="BackgroundImageFix"/>
<feColorMatrix in="SourceAlpha" type="matrix" values="0 0 0 0 0 0 0 0 0 0 0 0 0 0 0 0 0 0 127 0"/>
<feOffset dy="4"/>
<feGaussianBlur stdDeviation="15"/>
<feColorMatrix type="matrix" values="0 0 0 0 0.8875 0 0 0 0 0.846781 0 0 0 0 0.796531 0 0 0 1 0"/>
<feBlend mode="normal" in2="BackgroundImageFix" result="effect1_dropShadow"/>
<feBlend mode="normal" in="SourceGraphic" in2="effect1_dropShadow" result="shape"/>
</filter>
<filter id="filter2_d" x="447.516" y="395.799" width="157.277" height="157.277" filterUnits="userSpaceOnUse" color-interpolation-filters="sRGB">
<feFlood flood-opacity="0" result="BackgroundImageFix"/>
<feColorMatrix in="SourceAlpha" type="matrix" values="0 0 0 0 0 0 0 0 0 0 0 0 0 0 0 0 0 0 127 0"/>
<feOffset dy="4"/>
<feGaussianBlur stdDeviation="15"/>
<feColorMatrix type="matrix" values="0 0 0 0 0 0 0 0 0 0 0 0 0 0 0 0 0 0 0.3 0"/>
<feBlend mode="normal" in2="BackgroundImageFix" result="effect1_dropShadow"/>
<feBlend mode="normal" in="SourceGraphic" in2="effect1_dropShadow" result="shape"/>
</filter>
<filter id="filter3_d" x="435.608" y="452.062" width="111.97" height="111.97" filterUnits="userSpaceOnUse" color-interpolation-filters="sRGB">
<feFlood flood-opacity="0" result="BackgroundImageFix"/>
<feColorMatrix in="SourceAlpha" type="matrix" values="0 0 0 0 0 0 0 0 0 0 0 0 0 0 0 0 0 0 127 0"/>
<feOffset dy="4"/>
<feGaussianBlur stdDeviation="15"/>
<feColorMatrix type="matrix" values="0 0 0 0 0.416667 0 0 0 0 0.343152 0 0 0 0 0.252431 0 0 0 1 0"/>
<feBlend mode="normal" in2="BackgroundImageFix" result="effect1_dropShadow"/>
<feBlend mode="normal" in="SourceGraphic" in2="effect1_dropShadow" result="shape"/>
</filter>
<filter id="filter4_d" x="433.122" y="449.576" width="116.94" height="116.94" filterUnits="userSpaceOnUse" color-interpolation-filters="sRGB">
<feFlood flood-opacity="0" result="BackgroundImageFix"/>
<feColorMatrix in="SourceAlpha" type="matrix" values="0 0 0 0 0 0 0 0 0 0 0 0 0 0 0 0 0 0 127 0"/>
<feOffset dy="4"/>
<feGaussianBlur stdDeviation="15"/>
<feColorMatrix type="matrix" values="0 0 0 0 0.8875 0 0 0 0 0.846781 0 0 0 0 0.796531 0 0 0 1 0"/>
<feBlend mode="normal" in2="BackgroundImageFix" result="effect1_dropShadow"/>
<feBlend mode="normal" in="SourceGraphic" in2="effect1_dropShadow" result="shape"/>
</filter>
</defs>
</svg>
