<svg width="611" height="569" viewBox="0 0 611 569" fill="none" xmlns="http://www.w3.org/2000/svg">
<g opacity="0.15">
<path opacity="0.5" d="M136.767 93.8546L140.401 111.77C132.612 114.923 125.182 118.69 118.205 123.062L106.136 109.408C102.844 105.684 97.1456 105.373 93.4074 108.717L70.0046 129.647C66.2575 132.997 65.885 138.744 69.1732 142.485L81.3479 156.329C76.204 162.892 71.6165 169.885 67.6544 177.242L50.1272 171.426C45.4001 169.859 40.2651 172.468 38.6531 177.26L28.5559 207.274C26.9373 212.083 29.4628 217.263 34.1987 218.842L51.7857 224.708C50.5441 232.908 50.0253 241.291 50.2115 249.774L31.884 253.652C26.9639 254.692 23.7601 259.574 24.7268 264.558L30.7864 295.792C31.7576 300.797 36.5468 304.012 41.4801 302.967L59.8609 299.078C62.894 307.018 66.548 314.592 70.8095 321.712L56.7501 334.396C52.9586 337.818 52.5751 343.7 55.8987 347.536L76.7206 371.573C80.0575 375.424 85.8422 375.763 89.6381 372.326L103.7 359.606C110.225 364.894 117.2 369.588 124.535 373.65L118.577 391.796C116.963 396.709 119.551 402.011 124.355 403.638L154.436 413.817C159.252 415.447 164.456 412.775 166.059 407.849L171.921 389.842C180.161 391.093 188.584 391.579 197.105 391.33L200.869 409.897C201.9 414.979 206.772 418.249 211.749 417.196L242.875 410.611C247.852 409.558 251.038 404.585 249.992 399.505L246.203 381.098C254.169 377.9 261.752 374.054 268.869 369.581L281.115 383.506C284.514 387.372 290.336 387.712 294.112 384.264L317.712 362.728C321.482 359.289 321.777 353.376 318.371 349.525L306.167 335.716C311.4 328.958 316.027 321.743 320.01 314.169L337.284 319.931C342.111 321.541 347.286 318.885 348.836 314L358.516 283.509C360.061 278.642 357.405 273.403 352.587 271.804L335.477 266.126C336.636 257.732 337.031 249.162 336.696 240.506L354.274 236.788C359.208 235.743 362.341 230.854 361.272 225.87L354.594 194.767C353.527 189.805 348.676 186.628 343.756 187.667L326.231 191.375C323.027 183.386 319.198 175.783 314.755 168.664L327.998 156.682C331.723 153.312 332.011 147.538 328.643 143.784L307.624 120.353C304.269 116.612 298.536 116.302 294.815 119.656L281.488 131.68C274.878 126.497 267.836 121.9 260.439 117.958L266.011 100.841C267.561 96.0785 264.969 90.959 260.22 89.4047L230.558 79.7021C225.82 78.1523 220.716 80.7464 219.155 85.4979L213.521 102.655C205.368 101.508 197.042 101.101 188.626 101.42L184.97 83.6576C183.963 78.7709 179.194 75.6468 174.316 76.6778L143.807 83.1322C138.927 84.1654 135.776 88.9657 136.767 93.8546ZM84.8134 267.984C72.8005 207.536 111.387 148.587 170.935 135.988C230.483 123.39 288.966 161.801 301.633 222.112C314.376 282.786 275.96 342.569 215.758 355.307C155.556 368.043 96.8995 328.798 84.8134 267.984Z" fill="#8F7A61"/>
</g>
<path d="M301.372 111.171V114.701L300.222 113.422L283.018 128.904L266.17 113.741V111.171H263.655V320.514H266.17V318.816L266.726 319.435L283.93 303.952L301.133 319.435L301.372 319.169V320.514H305.144V111.171H301.372ZM301.372 246.637L286.198 232.979L301.372 219.32V246.637ZM268.578 179.697L283.018 166.699L297.459 179.697H268.578ZM297.871 183.468L283.93 196.015L269.988 183.468H297.871ZM266.167 184.115L281.659 198.057L266.167 211.999V184.115ZM266.167 219.037L281.659 232.979L266.167 246.92V219.037ZM266.167 254.262L281.659 268.203L266.167 282.145V254.262ZM283.93 270.246L297.874 282.795H269.988L283.93 270.246ZM286.198 268.203L301.372 254.548V281.862L286.198 268.203ZM283.93 266.161L267.487 251.364H300.372L283.93 266.161ZM268.566 248.847L283.93 235.021L299.293 248.847H268.566ZM283.93 230.936L268.906 217.416H298.953L283.93 230.936ZM267.484 214.902L283.927 200.102L300.372 214.902H267.484ZM286.198 198.057L301.372 184.399V211.713L286.198 198.057ZM285.289 164.655L301.375 150.179V179.133L285.289 164.655ZM283.018 162.613L267.773 148.89H298.264L283.018 162.613ZM268.844 145.749L283.016 132.993L297.189 145.749H268.844ZM280.748 164.655L266.167 177.776V151.533L280.748 164.655ZM298.705 286.567L283.927 299.865L269.15 286.567H298.705ZM301.372 116.472V145.427L285.286 130.951L301.372 116.472ZM280.748 130.949L266.167 144.07V117.827L280.748 130.949ZM266.167 315.852V287.968L281.659 301.91L266.167 315.852ZM286.198 301.91L301.372 288.254V315.568L286.198 301.91Z" fill="#8F7A61"/>
<path d="M307.556 66.0839L288.929 1.02401C288.761 0.436448 288.233 0.0240485 287.623 0.00187629C287.02 -0.0136443 286.457 0.354413 286.247 0.928673L285.595 2.71353C285.349 2.9663 285.193 3.29888 285.193 3.67137V3.8155L262.487 65.9863C262.219 66.718 262.595 67.5295 263.329 67.7956C263.489 67.8533 263.653 67.8821 263.813 67.8821C264.389 67.8821 264.93 67.5273 265.139 66.9553L270.274 52.8959L285.196 58.9201V84.6753C285.196 85.4557 285.876 86.0877 286.657 86.0877C287.435 86.0877 288.118 85.4557 288.118 84.6753V59.042L301.432 54.9313L304.849 66.8622C305.064 67.6116 305.845 68.0439 306.594 67.8311C307.337 67.6138 307.769 66.8333 307.556 66.0839ZM294.9 32.1405L288.111 37.9829V8.42953L294.9 32.1405ZM285.191 38.0627L277.837 32.1804L285.191 12.0458V38.0627ZM271.238 50.2441L276.839 34.9076L285.189 41.6723V55.878L271.238 50.2441ZM288.113 56.0887V41.7078L295.756 35.1293L300.65 52.2174L288.113 56.0887Z" fill="#8F7A61"/>
<path d="M117.567 167.369C117.474 167.369 117.381 167.267 117.292 167.267H117.057C115.636 167.267 114.19 166.595 112.986 165.191C111.308 163.234 110.494 160.575 110.864 158.172C110.982 157.402 111.705 156.897 112.474 157.017C113.244 157.134 113.773 157.868 113.654 158.64C113.41 160.227 113.989 162.26 115.128 163.591C115.758 164.325 116.496 164.93 117.057 164.93H117.299C118.802 164.93 120.86 164.797 121.957 163.701C122.576 163.085 122.888 162.019 122.888 160.673C122.888 156.079 116.749 153.604 116.687 153.58C116.153 153.371 115.793 152.844 115.784 152.269L115.643 144.121C115.629 143.343 116.25 142.724 117.028 142.724C117.037 142.724 117.046 142.724 117.053 142.724C117.82 142.724 118.45 143.294 118.463 144.064L118.589 151.327C120.685 152.345 125.709 155.323 125.709 160.613C125.709 162.735 125.117 164.347 123.948 165.513C122.117 167.344 119.445 167.369 117.567 167.369Z" fill="#232323"/>
<path d="M120.41 122.499C119.629 122.499 119.241 121.867 119.241 121.089V68.3078C119.241 67.5273 119.631 66.8976 120.41 66.8976C121.19 66.8976 121.578 67.5296 121.578 68.3078V121.089C121.578 121.867 121.188 122.499 120.41 122.499Z" fill="#232323"/>
<path d="M261.817 63.8401V114.947C261.817 116.623 262.644 117.599 264.321 117.599H305.106C306.783 117.599 307.98 116.623 307.98 114.947V63.8401H261.817Z" fill="#CD9E64"/>
<path opacity="0.5" d="M299.798 90.2538C299.798 92.1252 298.282 93.6417 296.41 93.6417H270.462C268.591 93.6417 267.074 92.1252 267.074 90.2538V78.3296C267.074 76.4583 268.591 74.9417 270.462 74.9417H296.41C298.282 74.9417 299.798 76.4583 299.798 78.3296V90.2538Z" fill="white"/>
<path d="M112.521 122.499C111.74 122.499 111.06 121.867 111.06 121.089V66.4719C111.06 65.8821 111.321 65.3544 111.873 65.1482L287.207 0.0883343C287.655 -0.0779573 288.129 -0.0069959 288.513 0.279025L370.574 61.2459C371.199 61.7115 371.323 62.594 370.858 63.2193C370.392 63.8445 369.505 63.9753 368.88 63.5097L287.572 2.99955L113.982 67.4541V121.089C113.982 121.867 113.299 122.499 112.521 122.499Z" fill="#232323"/>
<path d="M379.268 65.1217C379.268 63.4455 377.909 62.0885 376.235 62.0885H107.082C105.406 62.0885 104.049 63.4477 104.049 65.1217V67.2347C104.049 68.9109 105.408 70.2678 107.082 70.2678H376.235C377.911 70.2678 379.268 68.9087 379.268 67.2347V65.1217Z" fill="#8F7A61"/>
<path d="M376.346 70.8531H345.961V109.419H376.346V70.8531Z" fill="#CD9E64"/>
<path opacity="0.5" d="M352.389 73.1901H347.715V103.575H352.389V73.1901Z" fill="white"/>
<path opacity="0.5" d="M359.985 73.1901H354.726V103.575H359.985V73.1901Z" fill="white"/>
<path opacity="0.5" d="M366.998 73.1901H362.324V103.575H366.998V73.1901Z" fill="white"/>
<path opacity="0.5" d="M374.594 73.1901H369.335V103.575H374.594V73.1901Z" fill="white"/>
<path d="M123.737 116.43H110.66C109.829 116.43 109.308 116.962 109.308 117.794V135.181C109.308 135.842 109.396 136.492 109.711 137.073L114.644 146.263C114.822 146.589 115.126 146.815 115.498 146.815H119.219C119.598 146.815 119.944 146.582 120.119 146.245L125.012 137.197C125.305 136.634 125.668 135.995 125.668 135.361V117.794C125.668 116.962 124.569 116.43 123.737 116.43Z" fill="#8F7A61"/>
<path d="M122.746 129.989C122.746 131.86 121.23 133.377 119.358 133.377H115.03C113.159 133.377 111.643 131.86 111.643 129.989V122.738C111.643 120.867 113.159 119.35 115.03 119.35H119.358C121.23 119.35 122.746 120.867 122.746 122.738V129.989Z" fill="#8F7A61"/>
<path d="M213.309 187.82C213.223 187.82 213.134 187.809 213.045 187.785L127.56 165.16L158.573 182.47C159.069 182.747 159.249 183.375 158.97 183.874C158.692 184.373 158.065 184.548 157.566 184.273L119.401 162.972C118.947 162.719 118.754 162.167 118.949 161.686C119.144 161.205 119.667 160.941 120.168 161.076L213.573 185.796C214.123 185.94 214.451 186.506 214.307 187.055C214.183 187.514 213.766 187.82 213.309 187.82Z" fill="#232323"/>
<path d="M74.2784 191.887C73.9459 191.887 73.6177 191.725 73.4204 191.428C73.1033 190.953 73.2319 190.315 73.7064 189.998L109.364 166.216L44.4213 190.694C43.8892 190.896 43.295 190.625 43.0932 190.093C42.8915 189.561 43.162 188.965 43.6941 188.765L117.071 161.107C117.561 160.919 118.113 161.134 118.352 161.6C118.592 162.065 118.443 162.637 118.006 162.928L74.8505 191.712C74.6753 191.829 74.4758 191.887 74.2784 191.887Z" fill="url(#paint0_linear)"/>
<path d="M42 252.401L156.644 256.627V182.543L42 187.976V252.401Z" fill="#CD9E64"/>
<path opacity="0.3" d="M46.1543 247.665L151.215 250.871V187.208L46.1543 191.656V247.665Z" fill="#8F7A61"/>
<path opacity="0.6" d="M138.258 250.477L143.646 250.641V187.528L138.258 187.756V250.477Z" fill="#F8F4EE"/>
<path d="M138.047 250.47L141.63 250.579V187.614L138.047 187.765V250.47Z" fill="#CD9E64"/>
<path opacity="0.6" d="M124.825 250.067L130.045 250.226V188.104L124.825 188.326V250.067Z" fill="#F8F4EE"/>
<path d="M124.621 250.06L128.091 250.166V188.186L124.621 188.335V250.06Z" fill="#CD9E64"/>
<path opacity="0.6" d="M111.806 249.67L116.865 249.823V188.663L111.806 188.876V249.67Z" fill="#F8F4EE"/>
<path d="M111.608 249.663L114.972 249.765V188.743L111.608 188.885V249.663Z" fill="#CD9E64"/>
<path opacity="0.6" d="M99.1787 249.284L104.085 249.435V189.204L99.1787 189.41V249.284Z" fill="#F8F4EE"/>
<path d="M98.9883 249.277L102.252 249.377V189.282L98.9883 189.419V249.277Z" fill="#CD9E64"/>
<path opacity="0.6" d="M86.9307 248.909L91.691 249.056V189.729L86.9307 189.929V248.909Z" fill="#F8F4EE"/>
<path d="M86.7451 248.905L89.9113 249V189.805L86.7451 189.938V248.905Z" fill="#CD9E64"/>
<path opacity="0.6" d="M75.04 248.548L79.6629 248.688V190.237L75.04 190.435V248.548Z" fill="#F8F4EE"/>
<path d="M74.8604 248.541L77.9334 248.637V190.31L74.8604 190.441V248.541Z" fill="#CD9E64"/>
<path opacity="0.6" d="M63.4951 248.195L67.985 248.333V190.732L63.4951 190.922V248.195Z" fill="#F8F4EE"/>
<path d="M63.3193 248.191L66.3059 248.282V190.803L63.3193 190.929V248.191Z" fill="#CD9E64"/>
<path opacity="0.6" d="M52.2803 247.854L56.6416 247.987V191.213L52.2803 191.397V247.854Z" fill="#F8F4EE"/>
<path d="M52.1094 247.847L55.0095 247.936V191.282L52.1094 191.406V247.847Z" fill="#CD9E64"/>
<path d="M156.644 256.627L214.695 254.333V187.208L156.644 182.543V256.627Z" fill="#CD9E64"/>
<path opacity="0.3" d="M213.083 252.282V189.195L158.597 185.022V254.228L213.083 252.282Z" fill="#232323"/>
<path d="M159.441 252.803L186.707 251.889V188.508L159.441 186.481V252.803Z" fill="#8F7A61"/>
<path d="M187.491 251.863L212.38 251.031V190.417L187.491 188.568V251.863Z" fill="#8F7A61"/>
<path opacity="0.3" d="M187.492 212.137L212.38 212.988V207.689L187.492 206.605V212.137Z" fill="#232323"/>
<path opacity="0.3" d="M187.491 233.825L212.38 233.757V228.46L187.491 228.293V233.825Z" fill="#232323"/>
<path opacity="0.3" d="M159.441 211.179L186.707 212.11V206.569L159.441 205.381V211.179Z" fill="#232323"/>
<path opacity="0.3" d="M159.441 233.903L186.707 233.828V228.289L159.441 228.107V233.903Z" fill="#232323"/>
<path d="M200.234 252.41L201.538 252.364V187.989L200.234 187.887V252.41Z" fill="#8F7A61"/>
<path d="M201.538 252.364V187.989L200.886 187.938L201.538 252.364Z" fill="#CD9E64"/>
<path d="M199.737 189.8L202.03 189.969V186.588L199.737 186.406V189.8Z" fill="#8F7A61"/>
<path d="M199.737 254.124L202.03 254.038V250.656L199.737 250.729V254.124Z" fill="#8F7A61"/>
<path d="M181.66 253.062L183.05 253.013V186.563L181.66 186.455V253.062Z" fill="#8F7A61"/>
<path d="M183.05 253.013V186.563L182.356 186.508L183.05 253.013Z" fill="#CD9E64"/>
<path d="M181.132 188.428L183.575 188.608V185.118L181.132 184.922V188.428Z" fill="#8F7A61"/>
<path d="M181.132 254.834L183.575 254.741V251.251L181.132 251.328V254.834Z" fill="#8F7A61"/>
<path d="M171.915 253.406L173.352 253.355V185.814L171.915 185.703V253.406Z" fill="#8F7A61"/>
<path d="M173.352 253.355V185.814L172.634 185.758L173.352 253.355Z" fill="#CD9E64"/>
<path d="M171.371 187.707L173.894 187.894V184.346L171.371 184.144V187.707Z" fill="#8F7A61"/>
<path d="M171.37 255.206L173.893 255.111V251.563L171.37 251.643V255.206Z" fill="#8F7A61"/>
<path d="M191.095 252.732L192.441 252.683V187.286L191.095 187.182V252.732Z" fill="#8F7A61"/>
<path d="M192.44 252.683V187.286L191.769 187.235L192.44 252.683Z" fill="#CD9E64"/>
<path d="M190.582 189.124L192.95 189.299V185.865L190.582 185.676V189.124Z" fill="#8F7A61"/>
<path d="M190.582 254.474L192.95 254.384V250.949L190.582 251.024V254.474Z" fill="#8F7A61"/>
<g opacity="0.4">
<path d="M578.869 228.185H469.198V281.531H578.869V228.185Z" fill="#232323"/>
<path opacity="0.6" d="M574.323 231.378H473.741V277.505H574.323V231.378Z" fill="#F8F4EE"/>
<path opacity="0.6" d="M484.819 231.378H480.174V277.505H484.819V231.378Z" fill="#F8F4EE"/>
<path d="M485.003 231.378H481.905V277.505H485.003V231.378Z" fill="#232323"/>
<path opacity="0.6" d="M496.662 231.378H492.017V277.505H496.662V231.378Z" fill="#F8F4EE"/>
<path d="M496.844 231.378H493.746V277.505H496.844V231.378Z" fill="#232323"/>
<path opacity="0.6" d="M508.502 231.378H503.856V277.505H508.502V231.378Z" fill="#F8F4EE"/>
<path d="M508.685 231.378H505.588V277.505H508.685V231.378Z" fill="#232323"/>
<path opacity="0.6" d="M520.343 231.378H515.698V277.505H520.343V231.378Z" fill="#F8F4EE"/>
<path d="M520.527 231.378H517.43V277.505H520.527V231.378Z" fill="#232323"/>
<path opacity="0.6" d="M532.185 231.378H527.54V277.505H532.185V231.378Z" fill="#F8F4EE"/>
<path d="M532.367 231.378H529.27V277.505H532.367V231.378Z" fill="#232323"/>
<path opacity="0.6" d="M544.027 231.378H539.382V277.505H544.027V231.378Z" fill="#F8F4EE"/>
<path d="M544.209 231.378H541.111V277.505H544.209V231.378Z" fill="#232323"/>
<path opacity="0.6" d="M555.867 231.378H551.222V277.505H555.867V231.378Z" fill="#F8F4EE"/>
<path d="M556.051 231.378H552.953V277.505H556.051V231.378Z" fill="#232323"/>
<path opacity="0.6" d="M567.71 231.378H563.064V277.505H567.71V231.378Z" fill="#F8F4EE"/>
<path d="M567.891 231.378H564.794V277.505H567.891V231.378Z" fill="#232323"/>
<path d="M523.872 175H469V228.346H523.872V175Z" fill="#8F7A61"/>
<path opacity="0.3" d="M470.676 226.668V176.676H522.193V226.668H470.676Z" fill="#232323"/>
<path d="M521.466 177.687H496.809V225.659H521.466V177.687Z" fill="#8F7A61"/>
<path d="M496.064 177.687H471.406V225.659H496.064V177.687Z" fill="#8F7A61"/>
<path opacity="0.3" d="M496.064 191.356H471.406V195.549H496.064V191.356Z" fill="#F8F4EE"/>
<path opacity="0.3" d="M496.063 207.795H471.405V211.988H496.063V207.795Z" fill="url(#paint1_linear)"/>
<path opacity="0.3" d="M521.467 191.356H496.81V195.549H521.467V191.356Z" fill="#F8F4EE"/>
<path opacity="0.3" d="M521.466 207.795H496.809V211.988H521.466V207.795Z" fill="url(#paint2_linear)"/>
<g opacity="0.4">
<path d="M483.706 176.426H482.409V226.411H483.706V176.426Z" fill="#F8F4EE"/>
<path opacity="0.01" d="M482.409 226.413V176.426H483.057L482.409 226.413Z" fill="#F8F4EE"/>
<path d="M484.198 175.308H481.919V177.936H484.198V175.308Z" fill="#F8F4EE"/>
<path d="M484.198 225.098H481.919V227.725H484.198V225.098Z" fill="#D8DEE8"/>
<path d="M501.542 176.426H500.245V226.411H501.542V176.426Z" fill="#F8F4EE"/>
<path opacity="0.01" d="M500.245 226.413V176.426H500.895L500.245 226.413Z" fill="#F8F4EE"/>
<path d="M502.034 175.308H499.755V177.936H502.034V175.308Z" fill="#F8F4EE"/>
<path d="M502.034 225.098H499.755V227.725H502.034V225.098Z" fill="#D8DEE8"/>
<path d="M510.461 176.426H509.164V226.411H510.461V176.426Z" fill="#F8F4EE"/>
<path opacity="0.01" d="M509.164 226.413V176.426H509.811L509.164 226.413Z" fill="#F8F4EE"/>
<path d="M510.952 175.308H508.673V177.936H510.952V175.308Z" fill="#F8F4EE"/>
<path d="M510.951 225.098H508.672V227.725H510.951V225.098Z" fill="#D8DEE8"/>
<path d="M492.624 176.426H491.327V226.411H492.624V176.426Z" fill="#F8F4EE"/>
<path opacity="0.01" d="M491.327 226.413V176.426H491.977L491.327 226.413Z" fill="#F8F4EE"/>
<path d="M493.117 175.308H490.838V177.936H493.117V175.308Z" fill="#F8F4EE"/>
<path d="M493.116 225.098H490.837V227.725H493.116V225.098Z" fill="#D8DEE8"/>
</g>
<path d="M578.877 175H524.005V228.346H578.877V175Z" fill="#CD9E64"/>
<path opacity="0.3" d="M525.681 226.668V176.676H577.198V226.668H525.681Z" fill="#F8F4EE"/>
<path d="M576.47 177.687H551.812V225.659H576.47V177.687Z" fill="#CD9E64"/>
<path d="M551.068 177.687H526.41V225.659H551.068V177.687Z" fill="#CD9E64"/>
<path opacity="0.3" d="M551.067 191.356H526.409V195.549H551.067V191.356Z" fill="#F8F4EE"/>
<path opacity="0.3" d="M551.067 207.795H526.409V211.988H551.067V207.795Z" fill="url(#paint3_linear)"/>
<path opacity="0.3" d="M576.47 191.356H551.812V195.549H576.47V191.356Z" fill="#F8F4EE"/>
<path opacity="0.3" d="M576.47 207.795H551.812V211.988H576.47V207.795Z" fill="url(#paint4_linear)"/>
<path d="M538.711 176.426H537.414V226.411H538.711V176.426Z" fill="#8F7A61"/>
<path d="M537.414 226.413V176.426H538.064L537.414 226.413Z" fill="#F8F4EE"/>
<path d="M539.204 175.308H536.925V177.936H539.204V175.308Z" fill="#8F7A61"/>
<path d="M539.203 225.098H536.924V227.725H539.203V225.098Z" fill="#D8DEE8"/>
<path d="M556.549 176.426H555.252V226.411H556.549V176.426Z" fill="#8F7A61"/>
<path d="M555.252 226.413V176.426H555.899L555.252 226.413Z" fill="#F8F4EE"/>
<path d="M557.039 175.308H554.76V177.936H557.039V175.308Z" fill="#8F7A61"/>
<path d="M557.039 225.098H554.76V227.725H557.039V225.098Z" fill="#D8DEE8"/>
<path d="M565.466 176.426H564.169V226.411H565.466V176.426Z" fill="#8F7A61"/>
<path d="M564.169 226.413V176.426H564.816L564.169 226.413Z" fill="#F8F4EE"/>
<path d="M565.957 175.308H563.678V177.936H565.957V175.308Z" fill="#8F7A61"/>
<path d="M565.956 225.098H563.677V227.725H565.956V225.098Z" fill="#D8DEE8"/>
<path d="M547.628 176.426H546.331V226.411H547.628V176.426Z" fill="#8F7A61"/>
<path d="M546.331 226.413V176.426H546.981L546.331 226.413Z" fill="#F8F4EE"/>
<path d="M548.121 175.308H545.842V177.936H548.121V175.308Z" fill="#8F7A61"/>
<path d="M548.12 225.098H545.841V227.725H548.12V225.098Z" fill="#D8DEE8"/>
<path d="M414.194 228.185H359.322V281.531H414.194V228.185Z" fill="#8F7A61"/>
<path opacity="0.3" d="M360.998 279.853V229.861H412.515V279.853H360.998Z" fill="#232323"/>
<path d="M411.789 230.872H387.131V278.844H411.789V230.872Z" fill="#8F7A61"/>
<path d="M386.386 230.872H361.729V278.844H386.386V230.872Z" fill="#8F7A61"/>
<path opacity="0.3" d="M386.386 244.541H361.729V248.734H386.386V244.541Z" fill="#F8F4EE"/>
<path opacity="0.3" d="M386.385 260.98H361.728V265.173H386.385V260.98Z" fill="url(#paint5_linear)"/>
<path opacity="0.3" d="M411.79 244.541H387.132V248.734H411.79V244.541Z" fill="#F8F4EE"/>
<path opacity="0.3" d="M411.789 260.98H387.131V265.173H411.789V260.98Z" fill="url(#paint6_linear)"/>
<g opacity="0.4">
<path d="M374.029 229.611H372.731V279.596H374.029V229.611Z" fill="#F8F4EE"/>
<path opacity="0.01" d="M372.731 279.598V229.611H373.379L372.731 279.598Z" fill="#F8F4EE"/>
<path d="M374.521 228.493H372.241V231.121H374.521V228.493Z" fill="#F8F4EE"/>
<path d="M374.521 278.283H372.241V280.91H374.521V278.283Z" fill="#D8DEE8"/>
<path d="M391.864 229.611H390.567V279.596H391.864V229.611Z" fill="#F8F4EE"/>
<path opacity="0.01" d="M390.567 279.598V229.611H391.217L390.567 279.598Z" fill="#F8F4EE"/>
<path d="M392.356 228.493H390.077V231.121H392.356V228.493Z" fill="#F8F4EE"/>
<path d="M392.356 278.283H390.077V280.91H392.356V278.283Z" fill="#D8DEE8"/>
<path d="M400.783 229.611H399.486V279.596H400.783V229.611Z" fill="#F8F4EE"/>
<path opacity="0.01" d="M399.486 279.598V229.611H400.134L399.486 279.598Z" fill="#F8F4EE"/>
<path d="M401.274 228.493H398.995V231.121H401.274V228.493Z" fill="#F8F4EE"/>
<path d="M401.273 278.283H398.994V280.91H401.273V278.283Z" fill="#D8DEE8"/>
<path d="M382.946 229.611H381.649V279.596H382.946V229.611Z" fill="#F8F4EE"/>
<path opacity="0.01" d="M381.649 279.598V229.611H382.299L381.649 279.598Z" fill="#F8F4EE"/>
<path d="M383.439 228.493H381.16V231.12H383.439V228.493Z" fill="#F8F4EE"/>
<path d="M383.438 278.283H381.159V280.91H383.438V278.283Z" fill="#D8DEE8"/>
</g>
<path d="M469.199 228.185H414.327V281.531H469.199V228.185Z" fill="#CD9E64"/>
<path opacity="0.3" d="M416.003 279.853V229.861H467.52V279.853H416.003Z" fill="#F8F4EE"/>
<path d="M466.793 230.872H442.135V278.844H466.793V230.872Z" fill="#CD9E64"/>
<path d="M441.39 230.872H416.732V278.844H441.39V230.872Z" fill="#CD9E64"/>
<path opacity="0.3" d="M441.389 244.541H416.731V248.734H441.389V244.541Z" fill="#F8F4EE"/>
<path opacity="0.3" d="M441.389 260.98H416.731V265.173H441.389V260.98Z" fill="url(#paint7_linear)"/>
<path opacity="0.3" d="M466.793 244.541H442.135V248.734H466.793V244.541Z" fill="#F8F4EE"/>
<path opacity="0.3" d="M466.793 260.98H442.135V265.173H466.793V260.98Z" fill="url(#paint8_linear)"/>
<path d="M429.033 229.611H427.736V279.596H429.033V229.611Z" fill="#8F7A61"/>
<path d="M427.736 279.598V229.611H428.386L427.736 279.598Z" fill="#F8F4EE"/>
<path d="M429.526 228.493H427.247V231.121H429.526V228.493Z" fill="#8F7A61"/>
<path d="M429.525 278.283H427.246V280.91H429.525V278.283Z" fill="#D8DEE8"/>
<path d="M446.871 229.611H445.574V279.596H446.871V229.611Z" fill="#8F7A61"/>
<path d="M445.574 279.598V229.611H446.222L445.574 279.598Z" fill="#F8F4EE"/>
<path d="M447.361 228.493H445.082V231.121H447.361V228.493Z" fill="#8F7A61"/>
<path d="M447.361 278.283H445.082V280.91H447.361V278.283Z" fill="#D8DEE8"/>
<path d="M455.788 229.611H454.491V279.596H455.788V229.611Z" fill="#8F7A61"/>
<path d="M454.491 279.598V229.611H455.139L454.491 279.598Z" fill="#F8F4EE"/>
<path d="M456.279 228.493H454V231.121H456.279V228.493Z" fill="#8F7A61"/>
<path d="M456.278 278.283H453.999V280.91H456.278V278.283Z" fill="#D8DEE8"/>
<path d="M437.95 229.611H436.653V279.596H437.95V229.611Z" fill="#8F7A61"/>
<path d="M436.653 279.598V229.611H437.303L436.653 279.598Z" fill="#F8F4EE"/>
<path d="M438.443 228.493H436.164V231.121H438.443V228.493Z" fill="#8F7A61"/>
<path d="M438.442 278.283H436.163V280.91H438.442V278.283Z" fill="#D8DEE8"/>
<path d="M468.705 174.522H359.034V227.868H468.705V174.522Z" fill="#232323"/>
<path opacity="0.6" d="M464.161 177.714H363.579V223.841H464.161V177.714Z" fill="#F8F4EE"/>
<path opacity="0.6" d="M374.654 177.714H370.009V223.841H374.654V177.714Z" fill="#8F7A61"/>
<path d="M374.838 177.714H371.74V223.841H374.838V177.714Z" fill="#232323"/>
<path opacity="0.6" d="M386.497 177.714H381.852V223.841H386.497V177.714Z" fill="#8F7A61"/>
<path d="M386.68 177.714H383.583V223.841H386.68V177.714Z" fill="#232323"/>
<path opacity="0.6" d="M398.338 177.714H393.693V223.841H398.338V177.714Z" fill="#8F7A61"/>
<path d="M398.52 177.714H395.423V223.841H398.52V177.714Z" fill="#232323"/>
<path opacity="0.6" d="M410.178 177.714H405.533V223.841H410.178V177.714Z" fill="#8F7A61"/>
<path d="M410.362 177.714H407.265V223.841H410.362V177.714Z" fill="#232323"/>
<path opacity="0.6" d="M422.021 177.714H417.376V223.841H422.021V177.714Z" fill="#8F7A61"/>
<path d="M422.205 177.714H419.107V223.841H422.205V177.714Z" fill="#232323"/>
<path opacity="0.6" d="M433.863 177.714H429.218V223.841H433.863V177.714Z" fill="#8F7A61"/>
<path d="M434.045 177.714H430.947V223.841H434.045V177.714Z" fill="#232323"/>
<path opacity="0.6" d="M445.703 177.714H441.058V223.841H445.703V177.714Z" fill="#8F7A61"/>
<path d="M445.887 177.714H442.789V223.841H445.887V177.714Z" fill="#232323"/>
<path opacity="0.6" d="M457.544 177.714H452.899V223.841H457.544V177.714Z" fill="#8F7A61"/>
<path d="M457.729 177.714H454.632V223.841H457.729V177.714Z" fill="#232323"/>
<path d="M359.289 281.704V174.065L359.058 174.255L357.469 175.588L339.203 190.876V281.704H359.289Z" fill="#232323"/>
<path d="M610.068 329.986H469V398.607H610.068V329.986Z" fill="#CD9E64"/>
<path opacity="0.3" d="M604.222 334.095H474.845V393.43H604.222V334.095Z" fill="#8F7A61"/>
<path opacity="0.6" d="M489.092 334.095H483.116V393.43H489.092V334.095Z" fill="#F8F4EE"/>
<path d="M489.327 334.095H485.343V393.43H489.327V334.095Z" fill="#CD9E64"/>
<path opacity="0.6" d="M504.324 334.095H498.349V393.43H504.324V334.095Z" fill="#F8F4EE"/>
<path d="M504.56 334.095H500.575V393.43H504.56V334.095Z" fill="#CD9E64"/>
<path opacity="0.6" d="M519.556 334.095H513.581V393.43H519.556V334.095Z" fill="#F8F4EE"/>
<path d="M519.791 334.095H515.807V393.43H519.791V334.095Z" fill="#CD9E64"/>
<path opacity="0.6" d="M534.787 334.095H528.812V393.43H534.787V334.095Z" fill="#F8F4EE"/>
<path d="M535.021 334.095H531.037V393.43H535.021V334.095Z" fill="#CD9E64"/>
<path opacity="0.6" d="M550.018 334.095H544.043V393.43H550.018V334.095Z" fill="#F8F4EE"/>
<path d="M550.254 334.095H546.27V393.43H550.254V334.095Z" fill="#CD9E64"/>
<path opacity="0.6" d="M565.251 334.095H559.275V393.43H565.251V334.095Z" fill="#F8F4EE"/>
<path d="M565.485 334.095H561.501V393.43H565.485V334.095Z" fill="#CD9E64"/>
<path opacity="0.6" d="M580.481 334.095H574.506V393.43H580.481V334.095Z" fill="#F8F4EE"/>
<path d="M580.716 334.095H576.731V393.43H580.716V334.095Z" fill="#CD9E64"/>
<path opacity="0.6" d="M595.714 334.095H589.738V393.43H595.714V334.095Z" fill="#F8F4EE"/>
<path d="M595.948 334.095H591.964V393.43H595.948V334.095Z" fill="#CD9E64"/>
<path d="M610.068 399H469V467.621H610.068V399Z" fill="#8F7A61"/>
<path opacity="0.6" d="M604.222 403.108H474.845V462.444H604.222V403.108Z" fill="#CD9E64"/>
<path opacity="0.6" d="M489.093 403.108H483.117V462.444H489.093V403.108Z" fill="#D8DEE8"/>
<path d="M489.329 403.108H485.345V462.443H489.329V403.108Z" fill="#8F7A61"/>
<path opacity="0.6" d="M504.324 403.108H498.349V462.443H504.324V403.108Z" fill="#D8DEE8"/>
<path d="M504.56 403.108H500.575V462.443H504.56V403.108Z" fill="#8F7A61"/>
<path opacity="0.6" d="M519.556 403.108H513.581V462.443H519.556V403.108Z" fill="#D8DEE8"/>
<path d="M519.792 403.108H515.808V462.443H519.792V403.108Z" fill="#8F7A61"/>
<path opacity="0.6" d="M534.789 403.108H528.813V462.443H534.789V403.108Z" fill="#D8DEE8"/>
<path d="M535.024 403.108H531.04V462.443H535.024V403.108Z" fill="#8F7A61"/>
<path opacity="0.6" d="M550.018 403.108H544.043V462.443H550.018V403.108Z" fill="#D8DEE8"/>
<path d="M550.254 403.108H546.27V462.443H550.254V403.108Z" fill="#8F7A61"/>
<path opacity="0.6" d="M565.251 403.108H559.275V462.443H565.251V403.108Z" fill="#D8DEE8"/>
<path d="M565.486 403.108H561.502V462.443H565.486V403.108Z" fill="#8F7A61"/>
<path opacity="0.6" d="M580.483 403.108H574.508V462.443H580.483V403.108Z" fill="#D8DEE8"/>
<path d="M580.719 403.108H576.734V462.443H580.719V403.108Z" fill="#8F7A61"/>
<path opacity="0.6" d="M595.714 403.108H589.738V462.443H595.714V403.108Z" fill="#D8DEE8"/>
<path d="M595.949 403.108H591.965V462.443H595.949V403.108Z" fill="#8F7A61"/>
<path d="M469.068 399H328V467.621H469.068V399Z" fill="#8F7A61"/>
<path opacity="0.6" d="M463.222 403.108H333.845V462.444H463.222V403.108Z" fill="#CD9E64"/>
<path opacity="0.6" d="M348.093 403.108H342.117V462.444H348.093V403.108Z" fill="#D8DEE8"/>
<path d="M348.329 403.108H344.345V462.443H348.329V403.108Z" fill="#8F7A61"/>
<path opacity="0.6" d="M363.324 403.108H357.349V462.443H363.324V403.108Z" fill="#D8DEE8"/>
<path d="M363.56 403.108H359.575V462.443H363.56V403.108Z" fill="#8F7A61"/>
<path opacity="0.6" d="M378.556 403.108H372.581V462.443H378.556V403.108Z" fill="#D8DEE8"/>
<path d="M378.792 403.108H374.808V462.443H378.792V403.108Z" fill="#8F7A61"/>
<path opacity="0.6" d="M393.789 403.108H387.813V462.443H393.789V403.108Z" fill="#D8DEE8"/>
<path d="M394.024 403.108H390.04V462.443H394.024V403.108Z" fill="#8F7A61"/>
<path opacity="0.6" d="M409.018 403.108H403.043V462.443H409.018V403.108Z" fill="#D8DEE8"/>
<path d="M409.254 403.108H405.27V462.443H409.254V403.108Z" fill="#8F7A61"/>
<path opacity="0.6" d="M424.251 403.108H418.275V462.443H424.251V403.108Z" fill="#D8DEE8"/>
<path d="M424.486 403.108H420.502V462.443H424.486V403.108Z" fill="#8F7A61"/>
<path opacity="0.6" d="M439.483 403.108H433.508V462.443H439.483V403.108Z" fill="#D8DEE8"/>
<path d="M439.719 403.108H435.734V462.443H439.719V403.108Z" fill="#8F7A61"/>
<path opacity="0.6" d="M454.714 403.108H448.738V462.443H454.714V403.108Z" fill="#D8DEE8"/>
<path d="M454.949 403.108H450.965V462.443H454.949V403.108Z" fill="#8F7A61"/>
<path d="M398.476 398.607H327.896V467.228H398.476V398.607Z" fill="url(#paint9_linear)"/>
<path opacity="0.3" d="M330.053 465.068V400.764H396.319V465.068H330.053Z" fill="url(#paint10_linear)"/>
<path d="M395.38 402.064H363.663V463.771H395.38V402.064Z" fill="url(#paint11_linear)"/>
<path d="M362.708 402.064H330.99V463.771H362.708V402.064Z" fill="url(#paint12_linear)"/>
<path opacity="0.3" d="M362.708 419.648H330.99V425.043H362.708V419.648Z" fill="url(#paint13_linear)"/>
<path opacity="0.3" d="M362.708 440.792H330.99V446.186H362.708V440.792Z" fill="url(#paint14_linear)"/>
<path opacity="0.3" d="M395.38 419.648H363.663V425.043H395.38V419.648Z" fill="url(#paint15_linear)"/>
<path opacity="0.3" d="M395.38 440.792H363.663V446.186H395.38V440.792Z" fill="url(#paint16_linear)"/>
<path d="M346.813 400.443H345.146V464.74H346.813V400.443Z" fill="#D8DEE8"/>
<path d="M345.146 464.74V400.443H345.979L345.146 464.74Z" fill="#97A6B7"/>
<path d="M347.445 399.004H344.514V402.385H347.445V399.004Z" fill="#D8DEE8"/>
<path d="M347.445 463.048H344.514V466.43H347.445V463.048Z" fill="#D8DEE8"/>
<path d="M369.754 400.443H368.087V464.74H369.754V400.443Z" fill="#D8DEE8"/>
<path d="M368.087 464.74V400.443H368.921L368.087 464.74Z" fill="#97A6B7"/>
<path d="M370.386 399.004H367.455V402.385H370.386V399.004Z" fill="#D8DEE8"/>
<path d="M370.386 463.048H367.455V466.43H370.386V463.048Z" fill="#D8DEE8"/>
<path d="M381.226 400.443H379.559V464.74H381.226V400.443Z" fill="#D8DEE8"/>
<path d="M379.559 464.74V400.443H380.392L379.559 464.74Z" fill="#97A6B7"/>
<path d="M381.859 399.004H378.928V402.385H381.859V399.004Z" fill="#D8DEE8"/>
<path d="M381.858 463.048H378.927V466.43H381.858V463.048Z" fill="#D8DEE8"/>
<path d="M358.283 400.443H356.615V464.74H358.283V400.443Z" fill="#D8DEE8"/>
<path d="M356.615 464.74V400.443H357.449L356.615 464.74Z" fill="#97A6B7"/>
<path d="M358.916 399.004H355.984V402.385H358.916V399.004Z" fill="#D8DEE8"/>
<path d="M358.915 463.048H355.983V466.43H358.915V463.048Z" fill="#D8DEE8"/>
<path d="M539.105 260.96H468.524V329.581H539.105V260.96Z" fill="#8F7A61"/>
<path opacity="0.3" d="M470.682 327.423V263.117H536.948V327.423H470.682Z" fill="#F8F4EE"/>
<path d="M536.01 264.416H504.293V326.124H536.01V264.416Z" fill="#CD9E64"/>
<path d="M503.336 264.416H471.619V326.124H503.336V264.416Z" fill="#CD9E64"/>
<path opacity="0.3" d="M503.337 282.001H471.62V287.396H503.337V282.001Z" fill="#F8F4EE"/>
<path opacity="0.3" d="M503.337 303.145H471.62V308.539H503.337V303.145Z" fill="#F8F4EE"/>
<path opacity="0.3" d="M536.009 282.001H504.292V287.396H536.009V282.001Z" fill="#F8F4EE"/>
<path opacity="0.3" d="M536.009 303.145H504.292V308.539H536.009V303.145Z" fill="#F8F4EE"/>
<path d="M487.441 262.796H485.773V327.093H487.441V262.796Z" fill="#8F7A61"/>
<path d="M485.773 327.093V262.796H486.607L485.773 327.093Z" fill="#F8F4EE"/>
<path d="M488.074 261.359H485.143V264.74H488.074V261.359Z" fill="#8F7A61"/>
<path d="M488.073 325.403H485.142V328.784H488.073V325.403Z" fill="#8F7A61"/>
<path d="M510.382 262.796H508.715V327.093H510.382V262.796Z" fill="#8F7A61"/>
<path d="M508.715 327.093V262.796H509.549L508.715 327.093Z" fill="#F8F4EE"/>
<path d="M511.014 261.359H508.083V264.74H511.014V261.359Z" fill="#8F7A61"/>
<path d="M511.014 325.403H508.083V328.784H511.014V325.403Z" fill="#8F7A61"/>
<path d="M521.855 262.796H520.188V327.093H521.855V262.796Z" fill="#8F7A61"/>
<path d="M520.188 327.093V262.796H521.021L520.188 327.093Z" fill="#F8F4EE"/>
<path d="M522.487 261.359H519.556V264.74H522.487V261.359Z" fill="#8F7A61"/>
<path d="M522.487 325.403H519.556V328.784H522.487V325.403Z" fill="#8F7A61"/>
<path d="M498.911 262.796H497.243V327.093H498.911V262.796Z" fill="#8F7A61"/>
<path d="M497.243 327.093V262.796H498.077L497.243 327.093Z" fill="#F8F4EE"/>
<path d="M499.543 261.359H496.612V264.74H499.543V261.359Z" fill="#8F7A61"/>
<path d="M499.542 325.403H496.611V328.784H499.542V325.403Z" fill="#8F7A61"/>
<path d="M398.581 330H328V398.621H398.581V330Z" fill="#8F7A61"/>
<path opacity="0.3" d="M330.157 396.463V332.157H396.423V396.463H330.157Z" fill="#F8F4EE"/>
<path d="M395.486 333.457H363.769V395.164H395.486V333.457Z" fill="#CD9E64"/>
<path d="M362.812 333.457H331.095V395.164H362.812V333.457Z" fill="#CD9E64"/>
<path opacity="0.3" d="M362.813 351.041H331.096V356.436H362.813V351.041Z" fill="#F8F4EE"/>
<path opacity="0.3" d="M362.813 372.185H331.096V377.579H362.813V372.185Z" fill="#F8F4EE"/>
<path opacity="0.3" d="M395.485 351.041H363.768V356.436H395.485V351.041Z" fill="#F8F4EE"/>
<path opacity="0.3" d="M395.485 372.185H363.768V377.579H395.485V372.185Z" fill="#F8F4EE"/>
<path d="M346.916 331.836H345.249V396.133H346.916V331.836Z" fill="#8F7A61"/>
<path d="M345.249 396.133V331.836H346.083L345.249 396.133Z" fill="#F8F4EE"/>
<path d="M347.549 330.399H344.618V333.781H347.549V330.399Z" fill="#8F7A61"/>
<path d="M347.548 394.443H344.617V397.825H347.548V394.443Z" fill="#8F7A61"/>
<path d="M369.858 331.836H368.19V396.133H369.858V331.836Z" fill="#8F7A61"/>
<path d="M368.19 396.133V331.836H369.024L368.19 396.133Z" fill="#F8F4EE"/>
<path d="M370.49 330.399H367.559V333.78H370.49V330.399Z" fill="#8F7A61"/>
<path d="M370.49 394.443H367.559V397.825H370.49V394.443Z" fill="#8F7A61"/>
<path d="M381.33 331.836H379.663V396.133H381.33V331.836Z" fill="#8F7A61"/>
<path d="M379.663 396.133V331.836H380.497L379.663 396.133Z" fill="#F8F4EE"/>
<path d="M381.962 330.399H379.031V333.78H381.962V330.399Z" fill="#8F7A61"/>
<path d="M381.962 394.443H379.031V397.825H381.962V394.443Z" fill="#8F7A61"/>
<path d="M358.386 331.836H356.719V396.133H358.386V331.836Z" fill="#8F7A61"/>
<path d="M356.719 396.133V331.836H357.552L356.719 396.133Z" fill="#F8F4EE"/>
<path d="M359.019 330.399H356.088V333.78H359.019V330.399Z" fill="#8F7A61"/>
<path d="M359.018 394.443H356.087V397.825H359.018V394.443Z" fill="#8F7A61"/>
<path d="M609.581 260.96H539V329.581H609.581V260.96Z" fill="#8F7A61"/>
<path opacity="0.3" d="M541.157 327.423V263.117H607.423V327.423H541.157Z" fill="#F8F4EE"/>
<path d="M606.486 264.416H574.769V326.124H606.486V264.416Z" fill="#CD9E64"/>
<path d="M573.812 264.416H542.095V326.124H573.812V264.416Z" fill="#CD9E64"/>
<path opacity="0.3" d="M573.813 282.001H542.096V287.396H573.813V282.001Z" fill="#F8F4EE"/>
<path opacity="0.3" d="M573.813 303.145H542.096V308.539H573.813V303.145Z" fill="#F8F4EE"/>
<path opacity="0.3" d="M606.485 282.001H574.768V287.396H606.485V282.001Z" fill="#F8F4EE"/>
<path opacity="0.3" d="M606.485 303.145H574.768V308.539H606.485V303.145Z" fill="#F8F4EE"/>
<path d="M557.916 262.796H556.249V327.093H557.916V262.796Z" fill="#8F7A61"/>
<path d="M556.249 327.093V262.796H557.083L556.249 327.093Z" fill="#F8F4EE"/>
<path d="M558.549 261.359H555.618V264.74H558.549V261.359Z" fill="#8F7A61"/>
<path d="M558.548 325.403H555.617V328.784H558.548V325.403Z" fill="#8F7A61"/>
<path d="M580.858 262.796H579.19V327.093H580.858V262.796Z" fill="#8F7A61"/>
<path d="M579.19 327.093V262.796H580.024L579.19 327.093Z" fill="#F8F4EE"/>
<path d="M581.49 261.359H578.559V264.74H581.49V261.359Z" fill="#8F7A61"/>
<path d="M581.49 325.403H578.559V328.784H581.49V325.403Z" fill="#8F7A61"/>
<path d="M592.33 262.796H590.663V327.093H592.33V262.796Z" fill="#8F7A61"/>
<path d="M590.663 327.093V262.796H591.497L590.663 327.093Z" fill="#F8F4EE"/>
<path d="M592.962 261.359H590.031V264.74H592.962V261.359Z" fill="#8F7A61"/>
<path d="M592.962 325.403H590.031V328.784H592.962V325.403Z" fill="#8F7A61"/>
<path d="M569.386 262.796H567.719V327.093H569.386V262.796Z" fill="#8F7A61"/>
<path d="M567.719 327.093V262.796H568.552L567.719 327.093Z" fill="#F8F4EE"/>
<path d="M570.019 261.359H567.088V264.74H570.019V261.359Z" fill="#8F7A61"/>
<path d="M570.018 325.403H567.087V328.784H570.018V325.403Z" fill="#8F7A61"/>
<path d="M469.056 330H398.476V398.621H469.056V330Z" fill="#8F7A61"/>
<path opacity="0.3" d="M400.633 396.463V332.157H466.899V396.463H400.633Z" fill="#F8F4EE"/>
<path d="M465.961 333.457H434.244V395.164H465.961V333.457Z" fill="#CD9E64"/>
<path d="M433.288 333.457H401.57V395.164H433.288V333.457Z" fill="#CD9E64"/>
<path opacity="0.3" d="M433.289 351.041H401.571V356.436H433.289V351.041Z" fill="#F8F4EE"/>
<path opacity="0.3" d="M433.289 372.185H401.571V377.579H433.289V372.185Z" fill="#F8F4EE"/>
<path opacity="0.3" d="M465.961 351.041H434.243V356.436H465.961V351.041Z" fill="#F8F4EE"/>
<path opacity="0.3" d="M465.961 372.185H434.243V377.579H465.961V372.185Z" fill="#F8F4EE"/>
<path d="M417.392 331.836H415.725V396.133H417.392V331.836Z" fill="#8F7A61"/>
<path d="M415.725 396.133V331.836H416.558L415.725 396.133Z" fill="#F8F4EE"/>
<path d="M418.025 330.399H415.094V333.781H418.025V330.399Z" fill="#8F7A61"/>
<path d="M418.024 394.443H415.093V397.825H418.024V394.443Z" fill="#8F7A61"/>
<path d="M440.333 331.836H438.666V396.133H440.333V331.836Z" fill="#8F7A61"/>
<path d="M438.666 396.133V331.836H439.5L438.666 396.133Z" fill="#F8F4EE"/>
<path d="M440.965 330.399H438.034V333.78H440.965V330.399Z" fill="#8F7A61"/>
<path d="M440.965 394.443H438.034V397.825H440.965V394.443Z" fill="#8F7A61"/>
<path d="M451.806 331.836H450.139V396.133H451.806V331.836Z" fill="#8F7A61"/>
<path d="M450.139 396.133V331.836H450.972L450.139 396.133Z" fill="#F8F4EE"/>
<path d="M452.438 330.399H449.507V333.78H452.438V330.399Z" fill="#8F7A61"/>
<path d="M452.438 394.443H449.507V397.825H452.438V394.443Z" fill="#8F7A61"/>
<path d="M428.862 331.836H427.194V396.133H428.862V331.836Z" fill="#8F7A61"/>
<path d="M427.194 396.133V331.836H428.028L427.194 396.133Z" fill="#F8F4EE"/>
<path d="M429.495 330.399H426.563V333.78H429.495V330.399Z" fill="#8F7A61"/>
<path d="M429.494 394.443H426.562V397.825H429.494V394.443Z" fill="#8F7A61"/>
<path d="M468.524 260.96H327.456V329.581H468.524V260.96Z" fill="#8F7A61"/>
<path opacity="0.6" d="M462.678 265.068H333.301V324.403H462.678V265.068Z" fill="#CD9E64"/>
<path opacity="0.6" d="M347.549 265.068H341.573V324.403H347.549V265.068Z" fill="#D8DEE8"/>
<path d="M347.785 265.068H343.801V324.403H347.785V265.068Z" fill="#8F7A61"/>
<path opacity="0.6" d="M362.78 265.068H356.805V324.403H362.78V265.068Z" fill="#D8DEE8"/>
<path d="M363.016 265.068H359.031V324.403H363.016V265.068Z" fill="#8F7A61"/>
<path opacity="0.6" d="M378.013 265.068H372.037V324.403H378.013V265.068Z" fill="#D8DEE8"/>
<path d="M378.248 265.068H374.264V324.403H378.248V265.068Z" fill="#8F7A61"/>
<path opacity="0.6" d="M393.245 265.068H387.27V324.403H393.245V265.068Z" fill="#D8DEE8"/>
<path d="M393.48 265.068H389.496V324.403H393.48V265.068Z" fill="#8F7A61"/>
<path opacity="0.6" d="M408.474 265.068H402.499V324.403H408.474V265.068Z" fill="#D8DEE8"/>
<path d="M408.71 265.068H404.726V324.403H408.71V265.068Z" fill="#8F7A61"/>
<path opacity="0.6" d="M423.707 265.068H417.731V324.403H423.707V265.068Z" fill="#D8DEE8"/>
<path d="M423.942 265.068H419.958V324.403H423.942V265.068Z" fill="#8F7A61"/>
<path opacity="0.6" d="M438.939 265.068H432.964V324.403H438.939V265.068Z" fill="#D8DEE8"/>
<path d="M439.175 265.068H435.19V324.403H439.175V265.068Z" fill="#8F7A61"/>
<path opacity="0.6" d="M454.17 265.068H448.194V324.403H454.17V265.068Z" fill="#D8DEE8"/>
<path d="M454.405 265.068H450.421V324.403H454.405V265.068Z" fill="#8F7A61"/>
<path d="M327.782 260.374V467.529L301.949 460.629V281.997L325.443 262.332L327.487 260.618L327.782 260.374Z" fill="#8F7A61"/>
</g>
<path d="M463.096 517.406L30.4365 548.25V237.513L463.808 364.243L463.096 517.406Z" fill="#F8F4EE"/>
<path d="M168.762 538.243L60.1533 546.101L60.2864 356.28L169.298 373.533L168.762 538.243Z" fill="white"/>
<path opacity="0.6" d="M175.12 370.087L53.3174 350.059L53.344 298.245L175.271 325.905L175.12 370.087Z" fill="#8F7A61"/>
<path d="M175.107 373.914L53.3154 354.547L53.3287 329.022L175.181 352.148L175.107 373.914Z" fill="white"/>
<path opacity="0.2" d="M175.132 366.954L53.3203 346.385L53.3225 342.379L175.143 363.537L175.132 366.954Z" fill="#8F7A61"/>
<path opacity="0.2" d="M175.156 359.349L53.3242 337.467L53.3264 333.461L175.169 355.93L175.156 359.349Z" fill="#8F7A61"/>
<path opacity="0.6" d="M166.172 538.43L63.5635 545.853L63.712 356.821L166.7 373.12L166.172 538.43Z" fill="#8F7A61"/>
<path d="M270.678 530.869L192.532 536.523L193.14 377.304L271.474 389.703L270.678 530.869Z" fill="white"/>
<path opacity="0.6" d="M275.766 386.634L188.259 372.247L188.421 328.887L275.985 348.753L275.766 386.634Z" fill="#8F7A61"/>
<path d="M275.747 389.918L188.244 376.003L188.324 354.642L275.853 371.251L275.747 389.918Z" fill="white"/>
<path opacity="0.2" d="M275.78 383.949L188.271 369.171L188.282 365.819L275.797 381.018L275.78 383.949Z" fill="#8F7A61"/>
<path opacity="0.2" d="M275.818 377.428L188.298 361.708L188.311 358.356L275.836 374.497L275.818 377.428Z" fill="#8F7A61"/>
<path opacity="0.6" d="M268.773 531.006L194.936 536.35L195.55 377.685L269.567 389.401L268.773 531.006Z" fill="#8F7A61"/>
<path d="M360.217 524.565L293.433 529.397L293.951 393.324L360.898 403.92L360.217 524.565Z" fill="white"/>
<path opacity="0.6" d="M364.565 401.299L289.78 389.002L289.918 351.946L364.751 368.923L364.565 401.299Z" fill="#8F7A61"/>
<path d="M364.55 404.104L289.77 392.213L289.836 373.954L364.643 388.151L364.55 404.104Z" fill="white"/>
<path opacity="0.2" d="M364.578 399.002L289.789 386.375L289.8 383.508L364.594 396.499L364.578 399.002Z" fill="#8F7A61"/>
<path opacity="0.2" d="M364.611 393.43L289.813 379.996L289.825 377.129L364.625 390.924L364.611 393.43Z" fill="#8F7A61"/>
<path opacity="0.6" d="M358.592 524.683L295.487 529.248L296.011 393.649L359.268 403.662L358.592 524.683Z" fill="#8F7A61"/>
<path d="M436.865 519.299L379.487 523.45L379.933 406.549L437.45 415.651L436.865 519.299Z" fill="white"/>
<path opacity="0.6" d="M440.6 413.398L376.35 402.835L376.467 371.001L440.76 385.585L440.6 413.398Z" fill="#8F7A61"/>
<path d="M440.585 415.808L376.341 405.594L376.398 389.909L440.665 402.104L440.585 415.808Z" fill="white"/>
<path opacity="0.2" d="M440.611 411.427L376.358 400.578L376.367 398.115L440.622 409.276L440.611 411.427Z" fill="#8F7A61"/>
<path opacity="0.2" d="M440.637 406.638L376.378 395.097L376.387 392.636L440.651 404.487L440.637 406.638Z" fill="#8F7A61"/>
<path opacity="0.6" d="M435.467 519.399L381.252 523.321L381.702 406.829L436.048 415.429L435.467 519.399Z" fill="#8F7A61"/>
<path opacity="0.3" d="M30.4358 237.513L0 238.577V545.436L30.4358 548.238V237.513Z" fill="#8F7A61"/>
<path d="M313.553 517.761V528.74C313.553 529.762 314.327 530.618 315.342 530.72L427.766 541.374L442.899 551.389L463.794 523.592L313.553 517.761Z" fill="#232323"/>
<path d="M399.727 532.851V542.68C399.727 543.505 400.325 544.205 401.139 544.336L428.129 548.673L427.344 532.829L401.511 531.177C400.545 531.115 399.727 531.884 399.727 532.851Z" fill="#8F7A61"/>
<path d="M324.942 522.827C324.851 522.827 324.76 522.834 324.669 522.845L323.241 522.827L323.25 523.454C321.866 524.536 320.906 526.9 320.906 529.645C320.906 532.499 321.944 534.94 323.414 535.957L323.421 536.463H324.939C327.168 536.463 328.972 533.41 328.972 529.645C328.975 525.878 327.17 522.827 324.942 522.827Z" fill="url(#paint17_linear)"/>
<path d="M323.244 536.463C325.472 536.463 327.277 533.41 327.277 529.645C327.277 525.879 325.472 522.827 323.244 522.827C321.017 522.827 319.211 525.879 319.211 529.645C319.211 533.41 321.017 536.463 323.244 536.463Z" fill="url(#paint18_linear)"/>
<path d="M324.942 529.645C324.942 531.76 323.927 533.476 322.676 533.476C321.426 533.476 320.41 531.762 320.41 529.645C320.41 527.528 321.426 525.814 322.676 525.814C323.927 525.814 324.942 527.53 324.942 529.645Z" fill="#D8DEE8"/>
<path d="M323.02 533.201C324.082 533.201 324.942 531.609 324.942 529.645C324.942 527.681 324.082 526.089 323.02 526.089C321.958 526.089 321.098 527.681 321.098 529.645C321.098 531.609 321.958 533.201 323.02 533.201Z" fill="url(#paint19_linear)"/>
<path d="M334.475 523.594C334.375 523.594 334.275 523.601 334.177 523.612L332.614 523.594L332.623 524.281C331.109 525.465 330.056 528.055 330.056 531.064C330.056 534.19 331.191 536.866 332.803 537.979L332.809 538.534H334.472C336.914 538.534 338.891 535.19 338.891 531.064C338.893 526.938 336.916 523.594 334.475 523.594Z" fill="url(#paint20_linear)"/>
<path d="M332.612 538.534C335.053 538.534 337.031 535.19 337.031 531.064C337.031 526.939 335.053 523.594 332.612 523.594C330.172 523.594 328.193 526.939 328.193 531.064C328.193 535.19 330.172 538.534 332.612 538.534Z" fill="url(#paint21_linear)"/>
<path d="M331.992 535.261C333.364 535.261 334.475 533.382 334.475 531.064C334.475 528.746 333.364 526.867 331.992 526.867C330.621 526.867 329.509 528.746 329.509 531.064C329.509 533.382 330.621 535.261 331.992 535.261Z" fill="#D8DEE8"/>
<path d="M332.368 534.96C333.531 534.96 334.474 533.216 334.474 531.064C334.474 528.912 333.531 527.168 332.368 527.168C331.205 527.168 330.262 528.912 330.262 531.064C330.262 533.216 331.205 534.96 332.368 534.96Z" fill="url(#paint22_linear)"/>
<path d="M344.65 523.594C344.541 523.594 344.433 523.603 344.324 523.614L342.617 523.594L342.628 524.346C340.974 525.638 339.825 528.468 339.825 531.751C339.825 535.164 341.065 538.086 342.825 539.303L342.834 539.908H344.65C347.315 539.908 349.475 536.257 349.475 531.751C349.475 527.246 347.313 523.594 344.65 523.594Z" fill="url(#paint23_linear)"/>
<path d="M342.617 539.906C345.281 539.906 347.441 536.254 347.441 531.749C347.441 527.244 345.281 523.592 342.617 523.592C339.952 523.592 337.792 527.244 337.792 531.749C337.792 536.254 339.952 539.906 342.617 539.906Z" fill="url(#paint24_linear)"/>
<path d="M341.938 536.332C343.436 536.332 344.65 534.28 344.65 531.749C344.65 529.218 343.436 527.166 341.938 527.166C340.441 527.166 339.227 529.218 339.227 531.749C339.227 534.28 340.441 536.332 341.938 536.332Z" fill="#D8DEE8"/>
<path d="M344.65 531.749C344.65 534.099 343.619 536.004 342.348 536.004C341.078 536.004 340.047 534.099 340.047 531.749C340.047 529.399 341.078 527.494 342.348 527.494C343.619 527.494 344.65 529.401 344.65 531.749Z" fill="url(#paint25_linear)"/>
<path d="M391.56 527.847C391.42 527.847 391.283 527.858 391.145 527.873L388.966 527.847L388.979 528.807C386.868 530.459 385.4 534.068 385.4 538.261C385.4 542.618 386.983 546.347 389.232 547.901L389.243 548.675H391.562C394.963 548.675 397.721 544.012 397.721 538.263C397.721 532.51 394.963 527.847 391.56 527.847Z" fill="url(#paint26_linear)"/>
<path d="M388.965 548.674C392.367 548.674 395.125 544.012 395.125 538.262C395.125 532.511 392.367 527.85 388.965 527.85C385.563 527.85 382.806 532.511 382.806 538.262C382.806 544.012 385.563 548.674 388.965 548.674Z" fill="url(#paint27_linear)"/>
<path d="M388.101 544.11C390.012 544.11 391.562 541.491 391.562 538.261C391.562 535.031 390.012 532.412 388.101 532.412C386.189 532.412 384.64 535.031 384.64 538.261C384.64 541.491 386.189 544.11 388.101 544.11Z" fill="#D8DEE8"/>
<path d="M388.624 543.691C390.247 543.691 391.562 541.26 391.562 538.261C391.562 535.262 390.247 532.831 388.624 532.831C387.002 532.831 385.687 535.262 385.687 538.261C385.687 541.26 387.002 543.691 388.624 543.691Z" fill="url(#paint28_linear)"/>
<path d="M432.551 529.494C432.371 529.494 432.196 529.507 432.021 529.527L429.236 529.494L429.251 530.72C426.553 532.829 424.682 537.443 424.682 542.797C424.682 548.363 426.704 553.128 429.575 555.112L429.588 556.099H432.551C436.896 556.099 440.419 550.143 440.419 542.797C440.419 535.45 436.896 529.494 432.551 529.494Z" fill="black"/>
<path d="M429.236 556.099C433.582 556.099 437.105 550.142 437.105 542.795C437.105 535.448 433.582 529.492 429.236 529.492C424.89 529.492 421.367 535.448 421.367 542.795C421.367 550.142 424.89 556.099 429.236 556.099Z" fill="#232323"/>
<path d="M428.129 550.27C430.571 550.27 432.55 546.923 432.55 542.795C432.55 538.667 430.571 535.321 428.129 535.321C425.687 535.321 423.708 538.667 423.708 542.795C423.708 546.923 425.687 550.27 428.129 550.27Z" fill="#D8DEE8"/>
<path d="M428.799 549.733C430.871 549.733 432.551 546.627 432.551 542.795C432.551 538.964 430.871 535.858 428.799 535.858C426.727 535.858 425.048 538.964 425.048 542.795C425.048 546.627 426.727 549.733 428.799 549.733Z" fill="#F8F4EE"/>
<path opacity="0.95" d="M306.866 459.31C305.394 459.554 304.314 460.829 304.314 462.321V517.982C304.314 519.601 305.578 520.94 307.197 521.029L411.816 526.867V441.861L306.866 459.31Z" fill="#8F7A61"/>
<path opacity="0.95" d="M470.813 443.847L411.815 441.863V526.869H473.984V447.129C473.986 445.357 472.583 443.905 470.813 443.847Z" fill="#CD9E64"/>
<path opacity="0.3" d="M389.712 505.499C376.278 499.311 363.666 508.756 351.374 499.628C340.609 491.635 344.079 479.786 335.485 465.78C333.519 462.574 330.882 459.206 327.282 455.918L306.865 459.312C305.393 459.556 304.313 460.831 304.313 462.323V517.985C304.313 519.603 305.577 520.942 307.196 521.031L406.419 526.567C401.867 514.109 395.678 508.249 389.712 505.499Z" fill="url(#paint29_linear)"/>
<path d="M505.416 499.972L501.054 489.006L500.926 479.939L505.331 479.059C505.759 478.973 506.028 478.551 505.923 478.128C505.258 475.454 502.819 466.623 499.028 463.707C496.354 461.652 445.666 461.035 445.666 461.035L421.27 462.621C419.354 462.745 417.864 464.337 417.864 466.257V520.317C417.864 521.736 418.948 522.918 420.363 523.042L437.11 524.494L440.424 527.847C440.424 527.847 487.891 531.647 506.832 528.193C507.815 528.013 508.529 527.166 508.529 526.168V502.391C508.524 498.936 505.416 499.972 505.416 499.972Z" fill="#232323"/>
<path opacity="0.8" d="M453.954 503.253C453.954 503.253 453.435 479.766 453.954 470.097C454.205 465.405 451.855 462.669 449.369 461.091C447.05 461.053 445.664 461.037 445.664 461.037L421.268 462.623C419.352 462.747 417.862 464.339 417.862 466.259V520.319C417.862 521.738 418.947 522.92 420.361 523.044L437.108 524.497L440.423 527.849C440.423 527.849 448.238 528.474 458.79 528.989V508.956L453.954 503.253Z" fill="url(#paint30_linear)"/>
<path d="M507.983 532.408L506.105 531.751V527.947C506.105 526.92 505.273 526.089 504.247 526.089H445.466C444.047 526.089 442.898 527.237 442.898 528.656V551.389C442.898 552.64 443.938 553.64 445.187 553.593L508.129 551.172C509.313 551.125 510.249 550.154 510.249 548.968V535.603C510.251 534.164 509.342 532.882 507.983 532.408Z" fill="black"/>
<path d="M500.822 512.874H465.969C464.796 512.874 463.867 513.869 463.949 515.04L465.869 542.405C465.965 543.78 467.133 544.831 468.51 544.784L498.454 543.771C499.762 543.727 500.826 542.702 500.922 541.398L502.842 515.047C502.926 513.872 501.997 512.874 500.822 512.874Z" fill="#CD9E64"/>
<g opacity="0.3">
<path opacity="0.3" d="M507.983 532.408L506.105 531.751V527.947C506.105 527.135 505.584 526.45 504.861 526.195L501.284 543.015C500.859 545.017 499.127 546.476 497.081 546.556L469.609 547.624C467.64 547.702 465.853 546.48 465.208 544.618L458.787 526.091H445.466C444.047 526.091 442.898 527.239 442.898 528.658V551.391C442.898 552.642 443.938 553.642 445.187 553.593L508.129 551.172C509.313 551.125 510.249 550.154 510.249 548.968V535.603C510.251 534.164 509.342 532.882 507.983 532.408Z" fill="#232323"/>
</g>
<path d="M461.725 546.081L455.189 546.407C451.131 546.611 447.644 543.556 447.309 539.507L447.045 536.33H460.131C461.011 536.33 461.725 537.044 461.725 537.924V546.081Z" fill="#CD9E64"/>
<path d="M503.888 537.678L502.844 544.786C502.844 544.786 509.735 544.545 509.562 535.86L505.285 536.33C504.569 536.407 503.994 536.962 503.888 537.678Z" fill="#CD9E64"/>
<path d="M455.446 503.559C454.388 503.559 453.337 503.218 452.484 502.59L449.794 500.622C448.757 499.861 448.136 498.639 448.136 497.353V481.698C448.136 480.935 448.471 480.216 449.054 479.726C449.637 479.236 450.402 479.028 451.151 479.159L453.787 479.613L501.192 479.609L505.755 499.972L505.214 502.679L504.945 502.684L455.535 503.562C455.506 503.559 455.477 503.559 455.446 503.559ZM450.712 479.786C450.267 479.786 449.83 479.944 449.484 480.236C449.051 480.6 448.803 481.132 448.803 481.698V497.353C448.803 498.429 449.322 499.449 450.189 500.083L452.878 502.052C453.641 502.61 454.57 502.919 455.526 502.892L504.668 502.018L505.076 499.976L500.66 480.274H453.732L451.04 479.815C450.929 479.795 450.821 479.786 450.712 479.786Z" fill="#808080"/>
<path d="M500.926 479.941H453.732L451.096 479.487C449.723 479.25 448.471 480.307 448.471 481.698V497.353C448.471 498.537 449.036 499.653 449.992 500.353L452.681 502.322C453.506 502.927 454.508 503.244 455.53 503.227L504.941 502.349L505.416 499.974L500.926 479.941Z" fill="#8F7A61"/>
<path d="M471.591 474.5H467.576C466.968 474.5 466.474 474.993 466.474 475.602V477.285C466.474 477.893 466.966 478.387 467.576 478.387H471.591C472.199 478.387 472.693 477.895 472.693 477.285V475.602C472.691 474.993 472.199 474.5 471.591 474.5Z" fill="#97A6B7"/>
<path d="M495.161 474.5H491.146C490.538 474.5 490.044 474.993 490.044 475.602V477.285C490.044 477.893 490.536 478.387 491.146 478.387H495.161C495.769 478.387 496.263 477.895 496.263 477.285V475.602C496.263 474.993 495.771 474.5 495.161 474.5Z" fill="#97A6B7"/>
<path opacity="0.3" d="M486.161 491.079C473.982 486.42 462.526 492.227 457.277 485.897C455.858 484.185 455.286 482.057 455.153 479.939H453.732L451.096 479.485C449.723 479.248 448.471 480.305 448.471 481.695V497.351C448.471 498.537 449.036 499.65 449.992 500.351L452.681 502.32C453.506 502.925 454.508 503.242 455.53 503.225L500.289 502.429C495.23 495.611 490.09 492.582 486.161 491.079Z" fill="white"/>
<path d="M63.7705 508.932V518.683L108.008 522.876L117.653 529.259L130.974 511.541L63.7705 508.932Z" fill="#232323"/>
<path d="M90.1328 517.441V523.705C90.1328 524.23 90.5142 524.678 91.033 524.76L108.239 527.525L107.738 517.426L91.2702 516.373C90.6539 516.335 90.1328 516.825 90.1328 517.441Z" fill="#8F7A61"/>
<path d="M84.9267 514.253C84.838 514.253 84.7493 514.26 84.6629 514.271L83.2727 514.253L83.2815 514.865C81.9357 515.918 81 518.22 81 520.891C81 523.669 82.0088 526.046 83.4412 527.035L83.4478 527.527H84.9267C87.0951 527.527 88.8534 524.556 88.8534 520.891C88.8534 517.224 87.0951 514.253 84.9267 514.253Z" fill="black"/>
<path d="M83.2734 527.525C85.442 527.525 87.2001 524.554 87.2001 520.889C87.2001 517.224 85.442 514.253 83.2734 514.253C81.1047 514.253 79.3467 517.224 79.3467 520.889C79.3467 524.554 81.1047 527.525 83.2734 527.525Z" fill="#232323"/>
<path d="M82.7208 524.618C83.9392 524.618 84.9269 522.949 84.9269 520.889C84.9269 518.829 83.9392 517.16 82.7208 517.16C81.5024 517.16 80.5146 518.829 80.5146 520.889C80.5146 522.949 81.5024 524.618 82.7208 524.618Z" fill="#D8DEE8"/>
<path d="M84.9263 520.889C84.9263 522.8 84.0882 524.35 83.0549 524.35C82.0217 524.35 81.1836 522.8 81.1836 520.889C81.1836 518.978 82.0217 517.428 83.0549 517.428C84.0882 517.428 84.9263 518.978 84.9263 520.889Z" fill="#F8F4EE"/>
<path d="M111.056 515.302C110.943 515.302 110.83 515.31 110.719 515.324L108.943 515.302L108.954 516.082C107.234 517.426 106.041 520.368 106.041 523.78C106.041 527.328 107.331 530.365 109.161 531.631L109.17 532.261H111.059C113.828 532.261 116.074 528.465 116.074 523.782C116.072 519.097 113.826 515.302 111.056 515.302Z" fill="black"/>
<path d="M108.944 532.259C111.714 532.259 113.959 528.463 113.959 523.78C113.959 519.098 111.714 515.302 108.944 515.302C106.174 515.302 103.929 519.098 103.929 523.78C103.929 528.463 106.174 532.259 108.944 532.259Z" fill="#232323"/>
<path d="M111.057 523.78C111.057 526.412 109.795 528.545 108.239 528.545C106.682 528.545 105.421 526.412 105.421 523.78C105.421 521.148 106.682 519.015 108.239 519.015C109.795 519.018 111.057 521.151 111.057 523.78Z" fill="#D8DEE8"/>
<path d="M108.665 528.204C109.986 528.204 111.057 526.223 111.057 523.78C111.057 521.337 109.986 519.357 108.665 519.357C107.344 519.357 106.272 521.337 106.272 523.78C106.272 526.223 107.344 528.204 108.665 528.204Z" fill="#F8F4EE"/>
<path d="M63.7705 465.106V511.725L97.8403 513.628V459.441L63.7705 465.106Z" fill="#CD9E64"/>
<path d="M135.447 460.707L97.8408 459.441V513.625H137.469V462.796C137.469 461.669 136.576 460.745 135.447 460.707Z" fill="#CD9E64"/>
<path d="M157.504 496.484L154.724 489.493L154.642 483.713L157.449 483.152C157.721 483.097 157.892 482.828 157.825 482.558C157.402 480.853 155.848 475.225 153.431 473.365C151.726 472.055 119.417 471.662 119.417 471.662L103.865 472.673C102.643 472.753 101.694 473.766 101.694 474.99V509.45C101.694 510.355 102.386 511.109 103.286 511.187L113.962 512.113L116.075 514.251C116.075 514.251 146.331 516.674 158.406 514.472C159.032 514.359 159.486 513.818 159.486 513.182V498.025C159.486 495.823 157.504 496.484 157.504 496.484Z" fill="black"/>
<path opacity="0.8" d="M124.7 498.575C124.7 498.575 124.37 483.604 124.7 477.44C124.86 474.449 123.363 472.704 121.778 471.7C120.301 471.676 119.417 471.665 119.417 471.665L103.865 472.676C102.643 472.755 101.694 473.769 101.694 474.993V509.453C101.694 510.357 102.386 511.111 103.286 511.189L113.962 512.116L116.075 514.253C116.075 514.253 121.057 514.652 127.784 514.978V502.209L124.7 498.575Z" fill="#232323"/>
<path d="M159.14 517.157L157.942 516.738V514.313C157.942 513.659 157.413 513.129 156.758 513.129H119.29C118.385 513.129 117.653 513.86 117.653 514.765V529.257C117.653 530.055 118.316 530.691 119.112 530.66L159.233 529.117C159.987 529.088 160.583 528.467 160.583 527.714V519.193C160.585 518.279 160.007 517.461 159.14 517.157Z" fill="black"/>
<path d="M154.574 504.708H132.358C131.61 504.708 131.018 505.342 131.072 506.089L132.296 523.532C132.358 524.408 133.1 525.08 133.978 525.049L153.067 524.401C153.9 524.372 154.579 523.72 154.639 522.889L155.862 506.091C155.916 505.344 155.324 504.708 154.574 504.708Z" fill="#CD9E64"/>
<g opacity="0.3">
<path opacity="0.3" d="M159.14 517.157L157.942 516.738V514.313C157.942 513.796 157.612 513.357 157.149 513.198L154.869 523.918C154.599 525.195 153.495 526.124 152.191 526.175L134.679 526.856C133.424 526.904 132.285 526.126 131.872 524.94L127.779 513.131H119.29C118.385 513.131 117.653 513.863 117.653 514.767V529.259C117.653 530.057 118.316 530.694 119.112 530.663L159.233 529.119C159.987 529.091 160.583 528.47 160.583 527.716V519.195C160.585 518.279 160.007 517.461 159.14 517.157Z" fill="#232323"/>
</g>
<path d="M129.654 525.876L125.487 526.084C122.9 526.213 120.678 524.268 120.465 521.685L120.297 519.661H128.638C129.199 519.661 129.654 520.115 129.654 520.676V525.876Z" fill="#CD9E64"/>
<path d="M156.529 520.519L155.864 525.049C155.864 525.049 160.257 524.896 160.146 519.359L157.421 519.659C156.962 519.707 156.596 520.062 156.529 520.519Z" fill="#CD9E64"/>
<path d="M125.651 498.892C124.951 498.892 124.257 498.666 123.691 498.251L121.978 496.996C121.286 496.489 120.871 495.673 120.871 494.815V484.835C120.871 484.314 121.099 483.822 121.499 483.487C121.898 483.15 122.421 483.01 122.935 483.097L124.616 483.387L154.91 483.383L157.845 496.482L157.477 498.329L125.714 498.894C125.691 498.892 125.671 498.892 125.651 498.892ZM122.634 483.737C122.377 483.737 122.126 483.828 121.929 483.994C121.68 484.203 121.538 484.509 121.538 484.835V494.815C121.538 495.462 121.851 496.076 122.372 496.457L124.086 497.712C124.549 498.054 125.119 498.225 125.7 498.225L156.928 497.668L157.165 496.486L154.378 484.045H124.561L122.824 483.751C122.76 483.742 122.696 483.737 122.634 483.737Z" fill="#808080"/>
<path d="M154.641 483.715H124.558L122.877 483.425C122.004 483.274 121.203 483.948 121.203 484.835V494.815C121.203 495.571 121.562 496.28 122.172 496.726L123.886 497.981C124.411 498.367 125.05 498.568 125.702 498.557L157.197 497.996L157.499 496.482L154.641 483.715Z" fill="#8F7A61"/>
<path d="M135.941 480.248H133.383C132.995 480.248 132.68 480.562 132.68 480.95V482.024C132.68 482.412 132.995 482.724 133.383 482.724H135.941C136.329 482.724 136.642 482.409 136.642 482.024V480.95C136.644 480.56 136.329 480.248 135.941 480.248Z" fill="#97A6B7"/>
<path d="M150.967 480.247H148.408C148.02 480.247 147.705 480.562 147.705 480.95V482.023C147.705 482.411 148.02 482.724 148.408 482.724H150.967C151.355 482.724 151.669 482.409 151.669 482.023V480.95C151.669 480.56 151.355 480.247 150.967 480.247Z" fill="#97A6B7"/>
<path opacity="0.3" d="M145.229 490.815C137.467 487.846 130.163 491.546 126.817 487.513C125.913 486.422 125.547 485.065 125.463 483.715H124.556L122.875 483.425C122.002 483.274 121.201 483.948 121.201 484.835V494.815C121.201 495.571 121.56 496.28 122.17 496.726L123.884 497.981C124.409 498.367 125.048 498.568 125.7 498.557L154.231 498.049C151.009 493.704 147.735 491.773 145.229 490.815Z" fill="white"/>
<path d="M168.127 521.359V534.953C168.127 536.217 169.085 537.277 170.342 537.405L309.515 550.593L328.248 562.99L354.116 528.581L168.127 521.359Z" fill="#232323"/>
<path d="M274.802 540.041V552.207C274.802 553.227 275.542 554.096 276.549 554.258L309.96 559.626L308.989 540.013L277.01 537.968C275.815 537.893 274.802 538.842 274.802 540.041Z" fill="#8F7A61"/>
<path d="M182.226 527.632C182.113 527.632 181.999 527.64 181.889 527.654L180.121 527.632L180.133 528.41C178.421 529.749 177.232 532.676 177.232 536.073C177.232 539.605 178.516 542.627 180.337 543.886L180.345 544.511H182.226C184.984 544.511 187.219 540.733 187.219 536.07C187.217 531.41 184.982 527.632 182.226 527.632Z" fill="black"/>
<path d="M180.122 544.511C182.88 544.511 185.115 540.732 185.115 536.07C185.115 531.409 182.88 527.629 180.122 527.629C177.364 527.629 175.129 531.409 175.129 536.07C175.129 540.732 177.364 544.511 180.122 544.511Z" fill="#232323"/>
<path d="M182.227 536.07C182.227 538.689 180.972 540.813 179.422 540.813C177.872 540.813 176.617 538.691 176.617 536.07C176.617 533.45 177.872 531.328 179.422 531.328C180.97 531.33 182.227 533.452 182.227 536.07Z" fill="#D8DEE8"/>
<path d="M182.226 536.07C182.226 538.503 181.16 540.472 179.845 540.472C178.53 540.472 177.464 538.5 177.464 536.07C177.464 533.64 178.53 531.669 179.845 531.669C181.16 531.669 182.226 533.64 182.226 536.07Z" fill="#F8F4EE"/>
<path d="M194.023 528.581C193.898 528.581 193.777 528.589 193.655 528.605L191.719 528.581L191.73 529.432C189.854 530.898 188.553 534.106 188.553 537.826C188.553 541.695 189.958 545.008 191.954 546.387L191.963 547.072H194.023C197.045 547.072 199.493 542.933 199.493 537.824C199.493 532.72 197.045 528.581 194.023 528.581Z" fill="black"/>
<path d="M191.72 547.077C194.741 547.077 197.19 542.936 197.19 537.829C197.19 532.721 194.741 528.581 191.72 528.581C188.699 528.581 186.25 532.721 186.25 537.829C186.25 542.936 188.699 547.077 191.72 547.077Z" fill="#232323"/>
<path d="M190.95 543.024C192.647 543.024 194.023 540.698 194.023 537.829C194.023 534.96 192.647 532.634 190.95 532.634C189.253 532.634 187.877 534.96 187.877 537.829C187.877 540.698 189.253 543.024 190.95 543.024Z" fill="#D8DEE8"/>
<path d="M191.415 542.651C192.855 542.651 194.023 540.492 194.023 537.829C194.023 535.165 192.855 533.006 191.415 533.006C189.975 533.006 188.808 535.165 188.808 537.829C188.808 540.492 189.975 542.651 191.415 542.651Z" fill="#F8F4EE"/>
<path d="M206.62 528.581C206.484 528.581 206.351 528.592 206.216 528.605L204.103 528.581L204.116 529.512C202.068 531.113 200.646 534.614 200.646 538.678C200.646 542.902 202.183 546.52 204.36 548.026L204.369 548.775H206.617C209.917 548.775 212.591 544.254 212.591 538.678C212.593 533.102 209.917 528.581 206.62 528.581Z" fill="black"/>
<path d="M204.103 548.775C207.402 548.775 210.076 544.254 210.076 538.678C210.076 533.101 207.402 528.581 204.103 528.581C200.804 528.581 198.13 533.101 198.13 538.678C198.13 544.254 200.804 548.775 204.103 548.775Z" fill="#232323"/>
<path d="M206.62 538.678C206.62 541.811 205.116 544.349 203.263 544.349C201.409 544.349 199.908 541.811 199.908 538.678C199.908 535.545 201.411 533.006 203.263 533.006C205.116 533.004 206.62 535.545 206.62 538.678Z" fill="#D8DEE8"/>
<path d="M206.62 538.678C206.62 541.587 205.345 543.944 203.773 543.944C202.201 543.944 200.926 541.587 200.926 538.678C200.926 535.769 202.201 533.412 203.773 533.412C205.345 533.412 206.62 535.769 206.62 538.678Z" fill="#F8F4EE"/>
<path d="M264.691 533.847C264.518 533.847 264.348 533.86 264.177 533.88L261.479 533.847L261.494 535.035C258.88 537.079 257.066 541.549 257.066 546.737C257.066 552.13 259.026 556.748 261.809 558.671L261.822 559.626H264.694C268.904 559.626 272.319 553.855 272.319 546.737C272.316 539.618 268.904 533.847 264.691 533.847Z" fill="black"/>
<path d="M261.478 559.627C265.689 559.627 269.103 553.856 269.103 546.738C269.103 539.62 265.689 533.849 261.478 533.849C257.266 533.849 253.853 539.62 253.853 546.738C253.853 553.856 257.266 559.627 261.478 559.627Z" fill="#232323"/>
<path d="M260.408 553.979C262.774 553.979 264.691 550.737 264.691 546.737C264.691 542.738 262.774 539.496 260.408 539.496C258.042 539.496 256.124 542.738 256.124 546.737C256.124 550.737 258.042 553.979 260.408 553.979Z" fill="#D8DEE8"/>
<path d="M264.691 546.737C264.691 550.451 263.064 553.46 261.055 553.46C259.046 553.46 257.419 550.449 257.419 546.737C257.419 543.024 259.046 540.015 261.055 540.015C263.064 540.015 264.691 543.024 264.691 546.737Z" fill="#F8F4EE"/>
<path d="M315.435 535.884C315.213 535.884 314.996 535.902 314.779 535.926L311.331 535.884L311.351 537.401C308.012 540.013 305.692 545.722 305.692 552.351C305.692 559.243 308.198 565.14 311.75 567.597L311.765 568.819H315.433C320.812 568.819 325.175 561.446 325.175 552.351C325.177 543.256 320.816 535.884 315.435 535.884Z" fill="black"/>
<path d="M311.33 568.819C316.711 568.819 321.073 561.446 321.073 552.352C321.073 543.257 316.711 535.884 311.33 535.884C305.95 535.884 301.588 543.257 301.588 552.352C301.588 561.446 305.95 568.819 311.33 568.819Z" fill="#232323"/>
<path d="M309.962 561.604C312.985 561.604 315.434 557.461 315.434 552.351C315.434 547.241 312.985 543.099 309.962 543.099C306.94 543.099 304.49 547.241 304.49 552.351C304.49 557.461 306.94 561.604 309.962 561.604Z" fill="#D8DEE8"/>
<path d="M310.79 560.941C313.355 560.941 315.435 557.095 315.435 552.351C315.435 547.608 313.355 543.762 310.79 543.762C308.224 543.762 306.145 547.608 306.145 552.351C306.145 557.095 308.224 560.941 310.79 560.941Z" fill="#F8F4EE"/>
<path d="M159.847 449.005C158.024 449.308 156.688 450.885 156.688 452.732V521.634C156.688 523.638 158.253 525.295 160.255 525.406L289.765 532.631V427.402L159.847 449.005Z" fill="#8F7A61"/>
<path d="M362.801 429.861L289.768 427.404V532.634H366.727V433.923C366.727 431.73 364.991 429.934 362.801 429.861Z" fill="#CD9E64"/>
<path d="M405.635 499.34L400.239 485.764L400.079 474.54L405.531 473.449C406.061 473.343 406.394 472.82 406.263 472.296C405.438 468.986 402.42 458.055 397.727 454.443C394.418 451.898 331.669 451.138 331.669 451.138L301.468 453.102C299.096 453.257 297.251 455.226 297.251 457.603V524.525C297.251 526.281 298.595 527.745 300.344 527.898L321.075 529.696L325.179 533.847C325.179 533.847 383.938 538.551 407.387 534.277C408.602 534.055 409.487 533.004 409.487 531.771V502.335C409.484 498.058 405.635 499.34 405.635 499.34Z" fill="#232323"/>
<path d="M408.815 539.492L406.492 538.678V533.968C406.492 532.698 405.463 531.669 404.192 531.669H331.425C329.669 531.669 328.248 533.093 328.248 534.846V562.99C328.248 564.537 329.534 565.777 331.082 565.717L408.997 562.719C410.463 562.664 411.622 561.458 411.622 559.992V543.447C411.622 541.667 410.496 540.079 408.815 539.492Z" fill="black"/>
<path d="M399.948 515.311H356.803C355.351 515.311 354.202 516.541 354.304 517.991L356.681 551.866C356.801 553.566 358.244 554.87 359.949 554.813L397.017 553.558C398.635 553.502 399.952 552.236 400.07 550.62L402.447 518C402.553 516.548 401.402 515.311 399.948 515.311Z" fill="#CD9E64"/>
<g opacity="0.3">
<path opacity="0.3" d="M408.814 539.492L406.491 538.678V533.968C406.491 532.966 405.848 532.115 404.95 531.8L400.522 552.62C399.994 555.099 397.852 556.903 395.318 557.003L361.31 558.325C358.874 558.42 356.659 556.908 355.86 554.602L347.914 531.667H331.424C329.668 531.667 328.247 533.09 328.247 534.844V562.987C328.247 564.535 329.533 565.774 331.081 565.715L408.996 562.717C410.462 562.661 411.619 561.455 411.619 559.99V543.445C411.621 541.667 410.495 540.079 408.814 539.492Z" fill="#232323"/>
</g>
<path d="M351.548 556.42L343.458 556.824C338.433 557.074 334.117 553.296 333.702 548.283L333.376 544.349H349.575C350.664 544.349 351.548 545.232 351.548 546.323V556.42Z" fill="#CD9E64"/>
<path d="M403.745 546.015L402.454 554.813C402.454 554.813 410.984 554.513 410.771 543.762L405.476 544.345C404.587 544.443 403.875 545.13 403.745 546.015Z" fill="#CD9E64"/>
<path d="M343.777 503.701C342.482 503.701 341.2 503.282 340.156 502.517L336.826 500.078C335.562 499.154 334.806 497.664 334.806 496.096V476.715C334.806 475.795 335.209 474.928 335.912 474.334C336.615 473.742 337.537 473.492 338.446 473.649L341.708 474.21L400.342 474.206L405.974 499.333L405.32 502.606L405.052 502.61L343.885 503.697C343.85 503.701 343.814 503.701 343.777 503.701ZM337.916 474.272C337.344 474.272 336.788 474.474 336.344 474.846C335.792 475.312 335.475 475.993 335.475 476.715V496.096C335.475 497.451 336.127 498.739 337.222 499.539L340.553 501.978C341.511 502.679 342.668 503.069 343.876 503.034L404.774 501.952L405.296 499.344L399.81 474.875H341.655L338.335 474.31C338.196 474.285 338.056 474.272 337.916 474.272Z" fill="#808080"/>
<path d="M400.077 474.543H341.653L338.389 473.979C336.691 473.687 335.139 474.995 335.139 476.718V496.098C335.139 497.566 335.837 498.945 337.021 499.812L340.351 502.251C341.373 503.001 342.613 503.393 343.879 503.371L405.045 502.282L405.633 499.342L400.077 474.543Z" fill="#8F7A61"/>
<path d="M363.76 467.809H358.789C358.035 467.809 357.426 468.419 357.426 469.173V471.257C357.426 472.011 358.035 472.62 358.789 472.62H363.76C364.514 472.62 365.124 472.011 365.124 471.257V469.173C365.124 468.419 364.514 467.809 363.76 467.809Z" fill="#97A6B7"/>
<path d="M392.942 467.809H387.971C387.217 467.809 386.607 468.419 386.607 469.172V471.257C386.607 472.01 387.217 472.62 387.971 472.62H392.942C393.696 472.62 394.306 472.01 394.306 471.257V469.172C394.306 468.419 393.696 467.809 392.942 467.809Z" fill="#97A6B7"/>
<path opacity="0.3" d="M381.798 488.331C366.721 482.564 352.539 489.753 346.043 481.917C344.287 479.8 343.577 477.163 343.413 474.543H341.653L338.389 473.979C336.691 473.687 335.139 474.995 335.139 476.718V496.098C335.139 497.566 335.839 498.945 337.021 499.812L340.351 502.249C341.373 502.998 342.613 503.391 343.879 503.369L399.287 502.384C393.026 493.941 386.665 490.192 381.798 488.331Z" fill="white"/>
<defs>
<linearGradient id="paint0_linear" x1="118.465" y1="176.462" x2="43.0261" y2="176.462" gradientUnits="userSpaceOnUse">
<stop stop-color="#444B8C"/>
<stop offset="0.9964" stop-color="#26264F"/>
</linearGradient>
<linearGradient id="paint1_linear" x1="483.076" y1="213.641" x2="484.371" y2="206.263" gradientUnits="userSpaceOnUse">
<stop stop-color="#AA80F9"/>
<stop offset="0.9964" stop-color="#6165D7"/>
</linearGradient>
<linearGradient id="paint2_linear" x1="508.478" y1="213.641" x2="509.773" y2="206.263" gradientUnits="userSpaceOnUse">
<stop stop-color="#AA80F9"/>
<stop offset="0.9964" stop-color="#6165D7"/>
</linearGradient>
<linearGradient id="paint3_linear" x1="538.081" y1="213.641" x2="539.375" y2="206.263" gradientUnits="userSpaceOnUse">
<stop stop-color="#FFC444"/>
<stop offset="0.9964" stop-color="#F36F56"/>
</linearGradient>
<linearGradient id="paint4_linear" x1="563.483" y1="213.641" x2="564.777" y2="206.263" gradientUnits="userSpaceOnUse">
<stop stop-color="#FFC444"/>
<stop offset="0.9964" stop-color="#F36F56"/>
</linearGradient>
<linearGradient id="paint5_linear" x1="373.398" y1="266.826" x2="374.693" y2="259.448" gradientUnits="userSpaceOnUse">
<stop stop-color="#AA80F9"/>
<stop offset="0.9964" stop-color="#6165D7"/>
</linearGradient>
<linearGradient id="paint6_linear" x1="398.801" y1="266.826" x2="400.095" y2="259.448" gradientUnits="userSpaceOnUse">
<stop stop-color="#AA80F9"/>
<stop offset="0.9964" stop-color="#6165D7"/>
</linearGradient>
<linearGradient id="paint7_linear" x1="428.403" y1="266.826" x2="429.697" y2="259.448" gradientUnits="userSpaceOnUse">
<stop stop-color="#FFC444"/>
<stop offset="0.9964" stop-color="#F36F56"/>
</linearGradient>
<linearGradient id="paint8_linear" x1="453.805" y1="266.826" x2="455.099" y2="259.448" gradientUnits="userSpaceOnUse">
<stop stop-color="#FFC444"/>
<stop offset="0.9964" stop-color="#F36F56"/>
</linearGradient>
<linearGradient id="paint9_linear" x1="387.789" y1="396.745" x2="339.375" y2="467.923" gradientUnits="userSpaceOnUse">
<stop stop-color="#FFC444"/>
<stop offset="0.9964" stop-color="#F36F56"/>
</linearGradient>
<linearGradient id="paint10_linear" x1="386.259" y1="398.993" x2="340.855" y2="465.747" gradientUnits="userSpaceOnUse">
<stop stop-color="#FFC444"/>
<stop offset="0.9964" stop-color="#F36F56"/>
</linearGradient>
<linearGradient id="paint11_linear" x1="390.351" y1="409.046" x2="360.252" y2="475.392" gradientUnits="userSpaceOnUse">
<stop stop-color="#FFC444"/>
<stop offset="0.9964" stop-color="#F36F56"/>
</linearGradient>
<linearGradient id="paint12_linear" x1="363.254" y1="396.753" x2="333.155" y2="463.099" gradientUnits="userSpaceOnUse">
<stop stop-color="#FFC444"/>
<stop offset="0.9964" stop-color="#F36F56"/>
</linearGradient>
<linearGradient id="paint13_linear" x1="346.002" y1="427.167" x2="347.667" y2="417.677" gradientUnits="userSpaceOnUse">
<stop stop-color="#FFC444"/>
<stop offset="0.9964" stop-color="#F36F56"/>
</linearGradient>
<linearGradient id="paint14_linear" x1="346.002" y1="448.312" x2="347.667" y2="438.822" gradientUnits="userSpaceOnUse">
<stop stop-color="#FFC444"/>
<stop offset="0.9964" stop-color="#F36F56"/>
</linearGradient>
<linearGradient id="paint15_linear" x1="378.676" y1="427.167" x2="380.341" y2="417.677" gradientUnits="userSpaceOnUse">
<stop stop-color="#FFC444"/>
<stop offset="0.9964" stop-color="#F36F56"/>
</linearGradient>
<linearGradient id="paint16_linear" x1="378.676" y1="448.312" x2="380.341" y2="438.822" gradientUnits="userSpaceOnUse">
<stop stop-color="#FFC444"/>
<stop offset="0.9964" stop-color="#F36F56"/>
</linearGradient>
<linearGradient id="paint17_linear" x1="320.908" y1="529.644" x2="328.975" y2="529.644" gradientUnits="userSpaceOnUse">
<stop stop-color="#311944"/>
<stop offset="1" stop-color="#6B3976"/>
</linearGradient>
<linearGradient id="paint18_linear" x1="319.21" y1="529.644" x2="327.277" y2="529.644" gradientUnits="userSpaceOnUse">
<stop stop-color="#311944"/>
<stop offset="1" stop-color="#6B3976"/>
</linearGradient>
<linearGradient id="paint19_linear" x1="327.068" y1="530.189" x2="320.768" y2="529.341" gradientUnits="userSpaceOnUse">
<stop offset="0.00540541" stop-color="#D8DEE8"/>
<stop offset="1" stop-color="#F4F7FA"/>
</linearGradient>
<linearGradient id="paint20_linear" x1="330.055" y1="531.064" x2="338.893" y2="531.064" gradientUnits="userSpaceOnUse">
<stop stop-color="#311944"/>
<stop offset="1" stop-color="#6B3976"/>
</linearGradient>
<linearGradient id="paint21_linear" x1="328.194" y1="531.064" x2="337.032" y2="531.064" gradientUnits="userSpaceOnUse">
<stop stop-color="#311944"/>
<stop offset="1" stop-color="#6B3976"/>
</linearGradient>
<linearGradient id="paint22_linear" x1="336.803" y1="531.661" x2="329.901" y2="530.732" gradientUnits="userSpaceOnUse">
<stop offset="0.00540541" stop-color="#D8DEE8"/>
<stop offset="1" stop-color="#F4F7FA"/>
</linearGradient>
<linearGradient id="paint23_linear" x1="339.824" y1="531.75" x2="349.474" y2="531.75" gradientUnits="userSpaceOnUse">
<stop stop-color="#311944"/>
<stop offset="1" stop-color="#6B3976"/>
</linearGradient>
<linearGradient id="paint24_linear" x1="337.791" y1="531.75" x2="347.442" y2="531.75" gradientUnits="userSpaceOnUse">
<stop stop-color="#311944"/>
<stop offset="1" stop-color="#6B3976"/>
</linearGradient>
<linearGradient id="paint25_linear" x1="347.191" y1="532.402" x2="339.656" y2="531.387" gradientUnits="userSpaceOnUse">
<stop offset="0.00540541" stop-color="#D8DEE8"/>
<stop offset="1" stop-color="#F4F7FA"/>
</linearGradient>
<linearGradient id="paint26_linear" x1="385.401" y1="538.26" x2="397.72" y2="538.26" gradientUnits="userSpaceOnUse">
<stop stop-color="#311944"/>
<stop offset="1" stop-color="#6B3976"/>
</linearGradient>
<linearGradient id="paint27_linear" x1="382.806" y1="538.261" x2="395.125" y2="538.261" gradientUnits="userSpaceOnUse">
<stop stop-color="#311944"/>
<stop offset="1" stop-color="#6B3976"/>
</linearGradient>
<linearGradient id="paint28_linear" x1="394.806" y1="539.092" x2="385.187" y2="537.797" gradientUnits="userSpaceOnUse">
<stop offset="0.00540541" stop-color="#D8DEE8"/>
<stop offset="1" stop-color="#F4F7FA"/>
</linearGradient>
<linearGradient id="paint29_linear" x1="304.314" y1="491.241" x2="406.419" y2="491.241" gradientUnits="userSpaceOnUse">
<stop stop-color="#FFC444"/>
<stop offset="0.9964" stop-color="#F36F56"/>
</linearGradient>
<linearGradient id="paint30_linear" x1="417.86" y1="495.011" x2="458.789" y2="495.011" gradientUnits="userSpaceOnUse">
<stop offset="0.00540541" stop-color="#D8DEE8"/>
<stop offset="1" stop-color="#F4F7FA"/>
</linearGradient>
</defs>
</svg>
