<svg width="696" height="680" viewBox="0 0 696 680" fill="none" xmlns="http://www.w3.org/2000/svg">
<g filter="url(#filter0_d)">
<path d="M315.473 42.5269C333.437 24.5628 362.563 24.5628 380.527 42.5269L633.473 295.473C651.437 313.437 651.437 342.563 633.473 360.527L380.527 613.473C362.563 631.437 333.437 631.437 315.473 613.473L62.5269 360.527C44.5628 342.563 44.5628 313.437 62.5269 295.473L315.473 42.5269Z" fill="#F8F4EE"/>
</g>
<g filter="url(#filter1_d)">
<path d="M175.601 139.899C181.068 134.432 189.932 134.432 195.399 139.899L218.101 162.601C223.568 168.068 223.568 176.932 218.101 182.399L195.399 205.101C189.932 210.568 181.068 210.568 175.601 205.101L152.899 182.399C147.432 176.932 147.432 168.068 152.899 162.601L175.601 139.899Z" fill="#F8F4EE"/>
</g>
<path d="M193.841 171.719C192.928 171.719 192.145 171.195 191.759 170.431C191.373 171.195 190.586 171.719 189.674 171.719C188.761 171.719 187.972 171.195 187.587 170.431C187.201 171.195 186.413 171.719 185.5 171.719C184.587 171.719 183.798 171.195 183.412 170.431C183.026 171.195 182.236 171.719 181.324 171.719C180.412 171.719 179.622 171.195 179.236 170.431C178.85 171.195 178.048 171.719 177.136 171.719C176.732 171.719 176.368 171.616 176.008 171.436V180.136H174.784V182.448H196.169V180.136H195.017V171.394C194.657 171.6 194.275 171.719 193.841 171.719ZM185.513 172.984H192.641V176.524H185.513V172.984ZM178.384 172.984H183.136V178.908H178.384V172.984Z" fill="#8F7A61"/>
<path d="M174.809 169.445H174.811C174.811 169.443 174.811 169.441 174.811 169.44L174.809 169.445Z" fill="#8F7A61"/>
<path d="M179.295 169.371L180.808 164.603H184.002L183.351 169.371H187.651L187.014 164.603H190.305L191.708 169.371H196.159L193.865 164.603V161.062H177.232V164.603L174.844 169.371H179.295Z" fill="#8F7A61"/>
<g filter="url(#filter2_d)">
<rect x="526.155" y="416" width="76.9861" height="76.9861" rx="14" transform="rotate(45 526.155 416)" fill="#8F7A61"/>
</g>
<path d="M532.016 460.284L529.355 458.757L526.693 460.284L524.031 458.757L521.369 460.284L519.373 459.139V477.132H531.254V479.772C531.254 480.529 531.872 481.145 532.633 481.145C533.393 481.145 534.012 480.529 534.012 479.772V459.139L532.016 460.284ZM526.693 470.741H520.995V469.415H526.693L526.693 470.741ZM532.391 467.846H520.995V466.52H532.391V467.846ZM532.391 464.951H520.995V463.625H532.391V464.951Z" fill="#F8F4EE"/>
<path d="M530.198 478.562H515.928V479.825C515.928 480.553 516.531 481.145 517.273 481.145H530.567C530.333 480.758 530.199 480.307 530.199 479.825L530.198 478.562Z" fill="#F8F4EE"/>
<mask id="mask0" mask-type="alpha" maskUnits="userSpaceOnUse" x="471" y="416" width="110" height="109">
<rect x="525.887" y="416" width="76.9861" height="76.9861" rx="14" transform="rotate(45 525.887 416)" fill="#8F7A61"/>
</mask>
<g mask="url(#mask0)">
<g filter="url(#filter3_d)">
<rect x="491.592" y="475.576" width="40.2629" height="40.2629" rx="6" transform="rotate(45 491.592 475.576)" fill="#F8F4EE"/>
</g>
</g>
<mask id="mask1" mask-type="alpha" maskUnits="userSpaceOnUse" x="438" y="456" width="108" height="103">
<path d="M545.891 544.879L483.911 482.899L456.037 456.008L438 516.349L480.304 558.653L545.891 544.879Z" fill="#C4C4C4"/>
</mask>
<g mask="url(#mask1)">
<g filter="url(#filter4_d)">
<path d="M487.35 479.819C489.693 477.476 493.492 477.476 495.835 479.819L515.82 499.804C518.163 502.147 518.163 505.946 515.82 508.289L495.835 528.274C493.492 530.617 489.693 530.617 487.35 528.274L467.365 508.289C465.022 505.946 465.022 502.147 467.365 499.804L487.35 479.819Z" fill="#F8F4EE"/>
</g>
<path d="M496.119 504.745C495.759 504.745 495.468 505.037 495.468 505.396C495.468 505.756 495.759 506.048 496.119 506.048H498.073V504.745H496.119Z" fill="#8F7A61"/>
<path d="M494.745 505.365C494.745 504.546 495.396 503.877 496.192 503.877H497.64V502.016C497.64 501.807 497.48 501.643 497.278 501.643H496.554V500.527C496.554 500.318 496.395 500.155 496.192 500.155H495.331L494.709 498.874C494.614 498.688 494.397 498.614 494.224 498.703L493.384 499.135L493.261 498.874C493.167 498.688 492.95 498.614 492.776 498.703L489.953 500.155H487.869C487.268 500.155 486.783 500.653 486.783 501.271V507.971C486.783 508.589 487.268 509.087 487.869 509.087H497.278C497.48 509.087 497.64 508.924 497.64 508.715V506.854H496.192C495.396 506.854 494.745 506.184 494.745 505.365ZM495.83 500.899V501.182L495.693 500.899H495.83ZM494.224 499.537L495.244 501.643H494.607L493.71 499.797L494.224 499.537ZM487.869 500.899H488.506L487.529 501.398C487.514 501.36 487.507 501.316 487.507 501.271C487.507 501.063 487.666 500.899 487.869 500.899ZM488.68 501.643L492.776 499.537L493.797 501.643H488.68Z" fill="#8F7A61"/>
</g>
<g clip-path="url(#clip0)">
<path fill-rule="evenodd" clip-rule="evenodd" d="M413.541 387.805C392.039 403.582 360.875 412 334.042 412C296.419 412 262.548 398.147 236.924 375.107C234.911 373.295 236.715 370.826 239.13 372.237C266.784 388.254 300.977 397.89 336.297 397.89C360.118 397.89 386.322 392.984 410.416 382.803C414.056 381.264 417.1 385.176 413.541 387.805Z" fill="#FF9900"/>
<path fill-rule="evenodd" clip-rule="evenodd" d="M422.479 377.624C419.741 374.129 404.312 375.973 397.387 376.79C395.277 377.047 394.955 375.219 396.855 373.904C409.144 365.294 429.308 367.78 431.66 370.666C434.011 373.568 431.048 393.69 419.5 403.294C417.728 404.769 416.037 403.983 416.826 402.027C419.419 395.582 425.234 381.135 422.479 377.624Z" fill="#FF9900"/>
<path fill-rule="evenodd" clip-rule="evenodd" d="M397.87 313.121V304.752C397.87 303.485 398.836 302.635 399.996 302.635H437.635C438.843 302.635 439.809 303.501 439.809 304.752V311.919C439.793 313.121 438.779 314.693 436.975 317.178L417.471 344.9C424.718 344.723 432.368 345.798 438.94 349.485C440.421 350.319 440.824 351.538 440.937 352.74V361.671C440.937 362.889 439.584 364.316 438.167 363.579C426.586 357.534 411.205 356.877 398.401 363.643C397.097 364.348 395.728 362.937 395.728 361.719V353.237C395.728 351.874 395.744 349.55 397.113 347.481L419.709 315.222H400.044C398.836 315.222 397.87 314.372 397.87 313.121Z" fill="black"/>
<path fill-rule="evenodd" clip-rule="evenodd" d="M260.567 365.343H249.116C248.021 365.262 247.151 364.445 247.071 363.402V304.896C247.071 303.726 248.053 302.796 249.277 302.796H259.955C261.067 302.844 261.952 303.694 262.033 304.752V312.4H262.242C265.029 305.008 270.263 301.561 277.317 301.561C284.484 301.561 288.962 305.008 292.183 312.4C294.953 305.008 301.251 301.561 307.999 301.561C312.799 301.561 318.049 303.533 321.254 307.959C324.878 312.881 324.137 320.032 324.137 326.301L324.121 363.226C324.121 364.397 323.139 365.343 321.915 365.343H310.479C309.336 365.262 308.418 364.348 308.418 363.226V332.217C308.418 329.748 308.643 323.591 308.096 321.25C307.242 317.322 304.681 316.216 301.363 316.216C298.593 316.216 295.694 318.06 294.518 321.01C293.343 323.96 293.455 328.898 293.455 332.217V363.226C293.455 364.397 292.473 365.343 291.249 365.343H279.814C278.654 365.262 277.752 364.348 277.752 363.226L277.736 332.217C277.736 325.692 278.815 316.088 270.682 316.088C262.452 316.088 262.774 325.451 262.774 332.217V363.226C262.774 364.397 261.791 365.343 260.567 365.343" fill="black"/>
<path fill-rule="evenodd" clip-rule="evenodd" d="M472.214 301.561C489.206 301.561 498.403 316.088 498.403 334.558C498.403 352.403 488.24 366.561 472.214 366.561C455.529 366.561 446.445 352.035 446.445 333.933C446.445 315.719 455.642 301.561 472.214 301.561ZM472.311 313.506C463.872 313.506 463.34 324.954 463.34 332.089C463.34 339.24 463.227 354.504 472.214 354.504C481.089 354.504 481.508 342.19 481.508 334.686C481.508 329.748 481.298 323.848 479.8 319.166C478.512 315.094 475.951 313.506 472.311 313.506Z" fill="black"/>
<path fill-rule="evenodd" clip-rule="evenodd" d="M520.435 365.343H509.032C507.889 365.262 506.971 364.348 506.971 363.226L506.955 304.704C507.051 303.63 508.002 302.796 509.161 302.796H519.775C520.774 302.844 521.595 303.517 521.82 304.431V313.378H522.03C525.235 305.377 529.728 301.561 537.636 301.561C542.774 301.561 547.783 303.405 551.004 308.456C554 313.137 554 321.01 554 326.67V363.499C553.871 364.525 552.921 365.343 551.793 365.343H540.31C539.263 365.262 538.393 364.493 538.281 363.499V331.72C538.281 325.323 539.021 315.959 531.113 315.959C528.327 315.959 525.766 317.819 524.494 320.641C522.883 324.217 522.674 327.776 522.674 331.72V363.226C522.658 364.397 521.659 365.343 520.435 365.343" fill="black"/>
<path fill-rule="evenodd" clip-rule="evenodd" d="M367.864 337.396C367.864 341.837 367.977 345.541 365.722 349.485C363.902 352.692 361.003 354.664 357.798 354.664C353.401 354.664 350.824 351.329 350.824 346.407C350.824 336.691 359.57 334.927 367.864 334.927V337.396ZM379.412 365.182C378.655 365.855 377.56 365.904 376.707 365.455C372.906 362.312 372.213 360.853 370.135 357.855C363.854 364.236 359.393 366.144 351.259 366.144C341.612 366.144 334.123 360.228 334.123 348.379C334.123 339.128 339.148 332.826 346.331 329.748C352.548 327.022 361.229 326.541 367.864 325.788V324.313C367.864 321.603 368.074 318.396 366.463 316.055C365.078 313.955 362.405 313.089 360.037 313.089C355.672 313.089 351.791 315.318 350.841 319.936C350.647 320.962 349.89 321.972 348.843 322.02L337.746 320.833C336.812 320.625 335.765 319.871 336.039 318.444C338.584 305.04 350.76 301 361.648 301C367.22 301 374.5 302.475 378.897 306.676C384.47 311.855 383.938 318.765 383.938 326.285V344.05C383.938 349.389 386.161 351.73 388.255 354.616C388.979 355.642 389.14 356.877 388.206 357.646C385.871 359.586 381.715 363.194 379.428 365.214L379.412 365.182" fill="black"/>
<path fill-rule="evenodd" clip-rule="evenodd" d="M217.742 337.396C217.742 341.838 217.855 345.541 215.6 349.486C213.78 352.692 210.897 354.664 207.676 354.664C203.279 354.664 200.718 351.329 200.718 346.407C200.718 336.691 209.463 334.927 217.742 334.927V337.396ZM229.29 365.182C228.533 365.856 227.438 365.904 226.584 365.455C222.783 362.312 222.106 360.853 220.013 357.855C213.731 364.236 209.286 366.144 201.137 366.144C191.505 366.144 184 360.228 184 348.379C184 339.128 189.041 332.827 196.208 329.748C202.425 327.023 211.106 326.542 217.742 325.788V324.313C217.742 321.603 217.951 318.397 216.357 316.056C214.955 313.955 212.282 313.09 209.93 313.09C205.566 313.09 201.668 315.318 200.718 319.936C200.525 320.962 199.768 321.972 198.737 322.02L187.624 320.834C186.69 320.625 185.659 319.872 185.917 318.445C188.477 305.041 200.637 301 211.525 301C217.098 301 224.377 302.475 228.774 306.676C234.347 311.855 233.815 318.765 233.815 326.285V344.05C233.815 349.389 236.038 351.73 238.132 354.616C238.873 355.642 239.034 356.877 238.1 357.647C235.764 359.587 231.609 363.194 229.322 365.214L229.29 365.182" fill="black"/>
</g>
<defs>
<filter id="filter0_d" x="0" y="-16" width="696" height="696" filterUnits="userSpaceOnUse" color-interpolation-filters="sRGB">
<feFlood flood-opacity="0" result="BackgroundImageFix"/>
<feColorMatrix in="SourceAlpha" type="matrix" values="0 0 0 0 0 0 0 0 0 0 0 0 0 0 0 0 0 0 127 0"/>
<feOffset dy="4"/>
<feGaussianBlur stdDeviation="15"/>
<feColorMatrix type="matrix" values="0 0 0 0 0.8875 0 0 0 0 0.846781 0 0 0 0 0.796531 0 0 0 1 0"/>
<feBlend mode="normal" in2="BackgroundImageFix" result="effect1_dropShadow"/>
<feBlend mode="normal" in="SourceGraphic" in2="effect1_dropShadow" result="shape"/>
</filter>
<filter id="filter1_d" x="113" y="104" width="145" height="145" filterUnits="userSpaceOnUse" color-interpolation-filters="sRGB">
<feFlood flood-opacity="0" result="BackgroundImageFix"/>
<feColorMatrix in="SourceAlpha" type="matrix" values="0 0 0 0 0 0 0 0 0 0 0 0 0 0 0 0 0 0 127 0"/>
<feOffset dy="4"/>
<feGaussianBlur stdDeviation="15"/>
<feColorMatrix type="matrix" values="0 0 0 0 0.8875 0 0 0 0 0.846781 0 0 0 0 0.796531 0 0 0 1 0"/>
<feBlend mode="normal" in2="BackgroundImageFix" result="effect1_dropShadow"/>
<feBlend mode="normal" in="SourceGraphic" in2="effect1_dropShadow" result="shape"/>
</filter>
<filter id="filter2_d" x="441.717" y="390" width="168.875" height="168.875" filterUnits="userSpaceOnUse" color-interpolation-filters="sRGB">
<feFlood flood-opacity="0" result="BackgroundImageFix"/>
<feColorMatrix in="SourceAlpha" type="matrix" values="0 0 0 0 0 0 0 0 0 0 0 0 0 0 0 0 0 0 127 0"/>
<feOffset dy="4"/>
<feGaussianBlur stdDeviation="15"/>
<feColorMatrix type="matrix" values="0 0 0 0 0 0 0 0 0 0 0 0 0 0 0 0 0 0 0.3 0"/>
<feBlend mode="normal" in2="BackgroundImageFix" result="effect1_dropShadow"/>
<feBlend mode="normal" in="SourceGraphic" in2="effect1_dropShadow" result="shape"/>
</filter>
<filter id="filter3_d" x="433.122" y="449.576" width="116.94" height="116.94" filterUnits="userSpaceOnUse" color-interpolation-filters="sRGB">
<feFlood flood-opacity="0" result="BackgroundImageFix"/>
<feColorMatrix in="SourceAlpha" type="matrix" values="0 0 0 0 0 0 0 0 0 0 0 0 0 0 0 0 0 0 127 0"/>
<feOffset dy="4"/>
<feGaussianBlur stdDeviation="15"/>
<feColorMatrix type="matrix" values="0 0 0 0 0.416667 0 0 0 0 0.343152 0 0 0 0 0.252431 0 0 0 1 0"/>
<feBlend mode="normal" in2="BackgroundImageFix" result="effect1_dropShadow"/>
<feBlend mode="normal" in="SourceGraphic" in2="effect1_dropShadow" result="shape"/>
</filter>
<filter id="filter4_d" x="433.122" y="449.576" width="116.94" height="116.94" filterUnits="userSpaceOnUse" color-interpolation-filters="sRGB">
<feFlood flood-opacity="0" result="BackgroundImageFix"/>
<feColorMatrix in="SourceAlpha" type="matrix" values="0 0 0 0 0 0 0 0 0 0 0 0 0 0 0 0 0 0 127 0"/>
<feOffset dy="4"/>
<feGaussianBlur stdDeviation="15"/>
<feColorMatrix type="matrix" values="0 0 0 0 0.8875 0 0 0 0 0.846781 0 0 0 0 0.796531 0 0 0 1 0"/>
<feBlend mode="normal" in2="BackgroundImageFix" result="effect1_dropShadow"/>
<feBlend mode="normal" in="SourceGraphic" in2="effect1_dropShadow" result="shape"/>
</filter>
<clipPath id="clip0">
<rect width="370" height="111" fill="white" transform="translate(184 301)"/>
</clipPath>
</defs>
</svg>
