<svg width="141" height="141" viewBox="0 0 141 141" fill="none" xmlns="http://www.w3.org/2000/svg">
<g filter="url(#filter0_d)">
<path d="M60.6005 35.8995C66.0678 30.4322 74.9322 30.4322 80.3995 35.8995L101.101 56.6005C106.568 62.0678 106.568 70.9322 101.101 76.3995L80.3995 97.1005C74.9322 102.568 66.0678 102.568 60.6005 97.1005L39.8995 76.3995C34.4322 70.9322 34.4322 62.0678 39.8995 56.6005L60.6005 35.8995Z" fill="#F8F4EE"/>
</g>
<path d="M73.375 59.5758V59.5701L77.6789 61.4977L82 59.8777L70.5 55.5652L59 59.8777L70.5 64.1902L74.8039 62.5759L70.5 60.802V60.7977L73.375 59.5758Z" fill="#8F7A61"/>
<path d="M59 61.3152V74.2527L69.7812 78.2964V65.3589L59 61.3152ZM64.75 74.3001L61.875 73.222V71.6882L64.75 72.7663V74.3001Z" fill="#8F7A61"/>
<path d="M77.6875 62.9324V66.5333L74.8125 67.6114V64.0105L71.2188 65.3589V78.2964L82 74.2527V61.3152L77.6875 62.9324Z" fill="#8F7A61"/>
<defs>
<filter id="filter0_d" x="0" y="0" width="141" height="141" filterUnits="userSpaceOnUse" color-interpolation-filters="sRGB">
<feFlood flood-opacity="0" result="BackgroundImageFix"/>
<feColorMatrix in="SourceAlpha" type="matrix" values="0 0 0 0 0 0 0 0 0 0 0 0 0 0 0 0 0 0 127 0"/>
<feOffset dy="4"/>
<feGaussianBlur stdDeviation="15"/>
<feColorMatrix type="matrix" values="0 0 0 0 0.8875 0 0 0 0 0.846781 0 0 0 0 0.796531 0 0 0 1 0"/>
<feBlend mode="normal" in2="BackgroundImageFix" result="effect1_dropShadow"/>
<feBlend mode="normal" in="SourceGraphic" in2="effect1_dropShadow" result="shape"/>
</filter>
</defs>
</svg>
