<svg width="496" height="425" viewBox="0 0 496 425" fill="none" xmlns="http://www.w3.org/2000/svg">
<path d="M371.621 379.519C371.392 382.351 367.389 382.354 362.849 381.793C358.312 381.232 344.612 380.358 344.31 379.445C344.04 378.636 347.108 377.982 350.392 377.209C350.804 377.113 351.221 377.013 351.635 376.912C355.336 375.999 358.535 373.997 360.985 370.862C363.743 367.329 366.266 351.239 366.266 351.239L376.205 353.091C376.205 353.091 370.42 366.882 369.825 371.404C369.558 373.433 371.003 374.787 371.341 376.563C371.523 377.533 371.706 378.522 371.621 379.519Z" fill="#D5BF9E"/>
<path d="M371.623 379.519C371.394 382.351 367.39 382.354 362.853 381.793C359.743 381.409 359.326 381.831 357.326 382.15H349.347C345.875 381.551 344.542 380.145 344.313 379.445C344.044 378.639 347.112 377.982 350.396 377.209L350.434 377.269C350.434 377.269 354.514 379.497 359.754 379.009C364.027 378.612 368.396 376.863 371.345 376.566C371.524 377.533 371.704 378.519 371.623 379.519Z" fill="#699DEE"/>
<path d="M362.736 362.826C362.736 362.826 365.339 364.548 367.789 364.992C371.46 365.659 373.166 364.918 373.166 364.918C373.166 364.918 390.825 320.598 389.819 305.622C389.795 305.262 389.781 304.878 389.776 304.475C389.746 301.876 390.122 298.414 390.765 294.426C391.002 292.966 391.277 291.436 391.582 289.85C392.291 286.157 393.166 282.174 394.13 278.113C394.553 276.323 394.997 274.52 395.447 272.72C399.886 254.998 405.312 237.535 405.312 237.535C405.312 237.535 373.444 227.129 371.639 236.854C370.947 240.586 368.645 255.521 369.68 278.355C370.517 296.736 369.977 311.075 368.388 327.715C366.99 342.329 364.6 354.897 362.736 362.826Z" fill="#CD9E64"/>
<path d="M389.774 304.472C389.744 301.874 390.12 298.412 390.763 294.424C391 292.964 391.276 291.433 391.581 289.848C392.289 286.154 393.164 282.172 394.129 278.11C394.551 276.321 394.995 274.517 395.445 272.717C394.816 267.31 394.309 263.6 394.309 263.6C394.309 263.6 381.075 281.564 389.774 304.472Z" fill="#C08E4F"/>
<path d="M411.83 379.518C411.602 382.351 407.598 382.354 403.058 381.793C398.521 381.232 384.821 380.357 384.519 379.445C384.249 378.636 387.317 377.982 390.601 377.209C391.015 377.113 391.43 377.013 391.844 376.912C395.545 375.999 398.014 373.254 401.194 370.862C404.205 368.598 402.099 357.616 402.099 357.616L411.446 354.279C411.446 354.279 410.037 365.327 410.037 371.407C410.037 373.452 411.215 374.79 411.553 376.566C411.73 377.533 411.912 378.522 411.83 379.518Z" fill="#D5BF9E"/>
<path d="M411.828 379.519C411.599 382.351 407.595 382.354 403.058 381.793C399.949 381.409 399.532 381.831 397.531 382.15H389.552C386.08 381.551 384.747 380.145 384.519 379.445C384.249 378.639 387.317 377.982 390.601 377.209L390.639 377.269C390.639 377.269 394.719 379.497 399.96 379.009C404.233 378.612 408.601 376.863 411.55 376.566C411.73 377.533 411.91 378.519 411.828 379.519Z" fill="#232323"/>
<path d="M386.111 234.067C386.111 234.067 396.481 285.718 398.23 313.831C399.98 341.945 402.168 365.218 402.168 365.218C402.168 365.218 404.43 366.032 407.027 365.885C409.769 365.73 411.941 364.886 411.941 364.886C411.941 364.886 422.217 322.589 418.814 305.66C415.41 288.731 418.247 273.115 419.879 259.07C422.223 238.935 413.208 229.576 406.916 223.196C400.547 216.735 386.111 234.067 386.111 234.067Z" fill="#CD9E64"/>
<path d="M378.762 139.463C377.732 131.055 380.359 117.599 397.151 119.748C413.944 121.897 419.236 138.393 415.849 145.726C412.462 153.061 420.724 154.829 423.319 162.715C425.548 169.489 426.325 177.903 429.93 181.678C441.556 193.852 418.77 212.57 405.033 208.623C380.013 201.435 376.792 200.362 377.68 180.711C378.135 170.644 385.97 166.743 380.997 163.831C368.976 156.796 381.095 158.49 378.762 139.463Z" fill="#232323"/>
<path d="M383.848 166.468L388.816 173.915L398.823 173.422L403.445 161.478C403.445 161.478 402.019 161.208 401.354 146.314L388.865 150.122C388.865 150.122 389.53 154.006 388.644 158.231C388.028 161.184 386.674 164.33 383.848 166.468Z" fill="#D5BF9E"/>
<path d="M382.455 161.214C383.098 161.214 394.866 157.28 411.667 164.12C411.667 164.12 403.69 209.732 407.115 218.438C410.541 227.143 411.844 234.868 411.844 234.868L374.675 235.329C374.675 235.329 375.195 205.45 373.481 194.873C371.767 184.299 382.455 161.214 382.455 161.214Z" fill="#D5BF9E"/>
<path d="M411.641 214.877C411.42 213.998 411.27 213.219 411.213 212.57C410.722 207.065 411.556 202.576 412.938 198.172C412.941 198.166 412.943 198.164 412.943 198.158C412.965 198.09 412.987 198.019 413.011 197.948C413.05 197.834 413.096 197.654 413.15 197.425C413.153 197.42 413.153 197.414 413.156 197.406C413.21 197.197 413.268 196.946 413.333 196.66C413.352 196.567 413.377 196.467 413.398 196.358C414.355 192.076 416.453 181.319 417.009 179.853C417.192 179.369 417.402 178.532 417.579 177.505C418.14 174.267 418.386 169.116 416.497 166.961C413.867 163.965 404.836 161.813 404.836 161.813C402.999 164.689 396.783 171.723 388.981 170.437C384.471 169.691 383.773 160.92 383.773 160.92C378.925 161.587 377.688 162.322 377.688 162.322C377.688 162.322 366.07 169.568 349.653 192.642C349.133 193.375 347.893 193.29 344.863 192.705C341.004 191.953 333.128 192.051 321.243 190.308C321.243 190.308 320.835 190.605 320.723 191.901C320.478 194.77 320.191 195.617 320.191 195.617C320.191 195.617 328.015 199.305 336.338 201.936C339.281 202.87 342.361 203.742 345.299 204.399C348.035 205.011 350.648 205.436 352.918 205.543C352.918 205.543 362.402 201.901 371.591 191.779C372.128 200.275 373.314 211.246 372.586 219.26C372.169 223.823 369.049 239.172 369.831 241.727C371.463 247.047 384.002 247.322 395.2 246.766C395.445 246.755 395.687 246.742 395.933 246.725C397.669 246.625 399.372 246.475 400.963 246.295C403.964 245.96 406.564 245.524 408.256 245.135C410.442 244.633 413.186 243.917 415.418 242.838C417.129 242.013 418.535 240.978 419.157 239.67C418.075 233.888 412.889 221.276 411.641 214.877Z" fill="white"/>
<path d="M387.249 229.619C389.369 236.81 390.603 242.729 395.931 246.731C397.667 246.63 399.37 246.48 400.962 246.3C403.962 245.965 406.562 245.53 408.254 245.14C410.44 244.639 413.184 243.92 415.416 242.844C417.128 242.018 418.534 240.983 419.155 239.676C418.079 233.885 412.89 221.273 411.642 214.877C411.519 214.254 411.435 213.692 411.394 213.199C410.931 207.468 411.675 202.764 412.939 198.172C412.942 198.166 412.945 198.163 412.945 198.158C413.013 197.913 413.083 197.67 413.152 197.425C413.154 197.42 413.154 197.414 413.157 197.406C413.201 197.248 413.261 196.992 413.334 196.66C413.353 196.567 413.378 196.466 413.4 196.358C414.255 192.302 416.49 179.567 417.06 177.906C417.239 177.38 417.441 176.481 417.618 175.37L413.143 171.066C413.143 171.066 387.467 182.024 381.809 197.142C376.152 212.262 384.202 219.301 387.249 229.619Z" fill="#F5EFE5"/>
<path d="M336.336 201.942C342.021 203.742 348.204 205.322 352.916 205.548C352.916 205.548 362.528 201.86 371.774 191.582C372.164 189.836 372.54 186.906 370.423 187.753C367.455 188.938 356.475 203.028 352.322 203.323C349.349 203.532 340.895 202.53 336.336 201.942Z" fill="#F5EFE5"/>
<path d="M356.613 197.929C356.613 197.929 369.269 204.284 380.243 206.913C383.402 207.67 386.443 208.204 389.038 208.326C389.038 208.326 401.088 204.873 409.844 192.089C426.038 168.448 413.81 165.106 413.81 165.106C413.81 165.106 402.189 172.352 385.776 195.426C385.201 196.232 383.759 196.05 380.025 195.298C376.039 194.492 368.1 194.59 357.142 192.98C357.142 192.98 356.957 193.386 356.845 194.685C356.6 197.553 356.613 197.929 356.613 197.929Z" fill="white"/>
<path d="M344.861 192.708C341.04 191.964 332.919 191.904 321.228 190.212C320.317 189.924 319.287 189.542 318.328 189.063C315.824 187.81 309.144 186.976 307.724 188.311C306.305 189.646 309.229 195.072 315.322 195.238C317.459 195.295 319.058 195.459 320.238 195.641C320.882 195.941 328.379 199.419 336.336 201.939C339.279 202.873 342.359 203.745 345.297 204.401C346.474 199.16 345.662 195.075 344.861 192.708Z" fill="#C9B28E"/>
<path d="M388.641 158.234C393.805 157.817 401.354 146.314 401.354 146.314L388.864 150.122C388.861 150.125 389.526 154.006 388.641 158.234Z" fill="#C9B28E"/>
<path d="M385.592 150.969C385.592 150.969 400.548 153.971 402.276 144.633C404.004 135.296 407.097 129.393 397.621 127.08C388.146 124.768 385.625 127.988 384.29 130.965C382.954 133.942 381.747 149.948 385.592 150.969Z" fill="#D5BF9E"/>
<path d="M385.317 138.412C385.602 138.12 385.597 137.65 385.304 137.365C385.011 137.079 384.543 137.086 384.257 137.378C383.971 137.672 383.977 138.14 384.27 138.426C384.563 138.712 385.031 138.706 385.317 138.412Z" fill="#263238"/>
<path d="M384.012 137.327C384.097 137.41 384.573 136.995 385.274 136.948C385.974 136.891 386.506 137.233 386.578 137.137C386.614 137.095 386.524 136.941 386.292 136.786C386.064 136.631 385.679 136.492 385.242 136.525C384.806 136.557 384.446 136.751 384.243 136.937C384.036 137.125 383.971 137.291 384.012 137.327Z" fill="#263238"/>
<path d="M392.128 137.44C391.793 137.675 391.713 138.137 391.948 138.472C392.184 138.807 392.645 138.887 392.98 138.651C393.315 138.417 393.395 137.954 393.16 137.62C392.924 137.285 392.462 137.205 392.128 137.44Z" fill="#263238"/>
<path d="M391.666 137.474C391.751 137.557 392.228 137.143 392.928 137.096C393.629 137.039 394.161 137.38 394.233 137.286C394.268 137.243 394.179 137.089 393.946 136.934C393.718 136.78 393.334 136.64 392.897 136.673C392.46 136.705 392.1 136.899 391.897 137.086C391.691 137.272 391.626 137.438 391.666 137.474Z" fill="#263238"/>
<path d="M389.21 143.432C389.212 143.379 388.773 143.32 388.062 143.266C387.877 143.258 387.727 143.226 387.706 143.125C387.665 143.013 387.725 142.812 387.804 142.588C387.955 142.115 388.109 141.633 388.27 141.129C388.91 139.051 389.347 137.343 389.245 137.311C389.143 137.279 388.541 138.938 387.901 141.015C387.75 141.522 387.605 142.006 387.464 142.483C387.409 142.699 387.298 142.954 387.41 143.247C387.469 143.394 387.618 143.493 387.74 143.517C387.862 143.546 387.966 143.54 388.054 143.539C388.767 143.523 389.209 143.486 389.21 143.432Z" fill="#263238"/>
<path d="M391.537 144.066C392.242 143.586 389.592 145.259 388.161 145.277C388.161 145.277 389.06 146.535 390.495 145.907C391.984 145.256 391.537 144.066 391.537 144.066Z" fill="white"/>
<path d="M392.901 124.749C392.901 124.749 392.639 127.917 397.558 133.291C402.477 138.665 401.305 148.248 401.305 148.248C401.305 148.248 409.596 132.673 405.173 127.699C400.75 122.725 392.901 124.749 392.901 124.749Z" fill="#232323"/>
<path d="M398.915 120.625C398.915 120.625 391.477 118.138 384.1 125.405C380.923 128.535 381.402 134.691 383.106 138.262C383.106 138.262 385.722 130.608 390.48 128.941C395.238 127.274 398.915 120.625 398.915 120.625Z" fill="#232323"/>
<path d="M339.974 171.464L308.127 172.183L315.436 216.411L347.675 217.454L339.974 171.464Z" fill="#D5C2A4"/>
<path d="M380.245 206.913C377.836 202.151 378.779 197.989 380.027 195.298C376.04 194.492 368.047 194.143 357.089 192.536C357.089 192.536 357.089 192.544 357.086 192.555C355.906 192.242 354.159 191.705 352.598 190.923C349.925 189.586 342.793 188.695 341.277 190.123C339.762 191.547 342.883 197.338 349.388 197.518C352.993 197.616 355.173 197.989 356.402 198.3C357.484 198.795 369.767 204.401 380.245 206.913Z" fill="#C9B28E"/>
<path d="M182.433 226.758H106.09V303.065H182.433V226.758Z" fill="#EBE0CF"/>
<path d="M205.974 226.758H129.631V303.065H205.974V226.758Z" fill="#E5D6BE"/>
<path d="M253.075 303.065H171.137V384.965H253.075V303.065Z" fill="#D5C2A4"/>
<path d="M278.337 303.065H196.398V384.965H278.337V303.065Z" fill="#EBE0CF"/>
<path d="M196.399 303.065L171.137 318.376V303.065H196.399Z" fill="#C8B392"/>
<path d="M195.434 274.326L188.046 246.713C187.765 245.667 186.686 245.044 185.639 245.324L139.682 257.612C138.635 257.892 138.011 258.971 138.292 260.017L145.683 287.632C145.961 288.667 147.042 289.302 148.089 289.021L194.047 276.734C195.09 276.45 195.712 275.361 195.434 274.326Z" fill="#DBCAAF"/>
<path d="M188.046 246.71C187.765 245.664 186.686 245.04 185.639 245.321L139.682 257.609C138.635 257.889 138.011 258.968 138.292 260.014L166.863 267.169L188.258 247.511L188.046 246.71Z" fill="#EBE0CF"/>
<path d="M192.054 273.05C191.942 272.631 191.506 272.38 191.087 272.492L182.467 274.796C182.047 274.908 181.794 275.344 181.908 275.763C182.02 276.183 182.456 276.436 182.876 276.322L191.496 274.017C191.912 273.906 192.166 273.47 192.054 273.05Z" fill="#EBE0CF"/>
<path d="M157.938 303.065H76V384.965H157.938V303.065Z" fill="#D5C2A4"/>
<path d="M183.204 303.065H101.266V384.965H183.204V303.065Z" fill="#DBCAAF"/>
<path d="M101.265 303.065L76 318.376V303.065H101.265Z" fill="#C8B392"/>
<path d="M117.042 350.897H85.2773L86.6127 347.187L85.2773 343.183H116.745L114.813 347.337L117.042 350.897Z" fill="#EBE0CF"/>
<path d="M101.16 343.183V350.897H85.2773L86.6127 347.187L85.2773 343.183H101.16Z" fill="#C8B392"/>
<path d="M299.427 336.948H252.309V384.044H299.427V336.948Z" fill="#D5C2A4"/>
<path d="M313.958 336.948H266.84V384.044H313.958V336.948Z" fill="#EBE0CF"/>
<path d="M266.839 336.948L252.309 345.751V336.948H266.839Z" fill="#C8B392"/>
<path d="M322.607 346.953H285.498V384.041H322.607V346.953Z" fill="#E5D6BE"/>
<path d="M334.05 346.953H296.941V384.041H334.05V346.953Z" fill="#D5C2A4"/>
<path d="M313.665 372.406L299.895 375.154L301.292 382.15L315.062 379.402L313.665 372.406Z" fill="#EBE0CF"/>
<path d="M303.619 356.407H290.211L290.775 354.841L290.211 353.15H303.494L302.679 354.904L303.619 356.407Z" fill="#E5D6BE"/>
<path d="M296.915 353.15V356.407H290.211L290.775 354.841L290.211 353.15H296.915Z" fill="#EBE0CF"/>
<path d="M274.766 347.138H258.922L259.587 345.286L258.922 343.289H274.619L273.657 345.362L274.766 347.138Z" fill="#FDF4E7"/>
<path d="M266.844 343.289V347.138H258.922L259.587 345.286L258.922 343.289H266.844Z" fill="#C8B392"/>
<path d="M274.766 375.578H258.922L259.587 373.729L258.922 371.729H274.619L273.657 373.802L274.766 375.578Z" fill="#FDF4E7"/>
<path d="M266.844 371.729V375.578H258.922L259.587 373.729L258.922 371.729H266.844Z" fill="#C8B392"/>
<path d="M211.034 320.081H145.848V385.237H211.034V320.081Z" fill="#E5D6BE"/>
<path d="M231.136 320.081H165.949V385.237H231.136V320.081Z" fill="#D5C2A4"/>
<path d="M225.71 324.009L210.096 327.126L211.68 335.059L227.295 331.942L225.71 324.009Z" fill="#EBE0CF"/>
<path d="M174.605 330.399H156.938L157.679 328.335L156.938 326.107H174.439L173.365 328.419L174.605 330.399Z" fill="#E5D6BE"/>
<path d="M165.77 326.107V330.399H156.938L157.679 328.335L156.938 326.107H165.77Z" fill="#EBE0CF"/>
<path d="M174.605 378.931H156.938L157.679 376.869L156.938 374.641H174.439L173.365 376.951L174.605 378.931Z" fill="#E5D6BE"/>
<path d="M165.77 374.641V378.931H156.938L157.679 376.869L156.938 374.641H165.77Z" fill="#EBE0CF"/>
<path d="M349.208 352.054H297.135V404.103H349.208V352.054Z" fill="#FFA412"/>
<path d="M365.262 352.054H313.189V404.103H365.262V352.054Z" fill="#FFB93E"/>
<path d="M313.189 352.054L297.135 361.784V352.054H313.189Z" fill="#F99746"/>
<path d="M323.216 382.453H303.027L303.878 380.094L303.027 377.55H323.028L321.801 380.19L323.216 382.453Z" fill="#FFD5AB"/>
<path d="M313.121 377.55V382.453H303.027L303.878 380.094L303.027 377.55H313.121Z" fill="#F99746"/>
<path d="M343.04 322.127H313.096V352.057H343.04V322.127Z" fill="#FFA412"/>
<path d="M352.273 322.127H322.328V352.057H352.273V322.127Z" fill="#FFB93E"/>
<path d="M322.329 322.127L313.096 327.721V322.127H322.329Z" fill="#F99746"/>
<path d="M357.773 328.484H334.189V352.057H357.773V328.484Z" fill="#4A75CB"/>
<path d="M365.045 328.484H341.461V352.057H365.045V328.484Z" fill="#699DEE"/>
<path d="M352.092 344.655L343.34 346.401L344.228 350.846L352.98 349.099L352.092 344.655Z" fill="#EBF2F9"/>
<path d="M345.703 334.49H337.182L337.541 333.496L337.182 332.423H345.624L345.106 333.537L345.703 334.49Z" fill="#EBF2F9"/>
<path d="M341.444 332.423V334.49H337.182L337.541 333.496L337.182 332.423H341.444Z" fill="#A6C7F9"/>
<path d="M327.368 328.601H317.299L317.721 327.427L317.299 326.155H327.273L326.663 327.474L327.368 328.601Z" fill="#FFD5AB"/>
<path d="M322.332 326.155V328.601H317.299L317.721 327.427L317.299 326.155H322.332Z" fill="#F99746"/>
<path d="M327.368 346.677H317.299L317.721 345.5L317.299 344.231H327.273L326.663 345.549L327.368 346.677Z" fill="#FFD5AB"/>
<path d="M322.332 344.231V346.677H317.299L317.721 345.5L317.299 344.231H322.332Z" fill="#F99746"/>
<path d="M382.831 362.697H341.402V404.105H382.831V362.697Z" fill="#4A75CB"/>
<path d="M395.604 362.697H354.176V404.105H395.604V362.697Z" fill="#699DEE"/>
<path d="M392.155 365.192L382.23 367.172L383.237 372.213L393.162 370.232L392.155 365.192Z" fill="#EBF2F9"/>
<path d="M359.678 369.253H348.447L348.921 367.943L348.447 366.526H359.572L358.89 367.995L359.678 369.253Z" fill="#EBF2F9"/>
<path d="M354.064 366.526V369.253H348.447L348.921 367.943L348.447 366.526H354.064Z" fill="#A6C7F9"/>
<path d="M359.678 400.096H348.447L348.921 398.786L348.447 397.369H359.572L358.89 398.837L359.678 400.096Z" fill="#EBF2F9"/>
<path d="M354.064 397.369V400.096H348.447L348.921 398.786L348.447 397.369H354.064Z" fill="#A6C7F9"/>
<path d="M282.908 413.146C279.766 413.146 277.221 415.69 277.221 418.831C277.221 421.971 279.766 424.516 282.908 424.516C286.05 424.516 288.596 421.971 288.596 418.831C288.596 415.69 286.05 413.146 282.908 413.146Z" fill="#232323"/>
<path d="M282.909 415.134C280.892 415.134 279.26 416.769 279.26 418.782C279.26 420.797 280.895 422.429 282.909 422.429C284.925 422.429 286.558 420.795 286.558 418.782C286.558 416.766 284.925 415.134 282.909 415.134Z" fill="black"/>
<path d="M397.375 413.146C394.233 413.146 391.688 415.69 391.688 418.831C391.688 421.971 394.233 424.516 397.375 424.516C400.517 424.516 403.062 421.971 403.062 418.831C403.062 415.69 400.517 413.146 397.375 413.146Z" fill="#232323"/>
<path d="M397.376 415.134C395.359 415.134 393.727 416.769 393.727 418.782C393.727 420.797 395.362 422.429 397.376 422.429C399.392 422.429 401.025 420.795 401.025 418.782C401.025 416.766 399.392 415.134 397.376 415.134Z" fill="black"/>
<path d="M409.227 404.103H292.889L246.451 277.335C246.032 276.191 244.963 275.412 243.745 275.36L228.264 274.723C226.601 274.654 225.198 275.946 225.13 277.607C225.061 279.269 226.353 280.672 228.016 280.74L241.486 281.295L286.471 404.1H276.355C274.753 404.1 273.442 405.41 273.442 407.012V410.487C273.442 412.089 274.753 413.399 276.355 413.399H409.227C410.83 413.399 412.141 412.089 412.141 410.487V407.012C412.143 405.413 410.832 404.103 409.227 404.103Z" fill="#232323"/>
<path d="M226.211 265.5C226.211 265.5 232.005 269.316 236.466 269.487C240.925 269.659 243.584 274.118 244.198 275.976C244.811 277.833 243.039 280.688 241.663 278.996C239.586 276.439 235.343 278.433 231.291 275.088C227.239 271.743 221.191 269.594 221.191 269.594L226.211 265.5Z" fill="#C9B28E"/>
<path d="M174.535 202.822C174.535 202.822 186.981 247.32 196.909 256.306C202.06 260.967 230.584 279.985 232.933 273.919C232.933 273.919 236.457 269.615 234.5 267.071C234.5 267.071 210.524 249.834 208.657 248.677C205.406 246.658 209.409 206.254 200.893 199.298C192.377 192.335 179.288 190.535 174.535 202.822Z" fill="#FFA412"/>
<path d="M224.78 424.415C224.78 424.415 223.851 424.448 222.333 424.491H198.831C198.289 424.429 197.904 424.352 197.711 424.26C195.599 423.255 196.575 413.947 196.575 413.947C196.575 413.947 205.718 406.334 207.107 411.994C208.5 417.657 216.098 420.059 220.409 420.67C224.718 421.282 224.78 424.415 224.78 424.415Z" fill="#232323"/>
<path d="M150.538 309.256C155.062 318.482 165.785 331.331 169.74 341.284C170.674 343.638 171.233 345.828 171.241 347.772C171.334 370.114 195.599 414.17 195.599 414.17C197.913 415.669 207.789 412.672 207.789 412.672C207.789 412.672 206.644 402.883 200.976 369.054C197.85 350.393 192.58 322.612 188.481 301.444C187.426 295.994 186.445 290.979 185.606 286.675C183.785 277.392 182.592 271.402 182.592 271.402L173.182 271.557L147.769 271.977C147.769 271.98 137.22 282.091 150.538 309.256Z" fill="#4A75CB"/>
<path d="M150.538 309.256C155.062 318.482 165.785 331.331 169.74 341.284C175.345 329.427 183.851 311.403 188.481 301.444C187.426 295.994 186.445 290.979 185.606 286.675C181.949 282.202 177.248 276.466 173.182 271.557L147.769 271.977C147.769 271.98 137.22 282.091 150.538 309.256Z" fill="#406ABF"/>
<path d="M119.786 424.491H107.046C105.858 423.565 104.841 421.953 104.408 419.711C103.67 415.906 99.2902 413.996 98.2328 410.902C97.1755 407.807 101.751 403.204 101.751 403.204L103.288 401.049L111.257 402.58C111.257 402.58 112.069 408.123 112.009 412.307C111.949 416.494 113.535 420.934 117.282 421.593C120.007 422.073 119.996 423.661 119.786 424.491Z" fill="#232323"/>
<path d="M154.99 364.328C150.212 372.996 114.989 413.236 114.989 413.236C114.989 413.236 103.887 409.488 101.908 402.749C101.908 402.749 122.745 368.531 132.218 353.947C134.927 349.777 136.434 286.04 146.089 274.423C158.194 259.861 180.108 287.487 180.108 287.487C180.108 287.487 173.251 309.777 171.12 316.799C166.392 332.371 158.279 358.355 154.99 364.328Z" fill="#699DEE"/>
<path d="M222.881 268.825C222.881 268.825 228.675 272.642 233.136 272.813C237.594 272.985 240.254 277.444 240.867 279.301C241.481 281.159 239.709 284.014 238.333 282.322C236.256 279.767 232.013 281.761 227.961 278.413C223.909 275.069 217.861 272.919 217.861 272.919L222.881 268.825Z" fill="#D5BF9E"/>
<path d="M201.821 194.702C205.314 188.903 206.794 185.234 206.794 185.234L198.586 170.841C193.803 184.322 182.758 187.37 182.758 187.37C182.758 187.37 195.67 201.531 206.069 202.245C206.069 202.248 204.935 198.442 201.821 194.702Z" fill="#C9B28E"/>
<path d="M209.709 186.128C209.709 186.128 193.431 182.665 195.742 172.565C198.056 162.465 197.514 155.217 208.003 157.001C218.495 158.785 219.623 163.1 219.672 166.657C219.724 170.214 214.004 186.768 209.709 186.128Z" fill="#D5BF9E"/>
<path d="M215.923 171.412C215.638 171.12 215.644 170.65 215.936 170.365C216.229 170.079 216.698 170.086 216.984 170.378C217.269 170.672 217.263 171.14 216.97 171.426C216.678 171.712 216.209 171.706 215.923 171.412Z" fill="#263238"/>
<path d="M217.228 170.327C217.143 170.41 216.667 169.995 215.966 169.948C215.266 169.891 214.734 170.233 214.662 170.137C214.626 170.095 214.716 169.941 214.948 169.786C215.177 169.631 215.561 169.492 215.998 169.525C216.434 169.557 216.794 169.751 216.997 169.937C217.204 170.125 217.269 170.291 217.228 170.327Z" fill="#263238"/>
<path d="M209.112 170.44C209.447 170.675 209.527 171.137 209.292 171.472C209.056 171.807 208.595 171.887 208.26 171.651C207.925 171.417 207.845 170.954 208.08 170.62C208.316 170.285 208.778 170.205 209.112 170.44Z" fill="#263238"/>
<path d="M209.574 170.474C209.489 170.557 209.013 170.143 208.312 170.096C207.611 170.039 207.079 170.38 207.008 170.286C206.972 170.243 207.062 170.089 207.294 169.934C207.522 169.78 207.907 169.64 208.344 169.673C208.78 169.705 209.14 169.899 209.343 170.086C209.55 170.272 209.615 170.438 209.574 170.474Z" fill="#263238"/>
<path d="M212.03 176.432C212.028 176.379 212.468 176.32 213.179 176.266C213.363 176.258 213.513 176.226 213.534 176.125C213.576 176.013 213.516 175.812 213.436 175.588C213.285 175.115 213.131 174.633 212.971 174.129C212.33 172.051 211.894 170.343 211.995 170.311C212.097 170.279 212.699 171.938 213.339 174.015C213.491 174.522 213.635 175.006 213.776 175.483C213.831 175.699 213.942 175.954 213.831 176.247C213.771 176.394 213.622 176.493 213.5 176.517C213.378 176.546 213.274 176.54 213.186 176.539C212.473 176.523 212.031 176.486 212.03 176.432Z" fill="#263238"/>
<path d="M209.703 177.066C208.998 176.586 211.648 178.259 213.08 178.277C213.08 178.277 212.18 179.535 210.746 178.907C209.256 178.256 209.703 177.066 209.703 177.066Z" fill="white"/>
<path d="M195.588 173.263C195.588 173.263 200.916 160.61 215.645 164.026C225.734 166.366 223.091 156.132 222.494 154.443C222.494 154.443 214.656 152.972 206.552 151.678C189.541 148.965 194.678 170.713 195.588 173.263Z" fill="#232323"/>
<path d="M209.242 217.226C208.92 222.276 207.397 229.931 205.328 238.418C204.525 241.706 203.642 245.119 202.712 248.557C201.205 254.135 199.638 259.744 198.02 265.026L197.96 265.213C197.842 265.75 197.66 266.319 197.496 266.842C196.093 271.506 194.747 275.823 193.575 279.487C191.329 286.495 191.316 290.401 189.522 291.191C185.922 292.782 171.746 291.074 163.249 287.394C156.071 284.341 145.134 275.128 145.192 270.492C145.257 265.118 152.471 248.938 157.253 230.048C163.153 206.971 176.242 188.544 187.16 184.744C187.974 184.48 188.847 186.19 192.01 189.227C194.935 192.03 198.616 193.779 202.099 194.152L204.178 197.617C206.991 202.58 209.762 208.989 209.242 217.226Z" fill="#FFB93E"/>
<path d="M202.712 248.557C201.908 251.845 203.638 245.119 202.712 248.557C201.205 254.135 199.638 259.744 198.019 265.026L197.959 265.213C197.842 265.75 197.659 266.319 197.496 266.842C196.092 271.506 194.746 275.823 193.574 279.487C170.873 250.662 183.747 216.145 183.747 216.145L202.712 248.557Z" fill="#FFA412"/>
<path d="M170.914 206.442C170.914 206.442 183.36 250.94 193.288 259.926C198.439 264.587 226.963 283.605 229.312 277.539C229.312 277.539 232.836 273.233 230.879 270.688C230.879 270.688 206.903 253.452 205.036 252.294C201.785 250.275 205.788 209.872 197.272 202.915C188.756 195.958 175.664 194.155 170.914 206.442Z" fill="#FFB93E"/>
<path d="M204.578 166.965C204.578 166.965 206.41 163.939 211.29 163.448C211.29 163.448 196.94 163.751 196.343 168.158C195.746 172.565 195.588 173.262 195.588 173.262C195.588 173.262 203.169 173.573 204.578 166.965Z" fill="#232323"/>
<g opacity="0.3">
<rect x="231.838" y="62.7151" width="38.2432" height="12.0979" stroke="#CD9E64"/>
<rect x="254.73" y="74.9944" width="38.2433" height="12.0979" stroke="#CD9E64"/>
<rect x="216.305" y="74.9944" width="38.2433" height="12.0979" stroke="#CD9E64"/>
<rect x="274.352" y="87.2737" width="38.2432" height="12.0979" stroke="#CD9E64"/>
<rect opacity="0.1" x="380.635" y="13.5979" width="38.2432" height="12.0979" stroke="#CD9E64"/>
<rect opacity="0.4" x="76.5" y="0.5" width="38.2432" height="12.0979" stroke="#CD9E64"/>
<rect opacity="0.4" x="99.3926" y="12.7793" width="38.2432" height="12.0979" stroke="#CD9E64"/>
<rect x="99.3926" y="111.832" width="38.2432" height="12.0979" stroke="#CD9E64"/>
<rect x="116.561" y="124.112" width="38.2432" height="12.0979" stroke="#CD9E64"/>
</g>
<rect opacity="0.2" x="433.5" y="292.02" width="38.2432" height="12.0979" stroke="#CD9E64"/>
<rect opacity="0.2" x="456.393" y="304.299" width="38.2432" height="12.0979" stroke="#CD9E64"/>
<rect opacity="0.2" x="0.5" y="222.02" width="38.2432" height="12.0979" stroke="#CD9E64"/>
</svg>
