<svg width="696" height="680" viewBox="0 0 696 680" fill="none" xmlns="http://www.w3.org/2000/svg">
<g filter="url(#filter0_d)">
<path d="M315.473 42.5269C333.437 24.5628 362.563 24.5628 380.527 42.5269L633.473 295.473C651.437 313.437 651.437 342.563 633.473 360.527L380.527 613.473C362.563 631.437 333.437 631.437 315.473 613.473L62.5269 360.527C44.5628 342.563 44.5628 313.437 62.5269 295.473L315.473 42.5269Z" fill="#F8F4EE"/>
</g>
<g filter="url(#filter1_d)">
<rect x="459.154" y="472" width="76.9861" height="76.9861" rx="14" transform="rotate(45 459.154 472)" fill="#8F7A61"/>
</g>
<path d="M465.016 516.284L462.354 514.757L459.692 516.284L457.031 514.757L454.369 516.284L452.373 515.139V533.132H464.253V535.772C464.253 536.529 464.872 537.145 465.632 537.145C466.393 537.145 467.012 536.529 467.012 535.772V515.139L465.016 516.284ZM459.692 526.741H453.994V525.415H459.693L459.692 526.741ZM465.391 523.846H453.994V522.52H465.391V523.846ZM465.391 520.951H453.994V519.625H465.391V520.951Z" fill="#F8F4EE"/>
<path d="M463.198 534.562H448.928V535.825C448.928 536.553 449.531 537.145 450.272 537.145H463.566C463.333 536.758 463.198 536.307 463.198 535.825L463.198 534.562Z" fill="#F8F4EE"/>
<mask id="mask0" mask-type="alpha" maskUnits="userSpaceOnUse" x="404" y="472" width="110" height="109">
<rect x="458.887" y="472" width="76.9861" height="76.9861" rx="14" transform="rotate(45 458.887 472)" fill="#8F7A61"/>
</mask>
<g mask="url(#mask0)">
<g filter="url(#filter2_d)">
<rect x="424.592" y="531.576" width="40.2629" height="40.2629" rx="6" transform="rotate(45 424.592 531.576)" fill="#F8F4EE"/>
</g>
</g>
<mask id="mask1" mask-type="alpha" maskUnits="userSpaceOnUse" x="371" y="512" width="108" height="103">
<path d="M478.891 600.879L416.911 538.899L389.037 512.008L371 572.349L413.304 614.653L478.891 600.879Z" fill="#C4C4C4"/>
</mask>
<g mask="url(#mask1)">
<g filter="url(#filter3_d)">
<path d="M420.351 535.819C422.694 533.476 426.493 533.476 428.836 535.819L448.821 555.804C451.164 558.147 451.164 561.946 448.821 564.289L428.836 584.274C426.493 586.617 422.694 586.617 420.351 584.274L400.366 564.289C398.023 561.946 398.023 558.147 400.366 555.804L420.351 535.819Z" fill="#F8F4EE"/>
</g>
<path d="M429.12 560.745C428.761 560.745 428.469 561.037 428.469 561.396C428.469 561.756 428.761 562.048 429.12 562.048H431.074V560.745H429.12Z" fill="#8F7A61"/>
<path d="M427.746 561.365C427.746 560.546 428.398 559.877 429.194 559.877H430.641V558.016C430.641 557.807 430.482 557.643 430.28 557.643H429.556V556.527C429.556 556.318 429.397 556.155 429.194 556.155H428.333L427.71 554.874C427.616 554.688 427.399 554.614 427.225 554.703L426.386 555.135L426.263 554.874C426.169 554.688 425.952 554.614 425.778 554.703L422.955 556.155H420.871C420.27 556.155 419.785 556.653 419.785 557.271V563.971C419.785 564.589 420.27 565.087 420.871 565.087H430.28C430.482 565.087 430.641 564.924 430.641 564.715V562.854H429.194C428.398 562.854 427.746 562.184 427.746 561.365ZM428.832 556.899V557.182L428.695 556.899H428.832ZM427.225 555.537L428.246 557.643H427.609L426.711 555.797L427.225 555.537ZM420.871 556.899H421.508L420.531 557.398C420.516 557.36 420.509 557.316 420.509 557.271C420.509 557.063 420.668 556.899 420.871 556.899ZM421.681 557.643L425.778 555.537L426.798 557.643H421.681Z" fill="#8F7A61"/>
</g>
<g filter="url(#filter4_d)">
<path d="M175.601 139.899C181.068 134.432 189.932 134.432 195.399 139.899L218.101 162.601C223.568 168.068 223.568 176.932 218.101 182.399L195.399 205.101C189.932 210.568 181.068 210.568 175.601 205.101L152.899 182.399C147.432 176.932 147.432 168.068 152.899 162.601L175.601 139.899Z" fill="#F8F4EE"/>
</g>
<path d="M193.84 171.719C192.928 171.719 192.145 171.195 191.758 170.431C191.372 171.195 190.586 171.719 189.673 171.719C188.76 171.719 187.972 171.195 187.587 170.431C187.2 171.195 186.412 171.719 185.499 171.719C184.587 171.719 183.797 171.195 183.411 170.431C183.025 171.195 182.236 171.719 181.323 171.719C180.411 171.719 179.621 171.195 179.235 170.431C178.85 171.195 178.048 171.719 177.135 171.719C176.731 171.719 176.367 171.616 176.007 171.436V180.136H174.783V182.448H196.169V180.136H195.017V171.394C194.657 171.6 194.274 171.719 193.84 171.719ZM185.512 172.984H192.64V176.524H185.512V172.984ZM178.383 172.984H183.136V178.908H178.383V172.984Z" fill="#8F7A61"/>
<path d="M174.809 169.445H174.811C174.811 169.443 174.811 169.441 174.811 169.44L174.809 169.445Z" fill="#8F7A61"/>
<path d="M179.295 169.371L180.808 164.603H184.002L183.35 169.371H187.651L187.014 164.603H190.304L191.707 169.371H196.158L193.865 164.603V161.062H177.232V164.603L174.844 169.371H179.295Z" fill="#8F7A61"/>
<path d="M491.89 426.462H217.812C210.055 426.462 203.773 420.191 203.773 412.448V241.014C203.773 233.271 210.055 227 217.812 227H491.88C499.627 227 505.919 233.271 505.919 241.014V412.457C505.919 420.191 499.636 426.462 491.89 426.462Z" fill="#232323"/>
<path d="M501.343 429.165H208.293C198.822 429.165 191.143 421.499 191.143 412.044V411.707H518.493V412.044C518.493 421.499 510.814 429.165 501.343 429.165Z" fill="#232323"/>
<path d="M496.968 234.926H211.887V403.368H496.968V234.926Z" fill="#EEE8E0"/>
<path d="M325.07 411.717L329.127 418.162H386.291L390.059 411.717H325.07Z" fill="#8F7A61"/>
<path d="M483.864 246.141H221.396V403.3H483.864V246.141Z" fill="#F8F4EE"/>
<path d="M232.602 253.894C232.602 255.106 231.62 256.097 230.396 256.097C229.182 256.097 228.189 255.115 228.189 253.894C228.189 252.682 229.172 251.691 230.396 251.691C231.62 251.691 232.602 252.682 232.602 253.894Z" fill="#8F7A61"/>
<path d="M241.591 253.894C241.591 255.106 240.608 256.097 239.384 256.097C238.161 256.097 237.178 255.115 237.178 253.894C237.178 252.682 238.161 251.691 239.384 251.691C240.608 251.691 241.591 252.682 241.591 253.894Z" fill="#8F7A61"/>
<path d="M250.571 253.894C250.571 255.106 249.588 256.097 248.365 256.097C247.141 256.097 246.158 255.115 246.158 253.894C246.158 252.682 247.141 251.691 248.365 251.691C249.588 251.691 250.571 252.682 250.571 253.894Z" fill="#8F7A61"/>
<path d="M483.864 263.512C483.864 263.647 425.1 263.762 352.635 263.762C280.141 263.762 221.396 263.647 221.396 263.512C221.396 263.378 280.141 263.262 352.635 263.262C425.11 263.262 483.864 263.368 483.864 263.512Z" fill="#8F7A61"/>
<path d="M505.928 411.842H203.783V412.803H505.928V411.842Z" fill="#8F7A61"/>
<path d="M300.327 339.865H242.922V343.703H300.327V339.865Z" fill="#232323"/>
<path d="M374.472 286.645H317.066V290.483H374.472V286.645Z" fill="#232323"/>
<path d="M459.856 300.92C459.856 301.054 427.887 301.17 388.47 301.17C349.034 301.17 317.074 301.054 317.074 300.92C317.074 300.785 349.034 300.669 388.47 300.669C427.887 300.669 459.856 300.785 459.856 300.92Z" fill="#232323"/>
<path d="M459.856 309.288C459.856 309.422 427.887 309.538 388.47 309.538C349.034 309.538 317.074 309.422 317.074 309.288C317.074 309.153 349.034 309.038 388.47 309.038C427.887 309.038 459.856 309.153 459.856 309.288Z" fill="#232323"/>
<path d="M459.856 317.665C459.856 317.8 427.887 317.915 388.47 317.915C349.034 317.915 317.074 317.8 317.074 317.665C317.074 317.531 349.034 317.415 388.47 317.415C427.887 317.415 459.856 317.521 459.856 317.665Z" fill="#232323"/>
<path d="M459.856 326.034C459.856 326.168 427.887 326.284 388.47 326.284C349.034 326.284 317.074 326.168 317.074 326.034C317.074 325.899 349.034 325.784 388.47 325.784C427.887 325.784 459.856 325.899 459.856 326.034Z" fill="#232323"/>
<path d="M459.856 334.402C459.856 334.537 427.887 334.652 388.47 334.652C349.034 334.652 317.074 334.537 317.074 334.402C317.074 334.267 349.034 334.152 388.47 334.152C427.887 334.152 459.856 334.267 459.856 334.402Z" fill="#232323"/>
<path d="M372.805 342.78C372.805 342.914 360.328 343.03 344.941 343.03C329.544 343.03 317.066 342.914 317.066 342.78C317.066 342.645 329.544 342.53 344.941 342.53C360.328 342.53 372.805 342.635 372.805 342.78Z" fill="#232323"/>
<path d="M458.806 359.026C458.806 359.16 437.792 359.276 411.883 359.276C385.965 359.276 364.951 359.16 364.951 359.026C364.951 358.891 385.956 358.776 411.883 358.776C437.802 358.776 458.806 358.881 458.806 359.026Z" fill="#232323"/>
<path d="M458.806 367.913C458.806 368.048 437.792 368.164 411.883 368.164C385.965 368.164 364.951 368.048 364.951 367.913C364.951 367.779 385.956 367.663 411.883 367.663C437.802 367.663 458.806 367.769 458.806 367.913Z" fill="#232323"/>
<path d="M458.806 376.791C458.806 376.926 437.792 377.041 411.883 377.041C385.965 377.041 364.951 376.926 364.951 376.791C364.951 376.657 385.956 376.541 411.883 376.541C437.802 376.541 458.806 376.657 458.806 376.791Z" fill="#232323"/>
<path d="M458.806 385.679C458.806 385.814 437.792 385.929 411.883 385.929C385.965 385.929 364.951 385.814 364.951 385.679C364.951 385.545 385.956 385.429 411.883 385.429C437.802 385.429 458.806 385.545 458.806 385.679Z" fill="#232323"/>
<path d="M300.472 358.17C300.472 358.304 287.947 358.42 272.502 358.42C257.047 358.42 244.531 358.304 244.531 358.17C244.531 358.035 257.057 357.92 272.502 357.92C287.947 357.92 300.472 358.035 300.472 358.17Z" fill="#232323"/>
<path d="M300.472 365.153C300.472 365.287 287.947 365.403 272.502 365.403C257.047 365.403 244.531 365.287 244.531 365.153C244.531 365.018 257.057 364.903 272.502 364.903C287.947 364.903 300.472 365.008 300.472 365.153Z" fill="#232323"/>
<path d="M300.472 372.126C300.472 372.261 287.947 372.376 272.502 372.376C257.047 372.376 244.531 372.261 244.531 372.126C244.531 371.991 257.057 371.876 272.502 371.876C287.947 371.876 300.472 371.991 300.472 372.126Z" fill="#232323"/>
<path d="M300.472 379.109C300.472 379.244 287.947 379.36 272.502 379.36C257.047 379.36 244.531 379.244 244.531 379.109C244.531 378.975 257.057 378.859 272.502 378.859C287.947 378.859 300.472 378.975 300.472 379.109Z" fill="#232323"/>
<path d="M300.472 386.083C300.472 386.218 287.947 386.333 272.502 386.333C257.047 386.333 244.531 386.218 244.531 386.083C244.531 385.948 257.057 385.833 272.502 385.833C287.947 385.833 300.472 385.948 300.472 386.083Z" fill="#232323"/>
<path d="M300.472 274.112H242.922V329.698H300.472V274.112Z" fill="#699DEE"/>
<path d="M247.383 324.947L263.3 296.341L276.326 314.626L284.237 304.911L296.011 324.947H247.383Z" fill="white"/>
<path d="M281.868 290.781C281.868 293.061 280.018 294.917 277.725 294.917C275.432 294.917 273.582 293.071 273.582 290.781C273.582 288.502 275.432 286.645 277.725 286.645C280.018 286.645 281.868 288.492 281.868 290.781Z" fill="white"/>
<path d="M296.013 325.101C296.013 325.101 296.004 325.024 296.004 324.87C296.004 324.706 295.994 324.495 295.994 324.225C295.984 323.639 295.975 322.802 295.965 321.725C295.946 319.522 295.927 316.329 295.907 312.289C295.878 304.171 295.84 292.609 295.782 278.729L296.013 278.96C281.927 278.97 265.239 278.989 247.395 278.999C247.327 279.056 247.906 278.479 247.665 278.729V278.739V278.768V278.816V278.912V279.114V279.508V280.297V281.874C247.665 282.923 247.665 283.971 247.665 285.01C247.665 287.097 247.665 289.156 247.665 291.195C247.665 295.283 247.665 299.275 247.655 303.17C247.645 310.952 247.636 318.32 247.626 325.082L247.385 324.841C261.896 324.889 274.017 324.937 282.544 324.966C286.793 324.995 290.146 325.014 292.458 325.024C293.585 325.033 294.472 325.043 295.088 325.053C295.377 325.062 295.599 325.062 295.772 325.062C295.927 325.091 296.004 325.091 296.013 325.101C296.013 325.101 295.946 325.11 295.801 325.11C295.638 325.11 295.416 325.12 295.146 325.12C294.539 325.13 293.672 325.139 292.564 325.149C290.261 325.168 286.927 325.187 282.698 325.216C274.142 325.245 261.963 325.284 247.385 325.341H247.144V325.101C247.135 318.329 247.125 310.971 247.116 303.189C247.116 299.294 247.116 295.293 247.106 291.214C247.106 289.175 247.106 287.107 247.106 285.029C247.106 283.991 247.106 282.942 247.106 281.894V280.316V279.528V279.133V278.931V278.816V278.768V278.739V278.729C246.865 278.97 247.443 278.383 247.385 278.45C265.229 278.46 281.927 278.479 296.004 278.489H296.245V278.72C296.196 292.667 296.158 304.276 296.129 312.433C296.1 316.454 296.081 319.628 296.071 321.821C296.062 322.879 296.052 323.696 296.042 324.274C296.033 324.533 296.033 324.735 296.033 324.899C296.023 325.033 296.013 325.101 296.013 325.101Z" fill="white"/>
<path d="M357.762 354.784H317.035V394.124H357.762V354.784Z" fill="#FFB93E"/>
<path d="M320.186 390.758L331.459 370.51L340.67 383.448L346.268 376.58L354.602 390.758H320.186Z" fill="white"/>
<path d="M344.6 366.576C344.6 368.192 343.29 369.501 341.671 369.501C340.053 369.501 338.742 368.192 338.742 366.576C338.742 364.96 340.053 363.652 341.671 363.652C343.28 363.652 344.6 364.96 344.6 366.576Z" fill="white"/>
<path d="M354.601 390.863C354.601 390.863 354.592 390.806 354.592 390.7C354.592 390.585 354.582 390.431 354.582 390.238C354.582 389.825 354.573 389.228 354.563 388.468C354.553 386.91 354.534 384.65 354.524 381.783C354.505 376.041 354.476 367.856 354.438 358.035L354.601 358.199C344.639 358.208 332.817 358.218 320.195 358.227C320.147 358.266 320.561 357.862 320.387 358.035V358.045V358.064V358.102V358.17V358.314V358.593V359.151V360.267C320.387 361.007 320.387 361.748 320.387 362.488C320.387 363.96 320.387 365.422 320.387 366.865C320.387 369.76 320.387 372.588 320.387 375.339C320.378 380.85 320.378 386.054 320.368 390.854L320.195 390.681C330.466 390.719 339.041 390.748 345.072 390.767C348.079 390.787 350.449 390.806 352.087 390.815C352.886 390.825 353.513 390.835 353.946 390.835C354.149 390.835 354.303 390.844 354.428 390.844C354.544 390.854 354.601 390.863 354.601 390.863C354.601 390.863 354.553 390.873 354.447 390.873C354.332 390.873 354.178 390.883 353.985 390.883C353.551 390.883 352.944 390.892 352.154 390.902C350.526 390.912 348.165 390.931 345.178 390.95C339.118 390.969 330.504 390.998 320.185 391.037H320.012V390.863C320.002 386.073 320.002 380.86 319.992 375.349C319.992 372.598 319.992 369.76 319.983 366.875C319.983 365.432 319.983 363.97 319.983 362.498C319.983 361.757 319.983 361.017 319.983 360.276V359.16V358.603V358.324V358.179V358.112V358.073V358.054V358.045C319.809 358.218 320.214 357.804 320.185 357.843C332.817 357.852 344.629 357.862 354.592 357.871H354.756V358.035C354.717 367.904 354.688 376.118 354.669 381.889C354.65 384.736 354.64 386.978 354.63 388.536C354.621 389.286 354.611 389.863 354.611 390.277C354.611 390.46 354.601 390.604 354.601 390.719C354.611 390.815 354.601 390.863 354.601 390.863Z" fill="white"/>
<defs>
<filter id="filter0_d" x="0" y="-16" width="696" height="696" filterUnits="userSpaceOnUse" color-interpolation-filters="sRGB">
<feFlood flood-opacity="0" result="BackgroundImageFix"/>
<feColorMatrix in="SourceAlpha" type="matrix" values="0 0 0 0 0 0 0 0 0 0 0 0 0 0 0 0 0 0 127 0"/>
<feOffset dy="4"/>
<feGaussianBlur stdDeviation="15"/>
<feColorMatrix type="matrix" values="0 0 0 0 0.8875 0 0 0 0 0.846781 0 0 0 0 0.796531 0 0 0 1 0"/>
<feBlend mode="normal" in2="BackgroundImageFix" result="effect1_dropShadow"/>
<feBlend mode="normal" in="SourceGraphic" in2="effect1_dropShadow" result="shape"/>
</filter>
<filter id="filter1_d" x="374.717" y="446" width="168.875" height="168.875" filterUnits="userSpaceOnUse" color-interpolation-filters="sRGB">
<feFlood flood-opacity="0" result="BackgroundImageFix"/>
<feColorMatrix in="SourceAlpha" type="matrix" values="0 0 0 0 0 0 0 0 0 0 0 0 0 0 0 0 0 0 127 0"/>
<feOffset dy="4"/>
<feGaussianBlur stdDeviation="15"/>
<feColorMatrix type="matrix" values="0 0 0 0 0 0 0 0 0 0 0 0 0 0 0 0 0 0 0.3 0"/>
<feBlend mode="normal" in2="BackgroundImageFix" result="effect1_dropShadow"/>
<feBlend mode="normal" in="SourceGraphic" in2="effect1_dropShadow" result="shape"/>
</filter>
<filter id="filter2_d" x="366.121" y="505.576" width="116.94" height="116.94" filterUnits="userSpaceOnUse" color-interpolation-filters="sRGB">
<feFlood flood-opacity="0" result="BackgroundImageFix"/>
<feColorMatrix in="SourceAlpha" type="matrix" values="0 0 0 0 0 0 0 0 0 0 0 0 0 0 0 0 0 0 127 0"/>
<feOffset dy="4"/>
<feGaussianBlur stdDeviation="15"/>
<feColorMatrix type="matrix" values="0 0 0 0 0.416667 0 0 0 0 0.343152 0 0 0 0 0.252431 0 0 0 1 0"/>
<feBlend mode="normal" in2="BackgroundImageFix" result="effect1_dropShadow"/>
<feBlend mode="normal" in="SourceGraphic" in2="effect1_dropShadow" result="shape"/>
</filter>
<filter id="filter3_d" x="366.123" y="505.576" width="116.94" height="116.94" filterUnits="userSpaceOnUse" color-interpolation-filters="sRGB">
<feFlood flood-opacity="0" result="BackgroundImageFix"/>
<feColorMatrix in="SourceAlpha" type="matrix" values="0 0 0 0 0 0 0 0 0 0 0 0 0 0 0 0 0 0 127 0"/>
<feOffset dy="4"/>
<feGaussianBlur stdDeviation="15"/>
<feColorMatrix type="matrix" values="0 0 0 0 0.8875 0 0 0 0 0.846781 0 0 0 0 0.796531 0 0 0 1 0"/>
<feBlend mode="normal" in2="BackgroundImageFix" result="effect1_dropShadow"/>
<feBlend mode="normal" in="SourceGraphic" in2="effect1_dropShadow" result="shape"/>
</filter>
<filter id="filter4_d" x="113" y="104" width="145" height="145" filterUnits="userSpaceOnUse" color-interpolation-filters="sRGB">
<feFlood flood-opacity="0" result="BackgroundImageFix"/>
<feColorMatrix in="SourceAlpha" type="matrix" values="0 0 0 0 0 0 0 0 0 0 0 0 0 0 0 0 0 0 127 0"/>
<feOffset dy="4"/>
<feGaussianBlur stdDeviation="15"/>
<feColorMatrix type="matrix" values="0 0 0 0 0.8875 0 0 0 0 0.846781 0 0 0 0 0.796531 0 0 0 1 0"/>
<feBlend mode="normal" in2="BackgroundImageFix" result="effect1_dropShadow"/>
<feBlend mode="normal" in="SourceGraphic" in2="effect1_dropShadow" result="shape"/>
</filter>
</defs>
</svg>
