<svg width="533" height="360" viewBox="0 0 533 360" fill="none" xmlns="http://www.w3.org/2000/svg">
<path opacity="0.1" fill-rule="evenodd" clip-rule="evenodd" d="M457.02 114.658C458.273 115.592 459.386 116.684 460.33 117.888L464.546 117.122L467.332 123.637L463.855 126.147C464.079 127.659 464.098 129.209 463.901 130.767L467.426 133.203L464.78 139.774L460.545 139.093C459.61 140.343 458.516 141.454 457.31 142.397L458.077 146.606L451.551 149.387L449.036 145.915C447.522 146.139 445.97 146.158 444.409 145.962L441.968 149.48L435.377 146.839L436.06 142.611C434.807 141.678 433.694 140.586 432.75 139.382L428.534 140.147L425.748 133.633L429.226 131.122C429.001 129.61 428.983 128.061 429.179 126.502L425.654 124.066L428.3 117.496L432.535 118.177C433.47 116.926 434.564 115.816 435.77 114.873L435.003 110.664L441.529 107.882L444.044 111.354C445.558 111.13 447.11 111.112 448.672 111.308L451.112 107.789L457.694 110.43L457.02 114.658ZM449.691 121.705C445.792 120.137 441.351 122.032 439.79 125.923C438.219 129.815 440.117 134.249 444.016 135.807C447.914 137.375 452.355 135.481 453.917 131.589C455.478 127.697 453.589 123.273 449.691 121.705Z" fill="#CD9E64"/>
<path opacity="0.1" fill-rule="evenodd" clip-rule="evenodd" d="M65.6019 143.069C67.8737 144.758 69.8744 146.727 71.5759 148.911L79.2048 147.52L84.2439 159.299L77.9613 163.835C78.3633 166.57 78.4007 169.379 78.0548 172.188L84.4309 176.584L79.6442 188.465L71.9966 187.243C70.3044 189.511 68.3224 191.508 66.1441 193.206L67.5371 200.822L55.7386 205.853L51.1949 199.581C48.4556 199.973 45.6416 200.02 42.8368 199.674L38.4334 206.04L26.5321 201.261L27.7568 193.626C25.485 191.937 23.4843 189.959 21.7827 187.784L14.1539 189.175L9.11472 177.396L15.3973 172.86C14.9953 170.125 14.9579 167.316 15.3038 164.516L8.92773 160.12L13.7145 148.239L21.362 149.462C23.0542 147.194 25.0362 145.197 27.2145 143.498L25.8215 135.882L37.6201 130.851L42.1637 137.123C44.903 136.722 47.7171 136.685 50.5218 137.03L54.9252 130.665L66.8266 135.443L65.6019 143.069ZM52.3449 155.808C45.2957 152.98 37.2741 156.396 34.4414 163.434C31.6086 170.471 35.0304 178.479 42.0796 181.307C49.1288 184.135 57.1503 180.719 59.9831 173.681C62.8158 166.644 59.4034 158.636 52.3449 155.808Z" fill="#CD9E64"/>
<path opacity="0.1" fill-rule="evenodd" clip-rule="evenodd" d="M34.3017 83.4388C35.5545 84.3721 36.667 85.4641 37.6113 86.668L41.8277 85.9027L44.6137 92.4173L41.1359 94.9279C41.3603 96.4399 41.379 97.9892 41.1826 99.5479L44.7072 101.984L42.0708 108.564L37.8357 107.882C36.9008 109.133 35.8069 110.244 34.6009 111.186L35.3675 115.396L28.8418 118.177L26.3269 114.705C24.8124 114.92 23.2604 114.948 21.6991 114.752L19.259 118.27L12.6773 115.629L13.3598 111.401C12.107 110.468 10.9945 109.376 10.0502 108.172L5.83376 108.937L3.04774 102.422L6.52559 99.9119C6.30122 98.3999 6.28252 96.8506 6.47885 95.2919L2.93555 92.8653L5.58134 86.2947L9.81647 86.976C10.7514 85.7254 11.8452 84.6147 13.0513 83.6721L12.2846 79.4628L18.8103 76.6815L21.3252 80.1535C22.8397 79.9295 24.3917 79.9108 25.953 80.1068L28.3931 76.5882L34.9748 79.2295L34.3017 83.4388ZM26.9627 90.4947C23.0641 88.9267 18.6233 90.8213 17.062 94.7133C15.4914 98.6052 17.3892 103.038 21.2878 104.597C25.1864 106.165 29.6272 104.27 31.1885 100.379C32.7591 96.4866 30.8612 92.0626 26.9627 90.4947Z" fill="#8F7A61"/>
<path opacity="0.1" fill-rule="evenodd" clip-rule="evenodd" d="M120.172 31.6022C123.837 32.9462 127.259 34.7661 130.372 36.9781L139.908 32.1435L151.202 45.7326L144.686 54.1979C146.284 57.6605 147.443 61.3471 148.098 65.1924L158.26 68.5056L156.615 86.0894L146.022 87.4707C144.676 91.1293 142.853 94.5453 140.637 97.6532L145.48 107.173L131.868 118.448L123.388 111.942C119.92 113.538 116.227 114.696 112.375 115.349L109.056 125.494L91.4425 123.851L90.0588 113.277C86.394 111.933 82.9722 110.113 79.859 107.901L70.3229 112.736L59.0293 99.1465L65.5456 90.6813C63.9469 87.2187 62.7876 83.5321 62.1332 79.6868L51.9707 76.3735L53.6161 58.7898L64.2086 57.4085C65.5549 53.7499 67.378 50.3339 69.5937 47.226L64.7509 37.7061L78.3632 26.4316L86.8428 32.9368C90.3113 31.3409 94.0042 30.1835 97.856 29.5302L101.175 19.385L118.789 21.0277L120.172 31.6022ZM107.663 53.6472C97.2296 52.6765 87.9834 60.3391 87.011 70.7549C86.0387 81.1708 93.7143 90.4013 104.148 91.372C114.581 92.3426 123.828 84.6894 124.8 74.2642C125.772 63.8484 118.097 54.6178 107.663 53.6472Z" fill="#8F7A61"/>
<path d="M46.2404 322.565C57.908 314.939 60.881 300.333 60.7501 287.145C60.7314 284.942 61.0306 282.628 60.0116 280.668C58.9925 278.708 56.5524 277.336 54.5237 278.213C52.8502 278.941 52.0742 280.826 51.1112 282.376C49.8211 284.438 47.9419 286.128 45.7542 287.182C44.3145 287.873 42.5475 288.274 41.1545 287.481C39.2566 286.389 39.0883 283.757 39.1631 281.573C39.2846 277.495 39.4155 273.416 39.5371 269.337C39.6025 267.153 39.668 264.913 39.0229 262.823C38.3871 260.732 36.9006 258.763 34.8064 258.128C32.7029 257.494 30.0665 258.632 29.571 260.76C29.3653 261.647 29.5242 262.58 29.4401 263.485C29.3559 264.391 28.8978 265.389 28.019 265.623C27.1215 265.856 26.252 265.212 25.6069 264.559C23.3725 262.291 21.886 259.407 20.5023 256.542C19.1187 253.676 17.7818 250.746 15.753 248.282C13.7336 245.827 10.9008 243.848 7.72216 243.587C4.54347 243.335 1.11236 245.183 0.233544 248.244C-0.645269 251.306 1.10301 254.488 3.02892 257.027C5.88974 260.797 9.2928 264.167 13.1166 266.967C13.8084 267.471 14.547 268.021 14.7994 268.833C15.2482 270.308 13.8084 271.717 12.3313 272.165C10.6578 272.669 8.87209 272.455 7.13317 272.613C5.39424 272.772 3.50572 273.481 2.80454 275.077C1.84159 277.289 3.68335 279.679 5.51577 281.265C9.18061 284.429 13.397 286.958 17.9127 288.713C19.53 289.338 21.2409 289.898 22.5311 291.065C23.8213 292.232 24.5692 294.21 23.7371 295.732C22.9051 297.253 20.8483 297.701 19.1467 297.346C17.4452 296.992 15.9306 296.04 14.3133 295.396C11.2842 294.182 7.33884 294.304 5.31944 296.852C3.99187 298.532 3.82359 300.902 4.42193 302.956C5.02027 305.009 6.3011 306.791 7.65671 308.443C12.406 314.211 18.5577 318.915 25.5789 321.51C32.6001 324.123 39.1444 324.935 46.2404 322.565Z" fill="#CD9E64"/>
<path d="M3.51562 245.332C3.51562 245.342 3.58107 245.407 3.73065 245.547C3.88959 245.696 4.10462 245.892 4.37574 246.144C4.94603 246.667 5.78745 247.432 6.83455 248.45C8.94744 250.475 11.9017 253.527 15.0991 257.671C16.6978 259.733 18.362 262.076 20.1009 264.615C21.8305 267.163 23.6722 269.888 25.486 272.837C27.309 275.777 29.1228 278.923 30.7401 282.32C31.5535 284.009 32.2734 285.782 33.012 287.584C33.7412 289.385 34.4891 291.214 35.2371 293.062C38.2101 300.473 40.8185 307.641 42.6322 314.314C44.4646 320.978 45.5023 327.147 45.895 332.355C46.297 337.572 46.082 341.81 45.8015 344.722C45.6519 346.178 45.5117 347.307 45.3808 348.063C45.3247 348.427 45.2873 348.716 45.2593 348.931C45.2312 349.127 45.2219 349.229 45.2312 349.229C45.2406 349.229 45.2593 349.136 45.2967 348.94C45.3341 348.726 45.3902 348.446 45.4649 348.082C45.6145 347.326 45.7828 346.196 45.9604 344.74C46.297 341.828 46.5588 337.572 46.1848 332.336C45.8296 327.1 44.8199 320.903 42.9968 314.211C41.1924 307.51 38.5934 300.333 35.611 292.913C34.8631 291.065 34.1152 289.226 33.3859 287.425C32.6474 285.624 31.9181 283.841 31.1048 282.142C29.478 278.727 27.6456 275.572 25.8132 272.632C23.9808 269.692 22.1296 266.957 20.3907 264.419C18.6424 261.88 16.9596 259.547 15.3422 257.484C12.1074 253.35 9.10637 250.316 6.96544 248.319C5.89029 247.32 5.03953 246.564 4.45053 246.07C4.17006 245.836 3.94568 245.64 3.7774 245.5C3.59977 245.388 3.52497 245.332 3.51562 245.332Z" fill="#232323"/>
<path d="M30.983 282.133C31.0111 282.143 31.0952 281.806 31.2261 281.209C31.357 280.603 31.5159 279.735 31.7029 278.643C32.0675 276.468 32.4695 273.453 32.9089 270.131C33.339 266.799 33.7878 263.803 34.1898 261.637C34.3861 260.555 34.5544 259.687 34.6759 259.08C34.7975 258.483 34.8536 258.137 34.8255 258.137C34.7975 258.128 34.6946 258.455 34.5263 259.052C34.3581 259.64 34.143 260.508 33.9093 261.591C33.4325 263.747 32.937 266.752 32.5069 270.084C32.0862 273.369 31.7123 276.337 31.4224 278.605C31.2822 279.632 31.17 280.491 31.0765 281.181C30.983 281.788 30.955 282.124 30.983 282.133Z" fill="#232323"/>
<path d="M2.55273 276.197C2.55273 276.225 2.95474 276.281 3.68397 276.356C4.4132 276.44 5.479 276.552 6.77852 276.729C9.38691 277.065 12.977 277.663 16.9036 278.493C20.8302 279.324 24.3548 280.229 26.879 280.957C28.1505 281.312 29.1602 281.629 29.8707 281.834C30.5719 282.049 30.9646 282.161 30.9739 282.133C30.9833 282.105 30.6093 281.946 29.9175 281.685C29.2257 281.424 28.216 281.069 26.9632 280.677C24.4483 279.875 20.9237 278.923 16.9877 278.092C13.0518 277.261 9.44301 276.711 6.81591 276.44C5.50704 276.3 4.44125 276.225 3.70267 276.197C2.96409 276.169 2.55273 276.169 2.55273 276.197Z" fill="#232323"/>
<path d="M42.6496 313.698C42.659 313.707 42.7337 313.586 42.8553 313.362C42.9955 313.091 43.1638 312.755 43.3695 312.354C43.8089 311.477 44.4166 310.198 45.1458 308.602C46.6043 305.41 48.4741 300.94 50.4748 295.984C52.4755 291.018 54.2986 286.538 55.6916 283.328C56.3741 281.769 56.935 280.481 57.3464 279.52C57.524 279.109 57.6736 278.764 57.7951 278.484C57.8886 278.241 57.9354 278.12 57.926 278.111C57.9167 278.101 57.8419 278.223 57.7203 278.447C57.5801 278.717 57.4118 279.053 57.2061 279.455C56.7667 280.332 56.159 281.61 55.4298 283.206C53.9713 286.398 52.1015 290.869 50.1008 295.825C48.1001 300.781 46.277 305.261 44.884 308.481C44.2016 310.039 43.6406 311.327 43.2293 312.289C43.0516 312.699 42.902 313.045 42.7898 313.325C42.687 313.558 42.6403 313.689 42.6496 313.698Z" fill="#232323"/>
<path d="M5.00195 300.744C5.00195 300.753 5.12349 300.809 5.37592 300.902C5.66574 301.005 6.03035 301.136 6.46976 301.294C7.47946 301.64 8.84442 302.116 10.4992 302.685C13.9023 303.861 18.5862 305.541 23.7562 307.407C28.9262 309.274 33.6288 310.907 37.0599 312.018C38.7708 312.569 40.1638 313.007 41.1361 313.287C41.5849 313.418 41.9495 313.521 42.2487 313.605C42.5011 313.67 42.6413 313.707 42.6507 313.689C42.6507 313.679 42.5292 313.623 42.2767 313.53C41.9869 313.427 41.6223 313.297 41.1829 313.138C40.1732 312.793 38.8082 312.317 37.1534 311.747C33.7504 310.571 29.0665 308.891 23.8964 307.025C18.7264 305.158 14.0238 303.525 10.5927 302.414C8.88182 301.864 7.48881 301.425 6.5165 301.145C6.06775 301.014 5.70313 300.912 5.40396 300.828C5.14219 300.753 5.00195 300.725 5.00195 300.744Z" fill="#232323"/>
<path d="M425.645 224.053L369.242 223.791C362.455 223.763 356.986 218.266 357.014 211.509L357.612 70.727C357.64 63.9697 363.165 58.5191 369.953 58.5471L426.356 58.8085C433.143 58.8365 438.613 64.343 438.585 71.0909L437.986 211.873C437.958 218.63 432.433 224.081 425.645 224.053Z" fill="#232323"/>
<path d="M426.272 63.6617L415.334 63.6151C413.866 63.6057 412.669 64.8377 412.669 66.3684L412.66 68.347C412.651 69.8776 411.463 71.1096 409.996 71.1003L388.68 70.9976C387.212 70.9883 386.034 69.747 386.034 68.2257L386.043 66.247C386.053 64.7164 384.865 63.4751 383.397 63.4751L379.555 63.4564L369.982 63.4097C365.232 63.3911 361.352 67.2083 361.334 71.9403L360.754 209.353C360.735 214.085 364.568 217.93 369.318 217.958L425.609 218.219C430.358 218.238 434.228 214.421 434.256 209.689L434.836 72.2763C434.855 67.535 431.022 63.6897 426.272 63.6617Z" fill="#F8F4EE"/>
<path d="M425.346 157.162H369.645V160.886H425.346V157.162Z" fill="#8F7A61"/>
<path d="M423.364 171.815C423.364 171.945 411.472 172.057 396.813 172.057C382.144 172.057 370.262 171.945 370.262 171.815C370.262 171.684 382.144 171.572 396.813 171.572C411.472 171.563 423.364 171.675 423.364 171.815Z" fill="#8F7A61"/>
<path d="M423.364 83.5788C423.364 83.7094 411.472 83.8214 396.813 83.8214C382.144 83.8214 370.262 83.7094 370.262 83.5788C370.262 83.4481 382.144 83.3361 396.813 83.3361C411.472 83.3361 423.364 83.4388 423.364 83.5788Z" fill="#8F7A61"/>
<path d="M423.364 178.581C423.364 178.712 411.472 178.824 396.813 178.824C382.144 178.824 370.262 178.712 370.262 178.581C370.262 178.451 382.144 178.339 396.813 178.339C411.472 178.339 423.364 178.451 423.364 178.581Z" fill="#8F7A61"/>
<path d="M423.364 185.357C423.364 185.488 411.472 185.6 396.813 185.6C382.144 185.6 370.262 185.488 370.262 185.357C370.262 185.227 382.144 185.115 396.813 185.115C411.472 185.115 423.364 185.217 423.364 185.357Z" fill="#8F7A61"/>
<path d="M423.364 192.124C423.364 192.255 411.472 192.367 396.813 192.367C382.144 192.367 370.262 192.255 370.262 192.124C370.262 191.993 382.144 191.881 396.813 191.881C411.472 191.881 423.364 191.993 423.364 192.124Z" fill="#8F7A61"/>
<path d="M423.364 198.9C423.364 199.03 411.472 199.142 396.813 199.142C382.144 199.142 370.262 199.03 370.262 198.9C370.262 198.769 382.144 198.657 396.813 198.657C411.472 198.657 423.364 198.76 423.364 198.9Z" fill="#8F7A61"/>
<path d="M424.122 206.572C424.122 206.702 412.23 206.814 397.571 206.814C382.902 206.814 371.02 206.702 371.02 206.572C371.02 206.441 382.902 206.329 397.571 206.329C412.23 206.329 424.122 206.441 424.122 206.572Z" fill="#8F7A61"/>
<path opacity="0.2" d="M426.094 91.2973H370.252V145.234H426.094V91.2973Z" fill="#8F7A61"/>
<path d="M374.59 140.614L390.035 112.866L402.665 130.599L410.35 121.182L421.765 140.614H374.59Z" fill="#CD9E64"/>
<path d="M408.05 107.462C408.05 109.674 406.255 111.476 404.03 111.476C401.814 111.476 400.01 109.684 400.01 107.462C400.01 105.241 401.805 103.449 404.03 103.449C406.255 103.449 408.05 105.25 408.05 107.462Z" fill="#CD9E64"/>
<path d="M421.765 140.763C421.765 140.763 421.756 140.689 421.756 140.539C421.756 140.381 421.746 140.175 421.746 139.914C421.737 139.345 421.728 138.533 421.718 137.487C421.709 135.35 421.681 132.251 421.662 128.331C421.634 120.454 421.597 109.236 421.541 95.7679L421.765 95.9919C408.097 96.0012 391.904 96.0199 374.59 96.0292C374.524 96.0852 375.085 95.5252 374.851 95.7679V95.7772V95.8052V95.8519V95.9452V96.1412V96.5239V97.2892V98.8199C374.851 99.8372 374.851 100.854 374.851 101.862C374.851 103.888 374.851 105.885 374.851 107.864C374.851 111.83 374.851 115.704 374.842 119.484C374.833 127.034 374.823 134.183 374.814 140.745L374.58 140.511C388.66 140.558 400.421 140.605 408.695 140.633C412.818 140.661 416.072 140.679 418.315 140.689C419.409 140.698 420.269 140.707 420.868 140.717C421.148 140.726 421.363 140.726 421.531 140.726C421.69 140.754 421.765 140.763 421.765 140.763C421.765 140.763 421.7 140.773 421.559 140.773C421.401 140.773 421.186 140.782 420.924 140.782C420.335 140.791 419.493 140.801 418.418 140.81C416.184 140.829 412.949 140.847 408.845 140.866C400.543 140.894 388.726 140.931 374.58 140.987H374.347V140.754C374.337 134.183 374.328 127.043 374.319 119.493C374.319 115.713 374.319 111.83 374.309 107.873C374.309 105.894 374.309 103.888 374.309 101.872C374.309 100.864 374.309 99.8465 374.309 98.8292V97.2985V96.5332V96.1506V95.9546V95.8612V95.8146V95.7866V95.7772C374.075 96.0106 374.636 95.4412 374.58 95.5066C391.895 95.5252 408.097 95.5346 421.756 95.5439H421.99V95.7679C421.943 109.301 421.905 120.566 421.868 128.481C421.84 132.382 421.821 135.462 421.812 137.59C421.803 138.617 421.793 139.41 421.784 139.97C421.775 140.222 421.775 140.418 421.775 140.577C421.775 140.707 421.775 140.773 421.765 140.763Z" fill="#8F7A61"/>
<path d="M342.298 10.7798V135.126C342.298 141.081 337.464 145.906 331.5 145.906H143.359C137.394 145.906 132.561 141.081 132.561 135.126V10.7798C132.561 4.82526 137.394 0 143.359 0H331.5C337.464 0 342.298 4.82526 342.298 10.7798Z" fill="#232323"/>
<path d="M146.914 4.60704V141.301H322.069V4.60704H146.914Z" fill="#F8F4EE"/>
<path d="M331.762 67.3483C334.856 67.3483 337.371 69.859 337.371 72.9482C337.371 76.0375 334.856 78.5482 331.762 78.5482C328.667 78.5482 326.152 76.0375 326.152 72.9482C326.152 69.859 328.658 67.3483 331.762 67.3483Z" fill="#8F7A61"/>
<path d="M140.918 52.1166V93.7893C140.918 94.4146 140.413 94.9279 139.777 94.9279H139.73C139.104 94.9279 138.59 94.4239 138.59 93.7893V52.1166C138.59 51.4912 139.095 50.9779 139.73 50.9779H139.777C140.413 50.9779 140.918 51.4819 140.918 52.1166Z" fill="#8F7A61"/>
<path d="M282.501 14.8771H226.799V18.6011H282.501V14.8771Z" fill="#8F7A61"/>
<path d="M209.942 78.8282H154.24V82.5521H209.942V78.8282Z" fill="#8F7A61"/>
<path d="M296.076 28.7276C296.076 28.8583 280.565 28.9702 261.437 28.9702C242.3 28.9702 226.799 28.8583 226.799 28.7276C226.799 28.5969 242.3 28.4849 261.437 28.4849C280.565 28.4849 296.076 28.5876 296.076 28.7276Z" fill="#8F7A61"/>
<path d="M296.076 36.8475C296.076 36.9781 280.565 37.0901 261.437 37.0901C242.3 37.0901 226.799 36.9781 226.799 36.8475C226.799 36.7168 242.3 36.6048 261.437 36.6048C280.565 36.6048 296.076 36.7168 296.076 36.8475Z" fill="#8F7A61"/>
<path d="M296.076 44.9767C296.076 45.1073 280.565 45.2193 261.437 45.2193C242.3 45.2193 226.799 45.1073 226.799 44.9767C226.799 44.846 242.3 44.734 261.437 44.734C280.565 44.7247 296.076 44.8367 296.076 44.9767Z" fill="#8F7A61"/>
<path d="M296.076 53.0965C296.076 53.2272 280.565 53.3392 261.437 53.3392C242.3 53.3392 226.799 53.2272 226.799 53.0965C226.799 52.9659 242.3 52.8539 261.437 52.8539C280.565 52.8539 296.076 52.9565 296.076 53.0965Z" fill="#8F7A61"/>
<path d="M296.076 61.2164C296.076 61.3471 280.565 61.4591 261.437 61.4591C242.3 61.4591 226.799 61.3471 226.799 61.2164C226.799 61.0857 242.3 60.9738 261.437 60.9738C280.565 60.9738 296.076 61.0857 296.076 61.2164Z" fill="#8F7A61"/>
<path d="M280.883 69.3363C280.883 69.467 268.776 69.579 253.846 69.579C238.906 69.579 226.799 69.467 226.799 69.3363C226.799 69.2056 238.906 69.0936 253.846 69.0936C268.776 69.0936 280.883 69.2056 280.883 69.3363Z" fill="#8F7A61"/>
<path d="M245.721 93.4719C245.721 93.6026 225.377 93.7146 200.284 93.7146C175.182 93.7146 154.848 93.6026 154.848 93.4719C154.848 93.3413 175.191 93.2293 200.284 93.2293C225.377 93.2293 245.721 93.3413 245.721 93.4719Z" fill="#8F7A61"/>
<path d="M245.721 100.248C245.721 100.379 225.377 100.491 200.284 100.491C175.182 100.491 154.848 100.379 154.848 100.248C154.848 100.117 175.191 100.005 200.284 100.005C225.377 100.005 245.721 100.108 245.721 100.248Z" fill="#8F7A61"/>
<path d="M245.721 107.014C245.721 107.145 225.377 107.257 200.284 107.257C175.182 107.257 154.848 107.145 154.848 107.014C154.848 106.884 175.191 106.772 200.284 106.772C225.377 106.772 245.721 106.884 245.721 107.014Z" fill="#8F7A61"/>
<path d="M245.721 113.79C245.721 113.921 225.377 114.033 200.284 114.033C175.182 114.033 154.848 113.921 154.848 113.79C154.848 113.66 175.191 113.548 200.284 113.548C225.377 113.548 245.721 113.65 245.721 113.79Z" fill="#8F7A61"/>
<path d="M245.721 120.557C245.721 120.688 225.377 120.8 200.284 120.8C175.182 120.8 154.848 120.688 154.848 120.557C154.848 120.426 175.191 120.314 200.284 120.314C225.377 120.314 245.721 120.426 245.721 120.557Z" fill="#8F7A61"/>
<path opacity="0.2" d="M210.69 12.9638H154.848V66.9003H210.69V12.9638Z" fill="#CD9E64"/>
<path d="M159.176 62.2804L174.63 34.5235L187.26 52.2659L194.936 42.8487L206.361 62.2804H159.176Z" fill="#8F7A61"/>
<path d="M192.646 29.1289C192.646 31.3409 190.851 33.1422 188.626 33.1422C186.41 33.1422 184.605 31.3502 184.605 29.1289C184.605 26.9169 186.4 25.1156 188.626 25.1156C190.851 25.1156 192.646 26.9076 192.646 29.1289Z" fill="#8F7A61"/>
<path d="M206.361 62.4297C206.361 62.4297 206.352 62.3551 206.352 62.2057C206.352 62.0471 206.342 61.8418 206.342 61.5804C206.333 61.0018 206.323 60.1991 206.314 59.1538C206.295 57.0165 206.277 53.9179 206.258 49.9979C206.23 42.1207 206.193 30.9022 206.136 17.4344L206.361 17.6584C192.692 17.6677 176.5 17.6864 159.185 17.6957C159.12 17.7517 159.681 17.1917 159.447 17.4344V17.4437V17.4717V17.5184V17.6117V17.8077V18.1904V18.9557V20.4864C159.447 21.5037 159.447 22.521 159.447 23.529C159.447 25.5543 159.447 27.5516 159.447 29.5302C159.447 33.4968 159.447 37.3701 159.438 41.1501C159.428 48.7006 159.419 55.8498 159.41 62.4111L159.176 62.1777C173.256 62.2244 185.017 62.2711 193.291 62.2991C197.414 62.3271 200.667 62.3457 202.911 62.3644C204.005 62.3737 204.865 62.3831 205.463 62.3924C205.744 62.4017 205.959 62.4017 206.127 62.4017C206.277 62.4204 206.361 62.4297 206.361 62.4297C206.361 62.4297 206.295 62.4391 206.155 62.4391C205.996 62.4391 205.781 62.4484 205.519 62.4484C204.93 62.4577 204.089 62.4671 203.014 62.4764C200.779 62.4951 197.545 62.5137 193.44 62.5324C185.138 62.5604 173.321 62.5977 159.176 62.6537H158.942V62.4204C158.933 55.8498 158.924 48.7099 158.914 41.1594C158.914 37.3794 158.914 33.4968 158.905 29.5396C158.905 27.5609 158.905 25.5543 158.905 23.5383C158.905 22.5303 158.905 21.513 158.905 20.4957V18.965V18.1997V17.8171V17.6211V17.5277V17.4811V17.4531V17.4437C158.671 17.6771 159.232 17.1077 159.176 17.1731C176.491 17.1824 192.693 17.2011 206.352 17.2104H206.585V17.4344C206.538 30.9675 206.501 42.2327 206.464 50.1473C206.436 54.0485 206.417 57.1285 206.408 59.2565C206.398 60.2831 206.389 61.0764 206.38 61.6364C206.37 61.8884 206.37 62.0844 206.37 62.2431C206.37 62.3737 206.37 62.4391 206.361 62.4297Z" fill="#8F7A61"/>
<path opacity="0.2" d="M297.776 85.9867H258.258V124.16H297.776V85.9867Z" fill="#CD9E64"/>
<path d="M261.324 120.884L272.253 101.247L281.2 113.8L286.632 107.136L294.719 120.884H261.324Z" fill="#8F7A61"/>
<path d="M285.005 97.4292C285.005 98.9972 283.733 100.267 282.162 100.267C280.592 100.267 279.32 98.9972 279.32 97.4292C279.32 95.8613 280.592 94.5919 282.162 94.5919C283.733 94.5826 285.005 95.8613 285.005 97.4292Z" fill="#8F7A61"/>
<path d="M294.719 120.996C294.719 120.996 294.71 120.94 294.71 120.837C294.71 120.725 294.71 120.576 294.7 120.389C294.7 119.978 294.691 119.409 294.682 118.672C294.672 117.16 294.654 114.966 294.644 112.185C294.626 106.613 294.597 98.6706 294.56 89.1414L294.719 89.3C285.052 89.3094 273.581 89.3187 261.333 89.328C261.287 89.3654 261.689 88.9734 261.52 89.1414V89.1507V89.1694V89.2067V89.272V89.412V89.6827V90.224V91.3067C261.52 92.0253 261.52 92.744 261.52 93.4626C261.52 94.8906 261.52 96.3093 261.52 97.7092C261.52 100.519 261.52 103.262 261.52 105.932C261.511 111.28 261.511 116.329 261.502 120.977L261.343 120.809C271.309 120.846 279.63 120.874 285.482 120.893C288.399 120.912 290.699 120.93 292.288 120.94C293.064 120.949 293.672 120.958 294.093 120.958C294.289 120.958 294.439 120.968 294.56 120.968C294.654 120.986 294.71 120.996 294.719 120.996C294.719 120.996 294.672 121.005 294.569 121.005C294.457 121.005 294.308 121.014 294.121 121.014C293.7 121.014 293.111 121.024 292.344 121.033C290.764 121.042 288.474 121.061 285.576 121.08C279.695 121.098 271.337 121.126 261.324 121.164H261.156V120.996C261.146 116.348 261.146 111.289 261.137 105.95C261.137 103.281 261.137 100.528 261.137 97.7279C261.137 96.3279 261.137 94.9093 261.137 93.4813C261.137 92.7626 261.137 92.044 261.137 91.3253V90.2427V89.7014V89.412V89.272V89.2067V89.1694V89.1507V89.1414C260.969 89.3094 261.371 88.908 261.333 88.9454C273.59 88.9547 285.052 88.964 294.719 88.9734H294.878V89.132C294.841 98.7079 294.812 106.678 294.794 112.278C294.775 115.041 294.756 117.216 294.756 118.728C294.747 119.456 294.738 120.016 294.738 120.417C294.738 120.594 294.728 120.734 294.728 120.846C294.719 120.949 294.719 120.996 294.719 120.996Z" fill="#8F7A61"/>
<path d="M326.235 354.195H60.2915C52.7655 354.195 46.6699 348.109 46.6699 340.596V174.251C46.6699 166.738 52.7655 160.652 60.2915 160.652H326.226C333.743 160.652 339.848 166.738 339.848 174.251V340.606C339.848 348.109 333.752 354.195 326.235 354.195Z" fill="#232323"/>
<path d="M335.408 356.817H51.0554C41.8653 356.817 34.4141 349.379 34.4141 340.204V339.878H352.049V340.204C352.049 349.379 344.598 356.817 335.408 356.817Z" fill="#232323"/>
<path d="M331.164 168.343H54.543V331.786H331.164V168.343Z" fill="#EEE8E0"/>
<path d="M164.367 339.887L168.303 346.14H223.771L227.427 339.887H164.367Z" fill="#8F7A61"/>
<path d="M318.448 179.225H63.7695V331.72H318.448V179.225Z" fill="#F8F4EE"/>
<path d="M74.6432 186.748C74.6432 187.924 73.6896 188.885 72.5023 188.885C71.3243 188.885 70.3613 187.933 70.3613 186.748C70.3613 185.572 71.3149 184.611 72.5023 184.611C73.6896 184.611 74.6432 185.572 74.6432 186.748Z" fill="#8F7A61"/>
<path d="M83.3659 186.748C83.3659 187.924 82.4123 188.885 81.2249 188.885C80.0376 188.885 79.084 187.933 79.084 186.748C79.084 185.572 80.0376 184.611 81.2249 184.611C82.4123 184.611 83.3659 185.572 83.3659 186.748Z" fill="#8F7A61"/>
<path d="M92.0788 186.748C92.0788 187.924 91.1251 188.885 89.9378 188.885C88.7505 188.885 87.7969 187.933 87.7969 186.748C87.7969 185.572 88.7505 184.611 89.9378 184.611C91.1251 184.611 92.0788 185.572 92.0788 186.748Z" fill="#8F7A61"/>
<path d="M318.448 196.081C318.448 196.212 261.428 196.324 191.113 196.324C120.771 196.324 63.7695 196.212 63.7695 196.081C63.7695 195.95 120.771 195.838 191.113 195.838C261.437 195.838 318.448 195.941 318.448 196.081Z" fill="#8F7A61"/>
<path d="M339.857 340.008H46.6797V340.942H339.857V340.008Z" fill="#8F7A61"/>
<path d="M140.358 270.168H84.6562V273.892H140.358V270.168Z" fill="#8F7A61"/>
<path d="M212.299 218.527H156.598V222.251H212.299V218.527Z" fill="#8F7A61"/>
<path d="M295.151 232.378C295.151 232.509 264.131 232.621 225.884 232.621C187.618 232.621 156.607 232.509 156.607 232.378C156.607 232.247 187.618 232.135 225.884 232.135C264.131 232.135 295.151 232.247 295.151 232.378Z" fill="#8F7A61"/>
<path d="M295.151 240.498C295.151 240.628 264.131 240.74 225.884 240.74C187.618 240.74 156.607 240.628 156.607 240.498C156.607 240.367 187.618 240.255 225.884 240.255C264.131 240.255 295.151 240.367 295.151 240.498Z" fill="#8F7A61"/>
<path d="M295.151 248.627C295.151 248.758 264.131 248.87 225.884 248.87C187.618 248.87 156.607 248.758 156.607 248.627C156.607 248.496 187.618 248.384 225.884 248.384C264.131 248.384 295.151 248.487 295.151 248.627Z" fill="#8F7A61"/>
<path d="M295.151 256.747C295.151 256.878 264.131 256.99 225.884 256.99C187.618 256.99 156.607 256.878 156.607 256.747C156.607 256.616 187.618 256.504 225.884 256.504C264.131 256.504 295.151 256.616 295.151 256.747Z" fill="#8F7A61"/>
<path d="M295.151 264.867C295.151 264.997 264.131 265.109 225.884 265.109C187.618 265.109 156.607 264.997 156.607 264.867C156.607 264.736 187.618 264.624 225.884 264.624C264.131 264.624 295.151 264.736 295.151 264.867Z" fill="#8F7A61"/>
<path d="M210.682 272.996C210.682 273.127 198.575 273.239 183.645 273.239C168.705 273.239 156.598 273.127 156.598 272.996C156.598 272.865 168.705 272.753 183.645 272.753C198.575 272.753 210.682 272.856 210.682 272.996Z" fill="#8F7A61"/>
<path d="M294.132 288.76C294.132 288.89 273.742 289.002 248.602 289.002C223.453 289.002 203.062 288.89 203.062 288.76C203.062 288.629 223.444 288.517 248.602 288.517C273.751 288.517 294.132 288.62 294.132 288.76Z" fill="#8F7A61"/>
<path d="M294.132 297.384C294.132 297.514 273.742 297.626 248.602 297.626C223.453 297.626 203.062 297.514 203.062 297.384C203.062 297.253 223.444 297.141 248.602 297.141C273.751 297.141 294.132 297.244 294.132 297.384Z" fill="#8F7A61"/>
<path d="M294.132 305.998C294.132 306.129 273.742 306.241 248.602 306.241C223.453 306.241 203.062 306.129 203.062 305.998C203.062 305.867 223.444 305.755 248.602 305.755C273.751 305.755 294.132 305.867 294.132 305.998Z" fill="#8F7A61"/>
<path d="M294.132 314.622C294.132 314.753 273.742 314.865 248.602 314.865C223.453 314.865 203.062 314.753 203.062 314.622C203.062 314.491 223.444 314.379 248.602 314.379C273.751 314.379 294.132 314.491 294.132 314.622Z" fill="#8F7A61"/>
<path d="M140.498 287.929C140.498 288.06 128.344 288.172 113.357 288.172C98.3612 288.172 86.2168 288.06 86.2168 287.929C86.2168 287.798 98.3706 287.686 113.357 287.686C128.344 287.686 140.498 287.798 140.498 287.929Z" fill="#8F7A61"/>
<path d="M140.498 294.705C140.498 294.836 128.344 294.948 113.357 294.948C98.3612 294.948 86.2168 294.836 86.2168 294.705C86.2168 294.574 98.3706 294.462 113.357 294.462C128.344 294.462 140.498 294.565 140.498 294.705Z" fill="#8F7A61"/>
<path d="M140.498 301.472C140.498 301.602 128.344 301.714 113.357 301.714C98.3612 301.714 86.2168 301.602 86.2168 301.472C86.2168 301.341 98.3706 301.229 113.357 301.229C128.344 301.229 140.498 301.341 140.498 301.472Z" fill="#8F7A61"/>
<path d="M140.498 308.247C140.498 308.378 128.344 308.49 113.357 308.49C98.3612 308.49 86.2168 308.378 86.2168 308.247C86.2168 308.117 98.3706 308.005 113.357 308.005C128.344 308.005 140.498 308.117 140.498 308.247Z" fill="#8F7A61"/>
<path d="M140.498 315.014C140.498 315.145 128.344 315.257 113.357 315.257C98.3612 315.257 86.2168 315.145 86.2168 315.014C86.2168 314.883 98.3706 314.771 113.357 314.771C128.344 314.771 140.498 314.883 140.498 315.014Z" fill="#8F7A61"/>
<path opacity="0.2" d="M140.498 206.366H84.6562V260.303H140.498V206.366Z" fill="#8F7A61"/>
<path d="M88.9844 255.692L104.429 227.935L117.069 245.678L124.745 236.251L136.169 255.692H88.9844Z" fill="#CD9E64"/>
<path d="M122.445 222.541C122.445 224.753 120.649 226.554 118.424 226.554C116.199 226.554 114.404 224.762 114.404 222.541C114.404 220.329 116.199 218.527 118.424 218.527C120.649 218.527 122.445 220.319 122.445 222.541Z" fill="#CD9E64"/>
<path d="M136.169 255.842C136.169 255.842 136.16 255.767 136.16 255.618C136.16 255.459 136.151 255.254 136.151 254.992C136.141 254.423 136.132 253.611 136.123 252.566C136.104 250.428 136.085 247.33 136.067 243.41C136.039 235.532 136.001 224.314 135.945 210.846L136.169 211.07C122.501 211.08 106.308 211.098 88.994 211.108C88.9285 211.164 89.4895 210.604 89.2558 210.846V210.856V210.884V210.93V211.024V211.22V211.602V212.368V213.898C89.2558 214.915 89.2558 215.933 89.2558 216.941C89.2558 218.966 89.2558 220.963 89.2558 222.942C89.2558 226.909 89.2558 230.782 89.2464 234.562C89.2371 242.112 89.2277 249.262 89.2184 255.823L88.9846 255.59C103.064 255.636 114.825 255.683 123.099 255.711C127.222 255.739 130.476 255.758 132.72 255.767C133.813 255.776 134.674 255.786 135.272 255.795C135.552 255.804 135.767 255.804 135.936 255.804C136.085 255.832 136.16 255.832 136.169 255.842C136.169 255.842 136.104 255.851 135.964 255.851C135.805 255.851 135.59 255.86 135.328 255.86C134.739 255.87 133.898 255.879 132.822 255.888C130.588 255.907 127.353 255.926 123.249 255.954C114.947 255.982 103.13 256.019 88.9846 256.075H88.7509V255.842C88.7416 249.271 88.7322 242.131 88.7229 234.581C88.7229 230.801 88.7229 226.918 88.7135 222.961C88.7135 220.982 88.7135 218.975 88.7135 216.959C88.7135 215.951 88.7135 214.934 88.7135 213.917V212.386V211.621V211.238V211.042V210.93V210.884V210.856V210.846C88.4798 211.08 89.0407 210.51 88.9846 210.576C106.299 210.585 122.501 210.604 136.16 210.613H136.394V210.837C136.347 224.37 136.31 235.635 136.282 243.55C136.254 247.451 136.235 250.531 136.226 252.659C136.216 253.686 136.207 254.479 136.197 255.039C136.188 255.291 136.188 255.487 136.188 255.646C136.179 255.776 136.169 255.842 136.169 255.842Z" fill="#8F7A61"/>
<path opacity="0.2" d="M196.089 284.644H156.57V322.817H196.089V284.644Z" fill="#8F7A61"/>
<path d="M159.627 319.55L170.565 299.904L179.503 312.457L184.935 305.793L193.022 319.55H159.627Z" fill="#CD9E64"/>
<path d="M183.317 296.086C183.317 297.654 182.046 298.924 180.475 298.924C178.904 298.924 177.633 297.654 177.633 296.086C177.633 294.518 178.904 293.249 180.475 293.249C182.036 293.249 183.317 294.518 183.317 296.086Z" fill="#CD9E64"/>
<path d="M193.022 319.653C193.022 319.653 193.013 319.597 193.013 319.494C193.013 319.382 193.003 319.233 193.003 319.046C193.003 318.645 192.994 318.066 192.985 317.329C192.975 315.817 192.957 313.623 192.947 310.842C192.929 305.27 192.9 297.328 192.863 287.798L193.022 287.957C183.355 287.966 171.884 287.976 159.636 287.985C159.59 288.022 159.992 287.63 159.823 287.798V287.808V287.826V287.864V287.929V288.069V288.34V288.881V289.964C159.823 290.682 159.823 291.401 159.823 292.12C159.823 293.548 159.823 294.966 159.823 296.366C159.823 299.176 159.823 301.92 159.823 304.589C159.814 309.937 159.814 314.986 159.805 319.643L159.636 319.475C169.603 319.513 177.923 319.541 183.776 319.559C186.693 319.578 188.993 319.597 190.582 319.606C191.358 319.615 191.966 319.625 192.386 319.625C192.583 319.625 192.732 319.634 192.854 319.634C192.966 319.643 193.022 319.653 193.022 319.653C193.022 319.653 192.975 319.662 192.872 319.662C192.76 319.662 192.611 319.671 192.424 319.671C192.003 319.671 191.414 319.681 190.647 319.69C189.067 319.699 186.777 319.718 183.879 319.737C177.998 319.755 169.64 319.783 159.627 319.821H159.459V319.653C159.449 315.005 159.449 309.946 159.44 304.598C159.44 301.929 159.44 299.176 159.431 296.376C159.431 294.976 159.431 293.557 159.431 292.129C159.431 291.41 159.431 290.692 159.431 289.973V288.89V288.349V288.078V287.938V287.873V287.836V287.817V287.808C159.262 287.976 159.655 287.574 159.627 287.612C171.884 287.621 183.346 287.63 193.013 287.64H193.172V287.798C193.134 297.374 193.106 305.345 193.087 310.945C193.069 313.707 193.059 315.882 193.05 317.394C193.041 318.122 193.031 318.682 193.031 319.083C193.031 319.261 193.022 319.401 193.022 319.513C193.031 319.606 193.022 319.653 193.022 319.653Z" fill="#8F7A61"/>
<path d="M526.073 340.26L516.715 339.15L514.527 356.64L528.205 358.404L528.411 357.331C529.28 352.543 532.515 332.896 531.935 329.555C531.29 325.822 526.073 340.26 526.073 340.26Z" fill="#CD9E64"/>
<path d="M531.122 328.304C531.29 328.323 530.645 334.884 529.682 342.967C528.719 351.04 527.812 357.573 527.644 357.555C527.476 357.536 528.121 350.975 529.084 342.892C530.047 334.81 530.963 328.286 531.122 328.304Z" fill="#232323"/>
<path d="M528.028 339.439C527.934 339.57 527.439 339.383 526.999 338.954C526.551 338.524 526.354 338.039 526.485 337.936C526.616 337.834 527.009 338.123 527.42 338.524C527.822 338.926 528.121 339.308 528.028 339.439Z" fill="#232323"/>
<path d="M528.775 338.403C528.701 338.552 528.14 338.403 527.597 337.983C527.055 337.572 526.765 337.078 526.877 336.966C526.999 336.844 527.457 337.124 527.962 337.507C528.467 337.89 528.85 338.254 528.775 338.403Z" fill="#232323"/>
<path d="M528.215 352.263C528.252 352.337 527.981 352.571 527.514 352.907C527.056 353.243 526.42 353.681 525.85 354.279C525.298 354.876 524.971 355.557 524.849 356.071C524.718 356.584 524.746 356.939 524.662 356.957C524.597 356.976 524.4 356.631 524.429 356.005C524.457 355.389 524.774 354.549 525.41 353.868C526.046 353.187 526.775 352.785 527.299 352.533C527.832 352.3 528.178 352.197 528.215 352.263Z" fill="#232323"/>
<path d="M526.27 339.178C526.42 339.112 526.719 339.458 526.831 339.971C526.953 340.494 526.822 340.923 526.663 340.932C526.495 340.942 526.345 340.559 526.242 340.102C526.14 339.654 526.111 339.252 526.27 339.178Z" fill="#232323"/>
<path d="M525.335 339.346C525.503 339.346 525.587 339.831 525.522 340.428C525.456 341.016 525.279 341.474 525.11 341.446C524.952 341.418 524.858 340.932 524.923 340.363C524.98 339.803 525.167 339.346 525.335 339.346Z" fill="#232323"/>
<path d="M520.371 358.04L468.549 352.795L361.1 355.193L389.67 332.196L461.387 328.752L524.082 337.376L520.371 358.04Z" fill="#4A75CB"/>
<path d="M432.778 343.676C432.778 343.807 422.69 343.919 410.256 343.919C397.812 343.919 387.725 343.807 387.725 343.676C387.725 343.546 397.812 343.434 410.256 343.434C422.69 343.434 432.778 343.536 432.778 343.676Z" fill="#232323"/>
<path opacity="0.2" d="M427.768 330.367L431.451 353.504H438.519L433.143 330.106L427.768 330.367Z" fill="black"/>
<path d="M455.122 353.803L454.075 344.451L436.518 346.299L437.911 360L439.004 359.953C443.875 359.711 463.77 358.385 466.902 357.06C470.399 355.595 455.122 353.803 455.122 353.803Z" fill="#CD9E64"/>
<path d="M467.219 356.164C467.238 356.332 460.693 357.2 452.597 358.105C444.501 359.011 437.919 359.608 437.9 359.44C437.882 359.272 444.426 358.404 452.522 357.499C460.619 356.593 467.2 355.996 467.219 356.164Z" fill="#232323"/>
<path d="M455.646 355.679C455.497 355.613 455.562 355.1 455.89 354.568C456.207 354.036 456.638 353.737 456.768 353.84C456.899 353.952 456.703 354.391 456.413 354.876C456.105 355.371 455.805 355.744 455.646 355.679Z" fill="#232323"/>
<path d="M456.833 356.173C456.674 356.127 456.692 355.557 456.973 354.932C457.253 354.307 457.665 353.915 457.805 354.008C457.945 354.101 457.777 354.605 457.524 355.184C457.263 355.753 456.991 356.22 456.833 356.173Z" fill="#232323"/>
<path d="M443.183 358.787C443.117 358.843 442.827 358.628 442.397 358.255C441.967 357.891 441.397 357.359 440.677 356.957C439.967 356.556 439.228 356.397 438.695 356.388C438.162 356.379 437.826 356.491 437.788 356.407C437.751 356.341 438.05 356.071 438.667 355.968C439.275 355.856 440.163 355.968 440.976 356.435C441.78 356.901 442.341 357.517 442.706 357.965C443.061 358.413 443.239 358.731 443.183 358.787Z" fill="#232323"/>
<path d="M455.505 353.915C455.607 354.045 455.336 354.409 454.859 354.643C454.383 354.876 453.925 354.857 453.887 354.699C453.84 354.54 454.177 354.307 454.598 354.101C455.009 353.905 455.402 353.784 455.505 353.915Z" fill="#232323"/>
<path d="M455.122 353.047C455.159 353.205 454.701 353.401 454.112 353.476C453.523 353.551 453.037 353.476 453.027 353.308C453.018 353.14 453.467 352.953 454.037 352.879C454.607 352.804 455.094 352.879 455.122 353.047Z" fill="#232323"/>
<path d="M352.339 247.05L367.326 246.779C367.522 245.043 367.821 238.314 367.821 238.314C367.821 238.314 374.085 237.735 374.543 231.547C375.001 225.359 374.805 211.07 374.805 211.07C367.812 207.552 359.463 208.074 352.975 212.452L352.012 213.105L352.339 247.05Z" fill="#D4BF9E"/>
<path d="M372.711 221.626C372.365 221.271 372.374 220.702 372.729 220.347C373.085 220.002 373.655 220.011 374.01 220.366C374.356 220.721 374.347 221.29 373.992 221.645C373.636 221.99 373.066 221.981 372.711 221.626Z" fill="#232323"/>
<path d="M374.301 220.31C374.198 220.413 373.618 219.909 372.768 219.853C371.917 219.787 371.262 220.198 371.178 220.086C371.132 220.039 371.244 219.843 371.524 219.657C371.805 219.47 372.272 219.302 372.805 219.339C373.338 219.377 373.777 219.61 374.02 219.843C374.273 220.058 374.357 220.263 374.301 220.31Z" fill="#232323"/>
<path d="M364.417 220.441C364.828 220.73 364.922 221.29 364.632 221.691C364.342 222.102 363.781 222.195 363.379 221.906C362.968 221.617 362.874 221.057 363.164 220.655C363.445 220.254 364.006 220.161 364.417 220.441Z" fill="#232323"/>
<path d="M364.979 220.487C364.876 220.59 364.296 220.086 363.445 220.03C362.595 219.965 361.94 220.375 361.856 220.263C361.809 220.217 361.921 220.021 362.202 219.834C362.482 219.647 362.95 219.479 363.483 219.517C364.016 219.554 364.455 219.787 364.698 220.021C364.951 220.245 365.025 220.441 364.979 220.487Z" fill="#232323"/>
<path d="M367.971 227.73C367.971 227.665 368.504 227.59 369.374 227.525C369.598 227.515 369.776 227.478 369.804 227.357C369.85 227.226 369.776 226.983 369.682 226.703C369.495 226.125 369.308 225.546 369.112 224.93C368.336 222.401 367.803 220.319 367.934 220.282C368.065 220.245 368.794 222.261 369.579 224.781C369.766 225.397 369.935 225.985 370.112 226.563C370.178 226.825 370.318 227.133 370.178 227.497C370.103 227.674 369.916 227.805 369.766 227.833C369.617 227.87 369.486 227.861 369.383 227.861C368.514 227.851 367.971 227.805 367.971 227.73Z" fill="#232323"/>
<path d="M365.139 228.505C364.279 227.917 367.514 229.951 369.252 229.979C369.252 229.979 368.159 231.51 366.41 230.745C364.597 229.951 365.139 228.505 365.139 228.505Z" fill="white"/>
<path d="M367.83 238.23C367.83 238.23 363.894 238.304 359.883 235.439C359.883 235.439 361.519 240.012 367.745 239.835L367.83 238.23Z" fill="#C9B28E"/>
<path d="M375.254 208.849C376.675 208.812 377.825 207.225 377.423 205.862C377.021 204.5 375.188 203.8 373.973 204.537C374.674 203.874 375.385 203.193 375.749 202.306C376.114 201.42 376.039 200.281 375.31 199.656C374.59 199.04 373.496 199.124 372.627 199.497C371.309 200.057 370.271 201.168 368.915 201.644C367.55 202.12 366.045 201.877 364.605 201.942C363.007 202.008 361.389 202.484 360.136 203.482C358.884 204.481 358.052 206.049 358.136 207.645C356.116 207.393 353.863 207.365 352.265 208.625C350.918 209.689 350.32 211.49 350.311 213.207C350.311 214.925 351.021 216.549 351.526 218.191V218.182C351.825 219.143 352.143 219.47 352.143 219.47L352.9 223.913L355.668 223.857L355.49 214.607C355.49 214.607 355.209 210.716 358.566 211.052C361.922 211.397 366.484 215.177 373.029 214.215C374.085 214.057 375.188 213.945 376.077 213.347C376.965 212.75 377.6 211.696 377.479 210.641C377.348 209.596 376.301 208.653 375.254 208.849Z" fill="#232323"/>
<path d="M353.199 218.602C353.068 218.555 348.599 217.967 349.02 223.241C349.441 228.505 354.63 226.339 354.63 226.19C354.62 226.031 353.199 218.602 353.199 218.602Z" fill="#D4BF9E"/>
<path d="M352.862 224.463C352.834 224.445 352.778 224.538 352.628 224.622C352.479 224.706 352.226 224.771 351.946 224.687C351.376 224.529 350.833 223.679 350.73 222.737C350.674 222.261 350.74 221.794 350.88 221.402C351.011 221.001 351.235 220.711 351.516 220.646C351.787 220.562 352.002 220.711 352.077 220.851C352.161 220.991 352.133 221.103 352.161 221.113C352.18 221.122 352.264 221.019 352.208 220.805C352.18 220.702 352.105 220.581 351.974 220.487C351.843 220.394 351.647 220.357 351.46 220.394C351.058 220.45 350.721 220.861 350.562 221.29C350.385 221.719 350.3 222.242 350.366 222.783C350.487 223.838 351.104 224.79 351.89 224.949C352.273 225.014 352.572 224.883 352.722 224.743C352.862 224.594 352.881 224.473 352.862 224.463Z" fill="#C9B28E"/>
<path d="M340.203 339.355C343.008 343.527 360.014 369.081 380.311 350.499C406.18 326.82 426.673 306.091 426.673 306.091L434.358 352.897L458.45 351.6C458.45 351.6 449.064 281.9 443.127 275.563C436.508 268.497 430.403 269.095 378.357 310.086L340.203 339.355Z" fill="#739AF0"/>
<path d="M426.346 259.957L448.84 243.578L449.943 245.332L427.598 261.917L426.346 259.957Z" fill="#232323"/>
<path d="M431.908 259.453C431.908 259.453 434.928 251.614 435.601 249.943C436.284 248.272 437.434 245.36 437.854 245.304C438.284 245.248 439.855 245.491 437.798 250.475C435.741 255.459 440.229 252.416 440.229 252.416L444.558 249.318C444.558 249.318 447.979 259.528 446.035 262.599C443.931 265.912 440.902 269.095 440.902 269.095L431.908 259.453Z" fill="#D4BF9E"/>
<path d="M432.161 258.548C431.713 257.521 403.114 282.749 397.42 283.608L380.741 261.927C380.741 261.927 377.273 256.439 369.84 247.05C365.044 240.992 351.806 242.252 348.319 249.635C342.41 262.179 342.345 276.123 339.185 303.263L337.857 321.575C337.577 325.476 337.605 329.406 338.035 333.288C338.54 337.843 339.568 342.584 341.681 341.95L379.834 310.469L381.059 296.17C389.081 304.29 391.577 305.989 395.747 305.345C406.246 303.721 442.987 270.728 442.987 270.728C442.987 270.728 432.601 259.575 432.161 258.548Z" fill="#FFB93E"/>
<path d="M438.05 275.329C438.013 275.376 437.209 274.788 436.003 273.724C434.797 272.66 433.208 271.101 431.618 269.235C430.029 267.368 428.739 265.548 427.879 264.195C427.018 262.832 426.57 261.945 426.626 261.917C426.691 261.88 427.243 262.701 428.168 263.999C429.094 265.296 430.412 267.069 431.992 268.917C433.572 270.765 435.105 272.352 436.246 273.472C437.368 274.592 438.097 275.273 438.05 275.329Z" fill="#232323"/>
<path d="M395.794 292.204C395.663 292.176 395.897 290.234 396.318 287.864C396.738 285.493 397.187 283.589 397.327 283.608C397.458 283.636 397.225 285.577 396.804 287.948C396.383 290.318 395.934 292.222 395.794 292.204Z" fill="#232323"/>
<path d="M399.439 291.308C399.309 291.345 398.748 289.674 398.177 287.584C397.607 285.493 397.252 283.766 397.383 283.729C397.513 283.692 398.074 285.362 398.645 287.453C399.215 289.544 399.57 291.27 399.439 291.308Z" fill="#232323"/>
<path d="M358.135 265.735C358.163 265.716 358.499 266.145 359.098 266.939C359.733 267.807 360.575 268.936 361.594 270.308C363.697 273.155 366.624 277.075 369.905 281.368C373.187 285.614 376.15 289.45 378.366 292.325C379.404 293.678 380.264 294.798 380.918 295.657C381.517 296.45 381.835 296.898 381.807 296.917C381.779 296.936 381.414 296.525 380.769 295.778C380.124 295.022 379.208 293.921 378.095 292.549C375.861 289.805 372.803 285.969 369.522 281.676C366.24 277.383 363.351 273.425 361.313 270.523C360.294 269.076 359.49 267.891 358.939 267.06C358.396 266.22 358.107 265.753 358.135 265.735Z" fill="#232323"/>
<path d="M353.256 284.168C353.162 284.27 351.966 283.337 350.573 282.096C349.18 280.845 348.123 279.753 348.217 279.66C348.31 279.557 349.507 280.49 350.9 281.732C352.293 282.982 353.349 284.074 353.256 284.168Z" fill="#232323"/>
<path d="M349.973 294.696C350.085 294.77 349.337 296.068 348.3 297.598C347.262 299.129 346.336 300.305 346.224 300.23C346.112 300.156 346.86 298.858 347.898 297.328C348.935 295.797 349.861 294.621 349.973 294.696Z" fill="#232323"/>
<path d="M354.583 309.199C354.48 309.283 353.63 308.443 352.695 307.323C351.75 306.203 351.077 305.223 351.171 305.139C351.274 305.055 352.124 305.895 353.059 307.015C354.004 308.135 354.686 309.115 354.583 309.199Z" fill="#232323"/>
<path d="M345.682 318.514C345.757 318.626 344.822 319.391 343.588 320.222C342.354 321.053 341.298 321.641 341.223 321.529C341.148 321.417 342.083 320.651 343.317 319.821C344.551 318.981 345.608 318.402 345.682 318.514Z" fill="#232323"/>
<path d="M358.126 320.969C358.06 321.081 356.789 320.343 355.639 318.981C354.48 317.618 353.965 316.246 354.078 316.199C354.208 316.134 354.891 317.366 356.003 318.663C357.116 319.979 358.21 320.857 358.126 320.969Z" fill="#232323"/>
<path d="M369.728 312.177C369.813 312.279 368.747 313.334 367.335 314.529C365.923 315.723 364.717 316.619 364.624 316.517C364.54 316.414 365.605 315.359 367.017 314.165C368.429 312.961 369.644 312.074 369.728 312.177Z" fill="#232323"/>
<path d="M345.851 329.163C345.786 329.275 344.739 328.706 343.729 327.67C342.719 326.634 342.177 325.588 342.28 325.523C342.402 325.448 343.103 326.344 344.075 327.334C345.057 328.323 345.935 329.051 345.851 329.163Z" fill="#232323"/>
<path d="M371.795 303.879C371.842 304.001 370.72 304.542 369.233 304.859C367.747 305.186 366.504 305.149 366.494 305.018C366.485 304.878 367.682 304.701 369.131 304.383C370.58 304.066 371.748 303.749 371.795 303.879Z" fill="#232323"/>
<path d="M363.156 294.061C363.287 294.108 362.81 295.582 362.24 297.384C361.744 298.942 361.333 300.249 361.146 300.548L361.043 300.52C361.071 300.464 361.099 300.445 361.118 300.445C361.136 300.445 361.146 300.482 361.155 300.548L361.052 300.52C361.024 300.165 361.286 298.802 361.782 297.234C362.352 295.414 363.034 294.014 363.156 294.061Z" fill="#232323"/>
<path d="M366.792 287.826C366.717 287.938 365.474 287.173 364.025 286.128C362.576 285.082 361.463 284.14 361.547 284.037C361.622 283.925 362.866 284.69 364.315 285.736C365.764 286.781 366.876 287.724 366.792 287.826Z" fill="#232323"/>
<path d="M359.37 274.107C359.482 274.172 358.921 275.339 357.986 276.627C357.051 277.915 356.117 278.82 356.023 278.727C355.92 278.633 356.677 277.607 357.594 276.337C358.51 275.077 359.258 274.041 359.37 274.107Z" fill="#232323"/>
<path d="M347.954 272.24C347.823 272.231 347.832 270.812 347.973 269.076C348.122 267.34 348.347 265.94 348.477 265.959C348.608 265.968 348.599 267.387 348.459 269.123C348.309 270.859 348.085 272.259 347.954 272.24Z" fill="#232323"/>
<path d="M343.514 292.81C343.383 292.81 343.242 291.289 343.214 289.413C343.186 287.537 343.27 286.006 343.401 286.006C343.532 286.006 343.672 287.528 343.701 289.404C343.729 291.28 343.644 292.81 343.514 292.81Z" fill="#232323"/>
<path d="M342.888 312.55C342.757 312.587 342.383 311.682 342.056 310.525C341.728 309.367 341.56 308.406 341.691 308.369C341.822 308.331 342.196 309.237 342.523 310.394C342.85 311.542 343.019 312.513 342.888 312.55Z" fill="#232323"/>
<path d="M358.631 256.85C358.715 256.962 357.555 257.932 356.228 259.229C354.891 260.517 353.9 261.656 353.788 261.572C353.685 261.497 354.526 260.2 355.891 258.884C357.238 257.559 358.556 256.747 358.631 256.85Z" fill="#232323"/>
<path d="M351.946 254.619C351.816 254.61 351.759 253.228 351.834 251.53C351.909 249.831 352.077 248.459 352.208 248.459C352.339 248.468 352.395 249.85 352.32 251.548C352.246 253.256 352.077 254.628 351.946 254.619Z" fill="#232323"/>
<path d="M368.325 252.398C368.232 252.5 367.129 251.688 365.736 250.736C364.343 249.784 363.183 249.056 363.249 248.935C363.305 248.814 364.595 249.364 366.016 250.335C367.428 251.306 368.409 252.304 368.325 252.398Z" fill="#232323"/>
<path d="M364.773 264.055C364.642 264.055 364.501 262.589 364.464 260.788C364.427 258.978 364.511 257.512 364.642 257.512C364.773 257.512 364.913 258.968 364.95 260.779C364.978 262.58 364.903 264.045 364.773 264.055Z" fill="#232323"/>
<path d="M374.366 270.868C374.319 270.999 373.076 270.616 371.533 270.252C369.991 269.879 368.719 269.664 368.729 269.524C368.738 269.393 370.065 269.403 371.645 269.785C373.225 270.149 374.413 270.747 374.366 270.868Z" fill="#232323"/>
<path d="M375.01 263.915C374.879 263.915 374.758 262.683 374.739 261.171C374.73 259.649 374.823 258.417 374.954 258.417C375.085 258.417 375.206 259.649 375.225 261.161C375.244 262.683 375.15 263.915 375.01 263.915Z" fill="#232323"/>
<path d="M382.322 275.572C382.191 275.581 382.013 274.032 381.929 272.119C381.845 270.205 381.883 268.647 382.023 268.637C382.154 268.628 382.331 270.177 382.415 272.1C382.5 274.013 382.453 275.563 382.322 275.572Z" fill="#232323"/>
<path d="M376.703 279.52C376.6 279.613 375.843 278.923 375.011 277.98C374.179 277.037 373.581 276.207 373.683 276.123C373.786 276.029 374.543 276.72 375.376 277.663C376.208 278.596 376.806 279.426 376.703 279.52Z" fill="#232323"/>
<path d="M383.807 284.886C383.817 285.017 382.592 285.222 381.068 285.334C379.544 285.446 378.31 285.428 378.301 285.297C378.291 285.166 379.516 284.961 381.04 284.849C382.555 284.737 383.798 284.756 383.807 284.886Z" fill="#232323"/>
<path d="M389.156 287.621C389.025 287.63 388.857 286.249 388.801 284.55C388.735 282.852 388.791 281.47 388.932 281.461C389.062 281.461 389.231 282.833 389.287 284.532C389.352 286.23 389.296 287.612 389.156 287.621Z" fill="#232323"/>
<path d="M394.437 297.832C394.437 297.962 392.913 298.065 391.043 297.85C389.173 297.645 387.705 297.197 387.743 297.076C387.771 296.945 389.267 297.16 391.099 297.365C392.932 297.589 394.437 297.701 394.437 297.832Z" fill="#232323"/>
<path d="M403.496 293.118C403.627 293.165 403.263 294.546 402.683 296.208C402.103 297.869 401.533 299.185 401.411 299.138C401.28 299.092 401.645 297.71 402.225 296.049C402.795 294.388 403.365 293.081 403.496 293.118Z" fill="#232323"/>
<path d="M410.042 284.877C410.005 285.008 408.715 284.765 407.153 284.336C405.592 283.906 404.358 283.449 404.395 283.318C404.433 283.188 405.723 283.43 407.284 283.86C408.836 284.289 410.07 284.746 410.042 284.877Z" fill="#232323"/>
<path d="M415.286 288.013C415.38 288.116 414.464 289.068 413.258 290.132C412.052 291.205 410.995 291.989 410.911 291.886C410.817 291.784 411.724 290.841 412.94 289.768C414.146 288.694 415.193 287.91 415.286 288.013Z" fill="#232323"/>
<path d="M417.399 280.285C417.278 280.322 416.726 279.007 416.427 277.289C416.119 275.572 416.165 274.144 416.296 274.135C416.436 274.125 416.595 275.516 416.904 277.196C417.203 278.885 417.53 280.238 417.399 280.285Z" fill="#232323"/>
<path d="M427.393 278.512C427.477 278.624 426.094 279.809 424.485 281.368C422.877 282.926 421.662 284.28 421.55 284.196C421.447 284.121 422.513 282.609 424.149 281.022C425.776 279.436 427.318 278.409 427.393 278.512Z" fill="#232323"/>
<path d="M428.384 274.965C428.337 275.087 426.953 274.685 425.289 274.051C423.625 273.425 422.326 272.809 422.372 272.688C422.419 272.567 423.803 272.968 425.467 273.603C427.122 274.228 428.431 274.835 428.384 274.965Z" fill="#232323"/>
<path d="M427.431 271.101C427.3 271.139 426.86 270.009 426.449 268.572C426.038 267.144 425.804 265.949 425.935 265.912C426.066 265.875 426.505 267.004 426.917 268.441C427.328 269.869 427.562 271.064 427.431 271.101Z" fill="#232323"/>
<path d="M375.095 297.99C374.983 298.065 374.197 297.15 373.337 295.937C372.477 294.724 371.869 293.678 371.972 293.604C372.084 293.529 372.87 294.444 373.73 295.657C374.599 296.87 375.207 297.906 375.095 297.99Z" fill="#232323"/>
<path d="M446.371 345.002C446.362 345.002 446.334 344.871 446.296 344.6C446.259 344.311 446.203 343.928 446.128 343.424C445.988 342.37 445.791 340.848 445.53 338.907C445.006 334.978 444.239 329.303 443.108 322.313C441.977 315.322 440.472 307.025 438.34 297.916C438.106 296.758 437.751 295.666 437.218 294.621C436.648 293.604 435.881 292.67 434.975 291.896C433.123 290.384 430.655 289.497 428.168 289.693C426.934 289.777 425.682 290.076 424.56 290.673C423.438 291.233 422.419 292.064 421.344 292.838C419.231 294.406 417.08 296.002 414.911 297.608C406.254 304.094 398.149 310.45 390.912 316.414C383.667 322.359 377.366 327.959 372.074 332.691C369.4 334.987 366.549 336.826 363.65 337.124C362.229 337.311 360.874 337.059 359.733 336.658C358.583 336.238 357.63 335.64 356.826 335.062C355.227 333.867 354.17 332.728 353.46 331.972C353.123 331.599 352.862 331.31 352.665 331.095C352.488 330.89 352.403 330.787 352.413 330.778C352.422 330.768 352.516 330.862 352.703 331.058C352.908 331.263 353.179 331.543 353.535 331.907C354.273 332.635 355.339 333.755 356.947 334.912C357.751 335.482 358.695 336.051 359.827 336.443C360.949 336.826 362.257 337.05 363.641 336.863C366.436 336.555 369.222 334.744 371.868 332.439C377.113 327.679 383.405 322.042 390.641 316.078C397.859 310.095 405.964 303.721 414.631 297.234C416.8 295.62 418.95 294.033 421.063 292.465C422.129 291.7 423.148 290.86 424.345 290.262C425.523 289.646 426.831 289.329 428.131 289.245C430.749 289.049 433.329 289.973 435.264 291.569C436.218 292.39 437.013 293.361 437.611 294.434C438.172 295.526 438.537 296.712 438.761 297.85C440.874 306.978 442.342 315.294 443.435 322.294C444.529 329.294 445.23 334.987 445.707 338.916C445.922 340.867 446.1 342.388 446.212 343.452C446.259 343.956 446.296 344.348 446.324 344.638C446.371 344.871 446.38 345.002 446.371 345.002Z" fill="#232323"/>
<path d="M457.292 344.488C457.292 344.526 456.956 344.572 456.357 344.638C455.75 344.703 454.871 344.778 453.786 344.852C451.608 345.002 448.607 345.16 445.288 345.3C442.035 345.44 439.09 345.571 436.79 345.664C435.789 345.702 434.929 345.73 434.209 345.758C433.602 345.776 433.265 345.767 433.256 345.73C433.256 345.692 433.583 345.636 434.191 345.571C434.798 345.496 435.677 345.412 436.762 345.319C438.931 345.142 441.941 344.955 445.26 344.815C448.514 344.694 451.459 344.591 453.758 344.507C454.759 344.488 455.619 344.46 456.339 344.451C456.956 344.442 457.292 344.451 457.292 344.488Z" fill="#232323"/>
<path d="M433.34 298.802C433.443 298.877 431.956 301.163 429.675 303.637C427.403 306.119 425.244 307.79 425.159 307.697C425.066 307.585 427.067 305.765 429.31 303.31C431.573 300.865 433.218 298.718 433.34 298.802Z" fill="#232323"/>
<path d="M434.237 301.64C434.303 301.761 432.48 302.853 430.245 304.234C428.011 305.606 426.216 306.745 426.141 306.633C426.066 306.53 427.749 305.205 429.993 303.823C432.237 302.433 434.181 301.528 434.237 301.64Z" fill="#232323"/>
<path d="M513.002 346.896C513.002 346.915 512.806 346.906 512.432 346.887C512.011 346.85 511.469 346.812 510.805 346.756C509.328 346.616 507.299 346.42 504.821 346.187C499.717 345.655 492.78 344.936 485.104 344.134C477.401 343.331 470.445 342.435 465.387 342.183C462.863 342.052 460.806 342.062 459.394 342.108C458.731 342.136 458.188 342.164 457.768 342.183C457.394 342.202 457.197 342.202 457.197 342.183C457.197 342.164 457.384 342.136 457.758 342.08C458.132 342.024 458.674 341.978 459.385 341.922C460.806 341.819 462.863 341.754 465.406 341.838C470.492 342.006 477.457 342.846 485.16 343.648C492.827 344.507 499.764 345.272 504.859 345.842C507.327 346.14 509.356 346.383 510.824 346.56C511.487 346.654 512.02 346.719 512.441 346.784C512.815 346.84 513.002 346.878 513.002 346.896Z" fill="#232323"/>
<path d="M511.815 357.321C511.684 357.303 512.105 352.627 512.759 346.868C513.414 341.11 514.049 336.452 514.19 336.462C514.32 336.48 513.9 341.156 513.245 346.915C512.591 352.683 511.955 357.34 511.815 357.321Z" fill="#232323"/>
</svg>
