<svg width="125" height="51" viewBox="0 0 125 51" fill="none" xmlns="http://www.w3.org/2000/svg">
<path d="M16.9536 11.5388C8.20092 11.5388 0.907349 15.231 0.907349 26.3705C0.907349 35.1954 5.81175 40.7528 17.1796 40.7528C30.56 40.7528 31.4178 31.9886 31.4178 31.9886H24.9343C24.9343 31.9886 23.5442 36.7078 16.7841 36.7078C11.2781 36.7078 7.31804 33.0094 7.31804 27.8256H32.0958V24.5727C32.0958 19.4443 28.8216 11.5388 16.9536 11.5388ZM16.7276 15.6961C21.9686 15.6961 25.5417 18.8888 25.5417 23.6738H7.46144C7.46144 18.5939 12.1252 15.6961 16.7276 15.6961Z" fill="#E53238"/>
<path d="M32.0898 0.751953V35.1585C32.0898 37.1116 31.9496 39.8538 31.9496 39.8538H38.1335C38.1335 39.8538 38.3554 37.8843 38.3554 36.0843C38.3554 36.0843 41.4107 40.837 49.7181 40.837C58.4661 40.837 64.4083 34.7979 64.4083 26.1457C64.4083 18.0967 58.9502 11.623 49.7322 11.623C41.1002 11.623 38.4179 16.2579 38.4179 16.2579V0.751953H32.0898ZM48.136 15.8787C54.0766 15.8787 57.8542 20.2626 57.8542 26.1457C57.8542 32.4542 53.4912 36.5813 48.1784 36.5813C41.838 36.5813 38.4179 31.6588 38.4179 26.2019C38.4179 21.1171 41.4869 15.8787 48.136 15.8787Z" fill="#0064D2"/>
<path d="M79.778 11.5388C66.6103 11.5388 65.7658 18.7079 65.7658 19.8535H72.3199C72.3199 19.8535 72.6636 15.6681 79.326 15.6681C83.6553 15.6681 87.0101 17.6384 87.0101 21.4266V22.7749H79.326C69.1248 22.7749 63.7318 25.7423 63.7318 31.7639C63.7318 37.69 68.7147 40.9143 75.4486 40.9143C84.6258 40.9143 87.5821 35.8721 87.5821 35.8721C87.5821 37.8776 87.7376 39.8539 87.7376 39.8539H93.5642C93.5642 39.8539 93.3382 37.4042 93.3382 35.837V22.2904C93.3382 13.408 86.1328 11.5388 79.778 11.5388ZM87.0101 26.82V28.6177C87.0101 30.9625 85.5549 36.7921 76.9882 36.7921C72.2972 36.7921 70.2858 34.4641 70.2858 31.7639C70.2858 26.8516 77.0591 26.82 87.0101 26.82Z" fill="#F5AF02"/>
<path d="M89.8074 12.6636H97.1807L107.763 33.7434L118.32 12.6636H124.999L105.769 50.1924H98.7627L104.312 39.7307L89.8074 12.6636Z" fill="#86B817"/>
</svg>
