<svg width="118" height="56" viewBox="0 0 118 56" fill="none" xmlns="http://www.w3.org/2000/svg">
<path d="M12.6548 20.2253V4.40203C12.6548 3.81571 12.7132 3.46406 13.7097 3.46406H27.1249C29.4686 3.46406 30.7574 5.45698 31.695 9.20747L32.4565 12.1969H34.7411C35.1507 3.69942 35.5019 0.00708008 35.5019 0.00708008C35.5019 0.00708008 29.7609 0.651542 26.363 0.651542H9.19906L0 0.358383V2.81994L3.10557 3.40592C5.27316 3.81641 5.7994 4.2847 5.97655 6.27797C5.97655 6.27797 6.15266 12.1384 6.15266 21.8088C6.15266 31.4778 5.97655 37.2804 5.97655 37.2804C5.97655 39.0383 5.27316 39.6828 3.10557 40.0943L0 40.6806V43.1408L9.19906 42.8483H24.548C28.0044 42.8483 36.0302 43.1408 36.0302 43.1408C36.2053 41.0305 37.3778 31.4778 37.5536 30.4242H35.386L33.1011 35.6402C31.2847 39.7416 28.649 40.0351 25.7192 40.0351H16.9896C14.0601 40.0351 12.6541 38.8628 12.6541 36.3431V22.9807C12.6541 22.9807 19.0396 22.9807 21.2653 23.1569C22.9059 23.2746 23.9013 23.7432 24.4293 26.0286L25.1327 29.0761H27.6504L27.4754 21.3979L27.8265 13.6627H25.3081L24.4885 17.0615C23.9605 19.2884 23.6097 19.6996 21.3244 19.9332C18.7472 20.227 12.6537 20.1682 12.6537 20.1682V20.2263H12.6548V20.2253ZM47.3948 6.0433C46.5744 9.6768 45.7541 12.4897 42.8835 14.3653C41.1262 15.5368 39.3683 15.9466 38.6663 16.0055V18.2324H43.8799V36.2241C43.8799 41.2649 47.2197 43.7268 51.6715 43.7268C55.1282 43.7268 58.7012 42.2617 59.9319 39.2134L58.7012 37.631C58.1151 38.6278 56.2416 40.0926 53.8979 40.0926C51.3207 40.0926 49.9146 38.334 49.9146 33.8809V17.9991L58.5857 18.6443L59.0538 14.6581L49.9149 15.0101V6.10145L47.3948 6.0433ZM65.9077 33.7172L63.6817 33.7757C63.7986 35.0647 63.8578 36.7063 63.8578 38.2299C63.8578 39.8123 63.7993 41.2774 63.6817 41.9804C63.6817 41.9804 68.1341 43.6199 72.6451 43.6199C78.7379 43.6199 83.6007 40.6897 83.6007 34.9463C83.6007 25.1018 68.8375 26.5672 68.8375 19.9436C68.8375 17.1896 71.2978 16.1343 73.9927 16.1343C76.1018 16.1343 77.8591 16.8961 78.2106 18.0106L79.6755 22.4059L81.8435 22.2889C82.0196 19.9443 82.1362 17.2485 82.488 15.0804C80.6128 14.2598 76.6872 13.7901 74.2287 13.7901C68.486 13.7901 63.8588 16.3105 63.8588 21.9369C63.8588 31.7236 78.2698 29.731 78.2698 36.9406C78.2698 39.5181 76.6872 41.3352 73.1146 41.3352C69.8347 41.3352 68.1937 39.6361 67.5505 37.9357L65.9077 33.7172ZM101.217 40.4877C97.8258 49.9653 93.674 52.4206 89.9319 52.4206C88.3522 52.4206 87.5927 51.718 87.3578 50.6084L86.4808 46.0442L84.0243 46.1612C83.5565 48.8525 83.0887 51.837 82.4463 54.2934C83.9084 55.4034 86.3631 55.9897 88.2937 55.9897C92.3296 55.9897 98.469 55.4622 104.082 42.1252L113.497 19.8963C114.258 18.0823 114.55 17.9068 116.772 17.0288L118 16.5619V14.5143L112.444 14.8067L106.48 14.5143V16.5619L107.999 17.0288C109.519 17.4977 110.222 18.0823 110.222 19.1355C110.222 19.6616 110.046 20.1884 109.753 21.0066C108.876 23.2311 103.438 36.4511 101.977 39.2598L103.437 38.7323C100.864 32.3562 96.9477 21.7085 96.3623 19.8966C96.2454 19.5453 96.1869 19.2529 96.1869 18.959C96.1869 18.0235 96.8301 17.2627 98.2337 16.9706L100.164 16.5622V14.5146L92.1514 14.8071L85.7777 14.5146V16.5622L86.8305 16.9128C88.2923 17.3808 88.6435 17.7906 89.5205 19.8378C94.3726 30.9531 96.6547 37.036 99.7526 44.9927L101.217 40.4877Z" fill="#ED6100"/>
</svg>
