<?xml version="1.0" encoding="utf-8"?>
<!-- Generator: Adobe Illustrator 23.0.2, SVG Export Plug-In . SVG Version: 6.00 Build 0)  -->
<svg version="1.1" id="Layer_1" xmlns:serif="http://www.serif.com/"
	 xmlns="http://www.w3.org/2000/svg" xmlns:xlink="http://www.w3.org/1999/xlink" x="0px" y="0px" viewBox="0 0 1920 1024"
	 style="enable-background:new 0 0 1920 1024;" xml:space="preserve">
<style type="text/css">
	.st0{fill:url(#SVGID_1_);}
	.st1{fill:url(#SVGID_2_);}
	.st2{fill:url(#SVGID_3_);}
	.st3{fill:url(#SVGID_4_);}
</style>
<g>
	<linearGradient id="SVGID_1_" gradientUnits="userSpaceOnUse" x1="781.6758" y1="264.5126" x2="1291.7325" y2="264.5126">
		<stop  offset="0" style="stop-color:#04B6F0"/>
		<stop  offset="1" style="stop-color:#3ECAF0"/>
	</linearGradient>
	<path class="st0" d="M1291.73,236.19c-0.24-27.11-50.39-39.42-180.21-39.42c-304.6,0-381.89-13-464.58-99.93
		c34.79,52.2,53.83,150.11,375.78,145.23c335.91-5.17,130.99,86.53,71.36,190.12c107.53-95.87,197.33-159.07,197.65-195.61V236.19z"
		/>
	<linearGradient id="SVGID_2_" gradientUnits="userSpaceOnUse" x1="790.8517" y1="514.5313" x2="863.6968" y2="514.5313">
		<stop  offset="0" style="stop-color:#04B6F0"/>
		<stop  offset="1" style="stop-color:#3ECAF0"/>
	</linearGradient>
	<path class="st1" d="M863.7,514.59c-0.01,25.2-20.76,45.93-46,45.94c-25.48,0-46.09-20.58-46.09-45.94c0-0.01,0-0.02,0-0.04
		c0-25.24,20.79-46.02,46.07-46.02c0.01,0,0.01,0,0.02,0C843.1,468.54,863.7,489.13,863.7,514.59z"/>
	
		<linearGradient id="SVGID_3_" gradientUnits="userSpaceOnUse" x1="0.2715" y1="1023.7715" x2="0.5183" y2="1023.7715" gradientTransform="matrix(1.806927e-14 -294.7908 -295.0933 -1.805075e-14 303135.5 621.3285)">
		<stop  offset="0" style="stop-color:#04B6F0"/>
		<stop  offset="1" style="stop-color:#3ECAF0"/>
	</linearGradient>
	<path class="st2" d="M1073.46,514.59c-0.01,25.2-20.76,45.93-46,45.94c-25.46,0-46.08-20.58-46.08-45.94c0-0.01,0-0.02,0-0.04
		c0-25.24,20.79-46.02,46.06-46.02c0.01,0,0.01,0,0.02,0C1052.87,468.54,1073.46,489.13,1073.46,514.59z"/>
</g>
<g transform="matrix(0.16,0,0,0.159836,0,0)">
	
		<linearGradient id="SVGID_4_" gradientUnits="userSpaceOnUse" x1="-5.2295" y1="6406.8555" x2="-4.4696" y2="6406.8555" gradientTransform="matrix(1.806927e-14 -295.0932 -294.7908 -1.805075e-14 1894596.75 3887.2876)">
		<stop  offset="0" style="stop-color:#04B6F0"/>
		<stop  offset="1" style="stop-color:#3ECAF0"/>
	</linearGradient>
	<path class="st3" d="M3109.24,4876.65c0,148.33-44.1,273.26-132.62,374.41c-92.37,105.97-212.4,159.17-359.33,159.17
		c-147.32,0-266.96-53.2-359.34-159.17c-88.55-101.14-132.99-226.08-132.99-374.41c0-148.74,44.43-273.63,132.99-374.41
		c93.4-104.98,213.44-157.44,359.34-157.44c146.93,0,266.96,52.46,359.33,157.44C3065.14,4603.02,3109.24,4727.91,3109.24,4876.65z
		 M2816.7,4876.65c0-67.18-16.08-123.89-48.27-169.74c-36.02-52.11-86.42-78-151.14-78c-64.74,0-115.13,25.89-151.18,78
		c-32.53,45.85-48.62,102.56-48.62,169.74c0,66.81,16.1,124.2,48.62,171.42c36.05,52.11,86.44,78.04,151.18,78.04
		c64.72,0,115.12-25.93,151.14-78.04C2800.62,5000.85,2816.7,4943.46,2816.7,4876.65z M4166.99,4876.65
		c0,138.55-39.89,259.61-120.03,363.18c-85.72,113.36-196.29,170.4-330.65,170.4c-94.84,0-175.29-27.64-241.07-82.21
		c0,12.57,1.4,43.02,4.21,91.7c2.79,48.93,4.17,88.82,4.17,120.32c0,173.95-51.78,260.7-155.33,260.7
		c-42.36,0-76.98-15.05-104.63-44.8c-27.29-30.06-40.94-66.17-40.94-108.8V4515.9c0-41.29,14.01-77,41.99-107.06
		c27.98-29.75,62.64-44.76,103.93-44.76c62.26,0,107.76,31.07,136.46,93.05c61.23-74.88,144.86-112.33,250.87-112.33
		c134.71,0,244.93,55.95,331,168.31C4126.74,4617.04,4166.99,4738.1,4166.99,4876.65z M3874.44,4876.65
		c0-67.18-16.41-123.89-48.6-169.74c-36.07-52.11-86.44-78-151.18-78c-64.72,0-115.1,25.89-151.16,78
		c-32.2,45.85-48.28,102.56-48.28,169.74c0,66.81,16.08,124.2,48.28,171.42c36.05,52.11,86.44,78.04,151.16,78.04
		c64.74,0,115.11-25.93,151.18-78.04C3858.04,5000.85,3874.44,4943.46,3874.44,4876.65z M5231.36,4845.19
		c0,48.93-11.56,82.52-34.66,101.45c-23.08,18.52-59.11,27.97-107.75,27.97h-528.01c0,55.99,26.26,99.01,78.74,129.07
		c42.34,23.49,94.12,35.41,155.35,35.41c47.62,0,104.63-15.81,171.46-46.9c66.83-31.52,109.85-46.94,128.43-46.94
		c33.92,0,62.6,12.26,86.4,37.45c23.43,24.86,35.35,54.94,35.35,89.6c0,80.08-59.83,142.43-179.53,187.19
		c-91.31,33.57-184.03,50.72-278.83,50.72c-152.56,0-275.73-50.72-369.85-151.82c-94.14-101.14-141.35-228.16-141.35-381.76
		c0-146.29,48.97-271.19,146.93-375.42c97.61-104.32,219.06-156.43,363.9-156.43c134.71,0,247.37,49.34,337.67,148
		C5185.86,4591.49,5231.36,4709.04,5231.36,4845.19z M4938.86,4771.67c-1.41-44.8-22.05-85.37-61.94-122.14
		c-39.9-36.71-82.21-54.88-127.02-54.88c-46.18,0-89.23,18.17-129.11,54.88c-39.87,36.77-59.85,77.34-59.85,122.14H4938.86z
		 M6214.22,5237.34c0,42.73-13.63,78.74-40.9,108.84c-27.66,29.77-62.32,44.82-104.65,44.82c-102.17,0-153.27-81.19-153.27-243.18
		c0-31.15,2.11-80.12,6.3-147.65c4.56-67.2,6.67-116.52,6.67-147.67c0-171.83-55.64-257.86-166.56-257.86
		c-110.93,0-166.21,86.03-166.21,257.86c0,31.15,1.74,80.47,4.89,147.67c3.51,67.53,5.25,116.5,5.25,147.65
		c0,162-50.39,243.18-151.14,243.18c-42.36,0-76.98-15.05-104.28-44.82c-27.64-30.1-41.29-66.11-41.29-108.84v-721.76
		c0-42.42,13.65-78.39,41.29-107.45c27.31-29.4,62.3-44.06,104.63-44.06c69.97,0,118.6,31.07,145.88,93.05
		c47.25-74.88,130.86-112.33,250.54-112.33c110.92,0,199.1,29.37,263.84,87.8c66.13,62.68,99,148.72,99,258.25V5237.34z
		 M7131.99,5206.25c0,66.12-42.96,118.58-129.08,157.11c-68.2,31.1-142.32,47.08-217.27,46.86c-147.36,0-266.99-53.2-359.35-159.17
		c-88.55-101.14-132.98-226.08-132.98-374.41c0-148.74,45.15-274.31,135.76-377.2c90.61-103.2,209.2-154.65,356.57-154.65
		c85.01,0,158.14,12.59,219.06,37.45c84.97,33.59,127.29,86.05,127.29,157.44c0,36.01-11.17,67.86-33.58,95.52
		c-22.38,27.29-51.11,41.29-86.04,41.29c-23.85,0-58.14-8.05-102.89-23.76c-44.79-16.14-80.44-23.83-106.67-23.83
		c-69.67,0-123.92,24.84-162.75,74.51c-36.05,44.8-54.25,102.19-54.25,173.23c0,66.81,16.1,123.52,48.68,169.35
		c35.97,53.54,86.76,80.12,151.46,80.12c28.73,0,67.88-8.4,117.92-25.58c50.08-16.74,86.12-25.48,108.5-25.48
		c32.55,0,60.49,13.97,84.33,41.27C7120.14,5143.96,7131.99,5173.67,7131.99,5206.25z M8195.33,5237.34
		c0,42.73-13.63,78.74-40.93,108.84c-27.62,29.77-62.59,44.82-105,44.82c-63.67,0-109.13-31.17-136.44-93.09
		c-61.2,74.9-144.86,112.31-250.85,112.31c-135.72,0-247-57.04-333.12-170.4c-78.37-103.57-117.84-224.63-117.84-363.18
		c0-138.55,39.46-259.61,117.84-363.55c87.51-112.35,198.39-168.31,333.12-168.31c105.99,0,189.65,37.45,250.85,112.33
		c27.3-61.98,72.77-93.05,136.44-93.05c41.33,0,75.99,15.01,104.01,44.76c27.94,30.06,41.93,65.42,41.93,106.75V5237.34z
		 M7902.83,4876.65c0-67.18-16.06-123.89-48.29-169.74c-37.44-52.11-87.83-78-151.14-78c-64.74,0-115.09,25.89-151.18,78
		c-32.51,45.85-48.56,102.56-48.56,169.74c0,66.81,15.66,124.2,46.78,171.42c37.16,52.11,88.23,78.04,152.97,78.04
		c64.7,0,115.09-25.93,151.14-78.04C7886.77,5000.85,7902.83,4943.46,7902.83,4876.65z M8941.7,4496.29
		c0,62.63-30.44,105.66-91.33,129.09c-56.31,18.93-112.35,38.21-168.31,58.09c-61.28,35.03-91.69,100.1-91.69,194.58v359.3
		c0,42.73-14.03,78.74-41.25,108.84c-27.7,29.77-62.67,44.82-105,44.82c-42.64,0-77.7-15.05-104.92-44.82
		c-27.7-30.1-41.33-66.11-41.33-108.84v-721.76c0-42.42,13.63-78.39,40.93-107.45c27.62-29.4,62.67-44.06,105-44.06
		c69.95,0,118.55,31.07,145.89,93.05c62.63-74.88,129.84-112.33,202.25-112.33c41.25,0,76.62,15.01,105.99,44.76
		C8926.95,4419.66,8941.7,4455.34,8941.7,4496.29z M9704.83,4509.59c0,65.07-25.55,106.01-76.23,123.54
		c-24.92,8.73-77.1,13.27-156.5,13.27v590.95c0,42.73-13.99,78.74-41.21,108.84c-27.7,29.77-62.67,44.82-105,44.82
		c-41.25,0-76.3-15.05-104.32-44.82c-27.94-30.1-41.93-66.11-41.93-108.84V4646.4c-60.21,0-103.93-7.7-131.55-22.71
		c-37.76-21-56.43-59.15-56.43-114.1c0-54.91,19.28-92.36,58.1-112.33c26.27-14.7,69.67-22.36,129.88-22.36v-125.27
		c0-147.3,48.57-220.77,146.25-220.77c97.25,0,146.21,73.47,146.21,220.77v125.27c79.41,0,131.59,4.54,156.5,13.27
		C9679.27,4405.66,9704.83,4446.29,9704.83,4509.59z"/>
</g>
</svg>
