<svg width="98" height="97" viewBox="0 0 98 97" fill="none" xmlns="http://www.w3.org/2000/svg">
<path d="M51.5 43.1278V76.5734H44.874V40.7998L51.5 43.1278Z" fill="black"/>
<path d="M26.1653 40.1793C25.9314 31.4881 30.5306 26.9873 36.533 26.9873C40.1968 26.9873 43.0031 28.1513 48.9275 30.9449C53.2928 33.0401 56.4889 34.5921 59.7629 34.5921C62.881 34.5921 64.3621 32.0313 64.4401 27.2977H69.6629C70.1306 36.9977 65.1417 40.4897 59.685 40.4897C56.1771 40.4897 53.059 39.4809 47.0566 36.6873C42.9251 34.6697 39.7291 32.8849 36.6109 32.8849C33.4928 32.8849 31.544 35.0577 31.4661 40.3345H26.1653V40.1793Z" fill="black"/>
<path d="M48.6937 94.9648C74.4819 94.9648 95.3874 74.1539 95.3874 48.4824C95.3874 22.8109 74.4819 2 48.6937 2C22.9055 2 2 22.8109 2 48.4824C2 74.1539 22.9055 94.9648 48.6937 94.9648Z" stroke="black" stroke-width="4" stroke-miterlimit="10"/>
</svg>
