<?xml version="1.0" encoding="utf-8"?>
<!-- Generator: Adobe Illustrator 23.0.2, SVG Export Plug-In . SVG Version: 6.00 Build 0)  -->
<svg version="1.1" id="Layer_1" xmlns="http://www.w3.org/2000/svg" xmlns:xlink="http://www.w3.org/1999/xlink" x="0px" y="0px"
	 viewBox="0 0 6035.56 3606.85" style="enable-background:new 0 0 6035.56 3606.85;" xml:space="preserve">
<style type="text/css">
	.st0{fill:#9B5C8F;}
</style>
<g>
	<path class="st0" d="M3407.43,1062.11c-19.42-50.53-45.35-77.75-76.45-84.22c-46.64-9.06-91.99,16.83-134.75,80.34
		c-34.99,49.23-57.02,101.07-68.68,154.2c-6.48,29.8-9.06,62.2-9.06,94.58c0,37.58,7.77,77.75,23.31,117.92
		c19.45,50.54,45.36,77.75,76.45,84.22c32.4,6.47,67.39-7.77,104.97-41.46c47.94-42.76,80.34-106.25,98.48-191.77l0-0.01
		c6.47-29.8,10.37-62.18,9.06-95.88C3430.76,1142.45,3423,1102.28,3407.43,1062.11z"/>
	<path class="st0" d="M4143.44,977.88c-46.64-9.06-91.99,16.83-134.76,80.34c-34.98,49.23-57,101.07-68.67,154.2
		c-6.47,29.8-9.06,62.2-9.06,94.58c0,37.58,7.76,77.75,23.32,117.92c19.42,50.54,45.35,77.75,76.45,84.22
		c32.39,6.47,67.38-7.77,104.94-41.46c47.95-42.76,80.35-106.25,98.49-191.77v-0.01c6.48-29.8,9.06-62.18,9.06-95.88
		c0-37.58-7.77-77.75-23.32-117.92C4200.46,1011.58,4174.54,984.36,4143.44,977.88z"/>
	<path class="st0" d="M4321.74,442.73H1727.1c-164.22,0-297.13,134.23-295.83,297.13v990.41c0,164.21,132.92,297.13,297.12,297.13
		h1228.91l561.68,312.76l-127.72-312.76h930.47c164.21,0,297.13-132.92,297.13-297.13V739.86
		C4618.88,575.65,4485.96,442.73,4321.74,442.73z M2751.77,1742.4c2.6,32.37-2.59,60.89-15.54,85.52
		c-15.56,28.5-38.87,44.05-68.68,46.64c-33.69,2.59-68.67-12.95-102.36-47.94c-120.51-123.11-216.4-307.11-286.36-552
		c-84.24,165.86-146.43,290.25-186.6,373.17c-76.45,146.43-141.24,221.59-195.66,225.47c-34.99,2.59-64.79-27.22-90.7-89.4
		c-66.08-169.75-137.35-497.59-213.79-983.5c-5.19-33.69,2.58-63.5,20.72-86.81l0,0c18.14-24.63,45.35-37.58,81.63-40.17
		c66.09-5.19,103.67,25.9,112.74,93.29c40.17,270.82,84.22,500.18,130.87,688.06l283.77-540.34c25.92-49.25,58.32-75.16,97.2-77.75
		c57.02-3.88,91.99,32.39,106.25,108.84c32.4,172.33,73.86,318.76,123.1,443.15c33.69-329.12,90.71-566.25,171.05-712.67
		c19.42-36.28,47.94-54.43,85.52-57.03c29.81-2.58,57.02,6.49,81.63,25.92c24.62,19.44,37.58,44.05,40.17,73.86
		c1.29,23.32-2.59,42.76-12.95,62.2c-50.54,93.3-92.02,250.09-125.7,467.77C2755.67,1459.91,2744,1624.48,2751.77,1742.4z
		 M3547.38,1538.95c-77.75,129.58-178.82,194.37-304.5,194.37c-22.04,0-45.35-2.59-69.98-7.78
		c-91.99-19.44-160.68-68.67-207.32-150.3c-41.46-71.27-62.2-156.79-62.2-256.57c0-133.47,33.69-255.27,101.07-365.41
		c79.04-129.58,180.11-194.37,304.5-194.37c22.04,0,45.36,2.59,69.98,7.77c90.7,19.45,160.68,68.68,207.32,150.32h0
		c41.46,69.97,62.2,154.2,62.2,255.27C3648.45,1305.71,3614.77,1427.51,3547.38,1538.95z M4459.61,1172.25
		c0,133.46-33.69,255.26-101.07,366.7c-77.75,129.58-178.82,194.37-304.5,194.37c-22.04,0-45.36-2.59-69.98-7.78
		c-91.99-19.44-160.68-68.67-207.32-150.3c-41.46-71.27-62.2-156.79-62.2-256.57c0-133.47,33.68-255.27,101.07-365.4
		c79.04-129.58,180.11-194.37,304.5-194.37c22.04,0,45.35,2.59,69.98,7.77c91.99,19.45,160.68,68.68,207.32,150.32
		C4438.88,986.95,4460.9,1071.18,4459.61,1172.25z"/>
</g>
<path d="M1965.92,3147.48c7.51-59.7,14.83-118.73,22.36-177.73c17.03-133.27,34.12-266.53,51.3-399.77
	c2.71-20.99,0.29-18.02,20.76-18.07c57.07-0.14,114.14,0.25,171.2-0.32c11.1-0.11,15.76,2.79,18.05,14.13
	c20.1,99.64,40.83,199.16,61.39,298.71c0.75,3.61,1.62,7.2,4.31,10.99c4.18-21.57,7.85-43.24,12.63-64.68
	c18.53-83.11,37.51-166.12,55.97-249.25c1.73-7.77,5.2-9.79,12.61-9.76c62.86,0.23,125.72,0.37,188.57-0.11
	c9.82-0.08,11.6,4.49,12.64,12.29c10.8,81.1,21.75,162.18,32.7,243.27c14.55,107.73,29.16,215.46,43.71,323.2
	c0.76,5.61,1.19,11.26,1.87,17.82c-53.54,0-105.85,0-159.74,0c-14.03-132.69-28.05-265.28-42.08-397.88
	c-0.93-0.19-1.86-0.37-2.8-0.56c-1.23,4.33-2.6,8.63-3.67,13.01c-30.17,124.07-60.46,248.11-90.21,372.28
	c-2.61,10.88-6.78,14.64-18.07,14.28c-27.27-0.86-54.6-0.87-81.86,0.01c-11.03,0.36-14.71-3.79-17.23-13.82
	c-31.17-123.83-62.76-247.55-94.26-371.29c-1.27-4.98-2.67-9.93-6.78-14.54c-2.61,25.29-5.25,50.58-7.81,75.87
	c-10.57,104.49-21.15,208.98-31.6,313.49c-0.59,5.94-1.32,10.24-8.99,10.2c-46.73-0.25-93.46-0.18-140.19-0.27
	C1969.55,3148.98,1968.41,3148.28,1965.92,3147.48z"/>
<path d="M2697.44,3147.74c5.36-42.48,10.54-83.86,15.82-125.24c13.01-102.08,26.05-204.16,39.1-306.23
	c6.55-51.27,13.34-102.5,19.54-153.81c1.03-8.54,4.47-10.79,12.6-10.75c60.79,0.27,121.59,0.35,182.38-0.07
	c9.06-0.06,12.06,3.33,13.74,11.57c20.54,100.42,41.36,200.79,62.12,301.17c0.74,3.58,1.68,7.12,3.39,14.33
	c6.76-33.98,12.25-64.48,18.97-94.72c16.32-73.45,33.38-146.74,49.69-220.19c2.13-9.58,6.34-12.23,15.89-12.16
	c61.2,0.43,122.42,0.36,183.62,0.06c8.95-0.04,12.8,1.99,14.12,11.89c25.36,190.09,51.17,380.12,76.86,570.17
	c0.6,4.43,0.96,8.9,1.57,14.61c-4.91,0.31-8.89,0.77-12.86,0.78c-44.67,0.05-89.34-0.34-133.99,0.29
	c-11,0.16-13.46-3.55-14.52-13.92c-12.88-125.43-26.34-250.8-39.69-376.18c-0.29-2.74-1.13-5.42-3.88-8.28
	c-1.1,4.17-2.26,8.32-3.28,12.52c-29.86,123.3-59.9,246.55-89.23,369.97c-2.98,12.55-7.88,16.47-20.63,15.96
	c-26.84-1.07-53.76-0.78-80.63-0.09c-9.85,0.25-13.43-3.29-15.76-12.52c-31.19-123.82-62.76-247.54-94.26-371.28
	c-1.39-5.45-2.94-10.87-6.94-16.13c-0.57,4.28-1.25,8.55-1.68,12.85c-12.64,125.06-25.29,250.11-37.8,375.19
	c-0.67,6.74-1.25,11.73-10.31,11.66c-45.9-0.37-91.81-0.2-137.71-0.28C2702.11,3148.92,2700.54,3148.35,2697.44,3147.74z"/>
<path d="M1428.56,2842.16c-0.8-42.8,3.64-86.25,15.97-128.66c31.7-108.97,113.29-173.13,226.65-178
	c47.22-2.03,93.3,3.93,136.77,23.61c70.52,31.92,110.52,89.4,129.3,161.85c23.5,90.67,22.81,181.93-5.31,271.69
	c-34.29,109.44-119.24,170.94-233.95,171.46c-39.54,0.18-78.57-4.12-115.43-19.31c-69.48-28.63-110.82-82.36-133.47-152.27
	C1433.38,2944.05,1428.16,2894.11,1428.56,2842.16z M1782.69,2847.4c-0.66-0.15-1.32-0.29-1.98-0.44
	c-1.36-20.2-1.93-40.49-4.25-60.58c-3.34-28.89-9.33-57.23-26.42-81.74c-32.51-46.63-97.35-44.11-125.37,5.28
	c-6.24,11-11.03,23.32-13.9,35.64c-16.4,70.45-13.45,141.21-1.24,211.88c1.46,8.45,4.67,16.77,8.16,24.67
	c13.91,31.5,39.82,47.12,74.07,45.25c39.43-2.15,67.65-26.69,76.7-72.06C1775.53,2919.8,1778.11,2883.4,1782.69,2847.4z"/>
<path d="M4166.79,2884.31c41.25,86.13,83.48,174.34,126.84,264.87c-6.28,0-10.23,0-14.17,0c-47.96,0-95.93-0.28-143.89,0.23
	c-9.66,0.1-14.54-2.85-18.77-11.69c-39.22-82.03-78.97-163.81-118.58-245.66c-1.76-3.64-3.7-7.2-7.81-10.56
	c0,88.43,0,176.87,0,266.49c-5.58,0.44-9.51,1-13.43,1.01c-45.48,0.06-90.97-0.21-136.44,0.24c-9.9,0.1-13.54-2.2-13.52-12.91
	c0.31-190.61,0.28-381.23,0.05-571.85c-0.01-9.41,2.17-12.94,12.34-12.85c64.08,0.56,128.19-0.19,192.26,0.8
	c53.62,0.82,105.26,11.03,151.59,39.99c86.82,54.28,105.54,166.66,39.4,243.67C4207.35,2853.92,4186.83,2867.27,4166.79,2884.31z
	 M3989.38,2811.52c24.3-5.14,47.19-8.32,68.96-15.07c21.75-6.75,35.19-22.93,36.54-46.67c1.54-27.02-4.58-51.35-29.56-66.39
	c-23.09-13.89-49.23-14.54-75.94-16.1C3989.38,2714.5,3989.38,2760.57,3989.38,2811.52z"/>
<path d="M3757.9,2913.77c-48.02,0-94.54,0-142.48,0c0,28.67,0,55.88,0,83.08c0,25.41,0,25.41,25.4,25.41
	c43,0,85.99,0.24,128.99-0.18c9.26-0.09,12.13,2.75,12,12c-0.47,35.13-0.38,70.28-0.07,105.42c0.07,7.87-2.19,10.94-10.49,10.92
	c-102.53-0.21-205.06-0.27-307.59,0.05c-11.29,0.04-10.12-6.49-10.11-13.65c0.09-94.67,0.34-189.35,0.14-284.02
	c-0.2-94.26-0.86-188.51-1.32-282.77c-0.08-16.56-0.09-16.74,16.85-16.78c99.63-0.26,199.27-0.44,298.9-0.6
	c3.6-0.01,7.21,0.47,11.58,0.78c0,41.94,0,83.11,0,125.86c-4.26,0.23-8.6,0.66-12.95,0.68c-46.3,0.13-92.61,0.45-138.91,0.08
	c-9.89-0.08-12.79,3.15-12.61,12.77c0.52,27.69,0.75,55.41-0.09,83.09c-0.35,11.52,3.94,13.65,14.3,13.51
	c38.85-0.53,77.72,0.03,116.58-0.39c9.41-0.1,13.09,2.23,12.91,12.42c-0.59,33.06-0.17,66.14-0.21,99.22
	C3758.73,2904.3,3758.28,2907.95,3757.9,2913.77z"/>
<path d="M4720.68,2551.86c30.21,0,59.49,0,88.78,0c74.45,0,148.9,0.28,223.35-0.28c12.29-0.09,15.09,3.83,14.86,15.45
	c-0.71,36.73-0.26,73.48-0.26,111.62c-5.76,0.33-10.51,0.83-15.27,0.84c-46.32,0.06-92.65,0.25-138.97-0.14
	c-9.08-0.08-12.33,2.37-12.15,11.82c0.53,28.53,0.54,57.08-0.03,85.61c-0.19,9.56,3.25,11.8,12.22,11.7
	c39.29-0.42,78.59,0.11,117.88-0.38c9.87-0.12,13.85,2.08,13.63,12.87c-0.65,33.08-0.21,66.17-0.27,99.26
	c-0.01,3.63-0.49,7.26-0.87,12.46c-5.13,0-9.55,0-13.96,0c-38.47,0-76.94,0.37-115.4-0.24c-10.6-0.17-13.29,3.37-13.07,13.43
	c0.6,27.29,0.81,54.61-0.1,81.88c-0.4,11.97,3.96,14.29,14.86,14.16c45.49-0.54,90.99-0.23,136.49-0.23c4.49,0,8.99,0,14.47,0
	c0,42.47,0,83.97,0,126.49c-108.48,0-216.92,0-326.19,0C4720.68,2949.89,4720.68,2751.97,4720.68,2551.86z"/>
<path d="M1392.94,2688.5c-19.95-3.42-38.53-7.32-57.32-9.69c-87.25-10.99-154.64,37.73-170.84,124.45
	c-8.76,46.89-6.31,93.39,15.49,136.88c29.22,58.29,78.36,83.08,142.08,79.66c23.33-1.25,46.45-6.16,71.04-9.59
	c0.27,3.2,0.88,7.09,0.88,10.98c0.05,39.29-0.06,78.58,0.06,117.87c0.02,6.59-0.2,11.73-8.44,13.87
	c-98.66,25.55-236.09,12.2-324.95-92.46c-43.66-51.43-65.1-111.72-71.1-177.88c-6.17-68.03,1.17-134.33,35.94-194.52
	c48.7-84.29,121.48-134.49,218.54-148.3c46.78-6.66,93.16-4.19,139.36,5.03c6.22,1.24,10.75,2.43,10.7,10.46
	c-0.29,42.6-0.15,85.2-0.22,127.8C1394.17,2684.64,1393.48,2686.22,1392.94,2688.5z"/>
<path d="M4673.38,3008.68c0.48,3.81,1.14,6.55,1.13,9.28c-0.16,40.94-0.44,81.87-0.58,122.81c-0.02,6.16-0.41,11.13-8.21,12.78
	c-107.93,22.89-208.55,10.6-295.02-63.76c-64.76-55.69-94.58-129.08-100.93-212.76c-6.45-84.93,9.42-164.05,65.2-231.46
	c58.6-70.81,134.86-106.77,226.14-108.59c34.46-0.69,69.06,4.86,103.54,8.14c3.31,0.31,8.92,4.63,8.95,7.15
	c0.55,45.01,0.4,90.02,0.4,136.76c-9.92-1.96-18.93-4.59-28.1-5.4c-25.83-2.27-52.15-7.62-77.52-4.84
	c-61.58,6.75-98.14,46.57-117.08,102.46c-16.71,49.29-14.87,99.54,4.47,148.18c23.19,58.32,71.86,91.08,136.35,90.51
	c22.92-0.2,45.79-5.47,68.67-8.55C4664.77,3010.86,4668.65,3009.72,4673.38,3008.68z"/>
</svg>
