<svg width="147" height="45" viewBox="0 0 147 45" fill="none" xmlns="http://www.w3.org/2000/svg">
<path fill-rule="evenodd" clip-rule="evenodd" d="M91.1971 34.4876C82.6547 40.7557 70.273 44.1 59.6126 44.1C44.6649 44.1 31.2082 38.5963 21.0277 29.4425C20.2279 28.7227 20.9445 27.7417 21.9044 28.3022C32.8911 34.6659 46.4758 38.4943 60.5084 38.4943C69.9722 38.4943 80.3831 36.5451 89.9557 32.5001C91.4019 31.8886 92.6112 33.4429 91.1971 34.4876Z" fill="#FF9900"/>
<path fill-rule="evenodd" clip-rule="evenodd" d="M94.747 30.4426C93.6592 29.0539 87.5291 29.7865 84.7776 30.1113C83.9394 30.2133 83.8114 29.4871 84.5664 28.9647C89.4488 25.544 97.4601 26.5314 98.3943 27.678C99.3285 28.831 98.1512 36.8254 93.5632 40.6411C92.8593 41.2271 92.1875 40.915 92.501 40.1378C93.5312 37.5771 95.8412 31.8376 94.747 30.4426Z" fill="#FF9900"/>
<path fill-rule="evenodd" clip-rule="evenodd" d="M84.9696 4.81586V1.49069C84.9696 0.987454 85.3536 0.649841 85.8143 0.649841H100.768C101.248 0.649841 101.632 0.993825 101.632 1.49069V4.33811C101.626 4.81586 101.223 5.44013 100.506 6.42749L92.757 17.4413C95.6365 17.3713 98.6759 17.7981 101.287 19.2632C101.875 19.5944 102.035 20.0785 102.08 20.5563V24.1044C102.08 24.5885 101.543 25.1555 100.979 24.8625C96.3787 22.4609 90.2679 22.1998 85.1808 24.8879C84.6625 25.1682 84.1186 24.6077 84.1186 24.1235V20.7538C84.1186 20.2123 84.125 19.2886 84.6689 18.4669L93.6464 5.65034H85.8335C85.3536 5.65034 84.9696 5.31273 84.9696 4.81586Z" fill="black"/>
<path fill-rule="evenodd" clip-rule="evenodd" d="M30.4202 25.563H25.8707C25.4355 25.5312 25.09 25.2063 25.058 24.7922V1.54788C25.058 1.08286 25.4483 0.713397 25.9347 0.713397H30.1771C30.6186 0.732494 30.9705 1.07012 31.0025 1.49054V4.52907H31.0857C32.1927 1.59246 34.2723 0.2229 37.075 0.2229C39.9225 0.2229 41.7013 1.59246 42.9811 4.52907C44.0817 1.59246 46.5836 0.2229 49.2647 0.2229C51.1716 0.2229 53.2576 1.00642 54.531 2.76456C55.9707 4.72016 55.6763 7.56121 55.6763 10.0519L55.6699 24.7222C55.6699 25.1872 55.2796 25.563 54.7933 25.563H50.2501C49.7958 25.5312 49.4311 25.1681 49.4311 24.7222V12.4025C49.4311 11.4215 49.5207 8.97537 49.3031 8.04534C48.964 6.48468 47.9466 6.04514 46.6284 6.04514C45.5278 6.04514 44.376 6.7777 43.9089 7.94979C43.4418 9.12188 43.4866 11.0839 43.4866 12.4025V24.7222C43.4866 25.1872 43.0963 25.563 42.61 25.563H38.0668C37.6061 25.5312 37.2478 25.1681 37.2478 24.7222L37.2414 12.4025C37.2414 9.80985 37.6701 5.99418 34.4387 5.99418C31.1689 5.99418 31.2969 9.71429 31.2969 12.4025V24.7222C31.2969 25.1872 30.9065 25.563 30.4202 25.563" fill="black"/>
<path fill-rule="evenodd" clip-rule="evenodd" d="M114.507 0.2229C121.258 0.2229 124.912 5.99418 124.912 13.3325C124.912 20.4224 120.874 26.0471 114.507 26.0471C107.878 26.0471 104.269 20.2759 104.269 13.0841C104.269 5.84767 107.923 0.2229 114.507 0.2229ZM114.546 4.9686C111.193 4.9686 110.982 9.51682 110.982 12.3515C110.982 15.1926 110.937 21.2569 114.507 21.2569C118.033 21.2569 118.199 16.3646 118.199 13.3834C118.199 11.4215 118.116 9.07729 117.521 7.21723C117.009 5.59924 115.992 4.9686 114.546 4.9686Z" fill="black"/>
<path fill-rule="evenodd" clip-rule="evenodd" d="M133.665 25.563H129.135C128.68 25.5312 128.316 25.1681 128.316 24.7222L128.309 1.47143C128.348 1.04464 128.725 0.713397 129.186 0.713397H133.403C133.799 0.732494 134.126 1.00005 134.215 1.36314V4.91764H134.298C135.572 1.73898 137.357 0.2229 140.499 0.2229C142.54 0.2229 144.53 0.955459 145.81 2.96203C147 4.82209 147 7.94979 147 10.1984V24.8305C146.949 25.2381 146.571 25.563 146.123 25.563H141.561C141.145 25.5312 140.8 25.2254 140.755 24.8305V12.205C140.755 9.66334 141.049 5.94322 137.907 5.94322C136.8 5.94322 135.783 6.68215 135.277 7.80328C134.638 9.2238 134.554 10.638 134.554 12.205V24.7222C134.548 25.1872 134.151 25.563 133.665 25.563" fill="black"/>
<path fill-rule="evenodd" clip-rule="evenodd" d="M73.0492 14.46C73.0492 16.2246 73.094 17.696 72.1981 19.2631C71.4751 20.5371 70.3233 21.3206 69.0499 21.3206C67.303 21.3206 66.2792 19.9956 66.2792 18.04C66.2792 14.1798 69.7538 13.4791 73.0492 13.4791V14.46ZM77.6371 25.4994C77.3364 25.7669 76.9013 25.786 76.5621 25.6077C75.052 24.3591 74.7769 23.7795 73.9514 22.5883C71.4559 25.1235 69.6834 25.8816 66.452 25.8816C62.6191 25.8816 59.6436 23.531 59.6436 18.8235C59.6436 15.148 61.6401 12.6446 64.4939 11.4215C66.9639 10.3386 70.4129 10.1475 73.0492 9.84812V9.26208C73.0492 8.18553 73.1324 6.91152 72.4925 5.98149C71.9422 5.14701 70.88 4.80303 69.9393 4.80303C68.2053 4.80303 66.6632 5.68847 66.2856 7.52305C66.2088 7.93073 65.9081 8.33205 65.4922 8.35116L61.0834 7.87977C60.7122 7.79696 60.2963 7.49756 60.4051 6.93063C61.4161 1.60526 66.2536 0 70.5792 0C72.7932 0 75.6855 0.586047 77.4324 2.255C79.6464 4.31253 79.4352 7.05803 79.4352 10.0456V17.1036C79.4352 19.2249 80.3182 20.1549 81.1501 21.3015C81.438 21.7092 81.502 22.1997 81.1309 22.5054C80.203 23.2762 78.5521 24.7095 77.6435 25.5121L77.6371 25.4993" fill="black"/>
<path fill-rule="evenodd" clip-rule="evenodd" d="M13.4055 14.4603C13.4055 16.2248 13.4503 17.6963 12.5545 19.2633C11.8314 20.5373 10.686 21.3209 9.40625 21.3209C7.65938 21.3209 6.64197 19.9959 6.64197 18.0403C6.64197 14.18 10.1165 13.4793 13.4055 13.4793V14.4603ZM17.9935 25.4996C17.6927 25.7672 17.2576 25.7863 16.9185 25.6079C15.4083 24.3594 15.1396 23.7797 14.3077 22.5885C11.8122 25.1238 10.0461 25.8818 6.80833 25.8818C2.98184 25.8818 0 23.5313 0 18.8238C0 15.1483 2.00283 12.6448 4.8503 11.4218C7.32024 10.3389 10.7692 10.1478 13.4055 9.84837V9.26232C13.4055 8.18578 13.4887 6.91176 12.8552 5.98174C12.2985 5.14726 11.2363 4.80327 10.3021 4.80327C8.56801 4.80327 7.0195 5.68871 6.64197 7.52329C6.56518 7.93098 6.26444 8.33229 5.85491 8.3514L1.43973 7.88001C1.0686 7.79721 0.659077 7.49781 0.761458 6.93088C1.77887 1.6055 6.60997 0.000244141 10.9356 0.000244141C13.1496 0.000244141 16.0418 0.586291 17.7887 2.25525C20.0027 4.31278 19.7915 7.05828 19.7915 10.0458V17.1039C19.7915 19.2251 20.6746 20.1551 21.5064 21.3017C21.8008 21.7094 21.8647 22.1999 21.4936 22.5057C20.5658 23.2765 18.9149 24.7097 18.0063 25.5124L17.9935 25.4996" fill="black"/>
</svg>
