<svg width="34" height="43" viewBox="0 0 34 43" fill="none" xmlns="http://www.w3.org/2000/svg">
<path d="M25.6455 8.03637C21.8286 3.4713 18.0608 0.505213 17.9022 0.380532C17.0415 -0.292089 15.7804 0.322566 15.7804 1.41407V7.18548C15.7804 10.1658 11.8366 11.2146 10.359 8.62368C9.89966 7.82091 8.78191 7.73561 8.20335 8.44213C4.23106 13.2894 0.6875 19.4009 0.6875 25.6929C0.6875 34.7388 8.04695 42.0983 17.0929 42.0983C26.1388 42.0983 33.4982 34.7388 33.4982 25.6929C33.4982 19.238 29.7709 12.9689 25.6455 8.03637ZM9.87451 21.1005C9.87451 19.6525 11.0524 18.4757 12.4994 18.4757C13.9463 18.4757 15.1242 19.6525 15.1242 21.1005C15.1242 22.5475 13.9463 23.7254 12.4994 23.7254C11.0524 23.7243 9.87451 22.5475 9.87451 21.1005ZM13.5351 32.4049C13.0921 32.9758 12.2675 33.0819 11.6933 32.6357C11.1213 32.1905 11.0185 31.3659 11.4625 30.7939L20.6496 18.982C21.0947 18.4089 21.9193 18.3072 22.4913 18.7513C23.0644 19.1964 23.1661 20.021 22.7221 20.593L13.5351 32.4049ZM21.6864 32.9113C20.2394 32.9113 19.0615 31.7345 19.0615 30.2864C19.0615 28.8384 20.2394 27.6616 21.6864 27.6616C23.1333 27.6616 24.3112 28.8384 24.3112 30.2864C24.3112 31.7345 23.1333 32.9113 21.6864 32.9113Z" fill="#8F7A61"/>
</svg>
