<svg width="411" height="499" viewBox="0 0 411 499" fill="none" xmlns="http://www.w3.org/2000/svg">
<mask id="mask0" mask-type="alpha" maskUnits="userSpaceOnUse" x="0" y="0" width="411" height="499">
<rect y="0.100342" width="411" height="498.014" rx="5" fill="url(#paint0_linear)"/>
</mask>
<g mask="url(#mask0)">
<g opacity="0.2">
<path d="M283.385 157.033C286.011 175.079 273.468 191.839 255.383 194.472C237.298 197.097 220.506 184.602 217.881 166.557C215.256 148.511 227.799 131.751 245.883 129.118C263.968 126.492 280.76 138.988 283.385 157.033Z" fill="#BBAD9C"/>
<path d="M275.588 158.168C277.591 171.917 268.036 184.697 254.248 186.699C240.467 188.701 227.672 179.178 225.67 165.429C223.675 151.672 233.222 138.901 247.011 136.899C260.799 134.888 273.594 144.412 275.588 158.168Z" fill="#BBAD9C"/>
<path d="M275.47 157.388C275.321 157.412 275.053 156.332 274.375 154.479C273.689 152.642 272.53 150.001 270.385 147.25C269.313 145.878 267.997 144.491 266.42 143.198C264.835 141.921 262.999 140.722 260.909 139.792C259.869 139.319 258.773 138.901 257.622 138.578C256.471 138.247 255.281 137.971 254.051 137.821C252.821 137.663 251.56 137.569 250.275 137.6C248.997 137.632 247.697 137.758 246.404 137.979C245.111 138.215 243.85 138.546 242.635 138.956C241.421 139.366 240.27 139.887 239.167 140.462C238.063 141.03 237.038 141.7 236.076 142.401C235.107 143.103 234.224 143.876 233.412 144.672C231.772 146.264 230.463 148.022 229.415 149.765C228.382 151.523 227.625 153.281 227.089 154.936C226.025 158.263 225.844 161.133 225.836 163.096C225.836 165.067 225.962 166.178 225.804 166.202C225.694 166.225 225.315 165.161 225.079 163.135C224.858 161.125 224.819 158.113 225.773 154.55C226.254 152.776 226.971 150.876 228.019 148.968C229.076 147.076 230.432 145.161 232.15 143.411C233.01 142.535 233.94 141.692 234.973 140.919C235.998 140.147 237.093 139.414 238.276 138.783C239.458 138.152 240.696 137.585 242.005 137.127C243.313 136.678 244.669 136.315 246.065 136.063C247.46 135.827 248.863 135.693 250.243 135.669C251.623 135.637 252.987 135.756 254.311 135.937C255.635 136.118 256.92 136.426 258.15 136.804C259.38 137.175 260.555 137.648 261.658 138.176C263.874 139.224 265.805 140.557 267.453 141.976C269.085 143.411 270.417 144.94 271.481 146.438C273.602 149.449 274.603 152.295 275.092 154.258C275.573 156.237 275.581 157.364 275.47 157.388Z" fill="#F8F4EE"/>
<path d="M255.621 176.262L256.314 180.598L252.443 181.221L251.766 177.003C247.895 177.381 244.024 176.774 241.627 175.45L242.999 170.381C245.167 171.508 248.123 172.099 250.954 171.926L249.921 165.454C245.451 165.099 240.421 164.437 239.538 158.895C238.884 154.787 241.296 150.79 247.303 149.111L246.618 144.815L250.488 144.192L251.166 148.417C254.107 148.181 257.063 148.504 259.405 149.521L258.23 154.598C256.078 153.794 253.957 153.455 251.978 153.534L253.035 160.116C257.497 160.432 262.448 161.11 263.323 166.573C263.969 170.594 261.58 174.551 255.621 176.262ZM249.006 159.762L248.123 154.259C246.145 155.055 245.514 156.309 245.719 157.586C245.932 158.942 247.217 159.494 249.006 159.762ZM257.158 168.032C256.937 166.676 255.699 166.124 253.941 165.801L254.801 171.146C256.669 170.412 257.363 169.269 257.158 168.032Z" fill="#F8F4EE"/>
</g>
<path d="M177.063 375.337L26.8113 328.572C22.9483 327.374 20.7961 323.266 21.9944 319.403L50.8876 226.583C52.0859 222.72 56.1932 220.568 60.0561 221.766L210.308 268.539C214.171 269.737 216.323 273.844 215.125 277.7L186.232 370.528C185.026 374.383 180.926 376.543 177.063 375.337Z" fill="#EBE0CF"/>
<path d="M185.365 288.028C183.418 294.288 176.764 297.78 170.505 295.833C164.245 293.886 160.745 287.232 162.7 280.972C164.647 274.713 171.301 271.22 177.56 273.168C183.82 275.115 187.32 281.769 185.365 288.028Z" fill="white"/>
<path d="M186.169 301.02C185.444 300.926 184.727 300.776 184.017 300.555C177.513 298.529 173.863 291.592 175.889 285.088C177.915 278.584 184.853 274.934 191.357 276.96C197.861 278.986 201.503 285.923 199.485 292.435C198.507 295.588 196.355 298.166 193.43 299.704C191.175 300.886 188.661 301.336 186.169 301.02ZM189.11 277.456C183.741 276.778 178.483 280.026 176.819 285.371C174.951 291.363 178.309 297.756 184.309 299.625C187.21 300.531 190.292 300.248 192.989 298.836C195.685 297.425 197.664 295.045 198.562 292.135C200.431 286.144 197.072 279.743 191.073 277.882C190.426 277.677 189.764 277.535 189.11 277.456Z" fill="white"/>
<path d="M46.3393 292.458L43.5012 301.58L42.5631 301.288L45.141 293.002L42.9888 292.332L43.249 291.497L46.3393 292.458Z" fill="white"/>
<path d="M53.1349 303.662L52.8747 304.498L46.4812 302.511L46.6862 301.849L51.6291 299.319C52.9772 298.625 53.3635 298.073 53.5527 297.45C53.8838 296.394 53.3399 295.511 51.9524 295.077C50.8802 294.746 49.9657 294.817 49.1458 295.322L48.657 294.541C49.6188 293.926 50.896 293.808 52.2914 294.242C54.144 294.817 55.0191 296.118 54.546 297.647C54.278 298.522 53.7577 299.216 52.1573 300.036L48.1052 302.117L53.1349 303.662Z" fill="white"/>
<path d="M63.2259 305.077L61.4048 304.509L60.6559 306.906L59.7177 306.614L60.4667 304.218L55.3187 302.617L55.5316 301.939L62.2483 297.399L63.289 297.722L56.7929 302.16L60.7505 303.39L61.4048 301.277L62.3193 301.561L61.665 303.674L63.4861 304.241L63.2259 305.077Z" fill="white"/>
<path d="M77.1957 309.433L75.3747 308.865L74.6257 311.262L73.6876 310.97L74.4365 308.574L69.2886 306.973L69.5014 306.295L76.2182 301.754L77.2588 302.078L70.7628 306.516L74.7203 307.746L75.3747 305.633L76.2891 305.917L75.6348 308.03L77.4559 308.597L77.1957 309.433Z" fill="white"/>
<path d="M85.2522 311.625C84.7713 313.178 83.3128 314.053 81.0818 313.359C79.7652 312.95 78.6537 312.106 78.1807 311.168L78.8665 310.569C79.2607 311.365 80.1673 312.13 81.3341 312.492C82.8871 312.973 83.9435 312.477 84.2825 311.365C84.6451 310.19 84.1406 309.236 81.8228 308.519L79.8835 307.912L81.7755 303.489L86.7658 305.042L86.5057 305.878L82.3353 304.577L81.1212 307.384L82.2959 307.746C85.0472 308.606 85.7567 310.009 85.2522 311.625Z" fill="white"/>
<path d="M94.2787 314.389C93.7505 316.092 92.0634 316.77 90.2896 316.218C87.8694 315.461 87.0732 313.372 87.9719 310.495C88.9337 307.396 91.1332 306.308 93.6086 307.081C94.4285 307.333 95.1538 307.72 95.6189 308.248L95.004 308.886C94.6335 308.429 94.0422 308.114 93.3642 307.909C91.4012 307.294 89.7378 308.169 88.9731 310.644C88.91 310.849 88.8391 311.117 88.7839 311.401C89.5486 310.542 90.7942 310.313 92.0556 310.707C93.8609 311.259 94.7911 312.726 94.2787 314.389ZM93.3406 314.129C93.7111 312.931 93.0646 311.89 91.6614 311.448C90.266 311.015 89.0519 311.575 88.6972 312.71C88.3818 313.711 88.9258 314.925 90.4946 315.414C91.819 315.824 92.97 315.335 93.3406 314.129Z" fill="white"/>
<path d="M106.719 318.379C106.246 319.9 104.772 320.728 102.572 320.042C101.256 319.632 100.136 318.781 99.6554 317.85L100.341 317.251C100.735 318.048 101.65 318.82 102.84 319.183C104.354 319.656 105.402 319.206 105.757 318.079C106.096 316.983 105.552 316.029 103.857 315.501L103.203 315.296L103.416 314.602L106.932 312.222L102.273 310.771L102.533 309.935L108.39 311.757L108.185 312.419L104.598 314.855C106.514 315.588 107.168 316.92 106.719 318.379Z" fill="white"/>
<path d="M115.888 321.125C115.36 322.828 113.673 323.506 111.907 322.954C109.487 322.197 108.69 320.108 109.589 317.231C110.551 314.132 112.75 313.044 115.226 313.817C116.046 314.069 116.771 314.456 117.236 314.984L116.621 315.622C116.251 315.165 115.659 314.85 114.981 314.645C113.018 314.03 111.355 314.905 110.59 317.38C110.527 317.585 110.456 317.853 110.401 318.137C111.166 317.278 112.411 317.049 113.673 317.443C115.478 317.995 116.408 319.454 115.888 321.125ZM114.958 320.857C115.328 319.659 114.682 318.618 113.279 318.177C111.883 317.743 110.669 318.303 110.314 319.438C109.999 320.439 110.535 321.653 112.112 322.142C113.428 322.552 114.579 322.071 114.958 320.857Z" fill="white"/>
<path d="M126.271 317.332L126.066 317.994L119.617 325.263L118.6 324.947L124.93 317.828L120.24 316.37L119.712 318.073L118.789 317.781L119.578 315.243L126.271 317.332Z" fill="white"/>
<path d="M139.303 321.389L139.098 322.051L132.649 329.32L131.632 329.004L137.962 321.886L133.272 320.427L132.743 322.13L131.821 321.838L132.609 319.3L139.303 321.389Z" fill="white"/>
<path d="M146.224 330.766C145.719 332.382 144.04 332.957 141.864 332.279C139.672 331.601 138.663 330.182 139.16 328.566C139.499 327.47 140.366 326.895 141.612 326.871C140.8 326.217 140.508 325.373 140.808 324.419C141.273 322.937 142.818 322.401 144.749 323C146.681 323.6 147.682 324.924 147.217 326.414C146.917 327.368 146.184 327.896 145.136 327.967C146.168 328.7 146.563 329.686 146.224 330.766ZM145.27 330.45C145.616 329.331 144.875 328.33 143.259 327.825C141.643 327.321 140.476 327.731 140.13 328.85C139.775 329.985 140.508 330.986 142.124 331.483C143.732 331.988 144.915 331.586 145.27 330.45ZM143.488 327.084C144.907 327.526 145.955 327.155 146.263 326.162C146.586 325.137 145.877 324.23 144.513 323.805C143.133 323.379 142.069 323.726 141.754 324.743C141.43 325.744 142.069 326.643 143.488 327.084Z" fill="white"/>
<path d="M155.731 331.417C154.769 334.515 152.57 335.603 150.094 334.838C149.274 334.586 148.549 334.2 148.084 333.672L148.699 333.033C149.069 333.49 149.661 333.806 150.339 334.011C152.302 334.625 153.965 333.75 154.73 331.275C154.793 331.07 154.864 330.802 154.919 330.518C154.154 331.377 152.909 331.606 151.647 331.212C149.842 330.652 148.904 329.186 149.424 327.522C149.952 325.82 151.639 325.142 153.405 325.693C155.833 326.45 156.63 328.539 155.731 331.417ZM155.006 329.209C155.321 328.208 154.785 326.994 153.208 326.505C151.892 326.095 150.741 326.576 150.362 327.79C149.992 328.989 150.638 330.029 152.042 330.471C153.437 330.904 154.651 330.337 155.006 329.209Z" fill="white"/>
<path d="M166.374 329.816L163.536 338.93L162.598 338.638L165.176 330.352L163.024 329.682L163.284 328.847L166.374 329.816Z" fill="white"/>
<path d="M173.17 341.021L172.91 341.856L166.516 339.862L166.721 339.2L171.664 336.669C173.012 335.975 173.399 335.423 173.588 334.801C173.919 333.744 173.375 332.861 171.98 332.428C170.915 332.097 169.993 332.168 169.173 332.672L168.684 331.892C169.646 331.277 170.923 331.158 172.319 331.592C174.171 332.168 175.046 333.468 174.573 334.998C174.297 335.873 173.785 336.567 172.184 337.386L168.132 339.468L173.17 341.021Z" fill="white"/>
<path d="M181.905 341.776C181.432 343.298 179.957 344.125 177.758 343.44C176.441 343.03 175.322 342.178 174.841 341.248L175.527 340.649C175.921 341.445 176.836 342.218 178.026 342.58C179.54 343.053 180.588 342.604 180.943 341.477C181.282 340.381 180.738 339.427 179.043 338.899L178.389 338.694L178.602 338L182.11 335.619L177.451 334.169L177.711 333.333L183.576 335.154L183.371 335.816L179.784 338.252C181.7 338.985 182.354 340.318 181.905 341.776Z" fill="white"/>
<path d="M108.977 329.364L107.745 333.323L180.766 356.052L181.998 352.093L108.977 329.364Z" fill="white"/>
<path d="M142.091 348.35L140.859 352.309L178.314 363.968L179.547 360.009L142.091 348.35Z" fill="white"/>
<g opacity="0.5">
<g opacity="0.5">
<path opacity="0.5" d="M70.1316 291.236L46.9619 284.023C44.8965 283.384 43.7455 281.185 44.3919 279.127L49.193 263.707C49.8315 261.642 52.031 260.491 54.0886 261.137L77.2583 268.35C79.3238 268.989 80.4748 271.189 79.8284 273.246L75.0352 288.666C74.3887 290.732 72.1971 291.883 70.1316 291.236Z" fill="#EBEBEB"/>
</g>
</g>
<path d="M45.1956 276.524L45.6528 275.057L61.4277 279.969C63.2488 280.536 65.1882 279.511 65.7558 277.69C66.3234 275.869 65.2828 273.898 63.4775 273.362L47.7025 268.451L48.1598 266.984L63.9347 271.896C66.5678 272.716 68.042 275.522 67.2221 278.148C66.4022 280.781 63.5957 282.255 60.9626 281.435L45.1956 276.524Z" fill="#E0E0E0"/>
<path d="M66.724 277.188L66.2657 278.656L77.094 282.038L77.5522 280.57L66.724 277.188Z" fill="#E0E0E0"/>
<path d="M138.634 266.81L59.8322 242.273L57.7274 249.032L136.53 273.569L138.634 266.81Z" fill="white"/>
<path d="M84.2961 419.351C85.9516 430.767 78.0287 441.362 66.5818 443.025C55.1428 444.689 44.5237 436.782 42.8603 425.366C41.2047 413.951 49.1277 403.356 60.5746 401.692C72.0214 400.029 82.6405 407.936 84.2961 419.351Z" fill="#F8F4EE"/>
<path d="M79.3698 420.064C80.6312 428.76 74.5924 436.84 65.8733 438.11C57.1541 439.379 49.0656 433.356 47.7963 424.652C46.535 415.957 52.5737 407.876 61.2929 406.607C70.0121 405.338 78.1006 411.361 79.3698 420.064Z" fill="#EBE1D2"/>
<path d="M79.2909 419.57C79.1963 419.586 79.0308 418.908 78.5972 417.733C78.1636 416.566 77.4304 414.903 76.0744 413.161C75.3965 412.294 74.5687 411.411 73.5675 410.599C72.5663 409.795 71.3995 409.038 70.083 408.446C69.4207 408.147 68.7349 407.887 68.0017 407.682C67.2764 407.469 66.5196 407.303 65.747 407.201C64.9666 407.098 64.1703 407.043 63.3583 407.059C62.5463 407.075 61.7264 407.154 60.9065 407.295C60.0867 407.445 59.2904 407.658 58.5257 407.918C57.761 408.178 57.0279 408.509 56.3341 408.872C55.6325 409.235 54.986 409.653 54.379 410.102C53.7641 410.543 53.2043 411.032 52.6919 411.537C51.6592 412.546 50.8235 413.657 50.1613 414.761C49.507 415.873 49.0261 416.984 48.6871 418.033C48.0091 420.138 47.8987 421.951 47.8908 423.197C47.8908 424.442 47.9697 425.144 47.8751 425.159C47.8041 425.175 47.5676 424.497 47.4178 423.22C47.2759 421.951 47.2523 420.043 47.8593 417.788C48.1589 416.669 48.6161 415.463 49.2783 414.257C49.9484 413.058 50.7999 411.844 51.8878 410.741C52.4318 410.189 53.023 409.653 53.6695 409.164C54.3159 408.675 55.0097 408.21 55.7586 407.816C56.5075 407.414 57.288 407.059 58.1158 406.767C58.9435 406.483 59.8028 406.255 60.6858 406.089C61.5688 405.939 62.4517 405.853 63.3268 405.837C64.2019 405.821 65.0612 405.892 65.9047 406.003C66.7404 406.121 67.5524 406.31 68.3328 406.546C69.1133 406.783 69.8543 407.075 70.5481 407.414C71.9514 408.076 73.1733 408.919 74.2139 409.818C75.2467 410.725 76.0902 411.694 76.7603 412.64C78.1005 414.548 78.7391 416.346 79.0465 417.583C79.354 418.845 79.3619 419.562 79.2909 419.57Z" fill="#BBAD9C"/>
<path d="M66.7327 431.51L67.1742 434.254L64.7224 434.648L64.2967 431.975C61.8449 432.22 59.401 431.833 57.8874 430.99L58.7546 427.789C60.1263 428.499 61.9947 428.877 63.7843 428.767L63.1299 424.675C60.3076 424.447 57.1227 424.029 56.5629 420.528C56.1451 417.935 57.6745 415.404 61.4744 414.34L61.0408 411.62L63.4926 411.226L63.9183 413.898C65.7788 413.749 67.6472 413.954 69.1293 414.592L68.3882 417.801C67.0244 417.288 65.6842 417.075 64.4386 417.123L65.1087 421.285C67.931 421.49 71.0607 421.916 71.6126 425.369C72.0147 427.931 70.5089 430.43 66.7327 431.51ZM62.5544 421.072L61.9947 417.596C60.7412 418.1 60.347 418.889 60.4732 419.701C60.6072 420.56 61.4192 420.907 62.5544 421.072ZM67.7102 426.307C67.5762 425.448 66.7879 425.101 65.6763 424.896L66.2203 428.278C67.4028 427.813 67.8364 427.088 67.7102 426.307Z" fill="#BBAD9C"/>
<path d="M391.654 19.9804C393.31 31.3958 385.387 41.9912 373.94 43.6546C362.501 45.3181 351.882 37.4109 350.219 25.9956C348.563 14.5802 356.486 3.98475 367.933 2.32133C379.38 0.657905 389.999 8.56508 391.654 19.9804Z" fill="#F8F4EE"/>
<path d="M386.728 20.6934C387.99 29.389 381.951 37.4696 373.232 38.7388C364.512 40.008 356.424 33.985 355.155 25.2816C353.893 16.5861 359.932 8.50549 368.651 7.23624C377.37 5.967 385.459 11.99 386.728 20.6934Z" fill="#EBE1D2"/>
<path d="M386.649 20.1993C386.555 20.2151 386.389 19.5371 385.956 18.3624C385.522 17.1956 384.789 15.5322 383.433 13.79C382.755 12.9228 381.927 12.0398 380.926 11.2278C379.925 10.4237 378.758 9.66688 377.441 9.07562C376.779 8.77605 376.093 8.51589 375.36 8.31092C374.635 8.09806 373.878 7.93252 373.105 7.83003C372.325 7.72755 371.529 7.67237 370.717 7.68814C369.905 7.7039 369.085 7.78273 368.265 7.92463C367.445 8.07442 366.649 8.28728 365.884 8.54744C365.119 8.80759 364.386 9.1387 363.693 9.50134C362.991 9.86398 362.344 10.2818 361.737 10.7312C361.122 11.1726 360.563 11.6614 360.05 12.166C359.018 13.1751 358.182 14.2866 357.52 15.3903C356.865 16.5019 356.384 17.6135 356.045 18.662C355.367 20.7669 355.257 22.5801 355.249 23.8257C355.249 25.0713 355.328 25.7729 355.233 25.7887C355.163 25.8045 354.926 25.1265 354.776 23.8494C354.634 22.5801 354.611 20.6723 355.218 18.4176C355.517 17.2981 355.975 16.092 356.637 14.8858C357.307 13.6875 358.158 12.4734 359.246 11.3697C359.79 10.8179 360.381 10.2818 361.028 9.79302C361.674 9.30425 362.368 8.83912 363.117 8.44495C363.866 8.04289 364.646 7.68814 365.474 7.39645C366.302 7.11264 367.161 6.88401 368.044 6.71845C368.927 6.56867 369.81 6.48194 370.685 6.46618C371.56 6.45041 372.42 6.52138 373.263 6.63175C374.099 6.75 374.911 6.93918 375.691 7.17569C376.472 7.41219 377.213 7.70389 377.906 8.04288C379.31 8.7051 380.532 9.54865 381.572 10.4474C382.605 11.354 383.449 12.3236 384.119 13.2697C385.459 15.1775 386.097 16.9749 386.405 18.2126C386.712 19.474 386.72 20.1914 386.649 20.1993Z" fill="#BBAD9C"/>
<path d="M374.091 32.1394L374.533 34.8829L372.081 35.2771L371.655 32.6045C369.203 32.8489 366.759 32.4626 365.246 31.6191L366.113 28.4184C367.485 29.1279 369.353 29.5063 371.143 29.3959L370.488 25.3044C367.666 25.0758 364.481 24.658 363.921 21.1577C363.504 18.564 365.033 16.0334 368.833 14.9691L368.399 12.2493L370.851 11.8551L371.277 14.5276C373.137 14.3778 375.006 14.5828 376.488 15.2214L375.747 18.43C374.383 17.9176 373.043 17.7047 371.797 17.752L372.467 21.9145C375.289 22.1195 378.419 22.5452 378.971 25.9981C379.373 28.5603 377.867 31.0594 374.091 32.1394ZM369.913 21.7016L369.353 18.225C368.1 18.7295 367.705 19.5179 367.832 20.3299C367.966 21.1892 368.778 21.5361 369.913 21.7016ZM375.069 26.9363C374.935 26.077 374.146 25.7301 373.035 25.5252L373.579 28.9072C374.761 28.442 375.195 27.7168 375.069 26.9363Z" fill="#BBAD9C"/>
<path d="M389.109 429.146C387.58 431.33 384.608 430.604 383.236 429.272C381.856 427.94 381.273 426.008 380.745 424.164C379.531 419.954 378.317 415.539 379.215 411.258C379.483 409.981 379.964 408.696 380.863 407.75C381.762 406.796 383.149 406.237 384.411 406.568C385.909 406.962 386.839 408.428 387.509 409.824C389.488 413.923 390.536 418.472 390.552 423.028C390.56 425.165 390.308 427.396 389.109 429.146Z" fill="#006837"/>
<path d="M383.386 440.202C380.887 438.909 377.946 438.744 375.171 439.201C373.681 439.445 372.128 439.895 371.111 441.014C370.094 442.134 369.905 444.104 371.072 445.066C371.765 445.642 372.735 445.728 373.634 445.713C375.81 445.689 378.214 445.303 379.949 446.611C380.942 447.36 381.596 448.598 382.779 448.961C383.938 449.323 385.246 448.637 385.861 447.589C386.476 446.54 386.492 445.24 386.208 444.057C386.208 444.073 385.901 441.503 383.386 440.202Z" fill="#39B54A"/>
<path d="M393.311 432.286C391.655 430.315 391.34 427.446 392.073 424.978C392.814 422.511 394.478 420.414 396.401 418.695C398.656 416.685 401.305 415.124 404.151 414.122C405.27 413.728 406.453 413.421 407.635 413.531C408.818 413.642 410.008 414.249 410.56 415.305C411.372 416.858 410.592 418.75 409.748 420.287C408.258 422.999 406.555 425.593 404.655 428.037C403.126 430.008 401.384 431.947 399.058 432.838C396.733 433.729 394.32 433.626 393.082 432.01" fill="#39B54A"/>
<path d="M389.212 462.077C389.18 462.077 389.133 461.722 389.07 461.084C388.999 460.358 388.912 459.452 388.81 458.38C388.684 457.237 388.518 455.888 388.203 454.406C387.887 452.932 387.391 451.34 386.76 449.723C386.106 448.115 385.302 446.649 384.363 445.482C383.433 444.308 382.353 443.456 381.336 442.967C380.327 442.471 379.413 442.266 378.79 442.171C378.159 442.108 377.804 442.053 377.804 442.029C377.804 441.998 378.159 441.998 378.806 442.013C379.452 442.053 380.398 442.218 381.462 442.707C382.534 443.18 383.678 444.047 384.655 445.246C385.641 446.436 386.468 447.934 387.138 449.574C387.785 451.221 388.274 452.83 388.573 454.335C388.873 455.833 389.015 457.205 389.101 458.356C389.188 459.507 389.22 460.437 389.235 461.076C389.251 461.714 389.243 462.077 389.212 462.077Z" fill="#263238"/>
<path d="M389.031 460.002C389.015 460.002 389.007 459.845 389.007 459.545C389.007 459.198 389.007 458.764 389.007 458.228C389.007 457.085 389.007 455.43 388.952 453.396C388.85 449.312 388.503 443.675 387.825 437.487C387.139 431.29 386.232 425.717 385.413 421.72C385.215 420.719 385.018 419.812 384.837 419.024C384.664 418.235 384.506 417.549 384.364 416.998C384.238 416.477 384.135 416.052 384.057 415.72C383.994 415.429 383.962 415.271 383.978 415.263C383.994 415.255 384.049 415.405 384.135 415.697C384.238 416.028 384.364 416.446 384.514 416.958C384.687 417.502 384.861 418.18 385.058 418.968C385.263 419.757 385.484 420.656 385.696 421.657C386.595 425.646 387.549 431.227 388.235 437.44C388.913 443.644 389.22 449.296 389.252 453.388C389.276 455.438 389.236 457.093 389.181 458.236C389.149 458.772 389.118 459.206 389.102 459.553C389.063 459.844 389.047 460.002 389.031 460.002Z" fill="#263238"/>
<path d="M388.999 449.095C388.968 449.095 388.975 448.607 389.007 447.724C389.054 446.841 389.18 445.564 389.425 444.003C389.685 442.442 390.055 440.589 390.639 438.579C391.191 436.561 391.947 434.377 392.909 432.154C394.793 427.692 397.348 424.042 399.571 421.779C400.091 421.18 400.675 420.746 401.14 420.321C401.384 420.116 401.589 419.911 401.81 419.753C402.031 419.603 402.228 419.461 402.417 419.335C403.15 418.831 403.56 418.57 403.576 418.594C403.639 418.681 401.936 419.69 399.784 421.976C397.639 424.262 395.156 427.889 393.288 432.319C392.334 434.519 391.569 436.679 391.009 438.681C390.418 440.676 390.016 442.513 389.724 444.058C389.441 445.603 389.275 446.872 389.18 447.747C389.086 448.615 389.031 449.095 388.999 449.095Z" fill="#263238"/>
<path d="M225.634 385.474L103.613 256.397C102.328 255.033 102.383 252.889 103.747 251.604L183.835 175.89C185.199 174.605 187.343 174.66 188.628 176.024L310.658 305.101C311.943 306.465 311.879 308.609 310.524 309.894L230.427 385.608C229.071 386.893 226.927 386.838 225.634 385.474Z" fill="#8F7A61"/>
<path d="M187.737 213.991C186.649 215.016 185.207 214.748 183.638 213.1L180.563 209.844L186.854 203.9L189.763 206.974C191.253 208.543 191.356 209.978 190.378 210.9C189.748 211.492 188.959 211.634 188.202 211.373C188.644 212.288 188.526 213.242 187.737 213.991ZM187.13 206.383L185.648 207.786L187.012 209.237C187.682 209.947 188.297 210.096 188.794 209.631C189.29 209.166 189.164 208.543 188.494 207.834L187.13 206.383ZM186.5 212.383C187.028 211.878 186.902 211.239 186.184 210.483L184.576 208.788L183.023 210.254L184.631 211.949C185.349 212.706 185.963 212.895 186.5 212.383Z" fill="#F8F4EE"/>
<path d="M192.326 219.58L189.567 216.655L187.69 217.373L186.279 215.883L195.219 212.737L196.575 214.172L192.941 222.931L191.498 221.401L192.326 219.58ZM192.996 218.082L194.462 214.81L191.112 216.088L192.996 218.082Z" fill="#F8F4EE"/>
<path d="M205.31 223.421L199.019 229.365L197.892 228.167L198.743 221.419L194.928 225.029L193.572 223.595L199.863 217.65L200.998 218.857L200.139 225.597L203.954 221.986L205.31 223.421Z" fill="#F8F4EE"/>
<path d="M205.058 230.806L203.378 230.79L201.786 232.296L200.414 230.845L206.705 224.901L208.077 226.352L205.136 229.127L210.71 229.135L212.239 230.751L206.973 230.798L206.09 236.852L204.482 235.158L205.058 230.806Z" fill="#F8F4EE"/>
<path d="M160.469 237.541L159.381 236.39L157.859 237.825L157.3 237.234L158.821 235.799L155.739 232.543L156.164 232.141L162.881 231.582L163.504 232.244L156.984 232.819L159.357 235.326L160.69 234.065L161.233 234.64L159.901 235.902L160.989 237.061L160.469 237.541Z" fill="#F8F4EE"/>
<path d="M164.616 241.649C163.654 242.563 162.243 242.563 160.926 241.168C160.138 240.332 159.673 239.26 159.704 238.385L160.445 238.227C160.406 238.968 160.761 239.899 161.47 240.647C162.377 241.601 163.323 241.712 164.04 241.034C164.734 240.379 164.726 239.465 163.709 238.393L163.323 237.983L163.756 237.573L167.272 237.281L164.482 234.325L165.01 233.828L168.518 237.541L168.1 237.936L164.505 238.243C165.601 239.544 165.538 240.781 164.616 241.649Z" fill="#F8F4EE"/>
<path d="M169.07 246.282C168.092 247.212 166.673 247.252 165.341 245.841C164.552 245.005 164.095 243.941 164.127 243.066L164.868 242.908C164.828 243.649 165.175 244.571 165.877 245.312C166.807 246.298 167.777 246.361 168.478 245.699C169.219 244.997 169.243 244.098 167.855 242.632L166.697 241.402L169.874 238.966L172.861 242.127L172.333 242.624L169.834 239.983L167.808 241.52L168.51 242.262C170.15 244.004 170.094 245.312 169.07 246.282Z" fill="#F8F4EE"/>
<path d="M173.902 251.345C172.822 252.37 171.324 252.173 170.268 251.053C168.817 249.516 169.093 247.679 170.914 245.953C172.877 244.1 174.911 244.202 176.393 245.771C176.882 246.292 177.253 246.867 177.379 247.435L176.677 247.648C176.598 247.167 176.291 246.702 175.889 246.268C174.714 245.022 173.153 244.975 171.584 246.457C171.45 246.583 171.293 246.749 171.135 246.93C172.042 246.615 173.035 246.962 173.792 247.758C174.88 248.909 174.959 250.352 173.902 251.345ZM173.335 250.777C174.091 250.06 174.052 249.043 173.208 248.152C172.373 247.269 171.261 247.182 170.544 247.86C169.905 248.46 169.803 249.555 170.749 250.557C171.537 251.384 172.57 251.503 173.335 250.777Z" fill="#F8F4EE"/>
<path d="M183.978 265.454L184.49 262.363L181.368 262.695L180.745 262.032L184.593 261.646L185.16 258.02L185.783 258.682L185.318 261.591L188.25 261.291L188.857 261.938L185.2 262.3L184.608 266.14L183.978 265.454Z" fill="#F8F4EE"/>
<path d="M188.14 269.854L188.653 266.764L185.531 267.095L184.908 266.433L188.755 266.047L189.323 262.42L189.946 263.082L189.48 265.991L192.413 265.692L193.02 266.338L189.362 266.701L188.771 270.54L188.14 269.854Z" fill="#F8F4EE"/>
<path d="M192.303 274.264L192.815 271.173L189.693 271.504L189.071 270.842L192.918 270.456L193.485 266.83L194.108 267.492L193.643 270.401L196.576 270.101L197.183 270.748L193.525 271.11L192.933 274.95L192.303 274.264Z" fill="#F8F4EE"/>
<path d="M196.473 278.669L196.986 275.579L193.864 275.91L193.241 275.248L197.088 274.861L197.656 271.235L198.278 271.897L197.813 274.806L200.746 274.507L201.353 275.153L197.695 275.516L197.104 279.355L196.473 278.669Z" fill="#F8F4EE"/>
<path d="M210.845 293.874L211.357 290.784L208.235 291.115L207.612 290.453L211.46 290.066L212.027 286.44L212.65 287.102L212.185 290.011L215.118 289.711L215.725 290.358L212.067 290.721L211.475 294.56L210.845 293.874Z" fill="#F8F4EE"/>
<path d="M215.007 298.283L215.52 295.193L212.398 295.524L211.775 294.862L215.622 294.476L216.19 290.849L216.813 291.511L216.347 294.42L219.28 294.121L219.887 294.767L216.229 295.13L215.638 298.969L215.007 298.283Z" fill="#F8F4EE"/>
<path d="M219.177 302.684L219.689 299.594L216.568 299.925L215.945 299.262L219.792 298.876L220.36 295.25L220.982 295.912L220.517 298.821L223.45 298.521L224.057 299.168L220.399 299.531L219.808 303.37L219.177 302.684Z" fill="#F8F4EE"/>
<path d="M223.34 307.09L223.853 303.999L220.731 304.33L220.108 303.668L223.955 303.282L224.523 299.656L225.145 300.318L224.68 303.227L227.613 302.927L228.22 303.574L224.562 303.936L223.971 307.776L223.34 307.09Z" fill="#F8F4EE"/>
<path d="M242.024 315.287L236.253 320.742L235.693 320.151L240.936 315.192L239.651 313.828L240.179 313.332L242.024 315.287Z" fill="#F8F4EE"/>
<path d="M242.82 324.376C241.859 325.291 240.447 325.291 239.131 323.895C238.343 323.06 237.877 321.988 237.909 321.113L238.65 320.955C238.611 321.696 238.965 322.626 239.675 323.375C240.582 324.329 241.528 324.439 242.245 323.761C242.939 323.107 242.931 322.193 241.914 321.12L241.528 320.711L241.961 320.301L245.477 320.009L242.686 317.053L243.215 316.556L246.723 320.269L246.305 320.663L242.71 320.971C243.814 322.264 243.743 323.501 242.82 324.376Z" fill="#F8F4EE"/>
<path d="M248.11 330.249L247.014 329.09L245.492 330.525L244.933 329.934L246.454 328.499L243.372 325.243L243.797 324.841L250.514 324.281L251.137 324.943L244.617 325.519L246.99 328.026L248.323 326.764L248.867 327.34L247.534 328.601L248.63 329.752L248.11 330.249Z" fill="#F8F4EE"/>
<path d="M251.326 335.636L250.798 336.133L246.967 332.08L247.384 331.686L252.004 331.868C253.265 331.915 253.77 331.671 254.164 331.292C254.834 330.661 254.803 329.802 253.967 328.919C253.329 328.241 252.627 327.918 251.831 327.949L251.791 327.185C252.737 327.13 253.715 327.571 254.55 328.454C255.654 329.629 255.765 330.929 254.803 331.844C254.251 332.364 253.589 332.664 252.099 332.601L248.315 332.459L251.326 335.636Z" fill="#F8F4EE"/>
<path d="M139.42 242.33C140.247 241.542 141.446 241.621 142.258 242.48C142.707 242.953 142.912 243.521 142.841 244.073L142.076 244.017C142.116 243.631 142.005 243.292 141.745 243.016C141.257 242.504 140.547 242.48 140.027 242.969C139.506 243.458 139.491 244.167 139.979 244.687C140.24 244.963 140.571 245.089 140.965 245.074L140.973 245.838C140.405 245.878 139.861 245.649 139.404 245.168C138.6 244.317 138.592 243.119 139.42 242.33Z" fill="#F8F4EE"/>
<path d="M143.196 247.896L141.99 246.619L141.17 246.934L140.555 246.28L144.473 244.9L145.072 245.531L143.48 249.37L142.849 248.7L143.196 247.896ZM143.488 247.234L144.126 245.799L142.66 246.359L143.488 247.234Z" fill="#F8F4EE"/>
<path d="M145.403 251.411L145.671 250.157L145.639 250.126L145.111 249.574L144.347 250.299L143.747 249.66L146.499 247.059L147.626 248.249C148.32 248.982 148.375 249.81 147.76 250.394C147.35 250.788 146.846 250.859 146.357 250.646L146.057 252.104L145.403 251.411ZM147.074 248.699L146.586 248.178L145.624 249.085L146.112 249.605C146.483 249.992 146.846 250.023 147.145 249.739C147.453 249.455 147.445 249.093 147.074 248.699Z" fill="#F8F4EE"/>
<path d="M146.546 252.083L147.232 251.846C147.28 252.24 147.492 252.697 147.808 253.029C148.163 253.407 148.438 253.439 148.604 253.281C149.116 252.792 147.248 251.531 148.273 250.561C148.738 250.12 149.487 250.127 150.228 250.908C150.559 251.255 150.811 251.688 150.89 252.098L150.22 252.358C150.126 251.964 149.944 251.633 149.716 251.389C149.361 251.01 149.077 251.003 148.904 251.16C148.399 251.641 150.26 252.91 149.25 253.864C148.793 254.298 148.036 254.29 147.287 253.502C146.877 253.068 146.594 252.508 146.546 252.083Z" fill="#F8F4EE"/>
<path d="M155.06 256.112L152.309 258.714L151.71 258.075L152.837 257.011L151.655 255.757L150.527 256.822L149.928 256.183L152.679 253.582L153.279 254.22L152.191 255.245L153.373 256.499L154.461 255.474L155.06 256.112Z" fill="#F8F4EE"/>
<path d="M154.138 257.902C154.958 257.129 156.164 257.192 156.992 258.059C157.812 258.926 157.812 260.133 156.992 260.913C156.172 261.694 154.958 261.615 154.146 260.755C153.318 259.88 153.318 258.674 154.138 257.902ZM156.377 260.267C156.897 259.77 156.913 259.06 156.448 258.572C155.983 258.075 155.273 258.051 154.753 258.54C154.233 259.037 154.217 259.746 154.69 260.235C155.147 260.732 155.857 260.763 156.377 260.267Z" fill="#F8F4EE"/>
<path d="M158.829 260.102L159.428 260.741L157.189 262.854L158.498 264.233L157.978 264.722L156.07 262.704L158.829 260.102Z" fill="#F8F4EE"/>
<path d="M161.076 262.481L162.258 263.735C163.11 264.633 163.149 265.769 162.321 266.557C161.486 267.345 160.358 267.243 159.507 266.336L158.324 265.083L161.076 262.481ZM160.004 265.808C160.524 266.352 161.186 266.407 161.714 265.911C162.242 265.414 162.227 264.744 161.714 264.2L161.162 263.616L159.452 265.233L160.004 265.808Z" fill="#F8F4EE"/>
<path d="M163.929 269.986L163.417 270.467L161.399 268.33L164.15 265.729L166.121 267.81L165.609 268.291L164.237 266.84L163.638 267.408L164.844 268.685L164.347 269.15L163.141 267.873L162.502 268.472L163.929 269.986Z" fill="#F8F4EE"/>
<path d="M165.562 272.738L165.83 271.485L165.798 271.453L165.27 270.901L164.505 271.626L163.906 270.988L166.658 268.386L167.785 269.577C168.479 270.31 168.534 271.138 167.919 271.721C167.509 272.115 167.004 272.186 166.516 271.973L166.216 273.432L165.562 272.738ZM167.233 270.026L166.744 269.506L165.783 270.412L166.271 270.933C166.642 271.319 167.004 271.35 167.304 271.067C167.612 270.783 167.604 270.42 167.233 270.026Z" fill="#F8F4EE"/>
<path d="M128.398 252.231L129.864 252.137C129.746 252.791 129.856 253.296 130.211 253.674C130.676 254.163 131.22 254.147 131.803 253.595L134.326 251.206L132.56 249.338L133.546 248.408L136.463 251.49L133.017 254.746C131.709 255.984 130.44 255.937 129.257 254.683C128.579 253.981 128.256 253.091 128.398 252.231Z" fill="#F8F4EE"/>
<path d="M132.577 256.664C133.018 256.246 133.609 256.302 134.003 256.711C134.39 257.121 134.413 257.721 133.972 258.138C133.538 258.548 132.923 258.517 132.537 258.107C132.143 257.689 132.143 257.066 132.577 256.664Z" fill="#F8F4EE"/>
<path d="M146.743 262.38L139.79 265.659L138.544 264.343L141.036 259.778L136.305 261.97L135.068 260.661L138.726 253.897L139.932 255.174L137.33 259.897L142.242 257.618L143.314 258.754L140.697 263.523L145.632 261.205L146.743 262.38Z" fill="#F8F4EE"/>
<path d="M147.24 262.902C147.61 262.547 148.178 262.571 148.596 263.012C149.014 263.454 149.022 264.006 148.651 264.352C148.257 264.723 147.689 264.699 147.271 264.266C146.854 263.824 146.869 263.257 147.24 262.902ZM146.144 264.211L147.264 265.393L143.188 269.248L142.068 268.066L146.144 264.211Z" fill="#F8F4EE"/>
<path d="M149.849 265.027L150.968 266.209L145.34 271.531L144.22 270.348L149.849 265.027Z" fill="#F8F4EE"/>
<path d="M152.001 267.306L153.121 268.489L147.492 273.81L146.372 272.628L152.001 267.306Z" fill="#F8F4EE"/>
<path d="M153.704 269.742C154.075 269.387 154.642 269.411 155.06 269.852C155.478 270.294 155.486 270.846 155.115 271.193C154.721 271.563 154.154 271.54 153.736 271.106C153.326 270.664 153.334 270.097 153.704 269.742ZM152.616 271.051L153.736 272.233L149.66 276.088L148.541 274.906L152.616 271.051Z" fill="#F8F4EE"/>
<path d="M156.432 278.596L154.107 280.796L153.058 279.684L153.563 279.203C152.987 279.337 152.388 279.093 151.82 278.502C150.914 277.548 150.914 276.475 151.615 275.805C152.333 275.127 153.318 275.159 154.493 276.405L155.384 277.343C155.888 276.862 155.896 276.278 155.297 275.64C154.887 275.206 154.32 274.899 153.807 274.82L154.233 273.614C154.974 273.764 155.77 274.252 156.385 274.907C157.56 276.16 157.662 277.429 156.432 278.596ZM154.272 278.391L154.69 277.997L153.925 277.185C153.405 276.633 153.035 276.649 152.759 276.909C152.459 277.185 152.506 277.626 152.901 278.044C153.263 278.438 153.768 278.612 154.272 278.391Z" fill="#F8F4EE"/>
<path d="M163.96 286.544L161.627 288.752L160.507 287.569L162.659 285.535C163.322 284.912 163.345 284.329 162.888 283.848C162.383 283.32 161.69 283.265 160.964 283.959L158.915 285.898L157.795 284.715L159.947 282.681C160.61 282.059 160.641 281.491 160.176 280.994C159.679 280.474 158.986 280.419 158.26 281.113L156.211 283.052L155.091 281.869L159.167 278.014L160.239 279.142L159.766 279.583C160.405 279.56 161.012 279.843 161.508 280.364C162.044 280.931 162.289 281.625 162.108 282.335C162.833 282.264 163.582 282.563 164.165 283.178C165.103 284.14 165.206 285.37 163.96 286.544Z" fill="#F8F4EE"/>
<path d="M162.629 289.056L163.85 288.646C163.961 289.229 164.323 289.939 164.797 290.436C165.309 290.98 165.648 291.05 165.877 290.838C166.547 290.207 163.527 288.386 165.159 286.849C165.932 286.115 167.138 286.297 168.265 287.487C168.793 288.047 169.251 288.796 169.393 289.395L168.179 289.797C168.029 289.182 167.721 288.709 167.374 288.331C166.87 287.802 166.491 287.732 166.279 287.929C165.577 288.591 168.588 290.412 166.98 291.933C166.223 292.651 165.017 292.454 163.866 291.232C163.204 290.546 162.731 289.671 162.629 289.056Z" fill="#F8F4EE"/>
<path d="M209.733 334.644C211.484 332.989 213.399 333.02 214.629 334.321C215.867 335.63 215.788 337.538 214.038 339.193C212.288 340.849 210.38 340.825 209.142 339.516C207.904 338.208 207.983 336.3 209.733 334.644ZM212.863 337.956C214.069 336.812 214.172 335.922 213.589 335.307C213.013 334.7 212.114 334.747 210.908 335.89C209.702 337.033 209.607 337.932 210.175 338.531C210.758 339.146 211.657 339.091 212.863 337.956Z" fill="white"/>
<path d="M217.758 345.092C216.67 346.117 215.157 345.873 214.093 344.753C212.713 343.287 212.768 341.513 214.479 339.889C216.316 338.155 218.381 338.297 219.895 339.897C220.423 340.457 220.817 341.127 220.928 341.718L219.595 342.12C219.508 341.639 219.256 341.229 218.925 340.875C218.089 339.984 217.025 339.913 215.977 340.835C216.584 340.851 217.167 341.151 217.687 341.703C218.657 342.727 218.76 344.146 217.758 345.092ZM216.576 343.965C217.065 343.508 217.033 342.854 216.521 342.31C216.008 341.773 215.322 341.71 214.857 342.144C214.4 342.578 214.392 343.232 214.952 343.823C215.441 344.343 216.087 344.422 216.576 343.965Z" fill="white"/>
<path d="M224.806 343.12L225.8 344.176L216.292 348.425L215.299 347.369L224.806 343.12Z" fill="white"/>
<path d="M224.136 353.189L223.135 354.135L219.343 350.122L220.139 349.373L224.01 349.594C224.901 349.641 225.256 349.468 225.508 349.223C225.926 348.829 225.894 348.309 225.366 347.749C224.932 347.292 224.396 347.071 223.797 347.15L223.529 345.707C224.515 345.55 225.603 345.928 226.509 346.882C227.629 348.064 227.77 349.428 226.801 350.335C226.288 350.824 225.681 351.123 224.286 351.029L221.976 350.895L224.136 353.189Z" fill="white"/>
<path d="M229.245 358.368L228.425 357.501L227.314 358.557L226.178 357.359L227.29 356.303L224.586 353.441L225.414 352.66L231.145 351.982L232.367 353.275L226.982 353.969L228.33 355.396L229.324 354.458L230.42 355.617L229.426 356.555L230.246 357.422L229.245 358.368Z" fill="white"/>
<path d="M254.149 292.713C257.137 288.109 255.962 281.991 251.949 278.254C250.696 277.087 249.261 276.134 247.763 275.503C243.924 273.903 238.831 275.069 236.821 278.711C235.173 281.684 235.843 285.397 236.994 288.59C238.201 291.94 240.156 295.362 243.475 296.662C246.667 297.916 250.499 296.765 252.888 294.305C253.361 293.816 253.778 293.28 254.149 292.713Z" fill="#BBAD9C"/>
<path d="M341.016 295.44V434.213C341.016 441.805 334.859 447.962 327.267 447.962H125.662C118.07 447.962 111.913 441.805 111.913 434.213V295.44C111.913 287.848 118.07 281.691 125.662 281.691H327.267C334.859 281.691 341.016 287.84 341.016 295.44Z" fill="#CD9E64"/>
<path d="M341.016 295.441C341.016 295.441 341.001 295.275 340.977 294.944C340.945 294.613 340.961 294.116 340.835 293.47C340.654 292.185 340.189 290.245 338.817 288.085C338.123 287.021 337.216 285.901 336.002 284.9C334.788 283.907 333.283 283.016 331.517 282.441C331.075 282.291 330.61 282.196 330.145 282.07C329.672 281.975 329.183 281.92 328.686 281.834C328.19 281.81 327.677 281.786 327.165 281.763C326.645 281.763 326.116 281.763 325.58 281.763C323.428 281.763 321.142 281.77 318.714 281.77C299.297 281.786 271.216 281.81 236.512 281.834C219.161 281.841 200.154 281.849 179.751 281.857C169.55 281.857 158.994 281.865 148.13 281.865C142.698 281.865 137.18 281.865 131.591 281.873C130.195 281.873 128.792 281.873 127.381 281.873C125.97 281.889 124.566 281.826 123.195 282.109C121.823 282.378 120.483 282.827 119.245 283.489C118.015 284.167 116.88 285.034 115.894 286.043C114.893 287.045 114.105 288.251 113.474 289.52C112.851 290.797 112.41 292.177 112.244 293.596C112.055 295.007 112.118 296.465 112.102 297.932C112.102 299.39 112.102 300.857 112.102 302.323C112.102 308.196 112.102 314.14 112.102 320.14C112.102 332.146 112.102 344.413 112.11 356.893C112.11 381.86 112.11 407.71 112.118 434.183C112.126 437.446 113.332 440.679 115.477 443.115C117.597 445.566 120.625 447.206 123.825 447.608C125.41 447.813 127.057 447.727 128.689 447.75C130.321 447.75 131.945 447.75 133.569 447.75C136.817 447.75 140.05 447.75 143.274 447.75C156.171 447.75 168.88 447.75 181.367 447.75C206.342 447.758 230.426 447.758 253.375 447.766C276.324 447.774 298.122 447.782 318.533 447.782C321.087 447.782 323.609 447.782 326.116 447.782C327.378 447.79 328.6 447.766 329.814 447.537C331.012 447.285 332.195 446.938 333.275 446.371C333.834 446.134 334.331 445.771 334.851 445.472C335.324 445.101 335.845 444.778 336.27 444.352C337.193 443.572 337.942 442.626 338.62 441.648C339.913 439.646 340.709 437.336 340.811 434.995C340.898 425.542 340.843 416.437 340.867 407.765C340.89 373.062 340.914 344.981 340.93 325.571C340.945 315.867 340.961 308.338 340.969 303.222C340.977 300.667 340.985 298.72 340.993 297.411C341.001 296.111 341.016 295.441 341.016 295.441C341.016 295.441 341.032 296.111 341.04 297.419C341.048 298.736 341.048 300.683 341.064 303.229C341.072 308.346 341.087 315.875 341.103 325.579C341.119 344.988 341.142 373.07 341.166 407.773C341.15 416.453 341.213 425.534 341.142 435.018C341.04 437.415 340.228 439.78 338.904 441.83C338.21 442.831 337.445 443.801 336.499 444.605C336.058 445.038 335.529 445.369 335.041 445.756C334.505 446.063 334 446.434 333.424 446.678C332.321 447.261 331.107 447.616 329.877 447.876C328.639 448.113 327.362 448.137 326.116 448.129C323.609 448.129 321.079 448.129 318.533 448.129C298.13 448.137 276.324 448.144 253.375 448.144C230.426 448.144 206.342 448.152 181.367 448.16C168.88 448.16 156.171 448.16 143.274 448.16C140.05 448.16 136.817 448.16 133.569 448.16C131.945 448.16 130.321 448.16 128.689 448.16C127.065 448.144 125.426 448.231 123.77 448.018C120.475 447.6 117.353 445.913 115.169 443.391C112.962 440.884 111.708 437.557 111.708 434.191C111.708 407.718 111.708 381.868 111.716 356.9C111.716 344.421 111.716 332.154 111.724 320.147C111.724 314.14 111.724 308.204 111.724 302.331C111.724 300.864 111.724 299.398 111.724 297.94C111.732 296.481 111.669 295.023 111.866 293.556C112.039 292.098 112.497 290.679 113.135 289.362C113.782 288.054 114.594 286.824 115.626 285.791C116.643 284.75 117.802 283.868 119.071 283.166C120.349 282.488 121.728 282.023 123.131 281.747L124.196 281.581L125.268 281.526C125.985 281.487 126.679 281.518 127.389 281.51C128.792 281.51 130.195 281.51 131.598 281.51C137.188 281.51 142.698 281.51 148.138 281.518C159.009 281.518 169.558 281.526 179.759 281.526C200.161 281.534 219.169 281.542 236.52 281.55C271.223 281.581 299.305 281.597 318.722 281.613C321.15 281.613 323.436 281.621 325.588 281.621C326.124 281.621 326.653 281.621 327.173 281.621C327.693 281.644 328.206 281.676 328.71 281.7C329.207 281.778 329.703 281.841 330.176 281.936C330.649 282.07 331.115 282.157 331.556 282.314C333.338 282.906 334.851 283.804 336.073 284.814C337.287 285.831 338.194 286.966 338.888 288.038C340.252 290.222 340.709 292.177 340.874 293.462C340.993 294.108 340.969 294.605 340.993 294.936C341.016 295.267 341.016 295.441 341.016 295.441Z" fill="#263238"/>
<path d="M332.992 291.941C332.992 291.831 334.048 291.736 335.357 291.736C336.665 291.736 337.722 291.831 337.722 291.941C337.722 292.052 336.665 292.146 335.357 292.146C334.048 292.146 332.992 292.052 332.992 291.941Z" fill="#263238"/>
<path d="M313.692 291.941C313.692 291.831 315.852 291.736 318.517 291.736C321.182 291.736 323.342 291.831 323.342 291.941C323.342 292.052 321.182 292.146 318.517 292.146C315.852 292.146 313.692 292.052 313.692 291.941Z" fill="#263238"/>
<path d="M294.402 291.941C294.402 291.831 296.562 291.736 299.226 291.736C301.891 291.736 304.051 291.831 304.051 291.941C304.051 292.052 301.891 292.146 299.226 292.146C296.562 292.146 294.402 292.052 294.402 291.941Z" fill="#263238"/>
<path d="M275.102 291.941C275.102 291.831 277.262 291.736 279.927 291.736C282.592 291.736 284.752 291.831 284.752 291.941C284.752 292.052 282.592 292.146 279.927 292.146C277.262 292.146 275.102 292.052 275.102 291.941Z" fill="#263238"/>
<path d="M255.812 291.941C255.812 291.831 257.972 291.736 260.636 291.736C263.301 291.736 265.461 291.831 265.461 291.941C265.461 292.052 263.301 292.146 260.636 292.146C257.972 292.146 255.812 292.052 255.812 291.941Z" fill="#263238"/>
<path d="M236.512 291.941C236.512 291.831 238.673 291.736 241.337 291.736C244.002 291.736 246.162 291.831 246.162 291.941C246.162 292.052 244.002 292.146 241.337 292.146C238.673 292.146 236.512 292.052 236.512 291.941Z" fill="#263238"/>
<path d="M217.222 291.941C217.222 291.831 219.382 291.736 222.046 291.736C224.711 291.736 226.871 291.831 226.871 291.941C226.871 292.052 224.711 292.146 222.046 292.146C219.382 292.146 217.222 292.052 217.222 291.941Z" fill="#263238"/>
<path d="M197.923 291.941C197.923 291.831 200.083 291.736 202.748 291.736C205.412 291.736 207.573 291.831 207.573 291.941C207.573 292.052 205.412 292.146 202.748 292.146C200.083 292.146 197.923 292.052 197.923 291.941Z" fill="#263238"/>
<path d="M178.632 291.941C178.632 291.831 180.792 291.736 183.456 291.736C186.121 291.736 188.281 291.831 188.281 291.941C188.281 292.052 186.121 292.146 183.456 292.146C180.792 292.146 178.632 292.052 178.632 291.941Z" fill="#263238"/>
<path d="M159.333 291.941C159.333 291.831 161.493 291.736 164.158 291.736C166.822 291.736 168.982 291.831 168.982 291.941C168.982 292.052 166.822 292.146 164.158 292.146C161.493 292.146 159.333 292.052 159.333 291.941Z" fill="#263238"/>
<path d="M140.042 291.941C140.042 291.831 142.202 291.736 144.867 291.736C147.532 291.736 149.692 291.831 149.692 291.941C149.692 292.052 147.532 292.146 144.867 292.146C142.202 292.146 140.042 292.052 140.042 291.941Z" fill="#263238"/>
<path d="M125.663 296.671C125.552 296.671 125.458 294.55 125.458 291.941C125.868 291.531 125.576 291.831 125.663 291.736H125.671H125.686H125.718H125.781H125.899H126.136C126.293 291.736 126.451 291.736 126.609 291.736C126.908 291.744 127.208 291.744 127.5 291.752C128.02 291.767 128.517 291.783 129.005 291.799C129.865 291.838 130.393 291.886 130.393 291.941C130.393 291.996 129.865 292.051 129.005 292.083C128.517 292.099 128.02 292.114 127.5 292.13C127.208 292.138 126.916 292.138 126.609 292.146C126.451 292.146 126.293 292.146 126.136 292.146H125.899H125.781H125.718H125.686H125.671H125.663C125.757 292.051 125.458 292.351 125.868 291.941C125.868 294.55 125.773 296.671 125.663 296.671Z" fill="#263238"/>
<path d="M125.663 314.353C125.552 314.353 125.458 312.374 125.458 309.93C125.458 307.487 125.552 305.508 125.663 305.508C125.773 305.508 125.868 307.487 125.868 309.93C125.868 312.374 125.773 314.353 125.663 314.353Z" fill="#263238"/>
<path d="M125.663 332.036C125.552 332.036 125.458 330.057 125.458 327.613C125.458 325.169 125.552 323.19 125.663 323.19C125.773 323.19 125.868 325.169 125.868 327.613C125.868 330.057 125.773 332.036 125.663 332.036Z" fill="#263238"/>
<path d="M125.663 349.718C125.552 349.718 125.458 347.739 125.458 345.295C125.458 342.852 125.552 340.873 125.663 340.873C125.773 340.873 125.868 342.852 125.868 345.295C125.868 347.731 125.773 349.718 125.663 349.718Z" fill="#263238"/>
<path d="M125.663 367.392C125.552 367.392 125.458 365.413 125.458 362.969C125.458 360.525 125.552 358.547 125.663 358.547C125.773 358.547 125.868 360.525 125.868 362.969C125.868 365.413 125.773 367.392 125.663 367.392Z" fill="#263238"/>
<path d="M125.663 385.077C125.552 385.077 125.458 383.098 125.458 380.654C125.458 378.21 125.552 376.232 125.663 376.232C125.773 376.232 125.868 378.21 125.868 380.654C125.868 383.098 125.773 385.077 125.663 385.077Z" fill="#263238"/>
<path d="M125.663 402.759C125.552 402.759 125.458 400.781 125.458 398.337C125.458 395.893 125.552 393.914 125.663 393.914C125.773 393.914 125.868 395.893 125.868 398.337C125.868 400.781 125.773 402.759 125.663 402.759Z" fill="#263238"/>
<path d="M125.663 420.442C125.552 420.442 125.458 418.463 125.458 416.019C125.458 413.575 125.552 411.597 125.663 411.597C125.773 411.597 125.868 413.575 125.868 416.019C125.868 418.463 125.773 420.442 125.663 420.442Z" fill="#263238"/>
<path d="M130.393 434.012C130.393 434.122 128.273 434.217 125.663 434.217C125.253 433.807 125.553 434.099 125.458 434.012V434.004V433.988V433.957V433.894V433.775V433.539C125.458 433.381 125.458 433.224 125.458 433.066C125.466 432.766 125.466 432.467 125.474 432.175C125.49 431.655 125.506 431.158 125.521 430.669C125.561 429.81 125.608 429.282 125.663 429.282C125.718 429.282 125.774 429.81 125.805 430.669C125.821 431.158 125.837 431.655 125.852 432.175C125.86 432.467 125.86 432.759 125.868 433.066C125.868 433.224 125.868 433.373 125.868 433.539V433.775V433.894V433.957V433.988V434.004V434.012C125.774 433.917 126.073 434.217 125.663 433.807C128.273 433.807 130.393 433.902 130.393 434.012Z" fill="#263238"/>
<path d="M149.407 434.013C149.407 434.123 147.279 434.218 144.654 434.218C142.028 434.218 139.9 434.123 139.9 434.013C139.9 433.903 142.028 433.808 144.654 433.808C147.279 433.808 149.407 433.903 149.407 434.013Z" fill="#263238"/>
<path d="M168.422 434.013C168.422 434.123 166.294 434.218 163.669 434.218C161.043 434.218 158.915 434.123 158.915 434.013C158.915 433.903 161.043 433.808 163.669 433.808C166.294 433.808 168.422 433.903 168.422 434.013Z" fill="#263238"/>
<path d="M187.437 434.013C187.437 434.123 185.309 434.218 182.684 434.218C180.058 434.218 177.93 434.123 177.93 434.013C177.93 433.903 180.058 433.808 182.684 433.808C185.309 433.808 187.437 433.903 187.437 434.013Z" fill="#263238"/>
<path d="M206.452 434.013C206.452 434.123 204.324 434.218 201.699 434.218C199.073 434.218 196.945 434.123 196.945 434.013C196.945 433.903 199.073 433.808 201.699 433.808C204.324 433.808 206.452 433.903 206.452 434.013Z" fill="#263238"/>
<path d="M225.467 434.013C225.467 434.123 223.339 434.218 220.714 434.218C218.089 434.218 215.96 434.123 215.96 434.013C215.96 433.903 218.089 433.808 220.714 433.808C223.339 433.808 225.467 433.903 225.467 434.013Z" fill="#263238"/>
<path d="M244.483 434.013C244.483 434.123 242.354 434.218 239.729 434.218C237.104 434.218 234.975 434.123 234.975 434.013C234.975 433.903 237.104 433.808 239.729 433.808C242.354 433.808 244.483 433.903 244.483 434.013Z" fill="#263238"/>
<path d="M263.497 434.013C263.497 434.123 261.368 434.218 258.743 434.218C256.118 434.218 253.99 434.123 253.99 434.013C253.99 433.903 256.118 433.808 258.743 433.808C261.368 433.808 263.497 433.903 263.497 434.013Z" fill="#263238"/>
<path d="M282.521 434.013C282.521 434.123 280.393 434.218 277.767 434.218C275.142 434.218 273.014 434.123 273.014 434.013C273.014 433.903 275.142 433.808 277.767 433.808C280.393 433.808 282.521 433.903 282.521 434.013Z" fill="#263238"/>
<path d="M301.536 434.013C301.536 434.123 299.407 434.218 296.782 434.218C294.157 434.218 292.028 434.123 292.028 434.013C292.028 433.903 294.157 433.808 296.782 433.808C299.407 433.808 301.536 433.903 301.536 434.013Z" fill="#263238"/>
<path d="M320.551 434.013C320.551 434.123 318.422 434.218 315.797 434.218C313.172 434.218 311.043 434.123 311.043 434.013C311.043 433.903 313.172 433.808 315.797 433.808C318.422 433.808 320.551 433.903 320.551 434.013Z" fill="#263238"/>
<path d="M334.788 434.013C334.788 434.123 333.732 434.218 332.423 434.218C331.115 434.218 330.058 434.123 330.058 434.013C330.058 433.903 331.115 433.808 332.423 433.808C333.724 433.808 334.788 433.903 334.788 434.013Z" fill="#263238"/>
<g opacity="0.3">
<path opacity="0.3" d="M190.969 373.906C190.969 373.906 191.016 381.79 188.635 386.559C186.255 391.329 185.45 393.158 180.444 394.995C175.438 396.832 111.921 403.793 111.921 403.793V382.342L190.969 373.906Z" fill="black"/>
</g>
<g opacity="0.3">
<path opacity="0.3" d="M189.834 344.184C189.834 344.184 190.559 336.143 170.369 333.155C147.278 329.734 111.921 325.54 111.921 325.54V340.763L189.834 344.184Z" fill="black"/>
</g>
<path d="M114.01 388.855H179.68C185.916 388.855 190.961 383.801 190.961 377.573V348.176C190.961 341.94 185.908 336.894 179.68 336.894H114.01C107.774 336.894 102.729 341.948 102.729 348.176V377.573C102.729 383.801 107.782 388.855 114.01 388.855Z" fill="#CD9E64"/>
<path d="M114.011 388.858C114.011 388.858 113.783 388.858 113.333 388.842C112.884 388.842 112.222 388.763 111.37 388.574C110.519 388.401 109.494 388.022 108.374 387.407C107.263 386.785 106.072 385.854 105.048 384.546C104.038 383.237 103.14 381.55 102.809 379.547C102.604 378.554 102.627 377.482 102.619 376.402C102.619 375.314 102.612 374.179 102.612 373.004C102.604 368.313 102.596 362.968 102.58 357.072C102.588 354.115 102.548 351.033 102.588 347.801C102.675 344.545 104.267 341.163 107.113 339.05C108.516 337.993 110.188 337.213 111.985 336.913C112.876 336.748 113.814 336.716 114.713 336.724C115.627 336.724 116.542 336.724 117.464 336.724C121.161 336.724 124.969 336.716 128.872 336.716C144.489 336.708 161.651 336.708 179.665 336.701C180.808 336.724 181.951 336.882 183.047 337.205C184.135 337.552 185.168 338.049 186.114 338.671C187.044 339.318 187.88 340.09 188.597 340.958C189.307 341.833 189.866 342.818 190.308 343.843C190.734 344.876 190.978 345.972 191.112 347.075C191.191 348.187 191.159 349.267 191.167 350.347C191.167 352.507 191.167 354.651 191.167 356.772C191.167 361.021 191.167 365.192 191.159 369.283C191.159 371.325 191.159 373.351 191.159 375.346C191.144 376.347 191.199 377.324 191.12 378.341C191.12 378.846 191.002 379.335 190.939 379.831C190.82 380.312 190.718 380.809 190.544 381.274C189.291 385.066 185.996 387.92 182.33 388.74C181.88 388.874 181.407 388.897 180.95 388.984C180.485 389.023 180.02 389.039 179.563 389.055C178.648 389.055 177.749 389.055 176.851 389.055C175.053 389.055 173.287 389.055 171.553 389.047C164.608 389.039 158.143 389.031 152.238 389.024C140.437 389 130.882 388.976 124.268 388.96C120.972 388.945 118.41 388.929 116.66 388.921C115.801 388.913 115.138 388.905 114.681 388.897C114.24 388.874 114.011 388.858 114.011 388.858C114.011 388.858 114.24 388.842 114.681 388.834C115.138 388.826 115.801 388.826 116.66 388.811C118.41 388.803 120.972 388.787 124.268 388.771C130.882 388.755 140.437 388.732 152.238 388.708C158.143 388.7 164.608 388.692 171.553 388.684C173.287 388.684 175.053 388.685 176.851 388.677C178.648 388.629 180.485 388.826 182.251 388.361C185.799 387.557 188.983 384.79 190.19 381.124C190.875 379.303 190.781 377.324 190.781 375.322C190.781 373.32 190.781 371.301 190.781 369.26C190.781 365.176 190.781 360.998 190.773 356.748C190.773 354.628 190.773 352.483 190.773 350.323C190.765 349.243 190.797 348.147 190.718 347.091C190.592 346.027 190.355 344.978 189.945 343.977C189.52 342.992 188.983 342.046 188.298 341.194C187.604 340.359 186.8 339.617 185.901 338.995C184.986 338.395 183.993 337.915 182.945 337.584C181.888 337.268 180.792 337.118 179.681 337.095C161.667 337.087 144.497 337.087 128.887 337.079C124.985 337.079 121.177 337.071 117.48 337.071C116.557 337.071 115.635 337.071 114.729 337.071C113.814 337.063 112.931 337.095 112.056 337.252C110.314 337.536 108.69 338.293 107.326 339.318C104.559 341.36 102.998 344.639 102.911 347.808C102.872 351.017 102.895 354.123 102.88 357.072C102.872 362.976 102.856 368.313 102.848 373.004C102.848 374.179 102.84 375.306 102.84 376.402C102.848 377.49 102.817 378.538 103.014 379.516C103.329 381.487 104.204 383.158 105.189 384.451C106.191 385.752 107.357 386.674 108.445 387.305C109.549 387.92 110.558 388.314 111.402 388.495C112.245 388.692 112.9 388.787 113.349 388.803C113.783 388.834 114.011 388.858 114.011 388.858Z" fill="#263238"/>
<path d="M164.387 383.715C174.819 383.715 183.276 375.258 183.276 364.826C183.276 354.394 174.819 345.937 164.387 345.937C153.955 345.937 145.498 354.394 145.498 364.826C145.498 375.258 153.955 383.715 164.387 383.715Z" fill="#263238"/>
<path d="M169.235 380.26C169.188 380.158 171.182 379.756 173.736 377.903C175.006 376.989 176.377 375.672 177.552 373.961C178.727 372.259 179.673 370.13 180.059 367.773C180.414 365.408 180.177 363.098 179.594 361.111C179.01 359.125 178.112 357.453 177.189 356.184C175.329 353.622 173.563 352.629 173.642 352.542C173.65 352.534 173.76 352.589 173.949 352.715C174.138 352.849 174.446 353.023 174.785 353.307C175.494 353.843 176.448 354.733 177.418 356.003C178.388 357.272 179.334 358.967 179.956 360.993C180.579 363.019 180.839 365.392 180.469 367.828C180.067 370.256 179.081 372.432 177.867 374.166C176.645 375.901 175.226 377.225 173.91 378.124C172.593 379.03 171.411 379.582 170.567 379.874C170.157 380.04 169.81 380.111 169.59 380.174C169.353 380.245 169.235 380.268 169.235 380.26Z" fill="#FAFAFA"/>
<path d="M76.1876 356.668C78.8128 374.714 66.2701 391.474 48.1853 394.107C30.1005 396.732 13.3086 384.237 10.6833 366.191C8.05813 348.146 20.6008 331.386 38.6856 328.753C56.7783 326.127 73.5623 338.623 76.1876 356.668Z" fill="#E0D6C7"/>
<g opacity="0.3">
<path opacity="0.3" d="M68.2719 357.023C68.1221 357.047 67.8541 355.967 67.1761 354.114C66.4902 352.277 65.3314 349.636 63.187 346.885C62.1149 345.513 60.7983 344.126 59.2216 342.833C57.637 341.555 55.8002 340.357 53.7111 339.427C52.6704 338.954 51.5746 338.536 50.4236 338.213C49.2726 337.882 48.0822 337.606 46.8524 337.456C45.6226 337.298 44.3612 337.204 43.0841 337.235C41.8069 337.267 40.5061 337.393 39.2132 337.614C37.9204 337.85 36.659 338.181 35.4449 338.591C34.2309 339.001 33.0799 339.522 31.9762 340.097C30.8725 340.665 29.8476 341.335 28.8858 342.036C27.9162 342.738 27.0332 343.511 26.2212 344.307C24.5814 345.899 23.2728 347.657 22.2243 349.4C21.1915 351.158 20.4347 352.916 19.8986 354.571C18.8343 357.898 18.653 360.768 18.6451 362.731C18.6451 364.702 18.7713 365.813 18.6136 365.837C18.5032 365.86 18.1248 364.796 17.8883 362.77C17.6676 360.76 17.6282 357.748 18.5821 354.185C19.063 352.411 19.7804 350.511 20.8289 348.603C21.8853 346.711 23.2412 344.796 24.9598 343.045C25.8191 342.17 26.7494 341.327 27.7821 340.554C28.807 339.782 29.9028 339.049 31.0853 338.418C32.2679 337.787 33.5056 337.22 34.8142 336.762C36.1229 336.313 37.4789 335.95 38.8743 335.698C40.2775 335.462 41.6729 335.328 43.0525 335.304C44.4321 335.272 45.796 335.391 47.1204 335.572C48.4449 335.753 49.7299 336.061 50.9597 336.439C52.1895 336.81 53.3642 337.283 54.4679 337.811C56.6831 338.859 58.6146 340.192 60.2623 341.611C61.8941 343.045 63.2265 344.575 64.2907 346.073C66.4114 349.084 67.4126 351.93 67.9014 353.893C68.3744 355.872 68.3902 357.007 68.2719 357.023Z" fill="#8F7A61"/>
</g>
<path opacity="0.1" d="M48.4206 375.896L49.1143 380.232L45.2435 380.855L44.5656 376.637C40.6947 377.016 36.8239 376.409 34.4273 375.084L35.7991 370.015C37.967 371.143 40.9234 371.734 43.7535 371.56L42.7208 365.088C38.2509 364.733 33.2212 364.071 32.3382 358.529C31.6839 354.422 34.0962 350.425 40.1035 348.746L39.4176 344.449L43.2884 343.826L43.9664 348.052C46.907 347.815 49.8633 348.139 52.2047 349.155L51.03 354.232C48.8778 353.428 46.7572 353.089 44.7784 353.168L45.8348 359.751C50.2969 360.066 55.2477 360.744 56.1228 366.208C56.7693 370.236 54.3884 374.194 48.4206 375.896ZM41.8063 359.396L40.9234 353.893C38.9446 354.69 38.3139 355.943 38.5189 357.22C38.7396 358.584 40.0168 359.128 41.8063 359.396ZM49.9658 367.666C49.745 366.31 48.5073 365.758 46.7493 365.435L47.6086 370.78C49.4691 370.055 50.1629 368.912 49.9658 367.666Z" fill="#432800"/>
<path d="M18.487 365.112C18.4948 365.112 18.5106 365.175 18.55 365.309C18.5895 365.466 18.6289 365.656 18.6841 365.892C18.7392 366.16 18.8102 366.475 18.8969 366.846C18.9836 367.224 19.0546 367.658 19.228 368.131C19.7641 370.047 20.8284 372.774 22.8623 375.699C23.8556 377.173 25.188 378.616 26.7174 380.043C27.1194 380.374 27.5373 380.705 27.9551 381.044C28.1679 381.21 28.3729 381.391 28.5936 381.549C28.8223 381.699 29.0509 381.856 29.2874 382.006C29.7525 382.306 30.2098 382.645 30.7064 382.928C31.211 383.196 31.7234 383.472 32.2358 383.748C34.3486 384.757 36.6821 385.625 39.2128 386.019C41.7355 386.421 44.4001 386.468 47.0884 386.105C49.7688 385.672 52.3073 384.852 54.6014 383.74C56.9034 382.621 58.89 381.115 60.6244 379.546C61.0422 379.129 61.4522 378.719 61.8542 378.317C62.2484 377.907 62.5874 377.449 62.95 377.024C63.1235 376.811 63.3048 376.598 63.4782 376.385C63.6438 376.172 63.7857 375.936 63.9434 375.715C64.2429 375.266 64.5425 374.824 64.8342 374.398C65.8827 372.593 66.742 370.827 67.2623 369.132C68.366 365.742 68.5868 362.825 68.5473 360.839C68.5789 360.342 68.5237 359.901 68.4922 359.514C68.4606 359.136 68.437 358.821 68.4212 358.545C68.4054 358.3 68.3976 358.103 68.3818 357.945C68.3739 357.811 68.3739 357.741 68.3818 357.741C68.3897 357.741 68.4054 357.804 68.4212 357.938C68.4449 358.095 68.4685 358.292 68.5 358.529C68.5316 358.805 68.571 359.128 68.6104 359.499C68.6498 359.885 68.7208 360.326 68.705 360.831C68.7917 362.833 68.6183 365.782 67.5304 369.219C67.0179 370.945 66.1665 372.735 65.118 374.58C64.8263 375.021 64.5267 375.471 64.2193 375.928C64.0616 376.156 63.9197 376.393 63.7542 376.614C63.5807 376.827 63.3994 377.047 63.226 377.268C62.8633 377.702 62.5243 378.167 62.1223 378.585C61.7123 378.995 61.3024 379.412 60.8767 379.838C59.1265 381.446 57.1162 382.984 54.7748 384.119C52.4413 385.254 49.8634 386.09 47.1436 386.531C44.4159 386.902 41.7039 386.846 39.1418 386.429C36.5718 386.011 34.2067 385.128 32.0624 384.095C31.5421 383.811 31.0218 383.528 30.5093 383.252C30.0048 382.968 29.5476 382.621 29.0745 382.313C28.838 382.156 28.6094 381.998 28.3808 381.84C28.1522 381.683 27.9472 381.494 27.7343 381.32C27.3086 380.973 26.8987 380.626 26.4887 380.295C24.9515 378.837 23.6191 377.371 22.6258 375.865C20.5919 372.885 19.567 370.11 19.0782 368.17C18.9206 367.697 18.8496 367.248 18.7787 366.87C18.7156 366.499 18.6525 366.176 18.6052 365.908C18.5658 365.671 18.5343 365.474 18.5106 365.317C18.487 365.183 18.4791 365.112 18.487 365.112Z" fill="#BBAD9C"/>
<g opacity="0.6">
<path d="M122.318 87.6075C124.943 105.653 112.4 122.413 94.3154 125.046C76.2306 127.672 59.4387 115.176 56.8135 97.1308C54.1883 79.0854 66.7309 62.325 84.8157 59.6919C102.908 57.0667 119.692 69.5621 122.318 87.6075Z" fill="#E0D6C7"/>
<g opacity="0.3">
<path opacity="0.3" d="M114.402 87.9622C114.252 87.9858 113.984 86.9058 113.306 85.0532C112.62 83.2163 111.461 80.5753 109.317 77.824C108.245 76.4522 106.928 75.0647 105.352 73.7718C103.767 72.4947 101.93 71.2964 99.8412 70.3662C98.8006 69.8931 97.7047 69.4753 96.5537 69.1521C95.4028 68.821 94.2123 68.5451 92.9825 68.3953C91.7527 68.2376 90.4913 68.143 89.2142 68.1745C87.9371 68.2061 86.6363 68.3322 85.3434 68.5529C84.0505 68.7894 82.7891 69.1205 81.5751 69.5305C80.361 69.9404 79.21 70.4607 78.1063 71.0362C77.0026 71.6039 75.9778 72.274 75.016 72.9756C74.0463 73.6772 73.1633 74.4498 72.3513 75.246C70.7116 76.8385 69.4029 78.5965 68.3544 80.3388C67.3216 82.0968 66.5648 83.8549 66.0287 85.5104C64.9645 88.8373 64.7831 91.7068 64.7753 93.6698C64.7753 95.6407 64.9014 96.7523 64.7437 96.7759C64.6334 96.7996 64.2549 95.7353 64.0184 93.7093C63.7977 91.699 63.7583 88.6875 64.7122 85.1241C65.1931 83.3503 65.9105 81.4504 66.959 79.5426C68.0154 77.6505 69.3714 75.7348 71.09 73.9847C71.9493 73.1096 72.8795 72.2661 73.9123 71.4935C74.9371 70.7209 76.0329 69.9877 77.2155 69.3571C78.398 68.7264 79.6357 68.1588 80.9444 67.7015C82.253 67.2522 83.609 66.8895 85.0044 66.6372C86.4077 66.4007 87.803 66.2667 89.1826 66.2431C90.5623 66.2115 91.9261 66.3298 93.2505 66.5111C94.575 66.6924 95.86 66.9999 97.0898 67.3783C98.3197 67.7488 99.4943 68.2218 100.598 68.75C102.813 69.7985 104.745 71.1308 106.392 72.5499C108.024 73.9847 109.357 75.5141 110.421 77.012C112.542 80.0235 113.543 82.8694 114.032 84.8324C114.505 86.8112 114.52 87.9464 114.402 87.9622Z" fill="#8F7A61"/>
</g>
<path opacity="0.1" d="M94.5507 106.836L95.2445 111.172L91.3737 111.794L90.6957 107.577C86.8249 107.955 82.9541 107.348 80.5575 106.024L81.9292 100.954C84.0972 102.082 87.0535 102.673 89.8837 102.5L88.8509 96.0273C84.381 95.6725 79.3513 95.0103 78.4683 89.4682C77.814 85.3609 80.2264 81.364 86.2336 79.6848L85.5477 75.3882L89.4186 74.7654L90.0965 78.991C93.0371 78.7545 95.9934 79.0777 98.3348 80.0947L97.1602 85.1717C95.008 84.3676 92.8873 84.0286 90.9085 84.1074L91.9649 90.6902C96.427 91.0055 101.378 91.6835 102.253 97.1468C102.899 101.175 100.519 105.133 94.5507 106.836ZM87.9365 90.3354L87.0535 84.8327C85.0747 85.6289 84.444 86.8824 84.649 88.1596C84.8698 89.5234 86.1469 90.0674 87.9365 90.3354ZM96.0959 98.6052C95.8752 97.2493 94.6374 96.6974 92.8794 96.3742L93.7387 101.719C95.5992 100.994 96.293 99.8508 96.0959 98.6052Z" fill="#432800"/>
<path d="M64.6171 96.0508C64.625 96.0508 64.6407 96.1139 64.6802 96.2479C64.7196 96.4056 64.759 96.5948 64.8142 96.8313C64.8694 97.0993 64.9403 97.4147 65.027 97.7852C65.1138 98.1636 65.1847 98.5972 65.3581 99.0702C65.8942 100.986 66.9585 103.714 68.9924 106.638C69.9858 108.113 71.3181 109.555 72.8475 110.982C73.2496 111.313 73.6674 111.644 74.0852 111.983C74.2981 112.149 74.503 112.33 74.7238 112.488C74.9524 112.638 75.181 112.795 75.4175 112.945C75.8826 113.245 76.3399 113.584 76.8366 113.868C77.3411 114.136 77.8535 114.412 78.366 114.687C80.4787 115.697 82.8123 116.564 85.3429 116.958C87.8656 117.36 90.5302 117.407 93.2185 117.045C95.8989 116.611 98.4374 115.791 100.732 114.68C103.034 113.56 105.02 112.054 106.755 110.486C107.172 110.068 107.582 109.658 107.984 109.256C108.379 108.846 108.718 108.389 109.08 107.963C109.254 107.75 109.435 107.537 109.608 107.324C109.774 107.111 109.916 106.875 110.073 106.654C110.373 106.205 110.673 105.763 110.964 105.338C112.013 103.532 112.872 101.766 113.392 100.071C114.496 96.6815 114.717 93.7646 114.677 91.778C114.709 91.2813 114.654 90.8398 114.622 90.4535C114.591 90.0751 114.567 89.7598 114.551 89.4839C114.536 89.2395 114.528 89.0424 114.512 88.8847C114.504 88.7507 114.504 88.6797 114.512 88.6797C114.52 88.6797 114.536 88.7428 114.551 88.8768C114.575 89.0345 114.599 89.2316 114.63 89.4681C114.662 89.744 114.701 90.0672 114.741 90.4378C114.78 90.8241 114.851 91.2655 114.835 91.7701C114.922 93.7725 114.748 96.7209 113.66 100.158C113.148 101.885 112.297 103.674 111.248 105.519C110.956 105.96 110.657 106.41 110.349 106.867C110.192 107.096 110.05 107.332 109.884 107.553C109.711 107.766 109.53 107.986 109.356 108.207C108.993 108.641 108.654 109.106 108.252 109.524C107.842 109.934 107.433 110.352 107.007 110.777C105.257 112.386 103.246 113.923 100.905 115.058C98.5714 116.193 95.9935 117.029 93.2737 117.47C90.546 117.841 87.8341 117.786 85.2719 117.368C82.7019 116.95 80.3368 116.067 78.1925 115.034C77.6722 114.751 77.1519 114.467 76.6395 114.191C76.1349 113.907 75.6777 113.56 75.2047 113.253C74.9682 113.095 74.7395 112.937 74.5109 112.78C74.2823 112.622 74.0773 112.433 73.8645 112.259C73.4388 111.912 73.0288 111.566 72.6189 111.235C71.0816 109.776 69.7493 108.31 68.7559 106.804C66.722 103.824 65.6971 101.049 65.2084 99.1096C65.0507 98.6366 64.9797 98.1873 64.9088 97.8089C64.8457 97.4383 64.7826 97.1151 64.7353 96.8471C64.6959 96.6106 64.6644 96.4135 64.6407 96.2558C64.6171 96.1218 64.6092 96.0508 64.6171 96.0508Z" fill="#BBAD9C"/>
</g>
<g opacity="0.34">
<path d="M171.52 39.5124C172.859 48.7182 166.46 57.2685 157.234 58.6117C148.008 59.951 139.442 53.5765 138.103 44.3707C136.764 35.1648 143.162 26.6146 152.388 25.2713C161.618 23.932 170.18 30.3065 171.52 39.5124Z" fill="#E0D6C7"/>
<g opacity="0.3">
<path opacity="0.3" d="M167.479 39.6906C167.402 39.7027 167.266 39.1517 166.92 38.2066C166.57 37.2695 165.979 35.9222 164.885 34.5186C164.338 33.8188 163.666 33.111 162.862 32.4514C162.053 31.7999 161.116 31.1886 160.051 30.714C159.52 30.4727 158.961 30.2596 158.374 30.0947C157.786 29.9257 157.179 29.785 156.552 29.7086C155.924 29.6281 155.281 29.5799 154.629 29.596C153.978 29.612 153.314 29.6764 152.655 29.789C151.995 29.9097 151.352 30.0786 150.732 30.2877C150.113 30.4968 149.526 30.7623 148.963 31.0559C148.4 31.3454 147.877 31.6873 147.386 32.0452C146.891 32.4032 146.441 32.7973 146.027 33.2035C145.19 34.0159 144.523 34.9127 143.988 35.8015C143.461 36.6984 143.075 37.5953 142.801 38.4398C142.258 40.137 142.166 41.6009 142.162 42.6024C142.162 43.6078 142.226 44.1749 142.146 44.1869C142.089 44.199 141.896 43.6561 141.776 42.6225C141.663 41.5969 141.643 40.0606 142.13 38.2428C142.375 37.3379 142.741 36.3686 143.276 35.3954C143.815 34.4301 144.507 33.4528 145.383 32.56C145.822 32.1136 146.296 31.6833 146.823 31.2891C147.346 30.895 147.905 30.521 148.508 30.1992C149.111 29.8775 149.743 29.5879 150.41 29.3547C151.078 29.1254 151.77 28.9404 152.482 28.8117C153.198 28.6911 153.909 28.6227 154.613 28.6106C155.317 28.5945 156.013 28.6549 156.688 28.7474C157.364 28.8399 158.02 28.9967 158.647 29.1898C159.274 29.3788 159.874 29.6201 160.437 29.8896C161.567 30.4244 162.552 31.1041 163.393 31.828C164.225 32.56 164.905 33.3402 165.448 34.1044C166.53 35.6407 167.04 37.0925 167.29 38.094C167.531 39.1034 167.539 39.6826 167.479 39.6906Z" fill="#8F7A61"/>
</g>
<path opacity="0.1" d="M157.353 49.3258L157.707 51.5377L155.733 51.8554L155.387 49.7038C153.412 49.8969 151.437 49.5872 150.215 48.9115L150.915 46.3255C152.021 46.9006 153.529 47.2023 154.973 47.1138L154.446 43.8119C152.165 43.6309 149.599 43.2931 149.149 40.4658C148.815 38.3705 150.046 36.3314 153.11 35.4748L152.761 33.2829L154.735 32.9652L155.081 35.1209C156.581 35.0002 158.089 35.1651 159.284 35.6839L158.685 38.2739C157.587 37.8637 156.505 37.6908 155.495 37.731L156.034 41.0892C158.311 41.25 160.836 41.5959 161.283 44.383C161.612 46.4381 160.398 48.4571 157.353 49.3258ZM153.979 40.9082L153.529 38.101C152.519 38.5072 152.198 39.1467 152.302 39.7982C152.415 40.494 153.066 40.7715 153.979 40.9082ZM158.142 45.127C158.029 44.4353 157.398 44.1538 156.501 43.9889L156.939 46.7156C157.888 46.3456 158.242 45.7625 158.142 45.127Z" fill="#432800"/>
<path d="M142.084 43.817C142.088 43.817 142.096 43.8492 142.116 43.9176C142.137 43.998 142.157 44.0946 142.185 44.2152C142.213 44.3519 142.249 44.5128 142.293 44.7018C142.338 44.8949 142.374 45.1161 142.462 45.3574C142.736 46.3347 143.279 47.7262 144.316 49.2183C144.823 49.9704 145.503 50.7063 146.283 51.4343C146.488 51.6032 146.701 51.7721 146.914 51.945C147.023 52.0295 147.128 52.122 147.24 52.2024C147.357 52.2788 147.473 52.3593 147.594 52.4357C147.831 52.5885 148.065 52.7615 148.318 52.9062C148.575 53.043 148.837 53.1837 149.098 53.3245C150.176 53.8393 151.367 54.2817 152.657 54.4828C153.944 54.6879 155.304 54.712 156.675 54.527C158.043 54.3058 159.338 53.8876 160.508 53.3205C161.682 52.7494 162.696 51.9812 163.581 51.1809C163.794 50.9677 164.003 50.7586 164.208 50.5535C164.409 50.3444 164.582 50.1111 164.767 49.8939C164.856 49.7854 164.948 49.6768 165.036 49.5682C165.121 49.4596 165.193 49.3389 165.274 49.2263C165.427 48.9971 165.579 48.7719 165.728 48.5547C166.263 47.6337 166.702 46.7328 166.967 45.8681C167.53 44.1388 167.643 42.6507 167.622 41.6373C167.639 41.3839 167.61 41.1587 167.594 40.9616C167.578 40.7686 167.566 40.6077 167.558 40.4669C167.55 40.3422 167.546 40.2417 167.538 40.1613C167.534 40.0929 167.534 40.0567 167.538 40.0567C167.542 40.0567 167.55 40.0889 167.558 40.1572C167.57 40.2377 167.582 40.3382 167.598 40.4589C167.614 40.5996 167.635 40.7645 167.655 40.9535C167.675 41.1506 167.711 41.3758 167.703 41.6332C167.747 42.6548 167.659 44.1589 167.104 45.9124C166.842 46.7932 166.408 47.7061 165.873 48.6472C165.724 48.8724 165.571 49.1016 165.415 49.3349C165.334 49.4515 165.262 49.5722 165.177 49.6848C165.089 49.7934 164.996 49.906 164.908 50.0186C164.723 50.2398 164.55 50.4771 164.345 50.6903C164.136 50.8994 163.926 51.1125 163.709 51.3297C162.816 52.1502 161.791 52.9344 160.596 53.5135C159.406 54.0927 158.091 54.519 156.703 54.7442C155.312 54.9332 153.928 54.9051 152.621 54.6919C151.31 54.4788 150.104 54.0283 149.01 53.5015C148.744 53.3567 148.479 53.2119 148.217 53.0711C147.96 52.9264 147.727 52.7494 147.486 52.5925C147.365 52.5121 147.248 52.4317 147.132 52.3512C147.015 52.2708 146.91 52.1743 146.802 52.0858C146.585 51.9088 146.375 51.7319 146.166 51.563C145.382 50.8189 144.702 50.0709 144.196 49.3027C143.158 47.7825 142.635 46.3668 142.386 45.3775C142.305 45.1362 142.269 44.9069 142.233 44.7139C142.201 44.5249 142.169 44.36 142.145 44.2232C142.124 44.1026 142.108 44.002 142.096 43.9216C142.084 43.8532 142.08 43.817 142.084 43.817Z" fill="#BBAD9C"/>
</g>
<path d="M373.199 317.695C373.199 317.695 373.135 312.445 372.915 312.406L362.13 314.802C362.02 315.488 360.656 324.089 360.892 324.932L373.017 328.299C373.017 328.299 373.199 318.003 373.199 317.695Z" fill="#D5BF9E"/>
<path d="M373.207 327.501C373.23 327.493 373.246 327.406 373.262 327.264C373.388 326.09 373.309 320.965 372.686 320.745C371.985 320.5 370.235 320.902 370.116 321.572C369.998 322.25 370.408 328.021 370.408 328.021C370.408 328.021 370.534 328.928 372.056 329.148C372.994 329.282 373.207 327.501 373.207 327.501Z" fill="#D5BF9E"/>
<path d="M370.133 329.331C370.157 329.323 370.173 329.236 370.188 329.095C370.315 327.92 370.236 322.796 369.613 322.575C368.911 322.33 367.161 322.733 367.035 323.403C366.917 324.081 367.327 329.851 367.327 329.851C367.327 329.851 367.453 330.758 368.982 330.979C369.92 331.121 370.133 329.331 370.133 329.331Z" fill="#D5BF9E"/>
<path d="M367.121 330.26C367.145 330.252 367.16 330.165 367.176 330.023C367.302 328.849 367.223 323.724 366.601 323.504C365.899 323.259 364.149 323.661 364.023 324.331C363.904 325.009 364.314 330.78 364.314 330.78C364.314 330.78 364.44 331.687 365.962 331.907C366.908 332.049 367.121 330.26 367.121 330.26Z" fill="#D5BF9E"/>
<path d="M364.133 331.128C364.157 331.121 364.172 331.034 364.188 330.892C364.314 329.717 364.236 324.593 363.613 324.372C362.911 324.128 361.161 324.53 361.035 325.2C360.917 325.878 361.327 331.649 361.327 331.649C361.327 331.649 361.453 332.555 362.974 332.776C363.92 332.91 364.133 331.128 364.133 331.128Z" fill="#D5BF9E"/>
<path d="M370.086 323.077C370.173 323.085 370.283 324.204 370.323 325.576C370.37 326.948 370.331 328.052 370.244 328.044C370.157 328.036 370.047 326.916 370.008 325.545C369.96 324.173 370 323.069 370.086 323.077Z" fill="#C9B28E"/>
<path d="M367.065 323.057C367.152 323.057 367.286 324.641 367.349 326.604C367.42 328.567 367.404 330.16 367.318 330.168C367.231 330.168 367.097 328.583 367.034 326.62C366.955 324.649 366.971 323.057 367.065 323.057Z" fill="#C9B28E"/>
<g opacity="0.78">
<g opacity="0.78">
<g opacity="0.78">
<g opacity="0.78">
<path d="M363.991 323.305C364.078 323.305 364.212 324.89 364.275 326.853C364.346 328.816 364.33 330.409 364.244 330.416C364.157 330.416 364.023 328.832 363.96 326.869C363.889 324.906 363.905 323.305 363.991 323.305Z" fill="#C9B28E"/>
</g>
</g>
</g>
</g>
<path d="M362.059 315.083C362.059 315.083 357.794 324.779 358.417 325.379C359.04 325.978 361.042 326.908 361.042 326.908L362.059 315.083Z" fill="#D5BF9E"/>
<path d="M338.465 185.043L335.336 221.299L317.172 219.849C317.062 217.728 317.211 209.529 317.211 209.529C317.211 209.529 309.659 208.354 309.564 200.802C309.517 197.136 310.045 189.552 310.597 182.717C311.212 175.141 317.763 169.441 325.347 169.883C333.215 170.34 339.143 177.199 338.465 185.043Z" fill="#D5BF9E"/>
<path d="M317.204 209.418C317.204 209.418 321.981 209.804 327.05 206.619C327.05 206.619 324.725 212.059 317.18 211.373L317.204 209.418Z" fill="#C9B28E"/>
<path d="M312.612 188.034C312.589 188.601 313.062 189.09 313.653 189.122C314.244 189.153 314.741 188.72 314.764 188.152C314.788 187.584 314.315 187.096 313.724 187.064C313.125 187.025 312.628 187.458 312.612 188.034Z" fill="#263238"/>
<path d="M312.215 186.556C312.349 186.698 313.169 186.091 314.328 186.099C315.486 186.083 316.338 186.682 316.464 186.54C316.527 186.477 316.393 186.225 316.022 185.957C315.66 185.689 315.037 185.428 314.312 185.428C313.586 185.436 312.979 185.697 312.633 185.972C312.27 186.24 312.152 186.493 312.215 186.556Z" fill="#263238"/>
<path d="M324.046 188.023C324.023 188.59 324.496 189.079 325.087 189.111C325.678 189.142 326.175 188.709 326.198 188.141C326.222 187.574 325.749 187.085 325.158 187.053C324.559 187.014 324.062 187.447 324.046 188.023Z" fill="#263238"/>
<path d="M323.629 186.753C323.763 186.895 324.583 186.288 325.741 186.296C326.9 186.28 327.752 186.879 327.878 186.737C327.941 186.674 327.807 186.422 327.429 186.154C327.066 185.886 326.443 185.626 325.718 185.626C324.993 185.634 324.386 185.894 324.039 186.17C323.684 186.43 323.558 186.69 323.629 186.753Z" fill="#263238"/>
<path d="M319.412 195.381C319.42 195.318 318.694 195.191 317.527 195.042C317.228 195.01 316.952 194.955 316.897 194.75C316.826 194.537 316.952 194.214 317.094 193.875C317.37 193.157 317.661 192.408 317.969 191.62C319.183 188.404 320.066 185.763 319.94 185.715C319.814 185.668 318.718 188.23 317.504 191.447C317.212 192.243 316.928 192.992 316.66 193.717C316.55 194.056 316.353 194.435 316.503 194.884C316.581 195.105 316.802 195.262 316.991 195.317C317.181 195.373 317.346 195.381 317.496 195.388C318.678 195.436 319.412 195.444 319.412 195.381Z" fill="#263238"/>
<path d="M322.832 196.164C322.643 196.156 322.643 197.409 321.563 198.308C320.483 199.207 319.143 199.065 319.135 199.238C319.119 199.317 319.435 199.483 320.002 199.499C320.562 199.514 321.374 199.341 322.028 198.789C322.683 198.237 322.966 197.512 323.014 196.992C323.053 196.463 322.919 196.156 322.832 196.164Z" fill="#263238"/>
<path d="M323.329 182.19C323.447 182.505 324.606 182.355 325.962 182.521C327.326 182.655 328.43 183.057 328.603 182.773C328.682 182.639 328.493 182.339 328.051 182.032C327.61 181.724 326.908 181.441 326.088 181.346C325.268 181.259 324.519 181.385 324.023 181.59C323.526 181.795 323.274 182.04 323.329 182.19Z" fill="#263238"/>
<path d="M312.638 183.166C312.843 183.426 313.64 183.158 314.601 183.142C315.563 183.095 316.375 183.316 316.564 183.04C316.643 182.906 316.517 182.645 316.162 182.393C315.816 182.141 315.224 181.944 314.562 181.96C313.9 181.983 313.332 182.22 312.993 182.488C312.662 182.764 312.552 183.04 312.638 183.166Z" fill="#263238"/>
<path d="M340.09 180.373C339.656 184.047 338.655 188.682 338.371 192.443C338.348 192.79 338.308 193.152 338.103 193.428C337.567 194.146 336.282 195.683 335.628 195.076C334.035 193.594 333.413 189.439 333.097 187.287C332.782 185.135 332.837 182.943 332.538 180.791C332.53 180.744 332.522 180.688 332.514 180.641C332.301 179.127 331.513 177.764 330.322 176.81C330.039 176.62 329.747 176.447 329.431 176.337C327.216 175.556 323.511 176.999 321.304 177.803C320.16 178.221 319.057 178.733 317.953 179.238C315.415 180.389 312.411 180.215 310.156 178.583C308.808 177.614 308.69 174.531 309.281 172.584C310.874 167.318 317.496 165.513 325.978 167.523C334.398 169.517 340.949 172.829 340.09 180.373Z" fill="#232323"/>
<path d="M335.919 188.467C336.045 188.411 341.106 186.929 340.949 192.093C340.783 197.257 335.635 196.027 335.627 195.877C335.619 195.727 335.919 188.467 335.919 188.467Z" fill="#D5BF9E"/>
<path d="M337.265 193.983C337.288 193.968 337.351 194.046 337.501 194.125C337.651 194.196 337.903 194.251 338.171 194.165C338.723 193.983 339.212 193.132 339.267 192.202C339.299 191.729 339.212 191.279 339.054 190.909C338.912 190.523 338.676 190.255 338.4 190.199C338.132 190.128 337.927 190.286 337.864 190.428C337.793 190.57 337.816 190.672 337.793 190.68C337.777 190.696 337.682 190.594 337.73 190.381C337.753 190.278 337.816 190.16 337.943 190.065C338.069 189.971 338.25 189.923 338.447 189.947C338.841 189.986 339.188 190.365 339.362 190.775C339.551 191.193 339.661 191.697 339.63 192.225C339.567 193.266 338.999 194.22 338.242 194.417C337.879 194.504 337.58 194.378 337.422 194.251C337.265 194.11 337.241 193.999 337.265 193.983Z" fill="#C9B28E"/>
<path d="M340.002 180.727C340.065 180.806 338.481 181.689 336.313 181.712C334.145 181.76 332.528 180.948 332.584 180.861C332.623 180.743 334.231 181.35 336.305 181.302C338.378 181.279 339.963 180.609 340.002 180.727Z" fill="#455A64"/>
<path d="M339.829 182.2C339.892 182.279 338.379 183.154 336.29 183.185C334.201 183.233 332.655 182.421 332.718 182.334C332.758 182.216 334.295 182.823 336.282 182.775C338.268 182.752 339.782 182.082 339.829 182.2Z" fill="#455A64"/>
<path d="M303.887 439.485L307.246 454.937C307.246 454.937 292.661 463.538 293.008 466.455L323.202 461.023L318.961 436.726L303.887 439.485Z" fill="#263238"/>
<path d="M323.198 461.033L322.677 458.605L293.918 464.723C293.918 464.723 292.68 465.551 293.004 466.465L323.198 461.033Z" fill="#455A64"/>
<path d="M338.228 441.189L338.725 456.996C338.725 456.996 322.823 462.814 322.634 465.739L353.317 465.873L353.553 441.213L338.228 441.189Z" fill="#263238"/>
<g opacity="0.6">
<g opacity="0.6">
<g opacity="0.6">
<g opacity="0.6">
<g opacity="0.6">
<g opacity="0.6">
<path opacity="0.6" d="M353.317 465.882L353.246 463.399L323.856 464.203C323.856 464.203 322.485 464.794 322.634 465.756L353.317 465.882Z" fill="#455A64"/>
</g>
</g>
</g>
</g>
</g>
</g>
<path d="M302.232 452.759C302.232 452.759 286.504 375.603 286.489 374.065L314.586 359.213L325.465 449.755L302.232 452.759Z" fill="#739AF0"/>
<path d="M337.606 455.336L315.879 321.615V292.77L345.56 295.521C345.938 296.648 355.651 455.509 355.651 455.509L352.584 455.336H337.606Z" fill="#739AF0"/>
<path d="M298.803 290.737L286.489 374.058L314.026 367.381L325.252 293.449L298.803 290.737Z" fill="#739AF0"/>
<path d="M324.273 297.796C324.273 297.796 324.273 297.937 324.305 298.205C324.336 298.489 324.376 298.883 324.431 299.404C324.549 300.468 324.731 302.013 324.951 303.992C325.424 307.981 326.126 313.744 327.056 320.863C328.893 335.1 331.684 354.73 334.68 376.418C336.17 387.266 337.541 397.609 338.716 407.022C339.016 409.379 339.26 411.673 339.591 413.904C339.93 416.127 340.261 418.279 340.584 420.369C341.215 424.539 341.806 428.426 342.342 431.973C343.407 439.068 344.25 444.815 344.802 448.789C345.078 450.775 345.283 452.32 345.401 453.369C345.464 453.889 345.504 454.291 345.52 454.559C345.527 454.693 345.535 454.796 345.52 454.859C345.512 454.946 345.472 454.851 345.472 454.867C345.472 454.867 345.472 454.875 345.48 454.891C345.488 454.922 345.535 454.898 345.535 454.859C345.551 454.788 345.551 454.686 345.551 454.552C345.543 454.283 345.52 453.874 345.472 453.353C345.378 452.297 345.196 450.752 344.944 448.765C344.439 444.784 343.635 439.029 342.603 431.934C342.082 428.386 341.507 424.492 340.892 420.321C340.577 418.232 340.253 416.08 339.922 413.857C339.599 411.642 339.362 409.332 339.063 406.982C337.912 397.562 336.548 387.218 335.058 376.371C332.062 354.675 329.232 335.053 327.324 320.831C326.386 313.728 325.629 307.973 325.101 303.984C324.841 302.005 324.644 300.46 324.51 299.404C324.439 298.891 324.384 298.497 324.344 298.213C324.305 297.93 324.273 297.796 324.273 297.796Z" fill="#455A64"/>
<path d="M307.719 452.043C307.719 452.043 307.711 451.909 307.671 451.648C307.624 451.372 307.561 450.986 307.482 450.489C307.309 449.457 307.049 447.967 306.725 446.051C306.047 442.188 305.07 436.614 303.864 429.74C301.412 415.96 298.03 396.952 294.293 375.951C294.017 374.658 293.923 373.349 294.064 372.056C294.23 370.771 294.443 369.463 294.632 368.185C295.026 365.615 295.42 363.093 295.807 360.602C296.587 355.635 297.36 350.842 298.124 346.285C299.638 337.164 301.104 328.973 302.413 322.106C303.722 315.24 304.873 309.706 305.748 305.89C306.158 303.982 306.536 302.508 306.765 301.507C306.875 301.018 306.97 300.639 307.025 300.364C307.08 300.103 307.104 299.969 307.104 299.969C307.104 299.969 307.056 300.095 306.986 300.348C306.915 300.616 306.812 300.994 306.686 301.483C306.434 302.476 306.032 303.943 305.598 305.85C304.676 309.65 303.493 315.185 302.145 322.043C300.805 328.902 299.315 337.101 297.778 346.214C297.005 350.771 296.225 355.564 295.436 360.531C295.05 363.014 294.656 365.545 294.254 368.115C294.064 369.4 293.852 370.685 293.678 372.009C293.536 373.341 293.639 374.705 293.915 376.022C297.691 397.008 301.112 416.007 303.596 429.779C304.849 436.646 305.866 442.204 306.576 446.067C306.93 447.975 307.214 449.465 307.403 450.489C307.498 450.986 307.577 451.365 307.632 451.64C307.679 451.909 307.719 452.043 307.719 452.043Z" fill="#455A64"/>
<path d="M315.887 320.672C315.785 320.688 317.07 329.328 318.757 339.963C320.444 350.606 321.894 359.214 321.997 359.199C322.099 359.183 320.814 350.543 319.127 339.9C317.44 329.265 315.99 320.656 315.887 320.672Z" fill="#455A64"/>
<path d="M337.345 455.106C337.345 455.13 337.598 455.177 338.055 455.232C338.512 455.287 339.182 455.35 340.01 455.413C341.658 455.539 343.944 455.666 346.475 455.705C349.005 455.744 351.291 455.697 352.947 455.626C353.775 455.587 354.445 455.547 354.902 455.508C355.367 455.469 355.619 455.437 355.619 455.405C355.619 455.35 354.595 455.35 352.939 455.358C351.284 455.366 349.005 455.366 346.482 455.327C343.96 455.287 341.681 455.208 340.026 455.145C338.378 455.082 337.353 455.051 337.345 455.106Z" fill="#455A64"/>
<path d="M302.233 452.754C302.233 452.778 302.564 452.762 303.155 452.707C303.817 452.636 304.661 452.549 305.654 452.439C307.759 452.202 310.668 451.84 313.877 451.422C317.085 451.004 319.986 450.61 322.083 450.302C323.069 450.153 323.905 450.026 324.567 449.924C325.15 449.829 325.473 449.766 325.473 449.743C325.473 449.711 325.142 449.727 324.551 449.782C323.96 449.837 323.108 449.924 322.052 450.042C319.947 450.279 317.038 450.633 313.829 451.051C310.621 451.469 307.72 451.871 305.623 452.179C304.637 452.328 303.802 452.462 303.139 452.565C302.548 452.66 302.225 452.723 302.233 452.754Z" fill="#455A64"/>
<path d="M260.883 241.49L278.597 254.963C278.597 254.963 295.081 226.858 296.532 225.108C297.99 223.358 301.688 221.489 301.688 221.489L299.638 257.525C299.638 257.525 290.722 280.277 278.486 279.039C269.121 278.093 252.928 253.378 252.928 253.378L260.883 241.49Z" fill="#FFB93E"/>
<g opacity="0.2">
<g opacity="0.2">
<g opacity="0.2">
<path opacity="0.2" d="M278.265 254.538C275.806 258.314 275.128 263.202 276.476 267.499C276.61 267.94 276.799 268.405 277.193 268.642C277.785 268.996 278.597 268.634 278.967 268.05C279.338 267.467 279.385 266.742 279.424 266.056C279.771 266.694 280.134 267.357 280.733 267.767C281.332 268.177 282.239 268.232 282.727 267.696C283.319 267.049 282.995 266.024 282.641 265.22C281.135 261.799 279.621 258.377 278.116 254.964" fill="black"/>
</g>
</g>
</g>
<path d="M265.336 245.526C265.447 245.597 263.633 248.64 261.284 252.321C258.935 256.003 256.932 258.928 256.822 258.857C256.712 258.786 258.525 255.743 260.874 252.061C263.223 248.379 265.226 245.455 265.336 245.526Z" fill="#263238"/>
<path d="M260.827 245.032C260.78 244.992 261.009 244.756 261.411 244.906C261.592 244.977 261.813 245.15 261.884 245.457C261.955 245.773 261.75 246.128 261.458 246.269C261.174 246.427 260.764 246.403 260.544 246.159C260.323 245.93 260.315 245.647 260.354 245.457C260.457 245.04 260.78 244.984 260.788 245.048C260.82 245.111 260.678 245.245 260.693 245.497C260.701 245.765 260.914 246.017 261.237 245.844C261.561 245.678 261.474 245.355 261.261 245.197C261.056 245.048 260.859 245.095 260.827 245.032Z" fill="#263238"/>
<path d="M278.621 263.496C278.511 263.535 277.848 261.667 277.817 259.247C277.77 256.827 278.377 254.935 278.487 254.974C278.629 255.005 278.251 256.89 278.298 259.239C278.322 261.58 278.755 263.457 278.621 263.496Z" fill="#263238"/>
<path d="M282.05 263.374C281.939 263.437 280.78 261.727 279.779 259.393C278.77 257.06 278.321 255.041 278.447 255.01C278.581 254.97 279.227 256.902 280.221 259.204C281.206 261.506 282.168 263.303 282.05 263.374Z" fill="#263238"/>
<path d="M338.756 218.06L336.076 212.762H316.706L313.663 218.777L301.695 221.481L296.54 298.653C296.508 299.631 296.745 300.6 297.226 301.452L344.282 303.257L346.198 304.038C347.885 302.997 346.837 298.7 346.852 296.674L347.451 258.455L356.762 227.914L338.756 218.06Z" fill="#FFB93E"/>
<g opacity="0.2">
<g opacity="0.2">
<g opacity="0.2">
<path opacity="0.2" d="M318.677 220.733C319.82 219.59 320.955 218.454 322.098 217.311C323.383 220.402 324.66 223.492 325.945 226.59C330.368 223.989 334.586 221.04 338.543 217.769C334.199 219.164 329.855 220.559 325.512 221.955C324.408 219.03 323.312 216.113 322.208 213.188C321.436 215.837 320.332 218.399 318.937 220.78" fill="black"/>
</g>
</g>
</g>
<path d="M373.277 314.832L360.593 315.486L360.561 279.088L347.443 258.464L356.753 227.924C358.669 228.68 373.12 264.96 376.801 274.815C377.329 276.234 377.566 277.747 377.487 279.269L373.277 314.832Z" fill="#FFB93E"/>
<path d="M301.696 237.412C301.83 237.427 301.2 244.885 300.293 254.077C299.386 263.269 298.543 270.712 298.409 270.696C298.275 270.68 298.906 263.222 299.812 254.03C300.719 244.838 301.562 237.396 301.696 237.412Z" fill="#263238"/>
<path d="M322.201 213.209C322.327 213.256 321.294 216.039 319.891 219.413C319.804 219.626 319.717 219.831 319.631 220.036C319.536 220.249 319.442 220.486 319.205 220.675C318.961 220.888 318.566 220.848 318.362 220.73C318.141 220.62 317.991 220.501 317.818 220.391C317.203 219.973 316.627 219.579 316.075 219.209C315.09 218.523 314.499 218.073 314.538 218.018C314.577 217.963 315.232 218.31 316.257 218.925C316.824 219.272 317.423 219.634 318.054 220.021C318.401 220.233 318.748 220.494 318.905 220.304C319.11 220.131 319.252 219.626 319.434 219.224C320.845 215.85 322.075 213.154 322.201 213.209Z" fill="#263238"/>
<path d="M337.604 217.94C337.628 218.004 336.493 218.453 334.648 219.131C332.803 219.809 330.241 220.715 327.395 221.685C326.867 221.866 326.339 222.04 325.842 222.213L325.629 222.284L325.543 222.079C324.541 219.659 323.682 217.523 323.083 215.977C322.484 214.432 322.153 213.494 322.208 213.47C322.263 213.447 322.697 214.346 323.375 215.859C324.053 217.373 324.967 219.486 325.984 221.898L325.684 221.764C326.181 221.591 326.701 221.417 327.238 221.228C330.076 220.258 332.654 219.399 334.53 218.808C336.414 218.216 337.581 217.877 337.604 217.94Z" fill="#263238"/>
<path d="M354.767 229.018C354.806 229.16 352.078 229.901 348.917 231.313C345.748 232.716 343.375 234.245 343.296 234.119C343.265 234.064 343.809 233.615 344.778 232.992C345.74 232.369 347.128 231.581 348.728 230.871C350.328 230.162 351.842 229.657 352.946 229.357C354.049 229.066 354.759 228.955 354.767 229.018Z" fill="#263238"/>
<path d="M322.199 213.208C322.207 213.208 322.215 213.287 322.223 213.437C322.231 213.618 322.238 213.839 322.254 214.115C322.27 214.714 322.309 215.589 322.317 216.724C322.341 218.987 322.325 222.266 322.168 226.311C321.876 234.407 320.867 245.562 319.251 257.805C318.462 263.931 317.603 269.757 317.02 275.07C316.428 280.384 316.176 285.193 316.255 289.229C316.31 293.266 316.681 296.521 317.012 298.76C317.146 299.88 317.327 300.739 317.414 301.33C317.453 301.598 317.485 301.819 317.516 302C317.54 302.15 317.54 302.229 317.532 302.229C317.524 302.229 317.501 302.158 317.469 302.008C317.43 301.835 317.382 301.614 317.319 301.346C317.201 300.763 316.996 299.903 316.823 298.784C316.436 296.553 316.011 293.289 315.916 289.229C315.79 285.177 316.018 280.344 316.586 275.015C317.146 269.686 317.997 263.86 318.786 257.734C320.402 245.491 321.466 234.368 321.836 226.287C322.041 222.251 322.104 218.971 322.136 216.716C322.144 215.613 322.152 214.746 322.16 214.115C322.168 213.839 322.175 213.618 322.175 213.437C322.183 213.287 322.191 213.208 322.199 213.208Z" fill="#263238"/>
<path d="M373.963 309.257C373.956 309.391 370.944 309.352 367.239 309.171C363.534 308.989 360.53 308.737 360.538 308.603C360.546 308.469 363.557 308.508 367.263 308.69C370.976 308.871 373.971 309.123 373.963 309.257Z" fill="#263238"/>
<path d="M362.714 310.675C362.753 310.731 362.69 310.857 362.753 311.022C362.824 311.204 362.958 311.29 363.124 311.156C363.289 311.014 363.234 310.873 363.076 310.762C362.927 310.668 362.793 310.699 362.745 310.652C362.69 310.62 362.832 310.392 363.171 310.439C363.329 310.471 363.534 310.565 363.636 310.802C363.747 311.046 363.636 311.369 363.423 311.527C363.218 311.7 362.887 311.74 362.667 311.582C362.454 311.424 362.406 311.212 362.406 311.046C362.438 310.699 362.69 310.62 362.714 310.675Z" fill="#263238"/>
<g opacity="0.2">
<g opacity="0.2">
<g opacity="0.2">
<path opacity="0.2" d="M347.64 258.37C346.261 255.879 344.881 253.388 343.502 250.897C341.854 264.031 342.784 277.488 346.229 290.267C346.655 279.687 347.081 269.108 347.506 258.52" fill="black"/>
</g>
</g>
</g>
<path d="M326.647 244.653C326.631 244.637 326.891 244.621 327.396 244.606C327.971 244.59 328.704 244.574 329.603 244.551C331.519 244.511 334.278 244.464 337.605 244.448H337.833L337.818 244.677C337.605 247.586 337.353 250.968 337.092 254.563L337.084 254.697L336.966 254.76C336.809 254.839 336.643 254.933 336.477 255.02C334.617 255.997 332.819 256.943 331.117 257.834L330.983 257.905L330.864 257.811C329.059 256.336 327.388 254.965 325.89 253.743L325.811 253.68L325.819 253.577C326.055 250.905 326.245 248.674 326.387 247.034C326.457 246.316 326.521 245.733 326.568 245.26C326.607 244.842 326.631 244.637 326.647 244.653C326.662 244.669 326.655 244.897 326.647 245.323C326.623 245.804 326.599 246.411 326.568 247.144C326.473 248.768 326.355 250.96 326.205 253.593L326.134 253.427C327.64 254.634 329.327 255.982 331.148 257.44L330.896 257.416C332.591 256.518 334.388 255.572 336.241 254.586C336.407 254.5 336.58 254.405 336.73 254.326L336.604 254.523C336.887 250.928 337.155 247.554 337.392 244.645L337.597 244.874C334.357 244.85 331.645 244.811 329.721 244.771C328.807 244.748 328.058 244.732 327.474 244.716C326.954 244.685 326.662 244.669 326.647 244.653Z" fill="#263238"/>
<path d="M303.382 301.841C303.374 301.975 302.388 301.794 301.758 300.84C301.111 299.894 301.316 298.917 301.442 298.956C301.584 298.964 301.608 299.784 302.152 300.572C302.672 301.376 303.429 301.715 303.382 301.841Z" fill="#263238"/>
<path d="M304.604 301.333C304.525 301.427 303.627 300.576 303.272 299.149C302.901 297.722 303.288 296.555 303.406 296.595C303.548 296.618 303.398 297.73 303.737 299.031C304.06 300.332 304.722 301.246 304.604 301.333Z" fill="#263238"/>
<path d="M340.127 296.03C340.245 296.014 340.364 297.883 339.394 299.917C338.448 301.958 336.926 303.062 336.871 302.96C336.769 302.857 338.07 301.643 338.96 299.712C339.875 297.788 339.977 296.014 340.127 296.03Z" fill="#263238"/>
<path d="M259.897 242.961C259.897 242.961 245.565 232.106 243.555 231.38C240.22 230.174 239.424 230.497 239.424 230.497L247.284 238.964C247.284 238.964 238.974 241.771 238.375 242.094C237.705 242.457 237.477 244.254 239.503 244.254C241.166 244.254 249.136 244.443 249.136 244.443L255.711 249.244L259.897 242.961Z" fill="#D5BF9E"/>
<path d="M374.698 146.381C374.698 146.373 374.856 146.365 375.171 146.373C375.518 146.381 375.975 146.397 376.559 146.412C376.866 146.428 377.205 146.428 377.584 146.46C377.962 146.515 378.372 146.57 378.806 146.633C379.247 146.696 379.728 146.767 380.233 146.838C380.737 146.964 381.265 147.098 381.833 147.232C384.08 147.808 386.8 148.793 389.582 150.606C392.365 152.388 395.251 154.942 397.592 158.411C399.894 161.88 401.668 166.247 402.141 171.159C402.188 172.389 402.338 173.634 402.22 174.903C402.172 175.534 402.188 176.18 402.094 176.819C401.999 177.458 401.904 178.104 401.802 178.751C401.282 181.313 400.517 183.93 399.2 186.374C397.915 188.818 396.252 191.151 394.218 193.225C392.152 195.259 389.732 197.017 387.044 198.38C384.364 199.752 381.391 200.698 378.301 201.061C377.536 201.211 376.748 201.211 375.968 201.258C375.187 201.305 374.399 201.337 373.61 201.297C372.034 201.234 370.449 201.037 368.888 200.698C365.49 199.973 362.298 198.593 359.491 196.741L359.775 196.772C356.519 198.081 353.318 199.366 350.196 200.612L349.629 200.84L349.794 200.249C350.764 196.733 351.702 193.319 352.609 190.008L352.656 190.26C349.968 186.689 348.257 182.613 347.548 178.561C347.193 176.535 347.043 174.517 347.177 172.57C347.216 171.592 347.264 170.63 347.445 169.692C347.516 169.219 347.587 168.754 347.666 168.289C347.752 167.832 347.894 167.382 347.997 166.933C349.849 159.728 354.288 154.406 358.679 151.355C360.879 149.802 363.046 148.691 365.041 148.005C365.538 147.831 366.011 147.658 366.476 147.492C366.949 147.374 367.398 147.256 367.832 147.145C368.265 147.035 368.683 146.933 369.077 146.838C369.479 146.759 369.858 146.72 370.221 146.665C370.946 146.57 371.584 146.452 372.136 146.42C372.688 146.404 373.153 146.389 373.539 146.373C373.894 146.365 374.178 146.357 374.399 146.357C374.596 146.373 374.698 146.373 374.698 146.381C374.698 146.389 374.604 146.404 374.407 146.42C374.186 146.436 373.902 146.46 373.547 146.491C373.161 146.515 372.696 146.546 372.152 146.586C371.6 146.625 370.969 146.767 370.252 146.877C367.438 147.398 363.212 148.517 358.892 151.671C354.58 154.722 350.259 159.988 348.478 167.075C348.375 167.516 348.233 167.958 348.155 168.407C348.084 168.865 348.02 169.322 347.95 169.787C347.776 170.709 347.729 171.655 347.697 172.617C347.571 174.533 347.729 176.512 348.084 178.49C348.793 182.456 350.48 186.445 353.121 189.937L353.208 190.055L353.168 190.197C352.27 193.508 351.332 196.922 350.378 200.438L349.976 200.075C353.097 198.822 356.29 197.529 359.546 196.22L359.696 196.157L359.83 196.244C362.573 198.049 365.703 199.405 369.022 200.107C370.552 200.43 372.097 200.627 373.642 200.69C374.415 200.73 375.179 200.698 375.944 200.651C376.709 200.604 377.473 200.604 378.222 200.462C381.25 200.107 384.151 199.185 386.776 197.844C389.409 196.52 391.774 194.801 393.8 192.815C395.787 190.789 397.419 188.51 398.688 186.122C399.989 183.733 400.738 181.171 401.266 178.664C401.36 178.025 401.463 177.402 401.558 176.772C401.652 176.149 401.636 175.51 401.684 174.895C401.81 173.65 401.668 172.428 401.628 171.222C401.187 166.405 399.468 162.108 397.229 158.671C394.943 155.242 392.121 152.703 389.393 150.914C386.666 149.093 383.985 148.084 381.77 147.477C381.21 147.327 380.69 147.185 380.193 147.059C379.689 146.98 379.216 146.901 378.774 146.83C378.341 146.759 377.931 146.688 377.56 146.633C377.19 146.594 376.843 146.586 376.543 146.554C375.96 146.515 375.502 146.475 375.163 146.452C374.856 146.412 374.698 146.397 374.698 146.381Z" fill="#263238"/>
</g>
<defs>
<linearGradient id="paint0_linear" x1="205.5" y1="0.100342" x2="205.5" y2="498.114" gradientUnits="userSpaceOnUse">
<stop stop-color="white"/>
<stop offset="1" stop-color="#EFEBE4"/>
</linearGradient>
</defs>
</svg>
