<svg width="29" height="34" viewBox="0 0 29 34" fill="none" xmlns="http://www.w3.org/2000/svg">
<path d="M24.6943 2.92202C23.1113 1.15837 20.2464 0.403076 16.581 0.403076H5.94501C5.19563 0.403076 4.55898 0.935304 4.44027 1.65538L0.0115926 29.0618C-0.0752832 29.6025 0.353128 30.0911 0.91351 30.0911H7.4796L9.12825 19.8848L9.07719 20.2064C9.19391 19.4863 9.82857 18.9541 10.5773 18.9541H13.6969C19.8279 18.9541 24.626 16.5245 26.0286 9.49725C26.071 9.28853 26.1367 8.88806 26.1367 8.88806C26.5366 6.28693 26.1354 4.52327 24.6943 2.92202Z" fill="#8F7A61"/>
<path d="M27.7986 10.2193C26.2747 17.1383 21.4129 20.7986 13.6969 20.7986H10.8996L8.81128 33.7978H13.3487C14.0046 33.7978 14.5623 33.3321 14.6645 32.7L14.7175 32.4248L15.7613 25.9735L15.829 25.6187C15.9311 24.986 16.4889 24.521 17.1427 24.521H17.9724C23.3348 24.521 27.5327 22.396 28.7596 16.2493C29.2523 13.7818 29.0142 11.7136 27.7986 10.2193Z" fill="#8F7A61"/>
</svg>
