<svg width="41" height="42" viewBox="0 0 41 42" fill="none" xmlns="http://www.w3.org/2000/svg">
<path d="M18.4004 19.7155C18.4004 20.4432 17.8383 20.9228 16.896 20.9228H16.152V18.6074C16.2843 18.5909 16.5488 18.5412 17.0117 18.5412C17.8879 18.5578 18.4004 18.9547 18.4004 19.7155ZM41 20.6086C41 22.2129 40.3718 23.7014 39.2641 24.826L36.7512 27.34V30.8958C36.7512 34.1705 34.073 36.8498 30.7996 36.8498H27.2452L24.7323 39.3638C23.6081 40.4884 22.1036 41.1003 20.5165 41.1003C18.9294 41.1003 17.425 40.4719 16.3008 39.3472L13.7879 36.8333H10.2169C8.62984 36.8333 7.14194 36.2048 6.00121 35.0967C4.87702 33.9721 4.26532 32.4836 4.26532 30.8958V27.3234L1.75242 24.8095C0.628226 23.7014 0 22.1963 0 20.6086C0 19.0209 0.628226 17.5158 1.73589 16.3912L4.24879 13.8773V10.3214C4.24879 7.04669 6.91048 4.36738 10.2004 4.36738H13.7548L16.2677 1.85347C17.4085 0.728821 18.9129 0.100342 20.5 0.100342C22.0871 0.100342 23.5915 0.728821 24.7157 1.83693L27.2286 4.35085H30.7996C32.3867 4.35085 33.8746 4.97932 34.9988 6.08743C36.123 7.21208 36.7347 8.71712 36.7347 10.3049V13.8773L39.2476 16.3912C40.3718 17.5324 41 19.0209 41 20.6086ZM12.8621 17.2016H7.7371V25.5703H9.63831V22.1963H12.6472V20.6582H9.63831V18.7397H12.8456V17.2016H12.8621ZM20.5992 25.5703C20.4339 25.2395 20.1694 24.1479 19.9214 23.2218C19.7065 22.4444 19.3923 21.8986 18.7972 21.6506V21.6175C19.5081 21.3529 20.2685 20.6252 20.2685 19.5501C20.2685 18.7893 20.004 18.1939 19.5081 17.797C18.9129 17.3174 18.0367 17.1354 16.7968 17.1354C15.7883 17.1354 14.879 17.2181 14.2839 17.3174V25.5703H16.152V22.279H16.7306C17.4911 22.2956 17.8548 22.5767 18.0863 23.6187C18.3343 24.6441 18.5327 25.3387 18.6649 25.5703H20.5992ZM26.9806 24.0156H23.5419V22.031H26.6169V20.4928H23.5419V18.7563H26.8153V17.2016H21.6573V25.5703H26.9972V24.0156H26.9806ZM33.5936 24.0156H30.1548V22.031H33.2298V20.4928H30.1548V18.7563H33.4282V17.2016H28.2536V25.5703H33.5936V24.0156Z" fill="#8F7A61"/>
</svg>
