<svg width="172" height="169" viewBox="0 0 172 169" fill="none" xmlns="http://www.w3.org/2000/svg">
<path d="M168.721 60.8H134.914V158.334H168.721V60.8Z" fill="#FFA412"/>
<path d="M134.916 60.8H45.6016V158.334H134.916V60.8Z" fill="#FFB93E"/>
<path d="M134.918 115.339V108.512L45.6035 108.512V115.339L134.918 115.339Z" fill="#FFA412"/>
<path d="M168.723 115.339V108.512H134.916V115.339H168.723Z" fill="#FA9712"/>
<path d="M107.183 61.8455C107.183 61.8455 127.361 48.7125 141.077 52.9324L138.247 55.5792L139.522 60.0275C139.522 60.0275 124.27 55.0526 106.766 62.5936L107.183 61.8455Z" fill="#F99746"/>
<path d="M106.053 58.8715C106.053 58.8715 102.493 58.44 97.1861 57.7093C83.0992 55.768 56.7134 51.7084 51.9773 47.951C44.5357 42.0482 62.1692 16.9804 69.803 13.5009C77.4357 10.0243 106.053 58.8715 106.053 58.8715Z" fill="#F99746"/>
<path d="M161.882 27.6549C163.153 33.8657 105.531 60.6951 105.531 60.6951C105.531 60.6951 106.58 57.8559 108.285 53.4096C108.285 53.4096 108.288 53.4057 108.29 53.4018C114.519 37.1645 129.528 -0.516416 134.459 0.00536409C134.954 0.0568619 135.534 0.234675 136.181 0.518399C143.756 3.85604 160.71 21.9357 161.882 27.6549Z" fill="#F99746"/>
<path d="M135.695 6.04033C132.176 12.1627 108.657 52.7693 108.289 53.4018C114.518 37.1645 129.527 -0.516416 134.458 0.00536409C134.458 0.00536409 135.435 -0.022814 136.18 0.518399C137.079 1.17427 137.637 2.65896 135.695 6.04033Z" fill="#ED7D2B"/>
<path d="M97.1968 57.709H97.1871C83.1003 55.7677 56.7145 51.7081 51.9785 47.9507C49.8404 41.9177 55.3884 41.4261 59.4269 41.0015C63.4615 40.5759 97.1968 57.709 97.1968 57.709Z" fill="#ED7D2B"/>
<path d="M95.3047 60.7922C95.3047 60.7922 98.5351 53.4319 104.892 53.0248C111.533 52.5992 115.303 60.7922 115.303 60.7922H95.3047Z" fill="#ED7D2B"/>
<path d="M136.349 60.8H42.8945V74.2148H136.349V60.8Z" fill="#FFC261"/>
<path d="M171.572 60.8H136.348V74.2148H171.572V60.8Z" fill="#FA9712"/>
<path d="M98.5775 59.6769C98.5775 59.6769 80.2736 53.8693 67.9222 57.7093C53.685 62.1343 54.529 79.73 54.529 79.73L57.8778 78.3512L62.3985 80.4753C62.3985 80.4753 63.161 61.8437 74.7683 59.2348C84.804 56.9796 98.5775 59.6769 98.5775 59.6769Z" fill="#F99746"/>
<path d="M89.1909 60.8H82.375V158.323H89.1909V60.8Z" fill="#FFA412"/>
<path d="M57.8471 123.414H42.3047V168.254H57.8471V123.414Z" fill="#4A75CB"/>
<path d="M42.3073 123.414H1.24609V168.254H42.3073V123.414Z" fill="#739AF0"/>
<path d="M42.3047 148.487V145.349H1.2435V148.487H42.3047Z" fill="#AFCDFB"/>
<path d="M57.8477 148.487V145.349H42.3052V148.487H57.8477Z" fill="#88B3FF"/>
<path d="M31.1979 122.724C31.1979 122.724 43.7867 117.002 52.5607 119.176L50.8086 120.35L51.6917 122.423C51.6917 122.423 41.9293 119.874 30.9453 123.063L31.1979 122.724Z" fill="#4A75CB"/>
<path d="M29.0402 122.505C29.0402 122.505 27.4038 122.306 24.9641 121.971C18.4877 121.079 6.35756 119.212 4.18006 117.484C0.759019 114.771 8.86568 103.246 12.3753 101.646C15.884 100.048 29.0402 122.505 29.0402 122.505Z" fill="#72A9F7"/>
<path d="M54.7072 108.153C55.2921 111.008 28.8008 123.343 28.8008 123.343C28.8008 123.343 29.2831 122.038 30.0671 119.994C30.0671 119.994 30.068 119.992 30.0697 119.99C32.9339 112.525 39.833 95.2016 42.1008 95.4414C42.3288 95.4651 42.5954 95.5468 42.8927 95.6768C46.3743 97.2122 54.1687 105.524 54.7072 108.153Z" fill="#72A9F7"/>
<path d="M42.6658 98.2162C41.0478 101.031 30.2357 119.699 30.0664 119.99C32.9306 112.525 39.8297 95.2016 42.0975 95.4414C42.0975 95.4414 42.5465 95.4283 42.8894 95.6768C43.3024 95.979 43.5594 96.6624 42.6658 98.2162Z" fill="#4A75CB"/>
<path d="M24.9676 121.971H24.9632C18.4868 121.079 6.35662 119.212 4.17912 117.484C3.19604 114.71 5.74713 114.484 7.60367 114.289C9.45845 114.094 24.9676 121.971 24.9676 121.971Z" fill="#4A75CB"/>
<path d="M24.0977 123.389C24.0977 123.389 25.5824 120.005 28.5053 119.817C31.558 119.621 33.2918 123.389 33.2918 123.389H24.0977Z" fill="#4A75CB"/>
<path d="M42.9643 123.414H0V129.581H42.9643V123.414Z" fill="#88B3FF"/>
<path d="M59.1588 123.414H42.9648V129.581H59.1588V123.414Z" fill="#3969B7"/>
<path d="M25.5989 122.897C25.5989 122.897 17.1836 120.227 11.5053 121.993C4.96048 124.028 5.3481 132.117 5.3481 132.117L6.88717 131.483L8.96557 132.459C8.96557 132.459 9.31636 123.893 14.6527 122.694C19.2673 121.658 25.5989 122.897 25.5989 122.897Z" fill="#4A75CB"/>
<path d="M21.2857 123.414H18.1523V168.64H21.2857V123.414Z" fill="#AFCDFB"/>
</svg>
