<svg width="143" height="206" viewBox="0 0 143 206" fill="none" xmlns="http://www.w3.org/2000/svg">
<path d="M69.8924 181.022C70.0902 178.632 70.6017 176.357 71.3647 174.252C71.5088 173.85 71.6642 173.455 71.8281 173.068C71.9468 172.782 72.0739 172.502 72.2039 172.226C72.3509 171.912 72.5035 171.601 72.6617 171.299C72.8369 170.965 73.0178 170.637 73.2043 170.315C74.1284 168.738 75.2107 167.311 76.4286 166.079C76.4315 166.074 76.4371 166.071 76.4427 166.068C76.8723 165.633 77.3216 165.223 77.7822 164.839C78.1411 164.539 78.5141 164.257 78.8928 163.988C79.4353 163.604 79.992 163.251 80.5685 162.937C80.7833 162.818 80.998 162.705 81.2185 162.598C83.0468 161.696 85.0193 161.14 87.0878 161.013C87.3987 160.993 87.7123 160.984 88.026 160.984H96.5036C106.569 160.984 114.73 170.979 114.73 183.309C114.73 195.638 106.569 205.633 96.5036 205.633H88.026C87.7123 205.633 87.3987 205.625 87.0878 205.605C85.0221 205.478 83.0468 204.921 81.2185 204.019C81.0009 203.912 80.7833 203.799 80.5685 203.68C79.992 203.364 79.4353 203.013 78.8928 202.629C78.5141 202.361 78.1439 202.081 77.7822 201.779C77.3188 201.394 76.8723 200.984 76.4427 200.549C76.4371 200.546 76.4343 200.541 76.4286 200.538C75.2079 199.306 74.1255 197.879 73.2043 196.302C73.015 195.98 72.8341 195.655 72.6617 195.319C72.5035 195.013 72.3509 194.705 72.2039 194.392C72.0739 194.115 71.9496 193.835 71.8281 193.55C71.6642 193.16 71.5088 192.767 71.3647 192.366C70.5988 190.26 70.0902 187.983 69.8924 185.595C69.8302 184.843 69.7991 184.083 69.7991 183.311C69.7991 182.54 69.8302 181.774 69.8924 181.022Z" fill="#233862"/>
<path d="M30.8946 198.376H99.3288C100.499 198.376 103.121 197.427 103.121 196.257C103.121 195.087 94.3185 194.137 93.1486 194.137H35.1363V14.7003C35.1363 7.37566 29.1765 1.41589 21.8519 1.41589H7.01886C5.84895 1.41589 4.89946 2.36539 4.89946 3.5353C4.89946 4.70521 5.84895 5.6547 7.01886 5.6547H21.8519C26.8395 5.6547 30.8975 9.71266 30.8975 14.7003V198.376H30.8946Z" fill="#263238"/>
<path d="M90.2385 198.376H139.881C141.051 198.376 142 197.427 142 196.257C142 195.087 141.051 194.137 139.881 194.137H94.4773V14.7003C94.4773 7.37566 88.5176 1.41589 81.1929 1.41589H66.3599C65.19 1.41589 64.2405 2.36539 64.2405 3.5353C64.2405 4.70521 65.19 5.6547 66.3599 5.6547H81.1929C86.1806 5.6547 90.2385 9.71266 90.2385 14.7003V198.376Z" fill="#263238"/>
<path d="M34.3799 32.6868H90.9962C92.1124 32.6868 93.0195 31.7373 93.0195 30.5674C93.0195 29.3975 92.1152 28.448 90.9962 28.448H34.3799C33.2636 28.448 32.3565 29.3975 32.3565 30.5674C32.3565 31.7373 33.2608 32.6868 34.3799 32.6868Z" fill="#263238"/>
<path d="M3.53315 7.06468H21.8505C23.8003 7.06468 25.3828 5.48219 25.3828 3.53234C25.3828 1.58249 23.8003 0 21.8505 0H3.53315C1.5833 0 0.000814438 1.58249 0.000814438 3.53234C0.000814438 5.48502 1.5833 7.06468 3.53315 7.06468Z" fill="#8F7A61"/>
<path d="M21.8491 1.41309C28.5181 1.41309 34.0512 6.35272 34.9922 12.7646H30.6856C29.7982 8.70385 26.1726 5.65189 21.8491 5.65189C20.6791 5.65189 19.7297 4.7024 19.7297 3.53249C19.7297 2.36258 20.6791 1.41309 21.8491 1.41309Z" fill="#263238"/>
<path d="M62.873 7.06468H81.1903C83.1402 7.06468 84.7227 5.48219 84.7227 3.53234C84.7227 1.58249 83.1402 0 81.1903 0H62.873C60.9231 0 59.3407 1.58249 59.3407 3.53234C59.3407 5.48502 60.9231 7.06468 62.873 7.06468Z" fill="#8F7A61"/>
<path d="M81.1928 1.41309C87.8619 1.41309 93.3949 6.35272 94.3359 12.7646H90.0293C89.142 8.70385 85.5164 5.65189 81.1928 5.65189C80.0229 5.65189 79.0734 4.7024 79.0734 3.53249C79.0734 2.36258 80.0229 1.41309 81.1928 1.41309Z" fill="#263238"/>
<path d="M103.637 131.468L33.1001 130.224L32.9052 194.134H103.445L103.637 131.468Z" fill="#4A75CB"/>
<path d="M124.801 131.575L68.3314 131.358L68.176 194.174L124.648 194.134L124.801 131.575Z" fill="#739AF0"/>
<path d="M26.1393 160.981H34.6169C44.6826 160.981 52.8438 170.977 52.8438 183.306C52.8438 195.635 44.6826 205.63 34.6169 205.63H26.1393C16.0735 205.63 7.91239 195.635 7.91239 183.306C7.91239 170.977 16.0735 160.981 26.1393 160.981Z" fill="#233862"/>
<path d="M26.1403 205.63C16.0739 205.63 7.91344 195.635 7.91344 183.306C7.91344 170.976 16.0739 160.981 26.1403 160.981C36.2067 160.981 44.3672 170.976 44.3672 183.306C44.3672 195.635 36.2067 205.63 26.1403 205.63Z" fill="#2B478B"/>
<path d="M14.6054 183.306C14.6054 191.108 19.771 197.435 26.1406 197.435C32.5101 197.435 37.6758 191.108 37.6758 183.306C37.6758 175.503 32.5101 169.176 26.1406 169.176C19.7682 169.176 14.6054 175.501 14.6054 183.306Z" fill="#4A75CB"/>
<path d="M90.9688 59.8266L9.79841 59.5779L10.0217 131.174L90.7483 131.423L90.9688 59.8266Z" fill="#FFA412"/>
<path d="M115.188 59.9506L50.5598 59.7019L50.3818 131.298L115.009 131.547L115.188 59.9506Z" fill="#FFB93E"/>
</svg>
