<svg width="562" height="412" viewBox="0 0 562 412" fill="none" xmlns="http://www.w3.org/2000/svg">
<path d="M562 368.786H0V369.067H562V368.786Z" fill="#EBEBEB"/>
<path d="M194.699 375.961H168.645V376.242H194.699V375.961Z" fill="#EBEBEB"/>
<path d="M515.657 381.989H451.96V382.27H515.657V381.989Z" fill="#EBEBEB"/>
<path d="M111.715 381.989H48.0176V382.27H111.715V381.989Z" fill="#EBEBEB"/>
<path d="M266.388 318.626H49.355C45.8144 318.615 42.9482 315.747 42.9482 312.205V6.94048C42.982 3.42032 45.8369 0.586198 49.355 0.574951H266.388C269.929 0.574951 272.806 3.45406 272.806 6.99671V312.205C272.806 315.747 269.929 318.626 266.388 318.626ZM49.355 0.799881C45.9718 0.811128 43.2292 3.55528 43.2292 6.94048V312.205C43.2292 315.59 45.9718 318.334 49.355 318.345H266.388C269.771 318.334 272.514 315.59 272.525 312.205V6.94048C272.514 3.55528 269.771 0.811128 266.388 0.799881H49.355Z" fill="#EBEBEB"/>
<path d="M509.52 318.626H292.476C288.935 318.615 286.069 315.747 286.058 312.205V6.94048C286.091 3.42032 288.958 0.586198 292.476 0.574951H509.52C513.038 0.586198 515.882 3.42032 515.916 6.94048V312.205C515.916 315.747 513.061 318.615 509.52 318.626ZM292.476 0.799881C289.092 0.811128 286.35 3.55528 286.339 6.94048V312.205C286.35 315.59 289.092 318.334 292.476 318.345H509.52C512.903 318.334 515.646 315.59 515.657 312.205V6.94048C515.646 3.55528 512.903 0.811128 509.52 0.799881H292.476Z" fill="#EBEBEB"/>
<path d="M354.139 279.522H328.186V369.393H354.139V279.522Z" fill="#E6E6E6"/>
<path d="M335.762 279.522H309.809V369.393H335.762V279.522Z" fill="#E6E6E6"/>
<path d="M330.838 369.393H335.761V355.357H325.656L330.838 369.393Z" fill="#F0F0F0"/>
<path d="M205.299 279.522H179.346V369.393H205.299V279.522Z" fill="#E6E6E6"/>
<path d="M335.773 279.522H201.005V362.488H335.773V279.522Z" fill="#F0F0F0"/>
<path d="M327.376 343.819H274.593C271.76 343.807 269.467 341.513 269.456 338.679V288.171C269.467 285.337 271.76 283.042 274.593 283.031H327.365C330.197 283.042 332.49 285.337 332.501 288.171V338.679C332.49 341.513 330.197 343.807 327.376 343.819ZM274.593 284.19C272.39 284.19 270.603 285.978 270.591 288.182V338.69C270.569 340.894 272.333 342.705 274.548 342.739C274.559 342.739 274.582 342.739 274.593 342.739H327.365C329.568 342.761 331.377 340.984 331.4 338.769C331.4 338.746 331.4 338.713 331.4 338.69V288.182C331.389 285.978 329.601 284.19 327.398 284.19H274.593Z" fill="#E0E0E0"/>
<path d="M262.161 343.819H209.39C206.557 343.807 204.264 341.513 204.253 338.679V288.171C204.264 285.337 206.557 283.042 209.39 283.031H262.161C264.994 283.031 267.298 285.325 267.298 288.171V338.679C267.298 341.513 264.994 343.819 262.161 343.819ZM209.39 284.19C207.187 284.19 205.399 285.978 205.399 288.182V338.69C205.399 340.894 207.187 342.683 209.39 342.683H262.161C264.364 342.683 266.152 340.894 266.163 338.69V288.182C266.152 285.978 264.364 284.19 262.161 284.19H209.39Z" fill="#E0E0E0"/>
<path d="M257.261 299.001C254.519 299.012 252.293 296.786 252.293 294.053C252.282 291.309 254.507 289.082 257.239 289.082C259.981 289.07 262.207 291.297 262.207 294.03C262.207 294.041 262.207 294.041 262.207 294.053C262.207 296.786 259.992 299.001 257.261 299.001Z" fill="#FAFAFA"/>
<path d="M279.494 299.001C276.751 299.024 274.514 296.808 274.503 294.075C274.481 291.331 276.695 289.104 279.426 289.082C282.169 289.059 284.394 291.275 284.417 294.008C284.417 294.03 284.417 294.064 284.417 294.086C284.406 296.797 282.203 298.99 279.494 299.001Z" fill="#FAFAFA"/>
<path d="M205.928 369.393H201.005V355.357H211.098L205.928 369.393Z" fill="#F0F0F0"/>
<path d="M197.037 279.522H171.084V369.393H197.037V279.522Z" fill="#E6E6E6"/>
<path d="M192.103 369.393H197.037V355.357H186.933L192.103 369.393Z" fill="#F0F0F0"/>
<path d="M197.037 279.522H62.2695V362.488H197.037V279.522Z" fill="#F0F0F0"/>
<path d="M188.641 343.819H135.858C133.025 343.819 130.721 341.524 130.71 338.679V288.171C130.721 285.337 133.014 283.031 135.858 283.031H188.63C191.462 283.042 193.755 285.337 193.766 288.171V338.679C193.766 341.513 191.473 343.807 188.641 343.819ZM135.858 284.19C133.655 284.19 131.868 285.978 131.856 288.182V338.69C131.834 340.894 133.599 342.705 135.813 342.739C135.824 342.739 135.847 342.739 135.858 342.739H188.63C190.833 342.761 192.642 340.984 192.665 338.769C192.665 338.746 192.665 338.713 192.665 338.69V288.182C192.654 285.978 190.878 284.201 188.675 284.19H135.858Z" fill="#E0E0E0"/>
<path d="M123.427 343.819H70.666C67.8335 343.819 65.5293 341.513 65.5293 338.679V288.171C65.5293 285.337 67.8335 283.031 70.666 283.031H123.438C126.27 283.042 128.563 285.337 128.574 288.171V338.679C128.563 341.513 126.27 343.807 123.427 343.819ZM70.666 284.19C68.4629 284.19 66.6758 285.978 66.6645 288.182V338.69C66.6421 340.894 68.4067 342.705 70.621 342.739C70.6323 342.739 70.6547 342.739 70.666 342.739H123.438C125.641 342.739 127.428 340.951 127.439 338.746V288.182C127.428 285.978 125.641 284.19 123.438 284.19H70.666Z" fill="#E0E0E0"/>
<path d="M118.536 299.001C115.794 299.012 113.568 296.786 113.568 294.053C113.557 291.309 115.783 289.082 118.514 289.082C121.257 289.07 123.482 291.297 123.482 294.03C123.482 294.041 123.482 294.041 123.482 294.053C123.482 296.786 121.268 299.001 118.536 299.001Z" fill="#FAFAFA"/>
<path d="M140.77 299.001C138.027 299.024 135.802 296.808 135.779 294.075C135.757 291.331 137.971 289.104 140.703 289.082C143.445 289.059 145.671 291.275 145.693 294.008C145.693 294.03 145.693 294.064 145.693 294.086C145.671 296.797 143.479 298.99 140.77 299.001Z" fill="#FAFAFA"/>
<path d="M67.1926 369.393H62.2695V355.357H72.363L67.1926 369.393Z" fill="#F0F0F0"/>
<g opacity="0.1">
<path d="M300.423 30.4008H252.136V78.7158H300.423V30.4008Z" fill="#8F7A61"/>
<path d="M302.569 30.412H300.434V78.727H302.569V30.412Z" fill="#8F7A61"/>
<path d="M293.892 36.9575H258.688V72.1816H293.892V36.9575Z" fill="white"/>
<path d="M282.18 60.4514C278.931 63.7017 273.648 63.7017 270.4 60.4514C267.152 57.2012 267.152 51.9153 270.4 48.6651C273.648 45.4149 278.931 45.4149 282.18 48.6651C285.428 51.9266 285.428 57.2012 282.18 60.4514Z" fill="#CD9E64"/>
<path d="M253.125 92.5265H196.509V149.175H253.125V92.5265Z" fill="#8F7A61"/>
<path d="M255.632 92.5377H253.125V149.186H255.632V92.5377Z" fill="#8F7A61"/>
<path d="M245.459 100.208H204.186V141.505H245.459V100.208Z" fill="white"/>
<path d="M233.612 112.039H216.01V129.651H233.612V112.039Z" fill="#CD9E64"/>
</g>
<g opacity="0.1">
<path d="M506.361 74.3071H475.71V81.4712H506.361V74.3071Z" fill="#E6E6E6"/>
<path d="M475.71 74.3071H348.833V81.4712H475.71V74.3071Z" fill="#F5F5F5"/>
<path d="M420.927 36.2715H385.206V74.3184H420.927V36.2715Z" fill="#E0E0E0"/>
<path d="M385.206 36.2715H376.057V74.3184H385.206V36.2715Z" fill="#8F7A61"/>
<path d="M430.289 30.4008H403.459V74.3071H430.289V30.4008Z" fill="#E6E6E6"/>
<path d="M403.47 30.4008H395.715V74.3071H403.47V30.4008Z" fill="#8F7A61"/>
<path d="M433.998 36.2715H411.372V74.3184H433.998V36.2715Z" fill="#8F7A61"/>
<path d="M411.373 36.2715H406.202V74.3184H411.373V36.2715Z" fill="#FAFAFA"/>
<path d="M459.558 42.7045H429.885V74.3072H459.558V42.7045Z" fill="#E6E6E6"/>
<path d="M429.884 42.7045H422.286V74.3072H429.884V42.7045Z" fill="#FAFAFA"/>
<path d="M467.336 37.8347H445.047V74.3184H467.336V37.8347Z" fill="#E6E6E6"/>
<path d="M445.047 37.8347H438.606V74.3184H445.047V37.8347Z" fill="#8F7A61"/>
<path d="M473.26 42.7045H451.611V74.3072H473.26V42.7045Z" fill="#8F7A61"/>
<path d="M451.611 42.7045H447.317V74.3072H451.611V42.7045Z" fill="#FAFAFA"/>
</g>
<g opacity="0.2">
<path d="M457.569 286.709C467.168 274.146 490.019 269.479 497.921 261.573C508.261 251.192 508.205 235.616 499.404 229.993C491.761 225.112 466.404 258.131 463.549 261.82C453.714 274.506 450.881 283.931 449.027 293.052C449.229 285.303 449.442 278.173 449.611 272.684C450.151 254.757 450.814 248.999 451.117 247.234C452.208 246.356 453.433 245.355 454.152 244.816C460.289 240.238 473.889 234.784 480.701 228.137C490.626 218.42 489.03 206.791 482.061 202.461C474.789 197.94 461.908 208.635 455.074 219.241C448.24 229.846 451.162 240.002 449.251 248.752C448.847 250.484 448.431 257.04 448.049 266.139C446.43 257.175 441.485 249.157 434.19 243.702C424.771 236.178 416.644 227.035 408.889 228.216C401.133 229.397 405.348 241.509 411.44 250.011C416.903 257.58 443.867 265.138 447.835 271.222C447.363 283.549 446.947 299.17 446.655 313.723C444.519 306.21 445.992 305.58 437.281 294.053C432.099 287.215 410.867 278.746 408.349 283.47C405.831 288.193 409.664 297.056 417.678 303.275C424.141 308.291 438.427 308.28 441.811 311.395C442.586 312.115 445.138 314.904 446.61 316.512C446.262 334.259 446.104 349.937 446.284 355.279L447.667 355.335C447.599 353.963 447.768 344.932 448.037 332.977C451.522 326.611 474.98 322.9 482.218 316.287C489.794 309.37 495.234 301.295 491.997 295.886C489.288 291.376 467.966 297.505 459.221 304.984C453.444 309.955 449.915 315.264 448.296 322.405C448.498 314.263 448.723 305.524 448.937 297.269C450.679 295.211 454.692 290.476 457.569 286.709Z" fill="#8F7A61"/>
<path d="M459.614 369.157H435.268C433.931 369.157 432.784 367.425 432.526 365.018L430.795 349.262H464.077L462.346 365.018C462.076 367.425 460.941 369.157 459.614 369.157Z" fill="#CD9E64"/>
<path d="M464.773 355.357H430.087C429.255 355.357 428.558 354.21 428.468 352.681L427.76 341.029C427.648 339.241 428.401 337.678 429.379 337.678H465.482C466.448 337.678 467.213 339.241 467.1 341.029L466.392 352.681C466.313 354.21 465.605 355.357 464.773 355.357Z" fill="#CD9E64"/>
</g>
<path d="M105.304 351.036C105.963 345.679 111.887 340.36 112.85 336.667C114.104 331.825 111.398 327.247 107.836 327.11C104.742 326.992 102.973 341.094 102.769 342.673C102.062 348.107 102.855 351.372 103.883 354.379C102.605 352.061 101.437 349.924 100.539 348.279C97.6039 342.906 96.8052 341.095 96.5898 340.523C96.7595 340.076 96.9476 339.57 97.0662 339.287C98.0836 336.879 101.148 332.925 102.007 329.792C103.252 325.217 100.775 322.067 97.9751 321.995C95.0528 321.919 93.1052 327.292 92.9231 331.595C92.741 335.899 95.3548 338.385 96.3023 341.292C96.4821 341.872 97.4914 343.875 98.9494 346.621C96.9255 344.26 94.0847 342.752 90.9947 342.405C86.9217 341.815 82.9499 340.525 80.8696 342.211C78.7892 343.898 82.1214 346.737 85.3833 348.19C88.2987 349.476 97.5451 347.048 99.764 348.155C101.753 351.867 104.327 356.539 106.753 360.876C104.827 359.032 105.152 358.592 100.596 356.701C97.8899 355.581 90.1746 356.752 90.2484 358.578C90.3222 360.404 92.9809 362.352 96.4148 362.801C99.1842 363.162 103.39 360.693 104.924 361.027C105.277 361.105 106.51 361.486 107.221 361.705C110.182 366.992 112.842 371.637 113.817 373.179L114.234 372.957C113.977 372.565 112.468 369.876 110.483 366.308C110.411 363.832 116.679 358.69 117.67 355.493C118.707 352.148 118.915 348.83 117.028 347.796C115.452 346.935 110.23 352.421 108.945 356.133C108.102 358.595 107.979 360.767 108.735 363.15C107.389 360.717 105.947 358.104 104.585 355.636C104.742 354.729 105.107 352.642 105.304 351.036Z" fill="#219653"/>
<path d="M80.9981 361.044C75.8768 354.397 76.623 342.042 73.6554 336.906C69.7544 330.179 61.7618 328.068 57.6703 331.807C54.1184 335.055 67.5621 352.589 69.061 354.56C74.2133 361.344 78.6555 364.09 83.0763 366.294C79.1319 365.126 75.506 364.037 72.7158 363.197C63.6001 360.458 60.7393 359.327 59.8759 358.929C59.576 358.249 59.2311 357.484 59.0532 357.041C57.5497 353.266 56.6217 345.545 54.15 341.14C50.5321 334.718 44.3516 333.939 41.1748 336.916C37.8582 340.023 41.5717 348.095 46.0696 353.055C50.5676 358.015 56.175 357.912 60.3979 360.094C61.2302 360.539 64.5342 361.653 69.1458 363.098C64.3286 362.697 59.5386 364.131 55.7405 367.121C50.5897 370.916 44.7863 373.826 44.3264 377.964C43.8665 382.102 50.6546 381.605 55.8499 379.65C60.4803 377.889 68.0583 365.104 71.7223 363.906C77.9762 365.841 85.927 368.2 93.3471 370.349C89.2026 370.412 89.082 369.57 81.9761 372.453C77.7591 374.17 70.5014 383.891 72.577 385.83C74.6525 387.77 79.722 387.022 84.011 383.768C87.4701 381.144 89.4266 373.819 91.4883 372.513C91.9638 372.214 93.7441 371.289 94.7707 370.755C103.82 373.371 111.836 375.606 114.599 376.247L114.818 375.546C114.105 375.392 109.499 374.065 103.407 372.285C100.623 369.624 101.942 357.09 99.5465 352.47C97.0415 347.637 93.6493 343.739 90.4315 344.655C87.7476 345.425 87.9609 357.197 90.5936 362.707C92.3483 366.351 94.5847 368.89 98.0233 370.7C93.8771 369.478 89.4283 368.163 85.226 366.919C84.4102 365.743 82.5342 363.036 80.9981 361.044Z" fill="#219653"/>
<path d="M241.087 113.805C238.603 119.844 223.979 119.439 208.648 113.108C193.317 106.776 182.908 96.7551 185.404 90.727C185.977 89.3324 187.584 84.1028 189.315 83.3718C195.025 80.965 205.894 86.3858 217.662 91.2443C228.621 95.7654 241.143 98.6783 243.087 104.628C244.268 108.26 241.795 112.084 241.087 113.805Z" fill="#8F7A61"/>
<g opacity="0.2">
<path opacity="0.2" d="M198.251 82.6857L197.734 83.6304L188.607 99.9716C188.326 99.6567 188.078 99.353 187.831 99.0381L196.598 83.3605L197.273 82.1459L198.251 82.6857Z" fill="black"/>
</g>
<g opacity="0.2">
<path opacity="0.2" d="M205.152 89.3437L195.744 106.18C195.429 105.966 195.126 105.741 194.822 105.539L204.174 88.7926L205.152 89.3437Z" fill="black"/>
</g>
<g opacity="0.2">
<path opacity="0.2" d="M222.451 99.0157L213.549 114.952C213.189 114.828 212.829 114.705 212.47 114.57L221.473 98.4646L222.451 99.0157Z" fill="black"/>
</g>
<g opacity="0.2">
<path opacity="0.2" d="M214.403 94.517L204.939 111.466C204.59 111.308 204.253 111.139 203.916 110.971L213.414 93.9659L214.403 94.517Z" fill="black"/>
</g>
<g opacity="0.2">
<path opacity="0.2" d="M232.938 102.097L224.272 117.595C223.878 117.55 223.485 117.471 223.08 117.404L231.948 101.535L232.938 102.097Z" fill="black"/>
</g>
<path d="M243.031 108.496C240.547 114.536 226.103 114.3 210.772 107.968C195.441 101.636 185.032 91.6155 187.528 85.5873C190.012 79.548 204.455 79.7841 219.786 86.1159C235.107 92.4477 245.515 102.468 243.031 108.496Z" fill="#CD9E64"/>
<path opacity="0.2" d="M237.815 106.348C236.062 110.611 224.799 110.015 212.672 105.01C200.544 100.005 192.136 92.4927 193.889 88.219C195.643 83.9566 206.905 84.5527 219.033 89.5574C231.173 94.5733 239.58 102.086 237.815 106.348Z" fill="white"/>
<path d="M318.553 59.2142C322.543 64.3764 314.922 76.86 301.817 87.0268C288.711 97.1824 274.841 101.231 270.85 96.069C269.929 94.8769 266.197 90.8731 266.422 89.0175C267.175 82.8656 277.28 76.129 287.351 68.3239C296.725 61.0586 305.47 51.6341 311.607 52.9049C315.327 53.6922 317.418 57.7522 318.553 59.2142Z" fill="#8F7A61"/>
<g opacity="0.2">
<path opacity="0.2" d="M270.265 80.92L270.816 81.8423L280.438 97.891C280.033 97.981 279.64 98.0485 279.246 98.1047L270.018 82.697L269.299 81.5049L270.265 80.92Z" fill="black"/>
</g>
<g opacity="0.2">
<path opacity="0.2" d="M279.471 78.2433L289.385 94.7757C289.036 94.9444 288.699 95.0906 288.362 95.248L278.493 78.8056L279.471 78.2433Z" fill="black"/>
</g>
<g opacity="0.2">
<path opacity="0.2" d="M296.455 68.0427L305.84 83.6979C305.559 83.9453 305.267 84.204 304.975 84.4514L295.488 68.6275L296.455 68.0427Z" fill="black"/>
</g>
<g opacity="0.2">
<path opacity="0.2" d="M288.564 72.7888L298.545 89.4336C298.231 89.6586 297.916 89.861 297.612 90.0747L287.598 73.3736L288.564 72.7888Z" fill="black"/>
</g>
<g opacity="0.2">
<path opacity="0.2" d="M304.346 60.4626L313.472 75.7017C313.236 76.0166 312.978 76.3202 312.719 76.6351L303.379 61.0475L304.346 60.4626Z" fill="black"/>
</g>
<path d="M298.409 82.6292C311.518 72.4709 318.906 60.0522 314.911 54.8911C310.916 49.73 297.051 53.781 283.942 63.9393C270.834 74.0975 263.445 86.5163 267.44 91.6774C271.435 96.8384 285.3 92.7874 298.409 82.6292Z" fill="#CD9E64"/>
<path opacity="0.2" d="M296.784 79.508C307.159 71.4681 313.281 61.9927 310.456 58.3441C307.632 54.6955 296.932 58.2554 286.557 66.2953C276.182 74.3352 270.061 83.8106 272.885 87.4592C275.709 91.1078 286.409 87.5479 296.784 79.508Z" fill="white"/>
<path d="M264.298 35.0342C262.983 42.4344 246.437 45.5722 227.633 42.232C208.84 38.8805 194.666 30.1644 195.981 22.7642C196.285 21.0435 196.813 14.7792 198.578 13.5309C204.411 9.41464 217.967 12.8448 232.41 15.4203C245.853 17.8158 260.656 18.007 264.309 24.2263C266.512 28.0051 264.669 32.9198 264.298 35.0342Z" fill="#8F7A61"/>
<g opacity="0.2">
<path opacity="0.2" d="M208.457 10.5618L208.098 11.7427L201.837 32.3688C201.443 32.0876 201.084 31.8065 200.735 31.5141L206.749 11.7202L207.21 10.1907L208.457 10.5618Z" fill="black"/>
</g>
<g opacity="0.2">
<path opacity="0.2" d="M217.854 16.3538L211.402 37.5985C210.986 37.4298 210.604 37.2611 210.211 37.1036L216.618 15.9714L217.854 16.3538Z" fill="black"/>
</g>
<g opacity="0.2">
<path opacity="0.2" d="M239.693 22.9779L233.59 43.098C233.162 43.053 232.713 42.9967 232.274 42.9405L238.445 22.6068L239.693 22.9779Z" fill="black"/>
</g>
<g opacity="0.2">
<path opacity="0.2" d="M229.544 19.8964L223.058 41.2873C222.631 41.1973 222.204 41.0848 221.788 40.9836L228.296 19.514L229.544 19.8964Z" fill="black"/>
</g>
<g opacity="0.2">
<path opacity="0.2" d="M252.248 23.8552L246.302 43.4241C245.842 43.4691 245.392 43.4803 244.92 43.5028L251.001 23.4728L252.248 23.8552Z" fill="black"/>
</g>
<path d="M265.172 28.5882C266.488 21.1891 252.316 12.4773 233.517 9.12998C214.718 5.78263 198.412 9.06727 197.096 16.4664C195.78 23.8656 209.952 32.5773 228.751 35.9247C247.55 39.272 263.856 35.9874 265.172 28.5882Z" fill="#CD9E64"/>
<path opacity="0.2" d="M258.776 27.4514C259.705 22.2231 248.4 15.8375 233.525 13.1888C218.65 10.5401 205.837 12.6312 204.907 17.8596C203.977 23.0879 215.282 29.4735 230.158 32.1222C245.033 34.7709 257.846 32.6797 258.776 27.4514Z" fill="white"/>
<path d="M362.423 223.964L246.752 230.701C242.649 230.937 238.625 231.927 234.882 233.603L109.242 289.869C104.678 291.916 102.161 296.808 103.183 301.633L123.966 399.86C125.394 406.596 132.902 410.15 139.14 407.035L263.151 345.089L377.664 341.221C383.678 341.018 388.174 335.631 387.218 329.772L371.887 235.706C371.089 230.847 367.402 223.818 362.423 223.964Z" fill="#407BFF"/>
<path opacity="0.1" d="M362.423 223.964L246.752 230.701C242.649 230.937 238.625 231.927 234.882 233.603L109.242 289.869C104.678 291.916 102.161 296.808 103.183 301.633L123.966 399.86C125.394 406.596 132.902 410.15 139.14 407.035L263.151 345.089L377.664 341.221C383.678 341.018 388.174 335.631 387.218 329.772L371.887 235.706C371.089 230.847 367.402 223.818 362.423 223.964Z" fill="black"/>
<path d="M130.237 160.02L69.5322 216.002L178.453 334.248L239.157 278.267L130.237 160.02Z" fill="#8F7A61"/>
<path opacity="0.1" d="M130.629 167.247L77.0654 216.644L178.947 327.249L232.511 277.852L130.629 167.247Z" stroke="#F8F4EE" stroke-miterlimit="10"/>
<path opacity="0.2" d="M166.863 260.326C173.007 254.659 172.23 243.816 165.127 236.106C158.025 228.397 147.287 226.741 141.143 232.408C134.999 238.074 135.776 248.918 142.879 256.627C149.981 264.336 160.719 265.992 166.863 260.326Z" fill="#F8F4EE"/>
<path opacity="0.1" d="M129.91 165.618L173.798 287.51L153.154 294.646L106.594 180.961L126.844 162.282L129.91 165.618Z" fill="black" stroke="#F8F4EE"/>
<path d="M182.005 113.689L104.393 141.841L159.166 293.022L236.779 264.87L182.005 113.689Z" fill="#8F7A61"/>
<path opacity="0.1" d="M179.569 120.513L111.086 145.353L162.32 286.765L230.803 261.925L179.569 120.513Z" stroke="#F8F4EE" stroke-miterlimit="10"/>
<path opacity="0.1" d="M184.299 197.529C187.814 207.231 184.344 217.173 176.842 219.894C169.34 222.615 160.309 217.208 156.793 207.506C153.278 197.804 156.749 187.861 164.251 185.14C171.752 182.419 180.784 187.827 184.299 197.529Z" fill="#F8F4EE" stroke="#F8F4EE"/>
<path d="M363.175 227.957L249.089 234.39C245.043 234.615 241.075 235.593 237.389 237.258L113.591 293.175C109.095 295.2 106.622 300.092 107.645 304.917L128.406 403.155C129.833 409.892 137.251 413.457 143.4 410.364L265.579 348.767L378.529 345.191C384.464 344.999 388.881 339.635 387.926 333.775L372.561 239.721C371.74 234.862 368.099 227.822 363.175 227.957Z" fill="#739AF0"/>
<path opacity="0.2" d="M253.732 251.597L351.622 245.569" stroke="black" stroke-width="2" stroke-miterlimit="10" stroke-linecap="round" stroke-linejoin="round"/>
<path opacity="0.2" d="M242.009 254.127L259.892 336.317" stroke="black" stroke-width="2" stroke-miterlimit="10" stroke-linecap="round" stroke-linejoin="round"/>
<path opacity="0.2" d="M122.774 328.332L135.386 391.56C135.386 391.549 145.052 366.469 122.774 328.332Z" fill="#FAFAFA"/>
<path opacity="0.2" d="M124.427 329.074C124.854 330.233 236.433 282.289 236.433 282.289C236.433 282.289 239.255 316.748 205.681 335.597C172.107 354.435 124.427 329.074 124.427 329.074Z" fill="#FAFAFA"/>
<path d="M198.543 330.941C201.212 330.941 203.376 328.776 203.376 326.105C203.376 323.434 201.212 321.269 198.543 321.269C195.874 321.269 193.71 323.434 193.71 326.105C193.71 328.776 195.874 330.941 198.543 330.941Z" fill="#407BFF"/>
<path opacity="0.2" d="M236.501 282.289C236.501 282.289 250.337 303.117 246.988 338.623L236.501 282.289Z" fill="black"/>
<g opacity="0.2">
<g opacity="0.2">
<path opacity="0.2" d="M117.436 303.5L120.01 302.364" stroke="#FAFAFA" stroke-linecap="round" stroke-linejoin="round"/>
<path opacity="0.2" d="M125.349 300.002L229.543 253.914" stroke="#FAFAFA" stroke-linecap="round" stroke-linejoin="round" stroke-dasharray="5.2 5.2"/>
<path opacity="0.2" d="M232.219 252.733L234.781 251.597" stroke="#FAFAFA" stroke-linecap="round" stroke-linejoin="round"/>
</g>
</g>
<path opacity="0.2" d="M257.014 270.075L354.903 264.036" stroke="black" stroke-width="2" stroke-miterlimit="10" stroke-linecap="round" stroke-linejoin="round"/>
<path opacity="0.2" d="M261.42 293.119L359.309 287.08" stroke="black" stroke-width="2" stroke-miterlimit="10" stroke-linecap="round" stroke-linejoin="round"/>
<path d="M337.852 129.415C337.852 129.415 335.39 155.653 325.645 157.914C315.9 160.174 307.673 156.114 307.673 156.114L299.748 150.019L295.882 163.503C295.882 163.503 300.108 169.25 308.931 165.269C308.931 165.269 324.656 172.208 333.367 165.269C342.078 158.33 344.854 139.334 344.854 139.334L337.852 129.415Z" fill="#B97964"/>
<path d="M345.687 116.706C345.687 116.706 338.886 105.111 341.977 84.0916C345.068 63.0718 362.682 60.4401 369.482 61.9809C376.282 63.5217 381.846 70.0447 386.477 82.4721C391.108 94.9107 392.816 98.1497 400.538 95.9904C408.26 93.831 428.806 87.0269 434.528 93.055C440.249 99.0832 438.394 105.887 438.394 105.887C438.394 105.887 466.978 98.9257 464.505 124.433C462.032 149.94 420.781 173.749 381.542 148.545C342.292 123.353 345.687 116.706 345.687 116.706Z" fill="#263238"/>
<path d="M345.372 178.438C345.372 178.438 337.605 245.276 337.864 276.632C338.122 307.976 349.261 381.82 349.261 381.82H362.985C362.985 381.82 361.175 322.754 361.434 302.544C361.693 282.334 365.323 248.92 365.323 248.92C365.323 248.92 369.729 278.971 374.9 289.599C380.081 300.216 408.822 337.79 428.762 349.442L438.08 340.894C438.08 340.894 417.364 315.241 409.597 302.555C401.831 289.858 394.839 286.236 391.996 262.652C389.152 239.08 394.064 201.246 385.78 178.45H345.372V178.438Z" fill="#263238"/>
<path opacity="0.2" d="M365.311 248.909L359.343 206.544C359.343 206.544 354.633 232.017 363.918 263.114L365.311 248.909Z" fill="black"/>
<path d="M352.07 385.577L352.531 398.701L361.737 399.466L362.198 398.24V384.655L352.07 385.577Z" fill="#D4BF9E"/>
<path d="M347.698 380.583L348.541 385.498L364.345 385.88L365.345 379.976L347.698 380.583Z" fill="#739AF0"/>
<path d="M424.411 350.341L439.057 336.688L442.283 341.828L429.705 353.344L424.411 350.341Z" fill="#739AF0"/>
<path d="M431.47 350.341L441.136 358.484L447.341 351.185L439.405 342.975L431.47 350.341Z" fill="#D4BF9E"/>
<path d="M449.218 350.623L455.063 354.222C456.198 354.919 456.434 356.471 455.546 357.472C451.309 362.252 440.485 374.42 439.406 375.286C438.068 376.366 436.45 374.522 436.067 372.835C436.067 372.835 439.136 368.763 439.406 366.154C439.608 364.231 439.507 361.442 439.451 360.103C439.428 359.597 439.597 359.103 439.923 358.72L446.453 351.061C447.15 350.252 448.319 350.06 449.218 350.623Z" fill="#263238"/>
<path d="M363.985 399.804L365.199 406.563C365.435 407.879 364.435 409.082 363.097 409.093C356.702 409.116 340.426 409.172 339.066 408.936C337.369 408.655 337.672 406.225 338.673 404.808C338.673 404.808 343.753 404.381 345.866 402.84C347.429 401.704 349.441 399.77 350.407 398.836C350.767 398.476 351.25 398.285 351.756 398.263L361.816 398.027C362.872 398.015 363.794 398.769 363.985 399.804Z" fill="#263238"/>
<path d="M387.241 141.37L401.269 131.518C401.269 131.518 397.537 116.583 392.018 115.84C386.499 115.098 359.04 109.868 341.584 115.84C341.584 115.84 335.312 117.629 333.379 135.252L340.842 137.636C340.842 137.636 343.529 170.633 345.17 175.717H385.015C384.993 175.717 385.443 147.342 387.241 141.37Z" fill="#FFB93E"/>
<path d="M390.265 139.244C390.265 139.244 395.57 154.427 396.525 162.592C396.525 162.592 383.891 157.565 380.621 155.248L378.159 146.363L369.752 142.326L367.312 148.984L374.236 157.689C374.236 157.689 393.254 175.503 402.91 171.421C412.565 167.338 399.088 133.036 399.088 133.036L390.265 139.244Z" fill="#D4BF9E"/>
<path d="M354.578 72.7663C354.578 72.7663 349.722 82.4945 350.126 90.3896C350.531 98.2846 354.476 101.535 362.075 102.648C362.075 102.648 365.312 112.781 356.814 113.794C356.174 113.872 355.938 116.448 355.994 116.864C356.219 118.506 357.837 119.406 359.31 119.788C360.883 120.204 362.558 120.272 364.188 120.328C367.83 120.451 370.831 118.978 373.247 116.29C373.438 116.088 375.135 113.895 375.135 113.895C375.135 113.895 371.089 111.882 372.505 98.7007C372.505 98.7007 375.237 97.1824 376.754 93.4374C376.754 93.4374 379.384 92.1215 379.991 89.4898C380.598 86.8581 378.271 83.2143 374.023 86.8581C374.023 86.8581 366.031 82.8094 362.985 68.6275C362.974 68.6051 359.838 72.159 354.578 72.7663Z" fill="#D4BF9E"/>
<path d="M356.859 88.2303L357.555 83.0344L353.88 87.1057C353.869 87.1057 355.038 88.4552 356.859 88.2303Z" fill="#C9B28E"/>
<path d="M370 101.075C368.4 102.275 363.833 102.575 362 102.575L362.5 105.075C365 105.575 372 99.5749 370 101.075Z" fill="#C9B28E"/>
<path d="M358.994 92.0315C358.994 92.0315 362.872 92.6276 364.738 90.1309" stroke="#222221" stroke-width="0.75" stroke-miterlimit="10" stroke-linecap="round" stroke-linejoin="round"/>
<path d="M362.872 75.7579C362.872 75.7579 365.345 74.802 367.896 77.0963" stroke="#222221" stroke-miterlimit="10" stroke-linecap="round" stroke-linejoin="round"/>
<path d="M356.162 74.6332C356.162 74.6332 353.959 74.2846 352.914 75.5667" stroke="#222221" stroke-miterlimit="10" stroke-linecap="round" stroke-linejoin="round"/>
<path d="M364.435 82.5957C364.334 83.383 363.828 83.9566 363.311 83.8891C362.794 83.8216 362.446 83.1356 362.547 82.3483C362.648 81.561 363.154 80.9875 363.671 81.055C364.199 81.1224 364.536 81.8085 364.435 82.5957Z" fill="#222221"/>
<path d="M355.501 80.8588C355.602 80.0765 355.261 79.3872 354.737 79.3191C354.214 79.2511 353.707 79.8301 353.606 80.6124C353.504 81.3947 353.846 82.084 354.369 82.152C354.893 82.2201 355.399 81.6411 355.501 80.8588Z" fill="#222221"/>
<path d="M363.681 81.0549L361.905 80.2789C361.905 80.2789 362.265 81.8759 363.681 81.0549Z" fill="#222221"/>
<path d="M354.87 79.3905L353.094 78.6145C353.094 78.6145 353.465 80.2115 354.87 79.3905Z" fill="#222221"/>
<path d="M343.764 173.962V178.652L386.925 179.012L385.768 173.434L343.764 173.962Z" fill="#FFA412"/>
<path d="M344.293 151.199L320.565 233.828C318.89 239.665 313.855 243.623 308.179 244.186C306.414 244.354 304.582 244.208 302.761 243.691L257.34 230.634C249.708 228.429 245.291 220.456 247.483 212.819L271.222 130.18C272.503 125.76 275.695 122.42 279.663 120.811C282.54 119.642 285.811 119.394 289.026 120.328L334.435 133.374C342.078 135.567 346.485 143.541 344.293 151.199Z" fill="#67553F"/>
<path d="M340.347 152.178L316.62 234.806C315.35 239.237 312.135 242.589 308.179 244.186C306.414 244.354 304.582 244.208 302.761 243.691L257.34 230.634C249.708 228.429 245.291 220.456 247.483 212.819L271.222 130.18C272.503 125.76 275.695 122.42 279.663 120.811C281.427 120.643 283.26 120.789 285.08 121.306L330.49 134.352C338.122 136.557 342.539 144.53 340.347 152.178Z" fill="#8F7A61"/>
<path opacity="0.3" d="M276.538 159.181L271.681 157.812L254.202 219.881L259.059 221.251L276.538 159.181Z" fill="#FAFAFA"/>
<path opacity="0.3" d="M266.018 223.245L261.162 221.839L278.64 159.792L283.485 161.186L266.018 223.245Z" fill="#FAFAFA"/>
<path opacity="0.3" d="M273.076 225.269L268.221 223.874L285.699 161.816L290.555 163.222L273.076 225.269Z" fill="#FAFAFA"/>
<path opacity="0.5" d="M318.835 171.335L313.978 169.966L296.499 232.035L301.356 233.404L318.835 171.335Z" fill="#67553F"/>
<path opacity="0.3" d="M318.205 153.809L315.788 162.232L312.911 161.423C310.011 160.602 308.325 157.588 309.134 154.686L310.708 149.096L316.519 150.761C317.823 151.143 318.576 152.504 318.205 153.809Z" fill="#FAFAFA"/>
<path opacity="0.3" d="M316.822 149.681L311.011 148.017L312.753 141.854C313.562 138.952 316.586 137.265 319.486 138.075L322.475 138.918L319.868 147.994C319.497 149.31 318.137 150.064 316.822 149.681Z" fill="#FAFAFA"/>
<path opacity="0.3" d="M322.33 152.437L328.175 154.112L326.624 159.612C325.814 162.514 322.802 164.212 319.902 163.391L316.867 162.536L319.284 154.124C319.655 152.819 321.015 152.066 322.33 152.437Z" fill="#FAFAFA"/>
<path opacity="0.3" d="M330.243 146.78L328.478 153.033L322.633 151.357C321.329 150.975 320.576 149.614 320.947 148.309L323.555 139.233L326.466 140.054C329.366 140.864 331.052 143.878 330.243 146.78Z" fill="#FAFAFA"/>
</svg>
