<svg width="128" height="184" viewBox="0 0 128 184" fill="none" xmlns="http://www.w3.org/2000/svg">
<path d="M64.5214 161.979C64.3444 159.839 63.8867 157.804 63.204 155.92C63.0751 155.561 62.936 155.207 62.7893 154.861C62.6831 154.605 62.5694 154.355 62.453 154.107C62.3216 153.826 62.185 153.548 62.0434 153.278C61.8866 152.979 61.7248 152.686 61.5579 152.398C60.7311 150.987 59.7626 149.71 58.6728 148.607C58.6703 148.602 58.6652 148.6 58.6602 148.597C58.2758 148.208 57.8738 147.841 57.4616 147.497C57.1405 147.229 56.8067 146.976 56.4679 146.736C55.9824 146.392 55.4843 146.076 54.9684 145.796C54.7763 145.689 54.5841 145.588 54.3869 145.492C52.7509 144.686 50.9859 144.187 49.135 144.074C48.8568 144.056 48.5762 144.048 48.2955 144.048H40.7098C31.7029 144.048 24.4004 152.992 24.4004 164.024C24.4004 175.056 31.7029 184 40.7098 184H48.2955C48.5762 184 48.8568 183.992 49.135 183.975C50.9834 183.861 52.7509 183.363 54.3869 182.556C54.5816 182.46 54.7763 182.359 54.9684 182.253C55.4843 181.97 55.9824 181.656 56.4679 181.312C56.8067 181.072 57.138 180.822 57.4616 180.551C57.8763 180.207 58.2758 179.84 58.6602 179.451C58.6652 179.449 58.6677 179.443 58.6728 179.441C59.7651 178.338 60.7336 177.062 61.5579 175.651C61.7273 175.362 61.8892 175.072 62.0434 174.771C62.185 174.498 62.3216 174.222 62.453 173.941C62.5694 173.693 62.6806 173.443 62.7893 173.188C62.936 172.839 63.0751 172.487 63.204 172.128C63.8893 170.244 64.3444 168.206 64.5214 166.07C64.577 165.397 64.6049 164.717 64.6049 164.027C64.6049 163.336 64.577 162.651 64.5214 161.979Z" fill="#233862"/>
<path d="M99.4152 177.507H38.1805C37.1336 177.507 34.7871 176.657 34.7871 175.61C34.7871 174.563 42.6637 173.714 43.7105 173.714H95.6198V13.1537C95.6198 6.59963 100.953 1.26685 107.507 1.26685H120.779C121.826 1.26685 122.676 2.11645 122.676 3.16328C122.676 4.21012 121.826 5.05972 120.779 5.05972H107.507C103.044 5.05972 99.4127 8.69077 99.4127 13.1537V177.507H99.4152Z" fill="#263238"/>
<path d="M46.3161 177.507H1.89644C0.849604 177.507 0 176.657 0 175.61C0 174.563 0.849604 173.714 1.89644 173.714H42.5232V13.1537C42.5232 6.59963 47.856 1.26685 54.4101 1.26685H67.6826C68.7294 1.26685 69.579 2.11645 69.579 3.16328C69.579 4.21012 68.7294 5.05972 67.6826 5.05972H54.4101C49.9471 5.05972 46.3161 8.69077 46.3161 13.1537V177.507Z" fill="#263238"/>
<path d="M96.2988 29.2482H45.6386C44.6398 29.2482 43.8281 28.3986 43.8281 27.3518C43.8281 26.3049 44.6373 25.4553 45.6386 25.4553H96.2988C97.2976 25.4553 98.1093 26.3049 98.1093 27.3518C98.1093 28.3986 97.3001 29.2482 96.2988 29.2482Z" fill="#263238"/>
<path d="M123.903 6.32146H107.512C105.768 6.32146 104.352 4.90545 104.352 3.16073C104.352 1.41601 105.768 0 107.512 0H123.903C125.647 0 127.063 1.41601 127.063 3.16073C127.063 4.90798 125.647 6.32146 123.903 6.32146Z" fill="#8F7A61"/>
<path d="M107.512 1.2644C101.545 1.2644 96.594 5.68438 95.752 11.4217H99.6055C100.399 7.78816 103.644 5.05728 107.512 5.05728C108.559 5.05728 109.409 4.20768 109.409 3.16084C109.409 2.11401 108.559 1.2644 107.512 1.2644Z" fill="#263238"/>
<path d="M70.801 6.32146H54.4107C52.666 6.32146 51.25 4.90545 51.25 3.16073C51.25 1.41601 52.666 0 54.4107 0H70.801C72.5458 0 73.9618 1.41601 73.9618 3.16073C73.9618 4.90798 72.5458 6.32146 70.801 6.32146Z" fill="#8F7A61"/>
<path d="M54.4108 1.2644C48.4434 1.2644 43.4924 5.68438 42.6504 11.4217H46.504C47.2979 7.78816 50.5421 5.05728 54.4108 5.05728C55.4577 5.05728 56.3073 4.20768 56.3073 3.16084C56.3073 2.11401 55.4577 1.2644 54.4108 1.2644Z" fill="#263238"/>
<path d="M34.3281 117.637L97.4441 116.525L97.6186 173.711H34.5001L34.3281 117.637Z" fill="#4A75CB"/>
<path d="M15.3906 117.733L65.9193 117.539L66.0584 173.746L15.5271 173.711L15.3906 117.733Z" fill="#739AF0"/>
<path d="M103.672 144.046H96.0867C87.0799 144.046 79.7773 152.99 79.7773 164.022C79.7773 175.054 87.0799 183.998 96.0867 183.998H103.672C112.679 183.998 119.982 175.054 119.982 164.022C119.982 152.99 112.679 144.046 103.672 144.046Z" fill="#233862"/>
<path d="M103.671 183.998C112.678 183.998 119.98 175.054 119.98 164.022C119.98 152.989 112.678 144.046 103.671 144.046C94.6633 144.046 87.3613 152.989 87.3613 164.022C87.3613 175.054 94.6633 183.998 103.671 183.998Z" fill="#2B478B"/>
<path d="M113.993 164.022C113.993 171.003 109.371 176.665 103.671 176.665C97.9719 176.665 93.3496 171.003 93.3496 164.022C93.3496 157.04 97.9719 151.379 103.671 151.379C109.373 151.379 113.993 157.038 113.993 164.022Z" fill="#4A75CB"/>
<path d="M45.666 53.5326L118.297 53.3101L118.097 117.374L45.8633 117.597L45.666 53.5326Z" fill="#FFA412"/>
<path d="M23.9922 53.6444L81.8209 53.4219L81.9802 117.486L24.1515 117.709L23.9922 53.6444Z" fill="#FFB93E"/>
</svg>
