<svg width="163" height="236" viewBox="0 0 163 236" fill="none" xmlns="http://www.w3.org/2000/svg">
<path d="M79.941 207.05C80.1673 204.316 80.7523 201.714 81.625 199.306C81.7898 198.847 81.9676 198.395 82.1551 197.952C82.2908 197.625 82.4362 197.305 82.5849 196.989C82.753 196.63 82.9275 196.274 83.1085 195.929C83.3089 195.547 83.5158 195.172 83.7291 194.804C84.7861 193 86.024 191.368 87.4171 189.959C87.4203 189.952 87.4267 189.949 87.4332 189.946C87.9245 189.448 88.4384 188.979 88.9653 188.54C89.3757 188.197 89.8024 187.874 90.2355 187.567C90.8561 187.127 91.4928 186.723 92.1522 186.365C92.3978 186.229 92.6435 186.099 92.8956 185.977C94.9868 184.946 97.2429 184.309 99.6089 184.163C99.9644 184.141 100.323 184.131 100.682 184.131H110.378C121.892 184.131 131.226 195.563 131.226 209.665C131.226 223.767 121.892 235.2 110.378 235.2H100.682C100.323 235.2 99.9644 235.19 99.6089 235.167C97.2461 235.022 94.9868 234.385 92.8956 233.354C92.6467 233.231 92.3978 233.102 92.1522 232.966C91.4928 232.604 90.8561 232.203 90.2355 231.764C89.8024 231.457 89.379 231.137 88.9653 230.791C88.4352 230.351 87.9245 229.883 87.4332 229.385C87.4267 229.382 87.4235 229.375 87.4171 229.372C86.0208 227.963 84.7828 226.331 83.7291 224.527C83.5126 224.158 83.3057 223.787 83.1085 223.402C82.9275 223.053 82.753 222.701 82.5849 222.342C82.4362 222.025 82.294 221.705 82.1551 221.379C81.9676 220.933 81.7898 220.483 81.625 220.024C80.7491 217.617 80.1673 215.011 79.941 212.28C79.8699 211.42 79.8343 210.551 79.8343 209.669C79.8343 208.786 79.8699 207.91 79.941 207.05Z" fill="#233862"/>
<path d="M35.3373 226.899H113.611C114.949 226.899 117.949 225.813 117.949 224.475C117.949 223.137 107.88 222.051 106.542 222.051H40.1888V16.8139C40.1888 8.43607 33.3722 1.61938 24.9943 1.61938H8.0286C6.69048 1.61938 5.60446 2.7054 5.60446 4.04352C5.60446 5.38165 6.69048 6.46766 8.0286 6.46766H24.9943C30.6991 6.46766 35.3406 11.1091 35.3406 16.8139V226.899H35.3373Z" fill="#263238"/>
<path d="M103.214 226.899H159.993C161.331 226.899 162.417 225.813 162.417 224.475C162.417 223.137 161.331 222.051 159.993 222.051H108.062V16.8139C108.062 8.43607 101.245 1.61938 92.8673 1.61938H75.9016C74.5635 1.61938 73.4775 2.7054 73.4775 4.04352C73.4775 5.38165 74.5635 6.46766 75.9016 6.46766H92.8673C98.5722 6.46766 103.214 11.1091 103.214 16.8139V226.899Z" fill="#263238"/>
<path d="M39.322 37.3866H104.079C105.356 37.3866 106.393 36.3006 106.393 34.9625C106.393 33.6243 105.359 32.5383 104.079 32.5383H39.322C38.0453 32.5383 37.0077 33.6243 37.0077 34.9625C37.0077 36.3006 38.042 37.3866 39.322 37.3866Z" fill="#263238"/>
<path d="M4.04046 8.08046H24.9915C27.2217 8.08046 29.0317 6.27044 29.0317 4.04023C29.0317 1.81002 27.2217 0 24.9915 0H4.04046C1.81026 0 0.000230789 1.81002 0.000230789 4.04023C0.000230789 6.27367 1.81026 8.08046 4.04046 8.08046Z" fill="#8F7A61"/>
<path d="M24.991 1.61621C32.619 1.61621 38.9476 7.26608 40.0239 14.5999H35.0981C34.0832 9.95526 29.9363 6.46449 24.991 6.46449C23.6529 6.46449 22.5669 5.37847 22.5669 4.04035C22.5669 2.70223 23.6529 1.61621 24.991 1.61621Z" fill="#263238"/>
<path d="M71.9155 8.08046H92.8665C95.0967 8.08046 96.9067 6.27044 96.9067 4.04023C96.9067 1.81002 95.0967 0 92.8665 0H71.9155C69.6853 0 67.8752 1.81002 67.8752 4.04023C67.8752 6.27367 69.6853 8.08046 71.9155 8.08046Z" fill="#8F7A61"/>
<path d="M92.867 1.61621C100.495 1.61621 106.824 7.26608 107.9 14.5999H102.974C101.959 9.95526 97.8123 6.46449 92.867 6.46449C91.5289 6.46449 90.4429 5.37847 90.4429 4.04035C90.4429 2.70223 91.5289 1.61621 92.867 1.61621Z" fill="#263238"/>
<path d="M118.54 150.371L37.8612 148.949L37.6382 222.048H118.32L118.54 150.371Z" fill="#4A75CB"/>
<path d="M142.746 150.494L78.1569 150.245L77.9791 222.093L142.571 222.048L142.746 150.494Z" fill="#739AF0"/>
<path d="M29.8977 184.128H39.5943C51.1073 184.128 60.4419 195.56 60.4419 209.662C60.4419 223.764 51.1073 235.196 39.5943 235.196H29.8977C18.3847 235.196 9.05016 223.764 9.05016 209.662C9.05016 195.56 18.3847 184.128 29.8977 184.128Z" fill="#233862"/>
<path d="M29.8983 235.196C18.3844 235.196 9.05066 223.764 9.05066 209.662C9.05066 195.56 18.3844 184.128 29.8983 184.128C41.4121 184.128 50.7458 195.56 50.7458 209.662C50.7458 223.764 41.4121 235.196 29.8983 235.196Z" fill="#2B478B"/>
<path d="M16.7045 209.662C16.7045 218.586 22.6129 225.823 29.8982 225.823C37.1836 225.823 43.092 218.586 43.092 209.662C43.092 200.738 37.1836 193.501 29.8982 193.501C22.6097 193.501 16.7045 200.735 16.7045 209.662Z" fill="#4A75CB"/>
<path d="M104.048 68.4287L11.2066 68.1443L11.4619 150.035L103.796 150.319L104.048 68.4287Z" fill="#FFA412"/>
<path d="M131.75 68.5717L57.8304 68.2872L57.6268 150.178L131.547 150.462L131.75 68.5717Z" fill="#FFB93E"/>
</svg>
