<svg width="565" height="482" viewBox="0 0 565 482" fill="none" xmlns="http://www.w3.org/2000/svg">
<path d="M407.779 457.437C407.519 460.664 402.958 460.667 397.786 460.028C392.617 459.389 377.01 458.393 376.665 457.353C376.358 456.432 379.854 455.687 383.595 454.806C384.064 454.697 384.539 454.582 385.01 454.467C389.226 453.428 392.871 451.147 395.662 447.575C398.804 443.551 401.679 425.221 401.679 425.221L413.001 427.331C413.001 427.331 406.41 443.042 405.733 448.193C405.429 450.505 407.075 452.047 407.46 454.07C407.668 455.175 407.876 456.301 407.779 457.437Z" fill="#D5BF9E"/>
<path d="M407.779 457.437C407.519 460.664 402.958 460.667 397.789 460.028C394.247 459.591 393.772 460.072 391.493 460.435H382.403C378.448 459.752 376.929 458.151 376.669 457.353C376.361 456.435 379.857 455.687 383.598 454.806L383.641 454.874C383.641 454.874 388.289 457.412 394.259 456.857C399.127 456.404 404.104 454.411 407.463 454.073C407.668 455.175 407.873 456.298 407.779 457.437Z" fill="#699DEE"/>
<path d="M397.656 438.421C397.656 438.421 400.621 440.383 403.412 440.888C407.593 441.649 409.537 440.805 409.537 440.805C409.537 440.805 429.655 390.314 428.509 373.253C428.481 372.843 428.465 372.406 428.459 371.947C428.425 368.986 428.854 365.042 429.586 360.499C429.856 358.836 430.17 357.092 430.518 355.286C431.325 351.078 432.321 346.541 433.42 341.915C433.902 339.876 434.408 337.822 434.92 335.771C439.977 315.582 446.158 295.688 446.158 295.688C446.158 295.688 409.854 283.834 407.798 294.912C407.01 299.163 404.386 316.178 405.566 342.191C406.519 363.131 405.905 379.465 404.095 398.422C402.502 415.07 399.779 429.388 397.656 438.421Z" fill="#CD9E64"/>
<path d="M428.459 371.943C428.425 368.983 428.853 365.039 429.586 360.496C429.856 358.833 430.169 357.089 430.517 355.283C431.324 351.075 432.321 346.538 433.42 341.911C433.901 339.873 434.407 337.818 434.919 335.767C434.202 329.608 433.625 325.381 433.625 325.381C433.625 325.381 418.549 345.846 428.459 371.943Z" fill="#C08E4F"/>
<path d="M453.584 457.437C453.324 460.664 448.763 460.667 443.591 460.028C438.422 459.389 422.815 458.393 422.47 457.353C422.163 456.431 425.659 455.687 429.4 454.805C429.872 454.697 430.344 454.582 430.816 454.467C435.032 453.428 437.844 450.3 441.467 447.575C444.898 444.997 442.498 432.485 442.498 432.485L453.147 428.684C453.147 428.684 451.542 441.27 451.542 448.196C451.542 450.526 452.883 452.05 453.268 454.073C453.47 455.175 453.678 456.301 453.584 457.437Z" fill="#D5BF9E"/>
<path d="M453.581 457.437C453.321 460.664 448.76 460.667 443.591 460.028C440.049 459.591 439.574 460.072 437.295 460.435H428.205C424.249 459.752 422.731 458.151 422.47 457.353C422.163 456.435 425.659 455.687 429.4 454.806L429.443 454.874C429.443 454.874 434.091 457.412 440.061 456.857C444.929 456.404 449.906 454.411 453.265 454.073C453.47 455.175 453.675 456.298 453.581 457.437Z" fill="#232323"/>
<path d="M424.286 291.737C424.286 291.737 436.099 350.579 438.092 382.606C440.085 414.633 442.578 441.146 442.578 441.146C442.578 441.146 445.155 442.074 448.114 441.906C451.237 441.729 453.711 440.767 453.711 440.767C453.711 440.767 465.419 392.582 461.541 373.296C457.664 354.011 460.895 336.22 462.755 320.221C465.425 297.283 455.155 286.62 447.987 279.353C440.731 271.992 424.286 291.737 424.286 291.737Z" fill="#CD9E64"/>
<path d="M415.913 183.963C414.74 174.384 417.733 159.055 436.863 161.503C455.993 163.951 462.022 182.744 458.163 191.097C454.304 199.454 463.717 201.468 466.673 210.452C469.213 218.169 470.097 227.754 474.205 232.055C487.449 245.923 461.491 267.248 445.841 262.751C417.338 254.562 413.669 253.34 414.681 230.954C415.199 219.485 424.125 215.041 418.459 211.724C404.765 203.708 418.571 205.639 415.913 183.963Z" fill="#232323"/>
<path d="M421.707 214.728L427.366 223.211L438.766 222.65L444.032 209.043C444.032 209.043 442.408 208.735 441.65 191.768L427.422 196.106C427.422 196.106 428.18 200.531 427.171 205.344C426.469 208.708 424.926 212.292 421.707 214.728Z" fill="#D5BF9E"/>
<path d="M420.12 208.742C420.853 208.742 434.258 204.261 453.398 212.053C453.398 212.053 444.311 264.014 448.213 273.932C452.116 283.849 453.6 292.65 453.6 292.65L411.257 293.174C411.257 293.174 411.849 259.136 409.897 247.087C407.944 235.04 420.12 208.742 420.12 208.742Z" fill="#D5BF9E"/>
<path d="M453.37 269.876C453.118 268.874 452.948 267.986 452.882 267.248C452.324 260.976 453.274 255.862 454.848 250.845C454.851 250.838 454.854 250.835 454.854 250.829C454.879 250.751 454.903 250.671 454.931 250.59C454.975 250.46 455.028 250.255 455.09 249.994C455.093 249.988 455.093 249.982 455.096 249.973C455.158 249.734 455.223 249.448 455.298 249.122C455.319 249.017 455.347 248.902 455.372 248.778C456.462 243.9 458.852 231.646 459.486 229.976C459.694 229.424 459.933 228.471 460.135 227.301C460.774 223.612 461.054 217.744 458.902 215.289C455.906 211.876 445.618 209.424 445.618 209.424C443.525 212.701 436.444 220.713 427.555 219.249C422.417 218.398 421.622 208.406 421.622 208.406C416.099 209.167 414.69 210.005 414.69 210.005C414.69 210.005 401.455 218.259 382.753 244.545C382.16 245.38 380.748 245.284 377.295 244.617C372.899 243.76 363.927 243.872 350.388 241.886C350.388 241.886 349.922 242.224 349.795 243.701C349.516 246.969 349.19 247.934 349.19 247.934C349.19 247.934 358.103 252.135 367.584 255.133C370.937 256.197 374.445 257.19 377.792 257.938C380.909 258.636 383.886 259.12 386.472 259.242C386.472 259.242 397.276 255.093 407.745 243.562C408.357 253.24 409.707 265.739 408.878 274.869C408.403 280.066 404.848 297.552 405.739 300.463C407.599 306.524 421.883 306.837 434.64 306.204C434.919 306.192 435.196 306.176 435.475 306.157C437.453 306.043 439.393 305.872 441.206 305.667C444.624 305.285 447.586 304.789 449.514 304.345C452.004 303.774 455.13 302.958 457.673 301.729C459.622 300.789 461.224 299.61 461.932 298.12C460.7 291.532 454.792 277.165 453.37 269.876Z" fill="white"/>
<path d="M425.581 286.67C427.996 294.862 429.403 301.605 435.472 306.164C437.45 306.049 439.39 305.878 441.203 305.674C444.622 305.292 447.583 304.795 449.511 304.352C452.001 303.781 455.127 302.961 457.67 301.736C459.62 300.795 461.222 299.616 461.93 298.127C460.703 291.53 454.792 277.162 453.37 269.876C453.231 269.166 453.134 268.526 453.088 267.965C452.56 261.436 453.407 256.077 454.848 250.845C454.851 250.839 454.854 250.835 454.854 250.829C454.932 250.55 455.013 250.274 455.09 249.995C455.093 249.988 455.093 249.982 455.096 249.973C455.146 249.793 455.214 249.501 455.298 249.123C455.32 249.017 455.348 248.902 455.373 248.778C456.347 244.158 458.893 229.651 459.542 227.758C459.747 227.159 459.977 226.135 460.179 224.869L455.081 219.966C455.081 219.966 425.83 232.45 419.384 249.672C412.939 266.897 422.11 274.916 425.581 286.67Z" fill="#F5EFE5"/>
<path d="M367.582 255.14C374.058 257.191 381.102 258.991 386.47 259.248C386.47 259.248 397.42 255.046 407.954 243.338C408.397 241.349 408.826 238.01 406.414 238.975C403.033 240.325 390.524 256.378 385.793 256.713C382.406 256.952 372.776 255.81 367.582 255.14Z" fill="#F5EFE5"/>
<path d="M390.682 250.568C390.682 250.568 405.1 257.808 417.602 260.802C421.2 261.665 424.665 262.273 427.62 262.413C427.62 262.413 441.349 258.478 451.324 243.915C469.771 216.983 455.841 213.176 455.841 213.176C455.841 213.176 442.603 221.43 423.904 247.717C423.249 248.635 421.607 248.427 417.354 247.571C412.812 246.652 403.768 246.764 391.285 244.93C391.285 244.93 391.074 245.392 390.946 246.873C390.667 250.14 390.682 250.568 390.682 250.568Z" fill="white"/>
<path d="M377.292 244.62C372.94 243.773 363.688 243.704 350.37 241.777C349.333 241.448 348.159 241.014 347.066 240.468C344.213 239.04 336.604 238.091 334.986 239.611C333.369 241.132 336.7 247.313 343.642 247.502C346.076 247.568 347.898 247.754 349.243 247.962C349.975 248.303 358.516 252.266 367.581 255.136C370.934 256.201 374.442 257.193 377.789 257.941C379.13 251.971 378.205 247.316 377.292 244.62Z" fill="#C9B28E"/>
<path d="M427.167 205.347C433.05 204.872 441.65 191.768 441.65 191.768L427.422 196.106C427.419 196.109 428.176 200.531 427.167 205.347Z" fill="#C9B28E"/>
<path d="M423.693 197.071C423.693 197.071 440.731 200.49 442.7 189.853C444.668 179.216 448.192 172.491 437.397 169.857C426.602 167.222 423.731 170.89 422.209 174.282C420.688 177.673 419.313 195.907 423.693 197.071Z" fill="#D5BF9E"/>
<path d="M423.382 182.766C423.707 182.432 423.7 181.897 423.367 181.572C423.033 181.247 422.499 181.254 422.173 181.588C421.848 181.922 421.855 182.455 422.189 182.781C422.522 183.106 423.056 183.1 423.382 182.766Z" fill="#263238"/>
<path d="M421.894 181.529C421.991 181.624 422.534 181.151 423.332 181.098C424.129 181.033 424.735 181.422 424.818 181.313C424.858 181.265 424.756 181.09 424.491 180.913C424.231 180.736 423.793 180.579 423.296 180.616C422.799 180.653 422.389 180.873 422.157 181.085C421.922 181.299 421.848 181.488 421.894 181.529Z" fill="#263238"/>
<path d="M431.14 181.658C430.759 181.927 430.668 182.453 430.935 182.835C431.204 183.216 431.729 183.307 432.111 183.039C432.492 182.771 432.584 182.245 432.316 181.863C432.047 181.482 431.521 181.391 431.14 181.658Z" fill="#263238"/>
<path d="M430.614 181.698C430.711 181.792 431.254 181.32 432.052 181.267C432.85 181.202 433.456 181.591 433.538 181.483C433.578 181.434 433.476 181.258 433.211 181.082C432.951 180.906 432.513 180.748 432.016 180.785C431.519 180.821 431.109 181.042 430.877 181.255C430.642 181.467 430.568 181.656 430.614 181.698Z" fill="#263238"/>
<path d="M427.816 188.485C427.818 188.424 427.317 188.357 426.507 188.296C426.297 188.287 426.127 188.25 426.102 188.135C426.055 188.007 426.124 187.778 426.214 187.523C426.386 186.984 426.561 186.435 426.745 185.861C427.474 183.494 427.971 181.548 427.856 181.512C427.739 181.475 427.054 183.365 426.324 185.731C426.152 186.309 425.988 186.861 425.826 187.403C425.764 187.649 425.637 187.94 425.765 188.274C425.832 188.441 426.002 188.554 426.141 188.582C426.28 188.615 426.399 188.608 426.499 188.606C427.312 188.588 427.814 188.546 427.816 188.485Z" fill="#263238"/>
<path d="M430.467 189.207C431.27 188.66 428.251 190.565 426.62 190.586C426.62 190.586 427.645 192.019 429.279 191.304C430.976 190.562 430.467 189.207 430.467 189.207Z" fill="white"/>
<path d="M432.02 167.201C432.02 167.201 431.722 170.81 437.325 176.932C442.929 183.054 441.594 193.971 441.594 193.971C441.594 193.971 451.038 176.228 446 170.561C440.961 164.895 432.02 167.201 432.02 167.201Z" fill="#232323"/>
<path d="M438.872 162.502C438.872 162.502 430.399 159.669 421.995 167.948C418.375 171.514 418.922 178.527 420.862 182.595C420.862 182.595 423.843 173.875 429.263 171.976C434.684 170.077 438.872 162.502 438.872 162.502Z" fill="#232323"/>
<path d="M371.726 220.419L335.446 221.238L343.773 271.623L380.5 272.811L371.726 220.419Z" fill="#D5C2A4"/>
<path d="M417.602 260.802C414.858 255.378 415.932 250.637 417.354 247.571C412.812 246.652 403.706 246.255 391.223 244.424C391.223 244.424 391.223 244.433 391.22 244.446C389.875 244.089 387.885 243.478 386.106 242.587C383.061 241.063 374.936 240.049 373.21 241.675C371.484 243.298 375.039 249.895 382.449 250.1C386.557 250.211 389.04 250.637 390.44 250.99C391.673 251.555 405.665 257.941 417.602 260.802Z" fill="#C9B28E"/>
<path d="M207.829 258.425H120.858V345.355H207.829V258.425Z" fill="#EBE0CF"/>
<path d="M234.647 258.425H147.675V345.355H234.647V258.425Z" fill="#E5D6BE"/>
<path d="M288.306 345.356H194.961V438.657H288.306V345.356Z" fill="#D5C2A4"/>
<path d="M317.085 345.355H223.74V438.656H317.085V345.355Z" fill="#EBE0CF"/>
<path d="M223.74 345.356L194.961 362.798V345.356H223.74Z" fill="#C8B392"/>
<path d="M222.641 312.616L214.225 281.16C213.905 279.968 212.675 279.257 211.483 279.577L159.128 293.575C157.936 293.895 157.225 295.124 157.544 296.315L165.964 327.775C166.281 328.954 167.513 329.677 168.705 329.357L221.061 315.359C222.25 315.036 222.958 313.795 222.641 312.616Z" fill="#DBCAAF"/>
<path d="M214.225 281.155C213.905 279.964 212.675 279.253 211.483 279.573L159.128 293.571C157.936 293.89 157.225 295.119 157.544 296.311L190.093 304.463L214.467 282.068L214.225 281.155Z" fill="#EBE0CF"/>
<path d="M218.792 311.162C218.664 310.684 218.168 310.399 217.689 310.526L207.87 313.151C207.392 313.279 207.103 313.775 207.233 314.253C207.361 314.731 207.857 315.019 208.335 314.889L218.155 312.264C218.63 312.137 218.919 311.64 218.792 311.162Z" fill="#EBE0CF"/>
<path d="M179.925 345.356H86.5801V438.657H179.925V345.356Z" fill="#D5C2A4"/>
<path d="M208.708 345.355H115.363V438.656H208.708V345.355Z" fill="#DBCAAF"/>
<path d="M115.363 345.356L86.5801 362.798V345.356H115.363Z" fill="#C8B392"/>
<path d="M133.335 399.846H97.1479L98.6692 395.619L97.1479 391.058H132.996L130.795 395.79L133.335 399.846Z" fill="#EBE0CF"/>
<path d="M115.241 391.058V399.846H97.1479L98.6692 395.619L97.1479 391.058H115.241Z" fill="#C8B392"/>
<path d="M341.111 383.955H287.433V437.608H341.111V383.955Z" fill="#D5C2A4"/>
<path d="M357.665 383.955H303.987V437.608H357.665V383.955Z" fill="#EBE0CF"/>
<path d="M303.987 383.955L287.433 393.984V383.955H303.987Z" fill="#C8B392"/>
<path d="M367.519 395.353H325.244V437.605H367.519V395.353Z" fill="#E5D6BE"/>
<path d="M380.555 395.353H338.28V437.605H380.555V395.353Z" fill="#D5C2A4"/>
<path d="M357.33 424.349L341.643 427.48L343.235 435.45L358.922 432.319L357.33 424.349Z" fill="#EBE0CF"/>
<path d="M345.886 406.123H330.612L331.254 404.339L330.612 402.412H345.743L344.815 404.411L345.886 406.123Z" fill="#E5D6BE"/>
<path d="M338.249 402.412V406.123H330.612L331.254 404.339L330.612 402.412H338.249Z" fill="#EBE0CF"/>
<path d="M313.018 395.564H294.968L295.726 393.454L294.968 391.179H312.851L311.755 393.541L313.018 395.564Z" fill="#FDF4E7"/>
<path d="M303.993 391.179V395.564H294.968L295.726 393.454L294.968 391.179H303.993Z" fill="#C8B392"/>
<path d="M313.018 427.964H294.968L295.726 425.857L294.968 423.579H312.851L311.755 425.94L313.018 427.964Z" fill="#FDF4E7"/>
<path d="M303.993 423.579V427.964H294.968L295.726 425.857L294.968 423.579H303.993Z" fill="#C8B392"/>
<path d="M240.412 364.741H166.151V438.967H240.412V364.741Z" fill="#E5D6BE"/>
<path d="M263.311 364.741H189.05V438.967H263.311V364.741Z" fill="#D5C2A4"/>
<path d="M257.131 369.215L239.343 372.766L241.148 381.803L258.936 378.253L257.131 369.215Z" fill="#EBE0CF"/>
<path d="M198.91 376.495H178.783L179.628 374.143L178.783 371.605H198.721L197.498 374.239L198.91 376.495Z" fill="#E5D6BE"/>
<path d="M188.845 371.605V376.495H178.783L179.628 374.143L178.783 371.605H188.845Z" fill="#EBE0CF"/>
<path d="M198.91 431.783H178.783L179.628 429.434L178.783 426.896H198.721L197.498 429.527L198.91 431.783Z" fill="#E5D6BE"/>
<path d="M188.845 426.896V431.783H178.783L179.628 429.434L178.783 426.896H188.845Z" fill="#EBE0CF"/>
<path d="M415.147 399.116H355.825V458.41H415.147V399.116Z" fill="#FFA412"/>
<path d="M433.436 399.116H374.114V458.41H433.436V399.116Z" fill="#FFB93E"/>
<path d="M374.114 399.116L355.825 410.2V399.116H374.114Z" fill="#F99746"/>
<path d="M385.535 433.747H362.537L363.505 431.059L362.537 428.161H385.321L383.924 431.168L385.535 433.747Z" fill="#FFD5AB"/>
<path d="M374.036 428.161V433.747H362.537L363.505 431.059L362.537 428.161H374.036Z" fill="#F99746"/>
<path d="M408.12 365.022H374.007V399.119H408.12V365.022Z" fill="#FFA412"/>
<path d="M418.639 365.022H384.526V399.119H418.639V365.022Z" fill="#FFB93E"/>
<path d="M384.526 365.022L374.007 371.396V365.022H384.526Z" fill="#F99746"/>
<path d="M424.904 372.265H398.037V399.119H424.904V372.265Z" fill="#4A75CB"/>
<path d="M433.187 372.265H406.32V399.119H433.187V372.265Z" fill="#699DEE"/>
<path d="M418.431 390.686L408.461 392.676L409.473 397.739L419.443 395.749L418.431 390.686Z" fill="#EBF2F9"/>
<path d="M411.154 379.107H401.446L401.855 377.974L401.446 376.752H411.064L410.474 378.021L411.154 379.107Z" fill="#EBF2F9"/>
<path d="M406.301 376.752V379.107H401.446L401.855 377.974L401.446 376.752H406.301Z" fill="#A6C7F9"/>
<path d="M390.266 372.398H378.795L379.276 371.06L378.795 369.611H390.157L389.462 371.113L390.266 372.398Z" fill="#FFD5AB"/>
<path d="M384.529 369.611V372.398H378.795L379.276 371.06L378.795 369.611H384.529Z" fill="#F99746"/>
<path d="M390.266 392.99H378.795L379.276 391.65L378.795 390.204H390.157L389.462 391.706L390.266 392.99Z" fill="#FFD5AB"/>
<path d="M384.529 390.204V392.99H378.795L379.276 391.65L378.795 390.204H384.529Z" fill="#F99746"/>
<path d="M453.451 411.24H406.255V458.413H453.451V411.24Z" fill="#4A75CB"/>
<path d="M468.002 411.24H420.806V458.413H468.002V411.24Z" fill="#699DEE"/>
<path d="M464.073 414.082L452.766 416.339L453.913 422.081L465.22 419.824L464.073 414.082Z" fill="#EBF2F9"/>
<path d="M427.075 418.709H414.281L414.821 417.216L414.281 415.603H426.953L426.177 417.275L427.075 418.709Z" fill="#EBF2F9"/>
<path d="M420.679 415.603V418.709H414.281L414.821 417.216L414.281 415.603H420.679Z" fill="#A6C7F9"/>
<path d="M427.075 453.845H414.281L414.821 452.353L414.281 450.739H426.953L426.177 452.412L427.075 453.845Z" fill="#EBF2F9"/>
<path d="M420.679 450.739V453.845H414.281L414.821 452.353L414.281 450.739H420.679Z" fill="#A6C7F9"/>
<path d="M339.619 468.712C336.039 468.712 333.139 471.611 333.139 475.188C333.139 478.766 336.039 481.665 339.619 481.665C343.198 481.665 346.098 478.766 346.098 475.188C346.098 471.611 343.198 468.712 339.619 468.712Z" fill="#232323"/>
<path d="M339.619 470.977C337.321 470.977 335.462 472.839 335.462 475.132C335.462 477.429 337.324 479.288 339.619 479.288C341.916 479.288 343.776 477.426 343.776 475.132C343.776 472.836 341.916 470.977 339.619 470.977Z" fill="black"/>
<path d="M470.02 468.712C466.441 468.712 463.541 471.611 463.541 475.188C463.541 478.766 466.441 481.665 470.02 481.665C473.6 481.665 476.499 478.766 476.499 475.188C476.499 471.611 473.6 468.712 470.02 468.712Z" fill="#232323"/>
<path d="M470.02 470.977C467.723 470.977 465.863 472.839 465.863 475.132C465.863 477.429 467.726 479.288 470.02 479.288C472.317 479.288 474.177 477.426 474.177 475.132C474.177 472.836 472.317 470.977 470.02 470.977Z" fill="black"/>
<path d="M483.522 458.41H350.988L298.086 313.994C297.608 312.691 296.391 311.804 295.003 311.745L277.366 311.018C275.472 310.941 273.873 312.412 273.796 314.305C273.718 316.198 275.19 317.796 277.083 317.873L292.429 318.506L343.676 458.407H332.152C330.327 458.407 328.834 459.899 328.834 461.724V465.683C328.834 467.508 330.327 469.001 332.152 469.001H483.522C485.347 469.001 486.841 467.508 486.841 465.683V461.724C486.844 459.902 485.351 458.41 483.522 458.41Z" fill="#232323"/>
<path d="M275.028 300.512C275.028 300.512 281.629 304.859 286.711 305.055C291.79 305.25 294.82 310.33 295.518 312.446C296.217 314.563 294.199 317.815 292.631 315.888C290.266 312.974 285.432 315.245 280.815 311.435C276.199 307.624 269.31 305.176 269.31 305.176L275.028 300.512Z" fill="#C9B28E"/>
<path d="M216.159 229.109C216.159 229.109 230.338 279.801 241.648 290.038C247.516 295.348 280.011 317.014 282.687 310.103C282.687 310.103 286.702 305.2 284.472 302.302C284.472 302.302 257.158 282.666 255.032 281.347C251.328 279.047 255.889 233.019 246.187 225.094C236.485 217.162 221.574 215.111 216.159 229.109Z" fill="#FFA412"/>
<path d="M273.398 481.55C273.398 481.55 272.34 481.587 270.61 481.637H243.837C243.219 481.565 242.781 481.478 242.561 481.373C240.155 480.228 241.266 469.624 241.266 469.624C241.266 469.624 251.682 460.951 253.265 467.4C254.852 473.851 263.507 476.588 268.419 477.283C273.327 477.981 273.398 481.55 273.398 481.55Z" fill="#232323"/>
<path d="M188.82 350.36C193.974 360.87 206.191 375.507 210.695 386.846C211.76 389.527 212.397 392.022 212.406 394.238C212.511 419.689 240.155 469.879 240.155 469.879C242.79 471.586 254.041 468.172 254.041 468.172C254.041 468.172 252.737 457.02 246.28 418.482C242.719 397.223 236.715 365.574 232.045 341.46C230.844 335.251 229.726 329.538 228.77 324.635C226.696 314.06 225.336 307.236 225.336 307.236L214.616 307.413L185.666 307.891C185.666 307.894 173.648 319.413 188.82 350.36Z" fill="#4A75CB"/>
<path d="M188.82 350.36C193.974 360.87 206.191 375.507 210.695 386.846C217.081 373.338 226.771 352.805 232.045 341.46C230.844 335.251 229.726 329.538 228.77 324.635C224.604 319.54 219.248 313.005 214.616 307.413L185.666 307.891C185.666 307.894 173.648 319.413 188.82 350.36Z" fill="#406ABF"/>
<path d="M153.789 481.637H139.275C137.921 480.582 136.763 478.745 136.269 476.191C135.428 471.856 130.439 469.681 129.235 466.155C128.03 462.63 133.243 457.386 133.243 457.386L134.993 454.931L144.071 456.675C144.071 456.675 144.996 462.99 144.928 467.757C144.86 472.526 146.667 477.584 150.935 478.335C154.04 478.881 154.028 480.69 153.789 481.637Z" fill="#232323"/>
<path d="M193.893 413.098C188.451 422.972 148.324 468.815 148.324 468.815C148.324 468.815 135.676 464.545 133.422 456.868C133.422 456.868 157.16 417.886 167.952 401.272C171.037 396.522 172.754 323.912 183.754 310.677C197.544 294.088 222.508 325.56 222.508 325.56C222.508 325.56 214.697 350.952 212.269 358.952C206.883 376.693 197.641 406.293 193.893 413.098Z" fill="#699DEE"/>
<path d="M271.235 304.301C271.235 304.301 277.835 308.648 282.917 308.844C287.996 309.039 291.026 314.119 291.725 316.235C292.423 318.352 290.405 321.604 288.837 319.677C286.472 316.766 281.638 319.037 277.021 315.224C272.405 311.413 265.516 308.965 265.516 308.965L271.235 304.301Z" fill="#D5BF9E"/>
<path d="M247.242 219.859C251.223 213.252 252.908 209.072 252.908 209.072L243.557 192.676C238.109 208.033 225.526 211.505 225.526 211.505C225.526 211.505 240.235 227.638 252.083 228.451C252.083 228.454 250.791 224.119 247.242 219.859Z" fill="#C9B28E"/>
<path d="M256.23 210.09C256.23 210.09 237.687 206.146 240.319 194.64C242.955 183.133 242.337 174.876 254.287 176.909C266.239 178.941 267.525 183.856 267.58 187.909C267.639 191.962 261.123 210.819 256.23 210.09Z" fill="#D5BF9E"/>
<path d="M263.308 193.326C262.983 192.993 262.99 192.458 263.323 192.133C263.656 191.807 264.19 191.815 264.516 192.148C264.842 192.482 264.834 193.015 264.501 193.341C264.168 193.667 263.634 193.66 263.308 193.326Z" fill="#263238"/>
<path d="M264.795 192.09C264.698 192.184 264.156 191.712 263.358 191.659C262.56 191.594 261.954 191.983 261.872 191.874C261.831 191.826 261.933 191.65 262.198 191.473C262.458 191.297 262.896 191.139 263.394 191.176C263.891 191.213 264.301 191.433 264.532 191.645C264.768 191.86 264.842 192.049 264.795 192.09Z" fill="#263238"/>
<path d="M255.549 192.218C255.931 192.487 256.022 193.013 255.754 193.394C255.486 193.776 254.96 193.867 254.579 193.599C254.197 193.331 254.106 192.805 254.374 192.423C254.642 192.042 255.169 191.951 255.549 192.218Z" fill="#263238"/>
<path d="M256.076 192.258C255.979 192.352 255.436 191.88 254.638 191.827C253.84 191.762 253.234 192.151 253.152 192.043C253.111 191.994 253.213 191.818 253.478 191.642C253.738 191.466 254.176 191.308 254.674 191.345C255.171 191.381 255.581 191.602 255.812 191.815C256.048 192.028 256.122 192.217 256.076 192.258Z" fill="#263238"/>
<path d="M258.873 199.045C258.872 198.984 259.372 198.917 260.182 198.856C260.392 198.847 260.563 198.81 260.587 198.695C260.634 198.567 260.566 198.338 260.476 198.083C260.304 197.544 260.128 196.995 259.945 196.421C259.215 194.054 258.718 192.108 258.834 192.072C258.95 192.036 259.635 193.925 260.365 196.291C260.537 196.869 260.702 197.421 260.863 197.963C260.925 198.21 261.052 198.5 260.925 198.834C260.857 199.001 260.688 199.114 260.548 199.142C260.409 199.175 260.291 199.168 260.191 199.166C259.378 199.148 258.875 199.106 258.873 199.045Z" fill="#263238"/>
<path d="M256.222 199.767C255.42 199.22 258.438 201.126 260.069 201.147C260.069 201.147 259.045 202.579 257.41 201.865C255.714 201.122 256.222 199.767 256.222 199.767Z" fill="white"/>
<path d="M240.142 195.434C240.142 195.434 246.212 181.02 262.992 184.912C274.485 187.577 271.473 175.919 270.794 173.995C270.794 173.995 261.865 172.319 252.632 170.845C233.253 167.754 239.105 192.53 240.142 195.434Z" fill="#232323"/>
<path d="M255.696 245.518C255.33 251.271 253.594 259.991 251.238 269.66C250.322 273.406 249.316 277.294 248.258 281.21C246.541 287.565 244.756 293.954 242.912 299.971L242.843 300.186C242.71 300.797 242.502 301.445 242.315 302.041C240.717 307.354 239.183 312.272 237.848 316.446C235.29 324.43 235.274 328.88 233.231 329.78C229.13 331.592 212.98 329.646 203.3 325.454C195.123 321.976 182.664 311.481 182.729 306.199C182.804 300.077 191.022 281.644 196.47 260.124C203.192 233.835 218.103 212.842 230.54 208.514C231.468 208.213 232.462 210.161 236.066 213.621C239.397 216.814 243.591 218.807 247.559 219.232L249.928 223.179C253.132 228.833 256.289 236.134 255.696 245.518Z" fill="#FFB93E"/>
<path d="M248.258 281.21C247.342 284.956 249.313 277.294 248.258 281.21C246.541 287.565 244.756 293.955 242.912 299.972L242.843 300.186C242.71 300.797 242.502 301.446 242.316 302.041C240.717 307.354 239.183 312.272 237.848 316.446C211.987 283.609 226.653 244.286 226.653 244.286L248.258 281.21Z" fill="#FFA412"/>
<path d="M212.033 233.233C212.033 233.233 226.212 283.926 237.522 294.163C243.389 299.472 275.885 321.138 278.561 314.227C278.561 314.227 282.575 309.321 280.346 306.423C280.346 306.423 253.032 286.787 250.906 285.468C247.202 283.168 251.763 237.14 242.061 229.215C232.359 221.289 217.445 219.235 212.033 233.233Z" fill="#FFB93E"/>
<path d="M250.384 188.26C250.384 188.26 252.47 184.812 258.031 184.254C258.031 184.254 241.682 184.598 241.002 189.619C240.322 194.64 240.142 195.434 240.142 195.434C240.142 195.434 248.779 195.788 250.384 188.26Z" fill="#232323"/>
<g opacity="0.3">
<rect x="264.043" y="71.4763" width="43.7063" height="13.9213" stroke="#CD9E64"/>
<rect x="290.121" y="85.4652" width="43.7064" height="13.9213" stroke="#CD9E64"/>
<rect x="246.346" y="85.4652" width="43.7064" height="13.9213" stroke="#CD9E64"/>
<rect x="312.475" y="99.4539" width="43.7063" height="13.9213" stroke="#CD9E64"/>
<rect opacity="0.1" x="433.554" y="15.5216" width="43.7063" height="13.9213" stroke="#CD9E64"/>
<rect opacity="0.4" x="87.0801" y="0.600342" width="43.7063" height="13.9213" stroke="#CD9E64"/>
<rect opacity="0.4" x="113.159" y="14.589" width="43.7063" height="13.9213" stroke="#CD9E64"/>
<rect x="113.159" y="127.431" width="43.7063" height="13.9213" stroke="#CD9E64"/>
<rect x="132.718" y="141.42" width="43.7063" height="13.9213" stroke="#CD9E64"/>
</g>
<rect opacity="0.2" x="493.779" y="332.703" width="43.7063" height="13.9213" stroke="#CD9E64"/>
<rect opacity="0.2" x="519.857" y="346.692" width="43.7063" height="13.9213" stroke="#CD9E64"/>
<rect opacity="0.2" x="0.5" y="252.959" width="43.7063" height="13.9213" stroke="#CD9E64"/>
</svg>
