<svg width="590" height="464" viewBox="0 0 590 464" fill="none" xmlns="http://www.w3.org/2000/svg">
<path d="M590 420.611H0V420.906H590V420.611Z" fill="#EBEBEB"/>
<path d="M530.882 439.597H491.8V439.892H530.882V439.597Z" fill="#EBEBEB"/>
<path d="M390.84 442.806H380.586V443.101H390.84V442.806Z" fill="#EBEBEB"/>
<path d="M490.62 428.646H467.976V428.941H490.62V428.646Z" fill="#EBEBEB"/>
<path d="M112.867 430.629H61.9027V430.924H112.867V430.629Z" fill="#EBEBEB"/>
<path d="M130.85 430.629H123.381V430.924H130.85V430.629Z" fill="#EBEBEB"/>
<path d="M265.677 435.608H155.135V435.903H265.677V435.608Z" fill="#EBEBEB"/>
<g opacity="0.4">
<path d="M519.213 0H325.162V172.186H519.213V0Z" fill="#FAF3EA"/>
<path d="M514.091 4.72021H330.011V167.56H514.091V4.72021Z" fill="#EBE0CF"/>
<path d="M373.223 4.72021L330.011 167.206V90.8484L352.821 4.72021H373.223Z" fill="#F8F4EE"/>
<path d="M388.516 4.72021L344.938 167.56H337.976L381.565 4.72021H388.516Z" fill="#F8F4EE"/>
<path d="M514.091 107.475V133.494L505.277 167.56H498.327L514.091 107.475Z" fill="#F8F4EE"/>
<path d="M394.227 1.7937H391.124V171.194H394.227V1.7937Z" fill="#FAF3EA"/>
<path d="M454.313 1.7937H451.209V171.194H454.313V1.7937Z" fill="#FAF3EA"/>
</g>
<path d="M163.95 324.617H56.9594V420.563H163.95V324.617Z" fill="#FCF7EF"/>
<path d="M94.2001 324.617H56.9594V420.563H94.2001V324.617Z" fill="#E0D6C7"/>
<path d="M185.237 230.641H78.2466V326.587H185.237V230.641Z" fill="#FCF7EF"/>
<path d="M115.487 230.641H78.2466V326.587H115.487V230.641Z" fill="#E0D6C7"/>
<path d="M163.95 134.979H56.9594V230.925H163.95V134.979Z" fill="#FCF7EF"/>
<path d="M94.2001 134.979H56.9594V230.925H94.2001V134.979Z" fill="#E0D6C7"/>
<path d="M280.38 324.7H173.39V420.646H280.38V324.7Z" fill="#EBEBEB"/>
<path d="M210.631 324.7H173.39V420.646H210.631V324.7Z" fill="#FCF7EF"/>
<path d="M292.228 266.573H185.237V326.67H292.228V266.573Z" fill="#F5F5F5"/>
<path d="M222.478 266.573H185.237V326.67H222.478V266.573Z" fill="#E0D6C7"/>
<path d="M246.054 171.642H176.93V267.587H246.054V171.642Z" fill="#FCF7EF"/>
<path d="M200.99 171.642H176.93V267.587H200.99V171.642Z" fill="#E0D6C7"/>
<path d="M403.942 420.731H510.933V324.785H403.942V420.731Z" fill="#F7EBDB"/>
<path d="M473.688 420.731H510.929V324.785H473.688V420.731Z" fill="#E0D6C7"/>
<path d="M382.645 326.754H489.635V248.65H382.645V326.754Z" fill="#FCF7EF"/>
<path d="M452.402 326.754H489.643V248.65H452.402V326.754Z" fill="#E0D6C7"/>
<path d="M407.751 248.65H510.93V210.418H407.751V248.65Z" fill="#F7EBDB"/>
<path d="M475.03 248.65H510.937V210.418H475.03V248.65Z" fill="#E0D6C7"/>
<path d="M375.974 139.594H343.134C340.184 139.594 337.789 137.198 337.789 134.248V104.465C337.789 101.515 340.184 99.1196 343.134 99.1196H375.974C378.924 99.1196 381.319 101.515 381.319 104.465V134.26C381.319 137.21 378.924 139.594 375.974 139.594Z" fill="#CD9E64"/>
<path d="M355.3 134.449C355.3 134.449 358.05 147.736 376.788 155.111C376.788 155.111 365.33 147.795 366.05 134.449H355.3Z" fill="#CD9E64"/>
<path d="M350.132 118.212L356.351 126.849L368.976 111.875" stroke="white" stroke-width="3" stroke-miterlimit="10" stroke-linecap="round" stroke-linejoin="round"/>
<path d="M416.884 145.682C422.654 149.836 427.87 156.904 423.976 176.74C420.082 196.564 419.091 201.284 419.091 201.284L381.342 197.036C381.342 197.036 379.572 179.489 382.581 162.981C386.475 141.659 399.986 133.552 416.884 145.682Z" fill="black"/>
<path d="M379.089 255.222C379.089 255.222 366.298 323.378 362.887 351.368C358.427 387.877 340.196 441.284 340.196 441.284L347.488 443.172C347.488 443.172 373.189 397.789 378.204 356.949C398.618 315.213 400.27 263.824 400.27 263.824L379.089 255.222Z" fill="#D4BF9E"/>
<path d="M326.626 457.816C327.806 457.273 329.081 456.954 330.367 456.86C330.367 456.86 334.851 454.217 339.288 443.974L344.279 443.951C346.014 443.974 347.536 445.072 348.114 446.7C348.197 446.924 348.244 447.16 348.256 447.396C348.208 448.6 348.079 449.803 347.866 450.995C347.418 454.736 344.952 462.748 344.952 462.748L344.102 462.536L345.636 455.078C346.143 452.541 343.488 454.995 342.249 457.544C341.01 460.093 339.122 462.665 333.6 461.403C327.193 459.892 324.608 458.972 326.626 457.816Z" fill="#263238"/>
<path d="M348.267 446.83C349.211 444.411 350.415 440.081 350.415 440.081L339.712 438.582C339.712 438.582 339.712 443.845 337.73 447.29C343.323 447.255 348.267 446.83 348.267 446.83Z" fill="#263238"/>
<path d="M392.364 254.136C392.364 254.136 393.957 323.473 396.4 351.557C399.586 388.196 392.801 444.222 392.801 444.222L400.317 444.553C400.317 444.553 416.07 394.827 412.53 353.846C423.87 308.794 414.855 258.172 414.855 258.172L392.364 254.136Z" fill="#D4BF9E"/>
<path d="M381.095 460.093C382.204 459.421 383.431 458.972 384.718 458.748C384.718 458.748 388.883 455.645 392.199 444.978L397.167 444.411C398.889 444.246 400.53 445.166 401.273 446.724C401.379 446.936 401.45 447.161 401.485 447.397C401.568 448.6 401.568 449.816 401.497 451.019C401.45 454.783 399.869 463.02 399.869 463.02L399.007 462.902L399.727 455.326C399.963 452.754 397.58 455.468 396.636 458.146C395.68 460.813 394.075 463.574 388.458 462.925C381.897 462.099 379.219 461.462 381.095 460.093Z" fill="#263238"/>
<path d="M401.426 446.83C402.099 444.317 402.831 439.892 402.831 439.892L392.034 439.561C392.034 439.561 392.6 444.8 391.007 448.435C396.553 447.798 401.426 446.83 401.426 446.83Z" fill="#263238"/>
<path d="M376.363 243.847L362.333 340.867C362.333 340.867 408.034 347.958 426.324 343.805C426.324 343.805 430.808 287.778 411.716 247.045L376.363 243.847Z" fill="black"/>
<path d="M334.131 209.556L321.93 197.496C321.93 197.496 321.505 194.263 320.325 193.366C319.145 192.469 310.767 189.425 309.74 190.097C308.714 190.77 307.286 197.543 308.726 198.782C310.153 200.021 317.776 201.602 318.555 201.473L331.759 217.143L334.131 209.556Z" fill="#D4BF9E"/>
<path d="M377.838 187.573C372.576 190.369 353.884 216.483 351.135 217.781C348.385 219.079 327.346 202.016 327.346 202.016L323.794 208.069C323.794 208.069 341.058 232.46 350.816 231.28C360.575 230.1 379.254 209.45 379.254 209.45L377.838 187.573Z" fill="#407BFF"/>
<path opacity="0.1" d="M377.838 187.573C372.576 190.369 353.884 216.483 351.135 217.781C348.385 219.079 327.346 202.016 327.346 202.016L323.794 208.069C323.794 208.069 341.058 232.46 350.816 231.28C360.575 230.1 379.254 209.45 379.254 209.45L377.838 187.573Z" fill="white"/>
<path d="M328.502 202.652L327.039 201.284L323.204 207.774L324.585 210.429L328.502 202.652Z" fill="#407BFF"/>
<path opacity="0.2" d="M371.749 217.072C376.115 212.907 379.254 209.449 379.254 209.449L378.924 204.257L377.284 199.219C377.284 199.219 369.92 206.004 371.749 217.072Z" fill="black"/>
<path d="M376.068 242.867C374.593 216.884 375.254 202.606 375.927 195.467C376.67 187.856 377.838 187.572 377.838 187.572C377.838 187.572 386.086 186.77 393.261 186.829C398.819 187.018 404.353 187.596 409.816 188.575C414.996 189.437 420.106 190.676 425.121 192.269C424.283 194.664 423.528 196.93 422.82 199.066C421.876 201.886 421.038 204.494 420.283 206.936C418.867 211.491 417.758 215.444 416.873 218.972C414.111 229.899 413.533 236.896 412.955 246.053C412.955 246.053 422.029 269.771 423.799 287.176L393.709 290.421L389.579 273.016L385.449 291.011L368.634 285.111L376.068 242.867Z" fill="#407BFF"/>
<path opacity="0.1" d="M376.068 242.867C374.593 216.884 375.254 202.606 375.927 195.467C376.67 187.856 377.838 187.572 377.838 187.572C377.838 187.572 386.086 186.77 393.261 186.829C398.819 187.018 404.353 187.596 409.816 188.575C414.996 189.437 420.106 190.676 425.121 192.269C424.283 194.664 423.528 196.93 422.82 199.066C421.876 201.886 421.038 204.494 420.283 206.936C418.867 211.491 417.758 215.444 416.873 218.972C414.111 229.899 413.533 236.896 412.955 246.053C412.955 246.053 422.029 269.771 423.799 287.176L393.709 290.421L389.579 273.016L385.449 291.011L368.634 285.111L376.068 242.867Z" fill="white"/>
<path opacity="0.2" d="M415.421 225.321C415.822 223.338 416.294 221.226 416.872 218.96C417.238 217.521 417.639 216.01 418.088 214.406C416.943 210.382 415.763 213.532 415.763 213.532C415.763 213.532 414.583 218.394 415.421 225.321Z" fill="black"/>
<path d="M393.674 188.41C394.004 188.233 394.382 188.08 394.795 187.926C395.644 187.254 396.683 185.637 396.624 181.696C396.612 180.41 396.482 178.899 396.199 177.094L407.138 175.052C407.138 175.052 403.409 182.416 406.524 187.879C407.598 188.351 408.235 189.024 408.117 189.92C407.303 196.245 393.709 202.358 393.709 202.358C393.709 202.358 387.078 192.033 393.674 188.41Z" fill="#D5BF9E"/>
<path opacity="0.2" d="M396.211 177.094C396.494 178.899 396.624 180.421 396.635 181.696C404.022 181.696 407.149 175.052 407.149 175.052L396.211 177.094Z" fill="black"/>
<path d="M402.252 146.508C392.742 145.989 389.402 150.91 388.163 160.68C386.617 172.881 388.859 181.731 400.895 179.773C417.25 177.094 418.053 147.37 402.252 146.508Z" fill="#D5BF9E"/>
<path d="M394.347 160.48C394.347 160.48 392.895 162.887 391.361 164.268C391.361 164.268 392.105 165.601 393.804 165.483L394.347 160.48Z" fill="#AA997E"/>
<path d="M400.211 160.02C400.152 160.799 400.518 161.471 401.037 161.507C401.556 161.542 402.028 160.952 402.087 160.173C402.146 159.394 401.78 158.722 401.261 158.686C400.742 158.639 400.27 159.241 400.211 160.02Z" fill="black"/>
<path d="M401.474 158.734L399.833 157.931C399.833 157.931 400.565 159.43 401.474 158.734Z" fill="black"/>
<path d="M390.524 159.099C390.465 159.877 390.83 160.55 391.35 160.585C391.869 160.621 392.341 160.031 392.4 159.252C392.459 158.473 392.093 157.801 391.574 157.765C391.054 157.718 390.583 158.32 390.524 159.099Z" fill="black"/>
<path d="M391.786 157.813L390.146 157.01C390.146 157.01 390.877 158.509 391.786 157.813Z" fill="black"/>
<path fill-rule="evenodd" clip-rule="evenodd" d="M400.671 153.459L400.641 153.055C400.418 153.071 400.251 153.266 400.267 153.489C400.284 153.712 400.478 153.879 400.701 153.862L400.701 153.862L400.704 153.862L400.722 153.861C400.739 153.86 400.765 153.859 400.799 153.858C400.868 153.857 400.97 153.856 401.098 153.861C401.353 153.871 401.707 153.902 402.1 153.987C402.892 154.159 403.794 154.54 404.391 155.361C404.523 155.541 404.776 155.581 404.957 155.45C405.138 155.318 405.178 155.065 405.046 154.884C404.286 153.84 403.165 153.389 402.272 153.196C401.822 153.098 401.419 153.063 401.128 153.052C400.982 153.046 400.863 153.047 400.78 153.049C400.738 153.05 400.705 153.051 400.681 153.052L400.654 153.054L400.645 153.054L400.643 153.055L400.642 153.055L400.641 153.055C400.641 153.055 400.641 153.055 400.671 153.459ZM400.701 153.862L400.701 153.862C400.701 153.862 400.701 153.862 400.701 153.862L400.701 153.862Z" fill="black"/>
<path fill-rule="evenodd" clip-rule="evenodd" d="M393.78 152.668C393.943 152.297 393.943 152.297 393.942 152.297L393.78 152.668ZM393.62 153.04L393.613 153.037C393.605 153.034 393.591 153.029 393.572 153.022C393.534 153.009 393.473 152.989 393.391 152.969C393.228 152.928 392.984 152.883 392.675 152.875C392.061 152.859 391.178 152.987 390.151 153.595C389.959 153.709 389.711 153.645 389.597 153.452C389.483 153.26 389.547 153.012 389.739 152.898C390.907 152.207 391.942 152.046 392.696 152.066C393.072 152.075 393.375 152.13 393.588 152.183C393.695 152.21 393.779 152.237 393.839 152.257C393.869 152.268 393.893 152.277 393.91 152.284L393.931 152.292L393.938 152.295L393.941 152.297L393.942 152.297L393.942 152.297" fill="black"/>
<path d="M411.775 163.099C411.775 163.099 407.751 155.04 408.766 149.046C408.766 149.046 390.346 140.314 388.364 159.394C388.364 159.394 387.455 142.308 403.822 142.827C420.165 143.346 418.808 167.265 409.981 173.92C409.97 173.92 414.253 168.138 411.775 163.099Z" fill="black"/>
<path d="M410.111 165.023C410.265 163.5 411.976 160.987 414.808 161.459C417.734 161.943 418.808 168.067 411.398 169.117C410.336 169.271 409.805 168.209 410.111 165.023Z" fill="#D5BF9E"/>
<path fill-rule="evenodd" clip-rule="evenodd" d="M400.943 167.412C401.096 167.25 401.352 167.242 401.515 167.395C401.678 167.548 401.686 167.804 401.533 167.967L401.238 167.69C401.533 167.967 401.533 167.967 401.533 167.967L401.532 167.968L401.53 167.971L401.523 167.977L401.5 168.001C401.481 168.02 401.453 168.048 401.417 168.083C401.344 168.153 401.239 168.25 401.102 168.365C400.83 168.596 400.433 168.9 399.93 169.2C398.927 169.798 397.483 170.388 395.757 170.313C395.534 170.303 395.36 170.114 395.37 169.891C395.38 169.667 395.569 169.494 395.792 169.504C397.311 169.57 398.599 169.051 399.516 168.504C399.973 168.232 400.334 167.955 400.579 167.747C400.701 167.644 400.795 167.558 400.856 167.499C400.887 167.469 400.91 167.446 400.924 167.432L400.94 167.416L400.943 167.412Z" fill="black"/>
<path fill-rule="evenodd" clip-rule="evenodd" d="M408.856 148.654C408.856 148.654 408.856 148.654 408.755 149.043L408.856 148.654C409.073 148.71 409.203 148.931 409.146 149.147C409.09 149.364 408.869 149.494 408.653 149.437L408.754 149.046L408.653 149.438L408.653 149.437L408.652 149.437L408.65 149.437L408.641 149.434L408.599 149.424C408.562 149.415 408.506 149.402 408.433 149.385C408.286 149.352 408.069 149.305 407.791 149.251C407.235 149.145 406.437 149.013 405.473 148.914C403.542 148.717 400.961 148.654 398.336 149.18C395.713 149.706 393.064 150.817 390.968 152.953C388.876 155.086 387.3 158.273 386.879 163.017C386.86 163.24 386.663 163.404 386.44 163.385C386.218 163.365 386.053 163.168 386.073 162.946C386.507 158.049 388.145 154.674 390.39 152.386C392.631 150.102 395.445 148.934 398.177 148.386C400.908 147.839 403.576 147.907 405.555 148.109C406.546 148.21 407.368 148.346 407.944 148.456C408.231 148.511 408.458 148.56 408.613 148.596C408.691 148.613 408.751 148.628 408.792 148.638L408.839 148.649L408.851 148.652L408.855 148.653L408.856 148.654Z" fill="black"/>
<path d="M390.417 193.095C390.417 193.095 388.848 208.718 391.408 222.937C391.408 222.937 397.473 200.977 405.993 193.508L396.199 194.912L390.417 193.095Z" fill="#407BFF"/>
<path opacity="0.5" d="M390.417 193.095C390.417 193.095 388.848 208.718 391.408 222.937C391.408 222.937 397.473 200.977 405.993 193.508L396.199 194.912L390.417 193.095Z" fill="white"/>
<path d="M406.146 186.144L396.211 193.496V185.672C396.211 185.672 388.175 188.587 388.741 197.461L395.337 194.428V197.461L396.883 194.546L402.099 200.493C402.099 200.493 408.483 193.047 409.155 190.805C409.816 188.563 406.146 186.144 406.146 186.144Z" fill="#407BFF"/>
<path opacity="0.7" d="M406.146 186.144L396.211 193.496V185.672C396.211 185.672 388.175 188.587 388.741 197.461L395.337 194.428V197.461L396.883 194.546L402.099 200.493C402.099 200.493 408.483 193.047 409.155 190.805C409.816 188.563 406.146 186.144 406.146 186.144Z" fill="white"/>
<path d="M416.53 255.08L407.397 211.503C407.197 210.559 406.371 209.886 405.415 209.886H377.26C376.387 209.886 375.714 210.677 375.868 211.538L383.479 254.219C383.644 255.163 384.458 255.859 385.414 255.894L415.114 256.767C416.023 256.803 416.719 255.965 416.53 255.08Z" fill="#FFA412"/>
<path d="M428.672 240.967L414.158 231.822C414.158 231.822 413.049 228.754 411.704 228.129C410.359 227.504 401.521 226.335 400.671 227.22C399.821 228.105 399.88 235.02 401.544 235.917C403.208 236.814 410.984 236.731 411.716 236.424L427.988 248.885L428.672 240.967Z" fill="#D4BF9E"/>
<path d="M425.121 192.269C425.121 192.269 415.634 206.051 417.014 217.851L429.605 238.702L421.144 234.371L417.309 241.605C417.309 241.605 427.044 256.603 439.434 253.063C451.824 249.523 425.121 192.269 425.121 192.269Z" fill="#407BFF"/>
<path opacity="0.1" d="M425.121 192.269C425.121 192.269 415.634 206.051 417.014 217.851L429.605 238.702L421.144 234.371L417.309 241.605C417.309 241.605 427.044 256.603 439.434 253.063C451.824 249.523 425.121 192.269 425.121 192.269Z" fill="white"/>
<path d="M422.029 233.97L417.215 242.926L416.129 240.366L419.964 233.085L422.029 233.97Z" fill="#407BFF"/>
<path d="M404.494 209.886C403.385 209.886 403.385 238.914 403.385 238.914L378.015 238.182C378.015 238.182 375.159 213.638 378.015 209.886H404.494Z" fill="white"/>
<path opacity="0.1" d="M404.494 209.886C403.385 209.886 403.385 238.914 403.385 238.914L378.015 238.182C378.015 238.182 375.159 213.638 378.015 209.886H404.494Z" fill="black"/>
<path d="M299.675 186.888L323.664 196.977C324.219 197.213 324.467 197.839 324.231 198.393C323.995 198.924 323.381 199.172 322.838 198.948L298.695 188.717C298.613 188.682 298.542 188.646 298.483 188.587L295.663 186.499L299.356 186.817C299.462 186.817 299.569 186.841 299.675 186.888Z" fill="#263238"/>
<path d="M220.084 236.613L196.744 238.69L187.398 233.415C187.398 233.415 157.426 216.718 149.626 211.444C147.254 209.827 145.06 206.311 143.16 202.181C141.555 198.712 140.163 194.818 139.053 191.289C138.522 189.626 138.05 188.033 137.649 186.617C136.752 183.466 136.198 181.106 136.044 180.469V180.457C136.033 180.374 136.021 180.327 136.009 180.304V180.292L136.068 180.268L143.455 177.92L149.626 175.961C149.626 175.961 149.909 177.424 150.393 179.655C150.523 180.256 150.665 180.917 150.818 181.625C150.948 182.192 151.078 182.793 151.219 183.419C152.777 190.286 155.172 199.656 156.907 201.19C159.703 203.656 194.867 227.622 196.118 228.247C197.357 228.872 208.567 228.247 208.567 228.247L220.084 236.613Z" fill="#D4BF9E"/>
<path d="M135.903 147.181C146.629 147.028 153.473 180.292 153.473 180.292L139.325 187.396C139.325 187.396 132.941 177.271 133.26 164.48C133.567 151.689 135.903 147.181 135.903 147.181Z" fill="#407BFF"/>
<path d="M135.903 147.181C146.629 147.028 153.473 180.292 153.473 180.292L139.325 187.396C139.325 187.396 132.941 177.271 133.26 164.48C133.567 151.689 135.903 147.181 135.903 147.181Z" fill="#FFA412"/>
<path d="M155.043 180.941L151.219 183.419L146.228 186.652L139.054 191.289L137.767 192.127L136.21 187.395L137.649 186.617L138.593 186.097L145.154 182.522L150.393 179.655L153.013 178.227L153.473 177.979L155.043 180.941Z" fill="#FFB93E"/>
<path opacity="0.2" d="M146.865 192.128C146.948 196.152 145.343 199.503 143.16 202.181C141.555 198.712 140.163 194.818 139.053 191.29L137.767 192.128L136.21 187.396L137.649 186.617C136.752 183.467 136.198 181.107 136.044 180.469V180.458L136.056 180.422L136.068 180.269L137.767 167.289C137.767 167.289 140.882 171.761 143.455 177.921C144.068 179.372 144.647 180.918 145.154 182.523C145.331 183.077 145.496 183.644 145.65 184.222C145.874 185.024 146.063 185.838 146.228 186.653C146.594 188.458 146.83 190.299 146.865 192.128Z" fill="black"/>
<path d="M134.298 452.424L144.175 453.462L146.027 432.175L136.151 431.125L134.298 452.424Z" fill="#D4BF9E"/>
<path d="M85.0331 451.704H94.5911L95.3817 429.544H85.8119L85.0331 451.704Z" fill="#D4BF9E"/>
<path d="M95.9244 450.594H84.3014C83.912 450.594 83.5698 450.866 83.4872 451.255L81.5992 459.775C81.434 460.542 81.9296 461.285 82.6848 461.45C82.791 461.474 82.8854 461.486 82.9916 461.486C86.7558 461.427 89.4934 461.191 94.2134 461.191C97.128 461.191 105.895 461.497 109.919 461.497C113.943 461.497 114.462 457.533 112.81 457.167C105.435 455.562 99.8892 453.332 97.5292 451.22C97.0926 450.807 96.5144 450.582 95.9244 450.594Z" fill="#263238"/>
<path d="M96.5735 451.916C96.4791 451.892 96.4201 451.81 96.4083 451.715C96.3965 451.621 96.4319 451.538 96.5145 451.491C96.8567 451.267 99.9483 449.379 101.01 449.922C101.258 450.04 101.412 450.288 101.4 450.559C101.459 451.019 101.282 451.479 100.928 451.774C100.385 452.14 99.7359 452.317 99.0869 452.258C98.2373 452.246 97.3995 452.128 96.5735 451.916ZM97.2343 451.609C98.3553 451.987 99.5707 451.928 100.645 451.444C100.869 451.243 100.987 450.937 100.951 450.63C100.94 450.453 100.869 450.358 100.81 450.358C100.715 450.311 100.621 450.288 100.515 450.299C99.3465 450.512 98.2373 450.96 97.2343 451.609Z" fill="#407BFF"/>
<path d="M96.5146 451.975C96.4438 451.928 96.4084 451.857 96.4084 451.763C96.4202 451.633 96.6562 448.884 97.7536 447.975C98.0132 447.739 98.3672 447.633 98.7094 447.68C99.0634 447.68 99.3702 447.928 99.441 448.282C99.6298 449.297 97.73 451.397 96.7388 451.928H96.6326C96.609 451.963 96.5618 451.975 96.5146 451.975ZM98.0486 448.246C97.376 449.108 96.9866 450.146 96.9158 451.244C97.907 450.5 99.1224 448.907 98.9926 448.282C98.9808 448.223 98.9572 448.046 98.6622 448.046H98.556C98.379 448.058 98.1902 448.117 98.0486 448.246Z" fill="#646766"/>
<path d="M145.213 450.288H133.59C133.201 450.288 132.858 450.559 132.776 450.949L130.888 459.468C130.723 460.235 131.218 460.979 131.973 461.144C132.08 461.168 132.174 461.179 132.28 461.179C136.044 461.12 138.782 460.884 143.502 460.884C146.417 460.884 155.184 461.191 159.208 461.191C163.232 461.191 163.751 457.226 162.099 456.861C154.724 455.256 149.178 453.026 146.818 450.913C146.381 450.5 145.803 450.276 145.213 450.288Z" fill="#263238"/>
<path d="M145.874 451.622C145.78 451.598 145.721 451.515 145.709 451.433C145.697 451.338 145.732 451.256 145.815 451.209C146.157 450.984 149.249 449.096 150.311 449.639C150.559 449.757 150.712 450.005 150.7 450.276C150.759 450.737 150.582 451.197 150.228 451.492C149.685 451.858 149.036 452.035 148.387 451.976C147.538 451.952 146.688 451.822 145.874 451.622ZM146.523 451.303C147.644 451.681 148.859 451.622 149.933 451.138C150.157 450.937 150.275 450.63 150.24 450.324C150.228 450.147 150.157 450.052 150.098 450.052C150.004 450.005 149.91 449.981 149.803 449.993C148.635 450.217 147.526 450.654 146.523 451.303Z" fill="#407BFF"/>
<path d="M145.815 451.668C145.744 451.621 145.709 451.55 145.709 451.456C145.721 451.326 145.957 448.577 147.054 447.668C147.314 447.432 147.668 447.326 148.01 447.373C148.364 447.373 148.671 447.621 148.742 447.975C148.942 448.99 147.031 451.09 146.039 451.621H145.933C145.898 451.657 145.851 451.668 145.815 451.668ZM147.349 447.94C146.677 448.801 146.287 449.839 146.216 450.937C147.208 450.193 148.423 448.6 148.293 447.975C148.281 447.916 148.258 447.739 147.963 447.739H147.857C147.668 447.751 147.491 447.822 147.349 447.94Z" fill="#646766"/>
<path opacity="0.2" d="M136.151 431.125L146.027 432.175L145.06 443.149L135.183 442.111L136.151 431.125Z" fill="black"/>
<path opacity="0.2" d="M85.8118 429.555H95.3816L94.9686 440.978H85.3988L85.8118 429.555Z" fill="black"/>
<path d="M89.7531 235.139H140.54C145.367 261.5 160.482 354.802 149.638 437.945L132.446 435.809C132.446 435.809 134.039 325.444 118.864 284.651C117.117 306.481 115.041 329.716 113.247 342.082C108.834 372.514 99.3701 439.007 99.3701 439.007H81.8707C81.8707 439.007 85.4461 375.358 87.1099 345.457C88.9035 312.983 89.6941 241.806 89.7531 235.139Z" fill="#4A75CB"/>
<path opacity="0.2" d="M118.864 284.651C121.106 290.669 122.97 298.174 124.54 306.623C125.956 287.188 120.28 266.585 120.28 266.585L118.864 284.651Z" fill="black"/>
<path d="M151.609 441.945L130.322 438.783L130.982 432.883L153.107 435.797L151.609 441.945Z" fill="#407BFF"/>
<path opacity="0.6" d="M151.609 441.945L130.322 438.783L130.982 432.883L153.107 435.797L151.609 441.945Z" fill="white"/>
<path d="M101.47 439.137H80.8323V432.977L102.249 432.576L101.47 439.137Z" fill="#407BFF"/>
<path opacity="0.6" d="M101.47 439.137H80.8323V432.977L102.249 432.576L101.47 439.137Z" fill="white"/>
<path d="M89.6588 243.965L89.6116 236.614L141.366 233.416L141.732 240.531L89.6588 243.965Z" fill="#263238"/>
<path d="M102.757 234.737H100.42V245.51H102.757V234.737Z" fill="#5C7BC0"/>
<path d="M138.533 231.14L136.203 231.31L136.987 242.054L139.317 241.884L138.533 231.14Z" fill="#407BFF"/>
<path d="M141.366 233.415L89.6115 237.274C89.6705 232.743 89.4935 227.692 89.1513 222.359C88.5141 212.506 87.2987 201.72 85.9417 191.608C83.0625 170.12 79.5343 151.677 79.5343 151.677C103.606 145.6 135.903 147.181 135.903 147.181C144.293 178.581 141.366 233.415 141.366 233.415Z" fill="#407BFF"/>
<path d="M141.366 233.415L89.6115 237.274C89.6705 232.743 89.4935 227.692 89.1513 222.359C88.5141 212.506 87.2987 201.72 85.9417 191.608C83.0625 170.12 79.5343 151.677 79.5343 151.677C103.606 145.6 135.903 147.181 135.903 147.181C144.293 178.581 141.366 233.415 141.366 233.415Z" fill="#FFB93E"/>
<path d="M97.9071 148.42C102.568 152.656 113.991 151.087 113.991 151.087C113.991 151.087 121.118 149.14 119.619 146.91C115.418 146.214 113.389 144.255 112.551 141.753C112.067 140.29 111.996 138.65 112.126 136.962C112.185 136.077 112.315 135.169 112.48 134.284L98.3673 123.829C100.208 130.72 102.474 143.417 97.9071 148.42Z" fill="#D5BF9E"/>
<path opacity="0.2" d="M101.624 130.472C102.179 138.945 109.14 141.281 112.551 141.753C112.067 140.29 111.996 138.65 112.126 136.962L101.624 130.472Z" fill="black"/>
<path d="M125.979 103.698C129.413 106.955 127.985 116.879 120.988 121.953C113.99 127.027 113.99 102.483 113.99 102.483C113.99 102.483 123.796 101.621 125.979 103.698Z" fill="black"/>
<path d="M100.668 132.431C104.067 137.316 109.601 138.59 114.403 137.068C117.495 136.089 120.28 133.953 122.014 130.873C122.25 130.472 122.451 130.047 122.652 129.611C126.097 121.551 127.195 107.462 118.675 102.176C112.622 98.3641 104.621 100.181 100.81 106.235C99.7124 107.946 99.0516 109.905 98.8628 111.946C97.8126 121.362 96.7506 126.849 100.668 132.431Z" fill="#D5BF9E"/>
<path d="M112.586 116.973C112.409 117.716 112.751 118.413 113.259 118.495C113.766 118.578 114.262 118.023 114.392 117.268C114.521 116.513 114.215 115.828 113.719 115.746C113.235 115.663 112.728 116.206 112.586 116.973Z" fill="black"/>
<path d="M121.188 118.448C121.011 119.191 121.365 119.888 121.861 119.97C122.357 120.053 122.864 119.498 122.994 118.743C123.124 117.988 122.817 117.303 122.321 117.221C121.837 117.138 121.318 117.728 121.188 118.448Z" fill="black"/>
<path d="M118.392 118.353C118.899 120.831 119.749 123.238 120.917 125.48C119.725 126.059 118.345 126.082 117.141 125.539L118.392 118.353Z" fill="#AA997E"/>
<path d="M110.391 113.74C110.557 113.787 110.734 113.752 110.852 113.645C111.678 112.843 112.822 112.465 113.967 112.642C114.203 112.701 114.451 112.56 114.51 112.312C114.569 112.076 114.427 111.828 114.179 111.769C112.74 111.51 111.276 111.97 110.238 112.985C110.049 113.15 110.037 113.433 110.203 113.622C110.203 113.622 110.203 113.622 110.214 113.634C110.262 113.669 110.332 113.704 110.391 113.74Z" fill="black"/>
<path d="M115.229 129.268C112.964 129.221 110.863 128.077 109.589 126.2C109.518 126.082 109.565 125.941 109.672 125.87C109.778 125.799 109.919 125.835 109.99 125.941L110.002 125.953C111.206 127.664 113.153 128.714 115.253 128.773C115.383 128.773 115.489 128.879 115.489 128.997C115.489 129.009 115.489 129.009 115.489 129.021C115.489 129.15 115.383 129.257 115.265 129.257C115.253 129.268 115.241 129.268 115.229 129.268Z" fill="black"/>
<path d="M125.389 116.111C125.472 116.158 125.554 116.182 125.649 116.17C125.885 116.099 126.026 115.852 125.967 115.616V115.604C125.59 114.188 124.551 113.055 123.183 112.548C122.947 112.477 122.699 112.607 122.616 112.843C122.545 113.079 122.687 113.326 122.923 113.409C123.997 113.834 124.799 114.754 125.094 115.863C125.141 115.993 125.259 116.076 125.389 116.111Z" fill="black"/>
<path d="M107.701 101.456V105.668C106.25 106.223 105.247 107.662 105.671 109.373C106.58 113.02 103.949 118.188 101.01 120.017C101.01 120.017 101.117 118.495 99.795 118.695C98.4734 118.896 97.8716 126.814 99.9012 130.861C99.9012 130.861 96.55 127.003 95.4408 118.483C94.4142 110.601 94.9452 104.205 96.8686 101.444H107.701V101.456Z" fill="black"/>
<path d="M93.4702 118.908C94.1428 121.197 95.7004 123.132 97.8008 124.277C100.586 125.775 102.662 123.439 102.474 120.454C102.285 117.799 100.633 113.728 97.5412 113.503C94.4614 113.256 92.6678 116.088 93.4702 118.908Z" fill="#D5BF9E"/>
<path d="M95.0042 108.571C95.0042 108.571 92.0896 101.574 99.6888 96.4408C107.276 91.3078 125.436 97.2904 126.711 101.456C127.962 105.633 114.321 113.232 95.0042 108.571Z" fill="black"/>
<path d="M99.6887 144.066L111.241 150.379L112.822 141.753L120.917 147.016V158.037L112.35 152.928L106.332 161.955L94.4495 148.904L99.6887 144.066Z" fill="#407BFF"/>
<path d="M126.404 242.608L117.318 243.115C116.563 243.162 115.914 242.572 115.867 241.817L115.524 235.669C115.477 234.914 116.067 234.265 116.822 234.23L125.908 233.722C126.664 233.675 127.313 234.265 127.36 235.02L127.702 241.168C127.737 241.923 127.159 242.572 126.404 242.608Z" fill="#5C7BC0"/>
<path d="M99.6887 144.066L111.241 150.379L112.822 141.753L120.917 147.016V158.037L112.35 152.928L106.332 161.955L94.4495 148.904L99.6887 144.066Z" fill="#FFA412"/>
<path opacity="0.2" d="M107.701 220.07C104.267 225.238 93.2813 225.203 89.1513 222.359C88.5141 212.506 87.2987 201.721 85.9417 191.608L107.701 220.07Z" fill="black"/>
<path d="M89.6117 180.292C89.6117 180.292 92.0543 196.187 94.4497 199.302C96.8451 202.417 146.322 229.486 146.322 229.486L163.444 228.247L171.327 237.274C171.327 237.274 148.517 240.814 146.027 240.13C143.538 239.446 141.638 238.419 141.638 238.419C141.638 238.419 89.7061 217.97 85.3519 213.309C80.9977 208.636 76.0181 184.646 76.0181 184.646L89.6117 180.292Z" fill="#D4BF9E"/>
<path d="M79.5344 151.677C88.5968 149.789 93.2696 187.396 93.2696 187.396L74.7318 192.128C74.7436 192.128 68.3834 154.002 79.5344 151.677Z" fill="#407BFF"/>
<path d="M79.5344 151.677C88.5968 149.789 93.2696 187.396 93.2696 187.396L74.7318 192.128C74.7436 192.128 68.3834 154.002 79.5344 151.677Z" fill="#FFA412"/>
<path d="M73.6581 191.207L94.4497 186.228V189.815L74.5903 195.573L73.6581 191.207Z" fill="#FFB93E"/>
<path fill-rule="evenodd" clip-rule="evenodd" d="M129.967 234.976C130.577 233.807 131.787 233.073 133.106 233.073H233.524C234.681 233.073 235.765 233.638 236.427 234.586L242.082 242.685C246.494 249.024 248.864 256.562 248.864 264.284V424.504C248.864 426.46 247.28 428.044 245.324 428.044C243.369 428.044 241.784 426.46 241.784 424.504V264.284C241.784 258.011 239.859 251.885 236.271 246.731C236.271 246.73 236.272 246.731 236.271 246.731L231.679 240.153H139.896L141.664 242.685C146.076 249.024 148.446 256.562 148.446 264.284V426.074C148.446 428.029 146.862 429.614 144.906 429.614C142.951 429.614 141.366 428.029 141.366 426.074V264.284C141.366 258.012 139.442 251.886 135.855 246.732C135.854 246.732 135.854 246.731 135.853 246.73L130.204 238.64C129.449 237.558 129.358 236.146 129.967 234.976Z" fill="black"/>
<path d="M358.262 461.486C364.003 461.486 368.658 456.832 368.658 451.09C368.658 445.349 364.003 440.695 358.262 440.695C352.52 440.695 347.866 445.349 347.866 451.09C347.866 456.832 352.52 461.486 358.262 461.486Z" fill="#646766"/>
<path opacity="0.4" d="M363.466 451.091C363.466 448.224 361.141 445.899 358.274 445.899C355.406 445.899 353.082 448.224 353.082 451.091C353.082 453.958 355.406 456.283 358.274 456.283C361.141 456.295 363.466 453.97 363.466 451.091Z" fill="#F0E7D8"/>
<path d="M357.011 453.415C355.347 453.415 353.872 452.376 353.294 450.819L347.158 434.039H360.952V449.462C360.964 451.645 359.194 453.415 357.011 453.415Z" fill="#263238"/>
<path opacity="0.2" d="M357.011 454.595C355.347 454.595 353.872 453.556 353.294 451.999L347.158 435.219H360.952V450.642C360.964 452.825 359.194 454.595 357.011 454.595Z" fill="#C1B7AA"/>
<path d="M242.622 461.486C248.364 461.486 253.018 456.832 253.018 451.09C253.018 445.349 248.364 440.695 242.622 440.695C236.881 440.695 232.226 445.349 232.226 451.09C232.226 456.832 236.881 461.486 242.622 461.486Z" fill="#646766"/>
<path opacity="0.4" d="M247.826 451.091C247.826 448.224 245.502 445.899 242.634 445.899C239.767 445.899 237.442 448.224 237.442 451.091C237.442 453.958 239.767 456.283 242.634 456.283C245.502 456.295 247.826 453.97 247.826 451.091Z" fill="#F0E7D8"/>
<path d="M241.371 453.415C239.707 453.415 238.232 452.376 237.654 450.819L231.518 434.039H245.312V449.462C245.324 451.645 243.554 453.415 241.371 453.415Z" fill="#263238"/>
<path opacity="0.2" d="M241.371 454.595C239.708 454.595 238.233 453.556 237.654 451.999L231.518 435.219H245.313V450.642C245.324 452.825 243.554 454.595 241.371 454.595Z" fill="#C1B7AA"/>
<path d="M376.139 421.932V431.75C376.139 433.579 374.652 435.066 372.823 435.066H140.446C138.617 435.066 137.13 433.579 137.13 431.75V421.932H376.139Z" fill="#BBAD9C"/>
<path opacity="0.2" d="M293.539 421.932V431.75C293.539 433.579 292.052 435.066 290.223 435.066H140.446C138.617 435.066 137.13 433.579 137.13 431.75V421.932H293.539Z" fill="#F8F4EE"/>
<path d="M274.482 461.486C280.223 461.486 284.878 456.832 284.878 451.09C284.878 445.349 280.223 440.695 274.482 440.695C268.741 440.695 264.086 445.349 264.086 451.09C264.086 456.832 268.741 461.486 274.482 461.486Z" fill="#646766"/>
<path opacity="0.6" d="M279.685 451.091C279.685 448.224 277.361 445.899 274.493 445.899C271.626 445.899 269.301 448.224 269.301 451.091C269.301 453.958 271.626 456.283 274.493 456.283C277.361 456.295 279.685 453.97 279.685 451.091Z" fill="#F0E7D8"/>
<path d="M273.232 453.415C271.568 453.415 270.093 452.376 269.515 450.819L263.379 434.039H277.173V449.462C277.185 451.645 275.415 453.415 273.232 453.415Z" fill="#263238"/>
<path opacity="0.4" d="M273.231 454.595C271.567 454.595 270.092 453.556 269.514 451.999L263.378 435.219H277.172V450.642C277.184 452.825 275.414 454.595 273.231 454.595Z" fill="#C1B7AA"/>
<path d="M158.842 461.486C164.584 461.486 169.238 456.832 169.238 451.09C169.238 445.349 164.584 440.695 158.842 440.695C153.101 440.695 148.446 445.349 148.446 451.09C148.446 456.832 153.101 461.486 158.842 461.486Z" fill="#646766"/>
<path opacity="0.6" d="M164.046 451.091C164.046 448.224 161.721 445.899 158.854 445.899C155.986 445.899 153.662 448.224 153.662 451.091C153.662 453.958 155.986 456.283 158.854 456.283C161.721 456.295 164.046 453.97 164.046 451.091Z" fill="#F0E7D8"/>
<path d="M157.591 453.415C155.927 453.415 154.452 452.376 153.874 450.819L147.738 434.039H161.532V449.462C161.544 451.645 159.774 453.415 157.591 453.415Z" fill="#263238"/>
<path opacity="0.4" d="M157.591 454.595C155.927 454.595 154.452 453.556 153.874 451.999L147.738 435.219H161.532V450.642C161.544 452.825 159.774 454.595 157.591 454.595Z" fill="#C1B7AA"/>
<path d="M275.945 345.764H165.91V421.933H275.945V345.764Z" fill="#BBAD9C"/>
<path opacity="0.2" d="M216.969 345.764H165.91V421.933H216.969V345.764Z" fill="white"/>
<path opacity="0.2" d="M212.143 416.728H205.759C205.157 416.728 204.674 416.245 204.674 415.643V406.934C204.674 406.333 205.157 405.849 205.759 405.849H212.143C212.745 405.849 213.229 406.333 213.229 406.934V415.643C213.24 416.233 212.745 416.728 212.143 416.728Z" fill="black"/>
<path opacity="0.2" d="M200.626 416.728H194.242C193.641 416.728 193.157 416.245 193.157 415.643V406.934C193.157 406.333 193.641 405.849 194.242 405.849H200.626C201.228 405.849 201.712 406.333 201.712 406.934V415.643C201.724 416.233 201.228 416.728 200.626 416.728Z" fill="black"/>
<path opacity="0.4" d="M252.286 345.763H246.068V353.705H252.286V345.763Z" fill="black"/>
<path opacity="0.2" d="M269.29 378.284H226.456V388.243H269.29V378.284Z" fill="black"/>
<path opacity="0.2" d="M183.882 349.74H169.238V364.384H183.882V349.74Z" fill="black"/>
<path d="M287.179 269.594H177.144V345.763H287.179V269.594Z" fill="#8F7A61"/>
<path opacity="0.2" d="M228.203 269.594H177.144V345.763H228.203V269.594Z" fill="white"/>
<path opacity="0.2" d="M223.377 340.547H216.993C216.391 340.547 215.907 340.064 215.907 339.462V330.753C215.907 330.152 216.391 329.668 216.993 329.668H223.377C223.978 329.668 224.462 330.152 224.462 330.753V339.462C224.474 340.064 223.978 340.547 223.377 340.547Z" fill="black"/>
<path opacity="0.2" d="M211.872 340.547H205.488C204.886 340.547 204.402 340.064 204.402 339.462V330.753C204.402 330.152 204.886 329.668 205.488 329.668H211.872C212.474 329.668 212.957 330.152 212.957 330.753V339.462C212.957 340.064 212.474 340.547 211.872 340.547Z" fill="black"/>
<path opacity="0.4" d="M263.52 269.594H257.302V277.535H263.52V269.594Z" fill="black"/>
<path opacity="0.2" d="M280.524 302.114H237.69V312.073H280.524V302.114Z" fill="black"/>
<path opacity="0.2" d="M195.127 273.57H180.484V288.214H195.127V273.57Z" fill="black"/>
<path d="M354.533 269.594H244.498V345.763H354.533V269.594Z" fill="#E9DCC8"/>
<path d="M295.557 269.594H244.498V345.763H295.557V269.594Z" fill="#F8F4EE"/>
<path opacity="0.2" d="M290.742 340.547H284.358C283.757 340.547 283.273 340.064 283.273 339.462V330.753C283.273 330.152 283.757 329.668 284.358 329.668H290.742C291.344 329.668 291.828 330.152 291.828 330.753V339.462C291.828 340.064 291.344 340.547 290.742 340.547Z" fill="#BBAD9C"/>
<path opacity="0.2" d="M279.225 340.547H272.842C272.24 340.547 271.756 340.064 271.756 339.462V330.753C271.756 330.152 272.24 329.668 272.842 329.668H279.225C279.827 329.668 280.311 330.152 280.311 330.753V339.462C280.311 340.064 279.827 340.547 279.225 340.547Z" fill="#BBAD9C"/>
<path opacity="0.4" d="M330.874 269.594H324.655V277.535H330.874V269.594Z" fill="#BBAD9C"/>
<path opacity="0.2" d="M347.878 302.114H305.044V312.073H347.878V302.114Z" fill="#BBAD9C"/>
<path opacity="0.2" d="M262.481 273.57H247.838V288.214H262.481V273.57Z" fill="#BBAD9C"/>
<path d="M316.478 193.425H206.443V269.594H316.478V193.425Z" fill="#E5D6BE"/>
<path opacity="0.2" d="M257.502 193.425H206.443V269.594H257.502V193.425Z" fill="#F8F4EE"/>
<path opacity="0.2" d="M252.676 264.379H246.292C245.69 264.379 245.206 263.895 245.206 263.293V254.585C245.206 253.983 245.69 253.499 246.292 253.499H252.676C253.277 253.499 253.761 253.983 253.761 254.585V263.293C253.773 263.895 253.277 264.379 252.676 264.379Z" fill="#BBAD9C"/>
<path opacity="0.2" d="M241.171 264.379H234.787C234.185 264.379 233.701 263.895 233.701 263.293V254.585C233.701 253.983 234.185 253.499 234.787 253.499H241.171C241.772 253.499 242.256 253.983 242.256 254.585V263.293C242.256 263.895 241.772 264.379 241.171 264.379Z" fill="#BBAD9C"/>
<path opacity="0.4" d="M292.819 193.425H286.6V201.366H292.819V193.425Z" fill="#BBAD9C"/>
<path opacity="0.2" d="M309.823 225.946H266.989V235.905H309.823V225.946Z" fill="#BBAD9C"/>
<path opacity="0.2" d="M224.415 197.402H209.771V212.045H224.415V197.402Z" fill="#BBAD9C"/>
<path d="M345.966 345.764H235.931V421.933H345.966V345.764Z" fill="#CD9E64"/>
<path opacity="0.2" d="M286.99 345.764H235.931V421.933H286.99V345.764Z" fill="white"/>
<path opacity="0.2" d="M282.164 416.728H275.78C275.178 416.728 274.695 416.245 274.695 415.643V406.934C274.695 406.333 275.178 405.849 275.78 405.849H282.164C282.766 405.849 283.25 406.333 283.25 406.934V415.643C283.261 416.233 282.766 416.728 282.164 416.728Z" fill="black"/>
<path opacity="0.2" d="M270.647 416.728H264.263C263.662 416.728 263.178 416.245 263.178 415.643V406.934C263.178 406.333 263.662 405.849 264.263 405.849H270.647C271.249 405.849 271.733 406.333 271.733 406.934V415.643C271.745 416.233 271.249 416.728 270.647 416.728Z" fill="black"/>
<path opacity="0.4" d="M322.307 345.763H316.089V353.705H322.307V345.763Z" fill="black"/>
<path opacity="0.2" d="M339.311 378.284H296.477V388.243H339.311V378.284Z" fill="black"/>
<path opacity="0.2" d="M253.903 349.74H239.259V364.384H253.903V349.74Z" fill="black"/>
</svg>
