<svg width="696" height="686" viewBox="0 0 696 686" fill="none" xmlns="http://www.w3.org/2000/svg">
<g filter="url(#filter0_d)">
<path d="M315.473 48.5269C333.437 30.5628 362.563 30.5628 380.527 48.5269L633.473 301.473C651.437 319.437 651.437 348.563 633.473 366.527L380.527 619.473C362.563 637.437 333.437 637.437 315.473 619.473L62.5269 366.527C44.5628 348.563 44.5628 319.437 62.5269 301.473L315.473 48.5269Z" fill="#F8F4EE"/>
</g>
<g filter="url(#filter1_d)">
<path d="M175.601 145.899C181.068 140.432 189.932 140.432 195.399 145.899L218.101 168.601C223.568 174.068 223.568 182.932 218.101 188.399L195.399 211.101C189.932 216.568 181.068 216.568 175.601 211.101L152.899 188.399C147.432 182.932 147.432 174.068 152.899 168.601L175.601 145.899Z" fill="#F8F4EE"/>
</g>
<path d="M193.84 177.719C192.928 177.719 192.145 177.195 191.758 176.431C191.372 177.195 190.586 177.719 189.673 177.719C188.76 177.719 187.972 177.195 187.587 176.431C187.2 177.195 186.412 177.719 185.499 177.719C184.587 177.719 183.797 177.195 183.411 176.431C183.025 177.195 182.236 177.719 181.323 177.719C180.411 177.719 179.621 177.195 179.235 176.431C178.85 177.195 178.048 177.719 177.135 177.719C176.731 177.719 176.367 177.616 176.007 177.436V186.136H174.783V188.448H196.169V186.136H195.017V177.394C194.657 177.6 194.274 177.719 193.84 177.719ZM185.512 178.984H192.64V182.524H185.512V178.984ZM178.383 178.984H183.136V184.908H178.383V178.984Z" fill="#8F7A61"/>
<path d="M174.808 175.445H174.81C174.81 175.443 174.81 175.441 174.81 175.44L174.808 175.445Z" fill="#8F7A61"/>
<path d="M179.295 175.371L180.808 170.603H184.002L183.35 175.371H187.651L187.014 170.603H190.304L191.707 175.371H196.158L193.865 170.603V167.062H177.232V170.603L174.844 175.371H179.295Z" fill="#8F7A61"/>
<g filter="url(#filter2_d)">
<rect x="526.155" y="422" width="76.9861" height="76.9861" rx="14" transform="rotate(45 526.155 422)" fill="#8F7A61"/>
</g>
<path d="M532.016 466.284L529.354 464.757L526.692 466.284L524.031 464.757L521.369 466.284L519.373 465.139V483.132H531.253V485.772C531.253 486.529 531.872 487.145 532.632 487.145C533.393 487.145 534.012 486.529 534.012 485.772V465.139L532.016 466.284ZM526.692 476.741H520.994V475.415H526.693L526.692 476.741ZM532.391 473.846H520.994V472.52H532.391V473.846ZM532.391 470.951H520.994V469.625H532.391V470.951Z" fill="#F8F4EE"/>
<path d="M530.198 484.562H515.928V485.825C515.928 486.553 516.531 487.145 517.272 487.145H530.566C530.333 486.758 530.198 486.307 530.198 485.825L530.198 484.562Z" fill="#F8F4EE"/>
<mask id="mask0" mask-type="alpha" maskUnits="userSpaceOnUse" x="471" y="422" width="110" height="109">
<rect x="525.887" y="422" width="76.9861" height="76.9861" rx="14" transform="rotate(45 525.887 422)" fill="#8F7A61"/>
</mask>
<g mask="url(#mask0)">
<g filter="url(#filter3_d)">
<rect x="491.592" y="481.576" width="40.2629" height="40.2629" rx="6" transform="rotate(45 491.592 481.576)" fill="#F8F4EE"/>
</g>
</g>
<mask id="mask1" mask-type="alpha" maskUnits="userSpaceOnUse" x="438" y="462" width="108" height="103">
<path d="M545.891 550.879L483.911 488.899L456.037 462.008L438 522.349L480.304 564.653L545.891 550.879Z" fill="#C4C4C4"/>
</mask>
<g mask="url(#mask1)">
<g filter="url(#filter4_d)">
<path d="M487.349 485.819C489.692 483.476 493.491 483.476 495.834 485.819L515.819 505.804C518.162 508.147 518.162 511.946 515.819 514.289L495.834 534.274C493.491 536.617 489.692 536.617 487.349 534.274L467.364 514.289C465.021 511.946 465.021 508.147 467.364 505.804L487.349 485.819Z" fill="#F8F4EE"/>
</g>
<path d="M496.118 510.745C495.759 510.745 495.467 511.037 495.467 511.396C495.467 511.756 495.759 512.048 496.118 512.048H498.072V510.745H496.118Z" fill="#8F7A61"/>
<path d="M494.744 511.365C494.744 510.546 495.396 509.877 496.192 509.877H497.639V508.016C497.639 507.807 497.48 507.643 497.278 507.643H496.554V506.527C496.554 506.318 496.395 506.155 496.192 506.155H495.331L494.708 504.874C494.614 504.688 494.397 504.614 494.223 504.703L493.384 505.135L493.261 504.874C493.167 504.688 492.95 504.614 492.776 504.703L489.953 506.155H487.869C487.268 506.155 486.783 506.653 486.783 507.271V513.971C486.783 514.589 487.268 515.087 487.869 515.087H497.278C497.48 515.087 497.639 514.924 497.639 514.715V512.854H496.192C495.396 512.854 494.744 512.184 494.744 511.365ZM495.83 506.899V507.182L495.693 506.899H495.83ZM494.223 505.537L495.244 507.643H494.607L493.709 505.797L494.223 505.537ZM487.869 506.899H488.506L487.529 507.398C487.514 507.36 487.507 507.316 487.507 507.271C487.507 507.063 487.666 506.899 487.869 506.899ZM488.679 507.643L492.776 505.537L493.796 507.643H488.679Z" fill="#8F7A61"/>
</g>
<path d="M420.519 283.012H290V413.47H420.519V283.012Z" fill="#FFA412"/>
<path d="M460.759 283.012H330.239V413.47H460.759V283.012Z" fill="#FFB93E"/>
<path d="M330.239 283.012L290 307.399V283.012H330.239Z" fill="#F99746"/>
<path d="M355.369 359.206H304.768L306.899 353.293L304.768 346.917H354.897L351.824 353.532L355.369 359.206Z" fill="#FFD5AB"/>
<path d="M330.068 346.917V359.206H304.768L306.899 353.293L304.768 346.917H330.068Z" fill="#F99746"/>
<path d="M405.058 208.001H330.004V283.02H405.058V208.001Z" fill="#FFA412"/>
<path d="M428.2 208H353.146V283.019H428.2V208Z" fill="#FFB93E"/>
<path d="M353.146 208.001L330.004 222.024V208.001H353.146Z" fill="#F99746"/>
<path d="M441.984 223.936H382.872V283.02H441.984V223.936Z" fill="#4A75CB"/>
<path d="M460.209 223.935H401.097V283.02H460.209V223.935Z" fill="#699DEE"/>
<path d="M427.745 264.466L405.809 268.844L408.034 279.984L429.97 275.606L427.745 264.466Z" fill="#EBF2F9"/>
<path d="M411.732 238.989H390.373L391.275 236.497L390.373 233.807H411.534L410.236 236.6L411.732 238.989Z" fill="#EBF2F9"/>
<path d="M401.056 233.807V238.989H390.373L391.275 236.497L390.373 233.807H401.056Z" fill="#A6C7F9"/>
<path d="M365.774 224.229H340.535L341.594 221.286L340.535 218.098H365.535L364.005 221.402L365.774 224.229Z" fill="#FFD5AB"/>
<path d="M353.151 218.098V224.229H340.535L341.594 221.286L340.535 218.098H353.151Z" fill="#F99746"/>
<path d="M365.774 269.535H340.535L341.594 266.585L340.535 263.404H365.535L364.005 266.708L365.774 269.535Z" fill="#FFD5AB"/>
<path d="M353.151 263.404V269.535H340.535L341.594 266.585L340.535 263.404H353.151Z" fill="#F99746"/>
<path d="M504.796 309.687H400.957V413.477H504.796V309.687Z" fill="#4A75CB"/>
<path d="M536.81 309.687H432.971V413.477H536.81V309.687Z" fill="#699DEE"/>
<path d="M528.167 315.941L503.29 320.906L505.814 333.54L530.69 328.575L528.167 315.941Z" fill="#EBF2F9"/>
<path d="M446.762 326.12H418.613L419.802 322.836L418.613 319.286H446.496L444.788 322.966L446.762 326.12Z" fill="#EBF2F9"/>
<path d="M432.691 319.286V326.12H418.613L419.802 322.836L418.613 319.286H432.691Z" fill="#A6C7F9"/>
<path d="M446.762 403.427H418.613L419.802 400.143L418.613 396.593H446.496L444.788 400.273L446.762 403.427Z" fill="#EBF2F9"/>
<path d="M432.691 396.593V403.427H418.613L419.802 400.143L418.613 396.593H432.691Z" fill="#A6C7F9"/>
<g filter="url(#filter5_d)">
<path d="M316.519 319.012H186V449.47H316.519V319.012Z" fill="#FFA412"/>
<path d="M356.759 319.012H226.239V449.47H356.759V319.012Z" fill="#FFB93E"/>
<path d="M226.239 319.012L186 343.399V319.012H226.239Z" fill="#F99746"/>
<path d="M251.369 395.206H200.768L202.899 389.293L200.768 382.917H250.897L247.824 389.532L251.369 395.206Z" fill="#FFD5AB"/>
<path d="M226.068 382.917V395.206H200.768L202.899 389.293L200.768 382.917H226.068Z" fill="#F99746"/>
<path d="M301.058 244.001H226.004V319.02H301.058V244.001Z" fill="#FFA412"/>
<path d="M324.2 244H249.146V319.019H324.2V244Z" fill="#FFB93E"/>
<path d="M249.146 244.001L226.004 258.024V244.001H249.146Z" fill="#F99746"/>
<path d="M337.984 259.936H278.872V319.02H337.984V259.936Z" fill="#4A75CB"/>
<path d="M356.209 259.935H297.097V319.02H356.209V259.935Z" fill="#699DEE"/>
<path d="M323.745 300.466L301.809 304.844L304.034 315.984L325.97 311.606L323.745 300.466Z" fill="#EBF2F9"/>
<path d="M307.732 274.989H286.373L287.275 272.497L286.373 269.807H307.534L306.236 272.6L307.732 274.989Z" fill="#EBF2F9"/>
<path d="M297.056 269.807V274.989H286.373L287.275 272.497L286.373 269.807H297.056Z" fill="#A6C7F9"/>
<path d="M261.774 260.229H236.535L237.594 257.286L236.535 254.098H261.535L260.005 257.402L261.774 260.229Z" fill="#FFD5AB"/>
<path d="M249.151 254.098V260.229H236.535L237.594 257.286L236.535 254.098H249.151Z" fill="#F99746"/>
<path d="M261.774 305.535H236.535L237.594 302.585L236.535 299.404H261.535L260.005 302.708L261.774 305.535Z" fill="#FFD5AB"/>
<path d="M249.151 299.404V305.535H236.535L237.594 302.585L236.535 299.404H249.151Z" fill="#F99746"/>
<path d="M400.796 345.687H296.957V449.477H400.796V345.687Z" fill="#4A75CB"/>
<path d="M432.81 345.687H328.971V449.477H432.81V345.687Z" fill="#699DEE"/>
<path d="M424.167 351.941L399.29 356.906L401.814 369.54L426.69 364.575L424.167 351.941Z" fill="#EBF2F9"/>
<path d="M342.762 362.12H314.613L315.802 358.836L314.613 355.286H342.496L340.788 358.966L342.762 362.12Z" fill="#EBF2F9"/>
<path d="M328.691 355.286V362.12H314.613L315.802 358.836L314.613 355.286H328.691Z" fill="#A6C7F9"/>
<path d="M342.762 439.427H314.613L315.802 436.143L314.613 432.593H342.496L340.788 436.273L342.762 439.427Z" fill="#EBF2F9"/>
<path d="M328.691 432.593V439.427H314.613L315.802 436.143L314.613 432.593H328.691Z" fill="#A6C7F9"/>
</g>
<defs>
<filter id="filter0_d" x="0" y="-10" width="696" height="696" filterUnits="userSpaceOnUse" color-interpolation-filters="sRGB">
<feFlood flood-opacity="0" result="BackgroundImageFix"/>
<feColorMatrix in="SourceAlpha" type="matrix" values="0 0 0 0 0 0 0 0 0 0 0 0 0 0 0 0 0 0 127 0"/>
<feOffset dy="4"/>
<feGaussianBlur stdDeviation="15"/>
<feColorMatrix type="matrix" values="0 0 0 0 0.8875 0 0 0 0 0.846781 0 0 0 0 0.796531 0 0 0 1 0"/>
<feBlend mode="normal" in2="BackgroundImageFix" result="effect1_dropShadow"/>
<feBlend mode="normal" in="SourceGraphic" in2="effect1_dropShadow" result="shape"/>
</filter>
<filter id="filter1_d" x="113" y="110" width="145" height="145" filterUnits="userSpaceOnUse" color-interpolation-filters="sRGB">
<feFlood flood-opacity="0" result="BackgroundImageFix"/>
<feColorMatrix in="SourceAlpha" type="matrix" values="0 0 0 0 0 0 0 0 0 0 0 0 0 0 0 0 0 0 127 0"/>
<feOffset dy="4"/>
<feGaussianBlur stdDeviation="15"/>
<feColorMatrix type="matrix" values="0 0 0 0 0.8875 0 0 0 0 0.846781 0 0 0 0 0.796531 0 0 0 1 0"/>
<feBlend mode="normal" in2="BackgroundImageFix" result="effect1_dropShadow"/>
<feBlend mode="normal" in="SourceGraphic" in2="effect1_dropShadow" result="shape"/>
</filter>
<filter id="filter2_d" x="441.718" y="396" width="168.875" height="168.875" filterUnits="userSpaceOnUse" color-interpolation-filters="sRGB">
<feFlood flood-opacity="0" result="BackgroundImageFix"/>
<feColorMatrix in="SourceAlpha" type="matrix" values="0 0 0 0 0 0 0 0 0 0 0 0 0 0 0 0 0 0 127 0"/>
<feOffset dy="4"/>
<feGaussianBlur stdDeviation="15"/>
<feColorMatrix type="matrix" values="0 0 0 0 0 0 0 0 0 0 0 0 0 0 0 0 0 0 0.3 0"/>
<feBlend mode="normal" in2="BackgroundImageFix" result="effect1_dropShadow"/>
<feBlend mode="normal" in="SourceGraphic" in2="effect1_dropShadow" result="shape"/>
</filter>
<filter id="filter3_d" x="433.122" y="455.576" width="116.94" height="116.94" filterUnits="userSpaceOnUse" color-interpolation-filters="sRGB">
<feFlood flood-opacity="0" result="BackgroundImageFix"/>
<feColorMatrix in="SourceAlpha" type="matrix" values="0 0 0 0 0 0 0 0 0 0 0 0 0 0 0 0 0 0 127 0"/>
<feOffset dy="4"/>
<feGaussianBlur stdDeviation="15"/>
<feColorMatrix type="matrix" values="0 0 0 0 0.416667 0 0 0 0 0.343152 0 0 0 0 0.252431 0 0 0 1 0"/>
<feBlend mode="normal" in2="BackgroundImageFix" result="effect1_dropShadow"/>
<feBlend mode="normal" in="SourceGraphic" in2="effect1_dropShadow" result="shape"/>
</filter>
<filter id="filter4_d" x="433.122" y="455.576" width="116.94" height="116.94" filterUnits="userSpaceOnUse" color-interpolation-filters="sRGB">
<feFlood flood-opacity="0" result="BackgroundImageFix"/>
<feColorMatrix in="SourceAlpha" type="matrix" values="0 0 0 0 0 0 0 0 0 0 0 0 0 0 0 0 0 0 127 0"/>
<feOffset dy="4"/>
<feGaussianBlur stdDeviation="15"/>
<feColorMatrix type="matrix" values="0 0 0 0 0.8875 0 0 0 0 0.846781 0 0 0 0 0.796531 0 0 0 1 0"/>
<feBlend mode="normal" in2="BackgroundImageFix" result="effect1_dropShadow"/>
<feBlend mode="normal" in="SourceGraphic" in2="effect1_dropShadow" result="shape"/>
</filter>
<filter id="filter5_d" x="182" y="244" width="254.81" height="213.477" filterUnits="userSpaceOnUse" color-interpolation-filters="sRGB">
<feFlood flood-opacity="0" result="BackgroundImageFix"/>
<feColorMatrix in="SourceAlpha" type="matrix" values="0 0 0 0 0 0 0 0 0 0 0 0 0 0 0 0 0 0 127 0"/>
<feOffset dy="4"/>
<feGaussianBlur stdDeviation="2"/>
<feColorMatrix type="matrix" values="0 0 0 0 0 0 0 0 0 0 0 0 0 0 0 0 0 0 0.25 0"/>
<feBlend mode="normal" in2="BackgroundImageFix" result="effect1_dropShadow"/>
<feBlend mode="normal" in="SourceGraphic" in2="effect1_dropShadow" result="shape"/>
</filter>
</defs>
</svg>
