<svg width="691" height="401" viewBox="0 0 691 401" fill="none" xmlns="http://www.w3.org/2000/svg">
<path opacity="0.04" d="M547.92 157.209H660.32H690.41L667.2 173.959V206.909C667.2 210.709 664.12 213.789 660.32 213.789H547.92C544.12 213.789 541.04 210.709 541.04 206.909V164.089C541.03 160.289 544.12 157.209 547.92 157.209Z" fill="#8F7A61"/>
<path d="M553.86 180.499C553.86 180.639 575.35 180.749 601.86 180.749C628.37 180.749 649.86 180.639 649.86 180.499C649.86 180.359 628.37 180.249 601.86 180.249C575.35 180.249 553.86 180.359 553.86 180.499Z" fill="#232323"/>
<path d="M553.86 193.149C553.86 193.289 575.35 193.399 601.86 193.399C628.37 193.399 649.86 193.289 649.86 193.149C649.86 193.009 628.37 192.899 601.86 192.899C575.35 192.899 553.86 193.009 553.86 193.149Z" fill="#232323"/>
<g opacity="0.1">
<path d="M331.51 35.6086H324.84V57.9486H331.51V35.6086Z" fill="#8F7A61"/>
<path d="M275.81 32.3687H269.14V57.9387H275.81V32.3687Z" fill="#8F7A61"/>
<path d="M289.73 27.0386H283.06V57.9386H289.73V27.0386Z" fill="#8F7A61"/>
<path d="M303.66 28.7388H296.99V57.9488H303.66V28.7388Z" fill="#8F7A61"/>
<path d="M317.58 18.8586H310.91V57.9486H317.58V18.8586Z" fill="#8F7A61"/>
<path d="M345.43 19.0486H338.76V57.9486H345.43V19.0486Z" fill="#8F7A61"/>
<path d="M359.36 31.8186H352.69V57.9386H359.36V31.8186Z" fill="#8F7A61"/>
<path d="M373.28 20.7585H366.61V57.9485H373.28V20.7585Z" fill="#8F7A61"/>
<path d="M387.2 12.3787H380.53V57.9387H387.2V12.3787Z" fill="#8F7A61"/>
<path d="M401.13 20.5686H394.46V57.9486H401.13V20.5686Z" fill="#8F7A61"/>
</g>
<g opacity="0.2">
<path d="M576.83 55.8786L631.98 47.4486C636.6 77.6986 615.51 106.399 585.26 111.019C555.01 115.639 526.31 94.5486 521.69 64.2986C517.07 34.0486 538.16 5.34863 568.41 0.728633C573.23 -0.0113672 578.12 -0.111367 582.96 0.428633L576.83 55.8786Z" fill="#8F7A61"/>
<path d="M594.72 0.598633L588.02 43.3486L629.98 35.4686C629.98 35.4686 623.81 11.5086 594.72 0.598633Z" fill="#CD9E64"/>
</g>
<g opacity="0.2">
<path d="M13.75 159.569C13.51 144.429 25.58 131.909 40.65 131.659C55.73 131.419 68.19 143.539 68.43 158.679C68.67 173.819 56.6 186.339 41.53 186.589C26.45 186.839 13.99 174.719 13.75 159.569ZM54.16 158.919C54.04 151.679 48.09 145.879 40.88 145.999C33.67 146.119 27.9 152.099 28.02 159.339C28.14 166.579 34.09 172.379 41.3 172.259C48.5 172.149 54.27 166.159 54.16 158.919Z" fill="#F5F5F5"/>
<path d="M13.75 159.569C13.51 144.429 25.58 131.909 40.65 131.659L40.88 145.989C33.67 146.109 27.9 152.089 28.02 159.329C28.14 166.569 34.09 172.369 41.3 172.249L41.53 186.579C26.45 186.839 13.99 174.719 13.75 159.569Z" fill="#8F7A61"/>
<path d="M38.1899 129.459C55.8299 129.179 69.8999 142.859 70.1799 160.579L53.4899 160.849C53.3499 152.379 46.9099 147.039 38.4799 147.179L38.1899 129.459Z" fill="#CD9E64"/>
</g>
<g opacity="0.1">
<path d="M153.55 1.36865H32.55H0.160034L25.15 19.3987V54.8687C25.15 58.9587 28.47 62.2787 32.56 62.2787H153.55C157.64 62.2787 160.96 58.9587 160.96 54.8687V8.76865C160.95 4.67865 157.64 1.36865 153.55 1.36865Z" fill="#8F7A61"/>
<path d="M147.15 26.4387C147.15 26.5887 124.02 26.7087 95.4801 26.7087C66.9401 26.7087 43.8101 26.5887 43.8101 26.4387C43.8101 26.2887 66.9401 26.1687 95.4801 26.1687C124.01 26.1687 147.15 26.2887 147.15 26.4387Z" fill="#232323"/>
<path d="M147.15 40.0586C147.15 40.2086 124.02 40.3286 95.4801 40.3286C66.9401 40.3286 43.8101 40.2086 43.8101 40.0586C43.8101 39.9086 66.9401 39.7886 95.4801 39.7886C124.01 39.7886 147.15 39.9086 147.15 40.0586Z" fill="#232323"/>
</g>
<path d="M619.72 349.889C619.72 349.889 593.21 319.379 583.21 288.869C573.21 258.359 577.96 261.859 577.96 261.859C577.96 261.859 591.46 291.499 601.72 305.809C611.97 320.129 630.23 341.129 630.23 341.129L619.72 349.889Z" fill="#006837"/>
<path d="M625 266.619C624.14 265.129 621.87 265.899 622.12 267.599C623.74 278.319 627.23 303.459 627.09 319.779C626.91 340.969 627.1 349.159 627.1 349.159H638.13C638.13 349.159 636.17 305.359 633.68 291.999C631.94 282.639 628.23 272.239 625 266.619Z" fill="#006837"/>
<path d="M631.01 345.599C631.01 345.599 637.95 330.999 640.09 312.659C641 304.859 639.38 294.319 636.97 280.249C635.8 273.439 635.54 268.249 635.58 264.659C635.61 261.939 639.19 261.059 640.52 263.429C641.85 265.809 645.71 273.919 646.68 279.009C649.35 292.899 652.38 299.839 650.06 313.019C647.75 326.199 639.2 346.489 639.2 346.489L631.01 345.599Z" fill="#006837"/>
<path d="M640.95 346.489C640.95 346.489 670.05 283.939 672.07 274.669C674.09 265.389 680.95 244.009 681.75 245.219C682.56 246.429 683.77 257.729 678.52 270.639C673.28 283.549 650.88 348.399 650.88 348.399H640.94" fill="#006837"/>
<path d="M627.83 343.689C627.82 343.709 627.54 343.509 627.01 343.129C626.49 342.739 625.71 342.189 624.76 341.409C622.82 339.889 620.1 337.569 616.94 334.509C610.59 328.409 602.68 318.999 595.83 307.409C588.96 295.819 584.34 284.489 581.42 276.189C579.96 272.039 578.89 268.639 578.2 266.269C577.84 265.089 577.6 264.169 577.43 263.539C577.26 262.909 577.18 262.579 577.2 262.579C577.22 262.569 577.34 262.889 577.55 263.509C577.77 264.179 578.06 265.079 578.43 266.199C579.19 268.539 580.32 271.909 581.84 276.039C584.86 284.279 589.53 295.549 596.37 307.089C603.2 318.629 611.01 328.039 617.26 334.189C620.37 337.289 623.04 339.639 624.93 341.219C625.86 342.029 626.62 342.609 627.11 343.029C627.58 343.439 627.84 343.669 627.83 343.689Z" fill="#263238"/>
<path d="M631.01 313.679C630.97 313.679 630.88 313.029 630.75 311.839C630.61 310.549 630.43 308.859 630.21 306.829C629.75 302.599 629.03 296.759 628 290.349C626.97 283.939 625.82 278.169 624.93 274.009C624.5 272.009 624.14 270.349 623.87 269.079C623.62 267.919 623.5 267.269 623.54 267.259C623.58 267.249 623.78 267.879 624.1 269.029C624.43 270.179 624.86 271.849 625.36 273.919C626.36 278.059 627.58 283.829 628.61 290.259C629.64 296.689 630.29 302.539 630.64 306.789C630.82 308.909 630.93 310.639 630.98 311.829C631.04 313.019 631.05 313.679 631.01 313.679Z" fill="#263238"/>
<path d="M637.83 262.929C637.85 262.919 637.97 263.199 638.17 263.719C638.39 264.309 638.68 265.079 639.04 266.039C639.43 267.049 639.87 268.289 640.29 269.759C640.72 271.229 641.28 272.879 641.7 274.769C641.93 275.709 642.17 276.689 642.42 277.709C642.66 278.729 642.84 279.819 643.06 280.929C643.54 283.149 643.83 285.559 644.18 288.089C644.75 293.159 645.06 298.769 644.88 304.669C644.64 310.559 643.93 316.139 643 321.159C642.47 323.659 642 326.039 641.37 328.219C641.07 329.309 640.82 330.379 640.5 331.389C640.18 332.389 639.87 333.349 639.57 334.269C639.01 336.119 638.34 337.729 637.8 339.159C637.27 340.599 636.74 341.809 636.29 342.779C635.86 343.709 635.52 344.459 635.25 345.029C635.01 345.539 634.87 345.809 634.85 345.799C634.83 345.789 634.93 345.509 635.14 344.979C635.37 344.399 635.68 343.629 636.07 342.679C636.49 341.689 636.99 340.469 637.48 339.029C637.98 337.589 638.63 335.969 639.16 334.119C639.44 333.199 639.74 332.239 640.05 331.239C640.35 330.239 640.59 329.169 640.88 328.079C641.49 325.899 641.93 323.529 642.45 321.039C643.35 316.039 644.04 310.489 644.27 304.639C644.45 298.779 644.16 293.199 643.63 288.149C643.29 285.629 643.02 283.239 642.57 281.019C642.36 279.909 642.2 278.829 641.97 277.809C641.73 276.789 641.51 275.809 641.29 274.869C640.9 272.989 640.37 271.329 639.97 269.859C639.58 268.379 639.17 267.129 638.83 266.109C638.51 265.129 638.26 264.349 638.07 263.749C637.89 263.229 637.81 262.939 637.83 262.929Z" fill="#263238"/>
<path d="M681.42 246.469C681.43 246.469 681.42 246.569 681.4 246.749C681.37 246.969 681.32 247.239 681.27 247.559C681.14 248.269 680.98 249.329 680.7 250.669C680.14 253.359 679.2 257.229 677.75 261.929C676.3 266.629 674.31 272.139 671.95 278.189C669.6 284.249 666.87 290.839 664.29 297.859C661.67 304.869 659.65 311.709 657.75 317.919C655.87 324.129 654.08 329.709 652.36 334.319C650.65 338.929 649.01 342.559 647.76 345.019C647.16 346.259 646.63 347.179 646.28 347.819C646.12 348.109 645.98 348.339 645.87 348.539C645.78 348.699 645.72 348.779 645.71 348.769C645.7 348.759 645.74 348.679 645.81 348.509C645.91 348.309 646.02 348.059 646.16 347.769C646.47 347.119 646.97 346.179 647.53 344.919C648.7 342.439 650.28 338.799 651.93 334.179C653.6 329.569 655.34 323.989 657.19 317.769C659.06 311.559 661.07 304.689 663.7 297.659C666.29 290.619 669.04 284.029 671.41 277.989C673.79 271.959 675.82 266.479 677.32 261.809C678.83 257.139 679.82 253.299 680.46 250.629C680.78 249.299 680.98 248.249 681.15 247.549C681.23 247.229 681.29 246.969 681.34 246.749C681.38 246.559 681.41 246.469 681.42 246.469Z" fill="#263238"/>
<path d="M591.68 232.649C589.85 230.829 586.8 232.729 587.55 235.209C588.32 237.719 589.49 240.959 591.21 244.609C595.21 253.109 606.96 283.619 612.47 300.379C617.97 317.129 625.72 348.389 625.72 348.389L637.47 346.479C637.47 346.479 626.72 295.119 616.22 276.609C607.78 261.749 599.34 240.259 591.68 232.649Z" fill="#006837"/>
<path d="M615.68 310.859C615.72 310.849 615.93 311.349 616.29 312.269C616.64 313.189 617.11 314.539 617.64 316.209C618.72 319.559 620.05 324.239 621.38 329.439C622.71 334.639 623.82 339.379 624.59 342.809C624.94 344.429 625.24 345.799 625.47 346.879C625.67 347.839 625.75 348.379 625.71 348.389C625.67 348.399 625.5 347.879 625.23 346.929C624.94 345.859 624.58 344.509 624.15 342.909C623.25 339.379 622.07 334.729 620.76 329.589C619.43 324.399 618.17 319.709 617.2 316.329C616.74 314.739 616.35 313.399 616.04 312.329C615.77 311.399 615.64 310.869 615.68 310.859Z" fill="#263238"/>
<path d="M631.62 347.439C631.61 347.439 631.59 347.329 631.55 347.129C631.51 346.889 631.47 346.579 631.42 346.199C631.3 345.389 631.19 344.179 630.94 342.639C630.51 339.549 629.74 335.109 628.48 329.679C627.23 324.249 625.4 317.869 622.98 310.909C620.57 303.949 617.55 296.429 614.12 288.649C607.21 273.099 600.3 259.309 595.77 249.109C593.48 244.019 591.7 239.869 590.53 236.979C589.93 235.539 589.51 234.399 589.21 233.639C589.08 233.279 588.97 232.999 588.88 232.759C588.81 232.559 588.78 232.459 588.79 232.449C588.8 232.449 588.85 232.539 588.94 232.729C589.04 232.959 589.17 233.239 589.32 233.579C589.67 234.379 590.14 235.479 590.75 236.869C591.99 239.729 593.82 243.849 596.16 248.909C600.8 259.049 607.76 272.809 614.68 288.379C618.11 296.169 621.12 303.719 623.51 310.709C625.9 317.699 627.69 324.109 628.9 329.569C630.11 335.019 630.82 339.489 631.17 342.599C631.38 344.149 631.45 345.359 631.54 346.179C631.57 346.559 631.59 346.869 631.61 347.109C631.63 347.329 631.63 347.439 631.62 347.439Z" fill="#263238"/>
<path d="M637.47 346.489C637.43 346.499 637.29 345.789 637.07 344.519C636.84 343.139 636.53 341.319 636.16 339.119C635.35 334.569 634.11 328.299 632.34 321.479C630.58 314.649 628.6 308.569 627.07 304.209C626.32 302.109 625.7 300.369 625.23 299.049C624.79 297.829 624.57 297.149 624.61 297.139C624.65 297.119 624.95 297.769 625.46 298.969C625.97 300.159 626.67 301.899 627.49 304.069C629.12 308.399 631.18 314.479 632.95 321.329C634.73 328.179 635.9 334.479 636.6 339.059C636.93 341.349 637.19 343.209 637.32 344.499C637.45 345.769 637.51 346.479 637.47 346.489Z" fill="#263238"/>
<path d="M661.58 344.799H615.72V400.669H661.58V344.799Z" fill="#232323"/>
<path d="M646.95 344.799H606.27V400.669H646.95V344.799Z" fill="#CD9E64"/>
<path d="M50.79 325.369C42.98 320.369 32.15 320.269 24.55 325.589C17.33 330.639 13.67 339.819 13.99 348.619C14.31 357.419 18.57 368.169 26.55 372.799L49.95 372.709C57.42 367.209 62.48 358.359 62.83 349.089C63.18 339.819 58.6 330.379 50.79 325.369Z" fill="#39B54A"/>
<path d="M39.27 373.639C39.22 373.639 39.17 372.919 39.12 371.629C39.08 370.189 39.03 368.349 38.96 366.139C38.84 361.509 38.66 355.109 38.35 348.039C38.04 340.969 37.66 334.579 37.37 329.959C37.24 327.759 37.13 325.919 37.04 324.479C36.97 323.179 36.96 322.469 37.01 322.459C37.06 322.459 37.17 323.169 37.33 324.449C37.49 325.739 37.68 327.609 37.89 329.919C38.31 334.539 38.78 340.939 39.09 348.009C39.4 355.079 39.5 361.489 39.48 366.129C39.47 368.449 39.44 370.329 39.4 371.619C39.37 372.929 39.32 373.639 39.27 373.639Z" fill="#263238"/>
<path d="M16.35 346.619C16.33 346.829 15.06 346.889 13.51 346.759C11.96 346.629 10.71 346.359 10.73 346.159C10.75 345.949 12.02 345.889 13.57 346.019C15.12 346.149 16.36 346.419 16.35 346.619Z" fill="#263238"/>
<path d="M16.78 338.729C16.7 338.919 15.6 338.619 14.33 338.049C13.06 337.489 12.1 336.879 12.18 336.689C12.26 336.499 13.3599 336.799 14.6299 337.369C15.9099 337.929 16.87 338.539 16.78 338.729Z" fill="#263238"/>
<path d="M20.85 332.869C20.74 333.039 19.51 332.459 18.23 331.399C16.95 330.339 16.14 329.239 16.29 329.099C16.44 328.959 17.46 329.799 18.7 330.819C19.94 331.849 20.96 332.689 20.85 332.869Z" fill="#263238"/>
<path d="M24.9299 327.339C24.7399 327.419 24.15 326.499 23.61 325.279C23.07 324.059 22.78 322.999 22.97 322.919C23.16 322.839 23.75 323.759 24.29 324.979C24.84 326.199 25.12 327.249 24.9299 327.339Z" fill="#263238"/>
<path d="M31.34 323.409C31.16 323.499 30.52 322.509 30.1 321.149C29.67 319.789 29.64 318.619 29.84 318.579C30.05 318.539 30.4 319.609 30.81 320.919C31.22 322.239 31.53 323.329 31.34 323.409Z" fill="#263238"/>
<path d="M42.04 318.989C42.23 319.059 42.12 319.899 41.77 320.859C41.43 321.829 40.99 322.549 40.8 322.489C40.61 322.419 40.72 321.579 41.07 320.619C41.41 319.649 41.85 318.919 42.04 318.989Z" fill="#263238"/>
<path d="M49.98 322.399C50.12 322.549 49.61 323.249 48.84 323.959C48.07 324.669 47.34 325.119 47.2 324.969C47.06 324.819 47.57 324.119 48.34 323.409C49.1 322.699 49.84 322.239 49.98 322.399Z" fill="#263238"/>
<path d="M56.96 326.909C57.08 327.079 56.45 327.699 55.57 328.299C54.69 328.899 53.88 329.239 53.76 329.069C53.64 328.899 54.26 328.279 55.15 327.679C56.04 327.079 56.85 326.739 56.96 326.909Z" fill="#263238"/>
<path d="M61.9201 333.629C62.0001 333.819 61.0201 334.419 59.7301 334.969C58.4401 335.519 57.3301 335.809 57.2501 335.619C57.1701 335.429 58.1501 334.829 59.4301 334.279C60.7301 333.729 61.8401 333.439 61.9201 333.629Z" fill="#263238"/>
<path d="M63.87 340.969C63.9 341.169 62.9 341.469 61.65 341.619C60.4 341.779 59.36 341.729 59.34 341.529C59.31 341.329 60.31 341.029 61.56 340.879C62.81 340.719 63.85 340.759 63.87 340.969Z" fill="#263238"/>
<path d="M64.89 349.999C64.81 350.189 63.75 349.909 62.52 349.379C61.29 348.849 60.37 348.259 60.45 348.069C60.53 347.879 61.59 348.159 62.82 348.689C64.05 349.219 64.97 349.809 64.89 349.999Z" fill="#263238"/>
<path d="M64 357.749C63.93 357.939 62.59 357.619 61.19 356.699C59.78 355.789 58.95 354.689 59.1 354.549C59.25 354.399 60.27 355.209 61.6 356.069C62.92 356.939 64.07 357.549 64 357.749Z" fill="#263238"/>
<path d="M59.96 364.799C59.84 364.959 58.77 364.329 57.75 363.229C56.72 362.129 56.18 361.019 56.34 360.909C56.51 360.789 57.31 361.669 58.29 362.729C59.27 363.779 60.09 364.639 59.96 364.799Z" fill="#263238"/>
<path d="M21.65 365.629C21.75 365.809 20.62 366.589 19.15 367.349C17.67 368.119 16.4 368.589 16.3 368.409C16.2 368.229 17.33 367.459 18.8 366.689C20.28 365.919 21.56 365.449 21.65 365.629Z" fill="#263238"/>
<path d="M18.15 359.249C18.24 359.439 17.34 360.029 16.14 360.569C14.95 361.109 13.91 361.399 13.82 361.209C13.73 361.019 14.63 360.429 15.83 359.889C17.03 359.349 18.07 359.059 18.15 359.249Z" fill="#263238"/>
<path d="M15.58 353.599C15.61 353.799 14.5 354.129 13.11 354.329C11.72 354.529 10.56 354.519 10.53 354.319C10.5 354.119 11.61 353.789 13 353.589C14.4 353.389 15.55 353.389 15.58 353.599Z" fill="#263238"/>
<path d="M24.02 350.479C24.08 350.669 23 351.179 21.56 351.339C20.12 351.509 18.96 351.249 18.97 351.049C18.98 350.839 20.11 350.749 21.47 350.589C22.84 350.449 23.96 350.279 24.02 350.479Z" fill="#263238"/>
<path d="M31.03 343.509C31.09 343.699 30.23 344.139 29.07 344.249C27.91 344.369 26.99 344.109 27.01 343.909C27.03 343.699 27.92 343.619 29 343.509C30.08 343.399 30.97 343.309 31.03 343.509Z" fill="#263238"/>
<path d="M32.37 337.919C32.3 338.119 31.37 337.969 30.29 337.599C29.21 337.229 28.39 336.769 28.46 336.569C28.53 336.379 29.46 336.519 30.54 336.889C31.61 337.269 32.43 337.729 32.37 337.919Z" fill="#263238"/>
<path d="M34.94 332.269C34.8 332.409 34.16 331.989 33.7 331.199C33.24 330.409 33.2 329.649 33.39 329.589C33.59 329.529 33.94 330.119 34.34 330.819C34.75 331.529 35.09 332.129 34.94 332.269Z" fill="#263238"/>
<path d="M31.84 355.399C31.89 355.599 31.08 355.969 30.04 356.219C29.44 356.369 28.89 356.439 28.53 356.439L28.38 355.999C28.65 355.949 28.82 355.959 28.86 356.039C28.89 356.119 28.79 356.259 28.57 356.419L28.42 355.979C28.74 355.809 29.26 355.629 29.86 355.479C30.91 355.249 31.79 355.199 31.84 355.399Z" fill="#263238"/>
<path d="M33.28 365.309C33.36 365.499 32.33 366.089 30.99 366.609C29.65 367.139 28.5 367.409 28.42 367.219C28.34 367.029 29.37 366.439 30.71 365.919C32.06 365.389 33.21 365.109 33.28 365.309Z" fill="#263238"/>
<path d="M25.37 360.909C25.44 361.109 24.75 361.519 23.84 361.819C22.93 362.129 22.14 362.219 22.07 362.029C22 361.829 22.69 361.429 23.6 361.119C24.51 360.799 25.3 360.709 25.37 360.909Z" fill="#263238"/>
<path d="M25.9701 340.749C25.9201 340.949 24.7301 340.829 23.3501 340.339C21.9701 339.849 20.9701 339.189 21.0601 339.009C21.1501 338.819 22.2601 339.159 23.6001 339.629C24.9401 340.109 26.0201 340.539 25.9701 340.749Z" fill="#263238"/>
<path d="M45.1301 338.549C45.2401 338.719 44.5701 339.369 43.6301 339.989C42.6901 340.609 41.8301 340.969 41.7201 340.799C41.6101 340.629 42.2801 339.979 43.2201 339.359C44.1601 338.749 45.0201 338.379 45.1301 338.549Z" fill="#263238"/>
<path d="M46.17 348.499C46.21 348.699 45.51 349.019 44.59 349.209C43.68 349.399 42.91 349.389 42.86 349.189C42.82 348.989 43.52 348.669 44.44 348.479C45.36 348.289 46.13 348.299 46.17 348.499Z" fill="#263238"/>
<path d="M47.38 359.679C47.29 359.869 46.28 359.579 45.11 359.039C43.94 358.499 43.07 357.909 43.16 357.719C43.25 357.529 44.26 357.819 45.43 358.359C46.6 358.909 47.47 359.499 47.38 359.679Z" fill="#263238"/>
<path d="M44.8201 370.569C44.6601 370.699 44.0001 370.159 43.3501 369.369C42.7001 368.569 42.3001 367.819 42.4501 367.689C42.6101 367.559 43.2701 368.099 43.9201 368.889C44.5801 369.689 44.9801 370.439 44.8201 370.569Z" fill="#263238"/>
<path d="M44.3 331.229C44.43 331.389 43.99 331.939 43.24 332.309C42.49 332.689 41.79 332.709 41.74 332.509C41.68 332.309 42.23 331.979 42.9 331.639C43.58 331.309 44.17 331.069 44.3 331.229Z" fill="#263238"/>
<path d="M53.69 341.259C53.76 341.449 52.89 341.929 51.7 342.089C50.51 342.259 49.55 342.029 49.56 341.829C49.57 341.619 50.49 341.499 51.6 341.349C52.7 341.199 53.62 341.059 53.69 341.259Z" fill="#263238"/>
<path d="M51.82 332.259C51.91 332.439 51.05 333.059 49.82 333.449C48.59 333.839 47.53 333.839 47.5 333.639C47.47 333.429 48.42 333.109 49.59 332.739C50.76 332.359 51.72 332.069 51.82 332.259Z" fill="#263238"/>
<path d="M55.74 355.209C55.74 355.409 54.26 355.539 52.48 355.219C50.7 354.899 49.36 354.259 49.43 354.069C49.5 353.869 50.89 354.179 52.61 354.479C54.33 354.799 55.74 354.999 55.74 355.209Z" fill="#263238"/>
<path d="M52.25 368.289C52.13 368.449 51.04 367.809 49.96 366.719C48.87 365.629 48.24 364.539 48.4 364.419C48.57 364.289 49.44 365.139 50.49 366.189C51.53 367.249 52.38 368.129 52.25 368.289Z" fill="#263238"/>
<path d="M36.91 321.609C37.02 321.769 33.93 323.019 30.36 326.789C26.79 330.469 23.11 336.969 22.2 344.819C21.77 348.719 22.14 352.499 22.69 355.869C23.27 359.239 24.05 362.239 24.76 364.739C25.48 367.239 26.14 369.239 26.58 370.619C27.02 372.009 27.26 372.779 27.21 372.799C27.16 372.819 26.84 372.079 26.31 370.719C25.78 369.359 25.05 367.379 24.26 364.889C23.48 362.399 22.65 359.399 22.02 355.989C21.42 352.589 21.02 348.749 21.46 344.739C22.39 336.709 26.24 330.089 29.98 326.429C31.84 324.569 33.59 323.329 34.87 322.609C35.49 322.219 36.02 322.009 36.37 321.829C36.71 321.659 36.89 321.589 36.91 321.609Z" fill="#263238"/>
<path d="M47.0901 373.269C46.9301 373.189 48.7701 370.349 50.4501 365.249C52.1801 360.199 53.6101 352.729 52.4601 344.619C51.9201 340.569 50.7501 336.819 49.2801 333.619C47.7501 330.459 45.7801 327.869 43.8601 326.059C41.8701 324.299 39.9101 323.289 38.5401 322.699C37.1601 322.119 36.3301 321.989 36.3401 321.929C36.3401 321.909 36.5501 321.919 36.9501 321.979C37.3401 322.049 37.9201 322.179 38.6401 322.439C40.0701 322.959 42.0901 323.909 44.2001 325.669C46.2501 327.499 48.2801 330.079 49.9001 333.329C51.4401 336.589 52.6501 340.399 53.2001 344.519C54.3701 352.789 52.8301 360.369 50.9501 365.429C50.5301 366.719 49.9801 367.829 49.5801 368.819C49.1001 369.779 48.7001 370.619 48.3401 371.279C47.5801 372.589 47.1401 373.299 47.0901 373.269Z" fill="#263238"/>
<path d="M18.15 371.509H59.34L59.59 379.749H18.15V371.509Z" fill="#CD9E64"/>
<path d="M21.65 375.629L24.02 400.789H54.13L56.54 375.899L21.65 375.629Z" fill="#CD9E64"/>
<path d="M59.59 379.849C59.59 380.059 50.32 380.219 38.88 380.219C27.44 380.219 18.17 380.049 18.17 379.849C18.17 379.649 27.44 379.479 38.88 379.479C50.32 379.479 59.59 379.639 59.59 379.849Z" fill="#263238"/>
<path d="M55.4 387.509C55.44 387.529 55.16 388.109 54.52 389.079C53.87 390.039 52.85 391.399 51.33 392.849L51.14 393.029L50.95 392.829C48.97 390.749 46.24 388.199 42.88 385.769L43.34 385.749C42.19 386.759 40.99 387.809 39.76 388.889C38.3 390.159 36.88 391.399 35.53 392.569L35.3 392.769L35.07 392.569C32.51 390.409 30.17 388.449 28.19 386.789L28.59 386.749C27.17 388.479 25.98 389.939 25.03 391.089C24.17 392.109 23.68 392.649 23.63 392.619C23.59 392.589 24 391.969 24.78 390.899C25.67 389.709 26.8 388.199 28.14 386.409L28.31 386.179L28.54 386.369C30.55 387.999 32.92 389.919 35.52 392.029L35.05 392.039C36.4 390.859 37.81 389.619 39.26 388.339C40.49 387.259 41.7 386.219 42.85 385.209L43.07 385.019L43.3 385.189C46.69 387.679 49.4 390.319 51.33 392.479L50.95 392.469C54.02 389.689 55.29 387.419 55.4 387.509Z" fill="#263238"/>
<path d="M550.22 393.879H114.3C106.25 393.879 99.73 387.359 99.73 379.309V100.909C99.73 92.8586 106.25 86.3386 114.3 86.3386H550.22C558.27 86.3386 564.79 92.8586 564.79 100.909V379.309C564.79 387.359 558.27 393.879 550.22 393.879Z" fill="#8F7A61"/>
<path d="M570.56 400.929H102.3C92.47 400.929 84.5 392.959 84.5 383.129V374.019H588.35V383.129C588.36 392.959 580.39 400.929 570.56 400.929Z" fill="#232323"/>
<path d="M286.41 371.139L292.67 381.079H380.65L386.45 371.139H286.41Z" fill="#263238"/>
<path d="M560.79 371.139C560.79 371.309 457.57 371.439 330.27 371.439C202.93 371.439 99.73 371.309 99.73 371.139C99.73 370.969 202.93 370.839 330.27 370.839C457.57 370.839 560.79 370.969 560.79 371.139Z" fill="#263238"/>
<path opacity="0.2" d="M546.38 363.009H116.32C114.51 363.009 113.05 361.539 113.05 359.739V107.299C113.05 105.489 114.52 104.029 116.32 104.029H546.38C548.19 104.029 549.65 105.499 549.65 107.299V359.729C549.65 361.539 548.18 363.009 546.38 363.009Z" fill="#8F7A61"/>
<path d="M549.18 363.389H112.58L113.05 123.389H549.18V363.389Z" fill="#F8F4EE"/>
<path d="M148.86 114.029C148.86 115.959 147.3 117.519 145.37 117.519C143.44 117.519 141.88 115.959 141.88 114.029C141.88 112.099 143.44 110.539 145.37 110.539C147.3 110.539 148.86 112.109 148.86 114.029Z" fill="#263238"/>
<path d="M127.72 114.029C127.72 115.959 126.16 117.519 124.23 117.519C122.3 117.519 120.74 115.959 120.74 114.029C120.74 112.099 122.3 110.539 124.23 110.539C126.16 110.549 127.72 112.109 127.72 114.029Z" fill="#263238"/>
<path d="M137.87 114.029C137.87 115.959 136.31 117.519 134.38 117.519C132.45 117.519 130.89 115.959 130.89 114.029C130.89 112.099 132.45 110.539 134.38 110.539C136.31 110.549 137.87 112.109 137.87 114.029Z" fill="#263238"/>
<path d="M549.65 340.208H112.58V363.388H549.65V340.208Z" fill="#8F7A61"/>
<path d="M129.09 354.479V355.219H125.61V354.629L127.49 352.849C127.95 352.409 128.03 352.139 128.03 351.869C128.03 351.439 127.73 351.189 127.15 351.189C126.69 351.189 126.31 351.349 126.04 351.679L125.43 351.209C125.79 350.719 126.45 350.429 127.22 350.429C128.25 350.429 128.91 350.949 128.91 351.789C128.91 352.249 128.78 352.669 128.13 353.279L126.87 354.479H129.09Z" fill="white"/>
<path d="M129.57 352.139C129.57 351.799 129.82 351.579 130.12 351.579C130.42 351.579 130.67 351.799 130.67 352.139C130.67 352.459 130.42 352.699 130.12 352.699C129.82 352.699 129.57 352.459 129.57 352.139ZM129.57 354.709C129.57 354.369 129.82 354.149 130.12 354.149C130.42 354.149 130.67 354.369 130.67 354.709C130.67 355.029 130.42 355.269 130.12 355.269C129.82 355.269 129.57 355.029 129.57 354.709Z" fill="white"/>
<path d="M132.87 350.499V355.219H132V351.229H131V350.489H132.87V350.499Z" fill="white"/>
<path d="M138.02 354.149H137.18V355.219H136.33V354.149H133.74V353.539L136.07 350.499H137L134.81 353.409H136.36V352.459H137.18V353.409H138.02V354.149Z" fill="white"/>
<path d="M503.97 352.259H145.73V353.889H503.97V352.259Z" fill="white"/>
<path d="M257.41 350.499H145.46V354.859H257.41V350.499Z" fill="#CD9E64"/>
<path d="M261.03 353.079C261.03 356.089 258.59 358.529 255.58 358.529C252.57 358.529 250.13 356.089 250.13 353.079C250.13 350.069 252.57 347.629 255.58 347.629C258.58 347.629 261.03 350.069 261.03 353.079Z" fill="#CD9E64"/>
<path d="M512.99 353.029C512.99 353.969 512.23 354.559 511.26 354.559C509.97 354.559 509.22 353.729 509.22 352.209C509.22 350.589 510.16 349.699 511.53 349.699C512 349.699 512.45 349.799 512.77 349.999L512.45 350.659C512.19 350.489 511.88 350.429 511.55 350.429C510.66 350.429 510.1 350.979 510.1 352.059V352.069C510.38 351.739 510.84 351.579 511.36 351.579C512.3 351.579 512.99 352.139 512.99 353.029ZM512.14 353.069C512.14 352.579 511.77 352.269 511.2 352.269C510.63 352.269 510.24 352.609 510.24 353.079C510.24 353.519 510.59 353.879 511.22 353.879C511.76 353.869 512.14 353.559 512.14 353.069Z" fill="white"/>
<path d="M513.42 351.409C513.42 351.069 513.67 350.849 513.97 350.849C514.27 350.849 514.52 351.069 514.52 351.409C514.52 351.729 514.27 351.969 513.97 351.969C513.67 351.969 513.42 351.729 513.42 351.409ZM513.42 353.979C513.42 353.639 513.67 353.419 513.97 353.419C514.27 353.419 514.52 353.639 514.52 353.979C514.52 354.299 514.27 354.539 513.97 354.539C513.67 354.539 513.42 354.299 513.42 353.979Z" fill="white"/>
<path d="M515.09 352.129C515.09 350.579 515.94 349.699 517.06 349.699C518.19 349.699 519.04 350.579 519.04 352.129C519.04 353.679 518.19 354.559 517.06 354.559C515.94 354.559 515.09 353.679 515.09 352.129ZM518.15 352.129C518.15 350.989 517.71 350.459 517.06 350.459C516.42 350.459 515.97 350.989 515.97 352.129C515.97 353.269 516.42 353.799 517.06 353.799C517.71 353.799 518.15 353.269 518.15 352.129Z" fill="white"/>
<path d="M519.62 352.129C519.62 350.579 520.47 349.699 521.59 349.699C522.72 349.699 523.57 350.579 523.57 352.129C523.57 353.679 522.72 354.559 521.59 354.559C520.47 354.559 519.62 353.679 519.62 352.129ZM522.68 352.129C522.68 350.989 522.24 350.459 521.59 350.459C520.95 350.459 520.5 350.989 520.5 352.129C520.5 353.269 520.95 353.799 521.59 353.799C522.24 353.799 522.68 353.269 522.68 352.129Z" fill="white"/>
<path d="M531.2 351.839H529.56V347.129H534.26V348.759H531.2V351.839Z" fill="white"/>
<path d="M534.27 357.979H529.56V353.279H531.19V356.349H534.27V357.979Z" fill="white"/>
<path d="M541.76 357.979H537.06V356.349H540.13V353.269H541.76V357.979Z" fill="white"/>
<path d="M541.77 351.829H540.14V348.759H537.06V347.129H541.77V351.829Z" fill="white"/>
<path d="M172.45 137.659H146.72L133.85 159.939L146.72 182.229H172.45L185.32 159.939L172.45 137.659Z" fill="#EBEBEB"/>
<path d="M148.82 164.299C147.67 163.029 146.51 161.739 145.67 160.239C144.83 158.739 144.33 156.999 144.61 155.299C144.77 154.309 145.19 153.369 145.26 152.369C145.35 150.989 144.77 149.549 145.26 148.259C146.02 146.239 148.74 145.929 150.39 144.539C151.67 143.449 152.3 141.689 153.71 140.779C154.94 139.979 156.53 139.999 157.98 140.209C159.43 140.419 160.9 140.779 162.35 140.589C163.39 140.449 164.36 140.029 165.38 139.779C166.4 139.529 167.53 139.459 168.43 139.989C169.33 140.519 169.84 141.799 169.25 142.659C170.94 141.879 173.08 143.199 173.54 144.989C174 146.789 173.08 148.729 171.65 149.919C170.22 151.109 168.37 151.659 166.55 151.999C161.39 152.969 155.78 152.419 151.33 149.629" fill="#263238"/>
<path d="M172.68 169.809C172.51 166.619 171.61 160.079 170.74 154.169C169.8 147.809 164.13 143.249 157.72 143.679L157.08 143.719C150.24 144.579 147.15 150.869 148.2 157.689L150.21 182.239H166.91C166.91 182.239 166.52 177.929 166.51 177.889C166.51 177.879 173.04 176.409 172.68 169.809Z" fill="#D4BF9E"/>
<path d="M166.51 177.779C166.51 177.779 162.36 178.399 157.74 175.909C157.74 175.909 160.09 180.519 166.64 179.489L166.51 177.779Z" fill="#C9B28E"/>
<path d="M168.61 159.829C168.66 160.329 168.28 160.779 167.76 160.839C167.24 160.899 166.78 160.549 166.73 160.049C166.68 159.549 167.06 159.099 167.57 159.039C168.1 158.979 168.56 159.329 168.61 159.829Z" fill="#263238"/>
<path d="M169.53 157.489C169.42 157.619 168.67 157.139 167.66 157.209C166.65 157.269 165.94 157.839 165.82 157.719C165.76 157.669 165.87 157.439 166.17 157.179C166.47 156.919 167 156.659 167.63 156.619C168.26 156.579 168.81 156.779 169.13 156.999C169.47 157.209 169.59 157.429 169.53 157.489Z" fill="#263238"/>
<path d="M159.03 160.509C159.08 161.009 158.7 161.459 158.18 161.519C157.66 161.579 157.2 161.229 157.15 160.729C157.1 160.229 157.48 159.779 157.99 159.719C158.52 159.669 158.98 160.019 159.03 160.509Z" fill="#263238"/>
<path d="M159.57 158.339C159.46 158.469 158.71 157.989 157.7 158.059C156.69 158.119 155.98 158.689 155.86 158.569C155.8 158.519 155.91 158.289 156.22 158.029C156.52 157.769 157.05 157.509 157.68 157.469C158.31 157.429 158.86 157.629 159.18 157.849C159.51 158.069 159.63 158.279 159.57 158.339Z" fill="#263238"/>
<path d="M163.76 165.619C163.75 165.559 164.37 165.409 165.39 165.209C165.65 165.169 165.89 165.099 165.92 164.919C165.97 164.729 165.84 164.459 165.7 164.159C165.41 163.549 165.12 162.909 164.8 162.239C163.55 159.499 162.62 157.249 162.73 157.199C162.84 157.149 163.95 159.329 165.2 162.069C165.5 162.749 165.79 163.389 166.07 164.009C166.19 164.299 166.38 164.619 166.27 165.019C166.21 165.219 166.03 165.369 165.87 165.429C165.71 165.489 165.56 165.499 165.43 165.519C164.4 165.629 163.77 165.679 163.76 165.619Z" fill="#263238"/>
<path d="M159.57 154.349C159.49 154.629 158.47 154.569 157.29 154.789C156.1 154.989 155.17 155.399 154.99 155.169C154.91 155.059 155.06 154.789 155.43 154.489C155.8 154.199 156.39 153.899 157.1 153.779C157.81 153.649 158.47 153.719 158.92 153.869C159.37 154.019 159.6 154.219 159.57 154.349Z" fill="#263238"/>
<path d="M168.96 154.579C168.8 154.819 168.08 154.629 167.24 154.669C166.4 154.689 165.7 154.929 165.52 154.699C165.44 154.589 165.54 154.349 165.83 154.109C166.12 153.869 166.62 153.659 167.2 153.639C167.78 153.619 168.29 153.789 168.6 154.009C168.92 154.229 169.04 154.459 168.96 154.579Z" fill="#263238"/>
<path d="M149.07 162.529C148.95 162.489 144.44 161.489 144.89 165.999C145.34 170.499 150.22 169.039 150.21 168.909C150.2 168.769 149.07 162.529 149.07 162.529Z" fill="#D4BF9E"/>
<path d="M148.21 167.419C148.19 167.409 148.14 167.479 148.01 167.559C147.89 167.629 147.67 167.689 147.42 167.629C146.93 167.499 146.45 166.789 146.35 165.979C146.3 165.569 146.35 165.169 146.46 164.839C146.56 164.499 146.76 164.249 146.99 164.179C147.22 164.099 147.41 164.229 147.47 164.349C147.54 164.469 147.52 164.559 147.55 164.569C147.56 164.579 147.64 164.489 147.58 164.299C147.55 164.209 147.49 164.109 147.37 164.039C147.25 163.959 147.09 163.929 146.92 163.969C146.58 164.029 146.29 164.379 146.17 164.749C146.03 165.119 145.96 165.569 146.02 166.029C146.14 166.929 146.69 167.739 147.36 167.859C147.68 167.909 147.94 167.789 148.07 167.669C148.21 167.529 148.23 167.429 148.21 167.419Z" fill="#C9B28E"/>
<path d="M170.4 147.999C170.09 149.789 166.46 151.429 163.44 151.349C160.66 151.269 159.29 149.889 157.27 148.909C155.99 148.289 155.99 148.289 154.26 148.569C152.86 148.799 152.13 150.449 151.34 151.629C152.84 154.899 152.23 158.699 151.6 162.239C151.53 162.629 151.44 163.049 151.14 163.319C150.63 163.769 149.81 163.499 149.32 163.039C148.52 162.309 148.16 161.229 147.9 160.179C147.3 157.789 147.08 155.289 147.45 152.859C147.83 150.429 148.83 148.059 150.5 146.249C152.58 143.979 155.61 142.669 158.69 142.509C161.76 142.349 164.85 143.299 167.42 144.989C168.61 145.779 169.73 146.739 170.4 147.999Z" fill="#263238"/>
<path d="M164.42 167.899C163.65 167.539 162.89 167.189 162.12 166.829C161.99 166.769 161.85 166.709 161.7 166.719C161.54 166.739 161.41 166.859 161.3 166.989C160.77 167.629 160.63 168.609 161.05 169.339C161.46 170.069 162.43 170.449 163.2 170.129C164.01 169.789 164.41 168.849 164.47 167.969L164.42 167.899Z" fill="#D4BF9E"/>
<path d="M163.28 170.299C163.32 170.339 162.8 170.669 161.93 170.419C161.51 170.289 161.03 169.969 160.74 169.449C160.44 168.939 160.33 168.219 160.59 167.569C160.71 167.249 160.91 166.959 161.15 166.739C161.27 166.629 161.39 166.529 161.54 166.449C161.69 166.339 162 166.329 162.14 166.409C162.66 166.699 163.02 166.949 163.37 167.179C164.04 167.629 164.44 167.929 164.4 167.999C164.36 168.059 163.9 167.869 163.18 167.499C162.76 167.279 162.36 167.069 161.95 166.859C161.85 166.829 161.86 166.829 161.77 166.879C161.68 166.939 161.57 167.019 161.49 167.109C161.31 167.289 161.16 167.509 161.07 167.759C160.87 168.259 160.94 168.809 161.16 169.229C161.38 169.649 161.72 169.929 162.06 170.079C162.76 170.369 163.27 170.209 163.28 170.299Z" fill="#C9B28E"/>
<path d="M162.56 159.939C162.51 159.939 162.52 159.519 162.31 158.819C162.11 158.129 161.63 157.119 160.59 156.349C159.58 155.579 157.93 155.149 156.34 155.749C154.76 156.299 153.4 157.979 153.42 159.939C153.4 161.899 154.76 163.579 156.34 164.129C157.93 164.729 159.58 164.299 160.59 163.529C161.63 162.759 162.12 161.749 162.31 161.059C162.52 160.359 162.51 159.939 162.56 159.939C162.58 159.939 162.59 160.039 162.6 160.239C162.61 160.439 162.59 160.739 162.51 161.109C162.36 161.849 161.91 162.949 160.81 163.819C159.75 164.689 157.94 165.209 156.17 164.579C154.41 163.999 152.87 162.129 152.89 159.939C152.87 157.749 154.41 155.879 156.17 155.299C157.95 154.659 159.75 155.179 160.81 156.059C161.91 156.929 162.36 158.039 162.51 158.769C162.59 159.139 162.61 159.439 162.6 159.639C162.59 159.839 162.58 159.939 162.56 159.939Z" fill="#263238"/>
<path d="M173.79 159.499C173.74 159.499 173.74 159.089 173.55 158.409C173.36 157.739 172.89 156.759 171.87 156.009C170.89 155.259 169.28 154.849 167.73 155.429C166.19 155.959 164.87 157.599 164.89 159.509C164.87 161.419 166.2 163.049 167.73 163.589C169.28 164.169 170.89 163.759 171.87 163.009C172.89 162.259 173.36 161.279 173.55 160.609C173.75 159.909 173.74 159.499 173.79 159.499C173.81 159.499 173.82 159.599 173.83 159.799C173.84 159.989 173.82 160.279 173.75 160.649C173.61 161.369 173.17 162.439 172.1 163.299C171.07 164.149 169.31 164.659 167.57 164.039C165.85 163.469 164.35 161.649 164.37 159.509C164.35 157.369 165.85 155.549 167.57 154.979C169.3 154.359 171.06 154.869 172.1 155.719C173.17 156.569 173.61 157.649 173.75 158.369C173.83 158.729 173.84 159.019 173.83 159.219C173.82 159.399 173.81 159.499 173.79 159.499Z" fill="#263238"/>
<path d="M164.63 158.459C164.53 158.559 164.08 158.269 163.48 158.289C162.88 158.289 162.45 158.599 162.34 158.499C162.2 158.429 162.62 157.779 163.47 157.759C164.32 157.759 164.76 158.389 164.63 158.459Z" fill="#263238"/>
<path d="M153.44 159.269C153.53 159.389 152.65 160.179 151.49 161.049C150.33 161.919 149.31 162.529 149.23 162.409C149.14 162.289 150.02 161.499 151.18 160.629C152.34 159.769 153.35 159.159 153.44 159.269Z" fill="#263238"/>
<path d="M246.25 159.719C246.25 159.859 234.68 159.979 220.41 159.979C206.14 159.979 194.57 159.859 194.57 159.719C194.57 159.579 206.14 159.459 220.41 159.459C234.69 159.459 246.25 159.569 246.25 159.719Z" fill="#263238"/>
<path d="M222.36 165.119C222.36 165.259 216.22 165.379 208.64 165.379C201.06 165.379 194.92 165.259 194.92 165.119C194.92 164.979 201.06 164.859 208.64 164.859C216.21 164.859 222.36 164.979 222.36 165.119Z" fill="#263238"/>
<path d="M401.06 199.668C401.06 199.668 414.79 206.358 419.62 223.638C424.45 240.918 439.21 285.918 439.21 285.918C439.21 285.918 447.65 295.848 448.56 303.198C449.46 310.548 447.66 328.338 444.94 331.658C442.23 334.978 438.36 334.428 438.36 334.428L402.83 331.058L388.84 237.378L401.06 199.668Z" fill="#CD9E64"/>
<path d="M283.57 198.029C283.57 198.029 258.17 205.999 251.84 212.929L272.64 309.699L272.31 340.229H392.75C392.75 338.719 393.83 238.859 393.83 238.859L401.06 199.669L358.25 192.129L349.81 185.499L302.18 187.909L294.94 195.149L283.57 198.029Z" fill="#CD9E64"/>
<g opacity="0.3">
<path opacity="0.3" d="M293.22 281.979C292.85 281.159 292.32 280.269 291.44 280.089C289.99 279.789 289.02 281.509 288.53 282.899C284.62 293.979 279.44 304.169 272.71 313.789L272.4 328.649C279.42 322.739 286.34 316.409 290.82 308.399C295.29 300.399 297 290.349 293.22 281.979Z" fill="black"/>
</g>
<path d="M251.84 212.938C251.84 212.938 243.47 224.348 239.99 231.798C236.51 239.248 207.71 301.808 205.98 308.268C204.24 314.728 199.77 335.078 212.93 339.798H239.99L267.15 284.868L268.54 221.118L251.84 212.938Z" fill="#CD9E64"/>
<path d="M241.73 300.119C241.69 300.159 241.13 299.589 239.88 298.879C238.64 298.179 236.7 297.369 234.2 296.819C232.95 296.549 231.56 296.329 230.06 296.239C228.56 296.149 226.95 296.169 225.31 296.549C222.03 297.279 218.77 299.359 216.2 302.269C213.59 305.179 211.99 308.619 211.04 311.859C210.08 315.109 209.67 318.159 209.41 320.709C209.16 323.269 209.06 325.349 208.97 326.789C208.93 327.459 208.89 328.009 208.87 328.449C208.84 328.829 208.82 329.029 208.8 329.029C208.78 329.029 208.77 328.829 208.77 328.449C208.77 328.009 208.77 327.459 208.78 326.789C208.81 325.349 208.85 323.259 209.05 320.679C209.26 318.109 209.64 315.029 210.58 311.719C211.51 308.429 213.14 304.899 215.81 301.919C218.44 298.939 221.8 296.809 225.21 296.079C226.91 295.699 228.57 295.689 230.09 295.809C231.61 295.919 233.02 296.159 234.28 296.459C236.81 297.059 238.75 297.929 239.98 298.699C240.59 299.089 241.04 299.439 241.32 299.699C241.6 299.959 241.74 300.109 241.73 300.119Z" fill="#263238"/>
<path d="M228.89 289.178C228.89 289.138 229.21 289.088 229.8 289.028C230.39 288.958 231.25 288.938 232.31 288.998C233.37 289.048 234.63 289.228 236 289.548C237.36 289.888 238.84 290.388 240.31 291.078C241.77 291.788 243.09 292.618 244.21 293.468C245.32 294.338 246.25 295.198 246.96 295.998C247.67 296.788 248.2 297.468 248.51 297.968C248.83 298.468 249 298.748 248.97 298.768C248.89 298.828 248.16 297.738 246.69 296.248C245.96 295.498 245.02 294.678 243.92 293.858C242.8 293.048 241.51 292.248 240.08 291.558C238.64 290.878 237.21 290.388 235.88 290.028C234.54 289.688 233.32 289.478 232.28 289.388C230.21 289.168 228.9 289.278 228.89 289.178Z" fill="#263238"/>
<path d="M253.36 286.168C253.35 286.208 252.91 286.168 252.11 286.068C251.31 285.968 250.15 285.848 248.72 285.738C245.86 285.518 241.88 285.468 237.52 285.988C233.17 286.518 229.31 287.508 226.58 288.388C225.21 288.828 224.11 289.218 223.36 289.508C222.61 289.788 222.18 289.928 222.17 289.898C222.16 289.868 222.55 289.658 223.29 289.318C224.02 288.968 225.1 288.528 226.47 288.038C229.19 287.058 233.07 285.998 237.47 285.468C241.86 284.948 245.89 285.058 248.76 285.368C250.2 285.518 251.36 285.698 252.15 285.858C252.93 286.028 253.37 286.138 253.36 286.168Z" fill="#263238"/>
<path d="M330.44 232.718C330.43 232.728 330.34 232.618 330.16 232.388C329.97 232.128 329.72 231.798 329.42 231.398C328.76 230.478 327.84 229.208 326.7 227.628C324.36 224.328 321.11 219.738 317.27 214.328L317.69 214.268C316.23 218.548 314.62 223.278 312.93 228.248L312.82 228.558L312.55 228.378C312.37 228.268 312.18 228.138 311.99 228.018C309.75 226.598 307.77 224.888 306.1 223.038C304.43 221.178 303.04 219.198 301.89 217.218C299.59 213.248 298.2 209.338 297.26 206.028C296.32 202.708 295.83 199.948 295.51 198.058C295.35 197.148 295.23 196.428 295.13 195.878C295.08 195.628 295.03 195.448 295 195.318C294.95 195.208 294.93 195.138 294.94 195.138C295.05 195.088 295.34 196.138 295.71 198.028C296.1 199.908 296.64 202.648 297.62 205.938C298.6 209.218 300.01 213.088 302.31 216.988C303.46 218.938 304.83 220.878 306.48 222.708C308.14 224.518 310.08 226.198 312.27 227.588C312.46 227.708 312.65 227.828 312.82 227.938L312.44 228.078C314.15 223.108 315.77 218.388 317.24 214.118L317.39 213.668L317.66 214.058C321.43 219.508 324.63 224.138 326.93 227.468C328.03 229.078 328.9 230.378 329.54 231.318C329.82 231.738 330.04 232.078 330.22 232.348C330.38 232.578 330.45 232.708 330.44 232.718Z" fill="#263238"/>
<g opacity="0.3">
<path opacity="0.3" d="M361.8 278.908C360.68 290.098 363.15 301.618 368.76 311.358C374.36 321.108 382.58 329.788 392.81 334.458C393.14 324.528 392.66 312.828 392.99 302.898L361.8 278.908Z" fill="black"/>
</g>
<path d="M360.67 265.839C360.67 265.839 356.3 267.049 359.58 276.019C362.86 284.979 363.95 284.439 366.14 292.829C368.33 301.209 370.88 308.869 374.71 313.609C378.54 318.349 392.76 328.009 392.76 328.009L405.52 315.979C405.52 315.979 403.42 307.009 403.92 300.919C404.42 294.829 405.7 279.879 405.52 277.329C405.34 274.779 402.6 268.579 402.6 268.579V264.339L396.04 244.149C396.04 244.149 392.39 242.509 391.12 248.339L388.93 242.149C388.93 242.149 385.47 241.599 384.56 248.709C383.65 255.819 385.29 265.659 385.29 265.659L383.47 278.049L380.74 286.429L378.37 286.789C378.37 286.789 374.8 285.819 372.85 279.099C370.87 272.399 365.59 264.379 360.67 265.839Z" fill="#D4BF9E"/>
<path d="M401.23 297.538C401.22 297.538 401.2 297.378 401.17 297.078C401.15 296.728 401.12 296.288 401.08 295.738C401.01 294.518 400.92 292.828 400.81 290.718C400.61 286.368 400.34 280.308 400.02 273.238L400.08 273.388C399.49 272.688 398.45 272.478 397.5 272.718C396.53 272.948 395.67 273.548 395.13 274.448C394.02 276.238 393.95 278.578 393.61 280.838C392.92 285.948 392.26 290.808 391.66 295.248C391.36 297.458 391.04 299.568 390.6 301.518C390.18 303.468 389.59 305.248 389.02 306.838C388.46 308.428 387.96 309.868 387.65 311.168C387.34 312.468 387.21 313.608 387.24 314.548C387.28 316.428 387.83 317.388 387.74 317.408C387.72 317.418 387.62 317.178 387.43 316.708C387.28 316.228 387.07 315.508 387.03 314.558C386.97 313.608 387.07 312.428 387.36 311.108C387.65 309.788 388.13 308.328 388.67 306.728C389.22 305.128 389.78 303.378 390.18 301.438C390.59 299.508 390.89 297.408 391.18 295.198C391.77 290.758 392.41 285.898 393.09 280.788C393.25 279.648 393.37 278.528 393.57 277.398C393.77 276.278 394.08 275.158 394.7 274.198C395.28 273.218 396.3 272.498 397.38 272.248C398.45 271.978 399.72 272.218 400.45 273.098L400.5 273.168V273.248C400.74 280.318 400.95 286.378 401.1 290.738C401.15 292.848 401.2 294.538 401.23 295.768C401.24 296.318 401.24 296.758 401.24 297.108C401.26 297.378 401.25 297.538 401.23 297.538Z" fill="#C9B28E"/>
<path d="M394.26 274.568C394.23 274.578 394.03 274.178 393.72 273.428C393.42 272.678 393.02 271.568 392.65 270.158C392.28 268.758 391.93 267.048 391.73 265.138C391.63 264.178 391.56 263.158 391.68 262.098C391.79 261.038 392.1 259.918 392.78 258.968C393.36 258.148 394.18 257.488 395.11 257.218L395.31 257.158L395.41 257.338C397.26 260.598 398.86 263.478 399.99 265.548C400.51 266.518 400.94 267.328 401.3 267.998C401.6 268.578 401.75 268.898 401.72 268.918C401.69 268.938 401.49 268.638 401.14 268.088C400.75 267.448 400.27 266.658 399.7 265.718C398.49 263.688 396.83 260.848 394.96 257.598L395.26 257.718C394.46 257.958 393.73 258.528 393.21 259.278C392.6 260.138 392.3 261.158 392.19 262.158C392.08 263.168 392.13 264.158 392.22 265.098C392.39 266.988 392.69 268.678 393.02 270.078C393.34 271.478 393.68 272.598 393.92 273.368C394.15 274.128 394.29 274.558 394.26 274.568Z" fill="#C9B28E"/>
<path d="M391.21 276.208C391.17 276.208 391.13 275.798 391.09 275.048C391.06 274.188 391.01 273.128 390.96 271.878C390.87 269.198 390.79 265.498 390.73 261.408C390.7 257.318 390.54 253.608 390.89 250.918C391.06 249.578 391.33 248.508 391.57 247.798C391.81 247.078 392.01 246.718 392.04 246.728C392.13 246.758 391.48 248.308 391.25 250.968C391 253.618 391.21 257.318 391.24 261.408C391.3 265.498 391.32 269.198 391.32 271.878C391.31 273.128 391.29 274.188 391.28 275.058C391.27 275.798 391.24 276.208 391.21 276.208Z" fill="#C9B28E"/>
<path d="M380.42 309.818C380.35 309.758 381.14 308.818 382.13 307.108C382.63 306.258 383.14 305.198 383.61 303.998C384.06 302.778 384.47 301.408 384.75 299.938C385.01 298.458 385.1 297.038 385.1 295.738C385.08 294.438 384.97 293.268 384.8 292.308C384.47 290.368 384.05 289.208 384.14 289.178C384.17 289.168 384.3 289.448 384.5 289.968C384.71 290.488 384.94 291.268 385.16 292.238C385.38 293.218 385.53 294.408 385.58 295.728C385.61 297.058 385.52 298.518 385.26 300.028C384.98 301.538 384.55 302.938 384.06 304.168C383.55 305.388 382.99 306.458 382.44 307.298C381.9 308.138 381.41 308.788 381.03 309.198C380.66 309.628 380.45 309.848 380.42 309.818Z" fill="#C9B28E"/>
<path d="M402.82 303.549L413.89 307.389C413.89 307.389 424.46 301.919 431.75 307.389C439.04 312.859 445.37 327.269 443.37 333.099C443.37 333.099 438.34 339.309 434.51 340.219C430.68 341.129 415.8 337.529 409.61 336.219C403.4 334.909 392.74 327.979 392.74 327.979L402.82 303.549Z" fill="#D4BF9E"/>
<path d="M404.18 319.869C404.14 319.869 404.1 319.519 404.06 318.889C404.02 318.139 403.96 317.249 403.9 316.219C403.78 313.959 403.63 310.839 403.58 307.379C403.53 303.919 403.63 300.789 403.84 298.529C403.94 297.399 404.06 296.489 404.17 295.859C404.28 295.229 404.36 294.889 404.4 294.899C404.48 294.909 404.31 296.299 404.2 298.549C404.09 300.799 404.05 303.919 404.1 307.369C404.16 310.749 404.22 313.809 404.26 316.209C404.27 317.339 404.27 318.259 404.25 318.889C404.24 319.519 404.21 319.869 404.18 319.869Z" fill="#C9B28E"/>
<path d="M440.69 306.959C440.61 307.039 439.47 305.459 437.01 303.639C434.58 301.819 430.64 299.879 425.98 299.619C421.31 299.369 417.18 300.859 414.57 302.399C411.92 303.939 410.62 305.379 410.55 305.289C410.53 305.269 410.84 304.899 411.46 304.299C412.09 303.699 413.06 302.899 414.38 302.079C416.99 300.429 421.21 298.839 426.01 299.099C430.81 299.369 434.83 301.419 437.24 303.339C438.46 304.299 439.35 305.209 439.9 305.869C440.45 306.539 440.71 306.949 440.69 306.959Z" fill="#263238"/>
<path d="M439.27 297.729C439.2 297.839 437.72 296.338 434.66 295.188C431.65 294.008 426.98 293.469 422.19 294.819C419.8 295.489 417.61 296.438 415.74 297.498C413.87 298.568 412.31 299.738 411.07 300.798C409.83 301.858 408.88 302.788 408.23 303.428C407.58 304.078 407.22 304.428 407.19 304.408C407.17 304.388 407.48 303.989 408.09 303.289C408.7 302.599 409.61 301.628 410.84 300.518C412.06 299.408 413.62 298.188 415.51 297.078C417.4 295.978 419.62 294.988 422.06 294.308C426.97 292.928 431.76 293.548 434.8 294.838C436.34 295.468 437.48 296.199 438.21 296.759C438.59 297.029 438.84 297.288 439.02 297.448C439.19 297.618 439.28 297.719 439.27 297.729Z" fill="#263238"/>
<path d="M439.36 289.729C439.33 289.829 437.4 289.239 434.18 288.809C432.57 288.579 430.64 288.448 428.5 288.448C426.36 288.478 424.01 288.659 421.57 289.069C419.14 289.509 416.87 290.149 414.84 290.849C412.83 291.579 411.06 292.359 409.63 293.129C406.76 294.639 405.14 295.848 405.08 295.768C405.06 295.738 405.45 295.429 406.19 294.879C406.55 294.599 407.01 294.279 407.56 293.939C408.11 293.599 408.73 293.179 409.45 292.809C410.87 291.999 412.65 291.179 414.67 290.409C416.71 289.679 419.01 289.019 421.47 288.569C423.94 288.149 426.32 287.979 428.49 287.979C430.66 288.009 432.61 288.178 434.22 288.458C435.03 288.558 435.75 288.749 436.39 288.879C437.03 289.009 437.57 289.159 438 289.289C438.89 289.529 439.37 289.689 439.36 289.729Z" fill="#263238"/>
<path d="M354.52 191.799C354.52 191.799 355.03 192.759 355.29 194.739C355.56 196.709 355.52 199.669 354.87 203.329C354.54 205.159 354.1 207.169 353.44 209.319C352.75 211.469 351.71 213.669 350.53 215.969C348.15 220.569 345.14 225.579 341.67 230.929L341.26 231.559V230.809C341.25 227.279 341.25 223.569 341.24 219.709L341.63 219.899C338.65 222.299 335.52 224.829 332.29 227.439L332.37 227.319C330.21 234.179 328.78 241.819 328.22 249.769C327.31 261.939 328.04 273.579 328.62 284.139C329.11 294.709 329.43 304.239 329.76 312.229C330.08 320.229 330.37 326.689 330.61 331.159C330.74 333.369 330.84 335.099 330.91 336.299C330.95 336.869 330.98 337.309 331 337.639C331.02 337.939 331.01 338.099 331.01 338.099C331.01 338.099 330.98 337.949 330.94 337.649C330.91 337.329 330.86 336.879 330.8 336.319C330.69 335.149 330.55 333.409 330.4 331.179C330.1 326.709 329.75 320.249 329.39 312.249C329.03 304.249 328.61 294.729 328.13 284.169C327.53 273.619 326.78 261.949 327.69 249.739C328.26 241.759 329.69 234.079 331.88 227.179L331.9 227.109L331.96 227.059C335.19 224.459 338.33 221.939 341.31 219.539L341.7 219.229V219.729C341.69 223.579 341.69 227.289 341.68 230.829L341.27 230.709C348.14 220.059 353.73 210.799 354.59 203.309C355.28 199.679 355.36 196.749 355.13 194.779C355.03 193.789 354.84 193.059 354.72 192.559C354.59 192.059 354.52 191.799 354.52 191.799Z" fill="#263238"/>
<path d="M336.59 320.799L336.23 320.789C334.78 320.829 333.49 322.149 333.49 323.599C333.49 325.049 334.77 326.379 336.21 326.429C337.66 326.479 339.03 325.239 339.12 323.799C339.22 322.349 338.03 320.939 336.59 320.799Z" fill="white"/>
<path d="M336.59 282.259L336.23 282.249C334.78 282.289 333.49 283.609 333.49 285.059C333.49 286.509 334.77 287.839 336.21 287.889C337.66 287.939 339.03 286.699 339.12 285.259C339.22 283.809 338.03 282.399 336.59 282.259Z" fill="white"/>
<path d="M336.21 247.778C337.66 247.828 339.03 246.588 339.12 245.148C339.22 243.708 338.02 242.298 336.58 242.158L336.22 242.148C334.77 242.188 333.48 243.508 333.48 244.958C333.49 246.398 334.77 247.728 336.21 247.778Z" fill="white"/>
<path d="M293.04 146.639C289.53 142.759 286 138.829 283.44 134.269C280.88 129.709 279.36 124.379 280.21 119.219C280.7 116.199 281.99 113.329 282.19 110.279C282.47 106.079 280.7 101.689 282.19 97.7585C284.52 91.6085 292.8 90.6585 297.82 86.4085C301.73 83.0985 303.63 77.7285 307.94 74.9385C311.7 72.5085 316.53 72.5585 320.96 73.1885C325.39 73.8185 329.85 74.9385 334.29 74.3385C337.45 73.9085 340.43 72.6385 343.53 71.8685C346.63 71.0985 350.08 70.8985 352.84 72.4985C355.6 74.0985 357.15 78.0185 355.34 80.6485C360.48 78.2785 367.01 82.2885 368.42 87.7685C369.83 93.2485 367.01 99.1785 362.65 102.789C358.29 106.409 352.66 108.089 347.1 109.139C331.35 112.109 314.27 110.429 300.7 101.909" fill="#263238"/>
<path d="M348.4 199.588C347.63 193.628 347 188.658 346.96 188.038C346.96 188.038 366.88 183.558 365.78 163.418C365.25 153.688 362.52 133.718 359.85 115.688C356.98 96.3285 339.69 82.4285 320.16 83.7285L318.22 83.8585C297.36 86.4785 287.94 105.668 291.14 126.438L302.39 196.108C302.39 196.108 307.19 211.518 317.47 214.188L330.43 232.708L332.57 224.738L342.23 216.328C342.23 216.328 344.45 213.928 346.99 209.238C349.1 205.398 348.66 201.458 348.4 199.588Z" fill="#D4BF9E"/>
<path d="M346.98 187.739C346.98 187.739 334.33 189.629 320.24 182.039C320.24 182.039 327.41 196.109 347.37 192.949L346.98 187.739Z" fill="#C9B28E"/>
<path d="M353.39 132.999C353.55 134.509 352.39 135.889 350.81 136.089C349.23 136.279 347.83 135.209 347.67 133.699C347.52 132.189 348.67 130.799 350.24 130.609C351.83 130.409 353.23 131.479 353.39 132.999Z" fill="#263238"/>
<path d="M356.2 125.859C355.87 126.259 353.58 124.789 350.49 125.009C347.4 125.179 345.23 126.919 344.87 126.569C344.69 126.409 345.01 125.709 345.95 124.929C346.88 124.149 348.49 123.339 350.42 123.219C352.35 123.099 354.02 123.699 355 124.369C355.99 125.019 356.36 125.679 356.2 125.859Z" fill="#263238"/>
<path d="M324.17 135.089C324.33 136.599 323.17 137.979 321.59 138.179C320.01 138.369 318.61 137.299 318.45 135.789C318.3 134.279 319.45 132.889 321.02 132.699C322.61 132.499 324.01 133.569 324.17 135.089Z" fill="#263238"/>
<path d="M325.83 128.469C325.5 128.869 323.21 127.399 320.12 127.619C317.03 127.789 314.86 129.529 314.5 129.179C314.32 129.019 314.64 128.319 315.58 127.539C316.5 126.759 318.12 125.949 320.04 125.829C321.97 125.709 323.64 126.309 324.62 126.979C325.63 127.629 326 128.289 325.83 128.469Z" fill="#263238"/>
<path d="M338.59 150.659C338.56 150.489 340.46 150.019 343.55 149.419C344.33 149.289 345.07 149.079 345.17 148.529C345.32 147.949 344.93 147.119 344.49 146.219C343.62 144.359 342.71 142.409 341.75 140.359C337.93 132.009 335.11 125.129 335.45 124.979C335.79 124.829 339.16 131.469 342.97 139.819C343.89 141.879 344.77 143.839 345.61 145.719C345.97 146.599 346.55 147.579 346.23 148.789C346.06 149.389 345.51 149.859 345.01 150.029C344.51 150.219 344.07 150.259 343.68 150.309C340.56 150.689 338.62 150.829 338.59 150.659Z" fill="#263238"/>
<path d="M325.82 116.288C325.57 117.148 322.46 116.958 318.86 117.638C315.25 118.248 312.39 119.508 311.86 118.778C311.62 118.428 312.08 117.608 313.21 116.708C314.33 115.818 316.15 114.918 318.31 114.528C320.47 114.148 322.49 114.358 323.85 114.808C325.21 115.268 325.92 115.888 325.82 116.288Z" fill="#263238"/>
<path d="M354.46 116.978C353.96 117.718 351.78 117.128 349.22 117.268C346.65 117.318 344.52 118.058 343.97 117.358C343.73 117.018 344.02 116.288 344.93 115.558C345.82 114.838 347.35 114.188 349.11 114.118C350.87 114.058 352.44 114.588 353.38 115.248C354.33 115.918 354.68 116.618 354.46 116.978Z" fill="#263238"/>
<path d="M293.79 141.238C293.44 141.108 279.69 138.068 281.05 151.808C282.41 165.538 297.29 161.068 297.28 160.668C297.26 160.268 293.79 141.238 293.79 141.238Z" fill="#D4BF9E"/>
<path d="M291.19 156.158C291.13 156.118 290.97 156.348 290.58 156.578C290.2 156.798 289.54 156.988 288.8 156.788C287.3 156.398 285.85 154.218 285.54 151.748C285.38 150.498 285.53 149.288 285.87 148.258C286.19 147.208 286.77 146.448 287.49 146.248C288.2 146.008 288.76 146.398 288.97 146.768C289.19 147.138 289.13 147.418 289.21 147.428C289.25 147.458 289.48 147.168 289.32 146.608C289.24 146.338 289.04 146.028 288.69 145.798C288.33 145.558 287.84 145.478 287.33 145.578C286.28 145.758 285.42 146.828 285.04 147.958C284.6 149.098 284.41 150.468 284.59 151.868C284.95 154.628 286.62 157.078 288.67 157.448C289.66 157.608 290.44 157.238 290.82 156.868C291.19 156.488 291.24 156.178 291.19 156.158Z" fill="#C9B28E"/>
<path d="M358.85 96.9285C357.91 102.399 346.82 107.399 337.63 107.139C329.16 106.889 324.97 102.689 318.81 99.6985C314.91 97.8085 314.91 97.8085 309.63 98.6685C305.35 99.3685 303.14 104.409 300.73 108.019C305.3 117.989 303.45 129.579 301.52 140.379C301.31 141.569 301.04 142.859 300.13 143.659C298.59 145.019 296.08 144.209 294.57 142.819C292.14 140.589 291.03 137.289 290.24 134.099C288.43 126.819 287.73 119.189 288.88 111.769C290.03 104.349 293.1 97.1485 298.17 91.6085C304.5 84.6885 313.76 80.6985 323.13 80.2185C332.5 79.7385 341.91 82.6385 349.75 87.7785C353.39 90.1485 356.79 93.0885 358.85 96.9285Z" fill="#263238"/>
<path d="M340.61 157.609C338.28 156.519 335.94 155.429 333.61 154.349C333.21 154.159 332.78 153.969 332.34 154.029C331.84 154.099 331.45 154.469 331.13 154.849C329.51 156.819 329.1 159.779 330.35 161.999C331.61 164.219 334.56 165.389 336.92 164.409C339.4 163.379 340.61 160.499 340.8 157.819L340.61 157.609Z" fill="#C9B28E"/>
<path d="M337.14 164.909C337.16 164.969 336.82 165.169 336.12 165.319C335.43 165.449 334.35 165.509 333.11 165.099C331.88 164.709 330.49 163.749 329.63 162.209C328.76 160.709 328.44 158.599 329.2 156.689C329.56 155.739 330.13 154.899 330.82 154.239C331.17 153.909 331.54 153.629 331.96 153.379C332.18 153.259 332.45 153.139 332.77 153.119C333.08 153.099 333.36 153.179 333.58 153.279C334.04 153.479 334.33 153.699 334.67 153.899C335 154.099 335.31 154.299 335.62 154.489C336.22 154.869 336.79 155.219 337.32 155.559C339.4 156.879 340.64 157.749 340.57 157.879C340.5 157.999 339.12 157.349 336.95 156.199C336.4 155.899 335.81 155.579 335.18 155.239C334.86 155.059 334.53 154.879 334.2 154.699C333.87 154.519 333.5 154.289 333.21 154.179C332.89 154.069 332.75 154.079 332.44 154.249C332.13 154.439 331.8 154.699 331.52 154.979C330.94 155.549 330.47 156.259 330.16 157.069C329.52 158.679 329.75 160.429 330.46 161.759C331.16 163.099 332.29 163.979 333.35 164.419C334.42 164.869 335.4 164.929 336.06 164.929C336.74 164.899 337.12 164.829 337.14 164.909Z" fill="#263238"/>
<path d="M334.94 133.339C334.86 133.349 334.95 132.059 334.39 129.859C333.84 127.709 332.4 124.539 329.16 122.079C327.55 120.879 325.53 119.869 323.2 119.459C320.89 119.069 318.27 119.139 315.79 120.089C314.54 120.529 313.33 121.179 312.23 122.009C311.11 122.819 310.09 123.829 309.25 124.999C307.52 127.309 306.54 130.269 306.51 133.319C306.54 136.369 307.51 139.339 309.25 141.649C310.09 142.819 311.11 143.829 312.23 144.649C313.34 145.479 314.54 146.139 315.79 146.569C318.27 147.519 320.89 147.589 323.2 147.199C325.53 146.789 327.55 145.779 329.16 144.579C332.4 142.129 333.84 138.959 334.39 136.799C334.95 134.619 334.85 133.339 334.94 133.339C334.95 133.339 334.95 133.419 334.95 133.569C334.95 133.759 334.94 133.979 334.94 134.249C334.94 134.549 334.92 134.919 334.85 135.359C334.79 135.799 334.74 136.299 334.58 136.859C334.35 137.979 333.84 139.309 333.03 140.729C332.21 142.139 331.02 143.619 329.38 144.879C327.75 146.129 325.68 147.189 323.28 147.629C320.9 148.049 318.2 147.989 315.63 147.029C314.33 146.589 313.08 145.909 311.93 145.049C310.77 144.209 309.71 143.169 308.84 141.959C307.04 139.569 306.02 136.499 305.99 133.329C306.02 130.159 307.04 127.089 308.84 124.699C309.71 123.489 310.77 122.449 311.93 121.609C313.08 120.759 314.33 120.079 315.63 119.639C318.2 118.669 320.9 118.609 323.28 119.039C325.68 119.479 327.75 120.549 329.38 121.789C331.02 123.049 332.21 124.529 333.03 125.939C333.84 127.359 334.35 128.689 334.58 129.809C334.74 130.359 334.79 130.869 334.85 131.309C334.92 131.749 334.94 132.119 334.94 132.419C334.94 132.689 334.95 132.919 334.95 133.099C334.95 133.259 334.94 133.339 334.94 133.339Z" fill="#263238"/>
<path d="M369.18 131.998C369.1 132.008 369.19 130.748 368.64 128.608C368.1 126.508 366.7 123.418 363.54 121.038C361.98 119.868 360.01 118.878 357.74 118.488C355.49 118.108 352.94 118.178 350.52 119.108C349.3 119.528 348.13 120.168 347.05 120.978C345.96 121.768 344.97 122.758 344.15 123.898C342.46 126.148 341.51 129.028 341.48 132.008C341.51 134.988 342.46 137.868 344.14 140.118C344.96 141.258 345.95 142.238 347.04 143.038C348.12 143.848 349.29 144.488 350.51 144.908C352.93 145.828 355.47 145.908 357.73 145.518C360 145.118 361.97 144.128 363.53 142.968C366.69 140.578 368.09 137.498 368.62 135.398C369.19 133.238 369.1 131.988 369.18 131.998C369.2 131.998 369.2 132.308 369.19 132.888C369.19 133.178 369.18 133.548 369.11 133.968C369.05 134.398 369 134.888 368.85 135.428C368.36 137.568 366.99 140.758 363.78 143.248C362.19 144.468 360.17 145.508 357.83 145.928C355.51 146.338 352.88 146.278 350.37 145.338C349.11 144.908 347.89 144.248 346.77 143.408C345.64 142.588 344.61 141.578 343.76 140.398C342 138.068 341.01 135.078 340.99 131.988C341.02 128.898 342.01 125.908 343.77 123.578C344.62 122.398 345.65 121.378 346.78 120.568C347.9 119.738 349.12 119.078 350.38 118.648C352.89 117.708 355.52 117.648 357.84 118.058C360.18 118.488 362.2 119.528 363.79 120.738C367 123.228 368.37 126.408 368.86 128.558C369.01 129.098 369.07 129.588 369.12 130.018C369.19 130.438 369.21 130.808 369.2 131.098C369.2 131.688 369.2 131.998 369.18 131.998Z" fill="#263238"/>
<path d="M341.24 128.829C341.18 128.889 340.85 128.609 340.25 128.319C339.65 128.029 338.75 127.749 337.73 127.769C336.72 127.779 335.82 128.099 335.23 128.409C334.63 128.719 334.32 129.009 334.26 128.959C334.21 128.919 334.44 128.519 335.04 128.099C335.63 127.679 336.59 127.269 337.72 127.249C338.84 127.229 339.82 127.599 340.43 127.999C341.03 128.409 341.28 128.789 341.24 128.829Z" fill="#263238"/>
<path d="M307.12 131.308C307.21 131.428 304.4 133.668 300.85 136.308C297.3 138.958 294.36 141.008 294.27 140.898C294.18 140.778 296.99 138.548 300.54 135.898C304.09 133.238 307.04 131.188 307.12 131.308Z" fill="#263238"/>
<g opacity="0.3">
<path opacity="0.3" d="M295.29 196.388C293.9 209.958 299.06 224.288 309.94 232.508C310.79 233.158 311.87 233.788 312.87 233.428C313.57 233.178 314.02 232.508 314.39 231.858C317.49 226.488 318.53 220.558 317.64 214.418C315.92 218.958 314.44 223.408 312.7 228.158C303.21 222.408 297.3 210.168 295.29 196.388Z" fill="black"/>
</g>
<path opacity="0.3" d="M332.14 227.248L340.13 224.328L341.45 237.838C341.45 237.838 350.07 222.128 353.64 214.958C357.21 207.788 355.37 195.138 355.37 195.138C355.37 195.138 356.65 206.158 348.01 220.208L341.49 230.808V219.708L332.14 227.248Z" fill="black"/>
<g opacity="0.3">
<path opacity="0.3" d="M239.22 295.909C235.66 294.229 231.56 293.999 227.65 294.459C223.52 294.939 219.37 296.209 216.13 298.819C212.89 301.429 210.7 305.549 211.1 309.689L211.5 309.749C214.29 302.209 219.83 296.719 226.98 296.049C234.13 295.389 241.1 298.569 246.01 303.809C245.53 299.889 242.78 297.589 239.22 295.909Z" fill="black"/>
</g>
<g opacity="0.3">
<path opacity="0.3" d="M441.21 303.619C438.53 300.729 434.77 298.979 430.89 298.299C424.08 297.109 416.77 299.229 411.64 303.869L413.16 302.629C417.03 300.359 421.49 299.019 425.98 299.149C430.46 299.279 434.95 300.939 438.2 304.029C441.19 306.879 442.98 310.719 444.69 314.469C445.36 310.589 443.88 306.509 441.21 303.619Z" fill="black"/>
</g>
<path d="M389.72 240.879C389.69 240.869 389.82 240.479 390.08 239.789C390.39 238.999 390.77 238.029 391.22 236.879C392.19 234.429 393.51 231.039 394.92 227.279C396.32 223.509 397.53 220.079 398.4 217.589C398.81 216.429 399.16 215.449 399.44 214.649C399.69 213.959 399.85 213.579 399.88 213.589C399.91 213.599 399.82 213.999 399.63 214.709C399.44 215.419 399.14 216.449 398.75 217.709C397.97 220.229 396.81 223.689 395.41 227.459C394.01 231.229 392.62 234.599 391.57 237.019C391.04 238.229 390.6 239.199 390.28 239.869C389.94 240.529 389.75 240.889 389.72 240.879Z" fill="#263238"/>
<path d="M263.65 241.859C263.51 241.889 262.42 237.129 261.22 231.229C260.02 225.329 259.16 220.529 259.3 220.499C259.44 220.469 260.53 225.229 261.73 231.129C262.93 237.029 263.79 241.829 263.65 241.859Z" fill="#263238"/>
<path d="M261.76 301.349C262.08 301.509 258.1 270.189 258.1 270.189C258.1 270.189 260.61 246.419 262.02 245.319L262.06 236.929C262.06 236.929 265.95 234.569 266.99 238.379C266.99 238.379 270.44 235.389 271.04 242.509C271.64 249.639 271.77 256.919 271.77 256.919L279.44 276.099L280.7 276.739C280.7 276.739 282.35 261.709 283.31 259.499C284.27 257.289 284.93 251.909 288.56 252.719C292.2 253.529 292.5 256.539 291.85 261.439C291.2 266.339 290.38 271.399 290.69 274.569C290.99 277.739 292.43 284.709 291.99 290.239C291.55 295.779 288.52 301.619 285.33 305.719C282.15 309.819 276.07 318.299 272.76 320.859C271.6 321.749 261.76 301.349 261.76 301.349Z" fill="#D4BF9E"/>
<path d="M265.63 275.859C265.59 275.859 265.6 275.379 265.65 274.519C265.72 273.559 265.8 272.339 265.9 270.879C266.13 267.809 266.49 263.569 266.92 258.889C267.14 256.559 267.35 254.329 267.54 252.299C267.64 251.289 267.7 250.339 267.57 249.469C267.45 248.599 267.11 247.849 266.61 247.309C265.6 246.209 264.29 245.929 263.48 245.939C262.63 245.929 262.19 246.159 262.17 246.109C262.16 246.089 262.27 246.039 262.48 245.949C262.7 245.869 263.03 245.769 263.47 245.739C264.33 245.679 265.73 245.899 266.88 247.069C267.45 247.649 267.85 248.489 267.99 249.409C268.15 250.339 268.09 251.329 268.01 252.349C267.83 254.389 267.63 256.609 267.43 258.949C267 263.629 266.58 267.859 266.26 270.919C266.09 272.369 265.95 273.589 265.84 274.539C265.75 275.389 265.67 275.859 265.63 275.859Z" fill="#C9B28E"/>
<path d="M269.76 263.049C269.83 263.109 268.98 263.859 268.4 265.519C267.78 267.149 267.56 269.609 267.12 272.279C266.71 274.959 266.3 277.379 265.99 279.119C265.67 280.869 265.44 281.939 265.37 281.929C265.3 281.919 265.4 280.819 265.63 279.059C265.85 277.299 266.2 274.869 266.61 272.189C267.04 269.529 267.32 267.059 268.06 265.369C268.41 264.529 268.83 263.919 269.17 263.539C269.5 263.179 269.74 263.029 269.76 263.049Z" fill="#C9B28E"/>
<path d="M266.94 237.959C266.98 237.949 267.07 238.299 267.21 238.949C267.35 239.589 267.52 240.519 267.71 241.679C268.09 243.989 268.51 247.199 268.78 250.769C269.04 254.339 269.1 257.579 269.06 259.919C269.04 261.089 269.01 262.039 268.96 262.689C268.92 263.339 268.88 263.699 268.84 263.699C268.76 263.699 268.75 262.249 268.69 259.919C268.63 257.579 268.52 254.359 268.26 250.809C268 247.259 267.64 244.049 267.35 241.729C267.06 239.409 266.86 237.979 266.94 237.959Z" fill="#C9B28E"/>
<path d="M289.07 267.329C289.15 267.449 287.95 267.999 286.49 267.549C285.02 267.109 284.34 265.979 284.47 265.929C284.59 265.829 285.35 266.679 286.64 267.059C287.92 267.459 289.03 267.179 289.07 267.329Z" fill="#C9B28E"/>
<path d="M262.19 297.449L241.92 305.969H229.84C229.84 305.969 217.9 309.699 216.06 320.889C214.22 332.089 213.96 337.849 219.21 339.229C224.46 340.609 239.29 340.769 246.64 338.329C253.99 335.889 273.24 320.349 273.24 320.349L275.1 309.109L262.19 297.449Z" fill="#D4BF9E"/>
<path d="M266.94 309.819C266.91 309.839 266.71 309.659 266.36 309.289C266 308.939 265.56 308.359 265.04 307.619C264.04 306.119 262.94 303.849 262.21 301.209C261.45 298.569 261.13 296.099 260.96 294.319C260.81 292.539 260.81 291.429 260.88 291.419C260.96 291.409 261.08 292.509 261.32 294.269C261.58 296.029 261.96 298.459 262.7 301.059C263.42 303.669 264.44 305.899 265.34 307.419C266.27 308.939 267.01 309.759 266.94 309.819Z" fill="#C9B28E"/>
<path d="M275.76 313.379C275.65 313.339 276.56 311.799 276.91 309.029C277.08 307.659 277.06 305.989 276.67 304.199C276.28 302.409 275.43 300.569 274.19 298.849C272.96 297.119 271.57 295.619 270.41 294.169C269.23 292.719 268.29 291.309 267.67 290.029C267.05 288.749 266.76 287.619 266.65 286.829C266.55 286.039 266.59 285.599 266.62 285.599C266.72 285.579 266.69 287.389 268 289.859C268.64 291.089 269.6 292.449 270.78 293.859C271.96 295.279 273.36 296.779 274.62 298.539C275.89 300.289 276.78 302.229 277.15 304.079C277.53 305.929 277.5 307.659 277.28 309.059C277.06 310.469 276.67 311.559 276.35 312.279C276.2 312.639 276.05 312.909 275.94 313.089C275.84 313.299 275.78 313.389 275.76 313.379Z" fill="#C9B28E"/>
<path d="M244.52 264.569C244.39 264.639 242.18 260.609 239.58 255.579C236.98 250.549 234.98 246.419 235.1 246.349C235.23 246.279 237.44 250.309 240.04 255.339C242.64 260.379 244.64 264.509 244.52 264.569Z" fill="white"/>
<path d="M277.3 228.089C277.17 228.029 278.54 224.679 280.35 220.599C282.17 216.519 283.75 213.259 283.88 213.319C284.01 213.379 282.64 216.729 280.83 220.809C279.01 224.879 277.43 228.139 277.3 228.089Z" fill="white"/>
<path d="M309.39 251.769C309.28 251.859 307.22 249.559 304.8 246.629C302.37 243.699 300.5 241.249 300.61 241.159C300.72 241.069 302.78 243.369 305.2 246.299C307.63 249.229 309.5 251.679 309.39 251.769Z" fill="white"/>
<path d="M302.01 284.338C301.89 284.258 303.44 281.918 305.47 279.118C307.5 276.318 309.24 274.118 309.35 274.208C309.47 274.288 307.92 276.628 305.89 279.428C303.86 282.218 302.13 284.418 302.01 284.338Z" fill="white"/>
<path d="M292.07 330.349C292.01 330.379 291.55 329.619 290.9 328.339C290.24 327.059 289.39 325.269 288.54 323.259C287.68 321.239 286.99 319.389 286.52 318.029C286.06 316.669 285.82 315.809 285.89 315.789C285.96 315.769 286.32 316.579 286.87 317.899C287.5 319.399 288.22 321.139 289.02 323.059C289.84 324.969 290.59 326.689 291.24 328.189C291.8 329.489 292.14 330.309 292.07 330.349Z" fill="white"/>
<path d="M320.31 310.789C320.28 310.929 317.56 310.519 314.24 309.879C310.91 309.239 308.24 308.599 308.27 308.459C308.3 308.319 311.02 308.729 314.34 309.369C317.66 310.009 320.34 310.649 320.31 310.789Z" fill="white"/>
<path d="M342.21 267.799C342.1 267.699 344.7 264.739 348 261.169C351.3 257.609 354.07 254.799 354.17 254.899C354.28 254.999 351.68 257.959 348.38 261.529C345.08 265.089 342.32 267.899 342.21 267.799Z" fill="white"/>
<path d="M364.25 325.129C364.14 325.219 360.91 321.478 357.03 316.768C353.15 312.058 350.1 308.168 350.21 308.078C350.32 307.988 353.55 311.729 357.43 316.439C361.31 321.149 364.36 325.039 364.25 325.129Z" fill="white"/>
<path d="M227.46 300.698C227.53 300.838 224.58 302.338 221.36 304.808C218.13 307.258 215.9 309.718 215.78 309.608C215.73 309.568 216.22 308.898 217.14 307.908C218.05 306.928 219.41 305.648 221.04 304.398C222.67 303.158 224.27 302.188 225.46 301.558C226.66 300.938 227.43 300.638 227.46 300.698Z" fill="white"/>
<path d="M235.7 278.598C235.82 278.678 234.77 280.468 233.35 282.598C231.93 284.728 230.69 286.388 230.57 286.308C230.45 286.228 231.5 284.438 232.92 282.308C234.34 280.178 235.58 278.518 235.7 278.598Z" fill="white"/>
<path d="M254.27 300.299C254.16 300.369 253.11 298.619 252.57 296.189C252.01 293.769 252.2 291.739 252.33 291.749C252.49 291.749 252.54 293.719 253.08 296.069C253.6 298.429 254.41 300.229 254.27 300.299Z" fill="white"/>
<path d="M257.02 231.379C257.04 231.519 255.32 231.889 253.17 232.189C251.02 232.499 249.26 232.629 249.24 232.479C249.22 232.339 250.94 231.969 253.09 231.669C255.24 231.369 257 231.229 257.02 231.379Z" fill="white"/>
<path d="M270.96 206.649C271.03 206.779 269.52 207.749 267.59 208.819C265.66 209.889 264.03 210.659 263.96 210.529C263.89 210.399 265.4 209.429 267.33 208.359C269.27 207.289 270.89 206.529 270.96 206.649Z" fill="white"/>
<path d="M310.17 217.099C310.06 217.189 308.33 215.109 306.31 212.459C304.29 209.809 302.75 207.599 302.87 207.509C302.98 207.419 304.71 209.499 306.73 212.149C308.74 214.789 310.28 217.009 310.17 217.099Z" fill="white"/>
<path d="M359.94 241.959C359.84 242.049 358.02 240.179 356.34 237.459C354.64 234.739 353.77 232.289 353.89 232.239C354.03 232.179 355.11 234.509 356.78 237.189C358.44 239.859 360.06 241.859 359.94 241.959Z" fill="white"/>
<path d="M378.94 248.218C379.07 248.278 378.15 250.598 376.88 253.388C375.61 256.188 374.48 258.408 374.34 258.348C374.21 258.288 375.13 255.968 376.4 253.178C377.67 250.378 378.81 248.158 378.94 248.218Z" fill="white"/>
<path d="M381.59 222.289C381.48 222.379 379.22 219.849 376.54 216.629C373.86 213.409 371.78 210.719 371.89 210.629C372 210.539 374.26 213.069 376.94 216.289C379.62 219.519 381.7 222.199 381.59 222.289Z" fill="white"/>
<path d="M352.58 201.229C352.44 201.239 352.23 199.069 352.13 196.379C352.02 193.699 352.06 191.519 352.2 191.509C352.34 191.499 352.55 193.669 352.65 196.359C352.75 199.039 352.72 201.219 352.58 201.229Z" fill="white"/>
<path d="M376.24 199.919C376.26 200.059 373.49 200.549 370.07 201.009C366.64 201.469 363.85 201.719 363.83 201.579C363.81 201.439 366.57 200.949 370 200.489C373.42 200.029 376.22 199.769 376.24 199.919Z" fill="white"/>
<path d="M413.5 227.289C413.37 227.349 411.71 224.179 409.78 220.209C407.86 216.239 406.4 212.959 406.53 212.899C406.66 212.839 408.32 216.009 410.25 219.979C412.17 223.949 413.63 227.219 413.5 227.289Z" fill="white"/>
<path d="M407.22 250.938C407.08 250.908 407.47 248.358 408.09 245.248C408.71 242.128 409.33 239.628 409.47 239.658C409.61 239.688 409.22 242.238 408.6 245.348C407.98 248.458 407.36 250.958 407.22 250.938Z" fill="white"/>
<path d="M424.5 269.579C424.36 269.629 423.04 266.189 421.53 261.899C420.03 257.609 418.92 254.089 419.06 254.039C419.2 253.989 420.52 257.429 422.03 261.719C423.53 266.019 424.64 269.529 424.5 269.579Z" fill="white"/>
<path d="M422.1 280.479C422.07 280.609 419.68 280.109 417.05 278.669C414.41 277.249 412.68 275.519 412.78 275.429C412.88 275.309 414.72 276.829 417.3 278.219C419.86 279.619 422.14 280.329 422.1 280.479Z" fill="white"/>
<path d="M444.24 305.349C444.11 305.409 443.31 303.889 442.45 301.959C441.59 300.029 441 298.419 441.13 298.359C441.26 298.299 442.06 299.819 442.92 301.749C443.78 303.679 444.37 305.289 444.24 305.349Z" fill="white"/>
<path d="M313.48 340.029C313.34 340.049 312.99 338.059 312.7 335.599C312.41 333.139 312.3 331.129 312.44 331.109C312.58 331.089 312.93 333.079 313.22 335.539C313.51 337.999 313.62 340.009 313.48 340.029Z" fill="white"/>
<path d="M381.41 338.309C381.27 338.279 381.56 336.339 382.06 333.979C382.56 331.619 383.08 329.729 383.22 329.759C383.36 329.789 383.07 331.729 382.57 334.089C382.07 336.449 381.55 338.339 381.41 338.309Z" fill="white"/>
<path d="M394.43 140.019L403.21 124.539C399.32 118.229 397.08 110.809 397.08 102.859C397.08 79.9887 415.62 61.4487 438.49 61.4487C461.36 61.4487 479.9 79.9887 479.9 102.859C479.9 125.729 461.36 144.269 438.49 144.269C428.94 144.269 420.15 141.029 413.15 135.599L413.16 135.619L394.43 140.019Z" fill="#FAFAFA"/>
<path d="M394.43 140.019C395.32 139.819 401.25 138.459 413.19 135.729L413.38 135.689L413.26 135.529L413.25 135.509L413.07 135.689C415.43 137.519 418.26 139.319 421.59 140.829C424.92 142.309 428.74 143.509 432.95 144.069C435.05 144.339 437.25 144.509 439.51 144.399C440.64 144.339 441.79 144.309 442.95 144.209C444.1 144.039 445.27 143.859 446.45 143.679C451.14 142.749 455.93 140.969 460.41 138.199C464.88 135.429 469.02 131.679 472.34 127.069C475.65 122.459 478.16 116.999 479.34 111.069C480.5 105.139 480.41 98.7887 478.85 92.6387C477.28 86.5087 474.35 80.5287 469.97 75.6087L468.28 73.7487C467.72 73.1187 467.06 72.6087 466.46 72.0287C465.83 71.4887 465.26 70.8687 464.58 70.3887L462.59 68.8987C461.95 68.3787 461.24 67.9587 460.53 67.5387C459.83 67.1087 459.13 66.6887 458.43 66.2587C457.69 65.8987 456.96 65.5487 456.23 65.1887C455.49 64.8487 454.78 64.4487 454.01 64.1987C447.99 61.8087 441.58 60.8987 435.44 61.3487C429.3 61.7887 423.43 63.5487 418.4 66.3887C413.35 69.1987 409.09 72.9587 405.8 77.1487C402.5 81.3487 400.18 85.9687 398.74 90.5787C397.31 95.2087 396.92 99.7987 396.94 104.049C397.06 108.309 397.84 112.239 398.97 115.679C400.1 119.129 401.59 122.099 403.12 124.589V124.469C397.57 134.409 394.86 139.259 394.43 140.019C394.87 139.259 397.64 134.449 403.32 124.599L403.36 124.539L403.32 124.479C401.81 121.989 400.35 119.029 399.24 115.599C398.14 112.169 397.38 108.279 397.28 104.049C397.28 99.8287 397.68 95.2887 399.11 90.7087C400.55 86.1487 402.86 81.5787 406.13 77.4287C409.39 73.2887 413.61 69.5787 418.61 66.8087C423.59 64.0087 429.4 62.2787 435.46 61.8487C441.52 61.4187 447.86 62.3187 453.8 64.6787C454.56 64.9187 455.26 65.3187 455.99 65.6587C456.71 66.0087 457.44 66.3587 458.16 66.7187C458.85 67.1387 459.54 67.5587 460.23 67.9787C460.93 68.3987 461.63 68.8087 462.26 69.3287L464.22 70.7987C464.89 71.2687 465.45 71.8787 466.07 72.4187C466.66 72.9887 467.32 73.4987 467.87 74.1187L469.54 75.9587C473.87 80.8187 476.76 86.7287 478.31 92.7787C479.85 98.8487 479.95 105.129 478.81 110.989C477.65 116.849 475.18 122.259 471.91 126.809C468.64 131.379 464.55 135.099 460.13 137.839C455.71 140.599 450.97 142.369 446.33 143.299C445.16 143.479 444 143.659 442.87 143.829C441.72 143.929 440.58 143.959 439.47 144.029C437.23 144.149 435.05 143.979 432.97 143.719C428.79 143.179 425 141.999 421.69 140.549C418.38 139.069 415.56 137.299 413.2 135.499L412.43 134.909L413.02 135.679L413.03 135.699L413.1 135.499C401.23 138.369 395.32 139.809 394.43 140.019Z" fill="#263238"/>
<path d="M449.67 101.129C449.67 103.359 451.48 105.179 453.72 105.179C455.96 105.179 457.77 103.369 457.77 101.129C457.77 98.8986 455.96 97.0786 453.72 97.0786C451.48 97.0786 449.67 98.8886 449.67 101.129Z" fill="#263238"/>
<path d="M433.48 101.129C433.48 103.359 435.29 105.179 437.53 105.179C439.77 105.179 441.58 103.369 441.58 101.129C441.58 98.8986 439.77 97.0786 437.53 97.0786C435.29 97.0786 433.48 98.8886 433.48 101.129Z" fill="#263238"/>
<path d="M417.32 99.1087C416.2 101.049 416.87 103.519 418.8 104.639C420.74 105.759 423.21 105.089 424.33 103.159C425.45 101.219 424.78 98.7487 422.85 97.6287C420.92 96.5087 418.44 97.1687 417.32 99.1087Z" fill="#263238"/>
</svg>
