<svg width="375" height="317" viewBox="0 0 375 317" fill="none" xmlns="http://www.w3.org/2000/svg">
<path opacity="0.04" d="M363.188 124.257H452.077H475.874L457.518 137.504V163.562C457.518 166.567 455.083 169.003 452.077 169.003H363.188C360.182 169.003 357.747 166.567 357.747 163.562V129.698C357.739 126.693 360.182 124.257 363.188 124.257Z" fill="#8F7A61"/>
<path d="M367.885 142.676C367.885 142.786 384.88 142.873 405.845 142.873C426.81 142.873 443.805 142.786 443.805 142.676C443.805 142.565 426.81 142.478 405.845 142.478C384.88 142.478 367.885 142.565 367.885 142.676Z" fill="#232323"/>
<path d="M367.885 152.68C367.885 152.79 384.88 152.877 405.845 152.877C426.81 152.877 443.805 152.79 443.805 152.68C443.805 152.569 426.81 152.482 405.845 152.482C384.88 152.482 367.885 152.569 367.885 152.68Z" fill="#232323"/>
<g opacity="0.1">
<path d="M192.043 28.0908H186.768V45.7581H192.043V28.0908Z" fill="#8F7A61"/>
<path d="M147.993 25.5293H142.719V45.7509H147.993V25.5293Z" fill="#8F7A61"/>
<path d="M159.002 21.314H153.727V45.7508H159.002V21.314Z" fill="#8F7A61"/>
<path d="M170.018 22.6582H164.744V45.7585H170.018V22.6582Z" fill="#8F7A61"/>
<path d="M181.027 14.8447H175.752V45.7585H181.027V14.8447Z" fill="#8F7A61"/>
<path d="M203.051 14.9951H197.777V45.7586H203.051V14.9951Z" fill="#8F7A61"/>
<path d="M214.068 25.0938H208.793V45.7504H214.068V25.0938Z" fill="#8F7A61"/>
<path d="M225.076 16.3472H219.801V45.7583H225.076V16.3472Z" fill="#8F7A61"/>
<path d="M236.085 9.72021H230.81V45.7507H236.085V9.72021Z" fill="#8F7A61"/>
<path d="M247.101 16.1973H241.826V45.7587H247.101V16.1973Z" fill="#8F7A61"/>
</g>
<g opacity="0.2">
<path d="M386.051 44.122L429.665 37.4553C433.319 61.3781 416.64 84.075 392.718 87.7287C368.795 91.3823 346.098 74.7036 342.444 50.7809C338.791 26.8581 355.469 4.16115 379.392 0.507494C383.204 -0.0777243 387.071 -0.156808 390.899 0.270243L386.051 44.122Z" fill="#8F7A61"/>
</g>
<g opacity="0.1">
<path d="M51.3062 1.01367H-44.3849H-70L-50.237 15.2724V43.3233C-50.237 46.5579 -47.6115 49.1834 -44.3769 49.1834H51.3062C54.5407 49.1834 57.1663 46.5579 57.1663 43.3233V6.86585C57.1584 3.63134 54.5407 1.01367 51.3062 1.01367Z" fill="#8F7A61"/>
<path d="M46.2449 20.8395C46.2449 20.9581 27.9529 21.053 5.38247 21.053C-17.188 21.053 -35.48 20.9581 -35.48 20.8395C-35.48 20.7209 -17.188 20.626 5.38247 20.626C27.945 20.626 46.2449 20.7209 46.2449 20.8395Z" fill="#232323"/>
<path d="M46.2449 31.6115C46.2449 31.7301 27.9529 31.825 5.38247 31.825C-17.188 31.825 -35.48 31.7301 -35.48 31.6115C-35.48 31.4928 -17.188 31.3979 5.38247 31.3979C27.945 31.3979 46.2449 31.4928 46.2449 31.6115Z" fill="#232323"/>
</g>
<path d="M365.007 311.424H20.2659C13.8997 311.424 8.74347 306.268 8.74347 299.902V79.7334C8.74347 73.3672 13.8997 68.2109 20.2659 68.2109H365.007C371.373 68.2109 376.529 73.3672 376.529 79.7334V299.902C376.529 306.268 371.373 311.424 365.007 311.424Z" fill="#8F7A61"/>
<path d="M381.093 317H10.7761C3.00224 317 -3.30072 310.697 -3.30072 302.923V295.719H395.161V302.923C395.169 310.697 388.866 317 381.093 317Z" fill="#232323"/>
<path d="M156.377 293.44L161.327 301.301H230.905L235.492 293.44H156.377Z" fill="#263238"/>
<path d="M373.366 293.441C373.366 293.575 291.736 293.678 191.063 293.678C90.3576 293.678 8.74347 293.575 8.74347 293.441C8.74347 293.306 90.3576 293.204 191.063 293.204C291.736 293.204 373.366 293.306 373.366 293.441Z" fill="#263238"/>
<path opacity="0.2" d="M361.97 287.011H21.8637C20.4322 287.011 19.2776 285.849 19.2776 284.425V84.7867C19.2776 83.3553 20.4401 82.2007 21.8637 82.2007H361.97C363.402 82.2007 364.556 83.3632 364.556 84.7867V284.417C364.556 285.849 363.394 287.011 361.97 287.011Z" fill="#8F7A61"/>
<path d="M364.184 287.312H18.9059L19.2776 97.5112H364.184V287.312Z" fill="#F8F4EE"/>
<path d="M47.5975 90.1091C47.5975 91.6355 46.3638 92.8692 44.8375 92.8692C43.3111 92.8692 42.0775 91.6355 42.0775 90.1091C42.0775 88.5828 43.3111 87.3491 44.8375 87.3491C46.3638 87.3491 47.5975 88.5907 47.5975 90.1091Z" fill="#263238"/>
<path d="M30.879 90.1091C30.879 91.6355 29.6453 92.8692 28.119 92.8692C26.5927 92.8692 25.359 91.6355 25.359 90.1091C25.359 88.5828 26.5927 87.3491 28.119 87.3491C29.6453 87.357 30.879 88.5907 30.879 90.1091Z" fill="#263238"/>
<path d="M38.9062 90.1091C38.9062 91.6355 37.6725 92.8692 36.1462 92.8692C34.6199 92.8692 33.3862 91.6355 33.3862 90.1091C33.3862 88.5828 34.6199 87.3491 36.1462 87.3491C37.6725 87.357 38.9062 88.5907 38.9062 90.1091Z" fill="#263238"/>
<path d="M364.556 268.98H18.9058V287.312H364.556V268.98Z" fill="#8F7A61"/>
<path d="M31.9623 280.265V280.851H29.2102V280.384L30.697 278.976C31.0608 278.628 31.124 278.415 31.124 278.201C31.124 277.861 30.8868 277.664 30.4281 277.664C30.0643 277.664 29.7638 277.79 29.5503 278.051L29.0678 277.679C29.3525 277.292 29.8745 277.062 30.4834 277.062C31.298 277.062 31.82 277.474 31.82 278.138C31.82 278.502 31.7171 278.834 31.2031 279.316L30.2066 280.265H31.9623Z" fill="white"/>
<path d="M32.3419 278.415C32.3419 278.146 32.5396 277.972 32.7769 277.972C33.0141 277.972 33.2118 278.146 33.2118 278.415C33.2118 278.668 33.0141 278.858 32.7769 278.858C32.5396 278.858 32.3419 278.668 32.3419 278.415ZM32.3419 280.447C32.3419 280.179 32.5396 280.005 32.7769 280.005C33.0141 280.005 33.2118 280.179 33.2118 280.447C33.2118 280.701 33.0141 280.89 32.7769 280.89C32.5396 280.89 32.3419 280.701 32.3419 280.447Z" fill="white"/>
<path d="M34.9515 277.118V280.851H34.2634V277.695H33.4726V277.11H34.9515V277.118Z" fill="white"/>
<path d="M39.0245 280.004H38.3602V280.85H37.688V280.004H35.6397V279.522L37.4824 277.118H38.2178L36.4859 279.419H37.7117V278.668H38.3602V279.419H39.0245V280.004Z" fill="white"/>
<path d="M328.431 278.51H45.1219V279.799H328.431V278.51Z" fill="white"/>
<path d="M133.442 277.118H44.9084V280.566H133.442V277.118Z" fill="#CD9E64"/>
<path d="M136.305 279.158C136.305 281.538 134.375 283.468 131.995 283.468C129.614 283.468 127.685 281.538 127.685 279.158C127.685 276.777 129.614 274.848 131.995 274.848C134.367 274.848 136.305 276.777 136.305 279.158Z" fill="#CD9E64"/>
<path d="M335.564 279.119C335.564 279.862 334.963 280.329 334.196 280.329C333.176 280.329 332.582 279.672 332.582 278.47C332.582 277.189 333.326 276.485 334.409 276.485C334.781 276.485 335.137 276.564 335.39 276.723L335.137 277.245C334.931 277.11 334.686 277.063 334.425 277.063C333.721 277.063 333.278 277.498 333.278 278.352V278.36C333.5 278.099 333.864 277.972 334.275 277.972C335.018 277.972 335.564 278.415 335.564 279.119ZM334.892 279.15C334.892 278.763 334.599 278.518 334.148 278.518C333.698 278.518 333.389 278.787 333.389 279.158C333.389 279.506 333.666 279.791 334.164 279.791C334.591 279.783 334.892 279.538 334.892 279.15Z" fill="white"/>
<path d="M335.904 277.837C335.904 277.569 336.101 277.395 336.339 277.395C336.576 277.395 336.774 277.569 336.774 277.837C336.774 278.09 336.576 278.28 336.339 278.28C336.101 278.28 335.904 278.09 335.904 277.837ZM335.904 279.87C335.904 279.601 336.101 279.427 336.339 279.427C336.576 279.427 336.774 279.601 336.774 279.87C336.774 280.123 336.576 280.313 336.339 280.313C336.101 280.313 335.904 280.123 335.904 279.87Z" fill="white"/>
<path d="M337.225 278.407C337.225 277.181 337.897 276.485 338.783 276.485C339.676 276.485 340.348 277.181 340.348 278.407C340.348 279.632 339.676 280.328 338.783 280.328C337.897 280.328 337.225 279.632 337.225 278.407ZM339.645 278.407C339.645 277.505 339.297 277.086 338.783 277.086C338.276 277.086 337.921 277.505 337.921 278.407C337.921 279.308 338.276 279.727 338.783 279.727C339.297 279.727 339.645 279.308 339.645 278.407Z" fill="white"/>
<path d="M340.807 278.407C340.807 277.181 341.479 276.485 342.365 276.485C343.258 276.485 343.931 277.181 343.931 278.407C343.931 279.632 343.258 280.328 342.365 280.328C341.479 280.328 340.807 279.632 340.807 278.407ZM343.227 278.407C343.227 277.505 342.879 277.086 342.365 277.086C341.859 277.086 341.503 277.505 341.503 278.407C341.503 279.308 341.859 279.727 342.365 279.727C342.879 279.727 343.227 279.308 343.227 278.407Z" fill="white"/>
<path d="M349.965 278.177H348.668V274.453H352.385V275.742H349.965V278.177Z" fill="white"/>
<path d="M352.393 283.033H348.668V279.316H349.957V281.744H352.393V283.033Z" fill="white"/>
<path d="M358.316 283.033H354.599V281.744H357.027V279.308H358.316V283.033Z" fill="white"/>
<path d="M358.324 278.17H357.035V275.742H354.599V274.453H358.324V278.17Z" fill="white"/>
<path d="M66.2533 108.796H45.9051L35.7271 126.416L45.9051 144.044H66.2533L76.4314 126.416L66.2533 108.796Z" fill="#EBEBEB"/>
<path d="M47.5658 129.865C46.6563 128.86 45.7389 127.84 45.0746 126.654C44.4103 125.468 44.0149 124.092 44.2364 122.747C44.3629 121.964 44.695 121.221 44.7504 120.43C44.8216 119.339 44.3629 118.2 44.7504 117.18C45.3514 115.582 47.5025 115.337 48.8074 114.238C49.8197 113.376 50.3179 111.984 51.433 111.264C52.4057 110.632 53.6631 110.647 54.8098 110.813C55.9565 110.98 57.1191 111.264 58.2658 111.114C59.0882 111.003 59.8554 110.671 60.662 110.473C61.4687 110.276 62.3623 110.22 63.074 110.639C63.7858 111.059 64.1891 112.071 63.7225 112.751C65.059 112.134 66.7514 113.178 67.1152 114.594C67.479 116.017 66.7514 117.551 65.6205 118.492C64.4896 119.434 63.0266 119.869 61.5873 120.137C57.5066 120.905 53.07 120.47 49.5508 118.263" fill="#263238"/>
<path d="M66.4351 134.221C66.3006 131.698 65.5889 126.526 64.9009 121.852C64.1575 116.823 59.6734 113.216 54.6042 113.556L54.098 113.588C48.6887 114.268 46.245 119.242 47.0754 124.636L48.665 144.051H61.872C61.872 144.051 61.5635 140.642 61.5556 140.611C61.5556 140.603 66.7198 139.44 66.4351 134.221Z" fill="#D4BF9E"/>
<path d="M61.5555 140.523C61.5555 140.523 58.2736 141.014 54.6199 139.044C54.6199 139.044 56.4784 142.69 61.6584 141.876L61.5555 140.523Z" fill="#C9B28E"/>
<path d="M63.2163 126.327C63.2558 126.722 62.9553 127.078 62.544 127.126C62.1328 127.173 61.769 126.896 61.7295 126.501C61.6899 126.105 61.9905 125.75 62.3938 125.702C62.8129 125.655 63.1767 125.931 63.2163 126.327Z" fill="#263238"/>
<path d="M63.9439 124.477C63.8569 124.58 63.2638 124.2 62.4651 124.255C61.6663 124.303 61.1048 124.754 61.0099 124.659C60.9625 124.619 61.0495 124.437 61.2867 124.232C61.524 124.026 61.9431 123.82 62.4414 123.789C62.9396 123.757 63.3745 123.915 63.6276 124.089C63.8965 124.255 63.9914 124.429 63.9439 124.477Z" fill="#263238"/>
<path d="M55.6402 126.865C55.6797 127.26 55.3792 127.616 54.968 127.664C54.5567 127.711 54.1929 127.434 54.1534 127.039C54.1139 126.643 54.4144 126.288 54.8177 126.24C55.2369 126.201 55.6006 126.477 55.6402 126.865Z" fill="#263238"/>
<path d="M56.0672 125.149C55.9802 125.252 55.3871 124.872 54.5883 124.928C53.7896 124.975 53.2281 125.426 53.1332 125.331C53.0857 125.291 53.1727 125.11 53.4179 124.904C53.6551 124.698 54.0743 124.493 54.5725 124.461C55.0707 124.429 55.5057 124.588 55.7588 124.762C56.0197 124.936 56.1146 125.102 56.0672 125.149Z" fill="#263238"/>
<path d="M59.381 130.907C59.3731 130.859 59.8634 130.74 60.6701 130.582C60.8757 130.551 61.0655 130.495 61.0892 130.353C61.1288 130.203 61.026 129.989 60.9152 129.752C60.6859 129.27 60.4566 128.763 60.2035 128.234C59.215 126.067 58.4795 124.287 58.5665 124.248C58.6535 124.208 59.5313 125.932 60.5198 128.099C60.7571 128.637 60.9864 129.143 61.2079 129.633C61.3028 129.863 61.453 130.116 61.366 130.432C61.3186 130.59 61.1762 130.709 61.0497 130.756C60.9232 130.804 60.8045 130.812 60.7017 130.827C59.8872 130.914 59.3889 130.954 59.381 130.907Z" fill="#263238"/>
<path d="M56.0675 121.995C56.0042 122.216 55.1976 122.169 54.2644 122.343C53.3233 122.501 52.5878 122.825 52.4455 122.643C52.3822 122.556 52.5008 122.343 52.7934 122.106C53.086 121.876 53.5526 121.639 54.1141 121.544C54.6756 121.441 55.1976 121.497 55.5534 121.615C55.9093 121.734 56.0912 121.892 56.0675 121.995Z" fill="#263238"/>
<path d="M63.4933 122.176C63.3667 122.366 62.7973 122.215 62.133 122.247C61.4687 122.263 60.9152 122.453 60.7728 122.271C60.7095 122.184 60.7886 121.994 61.018 121.804C61.2473 121.614 61.6427 121.448 62.1014 121.432C62.5601 121.417 62.9634 121.551 63.2086 121.725C63.4616 121.899 63.5565 122.081 63.4933 122.176Z" fill="#263238"/>
<path d="M47.7635 128.464C47.6686 128.432 44.1019 127.641 44.4578 131.208C44.8137 134.767 48.6729 133.612 48.665 133.509C48.6571 133.398 47.7635 128.464 47.7635 128.464Z" fill="#D4BF9E"/>
<path d="M47.0833 132.331C47.0675 132.323 47.028 132.378 46.9252 132.441C46.8303 132.497 46.6563 132.544 46.4586 132.497C46.0711 132.394 45.6915 131.832 45.6124 131.192C45.5728 130.868 45.6124 130.551 45.6994 130.29C45.7785 130.021 45.9366 129.824 46.1185 129.768C46.3004 129.705 46.4507 129.808 46.4981 129.903C46.5535 129.998 46.5377 130.069 46.5614 130.077C46.5693 130.085 46.6326 130.014 46.5851 129.863C46.5614 129.792 46.5139 129.713 46.419 129.658C46.3241 129.594 46.1976 129.571 46.0632 129.602C45.7943 129.65 45.5649 129.927 45.47 130.219C45.3593 130.512 45.304 130.868 45.3514 131.231C45.4463 131.943 45.8813 132.584 46.4111 132.679C46.6642 132.718 46.8698 132.623 46.9726 132.528C47.0833 132.418 47.0992 132.339 47.0833 132.331Z" fill="#C9B28E"/>
<path d="M64.6319 116.973C64.3867 118.389 61.516 119.686 59.1276 119.622C56.9291 119.559 55.8457 118.468 54.2482 117.693C53.2359 117.203 53.2359 117.202 51.8678 117.424C50.7606 117.606 50.1833 118.911 49.5585 119.844C50.7448 122.43 50.2624 125.435 49.7642 128.235C49.7088 128.543 49.6376 128.875 49.4004 129.089C48.997 129.445 48.3486 129.231 47.9611 128.867C47.3284 128.29 47.0437 127.436 46.8381 126.606C46.3636 124.715 46.1896 122.738 46.4822 120.817C46.7827 118.895 47.5735 117.021 48.8942 115.589C50.5392 113.794 52.9354 112.758 55.3712 112.631C57.799 112.505 60.2427 113.256 62.2752 114.593C63.2163 115.217 64.102 115.977 64.6319 116.973Z" fill="#263238"/>
<path d="M59.9027 132.711C59.2937 132.427 58.6927 132.15 58.0838 131.865C57.981 131.818 57.8702 131.77 57.7516 131.778C57.6251 131.794 57.5223 131.889 57.4353 131.992C57.0161 132.498 56.9054 133.273 57.2376 133.85C57.5618 134.428 58.3289 134.728 58.9379 134.475C59.5784 134.206 59.8948 133.463 59.9422 132.767L59.9027 132.711Z" fill="#D4BF9E"/>
<path d="M59.0011 134.61C59.0328 134.642 58.6215 134.903 57.9335 134.705C57.6014 134.602 57.2218 134.349 56.9924 133.938C56.7552 133.535 56.6682 132.965 56.8738 132.451C56.9687 132.198 57.1269 131.969 57.3167 131.795C57.4116 131.708 57.5065 131.629 57.6251 131.565C57.7437 131.478 57.9889 131.47 58.0996 131.534C58.5108 131.763 58.7955 131.961 59.0723 132.143C59.6022 132.499 59.9185 132.736 59.8869 132.791C59.8552 132.839 59.4915 132.688 58.9221 132.396C58.5899 132.222 58.2736 132.056 57.9493 131.89C57.8703 131.866 57.8782 131.866 57.807 131.905C57.7358 131.953 57.6488 132.016 57.5856 132.087C57.4432 132.23 57.3246 132.404 57.2534 132.601C57.0952 132.997 57.1506 133.432 57.3246 133.764C57.4986 134.096 57.7674 134.317 58.0363 134.436C58.5899 134.665 58.9932 134.539 59.0011 134.61Z" fill="#C9B28E"/>
<path d="M58.4319 126.417C58.3924 126.417 58.4003 126.084 58.2342 125.531C58.0761 124.985 57.6965 124.186 56.874 123.577C56.0753 122.968 54.7704 122.628 53.513 123.103C52.2634 123.538 51.1879 124.866 51.2037 126.417C51.1879 127.967 52.2634 129.295 53.513 129.73C54.7704 130.205 56.0753 129.865 56.874 129.256C57.6965 128.647 58.084 127.848 58.2342 127.302C58.4003 126.749 58.3924 126.417 58.4319 126.417C58.4478 126.417 58.4557 126.496 58.4636 126.654C58.4715 126.812 58.4557 127.049 58.3924 127.342C58.2738 127.927 57.9179 128.797 57.048 129.485C56.2097 130.173 54.7783 130.584 53.3785 130.086C51.9866 129.627 50.7688 128.148 50.7846 126.417C50.7688 124.685 51.9866 123.206 53.3785 122.747C54.7862 122.241 56.2097 122.652 57.048 123.348C57.9179 124.036 58.2738 124.914 58.3924 125.491C58.4557 125.784 58.4715 126.021 58.4636 126.179C58.4557 126.337 58.4478 126.417 58.4319 126.417Z" fill="#263238"/>
<path d="M67.313 126.068C67.2735 126.068 67.2735 125.744 67.1232 125.206C66.973 124.677 66.6013 123.902 65.7946 123.308C65.0196 122.715 63.7463 122.391 62.5206 122.85C61.3027 123.269 60.2588 124.566 60.2746 126.076C60.2588 127.587 61.3106 128.876 62.5206 129.303C63.7463 129.762 65.0196 129.437 65.7946 128.844C66.6013 128.251 66.973 127.476 67.1232 126.946C67.2814 126.393 67.2735 126.068 67.313 126.068C67.3288 126.068 67.3367 126.148 67.3447 126.306C67.3526 126.456 67.3367 126.685 67.2814 126.978C67.1707 127.547 66.8227 128.393 65.9765 129.074C65.1619 129.746 63.7701 130.149 62.394 129.659C61.0338 129.208 59.8475 127.769 59.8633 126.076C59.8475 124.384 61.0338 122.945 62.394 122.494C63.7622 122.004 65.154 122.407 65.9765 123.079C66.8227 123.751 67.1707 124.605 67.2814 125.175C67.3446 125.459 67.3526 125.689 67.3447 125.847C67.3367 125.989 67.3288 126.068 67.313 126.068Z" fill="#263238"/>
<path d="M60.069 125.246C59.9899 125.325 59.634 125.096 59.1595 125.112C58.685 125.112 58.345 125.357 58.258 125.278C58.1473 125.222 58.4794 124.708 59.1516 124.692C59.8239 124.692 60.1718 125.191 60.069 125.246Z" fill="#263238"/>
<path d="M51.2195 125.887C51.2907 125.982 50.5948 126.606 49.6774 127.294C48.76 127.982 47.9534 128.465 47.8901 128.37C47.8189 128.275 48.5149 127.65 49.4322 126.962C50.3496 126.282 51.1484 125.8 51.2195 125.887Z" fill="#263238"/>
<path d="M124.617 126.242C124.617 126.353 115.467 126.448 104.182 126.448C92.8966 126.448 83.7466 126.353 83.7466 126.242C83.7466 126.132 92.8966 126.037 104.182 126.037C115.475 126.037 124.617 126.124 124.617 126.242Z" fill="#263238"/>
<path d="M105.724 130.513C105.724 130.624 100.868 130.719 94.8735 130.719C88.879 130.719 84.0233 130.624 84.0233 130.513C84.0233 130.403 88.879 130.308 94.8735 130.308C100.86 130.308 105.724 130.403 105.724 130.513Z" fill="#263238"/>
<path d="M247.046 157.836C247.046 157.836 257.904 163.127 261.724 176.792C265.543 190.458 277.216 226.045 277.216 226.045C277.216 226.045 283.891 233.898 284.61 239.711C285.322 245.524 283.899 259.593 281.748 262.218C279.604 264.844 276.544 264.409 276.544 264.409L248.446 261.744L237.382 187.658L247.046 157.836Z" fill="#CD9E64"/>
<path d="M154.131 156.539C154.131 156.539 134.043 162.842 129.037 168.322L145.487 244.852L145.226 268.996H240.474C240.474 267.802 241.328 188.829 241.328 188.829L247.046 157.836L213.19 151.873L206.515 146.63L168.848 148.536L163.122 154.261L154.131 156.539Z" fill="#CD9E64"/>
<g opacity="0.3">
<path opacity="0.3" d="M161.762 222.929C161.47 222.281 161.05 221.577 160.354 221.434C159.208 221.197 158.441 222.557 158.053 223.657C154.961 232.419 150.864 240.478 145.542 248.086L145.297 259.837C150.849 255.164 156.321 250.158 159.864 243.823C163.399 237.496 164.752 229.548 161.762 222.929Z" fill="black"/>
</g>
<path d="M129.037 168.331C129.037 168.331 122.418 177.354 119.666 183.246C116.914 189.137 94.1378 238.612 92.7697 243.721C91.3936 248.83 87.8586 264.923 98.266 268.656H119.666L141.145 225.215L142.244 174.8L129.037 168.331Z" fill="#CD9E64"/>
<path d="M121.042 237.276C121.01 237.307 120.568 236.857 119.579 236.295C118.598 235.741 117.064 235.101 115.087 234.666C114.099 234.452 112.999 234.278 111.813 234.207C110.627 234.136 109.354 234.152 108.057 234.452C105.463 235.03 102.885 236.675 100.852 238.976C98.788 241.277 97.5226 243.998 96.7714 246.56C96.0122 249.13 95.6879 251.542 95.4823 253.559C95.2846 255.584 95.2055 257.228 95.1343 258.367C95.1027 258.897 95.0711 259.332 95.0552 259.68C95.0315 259.981 95.0157 260.139 94.9999 260.139C94.9841 260.139 94.9762 259.981 94.9762 259.68C94.9762 259.332 94.9762 258.897 94.9841 258.367C95.0078 257.228 95.0394 255.576 95.1976 253.535C95.3637 251.503 95.6642 249.067 96.4076 246.449C97.1431 243.848 98.4321 241.056 100.544 238.699C102.624 236.343 105.281 234.658 107.977 234.081C109.322 233.78 110.635 233.772 111.837 233.867C113.039 233.954 114.154 234.144 115.15 234.381C117.151 234.856 118.685 235.544 119.658 236.153C120.141 236.461 120.496 236.738 120.718 236.944C120.939 237.149 121.05 237.268 121.042 237.276Z" fill="#263238"/>
<path d="M110.888 228.624C110.888 228.592 111.141 228.552 111.607 228.505C112.074 228.45 112.754 228.434 113.592 228.481C114.431 228.521 115.427 228.663 116.511 228.916C117.586 229.185 118.757 229.58 119.919 230.126C121.074 230.688 122.118 231.344 123.003 232.016C123.881 232.704 124.617 233.384 125.178 234.017C125.74 234.642 126.159 235.18 126.404 235.575C126.657 235.97 126.791 236.192 126.768 236.208C126.704 236.255 126.127 235.393 124.965 234.215C124.387 233.622 123.644 232.973 122.774 232.325C121.888 231.684 120.868 231.051 119.737 230.506C118.598 229.968 117.468 229.58 116.416 229.296C115.356 229.027 114.391 228.861 113.569 228.79C111.932 228.616 110.896 228.703 110.888 228.624Z" fill="#263238"/>
<path d="M130.239 226.243C130.231 226.275 129.883 226.243 129.251 226.164C128.618 226.085 127.701 225.99 126.57 225.903C124.308 225.729 121.161 225.69 117.713 226.101C114.272 226.52 111.22 227.303 109.061 227.999C107.977 228.347 107.107 228.655 106.514 228.884C105.921 229.106 105.581 229.217 105.573 229.193C105.565 229.169 105.874 229.003 106.459 228.734C107.036 228.457 107.89 228.109 108.974 227.722C111.125 226.947 114.193 226.109 117.673 225.69C121.145 225.278 124.332 225.365 126.602 225.61C127.74 225.729 128.658 225.871 129.282 225.998C129.899 226.132 130.247 226.219 130.239 226.243Z" fill="#263238"/>
<path d="M191.197 183.973C191.189 183.981 191.118 183.894 190.976 183.712C190.825 183.507 190.628 183.246 190.39 182.929C189.869 182.202 189.141 181.198 188.239 179.948C186.389 177.338 183.819 173.708 180.782 169.43L181.114 169.382C179.959 172.767 178.686 176.508 177.35 180.438L177.263 180.683L177.049 180.541C176.907 180.454 176.756 180.351 176.606 180.256C174.835 179.133 173.269 177.781 171.948 176.318C170.628 174.847 169.528 173.281 168.619 171.715C166.8 168.576 165.701 165.484 164.957 162.866C164.214 160.24 163.826 158.058 163.573 156.563C163.447 155.843 163.352 155.274 163.273 154.839C163.233 154.641 163.194 154.499 163.17 154.396C163.13 154.309 163.115 154.254 163.122 154.254C163.209 154.214 163.439 155.045 163.731 156.539C164.04 158.026 164.467 160.193 165.242 162.795C166.017 165.389 167.132 168.449 168.951 171.534C169.86 173.076 170.944 174.61 172.249 176.057C173.562 177.489 175.096 178.817 176.828 179.916C176.978 180.011 177.128 180.106 177.263 180.193L176.962 180.304C178.314 176.373 179.596 172.641 180.758 169.264L180.877 168.908L181.09 169.216C184.072 173.526 186.602 177.188 188.421 179.821C189.291 181.095 189.979 182.123 190.485 182.866C190.707 183.198 190.881 183.467 191.023 183.681C191.15 183.863 191.205 183.965 191.197 183.973Z" fill="#263238"/>
<g opacity="0.3">
<path opacity="0.3" d="M215.998 220.502C215.112 229.351 217.065 238.462 221.502 246.165C225.93 253.875 232.431 260.74 240.521 264.433C240.782 256.58 240.403 247.327 240.664 239.474L215.998 220.502Z" fill="black"/>
</g>
<path d="M215.104 210.166C215.104 210.166 211.648 211.122 214.242 218.216C216.836 225.302 217.698 224.875 219.43 231.51C221.162 238.137 223.179 244.195 226.208 247.944C229.236 251.692 240.482 259.332 240.482 259.332L250.573 249.818C250.573 249.818 248.912 242.724 249.308 237.908C249.703 233.092 250.716 221.269 250.573 219.252C250.431 217.236 248.264 212.332 248.264 212.332V208.979L243.076 193.012C243.076 193.012 240.19 191.715 239.185 196.326L237.453 191.431C237.453 191.431 234.717 190.996 233.997 196.619C233.278 202.241 234.575 210.023 234.575 210.023L233.135 219.822L230.976 226.449L229.102 226.734C229.102 226.734 226.279 225.966 224.737 220.652C223.171 215.353 218.995 209.011 215.104 210.166Z" fill="#D4BF9E"/>
<path d="M247.18 235.235C247.173 235.235 247.157 235.108 247.133 234.871C247.117 234.594 247.093 234.246 247.062 233.811C247.006 232.846 246.935 231.51 246.848 229.841C246.69 226.401 246.477 221.608 246.224 216.017L246.271 216.136C245.804 215.582 244.982 215.416 244.231 215.606C243.464 215.788 242.783 216.262 242.356 216.974C241.479 218.39 241.423 220.24 241.154 222.028C240.609 226.069 240.087 229.912 239.612 233.424C239.375 235.171 239.122 236.84 238.774 238.382C238.442 239.924 237.975 241.332 237.524 242.589C237.082 243.847 236.686 244.986 236.441 246.014C236.196 247.042 236.093 247.943 236.117 248.687C236.148 250.173 236.583 250.933 236.512 250.948C236.496 250.956 236.417 250.767 236.267 250.395C236.148 250.015 235.982 249.446 235.951 248.695C235.903 247.943 235.982 247.01 236.212 245.966C236.441 244.922 236.821 243.768 237.248 242.502C237.683 241.237 238.125 239.853 238.442 238.319C238.766 236.792 239.003 235.132 239.233 233.384C239.699 229.873 240.205 226.029 240.743 221.988C240.87 221.087 240.965 220.201 241.123 219.307C241.281 218.421 241.526 217.536 242.016 216.776C242.475 216.001 243.282 215.432 244.136 215.234C244.982 215.021 245.986 215.211 246.564 215.907L246.603 215.962V216.025C246.793 221.616 246.959 226.409 247.078 229.857C247.117 231.526 247.157 232.862 247.18 233.835C247.188 234.27 247.188 234.618 247.188 234.894C247.204 235.108 247.196 235.235 247.18 235.235Z" fill="#C9B28E"/>
<path d="M241.668 217.069C241.644 217.077 241.486 216.761 241.241 216.168C241.004 215.575 240.688 214.697 240.395 213.582C240.102 212.474 239.826 211.122 239.667 209.612C239.588 208.852 239.533 208.046 239.628 207.208C239.715 206.369 239.96 205.483 240.498 204.732C240.956 204.084 241.605 203.562 242.34 203.348L242.499 203.301L242.578 203.443C244.041 206.021 245.306 208.299 246.2 209.936C246.611 210.703 246.951 211.344 247.236 211.873C247.473 212.332 247.592 212.585 247.568 212.601C247.544 212.617 247.386 212.38 247.109 211.945C246.801 211.438 246.421 210.814 245.97 210.07C245.013 208.465 243.701 206.219 242.222 203.649L242.459 203.744C241.826 203.933 241.249 204.384 240.838 204.977C240.355 205.657 240.118 206.464 240.031 207.255C239.944 208.054 239.984 208.837 240.055 209.58C240.189 211.075 240.427 212.411 240.688 213.518C240.941 214.626 241.209 215.511 241.399 216.12C241.581 216.721 241.692 217.061 241.668 217.069Z" fill="#C9B28E"/>
<path d="M239.256 218.367C239.224 218.367 239.193 218.042 239.161 217.449C239.138 216.769 239.098 215.931 239.058 214.942C238.987 212.823 238.924 209.897 238.877 206.662C238.853 203.428 238.726 200.494 239.003 198.366C239.138 197.307 239.351 196.461 239.541 195.899C239.731 195.33 239.889 195.045 239.913 195.053C239.984 195.077 239.47 196.302 239.288 198.406C239.09 200.502 239.256 203.428 239.28 206.662C239.327 209.897 239.343 212.823 239.343 214.942C239.335 215.931 239.319 216.769 239.311 217.457C239.304 218.042 239.28 218.367 239.256 218.367Z" fill="#C9B28E"/>
<path d="M230.723 244.946C230.668 244.899 231.293 244.155 232.075 242.803C232.471 242.131 232.874 241.292 233.246 240.343C233.602 239.379 233.926 238.295 234.147 237.133C234.353 235.962 234.424 234.839 234.424 233.811C234.408 232.783 234.321 231.858 234.187 231.099C233.926 229.564 233.594 228.647 233.665 228.623C233.689 228.615 233.792 228.837 233.95 229.248C234.116 229.659 234.298 230.276 234.472 231.043C234.646 231.818 234.764 232.759 234.804 233.803C234.828 234.855 234.756 236.01 234.551 237.204C234.329 238.398 233.989 239.505 233.602 240.478C233.198 241.443 232.756 242.289 232.321 242.953C231.894 243.617 231.506 244.132 231.206 244.456C230.913 244.796 230.747 244.97 230.723 244.946Z" fill="#C9B28E"/>
<path d="M248.438 239.987L257.192 243.024C257.192 243.024 265.552 238.698 271.317 243.024C277.082 247.35 282.088 258.746 280.506 263.356C280.506 263.356 276.528 268.268 273.499 268.987C270.471 269.707 258.703 266.86 253.808 265.824C248.897 264.788 240.466 259.307 240.466 259.307L248.438 239.987Z" fill="#D4BF9E"/>
<path d="M249.513 252.894C249.482 252.894 249.45 252.617 249.418 252.119C249.387 251.526 249.339 250.822 249.292 250.007C249.197 248.22 249.078 245.753 249.039 243.016C248.999 240.28 249.078 237.805 249.245 236.017C249.324 235.124 249.418 234.404 249.505 233.906C249.592 233.408 249.656 233.139 249.687 233.147C249.751 233.155 249.616 234.254 249.529 236.033C249.442 237.813 249.411 240.28 249.45 243.008C249.498 245.681 249.545 248.101 249.577 249.999C249.585 250.893 249.585 251.621 249.569 252.119C249.561 252.617 249.537 252.894 249.513 252.894Z" fill="#C9B28E"/>
<path d="M278.387 242.685C278.323 242.748 277.422 241.499 275.476 240.059C273.555 238.62 270.439 237.086 266.754 236.88C263.06 236.682 259.794 237.861 257.73 239.079C255.634 240.297 254.606 241.435 254.551 241.364C254.535 241.348 254.78 241.056 255.271 240.581C255.769 240.107 256.536 239.474 257.58 238.826C259.644 237.521 262.981 236.263 266.777 236.469C270.573 236.682 273.752 238.304 275.658 239.822C276.623 240.581 277.327 241.301 277.762 241.823C278.197 242.353 278.403 242.677 278.387 242.685Z" fill="#263238"/>
<path d="M277.264 235.385C277.208 235.472 276.038 234.286 273.618 233.377C271.237 232.443 267.544 232.016 263.756 233.084C261.866 233.614 260.134 234.365 258.655 235.204C257.176 236.05 255.943 236.975 254.962 237.813C253.981 238.652 253.23 239.387 252.716 239.893C252.202 240.407 251.917 240.684 251.894 240.668C251.878 240.652 252.123 240.336 252.605 239.782C253.088 239.237 253.807 238.47 254.78 237.592C255.745 236.714 256.979 235.749 258.473 234.871C259.968 234.001 261.724 233.219 263.653 232.681C267.536 231.589 271.324 232.08 273.729 233.1C274.946 233.598 275.848 234.175 276.425 234.618C276.726 234.832 276.924 235.037 277.066 235.164C277.2 235.298 277.271 235.378 277.264 235.385Z" fill="#263238"/>
<path d="M277.335 229.059C277.311 229.138 275.785 228.672 273.238 228.332C271.965 228.15 270.439 228.047 268.746 228.047C267.054 228.071 265.195 228.213 263.266 228.537C261.344 228.885 259.549 229.391 257.943 229.945C256.354 230.522 254.954 231.139 253.823 231.748C251.554 232.942 250.272 233.899 250.225 233.836C250.209 233.812 250.518 233.567 251.103 233.132C251.387 232.911 251.751 232.658 252.186 232.389C252.621 232.12 253.111 231.788 253.681 231.495C254.804 230.854 256.212 230.206 257.809 229.597C259.422 229.02 261.241 228.498 263.187 228.142C265.14 227.81 267.022 227.675 268.738 227.675C270.454 227.699 271.997 227.833 273.27 228.055C273.91 228.134 274.48 228.284 274.986 228.387C275.492 228.49 275.919 228.608 276.259 228.711C276.963 228.901 277.343 229.028 277.335 229.059Z" fill="#263238"/>
<path d="M210.241 151.612C210.241 151.612 210.644 152.371 210.85 153.937C211.063 155.495 211.031 157.836 210.517 160.731C210.256 162.178 209.908 163.767 209.386 165.468C208.841 167.168 208.018 168.908 207.085 170.727C205.203 174.365 202.823 178.327 200.078 182.558L199.754 183.056V182.463C199.746 179.671 199.746 176.737 199.738 173.685L200.047 173.835C197.69 175.733 195.215 177.734 192.66 179.798L192.724 179.703C191.015 185.128 189.884 191.17 189.442 197.457C188.722 207.081 189.299 216.287 189.758 224.638C190.145 232.997 190.399 240.534 190.66 246.853C190.913 253.179 191.142 258.288 191.332 261.823C191.435 263.571 191.514 264.939 191.569 265.888C191.601 266.339 191.624 266.687 191.64 266.948C191.656 267.185 191.648 267.311 191.648 267.311C191.648 267.311 191.624 267.193 191.593 266.956C191.569 266.703 191.529 266.347 191.482 265.904C191.395 264.979 191.284 263.602 191.166 261.839C190.928 258.304 190.652 253.195 190.367 246.868C190.082 240.542 189.75 233.013 189.37 224.662C188.896 216.318 188.303 207.089 189.022 197.433C189.473 191.122 190.604 185.049 192.336 179.592L192.352 179.537L192.399 179.497C194.954 177.441 197.437 175.448 199.794 173.55L200.102 173.305V173.7C200.094 176.745 200.094 179.679 200.086 182.479L199.762 182.384C205.195 173.961 209.616 166.638 210.296 160.715C210.842 157.844 210.905 155.527 210.723 153.969C210.644 153.186 210.494 152.609 210.399 152.213C210.296 151.818 210.241 151.612 210.241 151.612Z" fill="#263238"/>
<path d="M196.061 253.63L195.776 253.622C194.629 253.654 193.609 254.698 193.609 255.844C193.609 256.991 194.621 258.043 195.76 258.082C196.907 258.122 197.99 257.141 198.062 256.002C198.141 254.856 197.2 253.741 196.061 253.63Z" fill="white"/>
<path d="M196.061 223.152L195.776 223.144C194.629 223.176 193.609 224.22 193.609 225.366C193.609 226.513 194.621 227.565 195.76 227.604C196.907 227.644 197.99 226.663 198.062 225.524C198.141 224.378 197.2 223.263 196.061 223.152Z" fill="white"/>
<path d="M195.76 195.883C196.907 195.923 197.99 194.942 198.061 193.803C198.141 192.664 197.192 191.549 196.053 191.439L195.768 191.431C194.621 191.462 193.601 192.506 193.601 193.653C193.609 194.792 194.621 195.844 195.76 195.883Z" fill="white"/>
<path d="M161.62 115.898C158.844 112.83 156.052 109.722 154.028 106.115C152.003 102.509 150.801 98.294 151.473 94.2133C151.861 91.825 152.881 89.5553 153.039 87.1432C153.261 83.8217 151.861 80.3499 153.039 77.242C154.882 72.3783 161.43 71.627 165.4 68.266C168.492 65.6483 169.995 61.4015 173.403 59.1951C176.377 57.2734 180.197 57.3129 183.7 57.8111C187.203 58.3094 190.73 59.1951 194.242 58.7206C196.741 58.3805 199.097 57.3762 201.549 56.7672C204.001 56.1583 206.729 56.0001 208.912 57.2655C211.094 58.5308 212.32 61.6309 210.889 63.7108C214.954 61.8365 220.118 65.0077 221.233 69.3415C222.348 73.6753 220.118 78.3649 216.67 81.2199C213.222 84.0827 208.769 85.4113 204.372 86.2417C191.917 88.5904 178.409 87.2618 167.678 80.5239" fill="#263238"/>
<path d="M205.4 157.773C204.791 153.059 204.293 149.129 204.262 148.639C204.262 148.639 220.015 145.096 219.145 129.168C218.726 121.473 216.567 105.68 214.455 91.4217C212.186 76.1112 198.512 65.1186 183.067 66.1466L181.533 66.2494C165.036 68.3214 157.587 83.4976 160.117 99.9232L169.014 155.021C169.014 155.021 172.81 167.207 180.94 169.319L191.189 183.965L192.881 177.662L200.521 171.011C200.521 171.011 202.277 169.113 204.285 165.404C205.954 162.368 205.606 159.252 205.4 157.773Z" fill="#D4BF9E"/>
<path d="M204.277 148.401C204.277 148.401 194.273 149.896 183.13 143.893C183.13 143.893 188.801 155.02 204.586 152.521L204.277 148.401Z" fill="#C9B28E"/>
<path d="M209.346 105.11C209.473 106.304 208.555 107.396 207.306 107.554C206.056 107.704 204.949 106.858 204.823 105.664C204.704 104.47 205.614 103.37 206.855 103.22C208.113 103.062 209.22 103.908 209.346 105.11Z" fill="#263238"/>
<path d="M211.569 99.4642C211.308 99.7806 209.497 98.618 207.053 98.792C204.609 98.9265 202.893 100.303 202.608 100.026C202.466 99.8992 202.719 99.3456 203.463 98.7288C204.198 98.1119 205.471 97.4713 206.998 97.3764C208.524 97.2815 209.845 97.756 210.62 98.2859C211.403 98.7999 211.695 99.3219 211.569 99.4642Z" fill="#263238"/>
<path d="M186.238 106.763C186.365 107.957 185.447 109.049 184.198 109.207C182.948 109.357 181.841 108.511 181.715 107.317C181.596 106.123 182.505 105.023 183.747 104.873C185.004 104.715 186.112 105.561 186.238 106.763Z" fill="#263238"/>
<path d="M187.551 101.528C187.29 101.845 185.479 100.682 183.035 100.856C180.592 100.99 178.876 102.366 178.591 102.09C178.448 101.963 178.702 101.41 179.445 100.793C180.173 100.176 181.454 99.5353 182.972 99.4404C184.498 99.3455 185.819 99.82 186.594 100.35C187.393 100.864 187.685 101.386 187.551 101.528Z" fill="#263238"/>
<path d="M197.642 119.077C197.618 118.943 199.121 118.571 201.565 118.097C202.182 117.994 202.767 117.828 202.846 117.393C202.964 116.934 202.656 116.278 202.308 115.566C201.62 114.095 200.9 112.553 200.141 110.932C197.12 104.328 194.89 98.8872 195.159 98.7686C195.428 98.6499 198.093 103.901 201.106 110.505C201.834 112.134 202.529 113.684 203.194 115.17C203.478 115.866 203.937 116.641 203.684 117.598C203.55 118.073 203.115 118.445 202.719 118.579C202.324 118.729 201.976 118.761 201.667 118.8C199.2 119.101 197.666 119.212 197.642 119.077Z" fill="#263238"/>
<path d="M187.543 91.8961C187.346 92.5762 184.886 92.4259 182.039 92.9637C179.184 93.4461 176.922 94.4426 176.503 93.8653C176.313 93.5885 176.677 92.94 177.571 92.2282C178.457 91.5244 179.896 90.8126 181.604 90.5042C183.312 90.2037 184.91 90.3698 185.985 90.7256C187.061 91.0894 187.622 91.5797 187.543 91.8961Z" fill="#263238"/>
<path d="M210.193 92.4417C209.797 93.0269 208.073 92.5604 206.049 92.6711C204.016 92.7106 202.332 93.2958 201.897 92.7422C201.707 92.4734 201.936 91.8961 202.656 91.3187C203.36 90.7493 204.57 90.2353 205.962 90.1799C207.354 90.1325 208.595 90.5516 209.339 91.0736C210.09 91.6034 210.367 92.157 210.193 92.4417Z" fill="#263238"/>
<path d="M162.213 111.627C161.936 111.524 151.062 109.12 152.137 119.986C153.213 130.844 164.981 127.309 164.973 126.993C164.957 126.677 162.213 111.627 162.213 111.627Z" fill="#D4BF9E"/>
<path d="M160.156 123.426C160.109 123.395 159.982 123.576 159.674 123.758C159.374 123.932 158.852 124.083 158.266 123.924C157.08 123.616 155.933 121.892 155.688 119.939C155.562 118.95 155.68 117.993 155.949 117.179C156.202 116.348 156.661 115.747 157.23 115.589C157.792 115.399 158.235 115.708 158.401 116C158.575 116.293 158.527 116.514 158.591 116.522C158.622 116.546 158.804 116.317 158.678 115.874C158.614 115.66 158.456 115.415 158.179 115.233C157.895 115.043 157.507 114.98 157.104 115.059C156.273 115.202 155.593 116.048 155.293 116.941C154.945 117.843 154.795 118.926 154.937 120.034C155.222 122.216 156.542 124.154 158.164 124.446C158.946 124.573 159.563 124.28 159.864 123.988C160.156 123.687 160.196 123.442 160.156 123.426Z" fill="#C9B28E"/>
<path d="M213.665 76.5857C212.921 80.9116 204.151 84.8657 196.883 84.6601C190.185 84.4624 186.871 81.1409 181.999 78.7763C178.915 77.2816 178.915 77.2816 174.74 77.9617C171.355 78.5153 169.607 82.5011 167.701 85.3561C171.315 93.2407 169.852 102.406 168.326 110.947C168.16 111.889 167.946 112.909 167.227 113.541C166.009 114.617 164.024 113.976 162.83 112.877C160.908 111.114 160.03 108.504 159.405 105.981C157.974 100.224 157.42 94.1897 158.33 88.3217C159.239 82.4537 161.667 76.7597 165.677 72.3784C170.683 66.9059 178.006 63.7504 185.416 63.3708C192.826 62.9912 200.268 65.2847 206.468 69.3496C209.347 71.2238 212.035 73.5489 213.665 76.5857Z" fill="#263238"/>
<path d="M199.24 124.574C197.397 123.711 195.547 122.849 193.704 121.995C193.388 121.845 193.047 121.695 192.7 121.742C192.304 121.798 191.996 122.09 191.743 122.391C190.461 123.949 190.137 126.29 191.126 128.045C192.122 129.801 194.455 130.726 196.322 129.951C198.283 129.137 199.24 126.859 199.39 124.74L199.24 124.574Z" fill="#C9B28E"/>
<path d="M196.495 130.347C196.511 130.394 196.242 130.553 195.689 130.671C195.143 130.774 194.289 130.821 193.308 130.497C192.336 130.189 191.236 129.43 190.556 128.212C189.868 127.025 189.615 125.357 190.216 123.846C190.501 123.095 190.952 122.431 191.497 121.909C191.774 121.648 192.067 121.426 192.399 121.229C192.573 121.134 192.786 121.039 193.039 121.023C193.285 121.007 193.506 121.07 193.68 121.149C194.044 121.308 194.273 121.482 194.542 121.64C194.803 121.798 195.048 121.956 195.293 122.106C195.768 122.407 196.219 122.684 196.638 122.953C198.283 123.996 199.263 124.685 199.208 124.787C199.153 124.882 198.061 124.368 196.345 123.459C195.91 123.221 195.444 122.968 194.945 122.7C194.692 122.557 194.431 122.415 194.17 122.272C193.909 122.13 193.617 121.948 193.387 121.861C193.134 121.774 193.024 121.782 192.778 121.917C192.533 122.067 192.272 122.272 192.051 122.494C191.592 122.945 191.22 123.506 190.975 124.147C190.469 125.42 190.651 126.804 191.213 127.856C191.766 128.915 192.66 129.611 193.498 129.959C194.344 130.315 195.119 130.363 195.641 130.363C196.179 130.339 196.48 130.284 196.495 130.347Z" fill="#263238"/>
<path d="M194.756 105.38C194.692 105.388 194.764 104.367 194.321 102.628C193.886 100.927 192.747 98.4203 190.185 96.4749C188.911 95.5259 187.314 94.7271 185.471 94.4029C183.644 94.0944 181.572 94.1498 179.611 94.9011C178.623 95.2491 177.666 95.7631 176.796 96.4195C175.91 97.0601 175.103 97.8588 174.439 98.7841C173.071 100.611 172.296 102.952 172.272 105.364C172.296 107.776 173.063 110.125 174.439 111.951C175.103 112.877 175.91 113.676 176.796 114.324C177.674 114.98 178.623 115.502 179.611 115.842C181.572 116.594 183.644 116.649 185.471 116.341C187.314 116.016 188.911 115.218 190.185 114.269C192.747 112.331 193.886 109.824 194.321 108.116C194.764 106.392 194.685 105.38 194.756 105.38C194.764 105.38 194.764 105.443 194.764 105.562C194.764 105.712 194.756 105.886 194.756 106.099C194.756 106.337 194.74 106.629 194.685 106.977C194.637 107.325 194.598 107.721 194.471 108.163C194.289 109.049 193.886 110.101 193.245 111.224C192.597 112.339 191.656 113.509 190.359 114.506C189.07 115.494 187.433 116.333 185.535 116.681C183.652 117.013 181.517 116.965 179.485 116.206C178.457 115.858 177.468 115.32 176.559 114.64C175.641 113.976 174.803 113.154 174.115 112.197C172.691 110.307 171.885 107.879 171.861 105.372C171.885 102.865 172.691 100.437 174.115 98.5468C174.803 97.5899 175.641 96.7675 176.559 96.1032C177.468 95.431 178.457 94.8932 179.485 94.5452C181.517 93.7781 183.652 93.7307 185.535 94.0707C187.433 94.4187 189.07 95.2649 190.359 96.2455C191.656 97.242 192.597 98.4124 193.245 99.5275C193.886 100.65 194.289 101.702 194.471 102.588C194.598 103.023 194.637 103.426 194.685 103.774C194.74 104.122 194.756 104.415 194.756 104.652C194.756 104.866 194.764 105.048 194.764 105.19C194.764 105.316 194.756 105.38 194.756 105.38Z" fill="#263238"/>
<path d="M221.834 104.32C221.771 104.328 221.842 103.331 221.407 101.639C220.98 99.9779 219.873 97.5342 217.374 95.652C216.14 94.7268 214.582 93.9438 212.787 93.6354C211.007 93.3349 208.991 93.3903 207.077 94.1257C206.112 94.4579 205.187 94.964 204.333 95.6046C203.471 96.2294 202.688 97.0123 202.039 97.9138C200.703 99.6932 199.951 101.971 199.928 104.328C199.951 106.684 200.703 108.962 202.031 110.741C202.68 111.643 203.463 112.418 204.325 113.05C205.179 113.691 206.104 114.197 207.069 114.529C208.983 115.257 210.991 115.32 212.779 115.012C214.574 114.695 216.132 113.912 217.366 112.995C219.865 111.105 220.972 108.669 221.391 107.008C221.842 105.3 221.771 104.312 221.834 104.32C221.85 104.32 221.85 104.565 221.842 105.023C221.842 105.253 221.834 105.545 221.778 105.878C221.731 106.218 221.691 106.605 221.573 107.032C221.185 108.725 220.102 111.247 217.563 113.216C216.306 114.181 214.708 115.004 212.858 115.336C211.023 115.66 208.943 115.613 206.958 114.869C205.962 114.529 204.997 114.007 204.111 113.343C203.218 112.695 202.403 111.896 201.731 110.963C200.339 109.12 199.556 106.755 199.54 104.312C199.564 101.868 200.347 99.5034 201.739 97.6608C202.411 96.7276 203.225 95.9209 204.119 95.2804C205.005 94.624 205.97 94.102 206.966 93.7619C208.951 93.0186 211.031 92.9711 212.866 93.2954C214.716 93.6354 216.314 94.4579 217.571 95.4148C220.11 97.384 221.193 99.8988 221.581 101.599C221.699 102.026 221.747 102.414 221.786 102.754C221.842 103.086 221.858 103.379 221.85 103.608C221.85 104.074 221.85 104.32 221.834 104.32Z" fill="#263238"/>
<path d="M199.738 101.813C199.69 101.861 199.429 101.639 198.955 101.41C198.48 101.18 197.769 100.959 196.962 100.975C196.163 100.983 195.451 101.236 194.985 101.481C194.51 101.726 194.265 101.955 194.218 101.916C194.178 101.884 194.36 101.568 194.835 101.236C195.301 100.904 196.06 100.579 196.954 100.564C197.84 100.548 198.615 100.84 199.097 101.157C199.572 101.481 199.769 101.781 199.738 101.813Z" fill="#263238"/>
<path d="M172.755 103.774C172.826 103.869 170.604 105.641 167.796 107.729C164.989 109.824 162.664 111.446 162.592 111.359C162.521 111.264 164.744 109.5 167.551 107.404C170.358 105.301 172.691 103.68 172.755 103.774Z" fill="#263238"/>
<g opacity="0.3">
<path opacity="0.3" d="M163.399 155.242C162.3 165.973 166.38 177.306 174.985 183.807C175.657 184.321 176.511 184.819 177.302 184.534C177.856 184.337 178.211 183.807 178.504 183.293C180.956 179.046 181.778 174.356 181.074 169.5C179.714 173.091 178.544 176.61 177.167 180.367C169.662 175.819 164.989 166.139 163.399 155.242Z" fill="black"/>
</g>
<path opacity="0.3" d="M192.542 179.647L198.86 177.338L199.904 188.022C199.904 188.022 206.721 175.598 209.545 169.928C212.368 164.257 210.913 154.253 210.913 154.253C210.913 154.253 211.925 162.968 205.092 174.08L199.936 182.463V173.684L192.542 179.647Z" fill="black"/>
<g opacity="0.3">
<path opacity="0.3" d="M119.057 233.946C116.242 232.617 112.999 232.435 109.907 232.799C106.641 233.179 103.359 234.183 100.797 236.247C98.2346 238.311 96.5026 241.569 96.819 244.843L97.1353 244.891C99.3417 238.928 103.723 234.586 109.377 234.056C115.032 233.534 120.544 236.049 124.427 240.193C124.047 237.093 121.873 235.274 119.057 233.946Z" fill="black"/>
</g>
<g opacity="0.3">
<path opacity="0.3" d="M278.798 240.043C276.678 237.758 273.705 236.374 270.636 235.836C265.251 234.895 259.47 236.572 255.413 240.241L256.615 239.26C259.675 237.465 263.203 236.406 266.753 236.508C270.296 236.611 273.847 237.924 276.417 240.368C278.782 242.621 280.198 245.658 281.55 248.624C282.08 245.555 280.909 242.329 278.798 240.043Z" fill="black"/>
</g>
<path d="M238.078 190.426C238.054 190.418 238.157 190.11 238.363 189.564C238.608 188.94 238.908 188.172 239.264 187.263C240.031 185.325 241.075 182.644 242.19 179.671C243.297 176.689 244.254 173.977 244.942 172.008C245.267 171.09 245.543 170.315 245.765 169.683C245.963 169.137 246.089 168.836 246.113 168.844C246.136 168.852 246.065 169.169 245.915 169.73C245.765 170.292 245.528 171.106 245.219 172.103C244.602 174.096 243.685 176.832 242.578 179.813C241.471 182.795 240.371 185.46 239.541 187.374C239.122 188.331 238.774 189.098 238.521 189.628C238.252 190.149 238.102 190.434 238.078 190.426Z" fill="#263238"/>
<path d="M138.377 191.201C138.266 191.225 137.404 187.46 136.455 182.794C135.506 178.128 134.826 174.332 134.937 174.309C135.048 174.285 135.91 178.049 136.859 182.715C137.808 187.381 138.488 191.177 138.377 191.201Z" fill="#263238"/>
<path d="M136.882 238.248C137.136 238.375 133.988 213.606 133.988 213.606C133.988 213.606 135.973 194.807 137.088 193.938L137.12 187.302C137.12 187.302 140.196 185.436 141.019 188.449C141.019 188.449 143.747 186.085 144.221 191.715C144.696 197.354 144.799 203.111 144.799 203.111L150.864 218.279L151.861 218.786C151.861 218.786 153.166 206.899 153.925 205.152C154.684 203.404 155.206 199.149 158.077 199.79C160.955 200.43 161.193 202.811 160.679 206.686C160.165 210.561 159.516 214.563 159.761 217.069C159.999 219.576 161.137 225.089 160.789 229.462C160.441 233.843 158.045 238.462 155.522 241.704C153.008 244.946 148.199 251.653 145.582 253.677C144.664 254.381 136.882 238.248 136.882 238.248Z" fill="#D4BF9E"/>
<path d="M139.943 218.089C139.911 218.089 139.919 217.71 139.959 217.03C140.014 216.27 140.077 215.306 140.156 214.151C140.338 211.723 140.623 208.37 140.963 204.669C141.137 202.826 141.303 201.063 141.453 199.457C141.533 198.658 141.58 197.907 141.477 197.219C141.382 196.531 141.113 195.938 140.718 195.511C139.919 194.641 138.883 194.42 138.243 194.427C137.57 194.42 137.222 194.601 137.207 194.562C137.199 194.546 137.286 194.507 137.452 194.435C137.626 194.372 137.887 194.293 138.235 194.269C138.915 194.222 140.022 194.396 140.931 195.321C141.382 195.78 141.699 196.444 141.809 197.172C141.936 197.907 141.888 198.69 141.825 199.497C141.683 201.11 141.525 202.866 141.366 204.716C141.026 208.417 140.694 211.763 140.441 214.183C140.307 215.329 140.196 216.294 140.109 217.045C140.038 217.718 139.975 218.089 139.943 218.089Z" fill="#C9B28E"/>
<path d="M143.209 207.959C143.264 208.007 142.592 208.6 142.134 209.913C141.643 211.202 141.469 213.147 141.121 215.259C140.797 217.378 140.473 219.292 140.228 220.668C139.975 222.052 139.793 222.898 139.737 222.89C139.682 222.882 139.761 222.013 139.943 220.621C140.117 219.229 140.394 217.307 140.718 215.188C141.058 213.084 141.279 211.131 141.865 209.794C142.141 209.13 142.474 208.647 142.743 208.347C143.003 208.062 143.193 207.944 143.209 207.959Z" fill="#C9B28E"/>
<path d="M140.979 188.117C141.011 188.109 141.082 188.386 141.193 188.9C141.303 189.406 141.438 190.142 141.588 191.059C141.888 192.886 142.221 195.425 142.434 198.248C142.64 201.071 142.687 203.634 142.656 205.484C142.64 206.409 142.616 207.161 142.576 207.675C142.545 208.189 142.513 208.473 142.482 208.473C142.418 208.473 142.41 207.327 142.363 205.484C142.316 203.634 142.229 201.087 142.023 198.28C141.817 195.472 141.533 192.934 141.303 191.099C141.074 189.264 140.916 188.133 140.979 188.117Z" fill="#C9B28E"/>
<path d="M158.48 211.344C158.543 211.438 157.594 211.873 156.44 211.518C155.277 211.17 154.739 210.276 154.842 210.236C154.937 210.157 155.538 210.83 156.558 211.13C157.571 211.446 158.448 211.225 158.48 211.344Z" fill="#C9B28E"/>
<path d="M137.222 235.164L121.192 241.902H111.639C111.639 241.902 102.196 244.852 100.741 253.701C99.2861 262.559 99.0805 267.114 103.232 268.205C107.384 269.297 119.112 269.423 124.925 267.493C130.738 265.564 145.961 253.274 145.961 253.274L147.432 244.385L137.222 235.164Z" fill="#D4BF9E"/>
<path d="M140.979 244.946C140.955 244.962 140.797 244.82 140.52 244.527C140.236 244.251 139.888 243.792 139.476 243.207C138.686 242.02 137.816 240.225 137.238 238.137C136.637 236.05 136.384 234.096 136.25 232.689C136.131 231.281 136.131 230.403 136.187 230.395C136.25 230.387 136.345 231.257 136.534 232.649C136.74 234.041 137.041 235.963 137.626 238.019C138.195 240.083 139.002 241.846 139.714 243.048C140.449 244.251 141.034 244.899 140.979 244.946Z" fill="#C9B28E"/>
<path d="M147.954 247.762C147.867 247.73 148.587 246.512 148.864 244.322C148.998 243.238 148.982 241.918 148.674 240.502C148.366 239.087 147.693 237.631 146.713 236.271C145.74 234.903 144.641 233.717 143.723 232.57C142.79 231.423 142.047 230.308 141.556 229.296C141.066 228.284 140.837 227.39 140.75 226.765C140.671 226.141 140.702 225.793 140.726 225.793C140.805 225.777 140.781 227.208 141.817 229.162C142.324 230.134 143.083 231.21 144.016 232.325C144.949 233.448 146.056 234.634 147.053 236.026C148.057 237.41 148.761 238.944 149.054 240.407C149.354 241.87 149.33 243.238 149.156 244.346C148.982 245.461 148.674 246.323 148.421 246.892C148.302 247.177 148.184 247.39 148.097 247.533C148.018 247.699 147.97 247.77 147.954 247.762Z" fill="#C9B28E"/>
<path d="M123.248 209.162C123.146 209.217 121.398 206.03 119.342 202.052C117.286 198.074 115.704 194.808 115.799 194.753C115.902 194.697 117.649 197.884 119.705 201.862C121.762 205.848 123.343 209.114 123.248 209.162Z" fill="white"/>
<path d="M149.172 180.312C149.069 180.265 150.153 177.615 151.584 174.389C153.023 171.162 154.273 168.584 154.376 168.632C154.479 168.679 153.395 171.328 151.964 174.555C150.524 177.774 149.275 180.352 149.172 180.312Z" fill="white"/>
<path d="M174.55 199.039C174.463 199.11 172.834 197.292 170.92 194.974C168.998 192.657 167.519 190.72 167.606 190.649C167.693 190.577 169.323 192.396 171.236 194.713C173.158 197.031 174.637 198.968 174.55 199.039Z" fill="white"/>
<path d="M168.714 224.796C168.619 224.733 169.845 222.882 171.45 220.668C173.055 218.453 174.432 216.714 174.519 216.785C174.613 216.848 173.388 218.699 171.782 220.913C170.177 223.119 168.809 224.859 168.714 224.796Z" fill="white"/>
<path d="M160.853 261.183C160.805 261.207 160.442 260.605 159.927 259.593C159.406 258.581 158.733 257.165 158.061 255.576C157.381 253.978 156.835 252.515 156.464 251.44C156.1 250.364 155.91 249.684 155.965 249.668C156.021 249.652 156.305 250.293 156.74 251.337C157.239 252.523 157.808 253.899 158.441 255.418C159.089 256.928 159.682 258.288 160.196 259.475C160.639 260.503 160.908 261.151 160.853 261.183Z" fill="white"/>
<path d="M183.186 245.714C183.162 245.825 181.011 245.5 178.385 244.994C175.752 244.488 173.64 243.982 173.664 243.871C173.688 243.761 175.839 244.085 178.465 244.591C181.09 245.097 183.21 245.603 183.186 245.714Z" fill="white"/>
<path d="M200.505 211.716C200.418 211.637 202.474 209.296 205.084 206.473C207.694 203.657 209.885 201.435 209.964 201.514C210.051 201.593 207.995 203.934 205.385 206.757C202.775 209.573 200.592 211.795 200.505 211.716Z" fill="white"/>
<path d="M217.935 257.055C217.848 257.126 215.294 254.168 212.225 250.443C209.157 246.719 206.745 243.642 206.832 243.571C206.919 243.5 209.473 246.458 212.542 250.182C215.61 253.907 218.022 256.984 217.935 257.055Z" fill="white"/>
<path d="M109.757 237.734C109.812 237.845 107.479 239.031 104.933 240.985C102.378 242.922 100.615 244.868 100.52 244.781C100.48 244.749 100.868 244.219 101.595 243.436C102.315 242.661 103.391 241.649 104.68 240.661C105.969 239.68 107.234 238.913 108.175 238.415C109.124 237.924 109.733 237.687 109.757 237.734Z" fill="white"/>
<path d="M116.273 220.258C116.368 220.321 115.538 221.736 114.415 223.421C113.292 225.105 112.311 226.418 112.216 226.355C112.121 226.292 112.952 224.876 114.075 223.192C115.198 221.507 116.178 220.194 116.273 220.258Z" fill="white"/>
<path d="M130.959 237.418C130.872 237.474 130.042 236.09 129.615 234.168C129.172 232.254 129.322 230.649 129.425 230.657C129.551 230.657 129.591 232.215 130.018 234.073C130.429 235.94 131.07 237.363 130.959 237.418Z" fill="white"/>
<path d="M133.134 182.914C133.15 183.024 131.79 183.317 130.089 183.554C128.389 183.799 126.997 183.902 126.981 183.784C126.966 183.673 128.326 183.38 130.026 183.143C131.726 182.906 133.118 182.795 133.134 182.914Z" fill="white"/>
<path d="M144.158 163.357C144.213 163.459 143.019 164.226 141.493 165.073C139.967 165.919 138.678 166.528 138.622 166.425C138.567 166.322 139.761 165.555 141.287 164.709C142.822 163.863 144.103 163.262 144.158 163.357Z" fill="white"/>
<path d="M175.167 171.621C175.08 171.692 173.712 170.047 172.114 167.951C170.517 165.855 169.299 164.108 169.394 164.036C169.481 163.965 170.849 165.61 172.446 167.706C174.036 169.794 175.254 171.549 175.167 171.621Z" fill="white"/>
<path d="M214.527 191.281C214.448 191.352 213.008 189.873 211.68 187.722C210.335 185.571 209.647 183.634 209.742 183.594C209.853 183.547 210.707 185.389 212.028 187.509C213.34 189.62 214.622 191.202 214.527 191.281Z" fill="white"/>
<path d="M229.553 196.231C229.655 196.279 228.928 198.114 227.923 200.32C226.919 202.534 226.025 204.29 225.915 204.243C225.812 204.195 226.539 202.36 227.544 200.154C228.548 197.94 229.45 196.184 229.553 196.231Z" fill="white"/>
<path d="M231.648 175.725C231.561 175.797 229.774 173.796 227.655 171.249C225.535 168.703 223.89 166.575 223.977 166.504C224.064 166.433 225.852 168.434 227.971 170.98C230.091 173.535 231.735 175.654 231.648 175.725Z" fill="white"/>
<path d="M208.706 159.07C208.595 159.078 208.429 157.362 208.35 155.235C208.263 153.115 208.295 151.391 208.406 151.383C208.516 151.375 208.682 153.092 208.761 155.219C208.841 157.338 208.817 159.062 208.706 159.07Z" fill="white"/>
<path d="M227.417 158.035C227.433 158.145 225.243 158.533 222.538 158.897C219.825 159.26 217.619 159.458 217.603 159.347C217.587 159.237 219.77 158.849 222.483 158.485C225.187 158.122 227.402 157.916 227.417 158.035Z" fill="white"/>
<path d="M256.884 179.679C256.781 179.727 255.468 177.22 253.942 174.08C252.423 170.94 251.269 168.346 251.372 168.299C251.474 168.252 252.787 170.759 254.313 173.898C255.832 177.038 256.987 179.624 256.884 179.679Z" fill="white"/>
<path d="M251.917 198.383C251.807 198.359 252.115 196.342 252.605 193.883C253.096 191.415 253.586 189.438 253.697 189.462C253.807 189.486 253.499 191.502 253.009 193.962C252.518 196.421 252.028 198.399 251.917 198.383Z" fill="white"/>
<path d="M265.583 213.124C265.472 213.164 264.428 210.443 263.234 207.05C262.048 203.658 261.17 200.874 261.281 200.834C261.391 200.795 262.435 203.515 263.629 206.908C264.816 210.309 265.694 213.084 265.583 213.124Z" fill="white"/>
<path d="M263.685 221.744C263.661 221.847 261.771 221.451 259.691 220.313C257.604 219.19 256.235 217.822 256.314 217.75C256.394 217.655 257.849 218.858 259.889 219.957C261.914 221.064 263.717 221.626 263.685 221.744Z" fill="white"/>
<path d="M281.194 241.412C281.091 241.459 280.458 240.257 279.778 238.731C279.098 237.204 278.632 235.931 278.734 235.884C278.837 235.836 279.47 237.038 280.15 238.565C280.83 240.091 281.297 241.364 281.194 241.412Z" fill="white"/>
<path d="M177.784 268.839C177.674 268.854 177.397 267.281 177.168 265.335C176.938 263.39 176.851 261.8 176.962 261.784C177.073 261.768 177.349 263.342 177.579 265.288C177.808 267.233 177.895 268.823 177.784 268.839Z" fill="white"/>
<path d="M231.506 267.478C231.395 267.454 231.625 265.92 232.02 264.053C232.415 262.187 232.827 260.692 232.937 260.716C233.048 260.74 232.819 262.274 232.423 264.14C232.028 266.007 231.617 267.501 231.506 267.478Z" fill="white"/>
<path d="M241.803 110.663L248.746 98.4206C245.67 93.4305 243.898 87.5625 243.898 81.2753C243.898 63.1889 258.56 48.5269 276.647 48.5269C294.733 48.5269 309.395 63.1889 309.395 81.2753C309.395 99.3617 294.733 114.024 276.647 114.024C269.094 114.024 262.143 111.462 256.607 107.167L256.615 107.183L241.803 110.663Z" fill="#FAFAFA"/>
<path d="M241.803 110.663C242.506 110.505 247.196 109.429 256.639 107.27L256.789 107.238L256.694 107.112L256.686 107.096L256.544 107.238C258.41 108.686 260.648 110.109 263.282 111.303C265.915 112.474 268.936 113.423 272.266 113.866C273.926 114.079 275.666 114.214 277.453 114.127C278.347 114.079 279.257 114.055 280.174 113.976C281.083 113.842 282.009 113.7 282.942 113.557C286.651 112.822 290.439 111.414 293.982 109.223C297.517 107.033 300.791 104.067 303.417 100.421C306.034 96.7757 308.019 92.4577 308.952 87.7681C309.87 83.0784 309.799 78.0566 308.565 73.193C307.323 68.3452 305.006 63.616 301.542 59.7251L300.206 58.2541C299.763 57.7559 299.241 57.3526 298.766 56.8939C298.268 56.4668 297.817 55.9765 297.28 55.5969L295.706 54.4186C295.2 54.0073 294.638 53.6752 294.077 53.343C293.523 53.003 292.97 52.6708 292.416 52.3308C291.831 52.0461 291.254 51.7693 290.676 51.4846C290.091 51.2157 289.529 50.8993 288.921 50.7016C284.16 48.8115 279.09 48.0919 274.235 48.4478C269.379 48.7957 264.737 50.1876 260.759 52.4336C256.765 54.6558 253.396 57.6293 250.794 60.9429C248.185 64.2645 246.35 67.9181 245.211 71.5639C244.08 75.2254 243.772 78.8554 243.788 82.2164C243.882 85.5854 244.499 88.6933 245.393 91.4138C246.287 94.1422 247.465 96.491 248.675 98.4602V98.3653C244.286 106.226 242.143 110.062 241.803 110.663C242.151 110.062 244.341 106.258 248.833 98.4681L248.865 98.4206L248.833 98.3732C247.639 96.404 246.484 94.0631 245.606 91.3506C244.737 88.638 244.136 85.5616 244.056 82.2164C244.056 78.8791 244.373 75.2887 245.504 71.6667C246.642 68.0605 248.469 64.4463 251.055 61.1644C253.633 57.8903 256.971 54.9563 260.925 52.7657C264.863 50.5514 269.458 49.1832 274.251 48.8432C279.043 48.5031 284.057 49.2149 288.754 51.0812C289.355 51.271 289.909 51.5874 290.486 51.8563C291.056 52.133 291.633 52.4098 292.203 52.6945C292.748 53.0267 293.294 53.3588 293.84 53.691C294.393 54.0231 294.947 54.3474 295.445 54.7586L296.995 55.9211C297.525 56.2928 297.968 56.7752 298.458 57.2023C298.925 57.6531 299.447 58.0564 299.882 58.5467L301.202 60.0019C304.627 63.8453 306.912 68.5191 308.138 73.3037C309.356 78.1041 309.435 83.0705 308.533 87.7048C307.616 92.3391 305.663 96.6175 303.076 100.216C300.49 103.83 297.256 106.772 293.76 108.939C290.265 111.121 286.516 112.521 282.847 113.257C281.922 113.399 281.004 113.541 280.111 113.676C279.201 113.755 278.3 113.779 277.422 113.834C275.65 113.929 273.926 113.794 272.281 113.589C268.976 113.162 265.978 112.229 263.361 111.082C260.743 109.911 258.513 108.512 256.647 107.088L256.038 106.622L256.504 107.231L256.512 107.246L256.567 107.088C247.18 109.358 242.506 110.497 241.803 110.663Z" fill="#263238"/>
<path d="M285.488 79.908C285.488 81.6715 286.92 83.1108 288.691 83.1108C290.463 83.1108 291.894 81.6794 291.894 79.908C291.894 78.1444 290.463 76.7051 288.691 76.7051C286.92 76.7051 285.488 78.1365 285.488 79.908Z" fill="#263238"/>
<path d="M272.685 79.908C272.685 81.6715 274.116 83.1108 275.887 83.1108C277.659 83.1108 279.09 81.6794 279.09 79.908C279.09 78.1444 277.659 76.7051 275.887 76.7051C274.116 76.7051 272.685 78.1365 272.685 79.908Z" fill="#263238"/>
<path d="M259.905 78.3101C259.019 79.8443 259.549 81.7977 261.075 82.6834C262.609 83.5692 264.563 83.0393 265.448 81.513C266.334 79.9788 265.804 78.0254 264.278 77.1397C262.752 76.254 260.79 76.7759 259.905 78.3101Z" fill="#263238"/>
</svg>
