<svg width="696" height="680" viewBox="0 0 696 680" fill="none" xmlns="http://www.w3.org/2000/svg">
<g filter="url(#filter0_d)">
<path d="M315.473 42.5269C333.437 24.5628 362.563 24.5628 380.527 42.5269L633.473 295.473C651.437 313.437 651.437 342.563 633.473 360.527L380.527 613.473C362.563 631.437 333.437 631.437 315.473 613.473L62.5269 360.527C44.5628 342.563 44.5628 313.437 62.5269 295.473L315.473 42.5269Z" fill="#F8F4EE"/>
</g>
<g filter="url(#filter1_d)">
<path d="M175.601 139.899C181.068 134.432 189.932 134.432 195.399 139.899L218.101 162.601C223.568 168.068 223.568 176.932 218.101 182.399L195.399 205.101C189.932 210.568 181.068 210.568 175.601 205.101L152.899 182.399C147.432 176.932 147.432 168.068 152.899 162.601L175.601 139.899Z" fill="#F8F4EE"/>
</g>
<path d="M193.84 171.719C192.928 171.719 192.145 171.195 191.758 170.431C191.372 171.195 190.586 171.719 189.673 171.719C188.76 171.719 187.972 171.195 187.587 170.431C187.2 171.195 186.412 171.719 185.499 171.719C184.587 171.719 183.797 171.195 183.411 170.431C183.025 171.195 182.236 171.719 181.323 171.719C180.411 171.719 179.621 171.195 179.235 170.431C178.85 171.195 178.048 171.719 177.135 171.719C176.731 171.719 176.367 171.616 176.007 171.436V180.136H174.783V182.448H196.169V180.136H195.017V171.394C194.657 171.6 194.274 171.719 193.84 171.719ZM185.512 172.984H192.64V176.524H185.512V172.984ZM178.383 172.984H183.136V178.908H178.383V172.984Z" fill="#8F7A61"/>
<path d="M174.808 169.445H174.81C174.81 169.443 174.81 169.441 174.81 169.44L174.808 169.445Z" fill="#8F7A61"/>
<path d="M179.295 169.371L180.808 164.603H184.002L183.35 169.371H187.651L187.014 164.603H190.304L191.707 169.371H196.158L193.865 164.603V161.062H177.232V164.603L174.844 169.371H179.295Z" fill="#8F7A61"/>
<g filter="url(#filter2_d)">
<rect x="526.154" y="416" width="76.9861" height="76.9861" rx="14" transform="rotate(45 526.154 416)" fill="#8F7A61"/>
</g>
<path d="M532.016 460.284L529.354 458.757L526.692 460.284L524.031 458.757L521.369 460.284L519.373 459.139V477.132H531.253V479.772C531.253 480.529 531.872 481.145 532.632 481.145C533.393 481.145 534.012 480.529 534.012 479.772V459.139L532.016 460.284ZM526.692 470.741H520.994V469.415H526.693L526.692 470.741ZM532.391 467.846H520.994V466.52H532.391V467.846ZM532.391 464.951H520.994V463.625H532.391V464.951Z" fill="#F8F4EE"/>
<path d="M530.198 478.562H515.928V479.825C515.928 480.553 516.531 481.145 517.272 481.145H530.566C530.333 480.758 530.198 480.307 530.198 479.825L530.198 478.562Z" fill="#F8F4EE"/>
<mask id="mask0" mask-type="alpha" maskUnits="userSpaceOnUse" x="477" y="421" width="98" height="99">
<rect x="525.887" y="416" width="76.9861" height="76.9861" rx="14" transform="rotate(45 525.887 416)" fill="#8F7A61"/>
</mask>
<g mask="url(#mask0)">
<g filter="url(#filter3_d)">
<rect x="491.592" y="475.576" width="40.2629" height="40.2629" rx="6" transform="rotate(45 491.592 475.576)" fill="#F8F4EE"/>
</g>
</g>
<mask id="mask1" mask-type="alpha" maskUnits="userSpaceOnUse" x="438" y="456" width="108" height="103">
<path d="M545.891 544.879L483.911 482.899L456.037 456.008L438 516.349L480.304 558.653L545.891 544.879Z" fill="#C4C4C4"/>
</mask>
<g mask="url(#mask1)">
<g filter="url(#filter4_d)">
<path d="M487.351 479.819C489.694 477.476 493.493 477.476 495.836 479.819L515.821 499.804C518.164 502.147 518.164 505.946 515.821 508.289L495.836 528.274C493.493 530.617 489.694 530.617 487.351 528.274L467.366 508.289C465.023 505.946 465.023 502.147 467.366 499.804L487.351 479.819Z" fill="#F8F4EE"/>
</g>
<path d="M496.12 504.745C495.761 504.745 495.469 505.037 495.469 505.396C495.469 505.756 495.761 506.048 496.12 506.048H498.074V504.745H496.12Z" fill="#8F7A61"/>
<path d="M494.746 505.365C494.746 504.546 495.398 503.877 496.194 503.877H497.641V502.016C497.641 501.807 497.482 501.643 497.28 501.643H496.556V500.527C496.556 500.318 496.397 500.155 496.194 500.155H495.333L494.71 498.874C494.616 498.688 494.399 498.614 494.225 498.703L493.386 499.135L493.263 498.874C493.169 498.688 492.952 498.614 492.778 498.703L489.955 500.155H487.871C487.27 500.155 486.785 500.653 486.785 501.271V507.971C486.785 508.589 487.27 509.087 487.871 509.087H497.28C497.482 509.087 497.641 508.924 497.641 508.715V506.854H496.194C495.398 506.854 494.746 506.184 494.746 505.365ZM495.832 500.899V501.182L495.695 500.899H495.832ZM494.225 499.537L495.246 501.643H494.609L493.711 499.797L494.225 499.537ZM487.871 500.899H488.508L487.531 501.398C487.516 501.36 487.509 501.316 487.509 501.271C487.509 501.063 487.668 500.899 487.871 500.899ZM488.681 501.643L492.778 499.537L493.798 501.643H488.681Z" fill="#8F7A61"/>
</g>
<path d="M415.234 236.237L507.405 164.237C507.739 163.98 507.981 163.624 508.11 163.214L513.832 144.561C513.983 144.061 514.325 143.637 514.788 143.371L518.506 141.265C518.878 141.053 519.303 140.962 519.727 141.008L531.276 142.129C532.21 142.22 532.961 142.924 533.113 143.849L533.985 149.243C534.069 149.766 533.947 150.304 533.644 150.743L532.096 152.978C531.648 153.622 531.61 154.456 531.982 155.145C532.399 155.911 532.301 156.858 531.716 157.502C529.804 159.631 524.993 164.336 517.284 167.632C517.019 167.745 516.776 167.912 516.586 168.124L428.247 260.937C427.458 261.785 414.248 237.01 415.234 236.237Z" fill="#D4BF9E"/>
<path d="M520.957 157.29C520.881 157.29 520.797 157.267 520.729 157.229C520.502 157.1 520.41 156.812 520.539 156.585C520.653 156.373 523.385 151.501 526.815 152.554C529.501 153.38 530.252 153.069 530.26 153.069C530.48 152.925 530.753 152.994 530.905 153.213C531.049 153.433 530.973 153.736 530.753 153.888C530.54 154.032 529.607 154.418 526.534 153.471C523.84 152.637 521.397 157.009 521.374 157.055C521.291 157.199 521.124 157.29 520.957 157.29Z" fill="url(#paint0_linear)"/>
<path d="M415.492 236.025L373.842 270.877L386.734 300.63L433.536 257.399C424.499 251.201 418.216 244.155 415.492 236.025Z" fill="#8F7A61"/>
<path d="M142.994 595.131C143.389 589.858 145.111 586.153 146.947 583.63C143.017 584.91 141.537 587.827 140.619 595.631C139.526 604.912 137.576 630.036 137.068 635.597C136.552 641.158 138.851 643.878 140.619 645.689C141.203 646.288 142.121 646.007 143.199 645.166C140.991 642.348 140.111 639.476 139.671 637.105C138.98 633.355 142.083 607.405 142.994 595.131Z" fill="#8F7A61"/>
<path d="M168.702 587.842L161.873 579C161.873 579 155.317 582.122 149.452 583.039C148.518 583.183 147.699 583.38 146.948 583.622C145.111 586.145 143.389 589.858 142.994 595.123C142.076 607.405 138.973 633.355 139.671 637.09C140.111 639.461 140.991 642.333 143.199 645.151C145.4 643.424 148.291 639.295 150.491 635.067C153.761 628.771 164.84 609.928 167.435 602.889C170.038 595.858 168.702 587.842 168.702 587.842Z" fill="#232323"/>
<path d="M261.639 507.523C262.899 502.394 265.213 499.015 267.444 496.833C263.354 497.446 261.411 500.083 259.218 507.622C256.608 516.592 250.523 541.049 249.088 546.444C247.662 551.846 249.475 554.907 250.917 556.983C251.395 557.665 252.344 557.543 253.55 556.892C251.835 553.748 251.448 550.77 251.403 548.361C251.335 544.557 258.702 519.479 261.639 507.523Z" fill="#8F7A61"/>
<path d="M288.196 504.583L282.923 494.734C282.923 494.734 275.942 496.727 270 496.666C269.052 496.658 268.21 496.711 267.436 496.825C265.205 499.015 262.891 502.386 261.631 507.516C258.694 519.471 251.334 544.557 251.395 548.353C251.44 550.763 251.827 553.74 253.542 556.884C256.001 555.551 259.537 551.952 262.405 548.149C266.669 542.481 280.722 525.722 284.448 519.214C288.181 512.713 288.196 504.583 288.196 504.583Z" fill="#232323"/>
<path d="M168.702 566.333C167.503 567.901 158.777 583.751 156.888 587.191C156.569 587.767 156.357 588.395 156.281 589.047C156.068 590.835 156.243 594.245 160.007 596.73C162.306 598.253 165.402 597.73 167.063 595.533L182.922 574.682L168.702 566.333Z" fill="#D4BF9E"/>
<path d="M291.755 483.369C290.314 484.718 279.084 498.909 276.648 501.985C276.238 502.5 275.927 503.083 275.745 503.712C275.237 505.44 274.85 508.834 278.143 511.902C280.161 513.781 283.295 513.774 285.306 511.887L302.363 492.241L291.755 483.369Z" fill="#D4BF9E"/>
<path d="M313.13 408.627C313.13 404.225 338.413 405.793 360.577 403.232C372.217 401.891 379.114 415.862 370.957 424.265L303.842 493.423C302.438 494.87 300.329 495.416 298.409 494.795C295.776 493.939 291.952 492.363 288.56 489.688C286.58 488.127 286.223 485.263 287.672 483.203L318.525 439.342L290.381 447.449L183.566 579.364C181.798 581.546 178.687 582.061 176.312 580.569C173.171 578.599 168.982 575.637 166.212 572.348C164.756 570.613 164.657 568.121 165.901 566.226C177.685 548.247 241.72 450.305 244.755 440.13C248.101 428.924 260.386 408.399 271.874 407.672C283.37 406.945 313.13 408.627 313.13 408.627Z" fill="#232323"/>
<path d="M320.217 438.751C319.899 438.751 319.61 438.539 319.527 438.22C319.428 437.842 319.656 437.448 320.035 437.349L345.356 430.644C345.743 430.545 346.13 430.773 346.229 431.151C346.327 431.53 346.1 431.924 345.72 432.023L320.4 438.728C320.339 438.743 320.278 438.751 320.217 438.751Z" fill="black"/>
<path d="M292.901 445.6C292.727 445.6 292.552 445.539 292.416 445.411C292.127 445.145 292.105 444.691 292.378 444.403L298.698 437.554C298.964 437.266 299.419 437.243 299.708 437.516C299.996 437.781 300.019 438.236 299.746 438.524L293.425 445.373C293.281 445.524 293.091 445.6 292.901 445.6Z" fill="black"/>
<path d="M386.733 269.612C386.733 269.612 400.11 283.257 397.811 306.79C397.136 313.715 394.419 320.291 390.147 325.784L322.607 412.801C321.052 414.809 318.76 416.12 316.233 416.423C306.301 417.643 279.88 420.014 261.191 413.832C259.703 413.339 259.058 411.597 259.832 410.233L321.234 302.358L358.422 259.149C358.415 259.149 376.14 253.072 386.733 269.612Z" fill="#8F7A61"/>
<path d="M322.392 307.256L435.107 306.911L434.797 406.083L322.698 406.428L322.392 307.256Z" fill="#FFA412"/>
<path d="M288.759 307.429L378.503 307.084L378.75 406.256L289.006 406.601L288.759 307.429Z" fill="#FFB93E"/>
<path d="M192.612 366.819C192.346 366.819 192.08 366.675 191.944 366.425C191.747 366.062 191.883 365.599 192.247 365.395C192.505 365.251 218.433 351.158 223.95 346.597C224.276 346.332 224.754 346.378 225.02 346.696C225.285 347.022 225.24 347.499 224.921 347.764C219.291 352.416 194.046 366.137 192.976 366.721C192.862 366.789 192.733 366.819 192.612 366.819Z" fill="url(#paint1_linear)"/>
<path d="M389.974 229.04L369.79 257.497C368.477 259.346 368.659 261.854 370.207 263.513C372.924 266.415 377.514 270.499 382.454 271.431C383.987 271.718 385.55 271.074 386.4 269.771L397.137 253.323C397.144 253.307 399.201 227.464 389.974 229.04Z" fill="#D4BF9E"/>
<path d="M395.672 205.257C396.082 205.643 412.889 238.609 412.889 238.609L393.836 247.791L373.25 218.91C373.258 218.91 388.843 198.832 395.672 205.257Z" fill="#D4BF9E"/>
<path d="M390.876 223.619C390.992 224.113 391.477 224.423 391.959 224.312C392.44 224.201 392.738 223.711 392.623 223.216C392.508 222.721 392.023 222.412 391.541 222.523C391.06 222.633 390.761 223.124 390.876 223.619Z" fill="#263238"/>
<path d="M389.806 222.837C389.944 222.928 390.459 222.215 391.388 221.946C392.311 221.664 393.13 221.978 393.197 221.826C393.233 221.757 393.065 221.571 392.706 221.425C392.353 221.279 391.794 221.2 391.216 221.371C390.64 221.543 390.214 221.915 389.998 222.232C389.776 222.551 389.738 222.799 389.806 222.837Z" fill="#263238"/>
<path d="M391.96 216.344C392.075 216.839 392.56 217.149 393.042 217.038C393.523 216.926 393.821 216.437 393.706 215.942C393.591 215.447 393.107 215.137 392.625 215.248C392.143 215.359 391.844 215.851 391.96 216.344Z" fill="#263238"/>
<path d="M391.19 215.495C391.33 215.585 391.844 214.873 392.772 214.604C393.695 214.321 394.514 214.635 394.582 214.483C394.616 214.415 394.45 214.228 394.09 214.083C393.737 213.937 393.178 213.858 392.601 214.03C392.024 214.202 391.599 214.573 391.382 214.89C391.162 215.208 391.124 215.456 391.19 215.495Z" fill="#263238"/>
<path d="M400.959 224.9C400.946 224.86 401.347 224.696 402.006 224.463C402.174 224.408 402.329 224.338 402.328 224.207C402.338 224.066 402.219 223.883 402.086 223.688C401.82 223.278 401.541 222.848 401.248 222.398C400.074 220.558 399.178 219.03 399.247 218.985C399.316 218.94 400.323 220.395 401.497 222.235C401.782 222.689 402.055 223.123 402.314 223.537C402.429 223.732 402.596 223.945 402.573 224.238C402.56 224.385 402.456 224.51 402.352 224.565C402.25 224.624 402.154 224.646 402.07 224.668C401.394 224.849 400.969 224.94 400.959 224.9Z" fill="#263238"/>
<path d="M402.624 227.468C403.425 226.601 400.37 229.679 398.451 230.121C398.451 230.121 400.041 231.591 401.779 230.307C403.585 228.975 402.624 227.468 402.624 227.468Z" fill="white"/>
<path d="M381.915 222.372L391.423 238.192C391.567 238.434 391.742 238.647 391.947 238.844C393.077 239.897 396.947 242.95 399.944 238.791C402.494 235.245 404.892 232.017 407.449 230.684C408.944 229.903 410.787 230.525 411.546 232.032C413.109 235.131 416.144 241.45 418.049 247.435C418.527 248.936 417.753 250.549 416.289 251.14C412.434 252.701 404.801 255.527 398.04 256.459C396.932 256.611 395.824 256.141 395.164 255.239C392.25 251.254 384.048 240.124 381.248 237.343C378.645 234.752 373.842 235.73 371.679 236.351C370.86 236.586 369.98 236.472 369.251 236.033C367.058 234.714 363.226 231.426 366.732 225.857C367.605 224.471 367.157 222.63 365.791 221.728C363.34 220.122 360.677 217.099 363.211 212.204C365.776 207.249 370.359 206.802 373.478 207.189C374.859 207.355 376.262 206.636 376.786 205.348C377.325 204.045 378.766 204.552 379.464 203.666C380.079 202.885 379.905 202.347 380.299 201.65C381.551 199.43 381.468 197.642 384.351 196.377C386.582 195.4 389.131 195.362 391.537 195.756C392.872 195.975 394.223 196.332 395.308 197.142C396.272 197.862 396.962 198.892 397.63 199.893C399.019 201.984 400.46 204.522 399.55 206.855C398.176 210.378 392.303 211.03 389.192 212.121C385.33 213.477 383.183 215.849 381.688 219.705C381.346 220.584 381.43 221.569 381.915 222.372Z" fill="#232323"/>
<path d="M384.814 243.147C384.814 243.147 381.156 232.464 376.474 232.858C371.793 233.252 368.113 237.904 373.91 243.139C381.126 249.648 384.814 243.147 384.814 243.147Z" fill="#D4BF9E"/>
<path d="M403.23 206.355C387.053 175.845 345.122 203.56 364.638 229.267C379.146 219.637 395.536 205.317 403.23 206.355Z" fill="#739AF0"/>
<path d="M370.942 305.32L334.596 286.72C334.596 286.72 308.646 312.26 302.014 346.984C309.64 347.544 323.518 349.522 337.1 356.371C340.09 339.983 370.942 305.32 370.942 305.32Z" fill="#8F7A61"/>
<path d="M400.862 365.978C400.862 365.978 355.547 391.549 340.25 369.713C337.078 365.183 336.319 360.674 337.101 356.379C323.518 349.529 309.64 347.552 302.014 346.991C300.011 357.462 301.073 368.592 307.227 379.843C334.013 428.765 406.857 377.138 406.857 377.138L400.862 365.978Z" fill="#D4BF9E"/>
<path d="M403.017 379.002C400.126 379.767 397.197 377.873 396.621 374.941C395.718 370.357 394.602 363.319 395.498 360.084C396.886 355.068 399.58 348.613 408.556 350.045C417.533 351.477 428.118 355.257 428.118 355.257C428.118 355.257 427.587 361.796 420.765 359.682L424.992 362.948C424.992 362.948 424.385 368.183 418.626 365.387L422.556 369.721C422.556 369.721 420.083 374.017 415.841 371.259C412.343 368.994 410.355 377.055 403.017 379.002Z" fill="#D4BF9E"/>
<path d="M174.408 372.6C172.83 372.896 171.988 374.631 172.701 376.063C175.971 382.654 185.623 397.194 205.496 392.61C230.946 386.738 308.585 328.141 326.167 312.132C343.748 296.122 367.02 276.173 378.41 278.954C389.799 281.734 382.932 275.15 375.04 269.862C367.149 264.574 364.22 256.808 370.093 258.262C370.093 258.262 355.927 253.671 334.293 265.581C313.153 277.219 209.912 316.988 175.349 305.472C174.067 305.047 172.716 305.866 172.489 307.192C171.115 315.056 169.028 339.665 189.228 367.349C189.235 367.349 181.359 371.289 174.408 372.6Z" fill="#232323"/>
<path d="M377.953 219.281L407 218.387C407.736 218.364 408.411 217.955 408.768 217.311C411.37 212.621 415.18 209.628 419.937 207.984C420.537 207.78 420.415 206.893 419.778 206.848L401.969 205.635C401.946 205.635 401.931 205.635 401.908 205.635C393.03 206.317 385.177 211.651 377.68 218.637C377.445 218.872 377.612 219.296 377.953 219.281Z" fill="#739AF0"/>
<defs>
<filter id="filter0_d" x="0" y="-16" width="696" height="696" filterUnits="userSpaceOnUse" color-interpolation-filters="sRGB">
<feFlood flood-opacity="0" result="BackgroundImageFix"/>
<feColorMatrix in="SourceAlpha" type="matrix" values="0 0 0 0 0 0 0 0 0 0 0 0 0 0 0 0 0 0 127 0"/>
<feOffset dy="4"/>
<feGaussianBlur stdDeviation="15"/>
<feColorMatrix type="matrix" values="0 0 0 0 0.8875 0 0 0 0 0.846781 0 0 0 0 0.796531 0 0 0 1 0"/>
<feBlend mode="normal" in2="BackgroundImageFix" result="effect1_dropShadow"/>
<feBlend mode="normal" in="SourceGraphic" in2="effect1_dropShadow" result="shape"/>
</filter>
<filter id="filter1_d" x="118.799" y="109.799" width="133.402" height="133.402" filterUnits="userSpaceOnUse" color-interpolation-filters="sRGB">
<feFlood flood-opacity="0" result="BackgroundImageFix"/>
<feColorMatrix in="SourceAlpha" type="matrix" values="0 0 0 0 0 0 0 0 0 0 0 0 0 0 0 0 0 0 127 0"/>
<feOffset dy="4"/>
<feGaussianBlur stdDeviation="15"/>
<feColorMatrix type="matrix" values="0 0 0 0 0.8875 0 0 0 0 0.846781 0 0 0 0 0.796531 0 0 0 1 0"/>
<feBlend mode="normal" in2="BackgroundImageFix" result="effect1_dropShadow"/>
<feBlend mode="normal" in="SourceGraphic" in2="effect1_dropShadow" result="shape"/>
</filter>
<filter id="filter2_d" x="447.516" y="395.799" width="157.277" height="157.277" filterUnits="userSpaceOnUse" color-interpolation-filters="sRGB">
<feFlood flood-opacity="0" result="BackgroundImageFix"/>
<feColorMatrix in="SourceAlpha" type="matrix" values="0 0 0 0 0 0 0 0 0 0 0 0 0 0 0 0 0 0 127 0"/>
<feOffset dy="4"/>
<feGaussianBlur stdDeviation="15"/>
<feColorMatrix type="matrix" values="0 0 0 0 0 0 0 0 0 0 0 0 0 0 0 0 0 0 0.3 0"/>
<feBlend mode="normal" in2="BackgroundImageFix" result="effect1_dropShadow"/>
<feBlend mode="normal" in="SourceGraphic" in2="effect1_dropShadow" result="shape"/>
</filter>
<filter id="filter3_d" x="435.607" y="452.062" width="111.97" height="111.97" filterUnits="userSpaceOnUse" color-interpolation-filters="sRGB">
<feFlood flood-opacity="0" result="BackgroundImageFix"/>
<feColorMatrix in="SourceAlpha" type="matrix" values="0 0 0 0 0 0 0 0 0 0 0 0 0 0 0 0 0 0 127 0"/>
<feOffset dy="4"/>
<feGaussianBlur stdDeviation="15"/>
<feColorMatrix type="matrix" values="0 0 0 0 0.416667 0 0 0 0 0.343152 0 0 0 0 0.252431 0 0 0 1 0"/>
<feBlend mode="normal" in2="BackgroundImageFix" result="effect1_dropShadow"/>
<feBlend mode="normal" in="SourceGraphic" in2="effect1_dropShadow" result="shape"/>
</filter>
<filter id="filter4_d" x="433.123" y="449.576" width="116.94" height="116.94" filterUnits="userSpaceOnUse" color-interpolation-filters="sRGB">
<feFlood flood-opacity="0" result="BackgroundImageFix"/>
<feColorMatrix in="SourceAlpha" type="matrix" values="0 0 0 0 0 0 0 0 0 0 0 0 0 0 0 0 0 0 127 0"/>
<feOffset dy="4"/>
<feGaussianBlur stdDeviation="15"/>
<feColorMatrix type="matrix" values="0 0 0 0 0.8875 0 0 0 0 0.846781 0 0 0 0 0.796531 0 0 0 1 0"/>
<feBlend mode="normal" in2="BackgroundImageFix" result="effect1_dropShadow"/>
<feBlend mode="normal" in="SourceGraphic" in2="effect1_dropShadow" result="shape"/>
</filter>
<linearGradient id="paint0_linear" x1="520.48" y1="154.844" x2="530.977" y2="154.844" gradientUnits="userSpaceOnUse">
<stop stop-color="#FF928E"/>
<stop offset="1" stop-color="#FEB3B1"/>
</linearGradient>
<linearGradient id="paint1_linear" x1="219.892" y1="342.551" x2="197.201" y2="370.729" gradientUnits="userSpaceOnUse">
<stop stop-color="#F9C200"/>
<stop offset="0.9964" stop-color="#9B1E5F"/>
</linearGradient>
</defs>
</svg>
