<svg width="11" height="13" viewBox="0 0 11 13" fill="none" xmlns="http://www.w3.org/2000/svg">
<path d="M3.64693 13C1.65098 12.9889 0 9.03936 0 7.02791C0 3.74236 2.54261 3.02305 3.52278 3.02305C3.9644 3.02305 4.43588 3.19113 4.85184 3.33992C5.14259 3.44377 5.44355 3.55092 5.61067 3.55092C5.71073 3.55092 5.94673 3.45977 6.15523 3.37979C6.59948 3.2084 7.15242 2.99512 7.79626 2.99512H7.79993C8.28084 2.99512 9.73825 3.09744 10.6147 4.37307L10.82 4.67217L10.5246 4.88824C10.1026 5.19699 9.33252 5.7599 9.33252 6.87531C9.33252 8.19639 10.2048 8.70445 10.6236 8.94871C10.8085 9.05662 11 9.16783 11 9.41107C11 9.57002 9.69242 12.9802 7.79364 12.9802C7.32897 12.9802 7.0005 12.8449 6.7108 12.7256C6.41769 12.6047 6.16492 12.5006 5.74687 12.5006C5.53497 12.5006 5.26727 12.5976 4.98359 12.7007C4.59619 12.8408 4.15745 13 3.65977 13H3.64693Z" fill="#232323"/>
<path d="M7.99598 0C8.04548 1.72834 6.77012 2.92754 5.4966 2.85238C5.28653 1.47316 6.77012 0 7.99598 0Z" fill="#232323"/>
</svg>
