<svg width="46" height="53" viewBox="0 0 46 53" fill="none" xmlns="http://www.w3.org/2000/svg">
<path d="M3.29523 17.2817H3.15947C1.41905 17.2817 0 18.7053 0 20.4412V34.197C0 35.9397 1.41905 37.3587 3.15947 37.3587H3.29754C5.03796 37.3587 6.45701 35.9351 6.45701 34.197V20.4411C6.4547 18.7053 5.03345 17.2817 3.29523 17.2817Z" fill="#010002"/>
<path d="M7.96875 39.5067C7.96875 41.1045 9.27459 42.4059 10.8724 42.4059H13.9753V49.836C13.9753 51.581 15.3989 53 17.1348 53H17.2706C19.0133 53 20.4345 51.5788 20.4345 49.836V42.4059H24.7709V49.836C24.7709 51.581 26.199 53 27.9349 53H28.0685C29.8111 53 31.2301 51.5788 31.2301 49.836V42.4059H34.3352C35.9308 42.4059 37.2367 41.1045 37.2367 39.5067V17.7866H7.96875V39.5067Z" fill="#010002"/>
<path d="M29.8922 4.61469L32.3569 0.810273C32.5153 0.57032 32.4451 0.242234 32.203 0.0860076C31.9631 -0.0724222 31.6349 -0.00674206 31.4787 0.239926L28.9236 4.1757C27.0067 3.39037 24.8657 2.94907 22.6046 2.94907C20.3414 2.94907 18.2049 3.39037 16.2835 4.1757L13.7329 0.239926C13.5768 -0.00674206 13.2463 -0.0724222 13.0041 0.0860076C12.762 0.242129 12.6918 0.57032 12.8502 0.810273L15.3171 4.61469C10.8698 6.7942 7.87109 10.9019 7.87109 15.6139C7.87109 15.9036 7.88925 16.1888 7.91411 16.4716H37.2974C37.3222 16.1888 37.3381 15.9036 37.3381 15.6139C37.3382 10.9019 34.3372 6.7942 29.8922 4.61469ZM15.7924 11.427C15.0116 11.427 14.3778 10.7977 14.3778 10.0147C14.3778 9.23171 15.0116 8.6047 15.7924 8.6047C16.5777 8.6047 17.2069 9.2316 17.2069 10.0147C17.2069 10.7979 16.5732 11.427 15.7924 11.427ZM29.4147 11.427C28.6339 11.427 28.0002 10.7977 28.0002 10.0147C28.0002 9.23171 28.6339 8.6047 29.4147 8.6047C30.1977 8.6047 30.8269 9.2316 30.8269 10.0147C30.8269 10.7977 30.1977 11.427 29.4147 11.427Z" fill="#010002"/>
<path d="M42.0452 17.2817H41.914C40.1736 17.2817 38.75 18.7053 38.75 20.4412V34.197C38.75 35.9397 40.1759 37.3587 41.914 37.3587H42.0475C43.7902 37.3587 45.207 35.9351 45.207 34.197V20.4411C45.207 18.7053 43.7857 17.2817 42.0452 17.2817Z" fill="#010002"/>
</svg>
