<svg width="27" height="27" viewBox="0 0 27 27" fill="none" xmlns="http://www.w3.org/2000/svg">
<path d="M22.8409 12.7402C21.9283 12.7402 21.1452 12.2164 20.7591 11.4524C20.3729 12.2164 19.5863 12.7402 18.6736 12.7402C17.761 12.7402 16.9725 12.2164 16.5873 11.4524C16.2011 12.2164 15.4127 12.7402 14.5 12.7402C13.5874 12.7402 12.798 12.2164 12.4119 11.4524C12.0258 12.2164 11.2364 12.7402 10.3237 12.7402C9.41197 12.7402 8.62172 12.2164 8.23559 11.4524C7.85036 12.2164 7.0484 12.7402 6.13574 12.7402C5.73161 12.7402 5.36799 12.6373 5.00796 12.4566V21.1571H3.78387V23.4691H25.1694V21.1571H24.0173V12.4151C23.6573 12.621 23.2747 12.7402 22.8409 12.7402ZM14.5126 14.0046H21.6411V17.5447H14.5126V14.0046ZM7.38413 14.0046H12.1365V19.9289H7.38413V14.0046Z" fill="#8F7A61"/>
<path d="M3.80859 10.4657H3.81107C3.81107 10.4644 3.81107 10.4619 3.81107 10.4607L3.80859 10.4657Z" fill="#8F7A61"/>
<path d="M8.29517 10.3921L9.80818 5.62366H13.0025L12.3509 10.3921H16.6514L16.0141 5.62366H19.3047L20.7079 10.3921H25.1588L22.8654 5.62366V2.0835H6.23223V5.62366L3.84436 10.3921H8.29517Z" fill="#8F7A61"/>
</svg>
