<svg width="173" height="170" viewBox="0 0 173 170" fill="none" xmlns="http://www.w3.org/2000/svg">
<g filter="url(#filter0_d)">
<rect x="88.1547" y="26.6646" width="76.9861" height="76.9861" rx="14" transform="rotate(45 88.1547 26.6646)" fill="#8F7A61"/>
</g>
<path d="M78.1047 73.9436L88.001 77.2234L97.8973 73.9436L88.001 70.6646L78.1047 73.9436Z" fill="#F8F4EE"/>
<path d="M100.314 74.9963L89.3422 78.6325L92.029 82.8999L103.001 79.2637L100.314 74.9963Z" fill="#F8F4EE"/>
<path d="M87.1219 81.1976L84.7258 85.0025L76.1894 82.1727V88.0315L87.1219 91.6544V81.1976Z" fill="#F8F4EE"/>
<path d="M91.2755 85.003L88.8794 81.1981V91.6556L99.8112 88.0328V82.1739L91.2755 85.003Z" fill="#F8F4EE"/>
<path d="M83.9717 82.8999L86.6585 78.6325L75.6877 74.9963L73.0001 79.2637L83.9717 82.8999Z" fill="#F8F4EE"/>
<mask id="mask0" mask-type="alpha" maskUnits="userSpaceOnUse" x="33" y="26" width="110" height="110">
<rect x="87.887" y="26.6646" width="76.9861" height="76.9861" rx="14" transform="rotate(45 87.887 26.6646)" fill="#8F7A61"/>
</mask>
<g mask="url(#mask0)">
<g filter="url(#filter1_d)">
<rect x="53.0002" y="86.6646" width="40.2629" height="40.2629" rx="7" transform="rotate(45 53.0002 86.6646)" fill="#F8F4EE"/>
</g>
</g>
<mask id="mask1" mask-type="alpha" maskUnits="userSpaceOnUse" x="0" y="66" width="108" height="104">
<path d="M107.891 155.544L45.9112 93.5637L18.0365 66.6729L0 127.013L42.3039 169.317L107.891 155.544Z" fill="#C4C4C4"/>
</mask>
<g mask="url(#mask1)">
<g filter="url(#filter2_d)">
<path d="M48.0503 91.6143C50.784 88.8806 55.2161 88.8806 57.9498 91.6143L76.5205 110.185C79.2542 112.919 79.2542 117.351 76.5205 120.084L57.9498 138.655C55.2161 141.389 50.784 141.389 48.0503 138.655L29.4796 120.084C26.7459 117.351 26.7459 112.919 29.4796 110.185L48.0503 91.6143Z" fill="#F8F4EE"/>
</g>
<path d="M55.9999 109.939L50.7523 112.664L48.6666 111.623L53.8218 109.042C53.9374 108.982 54.0759 108.982 54.1976 109.042L55.9999 109.939Z" fill="#8F7A61"/>
<path d="M59.6609 112.332L54.339 114.901L54.3333 120.332L59.6666 117.609L59.6609 112.332Z" fill="#8F7A61"/>
<path d="M59.3332 111.458L53.9668 113.998L51.9571 113.052L51.6666 112.911L56.9465 110.332L57.237 110.472L59.3332 111.458Z" fill="#8F7A61"/>
<path d="M53.6666 114.909L53.6606 120.332L48.5693 117.732C48.4254 117.658 48.3333 117.509 48.3333 117.349V112.332L50.4911 113.372V115.201C50.4911 115.435 50.6868 115.629 50.9228 115.629C51.1587 115.629 51.3545 115.435 51.3545 115.201V113.795L51.6423 113.932L53.6666 114.909Z" fill="#8F7A61"/>
</g>
<defs>
<filter id="filter0_d" x="3.71729" y="0.664551" width="168.875" height="168.875" filterUnits="userSpaceOnUse" color-interpolation-filters="sRGB">
<feFlood flood-opacity="0" result="BackgroundImageFix"/>
<feColorMatrix in="SourceAlpha" type="matrix" values="0 0 0 0 0 0 0 0 0 0 0 0 0 0 0 0 0 0 127 0"/>
<feOffset dy="4"/>
<feGaussianBlur stdDeviation="15"/>
<feColorMatrix type="matrix" values="0 0 0 0 0 0 0 0 0 0 0 0 0 0 0 0 0 0 0.3 0"/>
<feBlend mode="normal" in2="BackgroundImageFix" result="effect1_dropShadow"/>
<feBlend mode="normal" in="SourceGraphic" in2="effect1_dropShadow" result="shape"/>
</filter>
<filter id="filter1_d" x="-5.47003" y="60.6646" width="116.94" height="116.94" filterUnits="userSpaceOnUse" color-interpolation-filters="sRGB">
<feFlood flood-opacity="0" result="BackgroundImageFix"/>
<feColorMatrix in="SourceAlpha" type="matrix" values="0 0 0 0 0 0 0 0 0 0 0 0 0 0 0 0 0 0 127 0"/>
<feOffset dy="4"/>
<feGaussianBlur stdDeviation="15"/>
<feColorMatrix type="matrix" values="0 0 0 0 0.416667 0 0 0 0 0.343152 0 0 0 0 0.252431 0 0 0 1 0"/>
<feBlend mode="normal" in2="BackgroundImageFix" result="effect1_dropShadow"/>
<feBlend mode="normal" in="SourceGraphic" in2="effect1_dropShadow" result="shape"/>
</filter>
<filter id="filter2_d" x="-5.47015" y="60.6646" width="116.94" height="116.94" filterUnits="userSpaceOnUse" color-interpolation-filters="sRGB">
<feFlood flood-opacity="0" result="BackgroundImageFix"/>
<feColorMatrix in="SourceAlpha" type="matrix" values="0 0 0 0 0 0 0 0 0 0 0 0 0 0 0 0 0 0 127 0"/>
<feOffset dy="4"/>
<feGaussianBlur stdDeviation="15"/>
<feColorMatrix type="matrix" values="0 0 0 0 0.8875 0 0 0 0 0.846781 0 0 0 0 0.796531 0 0 0 1 0"/>
<feBlend mode="normal" in2="BackgroundImageFix" result="effect1_dropShadow"/>
<feBlend mode="normal" in="SourceGraphic" in2="effect1_dropShadow" result="shape"/>
</filter>
</defs>
</svg>
