<svg width="172" height="169" viewBox="0 0 172 169" fill="none" xmlns="http://www.w3.org/2000/svg">
<path d="M168.722 60.8H134.915V158.334H168.722V60.8Z" fill="#FFA412"/>
<path d="M134.916 60.8H45.6014V158.334H134.916V60.8Z" fill="#FFB93E"/>
<path d="M134.916 115.339V108.512L45.6011 108.512V115.339L134.916 115.339Z" fill="#FFA412"/>
<path d="M168.723 115.339V108.512H134.916V115.339H168.723Z" fill="#FA9712"/>
<path d="M107.181 61.8455C107.181 61.8455 127.36 48.7126 141.076 52.9325L138.246 55.5793L139.521 60.0275C139.521 60.0275 124.269 55.0526 106.764 62.5937L107.181 61.8455Z" fill="#F99746"/>
<path d="M106.052 58.8714C106.052 58.8714 102.492 58.4399 97.1852 57.7093C83.0983 55.7679 56.7125 51.7083 51.9765 47.9509C44.5348 42.0481 62.1684 16.9803 69.8021 13.5008C77.4349 10.0242 106.052 58.8714 106.052 58.8714Z" fill="#F99746"/>
<path d="M161.879 27.6548C163.15 33.8657 105.528 60.6951 105.528 60.6951C105.528 60.6951 106.577 57.8559 108.283 53.4096C108.283 53.4096 108.285 53.4057 108.287 53.4018C114.516 37.1644 129.525 -0.516424 134.456 0.00535646C134.952 0.0568543 135.531 0.234668 136.178 0.518392C143.753 3.85603 160.707 21.9357 161.879 27.6548Z" fill="#F99746"/>
<path d="M135.693 6.04032C132.174 12.1627 108.655 52.7693 108.287 53.4018C114.516 37.1644 129.525 -0.516424 134.456 0.00535646C134.456 0.00535646 135.433 -0.0228216 136.178 0.518392C137.077 1.17426 137.635 2.65895 135.693 6.04032Z" fill="#ED7D2B"/>
<path d="M97.1951 57.7091H97.1854C83.0986 55.7677 56.7128 51.7082 51.9767 47.9508C49.8386 41.9178 55.3867 41.4261 59.4252 41.0015C63.4598 40.5759 97.1951 57.7091 97.1951 57.7091Z" fill="#ED7D2B"/>
<path d="M95.3049 60.7922C95.3049 60.7922 98.5354 53.4319 104.893 53.0247C111.533 52.5992 115.304 60.7922 115.304 60.7922H95.3049Z" fill="#ED7D2B"/>
<path d="M136.348 60.8H42.8936V74.2147H136.348V60.8Z" fill="#FFC261"/>
<path d="M171.573 60.8H136.349V74.2147H171.573V60.8Z" fill="#FA9712"/>
<path d="M98.5785 59.6768C98.5785 59.6768 80.2746 53.8692 67.9232 57.7092C53.686 62.1341 54.53 79.7299 54.53 79.7299L57.8788 78.3511L62.3995 80.4752C62.3995 80.4752 63.162 61.8436 74.7692 59.2347C84.805 56.9795 98.5785 59.6768 98.5785 59.6768Z" fill="#F99746"/>
<path d="M89.1889 60.8H82.3729V158.323H89.1889V60.8Z" fill="#FFA412"/>
<path d="M57.8479 123.414H42.3055V168.254H57.8479V123.414Z" fill="#4A75CB"/>
<path d="M42.3067 123.414H1.24548V168.254H42.3067V123.414Z" fill="#739AF0"/>
<path d="M42.3055 148.487V145.349H1.24435V148.487H42.3055Z" fill="#AFCDFB"/>
<path d="M57.8486 148.487V145.349H42.3062V148.487H57.8486Z" fill="#88B3FF"/>
<path d="M31.1978 122.725C31.1978 122.725 43.7866 117.002 52.5606 119.176L50.8084 120.35L51.6915 122.423C51.6915 122.423 41.9292 119.874 30.9452 123.063L31.1978 122.725Z" fill="#4A75CB"/>
<path d="M29.0412 122.505C29.0412 122.505 27.4048 122.306 24.9651 121.971C18.4887 121.078 6.35854 119.212 4.18103 117.484C0.759995 114.771 8.86666 103.246 12.3763 101.646C15.885 100.047 29.0412 122.505 29.0412 122.505Z" fill="#72A9F7"/>
<path d="M54.7062 108.153C55.2912 111.008 28.7998 123.343 28.7998 123.343C28.7998 123.343 29.2821 122.038 30.0661 119.994C30.0661 119.994 30.067 119.992 30.0688 119.99C32.9329 112.525 39.832 95.2016 42.0999 95.4414C42.3279 95.4652 42.5945 95.5468 42.8917 95.6768C46.3733 97.2122 54.1678 105.524 54.7062 108.153Z" fill="#72A9F7"/>
<path d="M42.6676 98.2162C41.0496 101.031 30.2375 119.699 30.0682 119.99C32.9324 112.525 39.8315 95.2016 42.0993 95.4414C42.0993 95.4414 42.5483 95.4283 42.8912 95.6768C43.3043 95.979 43.5612 96.6624 42.6676 98.2162Z" fill="#4A75CB"/>
<path d="M24.9695 121.971H24.9651C18.4888 121.079 6.35858 119.212 4.18107 117.484C3.198 114.71 5.74909 114.485 7.60562 114.29C9.4604 114.094 24.9695 121.971 24.9695 121.971Z" fill="#4A75CB"/>
<path d="M24.1005 123.389C24.1005 123.389 25.5852 120.005 28.5081 119.817C31.5608 119.621 33.2946 123.389 33.2946 123.389H24.1005Z" fill="#4A75CB"/>
<path d="M42.9643 123.414H0V129.581H42.9643V123.414Z" fill="#88B3FF"/>
<path d="M59.1583 123.414H42.9644V129.581H59.1583V123.414Z" fill="#3969B7"/>
<path d="M25.6004 122.897C25.6004 122.897 17.1851 120.227 11.5067 121.993C4.96195 124.028 5.34956 132.117 5.34956 132.117L6.88863 131.483L8.96704 132.459C8.96704 132.459 9.31782 123.894 14.6541 122.695C19.2687 121.658 25.6004 122.897 25.6004 122.897Z" fill="#4A75CB"/>
<path d="M21.2843 123.414H18.1509V168.64H21.2843V123.414Z" fill="#AFCDFB"/>
</svg>
