<svg width="427" height="314" viewBox="0 0 427 314" fill="none" xmlns="http://www.w3.org/2000/svg">
<path d="M47.4297 81.645H377.909" stroke="#DED8D5" stroke-width="1.9678" stroke-miterlimit="10"/>
<path d="M373.594 264.452H51.7446C49.3621 264.452 47.4297 262.519 47.4297 260.137V64.2995C47.4297 61.9171 49.3621 59.9846 51.7446 59.9846H373.594C375.976 59.9846 377.909 61.9171 377.909 64.2995V260.137C377.909 262.519 375.976 264.452 373.594 264.452Z" stroke="#DED8D5" stroke-width="1.9678" stroke-miterlimit="10"/>
<path d="M69.2089 71.0364C69.2089 72.7041 67.8589 74.0607 66.1845 74.0607C64.5168 74.0607 63.1602 72.7041 63.1602 71.0364C63.1602 69.3686 64.5102 68.012 66.1845 68.012C67.8589 68.012 69.2089 69.3686 69.2089 71.0364Z" fill="#CD9E64"/>
<path d="M80.955 71.0364C80.955 72.7041 79.5984 74.0607 77.9306 74.0607C76.2629 74.0607 74.9062 72.7041 74.9062 71.0364C74.9062 69.3686 76.2629 68.012 77.9306 68.012C79.605 68.012 80.955 69.3686 80.955 71.0364Z" fill="#232323"/>
<path d="M92.705 71.0364C92.705 72.7041 91.3483 74.0607 89.6806 74.0607C88.0129 74.0607 86.6562 72.7041 86.6562 71.0364C86.6562 69.3686 88.0063 68.012 89.6806 68.012C91.355 68.012 92.705 69.3686 92.705 71.0364Z" fill="#8F7A61"/>
<path opacity="0.1" d="M420.847 154.615H343.179C340.988 154.615 339.215 152.841 339.215 150.651V78.8201C339.215 76.6296 340.988 74.856 343.179 74.856H420.847C423.037 74.856 424.811 76.6296 424.811 78.8201V150.651C424.811 152.841 423.037 154.615 420.847 154.615Z" fill="#8F7A61"/>
<path d="M420.847 154.615H343.179C340.988 154.615 339.215 152.842 339.215 150.651V78.8201C339.215 76.6296 340.988 74.856 343.179 74.856H420.847C423.037 74.856 424.811 76.6296 424.811 78.8201V150.651C424.811 152.842 423.037 154.615 420.847 154.615Z" stroke="#DED8D5" stroke-width="1.9678" stroke-miterlimit="10"/>
<path d="M361.949 133.867H402.318C404.522 133.867 406.302 132.081 406.302 129.883V96.8004C406.302 94.5966 404.515 92.8164 402.318 92.8164H361.949C359.745 92.8164 357.965 94.6032 357.965 96.8004V129.883C357.965 132.081 359.752 133.867 361.949 133.867Z" fill="#CD9E64"/>
<path d="M393.15 120.168H374.256H370.848V105.205H393.15V108.944V120.168Z" stroke="white" stroke-width="1.6466" stroke-miterlimit="10" stroke-linecap="round" stroke-linejoin="round"/>
<path d="M370.848 105.205L381.999 113.994L393.15 105.205" stroke="white" stroke-width="1.6466" stroke-miterlimit="10" stroke-linecap="round" stroke-linejoin="round"/>
<path d="M79.038 214.765H4.97024C2.87898 214.765 1.19141 213.071 1.19141 210.986V146.408C1.19141 144.317 2.88559 142.63 4.97024 142.63H79.0446C81.1358 142.63 82.8234 144.324 82.8234 146.408V210.986C82.8234 213.071 81.1292 214.765 79.038 214.765Z" fill="#EDEDED"/>
<path opacity="0.1" d="M79.038 214.765H4.97024C2.87898 214.765 1.19141 213.071 1.19141 210.986V146.408C1.19141 144.317 2.88559 142.63 4.97024 142.63H79.0446C81.1358 142.63 82.8234 144.324 82.8234 146.408V210.986C82.8234 213.071 81.1292 214.765 79.038 214.765Z" fill="#8F7A61" stroke="#DED8D5" stroke-width="1.9678" stroke-miterlimit="10"/>
<path d="M61.0156 200.867H22.6052C20.1765 200.867 18.2109 198.902 18.2109 196.473V159.373C18.2109 156.944 20.1765 154.979 22.6052 154.979H61.0223C63.451 154.979 65.4165 156.944 65.4165 159.373V196.473C65.4099 198.902 63.4444 200.867 61.0156 200.867Z" fill="#8F7A61"/>
<path d="M32.6637 168.916C27.4819 174.097 27.4819 182.608 32.6637 187.79C37.8455 192.972 46.3562 192.972 51.538 187.79C56.7198 182.608 56.7198 174.097 51.538 168.916C46.3496 163.734 37.8455 163.734 32.6637 168.916ZM51.5049 170.835H47.2496C46.8261 169.498 46.2768 168.161 45.5951 166.824C47.9511 167.539 50.0027 168.962 51.5049 170.835ZM37.197 177.572C37.197 175.845 37.4021 174.124 37.8323 172.397H46.3694C46.793 174.124 46.9981 175.845 47.0047 177.572H37.197ZM46.9452 179.134C46.8261 180.861 46.515 182.582 46.0253 184.309H38.1632C37.6735 182.582 37.3624 180.861 37.2433 179.134H46.9452ZM42.1009 166.308C42.7428 166.308 43.3715 166.361 43.987 166.454C44.8076 167.916 45.4429 169.372 45.9194 170.835H38.2757C38.7522 169.372 39.3941 167.916 40.2081 166.454C40.8236 166.361 41.4589 166.308 42.1009 166.308ZM38.6 166.824C37.925 168.161 37.3757 169.498 36.9455 170.835H32.6902C34.1925 168.962 36.244 167.539 38.6 166.824ZM31.6313 172.397H36.5021C36.0719 174.124 35.8536 175.845 35.8205 177.572H30.0827C30.2019 175.699 30.7511 173.939 31.6313 172.397ZM31.6313 184.302C30.7511 182.76 30.2019 181 30.0827 179.127H35.8403C35.9263 180.854 36.1977 182.575 36.6543 184.302H31.6313ZM32.6902 185.864H37.1176C37.561 187.214 38.1103 188.571 38.7654 189.921C36.3367 189.226 34.2255 187.783 32.6902 185.864ZM42.1009 190.391C41.5648 190.391 41.042 190.358 40.5258 190.292C39.7912 188.816 39.1625 187.34 38.6595 185.871H45.5488C45.0458 187.347 44.4171 188.822 43.6825 190.292C43.1597 190.358 42.6303 190.391 42.1009 190.391ZM45.4363 189.921C46.0915 188.571 46.6408 187.214 47.0842 185.864H51.5115C49.9696 187.783 47.8585 189.226 45.4363 189.921ZM52.5638 184.302H47.5408C47.9974 182.575 48.2688 180.854 48.3548 179.127H54.1124C53.9933 181.007 53.444 182.76 52.5638 184.302ZM54.1124 177.572H48.3747C48.3416 175.845 48.1166 174.124 47.693 172.397H52.5638C53.444 173.939 53.9933 175.699 54.1124 177.572Z" fill="white"/>
<path opacity="0.3" d="M74.6295 41.117H7.52382C6.14067 41.117 5.01562 39.9919 5.01562 38.6088C5.01562 37.2256 6.14067 36.1006 7.52382 36.1006H74.6295C76.0126 36.1006 77.1377 37.2256 77.1377 38.6088C77.1443 39.9919 76.0193 41.117 74.6295 41.117Z" fill="#8F7A61"/>
<path d="M423.57 205.03H390.996C389.613 205.03 388.488 203.905 388.488 202.522C388.488 201.138 389.613 200.013 390.996 200.013H423.57C424.953 200.013 426.078 201.138 426.078 202.522C426.085 203.905 424.96 205.03 423.57 205.03Z" fill="#8F7A61"/>
<path d="M400.765 234.069H396.787C395.742 234.069 394.895 233.222 394.895 232.177V228.437C394.895 227.392 395.742 226.545 396.787 226.545H400.765C401.81 226.545 402.657 227.392 402.657 228.437V232.177C402.664 233.222 401.81 234.069 400.765 234.069Z" fill="#CD9E64"/>
<path d="M23.5068 251.461H19.5294C18.4838 251.461 17.6367 250.614 17.6367 249.568V245.829C17.6367 244.784 18.4838 243.937 19.5294 243.937H23.5068C24.5524 243.937 25.3995 244.784 25.3995 245.829V249.568C25.3995 250.614 24.5524 251.461 23.5068 251.461Z" fill="#8F7A61"/>
<path opacity="0.2" d="M328.126 38.5232H261.894C260.796 38.5232 259.902 37.6297 259.902 36.5312V20.357C259.902 19.2584 260.796 18.365 261.894 18.365H328.126C329.225 18.365 330.118 19.2584 330.118 20.357V36.5312C330.118 37.6297 329.232 38.5232 328.126 38.5232Z" fill="#8F7A61"/>
<path d="M269.465 25.5454H316.571" stroke="white" stroke-width="1.1803" stroke-miterlimit="10"/>
<path d="M269.465 30.3833H288.65" stroke="white" stroke-width="1.1803" stroke-miterlimit="10"/>
<path opacity="0.2" d="M267.547 38.5649V46.4204L277.427 38.5649H267.547Z" fill="#8F7A61"/>
<path d="M165.374 39.7207H133.31C130.193 39.7207 127.672 37.1993 127.672 34.0823V4.27517C127.672 1.91258 129.584 0 131.947 0H165.374C167.737 0 169.649 1.91258 169.649 4.27517V35.4456C169.649 37.8082 167.737 39.7207 165.374 39.7207Z" fill="#8F7A61"/>
<path d="M158.467 22.7989L156.078 20.4099C155.654 19.94 155.098 19.6819 154.543 19.6819C153.987 19.6819 153.431 19.94 153.007 20.3635L151.644 21.7268C151.558 21.6871 151.472 21.6408 151.386 21.6011C151.214 21.515 151.088 21.4753 150.956 21.3893C149.678 20.5753 148.52 19.5098 147.415 18.1465C146.905 17.5046 146.522 16.909 146.303 16.3994C146.647 16.1016 146.945 15.7575 147.243 15.4597C147.369 15.3339 147.501 15.2016 147.627 15.0758C148.097 14.6059 148.355 14.05 148.355 13.4941C148.355 12.9382 148.097 12.3823 147.627 11.9124L146.429 10.7146C146.303 10.5889 146.171 10.4565 146.045 10.2911C145.787 10.033 145.489 9.73515 145.231 9.47706C144.808 9.05351 144.252 8.79541 143.696 8.79541C143.14 8.79541 142.63 9.00718 142.16 9.47706L140.665 10.9727C140.109 11.5286 139.771 12.25 139.685 13.064C139.599 14.3412 139.943 15.5391 140.241 16.3067C140.923 18.2723 141.988 20.0194 143.57 21.8989C145.489 24.1622 147.753 25.9557 150.4 27.2329C151.379 27.7028 152.749 28.2587 154.238 28.3844C154.324 28.3844 154.41 28.3844 154.536 28.3844C155.562 28.3844 156.415 28.0006 157.097 27.2726C157.097 27.2726 157.097 27.2726 157.137 27.2329C157.349 26.9748 157.607 26.7233 157.904 26.4653C158.076 26.2932 158.288 26.0814 158.46 25.9093C159.36 24.9762 159.36 23.6923 158.467 22.7989ZM157.481 25.0159C157.309 25.188 157.137 25.3601 156.971 25.5255C156.674 25.7836 156.415 26.0814 156.118 26.3792C155.687 26.8094 155.224 27.0212 154.582 27.0212C154.496 27.0212 154.456 27.0212 154.37 27.0212C153.093 26.9351 151.895 26.4255 151.042 25.9954C148.606 24.7975 146.475 23.1364 144.682 20.9988C143.233 19.2517 142.246 17.584 141.565 15.8369C141.135 14.8111 140.969 14.0037 141.055 13.1897C141.095 12.7198 141.267 12.2963 141.651 11.9522L143.1 10.5028C143.226 10.3771 143.444 10.205 143.696 10.205C143.954 10.205 144.119 10.3308 144.291 10.5028C144.549 10.7609 144.801 11.0124 145.059 11.2705C145.185 11.3963 145.317 11.5683 145.483 11.7007L146.68 12.8985C146.806 13.0243 146.978 13.2824 146.978 13.4941C146.978 13.7522 146.806 13.964 146.68 14.0897C146.555 14.2155 146.422 14.3478 146.297 14.4736C145.913 14.8574 145.569 15.2016 145.231 15.5391C145.231 15.5391 145.231 15.5391 145.191 15.5788C144.768 16.0023 144.847 16.3928 144.933 16.6443V16.684C145.231 17.4516 145.701 18.1333 146.343 18.987C147.541 20.4827 148.818 21.6342 150.228 22.5276C150.4 22.6533 150.611 22.7394 150.784 22.8254C150.956 22.9114 151.081 22.9511 151.207 23.0372L151.247 23.0769C151.67 23.2886 152.101 23.2026 152.445 22.8651L153.94 21.3695C154.066 21.2437 154.284 21.0716 154.536 21.0716C154.748 21.0716 154.959 21.2437 155.092 21.3695L157.481 23.7585C157.865 24.1622 157.865 24.5924 157.481 25.0159Z" fill="white"/>
<path d="M304.858 190.119L280.703 186.903L280.895 189.299L260.24 192.052C260.24 192.052 246.925 225.452 258.658 298.905H275.461L281.51 224.42H283.654L289.511 298.905H306.314C318.041 225.452 304.858 190.119 304.858 190.119Z" fill="#232323"/>
<path d="M273.816 224.42H291.347" stroke="black" stroke-width="1.2333" stroke-miterlimit="10" stroke-linecap="round" stroke-linejoin="round"/>
<path d="M318.955 154.885C316.89 151.589 305.282 151.702 304.667 151.629C301.53 151.258 306.679 176.234 313.211 198.067C314.461 202.25 319.067 204.433 323.091 202.726C323.137 202.706 323.177 202.686 323.223 202.673C326.407 201.323 328.213 197.948 327.578 194.553C324.468 178.074 321.344 158.697 318.955 154.885Z" fill="#D4BF9E"/>
<path d="M321.719 163.912L306.901 169.663L305.512 162.635L320.859 158.803L321.719 163.912Z" fill="#C9B28E"/>
<path d="M324.516 177.981C324.516 177.981 317.495 187.412 317.832 186.975C318.17 186.538 323.338 171.734 323.338 171.734L324.516 177.981Z" fill="#C9B28E"/>
<path d="M334.558 165.308L314.433 191.382C311.793 194.804 312.633 199.754 316.26 202.11C319.88 204.459 324.737 203.222 326.795 199.43L343.545 168.524L334.558 165.308Z" fill="#D4BF9E"/>
<path d="M339.775 172.005C335.414 170.596 333.018 165.917 334.428 161.556C335.837 157.194 340.516 154.799 344.877 156.208C349.239 157.618 351.634 162.297 350.225 166.658C348.815 171.019 344.136 173.415 339.775 172.005Z" fill="#D4BF9E"/>
<path d="M348.379 159.114C348.379 159.114 350.649 156.758 346.619 155.103C342.588 153.449 337.605 153.826 334.422 161.556L348.379 159.114Z" fill="#D4BF9E"/>
<path d="M352.553 142.635L360.978 146.288C361.448 146.493 361.62 147.049 361.362 147.532L350.277 168.239C350.019 168.723 349.43 168.948 348.96 168.742L340.535 165.089C340.065 164.884 339.893 164.328 340.151 163.845L351.236 143.138C351.494 142.655 352.083 142.43 352.553 142.635Z" fill="#372F5F"/>
<path d="M351.745 142.264L360.169 145.917C360.639 146.123 360.811 146.678 360.553 147.162L349.468 167.869C349.21 168.352 348.621 168.577 348.151 168.372L339.726 164.719C339.257 164.514 339.085 163.958 339.343 163.475L350.428 142.767C350.686 142.291 351.275 142.066 351.745 142.264Z" fill="#261B43"/>
<path d="M350.802 144.375L358.201 147.585L349.167 164.461L341.762 161.251L350.802 144.375Z" fill="#E6E6E6"/>
<path d="M358.201 147.585L341.762 161.251L350.802 144.375L358.201 147.585Z" fill="white"/>
<path d="M344.2 154.415C344.2 154.415 346.079 154.779 347.767 155.738C348.515 156.162 348.892 157.022 348.687 157.856C348.501 158.617 347.86 159.179 347.085 159.279L342.704 159.828C342.704 159.828 340.421 163.766 337.43 164.209L340.17 157.293L344.2 154.415Z" fill="#D4BF9E"/>
<path d="M288.247 122.047C287.764 122.047 319.318 126.415 324.52 162.384L308.147 164.892L304.845 192.052H259.168L250.102 141.875C250.102 141.875 260.22 127.375 279.009 122.047H288.247Z" fill="#CD9E64"/>
<path d="M308.148 164.892L309.571 149.188" stroke="#282828" stroke-width="1.2333" stroke-miterlimit="10" stroke-linecap="round" stroke-linejoin="round"/>
<path d="M291.252 122.557V110.062H276.607V122.703C275.859 122.928 274.608 123.378 272.676 124.298L284.098 131.101L295.772 124.298C295.772 124.304 293.919 123.226 291.252 122.557Z" fill="#D4BF9E"/>
<path d="M276.469 111.591C276.469 111.591 279.096 118.573 286.118 117.971C292.57 117.415 291.544 107.74 291.544 107.74L276.469 111.591Z" fill="#C9B28E"/>
<path d="M270.084 102.306C267.788 104.391 262.659 96.4892 264.876 94.2722C267.093 92.0552 268.787 95.5363 268.787 95.5363L269.78 97.8922L270.528 101.082L270.706 101.916L270.084 102.306Z" fill="#C9B28E"/>
<path d="M265.945 97.0717C265.945 97.0717 267.686 96.2907 269.228 98.8056" stroke="#282828" stroke-width="0.9928" stroke-miterlimit="10" stroke-linecap="round" stroke-linejoin="round"/>
<path d="M297.228 102.068C299.339 104.338 305.123 96.8994 303.098 94.5037C301.073 92.108 299.094 95.4302 299.094 95.4302L297.91 97.6935L296.897 100.811L296.652 101.631L297.228 102.068Z" fill="#C9B28E"/>
<path d="M301.798 97.1971C301.798 97.1971 300.13 96.2706 298.383 98.6531" stroke="#282828" stroke-width="0.9928" stroke-miterlimit="10" stroke-linecap="round" stroke-linejoin="round"/>
<path d="M266.062 86.741C266.062 97.1907 274.03 102.147 283.865 102.147C293.699 102.147 301.667 97.1907 301.667 86.741C301.667 76.2913 293.699 69.177 283.865 69.177C274.03 69.177 266.062 76.2913 266.062 86.741Z" fill="#282828"/>
<path d="M268.484 87.4691C268.484 93.8885 269.39 99.4211 270.297 103.352C271.184 107.197 273.679 109.891 277.2 112.055L277.842 112.452C281.567 114.742 286.385 114.795 290.171 112.591C293.989 110.367 296.663 107.429 297.484 103.299C298.979 95.7879 299.145 87.4757 299.145 87.4757C299.145 87.4757 300.568 71.2751 284.036 71.5927C267.498 71.8972 268.484 87.4691 268.484 87.4691Z" fill="#D4BF9E"/>
<path d="M282.805 96.7144V98.9578C282.805 99.0902 282.831 99.2159 282.877 99.3351C283.063 99.7917 283.592 100.01 284.069 99.8843L285.095 99.613" stroke="#282828" stroke-width="1.2316" stroke-miterlimit="10" stroke-linecap="round" stroke-linejoin="round"/>
<path d="M280.176 88.0185L271.957 89.9443C271.957 89.9443 272.328 87.853 275.69 87.092C279.058 86.3375 280.176 88.0185 280.176 88.0185Z" fill="#282828"/>
<path d="M287.469 88.0185L295.404 89.9443C295.404 89.9443 295.046 87.853 291.797 87.092C288.547 86.3375 287.469 88.0185 287.469 88.0185Z" fill="#282828"/>
<path d="M277.051 95.4369C277.815 95.4369 278.434 94.8177 278.434 94.0538C278.434 93.2899 277.815 92.6707 277.051 92.6707C276.287 92.6707 275.668 93.2899 275.668 94.0538C275.668 94.8177 276.287 95.4369 277.051 95.4369Z" fill="#282828"/>
<path d="M291.579 94.0538C291.579 94.8149 290.957 95.4369 290.196 95.4369C289.428 95.4369 288.812 94.8149 288.812 94.0538C288.812 93.2927 289.435 92.6707 290.196 92.6707C290.957 92.6773 291.579 93.2927 291.579 94.0538Z" fill="#282828"/>
<path d="M278.445 102.492H289.133C289.127 102.492 284.395 108.25 278.445 102.492Z" fill="white"/>
<path fill-rule="evenodd" clip-rule="evenodd" d="M272.711 90.8349C270.633 92.9129 270.633 96.282 272.711 98.36C274.789 100.438 278.158 100.438 280.236 98.36C282.314 96.282 282.314 92.9129 280.236 90.8349C278.158 88.7569 274.789 88.7569 272.711 90.8349ZM271.907 99.1644C269.385 96.6421 269.385 92.5527 271.907 90.0304C274.429 87.5081 278.519 87.5081 281.041 90.0304C283.563 92.5527 283.563 96.6421 281.041 99.1644C278.519 101.687 274.429 101.687 271.907 99.1644Z" fill="#232323"/>
<path fill-rule="evenodd" clip-rule="evenodd" d="M287.188 90.8329C285.11 92.9109 285.11 96.28 287.188 98.358C289.266 100.436 292.635 100.436 294.713 98.358C296.791 96.28 296.791 92.9109 294.713 90.8329C292.635 88.7549 289.266 88.7549 287.188 90.8329ZM286.383 99.1625C283.861 96.6402 283.861 92.5507 286.383 90.0284C288.906 87.5062 292.995 87.5061 295.517 90.0284C298.04 92.5507 298.04 96.6402 295.517 99.1625C292.995 101.685 288.906 101.685 286.383 99.1625Z" fill="#232323"/>
<path fill-rule="evenodd" clip-rule="evenodd" d="M282.76 95.0129C282.76 95.0128 282.76 95.0126 282.372 94.5968C281.984 94.181 281.984 94.1808 281.984 94.1806L281.985 94.1802L281.986 94.1793L281.988 94.1771L281.995 94.1713L282.013 94.1545C282.029 94.141 282.05 94.1231 282.076 94.1019C282.128 94.0597 282.201 94.0034 282.293 93.9417C282.474 93.8197 282.738 93.6685 283.06 93.5659C283.383 93.4628 283.778 93.4049 284.207 93.4885C284.64 93.5731 285.071 93.7958 285.469 94.1956L284.662 94.998C284.412 94.7459 284.181 94.6427 283.989 94.6051C283.791 94.5665 283.593 94.59 283.405 94.6499C283.216 94.7103 283.05 94.8035 282.928 94.8852C282.869 94.9253 282.823 94.9608 282.794 94.9847C282.779 94.9966 282.769 95.0055 282.763 95.0105L282.758 95.0149C282.758 95.015 282.758 95.015 282.758 95.0149C282.758 95.0148 282.758 95.0147 282.758 95.0146L282.759 95.0138L282.76 95.0133L282.76 95.0129Z" fill="#232323"/>
<path fill-rule="evenodd" clip-rule="evenodd" d="M268.739 93.9751L270.599 94.028L270.567 95.1653L268.707 95.1123L268.739 93.9751Z" fill="#232323"/>
<path fill-rule="evenodd" clip-rule="evenodd" d="M298.731 95.1123L296.864 95.1653L296.832 94.028L298.698 93.9751L298.731 95.1123Z" fill="#232323"/>
<path d="M298.926 92.8362C298.926 92.8362 292.315 83.902 293.837 74.842C293.837 74.842 298.741 77.3105 300.025 83.6836C301.302 90.0633 298.926 92.8362 298.926 92.8362Z" fill="#282828"/>
<path d="M268.468 93.4449C268.468 93.4449 276.144 83.2931 274.622 74.2397C274.622 74.2397 269.295 77.3171 268.017 83.6901C266.74 90.0632 268.468 93.4449 268.468 93.4449Z" fill="#282828"/>
<path d="M298.369 78.4154C298.369 78.4154 289.879 87.7069 266.656 86.1186C266.656 86.1186 270.21 72.4791 281.467 71.0298C281.467 71.0231 294.465 69.4745 298.369 78.4154Z" fill="#282828"/>
<path d="M308.738 69.329C309.714 63.2817 305.603 57.5878 299.556 56.6114C293.509 55.6349 287.815 59.7457 286.838 65.793C285.862 71.8403 289.973 77.5342 296.02 78.5107C302.067 79.4871 307.761 75.3764 308.738 69.329Z" fill="#282828"/>
<path d="M162.412 190.093L141.757 187.34L141.949 184.938L117.794 188.154C117.794 188.154 104.611 223.487 116.344 296.939H133.147L139.004 222.455H141.148L147.197 296.939H164C175.727 223.494 162.412 190.093 162.412 190.093Z" fill="#8F7A61"/>
<path d="M160.763 89.6065C157.97 86.3174 155.726 82.479 153.827 77.0987C151.782 71.3212 145.098 73.6706 145.098 73.6706C145.098 73.6706 139.526 66.5034 131.141 68.9983C122.756 71.4933 119.844 77.4627 119.672 84.5571C119.5 91.6515 113.921 92.7567 109.626 100.963C102.042 115.45 114.808 127.653 138.057 124.265L138.09 124.04C140.379 124.734 143.185 125.039 146.607 124.834C174.535 123.173 171.841 102.637 160.763 89.6065Z" fill="#282828"/>
<path d="M151.614 100.347C153.911 102.432 159.04 94.5302 156.823 92.3132C154.606 90.0962 152.911 93.5773 152.911 93.5773L151.919 95.9332L151.171 99.1231L150.992 99.9569L151.614 100.347Z" fill="#C9B28E"/>
<path d="M155.759 95.1132C155.759 95.1132 154.019 94.3322 152.477 96.847" stroke="#282828" stroke-width="0.9928" stroke-miterlimit="10" stroke-linecap="round" stroke-linejoin="round"/>
<path d="M124.477 100.109C122.366 102.379 116.582 94.9404 118.607 92.5447C120.632 90.149 122.611 93.4712 122.611 93.4712L123.795 95.7345L124.808 98.8516L125.053 99.6722L124.477 100.109Z" fill="#C9B28E"/>
<path d="M119.91 95.2384C119.91 95.2384 121.578 94.3119 123.325 96.6943" stroke="#282828" stroke-width="0.9928" stroke-miterlimit="10" stroke-linecap="round" stroke-linejoin="round"/>
<path d="M155.643 84.7822C155.643 95.2319 147.675 100.189 137.841 100.189C128.007 100.189 120.039 95.2319 120.039 84.7822C120.039 74.3325 128.007 67.2183 137.841 67.2183C147.675 67.2183 155.643 74.3325 155.643 84.7822Z" fill="#282828"/>
<path d="M145.099 108.104H130.453V127.064H145.099V108.104Z" fill="#D4BF9E"/>
<path d="M128.324 106.926C128.324 106.926 132.401 115.059 137.417 116.33C138.754 116.667 140.19 116.555 141.481 116.098C143.367 115.43 145.762 112.617 146.166 109.5L146.358 107.72C146.351 107.72 137.424 112.577 128.324 106.926Z" fill="#C9B28E"/>
<path d="M153.223 85.5101C153.223 91.9295 152.316 97.4621 151.409 101.393C150.523 105.238 148.028 107.932 144.507 110.096L143.865 110.493C140.139 112.783 135.321 112.836 131.536 110.632C127.717 108.408 125.044 105.47 124.223 101.34C122.727 93.8289 122.562 85.5168 122.562 85.5168C122.562 85.5168 121.139 69.3161 137.671 69.6338C154.202 69.9514 153.223 85.5101 153.223 85.5101Z" fill="#D4BF9E"/>
<path d="M136.742 95.6287V96.9589C136.742 97.0912 136.769 97.217 136.815 97.3361C137 97.7927 137.53 98.0111 138.006 97.8854L139.032 97.614" stroke="#282828" stroke-width="1.2298" stroke-miterlimit="10" stroke-linecap="round" stroke-linejoin="round"/>
<path d="M140.188 86.8535L148.983 88.9381C148.983 88.9381 148.586 86.6748 144.985 85.8542C141.385 85.0336 140.188 86.8535 140.188 86.8535Z" fill="#282828"/>
<path d="M135.568 86.8535L126.66 88.9381C126.66 88.9381 127.064 86.6748 130.71 85.8542C134.35 85.0269 135.568 86.8535 135.568 86.8535Z" fill="#282828"/>
<path d="M132.376 92.3133C132.376 93.0744 131.754 93.6899 130.993 93.6899C130.225 93.6899 129.609 93.0744 129.609 92.3133C129.609 91.5523 130.231 90.9368 130.993 90.9368C131.754 90.9302 132.376 91.5523 132.376 92.3133Z" fill="#282828"/>
<path d="M145.512 92.3133C145.512 93.0744 144.89 93.6899 144.129 93.6899C143.362 93.6899 142.746 93.0744 142.746 92.3133C142.746 91.5523 143.368 90.9368 144.129 90.9368C144.89 90.9302 145.512 91.5523 145.512 92.3133Z" fill="#282828"/>
<path d="M131.457 100.188H143.621C143.621 100.188 142.76 103.53 137.248 103.53C133.045 103.53 131.457 100.188 131.457 100.188Z" fill="white"/>
<path d="M122.773 90.8769C122.773 90.8769 129.384 81.9427 127.862 72.8828C127.862 72.8828 122.958 75.3513 121.674 81.7244C120.397 88.104 122.773 90.8769 122.773 90.8769Z" fill="#282828"/>
<path d="M153.233 90.5859C153.233 90.5859 145.557 81.3407 147.079 72.2874C147.079 72.2874 152.406 75.3647 153.683 81.7377C154.961 88.1042 153.233 90.5859 153.233 90.5859Z" fill="#282828"/>
<path d="M123.328 76.457C123.328 76.457 130.912 86.6552 154.141 85.0603C154.141 85.0603 151.487 70.5207 140.23 69.0714C140.23 69.0714 127.233 67.5162 123.328 76.457Z" fill="#282828"/>
<path d="M102.159 234.943C101.822 235.473 121.49 149.373 115.653 150.671C115.117 150.79 104.892 151.736 103.377 154.827C98.9692 163.787 95.8125 234.288 95.8125 234.288L102.159 234.943Z" fill="#D4BF9E"/>
<path d="M95.8091 234.288C95.8091 234.288 92.6391 248.993 104.624 250.601C105.412 250.707 106.179 250.244 106.438 249.489L106.471 249.39C106.755 248.556 106.338 247.669 105.537 247.312C103.585 246.438 100.554 244.228 102.056 239.218C102.056 239.218 103.79 239.006 104.743 242.236C104.988 243.07 105.921 243.487 106.696 243.096C107.225 242.832 107.523 242.262 107.45 241.673C107.165 239.41 106.027 233.964 101.659 232.501L95.8091 234.288Z" fill="#D4BF9E"/>
<path d="M99.8438 175.521C99.8438 175.521 111.174 191.476 111.233 191.172C111.293 190.861 115.197 168.764 115.197 168.764L101.445 162.808L99.8438 175.521Z" fill="#C9B28E"/>
<path d="M131.329 123.947C131.812 123.947 103.322 124.457 98.1133 160.425L114.486 162.934L117.788 190.094H163.465L172.532 139.916C172.532 139.916 166.086 129.043 147.298 123.722L131.329 123.947Z" fill="#CD9E64"/>
<path d="M117.402 128.295C117.402 128.295 121.426 133.643 137.925 133.643C154.271 133.643 158.447 128.017 158.447 128.017C158.447 128.017 148.811 122.637 137.633 120.89C137.633 120.89 127.653 122.67 117.402 128.295Z" fill="#D4BF9E"/>
<path d="M173.457 242.255L173.497 314H208.989L211.715 242.255H173.457Z" fill="#232323"/>
<path d="M250.512 242.255L250.472 314H214.98L212.254 242.255H250.512Z" fill="#232323"/>
<path d="M231.13 242.255H194.434V267.178H231.13V242.255Z" fill="#232323"/>
<path d="M199.566 267.178H224.873" stroke="black" stroke-width="1.3968" stroke-miterlimit="10" stroke-linecap="round" stroke-linejoin="round"/>
<path d="M272.935 179.65C275.139 203.957 269.3 209.379 269.942 254.109L255.537 257.566L249.117 183.561L272.935 179.65Z" fill="#D4BF9E"/>
<path d="M255.699 250.883C255.699 250.883 267.814 247.757 269.916 250.623C273.589 255.635 273.764 270.426 273.764 270.426C273.764 270.426 252.101 272.569 252.363 272.331C252.626 272.093 255.699 250.883 255.699 250.883Z" fill="#D4BF9E"/>
<path d="M255.696 250.883C255.597 251.993 248.451 262.322 245.896 266.235C245.28 267.179 245.692 268.503 246.753 269.02C247.444 269.356 248.625 269.576 249.455 268.675L256.651 261.56L255.696 250.883Z" fill="#D4BF9E"/>
<path d="M252.755 263.337L251.626 281.102C251.525 282.273 252.449 283.35 253.631 283.441C254.652 283.516 255.529 282.826 255.676 281.817L257.563 268.866L252.755 263.337Z" fill="#D4BF9E"/>
<path d="M257.828 271.356L259.205 284.626C259.306 285.783 260.333 286.682 261.475 286.611C262.465 286.548 263.221 285.771 263.256 284.773L263.569 269.948L257.828 271.356Z" fill="#D4BF9E"/>
<path d="M263.724 269.132L266.378 282.519C266.621 283.762 267.815 284.624 269.029 284.442C270.171 284.268 270.935 283.233 270.785 282.055L269.136 269.644L263.724 269.132Z" fill="#D4BF9E"/>
<path d="M273.769 270.426L276.398 278.9C276.547 279.851 275.945 280.717 275.013 280.872C274.122 281.024 273.222 280.474 272.909 279.596L269.134 269.65L273.769 270.426Z" fill="#D4BF9E"/>
<path d="M251.732 198.617C251.732 198.617 264.849 197.419 273.816 191.502L273.578 186.294L251.719 189.272L251.732 198.617Z" fill="#C9B28E"/>
<path d="M230.688 123.676C230.688 123.676 272.354 134.152 279.905 187.042C279.905 187.042 259.515 195.884 239.079 192.078L243.678 174.389L230.688 123.676Z" fill="#8F7A61"/>
<path d="M106.225 145.667L137.25 182.304L127.753 209.04C127.753 209.04 104.173 176.255 93.5781 150.915L106.225 145.667Z" fill="#D4BF9E"/>
<path d="M107.234 146.99C107.234 146.99 96.341 153.145 93.5681 150.921C88.7238 147.03 84.7266 132.788 84.7266 132.788C84.7266 132.788 105.097 125.112 104.905 125.409C104.713 125.707 107.234 146.99 107.234 146.99Z" fill="#D4BF9E"/>
<path d="M107.233 146.991C107.041 145.892 111.27 134.066 112.726 129.625C113.077 128.553 112.335 127.382 111.177 127.157C110.423 127.011 109.225 127.104 108.656 128.189L103.547 136.925L107.233 146.991Z" fill="#D4BF9E"/>
<path d="M106.856 134.198L103.348 116.746C103.143 115.588 101.972 114.788 100.807 115.006C99.8013 115.198 99.1329 116.091 99.252 117.104L100.781 130.101L106.856 134.198Z" fill="#D4BF9E"/>
<path d="M99.8806 127.765L95.1157 115.304C94.7186 114.212 93.4943 113.61 92.409 113.974C91.4692 114.291 90.9398 115.238 91.1648 116.211L94.6988 130.611L99.8806 127.765Z" fill="#D4BF9E"/>
<path d="M94.7651 131.438L88.7362 119.195C88.1803 118.057 86.8038 117.534 85.6787 118.024C84.6198 118.487 84.15 119.685 84.6 120.783L89.4046 132.345L94.7651 131.438Z" fill="#D4BF9E"/>
<path d="M84.7253 132.789L79.9935 125.284C79.603 124.404 79.9604 123.411 80.8207 123.021C81.6414 122.643 82.6539 122.941 83.1833 123.709L89.4042 132.339L84.7253 132.789Z" fill="#D4BF9E"/>
<path d="M105.906 132.887C105.906 132.887 98.8049 132.139 98.0703 141.61" stroke="#C9B28E" stroke-width="1.5317" stroke-miterlimit="10" stroke-linecap="round" stroke-linejoin="round"/>
<path d="M121.457 196.539C121.457 196.539 127.294 216.73 138.922 214.05C150.549 211.363 168.669 186.533 168.669 186.533L164.612 144.132L131.98 184.296L121.457 196.539Z" fill="#D4BF9E"/>
<path d="M142.102 171.815C142.102 171.815 153.12 188.432 162.518 194.296L168.673 186.533L144.941 168.175L142.102 171.815Z" fill="#C9B28E"/>
<path d="M190.311 122.762C190.311 122.762 157.962 130.055 140.723 167.652C140.723 167.652 151.139 183.343 167.836 190.318L179.014 176.626L190.311 122.762Z" fill="#8F7A61"/>
<path d="M190.308 122.643C177.675 129.122 169.727 137.718 169.727 137.718L172.222 247.616H251.855L251.597 138.288C251.597 138.288 241.557 128.467 230.678 123.675C221.439 119.612 199.289 118.037 190.308 122.643Z" fill="#8F7A61"/>
<path d="M227.989 176.195C221.874 176.195 216.91 171.238 216.91 165.117V154.038H239.06V165.117C239.067 171.238 234.11 176.195 227.989 176.195Z" stroke="#282828" stroke-width="1.3968" stroke-miterlimit="10" stroke-linecap="round" stroke-linejoin="round"/>
<path d="M251.727 192.489L252.759 156.54" stroke="#282828" stroke-width="1.3968" stroke-miterlimit="10" stroke-linecap="round" stroke-linejoin="round"/>
<path d="M170.955 186.499L169.234 155.335" stroke="#282828" stroke-width="1.3968" stroke-miterlimit="10" stroke-linecap="round" stroke-linejoin="round"/>
<path d="M191.244 82.5052L187.921 66.0862C187.736 64.7493 187.213 62.6845 187.849 60.7455C188.901 57.5358 192.766 51.3745 199.37 54.1938L200.8 60.6926C200.8 60.6926 193.944 62.0757 191.191 71.0496L191.244 82.5052Z" fill="#282828"/>
<path d="M198.891 57.5818C198.772 59.7392 196.866 69.183 190.169 72.6177C190.169 72.6177 184.305 60.0437 198.891 57.5818Z" fill="#282828"/>
<path d="M222.382 119.618V91.7305H196.678V119.618L189.027 123.106C189.027 123.106 190.821 134.661 209.801 134.919C228.781 135.177 230.687 123.675 230.687 123.675L222.382 119.618Z" fill="#D4BF9E"/>
<path d="M199.375 54.1939C199.375 54.1939 204.094 41.7456 218.64 48.3635C227.448 52.3673 229.91 57.7345 230.962 61.5398C231.313 62.8038 231.452 64.7958 231.353 65.9804L227.832 82.5053L214.093 59.6404L200.798 60.6927L199.375 54.1939Z" fill="#282828"/>
<path d="M227.842 82.5054C227.842 82.5054 229.576 79.7457 233.15 81.1024C236.724 82.4591 235.109 91.1418 229.748 92.247C229.748 92.247 227.829 92.6639 226.32 91.3469C226.314 91.3536 227.631 84.9408 227.842 82.5054Z" fill="#C9B28E"/>
<path d="M232.439 84.1661C232.439 84.1661 229.447 83.1668 227.316 87.5743" stroke="#C9B28E" stroke-width="1.3968" stroke-miterlimit="10" stroke-linecap="round" stroke-linejoin="round"/>
<path d="M191.245 82.5054C191.245 82.5054 189.511 79.7457 185.937 81.1024C182.363 82.4591 183.978 91.1418 189.339 92.247C189.339 92.247 191.258 92.6639 192.767 91.3469C192.767 91.3536 191.45 84.9408 191.245 82.5054Z" fill="#C9B28E"/>
<path d="M186.645 84.1666C186.645 84.1666 189.636 83.1673 191.767 87.5748" stroke="#C9B28E" stroke-width="1.3968" stroke-miterlimit="10" stroke-linecap="round" stroke-linejoin="round"/>
<path d="M228.194 74.2661C228.194 79.5008 227.685 90.4469 224.462 96.9457C221.444 103.047 216.447 106.33 209.896 106.528C203.344 106.727 198.467 104.199 194.555 96.2772C190.644 88.3556 190.83 74.3587 190.83 74.3587C190.83 74.3587 190.83 55.6631 209.307 55.6631C228.77 55.6697 228.194 74.2661 228.194 74.2661Z" fill="#D4BF9E"/>
<path d="M196.863 100.182C196.863 100.182 199.014 111.108 208.524 112.359C219.463 113.801 222.375 100.46 222.375 100.46C222.375 100.46 217.544 106.515 209.894 106.528C201.37 106.541 196.863 100.182 196.863 100.182Z" fill="#C9B28E"/>
<path d="M208.199 82.0288V86.3569C208.199 86.5422 208.232 86.7209 208.298 86.8864C208.557 87.5283 209.291 87.8327 209.96 87.654L211.396 87.2702" stroke="#282828" stroke-width="1.3968" stroke-miterlimit="10" stroke-linecap="round" stroke-linejoin="round"/>
<path d="M202.749 79.9637C202.749 80.8902 201.994 81.6446 201.068 81.6446C200.141 81.6446 199.387 80.8902 199.387 79.9637C199.387 79.0372 200.141 78.2827 201.068 78.2827C201.994 78.2827 202.749 79.0305 202.749 79.9637Z" fill="#282828"/>
<path d="M218.518 79.9637C218.518 80.8902 217.764 81.6446 216.837 81.6446C215.911 81.6446 215.156 80.8902 215.156 79.9637C215.156 79.0372 215.911 78.2827 216.837 78.2827C217.764 78.2827 218.518 79.0305 218.518 79.9637Z" fill="#282828"/>
<path d="M212.527 71.592L223.837 74.5105C223.837 74.5105 223.321 71.3406 218.695 70.1824C214.069 69.0375 212.527 71.592 212.527 71.592Z" fill="#282828"/>
<path d="M205.501 71.592L194.191 74.5105C194.191 74.5105 194.708 71.3406 199.334 70.1824C203.959 69.0375 205.501 71.592 205.501 71.592Z" fill="#282828"/>
<path d="M203.25 90.7178C203.25 90.7178 204.918 91.995 209.305 91.995C213.296 91.995 215.784 90.7178 215.784 90.7178" stroke="#282828" stroke-width="1.3968" stroke-miterlimit="10" stroke-linecap="round" stroke-linejoin="round"/>
<path d="M200.608 87.6009C204.556 87.6009 207.756 84.4009 207.756 80.4535C207.756 76.5061 204.556 73.3062 200.608 73.3062C196.661 73.3062 193.461 76.5061 193.461 80.4535C193.461 84.4009 196.661 87.6009 200.608 87.6009Z" stroke="#232323" stroke-width="1.9514" stroke-miterlimit="10"/>
<path d="M218.167 87.6009C222.114 87.6009 225.314 84.4009 225.314 80.4535C225.314 76.5061 222.114 73.3062 218.167 73.3062C214.22 73.3062 211.02 76.5061 211.02 80.4535C211.02 84.4009 214.22 87.6009 218.167 87.6009Z" stroke="#232323" stroke-width="1.9514" stroke-miterlimit="10"/>
<path d="M207.758 80.4535C207.758 80.4535 209.452 78.8718 211.02 80.4535" stroke="#232323" stroke-width="1.9514" stroke-miterlimit="10"/>
<path d="M193.462 80.4534L191.066 80.3938" stroke="#232323" stroke-width="1.9514" stroke-miterlimit="10"/>
<path d="M225.312 80.4536L227.993 80.4072" stroke="#232323" stroke-width="1.9514" stroke-miterlimit="10"/>
<path d="M196.863 58.0059C196.863 58.0059 200.298 67.7607 215.784 67.4562C226.306 67.2511 228.821 74.8683 228.821 74.8683C228.821 74.8683 226.988 57.8404 226.505 58.0059C226.022 58.1647 210.49 53.863 210.49 53.863L196.863 58.0059Z" fill="#282828"/>
</svg>
