<svg width="454" height="313" viewBox="0 0 454 313" fill="none" xmlns="http://www.w3.org/2000/svg">
<g opacity="0.3">
<path d="M275.778 28.44C278.42 46.5979 265.799 63.4627 247.602 66.1122C229.404 68.7538 212.508 56.1805 209.866 38.0227C207.224 19.8649 219.845 3.00005 238.043 0.350544C256.24 -2.29103 273.137 10.2822 275.778 28.44Z" fill="#F5F5F5"/>
<path d="M267.933 29.5822C269.947 43.4167 260.333 56.2756 246.459 58.2904C232.593 60.3053 219.718 50.7227 217.703 36.8882C215.696 23.0457 225.303 10.1948 239.177 8.17991C253.051 6.15708 265.926 15.7397 267.933 29.5822Z" fill="#EBEBEB"/>
<path d="M267.814 28.7968C267.663 28.8206 267.393 27.7338 266.711 25.8697C266.021 24.0214 264.855 21.3639 262.697 18.5954C261.618 17.2151 260.294 15.819 258.707 14.5181C257.113 13.233 255.264 12.0272 253.162 11.0911C252.115 10.6152 251.012 10.1948 249.854 9.86952C248.696 9.53635 247.498 9.25871 246.261 9.10799C245.023 8.94933 243.754 8.85414 242.461 8.88587C241.176 8.9176 239.867 9.04452 238.566 9.26664C237.265 9.50462 235.996 9.83779 234.774 10.2503C233.553 10.6628 232.394 11.1863 231.284 11.7654C230.173 12.3366 229.142 13.0108 228.174 13.7169C227.199 14.4229 226.31 15.2003 225.493 16.0015C223.843 17.6039 222.526 19.3728 221.471 21.1259C220.432 22.8949 219.67 24.6639 219.131 26.3298C218.06 29.6773 217.878 32.5648 217.87 34.5401C217.87 36.5232 217.997 37.6417 217.838 37.6655C217.727 37.6893 217.346 36.6184 217.108 34.5797C216.886 32.5569 216.846 29.5266 217.806 25.9411C218.29 24.1562 219.012 22.2444 220.067 20.3247C221.13 18.4209 222.495 16.4933 224.224 14.7322C225.088 13.8517 226.025 13.0029 227.064 12.2255C228.095 11.4481 229.198 10.7104 230.387 10.0758C231.577 9.44116 232.823 8.87 234.14 8.40991C235.456 7.95775 236.821 7.59285 238.225 7.33901C239.629 7.10103 241.041 6.96617 242.429 6.94237C243.817 6.91064 245.19 7.02963 246.522 7.21208C247.855 7.39453 249.148 7.70391 250.386 8.08467C251.623 8.45751 252.805 8.93347 253.916 9.46495C256.145 10.52 258.088 11.8606 259.746 13.2885C261.388 14.7322 262.729 16.2712 263.8 17.7784C265.934 20.8086 266.941 23.6723 267.433 25.6476C267.917 27.6386 267.925 28.773 267.814 28.7968Z" fill="#8F7A61"/>
<path d="M247.839 47.7954L248.537 52.1584L244.642 52.785L243.96 48.5411C240.065 48.9218 236.17 48.311 233.759 46.9783L235.139 41.8776C237.32 43.012 240.295 43.607 243.143 43.4324L242.104 36.9197C237.606 36.5628 232.545 35.8964 231.656 30.3198C230.998 26.1869 233.425 22.165 239.47 20.4754L238.78 16.1521L242.675 15.5254L243.357 19.7773C246.316 19.5393 249.291 19.8645 251.647 20.8879L250.465 25.9965C248.299 25.1874 246.165 24.8463 244.174 24.9256L245.237 31.5493C249.727 31.8666 254.709 32.5489 255.589 38.0462C256.24 42.0918 253.836 46.074 247.839 47.7954ZM241.184 31.1924L240.295 25.6554C238.304 26.4566 237.669 27.7179 237.876 29.003C238.09 30.3674 239.383 30.9227 241.184 31.1924ZM249.386 39.5137C249.164 38.1493 247.918 37.594 246.149 37.2688L247.014 42.6471C248.894 41.9094 249.592 40.7591 249.386 39.5137Z" fill="#8F7A61"/>
</g>
<path d="M449.607 171.846C449.607 171.846 442.222 167.579 434.591 185.086C426.959 202.593 424.262 212.581 424.262 212.581C424.262 212.581 422.192 216.277 419.606 214.096C417.02 211.914 413.276 205.52 409.19 206.956C404.954 208.448 403.828 213.342 405.073 220.362C406.319 227.383 408.484 242.851 408.675 244.256C408.865 245.628 408.191 247.714 406.192 246.508C404.193 245.303 392.413 233.673 387.233 239.591C382.045 245.509 388.732 264.492 389.422 266.578C390.112 268.664 389.755 269.6 388.779 270.187C387.804 270.774 384.21 266.491 380.728 263.318C377.245 260.145 372.644 257.083 369.939 260.748C367.234 264.412 367.171 278.961 382.378 301.664L390.112 311.723L402.773 310.255C429.672 305.464 440.112 295.326 440.873 290.836C441.635 286.346 436.241 285.156 431.536 284.847C426.832 284.538 421.256 284.918 421.002 283.808C420.748 282.697 421.168 281.793 423.152 280.841C425.135 279.889 443.443 271.544 444.11 263.699C444.776 255.861 428.229 255.441 425.976 254.83C423.723 254.227 424.762 252.299 425.88 251.482C427.023 250.649 439.675 241.479 445.593 237.505C451.511 233.539 454.256 229.326 452.391 225.241C450.599 221.299 443.388 223.044 440.024 222.695C436.661 222.346 437.883 218.284 437.883 218.284C437.883 218.284 443.213 209.415 450.527 191.773C457.841 174.131 449.433 171.759 449.433 171.759" fill="#EBEBEB"/>
<path d="M390.596 309.105C396.014 296.167 403.653 278.358 412.165 258.717C420.669 239.083 428.348 221.298 433.845 208.392C436.582 201.951 438.795 196.731 440.334 193.106C441.095 191.313 441.69 189.917 442.103 188.949C442.301 188.489 442.46 188.132 442.571 187.87C442.682 187.632 442.745 187.505 442.745 187.505C442.745 187.505 442.706 187.632 442.611 187.886C442.507 188.148 442.365 188.513 442.182 188.981C441.786 189.957 441.214 191.361 440.485 193.169C439.009 196.802 436.836 202.046 434.123 208.511C428.705 221.449 421.065 239.25 412.562 258.891C404.058 278.532 396.371 296.317 390.882 309.224" fill="#E0E0E0"/>
<path d="M414.069 216.118C414.101 216.11 414.228 216.404 414.45 216.959C414.672 217.507 414.965 218.308 415.315 219.299C416.013 221.29 416.909 224.059 417.837 227.145C418.733 230.175 419.551 232.92 420.177 235.038C420.463 235.974 420.701 236.767 420.899 237.425C421.074 237.989 421.153 238.306 421.121 238.314C421.089 238.322 420.955 238.028 420.733 237.481C420.518 236.934 420.225 236.132 419.884 235.133C419.202 233.134 418.345 230.349 417.425 227.272C416.504 224.249 415.671 221.513 415.029 219.402C414.743 218.466 414.497 217.673 414.299 217.015C414.125 216.451 414.045 216.126 414.069 216.118Z" fill="#E0E0E0"/>
<path d="M422.296 238.465C422.256 238.354 427.888 236.252 434.877 233.784C441.865 231.309 447.569 229.398 447.609 229.509C447.648 229.62 442.016 231.722 435.028 234.189C428.031 236.664 422.335 238.576 422.296 238.465Z" fill="#E0E0E0"/>
<path d="M407.874 268.038C407.874 268.006 408.207 267.974 408.802 267.926C409.492 267.887 410.341 267.839 411.341 267.776C413.482 267.649 416.449 267.458 419.71 267.133C422.97 266.816 425.913 266.427 428.047 266.134C429.038 265.999 429.879 265.88 430.569 265.785C431.164 265.705 431.497 265.682 431.505 265.705C431.513 265.737 431.188 265.816 430.601 265.951C430.014 266.078 429.157 266.253 428.094 266.435C425.976 266.808 423.025 267.244 419.757 267.562C416.489 267.887 413.514 268.022 411.356 268.077C410.278 268.101 409.405 268.101 408.81 268.093C408.207 268.085 407.874 268.069 407.874 268.038Z" fill="#E0E0E0"/>
<path d="M395.991 249.459C396.015 249.444 396.205 249.682 396.538 250.134C396.864 250.586 397.324 251.244 397.887 252.061C399.013 253.703 400.544 255.98 402.21 258.511C403.876 261.041 405.367 263.35 406.43 265.031C406.962 265.872 407.382 266.554 407.668 267.038C407.953 267.514 408.096 267.792 408.072 267.808C408.049 267.824 407.858 267.586 407.525 267.133C407.2 266.681 406.74 266.023 406.176 265.206C405.05 263.564 403.519 261.287 401.853 258.757C400.187 256.226 398.696 253.918 397.641 252.236C397.109 251.395 396.689 250.713 396.403 250.229C396.11 249.753 395.959 249.475 395.991 249.459Z" fill="#E0E0E0"/>
<path d="M379.943 273.947C379.967 273.931 380.213 274.241 380.633 274.82C381.093 275.47 381.68 276.295 382.37 277.287C383.822 279.381 385.805 282.285 387.971 285.513C390.136 288.742 392.08 291.677 393.468 293.811C394.119 294.826 394.666 295.683 395.094 296.357C395.467 296.96 395.665 297.309 395.642 297.325C395.618 297.341 395.372 297.031 394.951 296.452C394.491 295.802 393.904 294.977 393.214 293.985C391.763 291.891 389.779 288.988 387.614 285.759C385.448 282.53 383.505 279.595 382.116 277.462C381.466 276.446 380.919 275.589 380.49 274.915C380.109 274.312 379.919 273.971 379.943 273.947Z" fill="#E0E0E0"/>
<path d="M395.419 296.659C395.419 296.627 395.84 296.571 396.593 296.492C397.434 296.413 398.513 296.31 399.806 296.191C402.519 295.929 406.271 295.564 410.396 295.04C414.521 294.525 418.25 293.961 420.947 293.533C422.232 293.335 423.303 293.168 424.136 293.033C424.889 292.922 425.31 292.867 425.318 292.899C425.326 292.93 424.913 293.033 424.167 293.2C423.422 293.367 422.335 293.589 420.994 293.835C418.313 294.334 414.585 294.953 410.452 295.469C406.319 295.992 402.559 296.31 399.83 296.492C398.466 296.579 397.363 296.635 396.601 296.659C395.848 296.69 395.427 296.682 395.419 296.659Z" fill="#E0E0E0"/>
<g opacity="0.3">
<path d="M167.768 225.542L16.5798 178.486C12.6928 177.28 10.5272 173.147 11.733 169.26L40.8061 75.8613C42.0119 71.9743 46.1448 69.8087 50.0318 71.0145L201.22 118.079C205.107 119.285 207.273 123.418 206.067 127.297L176.994 220.704C175.78 224.583 171.655 226.756 167.768 225.542Z" fill="#8F7A61"/>
<path d="M176.121 137.688C174.162 143.987 167.466 147.501 161.168 145.542C154.869 143.582 151.347 136.887 153.315 130.589C155.274 124.29 161.969 120.776 168.268 122.735C174.566 124.695 178.088 131.39 176.121 137.688Z" fill="white"/>
<path d="M176.93 150.761C176.2 150.666 175.479 150.515 174.765 150.293C168.22 148.255 164.547 141.274 166.586 134.729C168.625 128.185 175.605 124.512 182.15 126.551C188.694 128.59 192.359 135.57 190.328 142.123C189.345 145.296 187.179 147.89 184.236 149.437C181.967 150.626 179.437 151.079 176.93 150.761ZM179.889 127.051C174.487 126.368 169.196 129.637 167.522 135.015C165.642 141.044 169.021 147.477 175.058 149.357C177.977 150.27 181.079 149.984 183.792 148.564C186.505 147.144 188.496 144.748 189.4 141.821C191.28 135.792 187.901 129.351 181.864 127.479C181.214 127.273 180.547 127.13 179.889 127.051Z" fill="white"/>
<path d="M36.2289 142.146L33.3732 151.324L32.4292 151.031L35.0232 142.694L32.8576 142.019L33.1193 141.178L36.2289 142.146Z" fill="white"/>
<path d="M43.0672 153.419L42.8054 154.26L36.3721 152.261L36.5783 151.594L41.5521 149.048C42.9086 148.35 43.2973 147.795 43.4876 147.168C43.8208 146.105 43.2735 145.216 41.8773 144.78C40.7985 144.447 39.8783 144.518 39.0533 145.026L38.5615 144.241C39.5293 143.622 40.8143 143.503 42.2184 143.939C44.0826 144.518 44.9631 145.827 44.4872 147.366C44.2175 148.247 43.6939 148.945 42.0836 149.77L38.0062 151.864L43.0672 153.419Z" fill="white"/>
<path d="M53.2211 154.847L51.3887 154.275L50.635 156.687L49.6911 156.393L50.4447 153.982L45.2646 152.372L45.4788 151.689L52.2374 147.12L53.2846 147.445L46.748 151.911L50.7302 153.149L51.3887 151.023L52.3088 151.309L51.6504 153.434L53.4829 154.006L53.2211 154.847Z" fill="white"/>
<path d="M67.2782 159.225L65.4458 158.654L64.6922 161.066L63.7482 160.772L64.5018 158.361L59.3218 156.75L59.536 156.068L66.2946 151.499L67.3417 151.824L60.8052 156.29L64.7874 157.528L65.4458 155.402L66.366 155.687L65.7076 157.813L67.54 158.385L67.2782 159.225Z" fill="white"/>
<path d="M75.3846 161.431C74.9007 162.993 73.4332 163.874 71.1883 163.176C69.8635 162.763 68.745 161.915 68.269 160.971L68.9592 160.368C69.3558 161.169 70.2681 161.938 71.4421 162.303C73.0048 162.787 74.0678 162.287 74.4089 161.169C74.7738 159.987 74.2661 159.027 71.9339 158.305L69.9825 157.694L71.8863 153.244L76.9077 154.807L76.6459 155.648L72.4496 154.339L71.2279 157.163L72.4099 157.528C75.1784 158.392 75.8923 159.804 75.3846 161.431Z" fill="white"/>
<path d="M84.4673 164.215C83.9359 165.928 82.2383 166.611 80.4534 166.055C78.0181 165.294 77.2169 163.192 78.1212 160.296C79.089 157.179 81.3022 156.084 83.7931 156.861C84.6181 157.115 85.3479 157.504 85.8159 158.035L85.1971 158.678C84.8243 158.218 84.2294 157.901 83.5471 157.694C81.5719 157.076 79.8981 157.956 79.1287 160.447C79.0652 160.653 78.9938 160.923 78.9383 161.208C79.7077 160.344 80.9611 160.114 82.2303 160.51C84.0469 161.066 84.983 162.541 84.4673 164.215ZM83.5234 163.953C83.8962 162.747 83.2457 161.7 81.8337 161.256C80.4296 160.82 79.208 161.383 78.851 162.525C78.5337 163.533 79.0811 164.754 80.6597 165.246C81.9924 165.659 83.1505 165.167 83.5234 163.953Z" fill="white"/>
<path d="M96.9856 168.229C96.5096 169.76 95.0262 170.593 92.813 169.903C91.4883 169.49 90.3618 168.633 89.8779 167.697L90.5681 167.094C90.9647 167.896 91.8849 168.673 93.0827 169.038C94.6058 169.514 95.6608 169.062 96.0178 167.927C96.3589 166.825 95.8116 165.865 94.106 165.333L93.4476 165.127L93.6618 164.429L97.1998 162.033L92.5116 160.574L92.7734 159.733L98.6673 161.565L98.4611 162.232L94.8517 164.683C96.7793 165.421 97.4377 166.761 96.9856 168.229Z" fill="white"/>
<path d="M106.211 170.989C105.68 172.703 103.982 173.385 102.205 172.83C99.7701 172.068 98.9689 169.966 99.8732 167.071C100.841 163.953 103.054 162.858 105.545 163.636C106.37 163.89 107.1 164.278 107.568 164.81L106.949 165.452C106.576 164.992 105.981 164.675 105.299 164.469C103.324 163.85 101.65 164.731 100.881 167.221C100.817 167.428 100.746 167.697 100.69 167.983C101.46 167.118 102.713 166.888 103.982 167.285C105.799 167.84 106.735 169.308 106.211 170.989ZM105.275 170.72C105.648 169.514 104.998 168.467 103.586 168.023C102.182 167.586 100.96 168.149 100.603 169.292C100.286 170.299 100.825 171.521 102.412 172.013C103.736 172.425 104.895 171.941 105.275 170.72Z" fill="white"/>
<path d="M116.659 167.174L116.453 167.84L109.964 175.154L108.94 174.837L115.31 167.674L110.59 166.206L110.059 167.92L109.131 167.626L109.924 165.072L116.659 167.174Z" fill="white"/>
<path d="M129.772 171.259L129.565 171.925L123.077 179.239L122.053 178.922L128.423 171.759L123.703 170.291L123.172 172.005L122.244 171.711L123.037 169.157L129.772 171.259Z" fill="white"/>
<path d="M136.736 180.691C136.228 182.317 134.538 182.896 132.349 182.214C130.144 181.532 129.128 180.104 129.628 178.478C129.969 177.375 130.842 176.796 132.095 176.772C131.278 176.114 130.985 175.265 131.286 174.305C131.754 172.814 133.309 172.274 135.252 172.877C137.196 173.48 138.203 174.813 137.735 176.312C137.434 177.272 136.696 177.803 135.641 177.875C136.68 178.613 137.077 179.604 136.736 180.691ZM135.776 180.374C136.125 179.247 135.379 178.24 133.753 177.732C132.127 177.224 130.953 177.637 130.604 178.763C130.247 179.906 130.985 180.913 132.611 181.413C134.229 181.92 135.419 181.516 135.776 180.374ZM133.983 176.986C135.411 177.431 136.466 177.058 136.775 176.058C137.101 175.027 136.387 174.115 135.014 173.686C133.626 173.258 132.555 173.607 132.238 174.63C131.913 175.638 132.555 176.542 133.983 176.986Z" fill="white"/>
<path d="M146.303 181.349C145.335 184.467 143.122 185.562 140.631 184.792C139.806 184.538 139.076 184.15 138.608 183.618L139.227 182.976C139.599 183.436 140.194 183.753 140.877 183.959C142.852 184.578 144.526 183.698 145.295 181.207C145.359 181 145.43 180.731 145.486 180.445C144.716 181.31 143.463 181.54 142.193 181.143C140.377 180.58 139.433 179.105 139.956 177.431C140.488 175.717 142.186 175.035 143.962 175.59C146.406 176.352 147.207 178.454 146.303 181.349ZM145.573 179.128C145.89 178.121 145.351 176.899 143.764 176.407C142.439 175.995 141.281 176.479 140.9 177.7C140.528 178.906 141.178 179.953 142.59 180.398C143.994 180.834 145.216 180.263 145.573 179.128Z" fill="white"/>
<path d="M157.012 179.739L154.156 188.909L153.212 188.616L155.806 180.279L153.64 179.604L153.902 178.763L157.012 179.739Z" fill="white"/>
<path d="M163.85 191.011L163.589 191.852L157.155 189.845L157.362 189.179L162.335 186.633C163.692 185.935 164.08 185.379 164.271 184.753C164.604 183.69 164.057 182.801 162.653 182.365C161.582 182.032 160.654 182.103 159.829 182.611L159.337 181.825C160.305 181.207 161.59 181.088 162.994 181.524C164.858 182.103 165.738 183.412 165.262 184.951C164.985 185.831 164.469 186.53 162.859 187.354L158.781 189.449L163.85 191.011Z" fill="white"/>
<path d="M172.639 191.773C172.163 193.304 170.68 194.137 168.467 193.447C167.142 193.034 166.016 192.178 165.532 191.241L166.222 190.639C166.619 191.44 167.539 192.217 168.737 192.582C170.26 193.058 171.315 192.606 171.672 191.472C172.013 190.369 171.465 189.409 169.76 188.878L169.101 188.671L169.316 187.973L172.846 185.578L168.157 184.118L168.419 183.277L174.321 185.11L174.115 185.776L170.506 188.227C172.433 188.965 173.092 190.305 172.639 191.773Z" fill="white"/>
<path d="M99.2572 179.284L98.0171 183.268L171.493 206.139L172.733 202.155L99.2572 179.284Z" fill="white"/>
<path d="M132.577 198.384L131.337 202.368L169.026 214.1L170.266 210.116L132.577 198.384Z" fill="white"/>
<g opacity="0.5">
<g opacity="0.5">
<path opacity="0.5" d="M60.1695 140.917L36.8554 133.658C34.7771 133.016 33.6189 130.803 34.2694 128.732L39.1004 113.216C39.7429 111.138 41.9561 109.979 44.0265 110.63L67.3406 117.888C69.4189 118.531 70.5771 120.744 69.9266 122.815L65.1036 138.331C64.4531 140.409 62.2478 141.567 60.1695 140.917Z" fill="#EBEBEB"/>
</g>
</g>
<path d="M35.0786 126.115L35.5387 124.639L51.4119 129.581C53.2444 130.152 55.1958 129.121 55.767 127.289C56.3381 125.456 55.291 123.473 53.4744 122.934L37.6012 117.992L38.0613 116.516L53.9345 121.458C56.584 122.283 58.0674 125.107 57.2424 127.749C56.4174 130.398 53.5934 131.882 50.9439 131.057L35.0786 126.115Z" fill="#8F7A61"/>
<path d="M56.7414 126.784L56.2803 128.261L67.176 131.664L67.6371 130.187L56.7414 126.784Z" fill="#8F7A61"/>
<path d="M129.099 116.337L49.8062 91.6467L47.6883 98.4483L126.982 123.138L129.099 116.337Z" fill="white"/>
</g>
<g opacity="0.1">
<path d="M74.4238 269.831C76.0897 281.317 68.1174 291.979 56.5992 293.652C45.0889 295.326 34.4036 287.37 32.7298 275.883C31.064 264.397 39.0363 253.735 50.5545 252.061C62.0727 250.388 72.7579 258.344 74.4238 269.831Z" fill="#F5F5F5"/>
<path opacity="0.2" d="M69.4657 270.553C70.7349 279.302 64.6585 287.433 55.885 288.71C47.1115 289.987 38.9726 283.927 37.6954 275.169C36.4262 266.42 42.5026 258.289 51.2761 257.011C60.0496 255.734 68.1885 261.795 69.4657 270.553Z" fill="#8F7A61"/>
<path d="M69.3863 270.053C69.2911 270.068 69.1245 269.386 68.6882 268.204C68.2519 267.03 67.5142 265.356 66.1498 263.603C65.4676 262.731 64.6346 261.842 63.6272 261.025C62.6197 260.216 61.4457 259.455 60.121 258.86C59.4546 258.558 58.7645 258.296 58.0267 258.09C57.2969 257.876 56.5354 257.709 55.758 257.606C54.9727 257.503 54.1715 257.448 53.3544 257.463C52.5373 257.479 51.7123 257.559 50.8874 257.701C50.0624 257.852 49.2612 258.066 48.4917 258.328C47.7222 258.59 46.9845 258.923 46.2864 259.288C45.5804 259.653 44.9299 260.073 44.3191 260.525C43.7004 260.97 43.1372 261.462 42.6215 261.969C41.5824 262.985 40.7415 264.103 40.0752 265.214C39.4167 266.332 38.9329 267.451 38.5917 268.506C37.9095 270.624 37.7985 272.448 37.7906 273.702C37.7906 274.955 37.8699 275.661 37.7747 275.677C37.7033 275.693 37.4653 275.01 37.3146 273.725C37.1718 272.448 37.148 270.529 37.7588 268.26C38.0603 267.133 38.5204 265.92 39.1867 264.706C39.861 263.5 40.7177 262.279 41.8124 261.168C42.3598 260.613 42.9547 260.073 43.6052 259.581C44.2557 259.09 44.9537 258.622 45.7073 258.225C46.4609 257.82 47.2463 257.463 48.0792 257.17C48.9121 256.884 49.7768 256.654 50.6652 256.488C51.5537 256.337 52.4422 256.25 53.3227 256.234C54.2032 256.218 55.0679 256.289 55.9167 256.4C56.7575 256.519 57.5746 256.71 58.3599 256.948C59.1452 257.186 59.8909 257.479 60.589 257.82C62.001 258.487 63.2306 259.336 64.2777 260.24C65.3168 261.152 66.1656 262.128 66.8399 263.08C68.1885 264.999 68.831 266.808 69.1404 268.054C69.4497 269.323 69.4577 270.045 69.3863 270.053Z" fill="#CD9E64"/>
<path d="M56.7496 282.071L57.1938 284.831L54.7268 285.228L54.2984 282.539C51.8314 282.785 49.3722 282.396 47.8492 281.547L48.7218 278.326C50.102 279.04 51.9821 279.421 53.7828 279.31L53.1244 275.193C50.2845 274.963 47.0797 274.543 46.5165 271.02C46.0961 268.411 47.635 265.864 51.4585 264.793L51.0222 262.057L53.4893 261.66L53.9176 264.349C55.7897 264.198 57.6698 264.405 59.1611 265.047L58.4155 268.276C57.0431 267.76 55.6946 267.546 54.4412 267.594L55.1155 271.782C57.9554 271.988 61.1046 272.417 61.6599 275.891C62.0645 278.469 60.5493 280.984 56.7496 282.071ZM52.5453 271.568L51.9821 268.07C50.7208 268.577 50.3242 269.37 50.4511 270.188C50.5859 271.052 51.403 271.401 52.5453 271.568ZM57.7333 276.835C57.5984 275.97 56.8051 275.621 55.6866 275.415L56.234 278.818C57.4239 278.35 57.8602 277.62 57.7333 276.835Z" fill="#CD9E64"/>
</g>
<path d="M389.113 278.596C387.574 280.793 384.583 280.064 383.203 278.723C381.815 277.382 381.228 275.439 380.696 273.583C379.475 269.346 378.253 264.904 379.157 260.597C379.427 259.312 379.911 258.019 380.815 257.067C381.72 256.107 383.116 255.544 384.385 255.877C385.892 256.274 386.828 257.749 387.503 259.153C389.494 263.278 390.549 267.855 390.565 272.44C390.572 274.59 390.319 276.835 389.113 278.596Z" fill="#39B54A"/>
<g opacity="0.2">
<g opacity="0.2">
<path opacity="0.7" d="M389.338 278.815C387.8 281.013 384.809 280.283 383.429 278.942C382.04 277.602 381.453 275.658 380.922 273.802C379.7 269.566 378.479 265.124 379.383 260.816C379.653 259.531 380.137 258.238 381.041 257.286C381.945 256.326 383.341 255.763 384.611 256.096C386.118 256.493 387.054 257.968 387.728 259.373C389.719 263.498 390.774 268.075 390.79 272.66C390.798 274.809 390.544 277.054 389.338 278.815Z" fill="black"/>
</g>
</g>
<path d="M383.353 289.718C380.839 288.417 377.88 288.25 375.088 288.71C373.588 288.956 372.026 289.408 371.002 290.535C369.979 291.661 369.789 293.644 370.963 294.612C371.661 295.191 372.636 295.278 373.541 295.262C375.73 295.239 378.15 294.85 379.895 296.167C380.894 296.92 381.553 298.166 382.743 298.531C383.909 298.896 385.226 298.206 385.844 297.15C386.463 296.095 386.479 294.787 386.193 293.597C386.193 293.612 385.884 291.026 383.353 289.718Z" fill="#39B54A"/>
<path d="M393.341 281.753C391.675 279.77 391.358 276.883 392.095 274.4C392.841 271.917 394.515 269.807 396.45 268.077C398.719 266.055 401.385 264.484 404.248 263.476C405.375 263.08 406.565 262.77 407.754 262.881C408.944 262.993 410.142 263.603 410.697 264.666C411.515 266.229 410.729 268.133 409.88 269.68C408.381 272.409 406.668 275.018 404.756 277.478C403.217 279.461 401.464 281.412 399.124 282.309C396.784 283.205 394.356 283.102 393.111 281.476" fill="#39B54A"/>
<path d="M389.216 311.731C389.184 311.731 389.137 311.374 389.073 310.731C389.002 310.001 388.914 309.089 388.811 308.01C388.684 306.86 388.518 305.504 388.2 304.012C387.883 302.529 387.383 300.926 386.749 299.3C386.09 297.682 385.281 296.207 384.337 295.033C383.401 293.851 382.314 292.994 381.291 292.502C380.276 292.002 379.356 291.796 378.729 291.701C378.094 291.637 377.737 291.582 377.737 291.558C377.737 291.526 378.094 291.526 378.745 291.542C379.395 291.582 380.347 291.748 381.418 292.24C382.497 292.716 383.647 293.589 384.631 294.795C385.622 295.992 386.455 297.5 387.13 299.15C387.78 300.807 388.272 302.426 388.573 303.941C388.875 305.448 389.018 306.828 389.105 307.987C389.192 309.145 389.224 310.081 389.24 310.723C389.256 311.366 389.248 311.731 389.216 311.731Z" fill="#263238"/>
<path d="M389.034 309.636C389.018 309.636 389.01 309.478 389.01 309.176C389.01 308.827 389.01 308.391 389.01 307.852C389.01 306.701 389.01 305.036 388.954 302.989C388.851 298.88 388.502 293.208 387.82 286.981C387.13 280.746 386.218 275.137 385.393 271.116C385.194 270.108 384.996 269.196 384.814 268.403C384.639 267.609 384.48 266.919 384.338 266.364C384.211 265.84 384.108 265.412 384.028 265.079C383.965 264.785 383.933 264.627 383.949 264.619C383.965 264.611 384.02 264.761 384.108 265.055C384.211 265.388 384.338 265.809 384.488 266.324C384.663 266.872 384.837 267.554 385.036 268.347C385.242 269.14 385.464 270.045 385.678 271.052C386.583 275.066 387.542 280.682 388.232 286.933C388.915 293.176 389.224 298.864 389.256 302.981C389.28 305.043 389.24 306.709 389.184 307.86C389.153 308.399 389.121 308.835 389.105 309.184C389.065 309.478 389.05 309.636 389.034 309.636Z" fill="#263238"/>
<path d="M389.002 298.666C388.97 298.666 388.978 298.174 389.01 297.285C389.057 296.397 389.184 295.112 389.43 293.541C389.692 291.97 390.065 290.106 390.652 288.083C391.207 286.053 391.968 283.855 392.936 281.618C394.832 277.128 397.402 273.456 399.639 271.179C400.163 270.576 400.75 270.14 401.218 269.711C401.464 269.505 401.67 269.299 401.892 269.14C402.114 268.99 402.313 268.847 402.503 268.72C403.241 268.212 403.653 267.95 403.669 267.974C403.733 268.061 402.019 269.077 399.853 271.377C397.696 273.678 395.197 277.327 393.317 281.785C392.357 283.998 391.588 286.172 391.024 288.187C390.43 290.193 390.025 292.042 389.731 293.597C389.446 295.151 389.279 296.429 389.184 297.309C389.089 298.182 389.033 298.666 389.002 298.666Z" fill="#263238"/>
<path d="M216.641 235.744L93.8591 105.863C92.5661 104.49 92.6216 102.333 93.994 101.04L174.582 24.8545C175.954 23.5615 178.112 23.617 179.405 24.9894L302.194 154.871C303.487 156.243 303.424 158.401 302.059 159.694L221.464 235.879C220.099 237.172 217.942 237.116 216.641 235.744Z" fill="#8F7A61"/>
<g opacity="0.3">
<g opacity="0.3">
<path opacity="0.7" d="M217.784 234.823L95.0027 104.942C93.7097 103.569 93.7652 101.412 95.1376 100.119L175.725 23.9334C177.098 22.6403 179.255 22.6959 180.548 24.0682L303.338 153.949C304.631 155.322 304.567 157.479 303.203 158.773L222.607 234.958C221.243 236.251 219.085 236.195 217.784 234.823Z" fill="#232323"/>
</g>
</g>
<path d="M301.29 153.927L180.293 25.9412C178.5 24.0453 175.518 23.966 173.622 25.7508L150.728 47.399C150.268 47.8274 150.046 48.462 150.157 49.0807C152.442 61.884 161.604 73.3308 172.511 80.9144C185.703 90.0846 201.323 94.9076 216.181 101.024C231.03 107.14 245.936 115.199 254.836 128.574C263.237 141.187 265.228 156.838 269.496 171.386C270.638 175.265 272.066 179.192 273.811 182.952C274.359 184.126 275.882 184.428 276.826 183.539L301.092 160.598C302.995 158.805 303.075 155.814 301.29 153.927Z" fill="#8F7A61"/>
<path d="M178.508 63.1929C177.413 64.2241 175.961 63.9544 174.383 62.2965L171.289 59.0203L177.619 53.0391L180.546 56.1328C182.046 57.7114 182.149 59.1551 181.165 60.0833C180.531 60.6782 179.737 60.821 178.976 60.5592C179.42 61.4794 179.301 62.4393 178.508 63.1929ZM177.897 55.5378L176.406 56.9499L177.778 58.4095C178.452 59.1234 179.071 59.2741 179.571 58.8061C180.071 58.3381 179.944 57.7114 179.269 56.9975L177.897 55.5378ZM177.262 61.5746C177.794 61.0669 177.667 60.4244 176.945 59.6628L175.327 57.9573L173.764 59.4328L175.382 61.1383C176.104 61.8998 176.723 62.0902 177.262 61.5746Z" fill="white"/>
<path d="M183.125 68.8169L180.348 65.8739L178.46 66.5958L177.041 65.0965L186.036 61.9314L187.401 63.3751L183.744 72.1883L182.292 70.6494L183.125 68.8169ZM183.799 67.3097L185.275 64.0177L181.903 65.3028L183.799 67.3097Z" fill="white"/>
<path d="M196.19 72.6802L189.859 78.6614L188.725 77.4557L189.582 70.6653L185.742 74.2985L184.378 72.8548L190.708 66.8735L191.85 68.0872L190.986 74.8696L194.825 71.2365L196.19 72.6802Z" fill="white"/>
<path d="M195.936 80.1132L194.246 80.0973L192.643 81.6125L191.263 80.1528L197.593 74.1716L198.974 75.6312L196.015 78.4235L201.623 78.4315L203.162 80.0577L197.863 80.1053L196.975 86.1975L195.356 84.492L195.936 80.1132Z" fill="white"/>
<path d="M151.07 86.8877L149.975 85.7295L148.444 87.1733L147.881 86.5783L149.412 85.1346L146.31 81.8584L146.738 81.4538L153.497 80.8906L154.124 81.557L147.563 82.1361L149.951 84.6586L151.292 83.3894L151.839 83.9685L150.498 85.2377L151.593 86.4038L151.07 86.8877Z" fill="white"/>
<path d="M155.243 91.0208C154.275 91.941 152.855 91.941 151.53 90.5369C150.737 89.6961 150.269 88.6172 150.301 87.7367L151.046 87.578C151.007 88.3237 151.364 89.2598 152.078 90.0134C152.99 90.9732 153.942 91.0843 154.664 90.4021C155.362 89.7436 155.354 88.8235 154.331 87.7446L153.942 87.3321L154.378 86.9196L157.916 86.6261L155.108 83.6514L155.64 83.1516L159.17 86.8879L158.749 87.2845L155.132 87.5939C156.234 88.9028 156.171 90.1482 155.243 91.0208Z" fill="white"/>
<path d="M159.724 95.6852C158.741 96.6213 157.313 96.6609 155.972 95.241C155.179 94.4001 154.719 93.3292 154.751 92.4487L155.496 92.2901C155.457 93.0357 155.806 93.9638 156.512 94.7095C157.448 95.7011 158.423 95.7646 159.129 95.0982C159.875 94.3922 159.899 93.4879 158.503 92.0124L157.337 90.7749L160.533 88.3237L163.54 91.5047L163.008 92.0045L160.494 89.347L158.455 90.8939L159.161 91.6396C160.811 93.3927 160.756 94.7095 159.724 95.6852Z" fill="white"/>
<path d="M164.587 100.778C163.5 101.809 161.993 101.611 160.93 100.484C159.471 98.9375 159.748 97.0892 161.581 95.3519C163.556 93.4877 165.603 93.5909 167.094 95.1695C167.586 95.693 167.959 96.2721 168.086 96.8433L167.38 97.0574C167.3 96.5736 166.991 96.1055 166.586 95.6692C165.404 94.4159 163.834 94.3683 162.255 95.8596C162.12 95.9865 161.962 96.1531 161.803 96.3356C162.715 96.0183 163.715 96.3673 164.476 97.1685C165.571 98.3267 165.65 99.7783 164.587 100.778ZM164.016 100.207C164.778 99.4848 164.738 98.4615 163.889 97.5651C163.048 96.6767 161.93 96.5894 161.208 97.2716C160.565 97.8745 160.462 98.9771 161.414 99.9846C162.207 100.818 163.247 100.937 164.016 100.207Z" fill="white"/>
<path d="M174.725 114.977L175.241 111.868L172.099 112.201L171.473 111.535L175.344 111.146L175.915 107.497L176.542 108.163L176.074 111.09L179.025 110.789L179.635 111.439L175.955 111.804L175.36 115.667L174.725 114.977Z" fill="white"/>
<path d="M178.914 119.404L179.429 116.294L176.288 116.627L175.661 115.961L179.532 115.572L180.103 111.923L180.73 112.589L180.262 115.517L183.213 115.215L183.824 115.866L180.143 116.231L179.548 120.094L178.914 119.404Z" fill="white"/>
<path d="M183.102 123.838L183.618 120.728L180.476 121.061L179.85 120.395L183.721 120.006L184.292 116.357L184.919 117.024L184.451 119.951L187.401 119.649L188.012 120.3L184.332 120.665L183.737 124.528L183.102 123.838Z" fill="white"/>
<path d="M187.299 128.272L187.814 125.163L184.673 125.496L184.046 124.83L187.917 124.441L188.489 120.792L189.115 121.458L188.647 124.385L191.598 124.084L192.209 124.735L188.528 125.099L187.933 128.963L187.299 128.272Z" fill="white"/>
<path d="M201.759 143.574L202.275 140.465L199.134 140.798L198.507 140.132L202.378 139.743L202.949 136.094L203.576 136.76L203.108 139.687L206.059 139.386L206.67 140.037L202.989 140.401L202.394 144.265L201.759 143.574Z" fill="white"/>
<path d="M205.948 148.009L206.464 144.899L203.322 145.232L202.696 144.566L206.567 144.177L207.138 140.528L207.765 141.195L207.297 144.122L210.248 143.82L210.859 144.471L207.178 144.836L206.583 148.699L205.948 148.009Z" fill="white"/>
<path d="M210.144 152.435L210.66 149.325L207.519 149.659L206.892 148.992L210.763 148.604L211.334 144.955L211.961 145.621L211.493 148.548L214.444 148.247L215.055 148.897L211.374 149.262L210.779 153.125L210.144 152.435Z" fill="white"/>
<path d="M214.333 156.87L214.849 153.76L211.707 154.093L211.081 153.427L214.952 153.038L215.523 149.389L216.15 150.055L215.681 152.983L218.632 152.681L219.243 153.332L215.563 153.697L214.968 157.56L214.333 156.87Z" fill="white"/>
<path d="M233.133 165.119L227.326 170.609L226.763 170.014L232.038 165.024L230.745 163.652L231.277 163.152L233.133 165.119Z" fill="white"/>
<path d="M233.935 174.266C232.967 175.186 231.547 175.186 230.222 173.782C229.429 172.941 228.961 171.862 228.993 170.982L229.738 170.823C229.699 171.569 230.056 172.505 230.77 173.258C231.682 174.218 232.634 174.329 233.356 173.647C234.054 172.989 234.046 172.069 233.023 170.99L232.634 170.577L233.07 170.165L236.608 169.871L233.8 166.896L234.331 166.397L237.861 170.133L237.441 170.53L233.824 170.839C234.934 172.14 234.863 173.385 233.935 174.266Z" fill="white"/>
<path d="M239.257 180.176L238.155 179.01L236.624 180.453L236.06 179.858L237.591 178.415L234.49 175.138L234.918 174.734L241.677 174.171L242.303 174.837L235.743 175.416L238.131 177.939L239.471 176.669L240.019 177.249L238.678 178.518L239.781 179.676L239.257 180.176Z" fill="white"/>
<path d="M242.494 185.594L241.962 186.093L238.107 182.016L238.527 181.619L243.176 181.802C244.445 181.849 244.953 181.604 245.349 181.223C246.024 180.588 245.992 179.723 245.151 178.835C244.509 178.153 243.803 177.828 243.001 177.859L242.962 177.09C243.914 177.034 244.897 177.479 245.738 178.367C246.849 179.549 246.96 180.858 245.992 181.778C245.437 182.302 244.77 182.603 243.271 182.54L239.463 182.397L242.494 185.594Z" fill="white"/>
<path d="M129.889 91.7107C130.722 90.9175 131.928 90.9968 132.745 91.8614C133.197 92.3374 133.404 92.9086 133.332 93.4638L132.563 93.4083C132.602 93.0196 132.491 92.6785 132.229 92.4009C131.738 91.8852 131.024 91.8615 130.5 92.3533C129.977 92.8451 129.961 93.559 130.453 94.0826C130.714 94.3602 131.048 94.4872 131.444 94.4713L131.452 95.2408C130.881 95.2804 130.334 95.0504 129.873 94.5665C129.064 93.7098 129.056 92.504 129.889 91.7107Z" fill="white"/>
<path d="M133.689 97.3113L132.475 96.0262L131.65 96.3435L131.032 95.6851L134.974 94.2969L135.577 94.9315L133.975 98.7947L133.34 98.1204L133.689 97.3113ZM133.983 96.6449L134.625 95.2012L133.15 95.7644L133.983 96.6449Z" fill="white"/>
<path d="M135.91 100.849L136.18 99.588L136.148 99.5563L135.616 99.001L134.847 99.7308L134.244 99.0882L137.013 96.4705L138.147 97.6683C138.845 98.406 138.901 99.2389 138.282 99.826C137.869 100.223 137.362 100.294 136.87 100.08L136.568 101.547L135.91 100.849ZM137.592 98.1205L137.1 97.5969L136.132 98.5092L136.624 99.0327C136.997 99.4214 137.362 99.4531 137.663 99.1676C137.972 98.882 137.965 98.5171 137.592 98.1205Z" fill="white"/>
<path d="M137.061 101.523L137.751 101.285C137.798 101.682 138.012 102.142 138.33 102.475C138.687 102.856 138.964 102.888 139.131 102.729C139.647 102.237 137.767 100.968 138.798 99.9925C139.266 99.5482 140.019 99.5562 140.765 100.341C141.098 100.691 141.352 101.127 141.431 101.539L140.757 101.801C140.662 101.404 140.48 101.071 140.249 100.825C139.892 100.445 139.607 100.437 139.432 100.595C138.925 101.079 140.797 102.356 139.781 103.316C139.321 103.753 138.56 103.745 137.806 102.951C137.394 102.515 137.108 101.952 137.061 101.523Z" fill="white"/>
<path d="M145.628 105.577L142.859 108.195L142.256 107.552L143.391 106.481L142.201 105.22L141.066 106.291L140.463 105.648L143.232 103.031L143.835 103.673L142.74 104.704L143.93 105.966L145.025 104.934L145.628 105.577Z" fill="white"/>
<path d="M144.7 107.378C145.525 106.601 146.738 106.664 147.571 107.537C148.396 108.409 148.396 109.623 147.571 110.408C146.746 111.194 145.525 111.114 144.708 110.25C143.875 109.369 143.875 108.155 144.7 107.378ZM146.953 109.758C147.476 109.258 147.492 108.544 147.024 108.052C146.556 107.552 145.842 107.529 145.319 108.02C144.795 108.52 144.779 109.234 145.255 109.726C145.715 110.226 146.429 110.257 146.953 109.758Z" fill="white"/>
<path d="M149.419 109.591L150.022 110.233L147.77 112.359L149.086 113.748L148.563 114.239L146.643 112.209L149.419 109.591Z" fill="white"/>
<path d="M151.681 111.987L152.87 113.248C153.727 114.152 153.767 115.294 152.934 116.088C152.093 116.881 150.959 116.778 150.102 115.866L148.912 114.604L151.681 111.987ZM150.602 115.334C151.125 115.882 151.792 115.937 152.323 115.437C152.855 114.938 152.839 114.263 152.323 113.716L151.768 113.129L150.046 114.755L150.602 115.334Z" fill="white"/>
<path d="M154.552 119.539L154.036 120.022L152.005 117.873L154.774 115.255L156.757 117.349L156.241 117.833L154.861 116.373L154.258 116.945L155.472 118.23L154.972 118.698L153.758 117.413L153.116 118.015L154.552 119.539Z" fill="white"/>
<path d="M156.194 122.307L156.464 121.046L156.432 121.014L155.901 120.459L155.131 121.189L154.528 120.546L157.297 117.928L158.431 119.126C159.129 119.864 159.185 120.697 158.566 121.284C158.154 121.68 157.646 121.752 157.154 121.538L156.853 123.005L156.194 122.307ZM157.876 119.578L157.384 119.055L156.416 119.967L156.908 120.49C157.281 120.879 157.646 120.911 157.947 120.625C158.257 120.34 158.249 119.975 157.876 119.578Z" fill="white"/>
<path d="M118.8 101.674L120.275 101.579C120.156 102.237 120.267 102.745 120.624 103.126C121.092 103.617 121.64 103.602 122.227 103.046L124.765 100.643L122.988 98.7627L123.98 97.8267L126.915 100.928L123.448 104.205C122.131 105.45 120.854 105.402 119.664 104.141C118.982 103.435 118.657 102.539 118.8 101.674Z" fill="white"/>
<path d="M123.004 106.132C123.448 105.712 124.043 105.767 124.44 106.18C124.828 106.592 124.852 107.195 124.408 107.616C123.972 108.028 123.353 107.996 122.964 107.584C122.567 107.164 122.567 106.537 123.004 106.132Z" fill="white"/>
<path d="M137.259 111.883L130.262 115.183L129.009 113.859L131.516 109.266L126.756 111.471L125.511 110.154L129.191 103.348L130.405 104.633L127.787 109.385L132.729 107.092L133.808 108.234L131.175 113.034L136.14 110.701L137.259 111.883Z" fill="white"/>
<path d="M137.759 112.407C138.131 112.05 138.702 112.074 139.123 112.518C139.543 112.962 139.551 113.518 139.178 113.867C138.782 114.239 138.211 114.216 137.79 113.779C137.37 113.335 137.386 112.764 137.759 112.407ZM136.656 113.724L137.782 114.914L133.681 118.793L132.555 117.603L136.656 113.724Z" fill="white"/>
<path d="M140.384 114.549L141.511 115.739L135.847 121.093L134.72 119.903L140.384 114.549Z" fill="white"/>
<path d="M142.55 116.841L143.677 118.031L138.013 123.386L136.886 122.196L142.55 116.841Z" fill="white"/>
<path d="M144.263 119.292C144.636 118.935 145.207 118.959 145.628 119.404C146.048 119.848 146.056 120.403 145.683 120.752C145.287 121.125 144.715 121.101 144.295 120.665C143.882 120.221 143.89 119.649 144.263 119.292ZM143.169 120.609L144.295 121.799L140.194 125.678L139.067 124.488L143.169 120.609Z" fill="white"/>
<path d="M147.008 128.201L144.668 130.414L143.613 129.296L144.12 128.812C143.541 128.947 142.938 128.701 142.367 128.106C141.455 127.146 141.455 126.067 142.161 125.393C142.883 124.711 143.874 124.742 145.056 125.996L145.953 126.94C146.46 126.456 146.468 125.869 145.866 125.226C145.453 124.79 144.882 124.481 144.366 124.401L144.795 123.188C145.54 123.338 146.341 123.83 146.96 124.488C148.142 125.75 148.245 127.027 147.008 128.201ZM144.834 127.995L145.255 127.598L144.485 126.781C143.962 126.226 143.589 126.242 143.311 126.503C143.01 126.781 143.057 127.225 143.454 127.646C143.819 128.042 144.327 128.217 144.834 127.995Z" fill="white"/>
<path d="M154.583 136.197L152.235 138.418L151.109 137.228L153.275 135.182C153.941 134.555 153.965 133.968 153.505 133.484C152.997 132.952 152.299 132.897 151.569 133.595L149.507 135.546L148.38 134.357L150.546 132.31C151.212 131.683 151.244 131.112 150.776 130.612C150.276 130.089 149.578 130.033 148.848 130.731L146.786 132.683L145.659 131.493L149.76 127.614L150.839 128.748L150.363 129.192C151.006 129.169 151.617 129.454 152.116 129.978C152.656 130.549 152.902 131.247 152.719 131.961C153.449 131.889 154.203 132.191 154.79 132.81C155.734 133.777 155.837 135.015 154.583 136.197Z" fill="white"/>
<path d="M153.243 138.727L154.473 138.315C154.584 138.902 154.949 139.616 155.425 140.116C155.94 140.663 156.281 140.734 156.511 140.52C157.186 139.886 154.147 138.053 155.79 136.506C156.567 135.769 157.781 135.951 158.915 137.149C159.447 137.712 159.907 138.466 160.049 139.068L158.828 139.473C158.677 138.854 158.368 138.378 158.019 137.998C157.511 137.466 157.13 137.395 156.916 137.593C156.21 138.259 159.24 140.092 157.622 141.623C156.86 142.345 155.647 142.146 154.489 140.917C153.822 140.227 153.346 139.346 153.243 138.727Z" fill="white"/>
<path d="M200.641 184.602C202.402 182.936 204.329 182.968 205.567 184.277C206.812 185.593 206.733 187.513 204.972 189.179C203.211 190.845 201.291 190.821 200.046 189.504C198.8 188.187 198.88 186.268 200.641 184.602ZM203.79 187.934C205.004 186.783 205.107 185.887 204.52 185.268C203.941 184.657 203.036 184.705 201.823 185.855C200.609 187.006 200.514 187.91 201.085 188.513C201.672 189.131 202.576 189.076 203.79 187.934Z" fill="white"/>
<path d="M208.716 195.113C207.621 196.144 206.098 195.898 205.028 194.772C203.639 193.296 203.695 191.511 205.416 189.877C207.265 188.132 209.343 188.275 210.866 189.885C211.397 190.448 211.794 191.123 211.905 191.718L210.565 192.122C210.477 191.638 210.223 191.226 209.89 190.869C209.049 189.972 207.978 189.901 206.923 190.829C207.534 190.845 208.121 191.147 208.645 191.702C209.621 192.733 209.724 194.161 208.716 195.113ZM207.526 193.978C208.018 193.518 207.986 192.86 207.471 192.313C206.955 191.773 206.265 191.71 205.797 192.146C205.337 192.582 205.329 193.241 205.892 193.836C206.384 194.359 207.034 194.439 207.526 193.978Z" fill="white"/>
<path d="M215.808 193.13L216.808 194.193L207.241 198.468L206.241 197.405L215.808 193.13Z" fill="white"/>
<path d="M215.134 203.26L214.126 204.212L210.311 200.174L211.112 199.42L215.007 199.642C215.903 199.69 216.26 199.516 216.514 199.27C216.934 198.873 216.903 198.349 216.371 197.786C215.935 197.326 215.395 197.104 214.792 197.183L214.523 195.732C215.514 195.573 216.609 195.954 217.521 196.914C218.648 198.104 218.791 199.476 217.815 200.388C217.299 200.88 216.688 201.181 215.284 201.086L212.96 200.951L215.134 203.26Z" fill="white"/>
<path d="M220.275 208.471L219.45 207.599L218.331 208.662L217.189 207.456L218.307 206.393L215.586 203.513L216.419 202.728L222.186 202.046L223.416 203.347L217.998 204.045L219.354 205.481L220.354 204.537L221.457 205.703L220.457 206.647L221.282 207.519L220.275 208.471Z" fill="white"/>
<path d="M245.333 142.4C248.34 137.768 247.158 131.612 243.12 127.852C241.859 126.678 240.415 125.718 238.908 125.083C235.045 123.473 229.92 124.647 227.897 128.312C226.239 131.303 226.914 135.039 228.072 138.252C229.286 141.623 231.253 145.066 234.592 146.375C237.805 147.636 241.66 146.478 244.064 144.003C244.54 143.511 244.96 142.972 245.333 142.4Z" fill="#CD9E64"/>
<path d="M332.743 158.147V297.785C332.743 305.424 326.547 311.62 318.908 311.62H116.046C108.407 311.62 102.212 305.424 102.212 297.785V158.147C102.212 150.508 108.407 144.312 116.046 144.312H318.908C326.547 144.312 332.743 150.5 332.743 158.147Z" fill="#CD9E64"/>
<path d="M332.743 158.147C332.743 158.147 332.727 157.98 332.703 157.647C332.671 157.314 332.687 156.814 332.56 156.164C332.378 154.871 331.91 152.919 330.53 150.746C329.831 149.675 328.919 148.548 327.698 147.541C326.476 146.541 324.961 145.645 323.184 145.066C322.74 144.915 322.272 144.82 321.804 144.693C321.328 144.598 320.836 144.542 320.336 144.455C319.836 144.431 319.321 144.407 318.805 144.384C318.282 144.384 317.75 144.384 317.211 144.384C315.045 144.384 312.745 144.392 310.301 144.392C290.763 144.407 262.507 144.431 227.588 144.455C210.128 144.463 191.002 144.471 170.473 144.479C160.208 144.479 149.586 144.487 138.655 144.487C133.189 144.487 127.636 144.487 122.012 144.495C120.608 144.495 119.196 144.495 117.776 144.495C116.356 144.511 114.944 144.447 113.564 144.733C112.183 145.002 110.835 145.455 109.589 146.121C108.352 146.803 107.21 147.676 106.218 148.691C105.211 149.699 104.417 150.912 103.783 152.189C103.156 153.474 102.712 154.863 102.545 156.291C102.355 157.711 102.418 159.178 102.402 160.654C102.402 162.121 102.402 163.597 102.402 165.072C102.402 170.982 102.402 176.963 102.402 183C102.402 195.081 102.402 207.424 102.41 219.982C102.41 245.104 102.41 271.116 102.418 297.753C102.426 301.038 103.64 304.29 105.798 306.741C107.932 309.208 110.978 310.858 114.198 311.263C115.793 311.469 117.451 311.382 119.093 311.406C120.735 311.406 122.369 311.406 124.003 311.406C127.271 311.406 130.524 311.406 133.768 311.406C146.746 311.406 159.533 311.406 172.099 311.406C197.229 311.413 221.464 311.413 244.556 311.421C267.647 311.429 289.581 311.437 310.119 311.437C312.689 311.437 315.227 311.437 317.75 311.437C319.019 311.445 320.249 311.421 321.47 311.191C322.676 310.938 323.866 310.589 324.953 310.017C325.516 309.779 326.016 309.414 326.539 309.113C327.015 308.74 327.539 308.415 327.967 307.987C328.895 307.201 329.649 306.249 330.331 305.266C331.632 303.251 332.433 300.927 332.537 298.571C332.624 289.059 332.568 279.897 332.592 271.171C332.616 236.252 332.64 207.996 332.656 188.465C332.671 178.7 332.687 171.125 332.695 165.976C332.703 163.406 332.711 161.447 332.719 160.13C332.727 158.821 332.743 158.147 332.743 158.147C332.743 158.147 332.759 158.821 332.767 160.138C332.775 161.463 332.775 163.422 332.79 165.984C332.798 171.133 332.814 178.708 332.83 188.473C332.846 208.003 332.87 236.26 332.893 271.179C332.878 279.913 332.941 289.051 332.87 298.594C332.767 301.006 331.95 303.386 330.617 305.448C329.919 306.456 329.149 307.431 328.197 308.24C327.753 308.677 327.222 309.01 326.73 309.399C326.19 309.708 325.683 310.081 325.104 310.327C323.993 310.914 322.771 311.271 321.534 311.532C320.289 311.77 319.003 311.794 317.75 311.786C315.227 311.786 312.681 311.786 310.119 311.786C289.589 311.794 267.647 311.802 244.556 311.802C221.464 311.802 197.229 311.81 172.099 311.818C159.533 311.818 146.746 311.818 133.768 311.818C130.524 311.818 127.271 311.818 124.003 311.818C122.369 311.818 120.735 311.818 119.093 311.818C117.459 311.802 115.809 311.889 114.143 311.675C110.827 311.255 107.686 309.557 105.488 307.019C103.267 304.496 102.006 301.149 102.006 297.761C102.006 271.124 102.006 245.112 102.014 219.99C102.014 207.432 102.014 195.089 102.022 183.008C102.022 176.963 102.022 170.99 102.022 165.08C102.022 163.604 102.022 162.129 102.022 160.661C102.03 159.194 101.966 157.726 102.165 156.251C102.339 154.783 102.799 153.355 103.442 152.031C104.092 150.714 104.909 149.476 105.948 148.437C106.972 147.39 108.138 146.502 109.415 145.796C110.7 145.113 112.088 144.645 113.5 144.368L114.571 144.201L115.65 144.146C116.372 144.106 117.07 144.138 117.784 144.13C119.196 144.13 120.608 144.13 122.02 144.13C127.644 144.13 133.189 144.13 138.663 144.138C149.602 144.138 160.216 144.146 170.48 144.146C191.01 144.154 210.136 144.162 227.596 144.169C262.515 144.201 290.771 144.217 310.309 144.233C312.753 144.233 315.053 144.241 317.219 144.241C317.758 144.241 318.289 144.241 318.813 144.241C319.337 144.265 319.852 144.296 320.36 144.32C320.86 144.4 321.359 144.463 321.835 144.558C322.311 144.693 322.779 144.78 323.224 144.939C325.016 145.534 326.539 146.438 327.769 147.454C328.991 148.477 329.903 149.619 330.601 150.698C331.973 152.895 332.433 154.863 332.6 156.156C332.719 156.806 332.695 157.306 332.719 157.639C332.743 157.972 332.743 158.147 332.743 158.147Z" fill="#263238"/>
<path d="M324.667 154.625C324.667 154.514 325.73 154.418 327.047 154.418C328.364 154.418 329.427 154.514 329.427 154.625C329.427 154.736 328.364 154.831 327.047 154.831C325.73 154.831 324.667 154.736 324.667 154.625Z" fill="#263238"/>
<path d="M305.248 154.625C305.248 154.514 307.422 154.418 310.103 154.418C312.784 154.418 314.958 154.514 314.958 154.625C314.958 154.736 312.784 154.831 310.103 154.831C307.422 154.831 305.248 154.736 305.248 154.625Z" fill="#263238"/>
<path d="M285.837 154.625C285.837 154.514 288.01 154.418 290.692 154.418C293.373 154.418 295.546 154.514 295.546 154.625C295.546 154.736 293.373 154.831 290.692 154.831C288.01 154.831 285.837 154.736 285.837 154.625Z" fill="#263238"/>
<path d="M266.417 154.625C266.417 154.514 268.591 154.418 271.272 154.418C273.953 154.418 276.127 154.514 276.127 154.625C276.127 154.736 273.953 154.831 271.272 154.831C268.591 154.831 266.417 154.736 266.417 154.625Z" fill="#263238"/>
<path d="M247.006 154.625C247.006 154.514 249.18 154.418 251.861 154.418C254.542 154.418 256.716 154.514 256.716 154.625C256.716 154.736 254.542 154.831 251.861 154.831C249.18 154.831 247.006 154.736 247.006 154.625Z" fill="#263238"/>
<path d="M227.587 154.625C227.587 154.514 229.76 154.418 232.442 154.418C235.123 154.418 237.296 154.514 237.296 154.625C237.296 154.736 235.123 154.831 232.442 154.831C229.76 154.831 227.587 154.736 227.587 154.625Z" fill="#263238"/>
<path d="M208.176 154.625C208.176 154.514 210.349 154.418 213.031 154.418C215.712 154.418 217.885 154.514 217.885 154.625C217.885 154.736 215.712 154.831 213.031 154.831C210.349 154.831 208.176 154.736 208.176 154.625Z" fill="#263238"/>
<path d="M188.757 154.625C188.757 154.514 190.931 154.418 193.612 154.418C196.293 154.418 198.467 154.514 198.467 154.625C198.467 154.736 196.293 154.831 193.612 154.831C190.931 154.831 188.757 154.736 188.757 154.625Z" fill="#263238"/>
<path d="M169.345 154.625C169.345 154.514 171.519 154.418 174.2 154.418C176.881 154.418 179.055 154.514 179.055 154.625C179.055 154.736 176.881 154.831 174.2 154.831C171.519 154.831 169.345 154.736 169.345 154.625Z" fill="#263238"/>
<path d="M149.927 154.625C149.927 154.514 152.1 154.418 154.782 154.418C157.463 154.418 159.636 154.514 159.636 154.625C159.636 154.736 157.463 154.831 154.782 154.831C152.1 154.831 149.927 154.736 149.927 154.625Z" fill="#263238"/>
<path d="M130.516 154.625C130.516 154.514 132.689 154.418 135.37 154.418C138.052 154.418 140.225 154.514 140.225 154.625C140.225 154.736 138.052 154.831 135.37 154.831C132.689 154.831 130.516 154.736 130.516 154.625Z" fill="#263238"/>
<path d="M116.046 159.384C115.935 159.384 115.84 157.25 115.84 154.625C116.252 154.212 115.959 154.514 116.046 154.418H116.054H116.07H116.102H116.165H116.284H116.522C116.681 154.418 116.839 154.418 116.998 154.418C117.299 154.426 117.601 154.426 117.894 154.434C118.418 154.45 118.918 154.466 119.41 154.482C120.274 154.521 120.806 154.569 120.806 154.625C120.806 154.68 120.274 154.736 119.41 154.767C118.918 154.783 118.418 154.799 117.894 154.815C117.601 154.823 117.307 154.823 116.998 154.831C116.839 154.831 116.681 154.831 116.522 154.831H116.284H116.165H116.102H116.07H116.054H116.046C116.141 154.736 115.84 155.037 116.252 154.625C116.252 157.25 116.157 159.384 116.046 159.384Z" fill="#263238"/>
<path d="M116.047 177.177C115.936 177.177 115.84 175.186 115.84 172.727C115.84 170.268 115.936 168.277 116.047 168.277C116.158 168.277 116.253 170.268 116.253 172.727C116.253 175.186 116.158 177.177 116.047 177.177Z" fill="#263238"/>
<path d="M116.047 194.97C115.936 194.97 115.84 192.979 115.84 190.52C115.84 188.061 115.936 186.07 116.047 186.07C116.158 186.07 116.253 188.061 116.253 190.52C116.253 192.979 116.158 194.97 116.047 194.97Z" fill="#263238"/>
<path d="M116.047 212.763C115.936 212.763 115.84 210.772 115.84 208.313C115.84 205.854 115.936 203.863 116.047 203.863C116.158 203.863 116.253 205.854 116.253 208.313C116.253 210.764 116.158 212.763 116.047 212.763Z" fill="#263238"/>
<path d="M116.047 230.548C115.936 230.548 115.84 228.557 115.84 226.098C115.84 223.639 115.936 221.647 116.047 221.647C116.158 221.647 116.253 223.639 116.253 226.098C116.253 228.557 116.158 230.548 116.047 230.548Z" fill="#263238"/>
<path d="M116.047 248.341C115.936 248.341 115.84 246.35 115.84 243.891C115.84 241.432 115.936 239.44 116.047 239.44C116.158 239.44 116.253 241.432 116.253 243.891C116.253 246.35 116.158 248.341 116.047 248.341Z" fill="#263238"/>
<path d="M116.047 266.134C115.936 266.134 115.84 264.143 115.84 261.684C115.84 259.224 115.936 257.233 116.047 257.233C116.158 257.233 116.253 259.224 116.253 261.684C116.253 264.143 116.158 266.134 116.047 266.134Z" fill="#263238"/>
<path d="M116.047 283.927C115.936 283.927 115.84 281.936 115.84 279.477C115.84 277.017 115.936 275.026 116.047 275.026C116.158 275.026 116.253 277.017 116.253 279.477C116.253 281.936 116.158 283.927 116.047 283.927Z" fill="#263238"/>
<path d="M120.806 297.579C120.806 297.69 118.672 297.785 116.046 297.785C115.634 297.373 115.935 297.666 115.84 297.579V297.571V297.555V297.523V297.46V297.341V297.103C115.84 296.944 115.84 296.786 115.84 296.627C115.848 296.326 115.848 296.024 115.856 295.731C115.872 295.207 115.888 294.707 115.903 294.215C115.943 293.351 115.991 292.819 116.046 292.819C116.102 292.819 116.157 293.351 116.189 294.215C116.205 294.707 116.221 295.207 116.237 295.731C116.245 296.024 116.245 296.318 116.252 296.627C116.252 296.786 116.252 296.936 116.252 297.103V297.341V297.46V297.523V297.555V297.571V297.579C116.157 297.484 116.459 297.785 116.046 297.373C118.672 297.373 120.806 297.468 120.806 297.579Z" fill="#263238"/>
<path d="M139.939 297.579C139.939 297.69 137.798 297.785 135.156 297.785C132.514 297.785 130.373 297.69 130.373 297.579C130.373 297.468 132.514 297.373 135.156 297.373C137.798 297.373 139.939 297.468 139.939 297.579Z" fill="#263238"/>
<path d="M159.073 297.579C159.073 297.69 156.931 297.785 154.289 297.785C151.648 297.785 149.506 297.69 149.506 297.579C149.506 297.468 151.648 297.373 154.289 297.373C156.931 297.373 159.073 297.468 159.073 297.579Z" fill="#263238"/>
<path d="M178.206 297.579C178.206 297.69 176.065 297.785 173.423 297.785C170.781 297.785 168.64 297.69 168.64 297.579C168.64 297.468 170.781 297.373 173.423 297.373C176.065 297.373 178.206 297.468 178.206 297.579Z" fill="#263238"/>
<path d="M197.34 297.579C197.34 297.69 195.198 297.785 192.557 297.785C189.915 297.785 187.773 297.69 187.773 297.579C187.773 297.468 189.915 297.373 192.557 297.373C195.198 297.373 197.34 297.468 197.34 297.579Z" fill="#263238"/>
<path d="M216.474 297.579C216.474 297.69 214.332 297.785 211.691 297.785C209.049 297.785 206.907 297.69 206.907 297.579C206.907 297.468 209.049 297.373 211.691 297.373C214.332 297.373 216.474 297.468 216.474 297.579Z" fill="#263238"/>
<path d="M235.607 297.579C235.607 297.69 233.465 297.785 230.824 297.785C228.182 297.785 226.041 297.69 226.041 297.579C226.041 297.468 228.182 297.373 230.824 297.373C233.465 297.373 235.607 297.468 235.607 297.579Z" fill="#263238"/>
<path d="M254.74 297.579C254.74 297.69 252.598 297.785 249.957 297.785C247.315 297.785 245.173 297.69 245.173 297.579C245.173 297.468 247.315 297.373 249.957 297.373C252.598 297.373 254.74 297.468 254.74 297.579Z" fill="#263238"/>
<path d="M273.882 297.579C273.882 297.69 271.74 297.785 269.099 297.785C266.457 297.785 264.315 297.69 264.315 297.579C264.315 297.468 266.457 297.373 269.099 297.373C271.74 297.373 273.882 297.468 273.882 297.579Z" fill="#263238"/>
<path d="M293.016 297.579C293.016 297.69 290.874 297.785 288.232 297.785C285.591 297.785 283.449 297.69 283.449 297.579C283.449 297.468 285.591 297.373 288.232 297.373C290.874 297.373 293.016 297.468 293.016 297.579Z" fill="#263238"/>
<path d="M312.149 297.579C312.149 297.69 310.007 297.785 307.365 297.785C304.724 297.785 302.582 297.69 302.582 297.579C302.582 297.468 304.724 297.373 307.365 297.373C310.007 297.373 312.149 297.468 312.149 297.579Z" fill="#263238"/>
<path d="M326.475 297.579C326.475 297.69 325.412 297.785 324.096 297.785C322.779 297.785 321.716 297.69 321.716 297.579C321.716 297.468 322.779 297.373 324.096 297.373C325.405 297.373 326.475 297.468 326.475 297.579Z" fill="#263238"/>
<g opacity="0.3">
<path opacity="0.3" d="M181.76 237.101C181.76 237.101 181.808 245.033 179.412 249.832C177.017 254.632 176.208 256.472 171.17 258.32C166.133 260.169 102.22 267.173 102.22 267.173V245.589L181.76 237.101Z" fill="black"/>
</g>
<g opacity="0.3">
<path opacity="0.3" d="M180.618 207.194C180.618 207.194 181.348 199.103 161.032 196.097C137.798 192.654 102.22 188.434 102.22 188.434V203.752L180.618 207.194Z" fill="black"/>
</g>
<path d="M104.321 252.141H170.4C176.675 252.141 181.752 247.056 181.752 240.789V211.208C181.752 204.934 176.667 199.857 170.4 199.857H104.321C98.0466 199.857 92.9697 204.942 92.9697 211.208V240.789C92.9697 247.056 98.0546 252.141 104.321 252.141Z" fill="#8F7A61"/>
<path d="M104.322 252.141C104.322 252.141 104.092 252.141 103.64 252.125C103.188 252.125 102.521 252.046 101.664 251.855C100.808 251.681 99.7765 251.3 98.6501 250.681C97.5316 250.055 96.3337 249.118 95.3025 247.802C94.2871 246.485 93.3828 244.787 93.0496 242.772C92.8434 241.773 92.8672 240.694 92.8592 239.607C92.8592 238.513 92.8513 237.37 92.8513 236.188C92.8434 231.468 92.8354 226.09 92.8196 220.156C92.8275 217.182 92.7878 214.08 92.8275 210.828C92.9148 207.551 94.5172 204.148 97.3809 202.022C98.7929 200.959 100.475 200.174 102.283 199.873C103.18 199.706 104.124 199.674 105.028 199.682C105.948 199.682 106.868 199.682 107.796 199.682C111.517 199.682 115.348 199.674 119.275 199.674C134.99 199.666 152.259 199.666 170.385 199.658C171.535 199.682 172.685 199.841 173.788 200.166C174.883 200.515 175.922 201.015 176.874 201.642C177.81 202.292 178.651 203.069 179.373 203.942C180.087 204.823 180.65 205.814 181.094 206.845C181.522 207.885 181.768 208.987 181.903 210.098C181.983 211.216 181.951 212.303 181.959 213.39C181.959 215.563 181.959 217.721 181.959 219.855C181.959 224.131 181.959 228.327 181.951 232.444C181.951 234.499 181.951 236.537 181.951 238.544C181.935 239.552 181.99 240.535 181.911 241.559C181.911 242.066 181.792 242.558 181.729 243.058C181.61 243.542 181.507 244.042 181.332 244.51C180.071 248.325 176.755 251.197 173.066 252.022C172.614 252.157 172.138 252.18 171.678 252.268C171.21 252.307 170.742 252.323 170.282 252.339C169.362 252.339 168.457 252.339 167.553 252.339C165.744 252.339 163.967 252.339 162.222 252.331C155.234 252.323 148.729 252.315 142.787 252.307C130.912 252.284 121.298 252.26 114.642 252.244C111.326 252.228 108.748 252.212 106.987 252.204C106.123 252.196 105.456 252.188 104.996 252.181C104.552 252.157 104.322 252.141 104.322 252.141C104.322 252.141 104.552 252.125 104.996 252.117C105.456 252.109 106.123 252.109 106.987 252.093C108.748 252.085 111.326 252.069 114.642 252.054C121.298 252.038 130.912 252.014 142.787 251.99C148.729 251.982 155.234 251.974 162.222 251.966C163.967 251.966 165.744 251.966 167.553 251.958C169.362 251.911 171.21 252.109 172.987 251.641C176.557 250.832 179.761 248.048 180.975 244.359C181.665 242.526 181.57 240.535 181.57 238.52C181.57 236.506 181.57 234.475 181.57 232.42C181.57 228.311 181.57 224.107 181.562 219.831C181.562 217.697 181.562 215.54 181.562 213.366C181.554 212.279 181.586 211.177 181.507 210.114C181.38 209.043 181.142 207.988 180.729 206.98C180.301 205.989 179.761 205.037 179.071 204.18C178.373 203.339 177.564 202.594 176.66 201.967C175.74 201.364 174.74 200.88 173.685 200.547C172.622 200.23 171.519 200.079 170.401 200.055C152.275 200.047 134.997 200.047 119.291 200.039C115.364 200.039 111.533 200.031 107.812 200.031C106.884 200.031 105.956 200.031 105.044 200.031C104.124 200.023 103.235 200.055 102.355 200.214C100.602 200.499 98.9674 201.261 97.595 202.292C94.8107 204.347 93.24 207.647 93.1527 210.836C93.1131 214.064 93.1369 217.19 93.121 220.156C93.1131 226.098 93.0972 231.468 93.0893 236.188C93.0893 237.37 93.0814 238.505 93.0814 239.607C93.0893 240.702 93.0576 241.757 93.2559 242.741C93.5732 244.724 94.4537 246.406 95.4453 247.706C96.4527 249.015 97.6268 249.943 98.7215 250.578C99.832 251.197 100.847 251.593 101.696 251.776C102.545 251.974 103.203 252.069 103.656 252.085C104.092 252.117 104.322 252.141 104.322 252.141Z" fill="#263238"/>
<path d="M155.011 246.969C165.508 246.969 174.018 238.459 174.018 227.962C174.018 217.465 165.508 208.956 155.011 208.956C144.514 208.956 136.004 217.465 136.004 227.962C136.004 238.459 144.514 246.969 155.011 246.969Z" fill="#263238"/>
<path d="M159.89 243.494C159.842 243.391 161.849 242.987 164.419 241.122C165.696 240.202 167.076 238.877 168.258 237.156C169.44 235.443 170.392 233.301 170.781 230.929C171.138 228.549 170.9 226.225 170.313 224.226C169.726 222.227 168.822 220.545 167.894 219.268C166.021 216.69 164.245 215.69 164.324 215.603C164.332 215.595 164.443 215.651 164.633 215.778C164.824 215.912 165.133 216.087 165.474 216.373C166.188 216.912 167.148 217.808 168.124 219.085C169.099 220.363 170.051 222.068 170.678 224.107C171.305 226.146 171.566 228.533 171.194 230.984C170.789 233.428 169.797 235.617 168.576 237.362C167.346 239.107 165.918 240.44 164.594 241.344C163.269 242.257 162.079 242.812 161.23 243.106C160.818 243.272 160.469 243.344 160.246 243.407C160.009 243.478 159.89 243.502 159.89 243.494Z" fill="#FAFAFA"/>
<path d="M452.565 106.133C454.287 125.401 440.024 142.424 420.716 144.154C401.4 145.883 384.345 131.66 382.623 112.391C380.902 93.123 395.157 76.0995 414.473 74.3702C433.789 72.6488 450.844 86.8641 452.565 106.133Z" fill="#CD9E64"/>
<g opacity="0.3">
<path opacity="0.3" d="M444.165 106.045C444.006 106.069 443.784 104.903 443.173 102.904C442.554 100.913 441.484 98.0492 439.366 95.011C438.31 93.4958 437.002 91.949 435.407 90.4814C433.797 89.0377 431.925 87.6574 429.767 86.5468C428.688 85.9916 427.554 85.4759 426.356 85.0714C425.158 84.6509 423.913 84.294 422.62 84.056C421.327 83.818 419.994 83.6435 418.637 83.6038C417.281 83.5642 415.901 83.6197 414.513 83.7783C413.124 83.9529 411.776 84.2305 410.467 84.5954C409.158 84.9603 407.905 85.4442 406.707 85.9836C405.501 86.523 404.383 87.1735 403.32 87.8637C402.257 88.5459 401.273 89.3153 400.361 90.1165C398.536 91.711 397.037 93.4958 395.823 95.2807C394.625 97.0814 393.721 98.898 393.055 100.627C391.73 104.086 391.373 107.116 391.246 109.202C391.135 111.297 391.198 112.471 391.032 112.487C390.913 112.502 390.58 111.352 390.445 109.202C390.326 107.061 390.461 103.864 391.682 100.151C392.293 98.303 393.174 96.3278 394.387 94.3764C395.617 92.4329 397.164 90.4814 399.091 88.7283C400.051 87.8478 401.09 87.0069 402.225 86.2533C403.359 85.4918 404.557 84.7858 405.85 84.1829C407.135 83.588 408.484 83.0485 409.896 82.6519C411.308 82.2473 412.767 81.9459 414.259 81.7555C415.758 81.581 417.241 81.5255 418.709 81.581C420.176 81.6286 421.612 81.8269 423.008 82.1046C424.405 82.3743 425.745 82.7788 427.022 83.2469C428.307 83.707 429.521 84.2781 430.655 84.9048C432.94 86.1423 434.915 87.6653 436.573 89.2677C438.223 90.8781 439.54 92.5836 440.579 94.2336C442.65 97.5494 443.546 100.619 443.943 102.729C444.331 104.84 444.284 106.029 444.165 106.045Z" fill="black"/>
</g>
<path d="M390.944 111.717C390.952 111.717 390.968 111.789 391 111.931C391.032 112.098 391.063 112.304 391.111 112.558C391.159 112.844 391.214 113.185 391.278 113.574C391.341 113.978 391.397 114.446 391.555 114.954C392.007 117.016 392.975 119.967 394.958 123.188C395.926 124.814 397.251 126.417 398.782 128.011C399.194 128.384 399.607 128.765 400.035 129.145C400.249 129.336 400.456 129.542 400.686 129.716C400.916 129.891 401.154 130.066 401.392 130.24C401.868 130.589 402.328 130.97 402.843 131.295C403.359 131.612 403.891 131.93 404.422 132.255C406.603 133.445 409.031 134.5 411.68 135.071C414.33 135.642 417.154 135.856 420.018 135.626C422.881 135.325 425.618 134.603 428.117 133.556C430.624 132.509 432.813 131.025 434.741 129.463C435.209 129.05 435.661 128.638 436.113 128.233C436.557 127.821 436.938 127.353 437.35 126.924C437.549 126.71 437.747 126.488 437.945 126.282C438.136 126.06 438.302 125.822 438.477 125.599C438.826 125.147 439.167 124.695 439.5 124.251C440.714 122.395 441.729 120.578 442.38 118.809C443.744 115.287 444.157 112.201 444.228 110.091C444.284 109.56 444.252 109.092 444.244 108.687C444.236 108.29 444.228 107.941 444.22 107.656C444.22 107.394 444.212 107.188 444.212 107.021C444.212 106.878 444.22 106.807 444.228 106.799C444.236 106.799 444.244 106.87 444.26 107.013C444.276 107.18 444.284 107.386 444.307 107.648C444.323 107.941 444.347 108.282 444.371 108.679C444.395 109.092 444.434 109.56 444.395 110.091C444.371 112.217 444.006 115.327 442.657 118.904C442.015 120.705 441.007 122.553 439.786 124.433C439.445 124.886 439.104 125.338 438.754 125.806C438.58 126.036 438.413 126.282 438.215 126.504C438.017 126.718 437.818 126.94 437.612 127.162C437.2 127.598 436.811 128.066 436.367 128.495C435.907 128.907 435.447 129.328 434.979 129.748C433.027 131.351 430.814 132.858 428.268 133.929C425.729 135 422.953 135.729 420.041 136.039C417.13 136.269 414.258 136.055 411.577 135.468C408.88 134.881 406.421 133.802 404.216 132.588C403.676 132.255 403.145 131.93 402.621 131.604C402.106 131.271 401.638 130.875 401.154 130.526C400.916 130.343 400.678 130.169 400.44 129.986C400.21 129.804 400.003 129.59 399.789 129.399C399.361 129.003 398.941 128.622 398.528 128.241C396.989 126.607 395.656 124.981 394.697 123.331C392.721 120.055 391.793 117.064 391.381 114.978C391.238 114.462 391.198 113.994 391.143 113.581C391.095 113.185 391.048 112.844 391.016 112.55C390.984 112.288 390.96 112.082 390.944 111.916C390.944 111.789 390.937 111.717 390.944 111.717Z" fill="#263238"/>
<path d="M403.082 209.669C398.203 219.799 386.019 224.043 375.865 219.149C365.711 214.255 361.443 202.086 366.322 191.956C371.201 181.826 383.385 177.582 393.539 182.476C403.693 187.363 407.969 199.539 403.082 209.669Z" fill="#CD9E64"/>
<g opacity="0.3">
<path opacity="0.3" d="M398.917 207.123C398.83 207.083 399.068 206.441 399.362 205.259C399.647 204.085 399.965 202.332 399.814 200.19C399.735 199.119 399.544 197.953 399.187 196.755C398.814 195.557 398.291 194.312 397.545 193.114C397.172 192.511 396.76 191.924 396.284 191.361C395.808 190.798 395.3 190.242 394.721 189.743C394.15 189.235 393.539 188.751 392.873 188.331C392.206 187.902 391.5 187.522 390.763 187.188C390.017 186.863 389.263 186.601 388.502 186.387C387.74 186.181 386.971 186.046 386.209 185.959C385.448 185.872 384.694 185.856 383.956 185.887C383.219 185.911 382.505 185.998 381.807 186.125C380.418 186.379 379.141 186.823 378.007 187.347C376.873 187.886 375.881 188.529 375.032 189.187C373.343 190.52 372.264 191.924 371.582 192.924C370.899 193.931 370.582 194.542 370.495 194.502C370.431 194.478 370.606 193.804 371.185 192.686C371.764 191.583 372.787 190.028 374.501 188.537C375.357 187.799 376.381 187.077 377.571 186.459C378.761 185.856 380.117 185.34 381.6 185.039C382.338 184.888 383.108 184.777 383.901 184.737C384.694 184.698 385.503 184.698 386.328 184.785C387.145 184.872 387.978 185.007 388.803 185.229C389.628 185.451 390.445 185.737 391.247 186.086C392.048 186.443 392.801 186.863 393.515 187.323C394.229 187.783 394.888 188.315 395.506 188.862C396.125 189.41 396.672 190.012 397.172 190.623C397.672 191.234 398.108 191.885 398.497 192.535C399.266 193.836 399.798 195.184 400.147 196.47C400.488 197.763 400.639 199.008 400.663 200.142C400.71 202.411 400.242 204.212 399.814 205.386C399.362 206.568 398.981 207.147 398.917 207.123Z" fill="black"/>
</g>
<path d="M370.685 194.098C370.724 194.114 370.439 194.74 370.05 195.906C369.677 197.072 369.288 198.826 369.328 201.015C369.328 202.11 369.519 203.3 369.812 204.545C370.169 205.775 370.629 207.076 371.351 208.321C372.081 209.558 372.977 210.796 374.119 211.867C375.262 212.938 376.602 213.874 378.094 214.612C379.601 215.31 381.172 215.762 382.726 215.984C384.281 216.206 385.804 216.127 387.232 215.92C388.66 215.706 389.961 215.246 391.143 214.754C392.301 214.199 393.34 213.596 394.197 212.914C395.926 211.573 397.053 210.169 397.727 209.146C398.393 208.115 398.695 207.504 398.734 207.52C398.75 207.528 398.679 207.678 398.536 207.972C398.378 208.257 398.203 208.71 397.862 209.225C397.227 210.288 396.117 211.74 394.379 213.136C393.523 213.85 392.468 214.477 391.294 215.056C390.088 215.579 388.763 216.055 387.304 216.285C385.844 216.507 384.281 216.603 382.687 216.373C381.092 216.15 379.482 215.682 377.927 214.969C376.396 214.215 375.024 213.247 373.85 212.144C372.676 211.042 371.763 209.765 371.026 208.488C370.288 207.202 369.828 205.87 369.479 204.608C369.193 203.331 369.027 202.11 369.043 200.999C369.043 198.77 369.479 196.993 369.907 195.835C370.098 195.248 370.336 194.82 370.463 194.518C370.589 194.24 370.669 194.09 370.685 194.098Z" fill="#263238"/>
<path opacity="0.2" d="M420.628 123.261L421.112 127.894L416.971 128.322L416.503 123.808C412.378 123.983 408.316 123.11 405.849 121.571L407.602 116.288C409.831 117.605 412.925 118.414 415.939 118.39L415.218 111.481C410.506 110.847 405.215 109.847 404.604 103.929C404.152 99.5425 406.944 95.4413 413.401 94.0214L412.925 89.4284L417.066 89L417.534 93.5137C420.667 93.4423 423.769 93.95 426.196 95.1637L424.657 100.471C422.42 99.487 420.199 99.011 418.097 98.9793L418.827 106.016C423.531 106.61 428.743 107.618 429.346 113.456C429.806 117.748 427.045 121.794 420.628 123.261ZM414.591 105.397L413.98 99.5187C411.838 100.241 411.093 101.534 411.235 102.898C411.386 104.35 412.711 105.008 414.591 105.397ZM422.746 114.63C422.595 113.179 421.31 112.52 419.47 112.084L420.064 117.796C422.087 117.121 422.889 115.955 422.746 114.63Z" fill="black"/>
<path opacity="0.2" d="M380.87 208.299L379.727 210.758L377.538 209.743L378.649 207.355C376.538 206.213 374.769 204.57 374 203.063L376.451 200.945C377.173 202.27 378.474 203.595 379.981 204.475L381.679 200.81C379.521 199.089 377.173 197.019 378.633 193.877C379.712 191.553 382.329 190.339 385.978 191.553L387.113 189.118L389.31 190.133L388.199 192.521C389.786 193.417 391.182 194.599 392.031 195.924L389.683 198.113C388.858 196.955 387.89 196.059 386.859 195.416L385.13 199.145C387.303 200.842 389.596 202.897 388.16 205.99C387.089 208.275 384.503 209.481 380.87 208.299ZM383.178 197.582L384.622 194.464C383.337 194.187 382.583 194.607 382.242 195.337C381.885 196.106 382.353 196.828 383.178 197.582ZM384.495 204.618C384.852 203.849 384.408 203.135 383.622 202.373L382.218 205.403C383.416 205.665 384.17 205.324 384.495 204.618Z" fill="black"/>
<path d="M66.2618 206.75C68.9034 224.908 56.2825 241.773 38.0851 244.422C19.8876 247.064 2.99102 234.491 0.349447 216.333C-2.29212 198.175 10.3287 181.31 28.5262 178.661C46.7316 176.019 63.6203 188.592 66.2618 206.75Z" fill="#8F7A61"/>
<g opacity="0.3">
<path opacity="0.3" d="M58.297 207.107C58.1463 207.131 57.8766 206.044 57.1944 204.18C56.5042 202.331 55.3381 199.674 53.1804 196.906C52.1016 195.525 50.7769 194.129 49.1903 192.828C47.5959 191.543 45.7476 190.337 43.6454 189.401C42.5983 188.925 41.4957 188.505 40.3375 188.18C39.1793 187.846 37.9815 187.569 36.744 187.418C35.5065 187.259 34.2373 187.164 32.9522 187.196C31.6671 187.228 30.3582 187.355 29.0573 187.577C27.7563 187.815 26.4871 188.148 25.2655 188.56C24.0438 188.973 22.8857 189.496 21.7751 190.075C20.6645 190.647 19.6333 191.321 18.6655 192.027C17.6898 192.733 16.8013 193.51 15.9843 194.312C14.3343 195.914 13.0175 197.683 11.9624 199.436C10.9232 201.205 10.1617 202.974 9.62228 204.64C8.55137 207.987 8.36892 210.875 8.36099 212.85C8.36099 214.833 8.48791 215.952 8.32925 215.976C8.2182 215.999 7.83743 214.928 7.59945 212.89C7.37734 210.867 7.33767 207.837 8.29752 204.251C8.78141 202.466 9.50329 200.555 10.5583 198.635C11.6213 196.731 12.9857 194.803 14.715 193.042C15.5797 192.162 16.5158 191.313 17.5549 190.536C18.5862 189.758 19.6888 189.02 20.8787 188.386C22.0686 187.751 23.314 187.18 24.6308 186.72C25.9477 186.268 27.3121 185.903 28.7162 185.649C30.1282 185.411 31.5322 185.276 32.9205 185.252C34.3087 185.221 35.681 185.34 37.0137 185.522C38.3464 185.705 39.6394 186.014 40.8769 186.395C42.1144 186.768 43.2964 187.244 44.4069 187.775C46.636 188.83 48.5795 190.171 50.2374 191.599C51.8795 193.042 53.2201 194.581 54.291 196.088C56.4249 199.119 57.4323 201.982 57.9242 203.958C58.4001 205.949 58.416 207.091 58.297 207.107Z" fill="black"/>
</g>
<g opacity="0.3">
<g opacity="0.3">
<g opacity="0.3">
<g opacity="0.3">
<g opacity="0.3">
<path opacity="0.3" d="M38.3225 226.106L39.0206 230.469L35.1256 231.095L34.4434 226.851C30.5485 227.232 26.6536 226.621 24.242 225.289L25.6223 220.188C27.8038 221.322 30.7785 221.917 33.6264 221.743L32.5872 215.23C28.0894 214.873 23.0283 214.207 22.1399 208.63C21.4815 204.497 23.9089 200.475 29.9535 198.786L29.2634 194.462L33.1583 193.836L33.8405 198.088C36.7994 197.85 39.7742 198.175 42.1302 199.198L40.9482 204.307C38.7826 203.498 36.6487 203.157 34.6576 203.236L35.7206 209.86C40.2105 210.177 45.1922 210.859 46.0727 216.356C46.7232 220.41 44.3275 224.392 38.3225 226.106ZM31.667 209.503L30.7785 203.966C28.7874 204.767 28.1528 206.028 28.3591 207.313C28.5812 208.686 29.8663 209.233 31.667 209.503ZM39.8773 217.824C39.6552 216.46 38.4097 215.904 36.6408 215.579L37.5054 220.957C39.3775 220.228 40.0756 219.077 39.8773 217.824Z" fill="black"/>
</g>
</g>
</g>
</g>
</g>
<path d="M8.20268 215.254C8.21061 215.254 8.22648 215.317 8.26614 215.452C8.30581 215.611 8.34547 215.801 8.401 216.039C8.45653 216.309 8.52792 216.626 8.61518 216.999C8.70244 217.38 8.77383 217.816 8.94835 218.292C9.48777 220.22 10.5587 222.964 12.6053 225.907C13.6048 227.391 14.9454 228.843 16.4844 230.278C16.8889 230.612 17.3094 230.945 17.7298 231.286C17.944 231.452 18.1502 231.635 18.3723 231.793C18.6024 231.944 18.8324 232.103 19.0704 232.254C19.5384 232.555 19.9985 232.896 20.4983 233.182C21.006 233.451 21.5216 233.729 22.0372 234.007C24.1632 235.022 26.5112 235.895 29.0576 236.291C31.5961 236.696 34.2773 236.743 36.9823 236.379C39.6794 235.942 42.2337 235.117 44.5421 233.999C46.8585 232.872 48.8575 231.357 50.6027 229.779C51.0231 229.358 51.4356 228.946 51.8402 228.541C52.2368 228.129 52.5779 227.669 52.9428 227.24C53.1173 227.026 53.2998 226.812 53.4743 226.598C53.6409 226.383 53.7837 226.145 53.9423 225.923C54.2438 225.471 54.5452 225.027 54.8387 224.599C55.8938 222.782 56.7584 221.005 57.282 219.3C58.3925 215.889 58.6147 212.953 58.575 210.954C58.6067 210.455 58.5512 210.01 58.5195 209.622C58.4877 209.241 58.4639 208.924 58.4481 208.646C58.4322 208.4 58.4243 208.202 58.4084 208.043C58.4005 207.908 58.4005 207.837 58.4084 207.837C58.4163 207.837 58.4322 207.9 58.4481 208.035C58.4719 208.194 58.4957 208.392 58.5274 208.63C58.5591 208.908 58.5988 209.233 58.6385 209.606C58.6781 209.995 58.7495 210.439 58.7336 210.946C58.8209 212.961 58.6464 215.928 57.5517 219.387C57.0361 221.124 56.1793 222.925 55.1243 224.781C54.8308 225.225 54.5293 225.677 54.22 226.138C54.0613 226.368 53.9185 226.606 53.7519 226.828C53.5774 227.042 53.395 227.264 53.2205 227.486C52.8556 227.922 52.5145 228.39 52.1099 228.811C51.6974 229.223 51.2849 229.644 50.8565 230.072C49.0955 231.69 47.0727 233.237 44.7167 234.38C42.3686 235.522 39.7746 236.363 37.0379 236.807C34.2932 237.18 31.5643 237.124 28.9862 236.704C26.4002 236.283 24.0204 235.395 21.8627 234.356C21.3391 234.07 20.8156 233.785 20.3 233.507C19.7923 233.221 19.3322 232.872 18.8562 232.563C18.6182 232.404 18.3882 232.246 18.1582 232.087C17.9281 231.928 17.7219 231.738 17.5077 231.563C17.0793 231.214 16.6668 230.865 16.2543 230.532C14.7075 229.065 13.3668 227.589 12.3673 226.074C10.3207 223.076 9.28945 220.283 8.79763 218.332C8.63898 217.856 8.56758 217.404 8.49619 217.023C8.43272 216.65 8.36927 216.325 8.32167 216.055C8.28201 215.817 8.25028 215.619 8.22648 215.46C8.20268 215.325 8.19475 215.254 8.20268 215.254Z" fill="#263238"/>
<path d="M361.808 162.62C361.808 162.62 361.745 157.337 361.522 157.298L350.671 159.709C350.56 160.399 349.187 169.054 349.425 169.903L361.626 173.29C361.626 173.29 361.808 162.93 361.808 162.62Z" fill="#D4BF9E"/>
<path d="M361.816 172.488C361.84 172.481 361.856 172.393 361.872 172.251C361.999 171.069 361.919 165.912 361.293 165.69C360.587 165.444 358.826 165.849 358.707 166.523C358.588 167.205 359 173.012 359 173.012C359 173.012 359.127 173.924 360.658 174.146C361.602 174.281 361.816 172.488 361.816 172.488Z" fill="#D4BF9E"/>
<path d="M358.723 174.337C358.747 174.329 358.763 174.242 358.779 174.099C358.906 172.917 358.826 167.761 358.2 167.539C357.493 167.293 355.732 167.697 355.606 168.372C355.487 169.054 355.899 174.86 355.899 174.86C355.899 174.86 356.026 175.773 357.565 175.995C358.509 176.138 358.723 174.337 358.723 174.337Z" fill="#D4BF9E"/>
<path d="M355.692 175.265C355.716 175.257 355.732 175.17 355.748 175.027C355.875 173.845 355.795 168.689 355.169 168.467C354.463 168.221 352.702 168.625 352.575 169.299C352.456 169.982 352.868 175.788 352.868 175.788C352.868 175.788 352.995 176.701 354.526 176.923C355.478 177.066 355.692 175.265 355.692 175.265Z" fill="#D4BF9E"/>
<path d="M352.686 176.138C352.71 176.13 352.726 176.042 352.741 175.9C352.868 174.718 352.789 169.561 352.162 169.339C351.456 169.093 349.695 169.498 349.568 170.172C349.449 170.855 349.862 176.661 349.862 176.661C349.862 176.661 349.989 177.573 351.52 177.796C352.472 177.93 352.686 176.138 352.686 176.138Z" fill="#D4BF9E"/>
<path d="M358.675 168.031C358.763 168.038 358.874 169.165 358.913 170.545C358.961 171.925 358.921 173.036 358.834 173.028C358.747 173.02 358.636 171.894 358.596 170.513C358.548 169.133 358.588 168.023 358.675 168.031Z" fill="#C9B28E"/>
<path d="M355.637 168.015C355.724 168.015 355.859 169.609 355.922 171.584C355.994 173.56 355.978 175.162 355.891 175.17C355.803 175.17 355.668 173.575 355.605 171.6C355.526 169.617 355.542 168.015 355.637 168.015Z" fill="#C9B28E"/>
<g opacity="0.78">
<g opacity="0.78">
<g opacity="0.78">
<g opacity="0.78">
<path opacity="0.78" d="M352.543 168.269C352.631 168.269 352.766 169.863 352.829 171.838C352.9 173.813 352.885 175.416 352.797 175.424C352.71 175.424 352.575 173.829 352.512 171.854C352.44 169.879 352.456 168.269 352.543 168.269Z" fill="#C9B28E"/>
</g>
</g>
</g>
</g>
<path d="M350.599 159.995C350.599 159.995 346.308 169.752 346.935 170.355C347.561 170.958 349.576 171.894 349.576 171.894L350.599 159.995Z" fill="#D4BF9E"/>
<path d="M326.858 29.1458L323.708 65.6281L305.431 64.1685C305.32 62.0346 305.471 53.7846 305.471 53.7846C305.471 53.7846 297.872 52.6027 297.776 45.0032C297.729 41.3145 298.26 33.6833 298.816 26.8057C299.434 19.1824 306.026 13.4471 313.658 13.8913C321.574 14.3514 327.54 21.2528 326.858 29.1458Z" fill="#D4BF9E"/>
<path d="M305.463 53.6735C305.463 53.6735 310.27 54.0622 315.371 50.8574C315.371 50.8574 313.031 56.3309 305.439 55.6408L305.463 53.6735Z" fill="#C9B28E"/>
<path d="M300.846 32.1364C300.822 32.7076 301.298 33.1994 301.893 33.2311C302.488 33.2629 302.987 32.8266 303.011 32.2554C303.035 31.6843 302.559 31.1924 301.964 31.1607C301.361 31.121 300.861 31.5573 300.846 32.1364Z" fill="#263238"/>
<path d="M300.441 30.6371C300.576 30.7798 301.401 30.169 302.567 30.177C303.733 30.1611 304.59 30.764 304.717 30.6212C304.78 30.5577 304.645 30.3039 304.273 30.0342C303.908 29.7645 303.281 29.5027 302.551 29.5027C301.821 29.5106 301.211 29.7724 300.861 30.05C300.497 30.3198 300.378 30.5736 300.441 30.6371Z" fill="#263238"/>
<path d="M312.349 32.1364C312.325 32.7076 312.801 33.1994 313.396 33.2311C313.991 33.2629 314.49 32.8266 314.514 32.2554C314.538 31.6843 314.062 31.1924 313.467 31.1607C312.864 31.121 312.364 31.5573 312.349 32.1364Z" fill="#263238"/>
<path d="M311.928 30.8592C312.063 31.002 312.888 30.3912 314.054 30.3991C315.22 30.3833 316.077 30.9861 316.203 30.8434C316.267 30.7799 316.132 30.5261 315.751 30.2563C315.386 29.9866 314.76 29.7249 314.03 29.7249C313.3 29.7328 312.689 29.9946 312.34 30.2722C311.983 30.534 311.856 30.7958 311.928 30.8592Z" fill="#263238"/>
<path d="M307.683 39.5215C307.691 39.458 306.961 39.3311 305.787 39.1804C305.486 39.1487 305.208 39.0931 305.153 38.8869C305.081 38.6727 305.208 38.3475 305.351 38.0064C305.629 37.2845 305.922 36.5309 306.232 35.7376C307.453 32.5011 308.342 29.8437 308.215 29.7961C308.088 29.7485 306.985 32.3266 305.764 35.5631C305.47 36.3643 305.184 37.1179 304.915 37.8477C304.804 38.1888 304.605 38.5696 304.756 39.0217C304.835 39.2438 305.058 39.4025 305.248 39.458C305.438 39.5136 305.605 39.5215 305.756 39.5294C306.946 39.577 307.683 39.5849 307.683 39.5215Z" fill="#263238"/>
<path d="M311.126 40.3307C310.936 40.3228 310.936 41.5841 309.849 42.4884C308.762 43.3927 307.414 43.2499 307.406 43.4244C307.39 43.5038 307.707 43.6704 308.278 43.6862C308.842 43.7021 309.659 43.5276 310.317 42.9723C310.976 42.417 311.261 41.6872 311.309 41.1636C311.348 40.6322 311.214 40.3228 311.126 40.3307Z" fill="#263238"/>
<path d="M311.626 26.2739C311.745 26.5912 312.911 26.4405 314.276 26.6071C315.648 26.742 316.759 27.1465 316.933 26.861C317.012 26.7261 316.822 26.4247 316.378 26.1153C315.934 25.8059 315.228 25.5203 314.403 25.4251C313.578 25.3379 312.824 25.4648 312.324 25.6711C311.824 25.8773 311.571 26.1232 311.626 26.2739Z" fill="#263238"/>
<path d="M300.869 27.2576C301.076 27.5193 301.877 27.2496 302.845 27.2338C303.812 27.1862 304.629 27.4083 304.82 27.1306C304.899 26.9958 304.772 26.734 304.415 26.4802C304.066 26.2263 303.471 26.028 302.805 26.0439C302.139 26.0677 301.567 26.3056 301.226 26.5753C300.893 26.853 300.782 27.1306 300.869 27.2576Z" fill="#263238"/>
<path d="M328.491 24.4417C328.055 28.1384 327.048 32.8027 326.762 36.5866C326.738 36.9357 326.699 37.3006 326.492 37.5782C325.953 38.3001 324.66 39.8469 324.001 39.2361C322.399 37.7448 321.772 33.5643 321.455 31.3987C321.138 29.2331 321.193 27.0278 320.892 24.8622C320.884 24.8146 320.876 24.759 320.868 24.7114C320.654 23.1884 319.861 21.816 318.663 20.8562C318.377 20.6658 318.084 20.4913 317.766 20.3802C315.537 19.5949 311.809 21.0466 309.588 21.8557C308.438 22.2761 307.327 22.7917 306.216 23.2994C303.662 24.4576 300.64 24.2831 298.371 22.641C297.015 21.6653 296.896 18.5636 297.491 16.6043C299.093 11.3053 305.756 9.4887 314.292 11.5115C322.764 13.5185 329.356 16.8502 328.491 24.4417Z" fill="#263238"/>
<path d="M324.295 32.5885C324.422 32.533 329.515 31.0417 329.356 36.2375C329.19 41.4334 324.01 40.1959 324.002 40.0452C323.994 39.8945 324.295 32.5885 324.295 32.5885Z" fill="#D4BF9E"/>
<path d="M325.652 38.1254C325.676 38.1096 325.739 38.1889 325.89 38.2682C326.041 38.3396 326.294 38.3952 326.564 38.3079C327.119 38.1254 327.611 37.2687 327.667 36.3327C327.699 35.8567 327.611 35.4045 327.453 35.0317C327.31 34.643 327.072 34.3733 326.794 34.3178C326.525 34.2464 326.318 34.405 326.255 34.5478C326.183 34.6906 326.207 34.7937 326.183 34.8017C326.168 34.8175 326.072 34.7144 326.12 34.5002C326.144 34.3971 326.207 34.2781 326.334 34.1829C326.461 34.0877 326.644 34.0401 326.842 34.0639C327.238 34.1036 327.587 34.4844 327.762 34.8969C327.952 35.3173 328.063 35.825 328.032 36.3565C327.968 37.4036 327.397 38.3634 326.636 38.5617C326.271 38.649 325.969 38.5221 325.811 38.3952C325.652 38.2524 325.628 38.1413 325.652 38.1254Z" fill="#C9B28E"/>
<path d="M328.404 24.7985C328.467 24.8778 326.873 25.7663 324.692 25.7901C322.51 25.8377 320.884 25.0206 320.939 24.9333C320.979 24.8144 322.597 25.4252 324.684 25.3776C326.77 25.3538 328.364 24.6795 328.404 24.7985Z" fill="#455A64"/>
<path d="M328.23 26.2819C328.293 26.3612 326.77 27.2417 324.668 27.2735C322.566 27.3211 321.011 26.504 321.075 26.4167C321.114 26.2978 322.661 26.9086 324.66 26.861C326.659 26.8372 328.182 26.1629 328.23 26.2819Z" fill="#455A64"/>
<path d="M292.065 285.188L295.444 300.736C295.444 300.736 280.768 309.39 281.117 312.325L311.499 306.86L307.232 282.411L292.065 285.188Z" fill="#232323"/>
<path d="M311.492 306.868L310.968 304.425L282.03 310.58C282.03 310.58 280.785 311.413 281.11 312.333L311.492 306.868Z" fill="#455A64"/>
<path d="M326.619 286.901L327.119 302.806C327.119 302.806 311.119 308.661 310.928 311.604L341.802 311.738L342.04 286.925L326.619 286.901Z" fill="#232323"/>
<g opacity="0.6">
<g opacity="0.6">
<g opacity="0.6">
<g opacity="0.6">
<g opacity="0.6">
<g opacity="0.6">
<path opacity="0.6" d="M341.802 311.739L341.73 309.24L312.158 310.049C312.158 310.049 310.777 310.644 310.928 311.612L341.802 311.739Z" fill="#455A64"/>
</g>
</g>
</g>
</g>
</g>
</g>
<path d="M290.399 298.531C290.399 298.531 274.573 220.894 274.558 219.347L302.83 204.402L313.777 295.508L290.399 298.531Z" fill="#699DEE"/>
<path d="M325.993 301.125L304.13 166.571V137.546L333.997 140.314C334.378 141.449 344.151 301.299 344.151 301.299L341.065 301.125H325.993Z" fill="#699DEE"/>
<path d="M286.948 135.499L274.557 219.339L302.266 212.62L313.562 138.228L286.948 135.499Z" fill="#699DEE"/>
<path d="M312.579 142.606C312.579 142.606 312.579 142.749 312.61 143.019C312.642 143.305 312.682 143.701 312.737 144.225C312.856 145.296 313.039 146.85 313.261 148.842C313.737 152.855 314.443 158.654 315.379 165.817C317.227 180.144 320.035 199.896 323.05 221.719C324.549 232.634 325.929 243.042 327.111 252.513C327.413 254.885 327.659 257.194 327.992 259.438C328.333 261.675 328.666 263.841 328.991 265.943C329.626 270.14 330.221 274.05 330.76 277.62C331.831 284.759 332.68 290.542 333.235 294.54C333.513 296.539 333.719 298.094 333.838 299.149C333.902 299.673 333.941 300.077 333.957 300.347C333.965 300.482 333.973 300.585 333.957 300.649C333.949 300.736 333.909 300.641 333.909 300.657C333.909 300.657 333.909 300.664 333.917 300.68C333.925 300.712 333.973 300.688 333.973 300.649C333.989 300.577 333.989 300.474 333.989 300.339C333.981 300.069 333.957 299.657 333.909 299.133C333.814 298.07 333.632 296.516 333.378 294.517C332.87 290.511 332.061 284.72 331.022 277.58C330.498 274.011 329.919 270.092 329.301 265.896C328.983 263.794 328.658 261.628 328.325 259.391C328 257.162 327.762 254.838 327.46 252.474C326.302 242.994 324.93 232.586 323.43 221.671C320.416 199.841 317.568 180.096 315.649 165.786C314.705 158.638 313.943 152.847 313.412 148.834C313.15 146.842 312.951 145.288 312.817 144.225C312.745 143.709 312.69 143.312 312.65 143.027C312.61 142.741 312.579 142.606 312.579 142.606Z" fill="#455A64"/>
<path d="M295.92 297.809C295.92 297.809 295.912 297.674 295.873 297.412C295.825 297.135 295.761 296.746 295.682 296.246C295.508 295.207 295.246 293.708 294.921 291.78C294.238 287.893 293.255 282.285 292.041 275.367C289.574 261.501 286.171 242.376 282.411 221.243C282.133 219.942 282.038 218.625 282.181 217.324C282.347 216.031 282.562 214.714 282.752 213.429C283.149 210.843 283.545 208.305 283.934 205.798C284.719 200.801 285.497 195.977 286.266 191.392C287.789 182.214 289.265 173.972 290.581 167.063C291.898 160.154 293.056 154.585 293.937 150.745C294.349 148.826 294.73 147.342 294.96 146.335C295.071 145.843 295.167 145.462 295.222 145.185C295.278 144.923 295.301 144.788 295.301 144.788C295.301 144.788 295.254 144.915 295.182 145.169C295.111 145.439 295.008 145.819 294.881 146.311C294.627 147.311 294.223 148.786 293.786 150.706C292.858 154.529 291.668 160.098 290.312 166.999C288.963 173.901 287.464 182.151 285.917 191.321C285.14 195.906 284.354 200.729 283.561 205.727C283.172 208.225 282.776 210.772 282.371 213.358C282.181 214.651 281.967 215.944 281.792 217.277C281.649 218.617 281.752 219.99 282.03 221.314C285.83 242.431 289.273 261.549 291.771 275.407C293.033 282.316 294.056 287.909 294.77 291.796C295.127 293.716 295.412 295.215 295.603 296.246C295.698 296.746 295.777 297.127 295.833 297.404C295.88 297.674 295.92 297.809 295.92 297.809Z" fill="#455A64"/>
<path d="M304.139 165.627C304.035 165.643 305.328 174.337 307.026 185.038C308.724 195.747 310.183 204.41 310.286 204.394C310.39 204.378 309.096 195.684 307.399 184.975C305.701 174.274 304.242 165.611 304.139 165.627Z" fill="#455A64"/>
<path d="M325.731 300.887C325.731 300.91 325.985 300.958 326.445 301.013C326.905 301.069 327.579 301.132 328.412 301.196C330.07 301.323 332.371 301.45 334.917 301.489C337.463 301.529 339.764 301.481 341.43 301.41C342.263 301.37 342.937 301.331 343.397 301.291C343.865 301.251 344.119 301.22 344.119 301.188C344.119 301.132 343.088 301.132 341.422 301.14C339.756 301.148 337.463 301.148 334.925 301.109C332.386 301.069 330.094 300.99 328.428 300.926C326.77 300.863 325.739 300.831 325.731 300.887Z" fill="#455A64"/>
<path d="M290.399 298.531C290.399 298.555 290.732 298.539 291.327 298.483C291.994 298.412 292.842 298.325 293.842 298.214C295.96 297.976 298.887 297.611 302.116 297.19C305.344 296.77 308.263 296.373 310.373 296.064C311.365 295.913 312.206 295.786 312.872 295.683C313.459 295.588 313.785 295.524 313.785 295.501C313.785 295.469 313.451 295.485 312.856 295.54C312.261 295.596 311.405 295.683 310.342 295.802C308.224 296.04 305.297 296.397 302.068 296.817C298.839 297.238 295.92 297.642 293.81 297.952C292.819 298.102 291.978 298.237 291.311 298.34C290.716 298.436 290.391 298.499 290.399 298.531Z" fill="#455A64"/>
<path d="M248.792 85.9437L266.617 99.5006C266.617 99.5006 283.204 71.2207 284.664 69.4597C286.131 67.6986 289.851 65.8186 289.851 65.8186L287.789 102.079C287.789 102.079 278.817 124.972 266.506 123.727C257.082 122.775 240.788 97.9062 240.788 97.9062L248.792 85.9437Z" fill="#FFB93E"/>
<g opacity="0.2">
<g opacity="0.2">
<g opacity="0.2">
<path opacity="0.2" d="M266.284 99.0723C263.809 102.872 263.127 107.79 264.483 112.114C264.618 112.558 264.808 113.026 265.205 113.264C265.8 113.621 266.617 113.256 266.99 112.669C267.363 112.082 267.41 111.352 267.45 110.662C267.799 111.304 268.164 111.971 268.767 112.383C269.37 112.796 270.282 112.851 270.774 112.312C271.369 111.661 271.043 110.63 270.686 109.821C269.171 106.378 267.648 102.935 266.133 99.5006" fill="black"/>
</g>
</g>
</g>
<path d="M253.274 90.0054C253.385 90.0768 251.561 93.1388 249.197 96.8434C246.833 100.548 244.818 103.491 244.707 103.42C244.596 103.348 246.42 100.286 248.784 96.5816C251.148 92.877 253.163 89.934 253.274 90.0054Z" fill="#263238"/>
<path d="M248.737 89.5055C248.689 89.4658 248.919 89.2279 249.324 89.3786C249.506 89.45 249.728 89.6245 249.8 89.9339C249.871 90.2512 249.665 90.6081 249.371 90.7509C249.086 90.9096 248.673 90.8858 248.451 90.6399C248.229 90.4098 248.221 90.1242 248.261 89.9339C248.364 89.5134 248.689 89.4579 248.697 89.5214C248.729 89.5848 248.586 89.7197 248.602 89.9735C248.61 90.2432 248.824 90.4971 249.149 90.3226C249.474 90.156 249.387 89.8307 249.173 89.6721C248.967 89.5214 248.768 89.569 248.737 89.5055Z" fill="#263238"/>
<path d="M266.641 108.092C266.53 108.131 265.863 106.251 265.832 103.816C265.784 101.381 266.395 99.4768 266.506 99.5165C266.649 99.5482 266.268 101.444 266.316 103.808C266.339 106.164 266.776 108.052 266.641 108.092Z" fill="#263238"/>
<path d="M270.092 107.965C269.981 108.028 268.815 106.307 267.807 103.959C266.792 101.611 266.34 99.5799 266.467 99.5482C266.602 99.5085 267.252 101.452 268.252 103.768C269.243 106.085 270.211 107.893 270.092 107.965Z" fill="#263238"/>
<path d="M327.151 62.3678L324.454 57.0371H304.963L301.901 63.0897L289.859 65.8106L284.671 143.463C284.64 144.447 284.878 145.423 285.361 146.279L332.711 148.096L334.639 148.881C336.337 147.834 335.282 143.511 335.297 141.472L335.9 103.015L345.269 72.2837L327.151 62.3678Z" fill="#FFB93E"/>
<g opacity="0.2">
<g opacity="0.2">
<g opacity="0.2">
<path opacity="0.2" d="M306.946 65.0571C308.097 63.9069 309.239 62.7646 310.389 61.6144C311.682 64.724 312.967 67.8335 314.26 70.9511C318.71 68.3333 322.954 65.3665 326.937 62.0744C322.566 63.4785 318.195 64.8826 313.824 66.2867C312.713 63.3437 311.611 60.4086 310.5 57.4656C309.723 60.1309 308.612 62.7091 307.208 65.1047" fill="black"/>
</g>
</g>
</g>
<path d="M361.887 159.741L349.124 160.399L349.092 123.774L335.892 103.023L345.261 72.2915C347.188 73.053 361.729 109.559 365.433 119.475C365.965 120.903 366.203 122.426 366.123 123.957L361.887 159.741Z" fill="#FFB93E"/>
<path d="M289.859 81.8426C289.994 81.8584 289.359 89.3627 288.447 98.6122C287.535 107.862 286.686 115.35 286.551 115.334C286.416 115.318 287.051 107.814 287.963 98.5646C288.876 89.3151 289.724 81.8267 289.859 81.8426Z" fill="#263238"/>
<path d="M310.492 57.4891C310.619 57.5367 309.58 60.3369 308.168 63.7321C308.081 63.9463 307.993 64.1525 307.906 64.3588C307.811 64.573 307.716 64.811 307.478 65.0013C307.232 65.2155 306.835 65.1759 306.629 65.0569C306.407 64.9458 306.256 64.8268 306.082 64.7158C305.463 64.2953 304.884 63.8987 304.329 63.5259C303.337 62.8357 302.742 62.3836 302.782 62.328C302.821 62.2725 303.48 62.6215 304.511 63.2403C305.082 63.5893 305.685 63.9542 306.32 64.3429C306.669 64.5571 307.018 64.8189 307.176 64.6285C307.383 64.454 307.525 63.9463 307.708 63.5417C309.128 60.1466 310.365 57.4336 310.492 57.4891Z" fill="#263238"/>
<path d="M325.992 62.241C326.016 62.3044 324.874 62.7566 323.017 63.4388C321.161 64.121 318.583 65.0332 315.719 66.009C315.188 66.1914 314.656 66.3659 314.157 66.5404L313.942 66.6118L313.855 66.4056C312.848 63.9703 311.983 61.8205 311.38 60.2657C310.777 58.7109 310.444 57.7669 310.5 57.7431C310.555 57.7193 310.991 58.6237 311.674 60.1467C312.356 61.6698 313.276 63.7957 314.299 66.2231L313.998 66.0883C314.498 65.9138 315.021 65.7392 315.561 65.5489C318.416 64.5731 321.01 63.7085 322.898 63.1135C324.794 62.5186 325.968 62.1775 325.992 62.241Z" fill="#263238"/>
<path d="M343.262 73.3942C343.301 73.537 340.557 74.2827 337.376 75.7026C334.187 77.1146 331.799 78.6536 331.72 78.5266C331.688 78.4711 332.235 78.0189 333.211 77.3923C334.179 76.7656 335.575 75.9723 337.185 75.2584C338.796 74.5444 340.319 74.0368 341.429 73.7353C342.54 73.4418 343.254 73.3308 343.262 73.3942Z" fill="#263238"/>
<path d="M310.492 57.4893C310.5 57.4893 310.508 57.5686 310.516 57.7193C310.524 57.9018 310.532 58.1239 310.548 58.4015C310.564 59.0044 310.604 59.8849 310.611 61.0272C310.635 63.3039 310.619 66.6039 310.461 70.6733C310.167 78.8201 309.152 90.0448 307.526 102.364C306.732 108.528 305.868 114.39 305.281 119.737C304.686 125.083 304.432 129.922 304.511 133.984C304.567 138.045 304.94 141.321 305.273 143.574C305.408 144.701 305.59 145.565 305.677 146.16C305.717 146.43 305.749 146.652 305.78 146.835C305.804 146.985 305.804 147.065 305.796 147.065C305.788 147.065 305.765 146.993 305.733 146.843C305.693 146.668 305.646 146.446 305.582 146.176C305.463 145.589 305.257 144.725 305.082 143.598C304.694 141.353 304.265 138.069 304.17 133.984C304.043 129.906 304.273 125.044 304.844 119.681C305.408 114.319 306.264 108.457 307.058 102.293C308.684 89.9734 309.755 78.7805 310.128 70.6495C310.334 66.588 310.397 63.288 310.429 61.0193C310.437 59.9087 310.445 59.0361 310.453 58.4015C310.461 58.1239 310.469 57.9018 310.469 57.7193C310.477 57.5686 310.485 57.4893 310.492 57.4893Z" fill="#263238"/>
<path d="M362.578 154.133C362.57 154.268 359.539 154.228 355.811 154.046C352.083 153.863 349.06 153.609 349.068 153.474C349.076 153.34 352.107 153.379 355.835 153.562C359.571 153.744 362.586 153.998 362.578 154.133Z" fill="#263238"/>
<path d="M351.258 155.561C351.298 155.616 351.234 155.743 351.298 155.91C351.369 156.092 351.504 156.179 351.671 156.044C351.837 155.902 351.782 155.759 351.623 155.648C351.472 155.553 351.337 155.584 351.29 155.537C351.234 155.505 351.377 155.275 351.718 155.323C351.877 155.354 352.083 155.45 352.186 155.688C352.297 155.933 352.186 156.259 351.972 156.417C351.766 156.592 351.433 156.632 351.21 156.473C350.996 156.314 350.949 156.1 350.949 155.933C350.98 155.584 351.234 155.505 351.258 155.561Z" fill="#263238"/>
<g opacity="0.2">
<g opacity="0.2">
<g opacity="0.2">
<path opacity="0.2" d="M336.091 102.928C334.703 100.421 333.314 97.9142 331.926 95.4075C330.268 108.623 331.204 122.164 334.671 135.023C335.099 124.378 335.528 113.732 335.956 103.078" fill="black"/>
</g>
</g>
</g>
<path d="M314.966 89.1247C314.95 89.1088 315.212 89.093 315.72 89.0771C316.299 89.0612 317.037 89.0454 317.941 89.0216C319.869 88.9819 322.645 88.9343 325.993 88.9185H326.223L326.207 89.1485C325.993 92.0757 325.739 95.4788 325.477 99.096L325.469 99.2309L325.35 99.2944C325.192 99.3737 325.025 99.4689 324.858 99.5561C322.986 100.54 321.178 101.492 319.464 102.388L319.329 102.459L319.21 102.364C317.394 100.881 315.712 99.5006 314.205 98.271L314.125 98.2076L314.133 98.1045C314.371 95.4153 314.562 93.1704 314.705 91.5204C314.776 90.7985 314.839 90.2115 314.887 89.7355C314.927 89.3151 314.95 89.1088 314.966 89.1247C314.982 89.1406 314.974 89.3706 314.966 89.799C314.943 90.2829 314.919 90.8937 314.887 91.6314C314.792 93.2655 314.673 95.4708 314.522 98.1203L314.451 97.9537C315.966 99.1674 317.663 100.524 319.496 101.991L319.242 101.968C320.948 101.063 322.756 100.111 324.62 99.1198C324.787 99.0326 324.961 98.9374 325.112 98.8581L324.985 99.0564C325.271 95.4391 325.541 92.0439 325.779 89.1168L325.985 89.3468C322.724 89.323 319.996 89.2834 318.06 89.2437C317.14 89.2199 316.386 89.204 315.799 89.1882C315.276 89.1564 314.982 89.1406 314.966 89.1247Z" fill="#263238"/>
<path d="M291.557 146.668C291.549 146.803 290.557 146.621 289.922 145.661C289.272 144.709 289.478 143.725 289.605 143.765C289.748 143.773 289.772 144.598 290.319 145.391C290.843 146.2 291.604 146.541 291.557 146.668Z" fill="#263238"/>
<path d="M292.787 146.161C292.707 146.256 291.803 145.399 291.446 143.963C291.073 142.527 291.462 141.353 291.581 141.393C291.724 141.417 291.573 142.535 291.914 143.844C292.239 145.153 292.906 146.073 292.787 146.161Z" fill="#263238"/>
<path d="M328.531 140.822C328.65 140.806 328.769 142.686 327.793 144.732C326.841 146.787 325.31 147.898 325.255 147.794C325.152 147.691 326.461 146.47 327.357 144.526C328.277 142.591 328.38 140.806 328.531 140.822Z" fill="#263238"/>
<path d="M247.8 87.4271C247.8 87.4271 233.379 76.5038 231.356 75.774C228 74.5603 227.199 74.8855 227.199 74.8855L235.108 83.4052C235.108 83.4052 226.747 86.2292 226.144 86.5545C225.47 86.9194 225.24 88.728 227.279 88.728C228.952 88.728 236.972 88.9184 236.972 88.9184L243.588 93.7494L247.8 87.4271Z" fill="#D4BF9E"/>
</svg>
