<svg width="447" height="337" viewBox="0 0 447 337" fill="none" xmlns="http://www.w3.org/2000/svg">
<path opacity="0.2" d="M328.697 26.1135H315.215L315.137 0.664551L286.321 0.754194V0.766308L277.674 0.800227H277.613L277.632 8.92624L277.693 8.97227L277.734 26.1183H161.649V335.396H328.7V335.505H351.404V26.1135H328.697ZM165.433 253.334L165.436 253.899H165.433V253.334ZM324.913 292.217L280.833 292.353V292.37L267.488 292.421H267.396L267.428 304.961L267.52 305.029L267.585 331.425H165.429V262.337H324.911V292.217H324.913ZM201.039 253.862L201.196 253.896H201.041L201.039 253.862ZM324.913 253.899H309.335L309.213 189.554L264.741 189.692V189.709L251.396 189.76H251.304L251.336 202.301L251.416 202.361L251.493 253.867H264.86V253.899H223.75H223.258L223.149 214.25L178.676 214.388V214.405L165.429 214.456V184.808H324.911V253.899H324.913ZM324.913 176.367H279.476L279.355 136.718L234.882 136.856V136.873L221.54 136.924H221.448L221.48 149.465L221.572 149.535L221.637 176.367H165.433V107.279H324.916V176.367H324.913ZM324.913 98.8381H165.431V29.7501H324.913V98.8381Z" fill="#8F7A61"/>
<path d="M137.882 273.795L137.693 335.178L206.904 335.392L207.094 274.008L137.882 273.795Z" fill="#FFA412"/>
<path d="M227.859 274.117L172.45 273.904L172.3 335.287L227.709 335.5L227.859 274.117Z" fill="#FFB93E"/>
<path d="M95.6272 295.81L95.5055 335.253L139.978 335.39L140.1 295.948L95.6272 295.81Z" fill="#4A75CB"/>
<path d="M153.443 296.016L117.838 295.88L117.741 335.321L153.346 335.459L153.443 296.016Z" fill="#739AF0"/>
<path d="M129.177 136.471H125.513C125.773 135.725 125.508 134.94 124.891 134.69C124.249 134.429 123.473 134.841 123.158 135.611C123.042 135.899 123.006 136.197 123.04 136.471H119.458C119.333 136.471 119.211 136.527 119.129 136.621L117.944 137.99C117.699 138.271 117.901 138.71 118.274 138.71H127.994C128.12 138.71 128.241 138.654 128.324 138.56L129.509 137.191C129.749 136.91 129.55 136.471 129.177 136.471ZM124.702 136.241C124.597 136.495 124.343 136.631 124.132 136.544C123.921 136.459 123.834 136.183 123.936 135.929C124.04 135.674 124.295 135.538 124.505 135.626C124.719 135.713 124.806 135.987 124.702 136.241Z" fill="#FFB93E"/>
<path d="M59.6697 37.1759L47.8732 46.4212C47.3208 47.2838 48.5055 47.3322 47.987 48.3958C43.1948 58.2347 46.4098 68.7569 50.468 67.6957C53.07 67.0149 53.8065 71.4559 53.8065 71.4559L79.0931 50.9858C79.0931 50.9858 69.8042 31.7683 59.6697 37.1759Z" fill="#263238"/>
<path d="M68.4735 327.069L63.1022 329.068C63.1022 329.068 39.7732 296.712 36.9023 268.244C36.3886 263.161 36.5606 258.238 37.6703 253.69C37.6703 253.69 37.4425 252.387 37.0428 250.085C36.8586 249.012 36.6309 247.718 36.3717 246.235C35.6133 241.889 34.5691 235.943 33.3771 229.174C30.6321 213.593 27.0754 193.678 24.3135 179.037L25.7599 178.572L41.4183 173.52L44.6551 163.243L56.316 160.173C56.316 160.173 58.9205 165.268 61.2488 189.339C61.6776 192.496 62.0701 195.977 62.3633 199.754C63.2718 211.277 63.3372 225.574 61.2536 241.916C60.7182 246.1 60.0422 250.417 59.2064 254.856C58.5934 258.109 58.5014 262.543 58.7582 267.633C59.9332 290.904 68.4735 327.069 68.4735 327.069Z" fill="#263238"/>
<path d="M62.3608 199.752L37.0428 250.088C36.8586 249.014 36.6309 247.721 36.3717 246.238C35.6133 241.891 34.5691 235.946 33.3771 229.177C30.6321 213.596 27.0754 193.681 24.3135 179.04L25.7599 178.575L41.4183 173.523L44.6551 163.246L56.316 160.176C56.316 160.176 58.9205 165.271 61.2488 189.341C61.6776 192.496 62.0677 195.977 62.3608 199.752Z" fill="#1A2226"/>
<path d="M51.2235 166.632L50.6372 161.605C40.8176 164.214 14.5813 154.317 14.5813 154.317C14.5813 154.317 5.06951 162.681 6.31724 182.725C6.92778 192.508 8.03983 234.08 9.20277 246.383C9.62191 250.841 9.99017 254.015 10.1428 255.282C10.1452 255.289 10.1452 255.292 10.1452 255.294C10.1913 255.682 10.0556 256.045 9.85935 256.384C8.14644 259.292 6.72911 262.315 5.56617 265.412C-5.84997 295.832 7.32511 333.293 7.32511 333.293L10.7437 331.915C10.7437 331.915 18.2397 290.223 24.3306 271.805C25.3651 268.682 26.3561 266.226 27.2646 264.76C29.9127 260.486 32.3718 253.501 34.6008 245.194C38.8164 229.489 42.2108 209.058 44.4688 193.288C44.7813 193.305 51.2235 166.632 51.2235 166.632Z" fill="#263238"/>
<path d="M128.586 160.213C126.474 162.083 120.862 155.66 120.092 154.807C120.05 154.725 120.009 154.686 120.009 154.686L121.717 149.93C121.717 149.93 129.076 149.646 130.294 150.865C131.513 152.084 130.903 158.221 128.586 160.213Z" fill="#D4BF9E"/>
<path d="M121.717 149.93L120.985 154.848C120.985 154.848 120.66 154.848 120.091 154.807C118.303 154.686 113.954 154.441 109.036 153.913C101.639 153.181 92.859 151.88 89.363 149.726C84.0377 146.475 75.2987 136.517 69.61 126.557C69.4477 126.312 69.3265 126.07 69.203 125.825C66.2351 120.541 64.1636 115.298 64.0013 111.112C63.8801 108.551 64.1636 106.356 64.6918 104.447C65.3823 101.927 66.521 99.9356 67.6984 98.4311C67.8608 98.1864 68.0231 97.9441 68.2678 97.7406C70.2181 95.4244 72.1297 94.448 72.1297 94.448C73.1061 94.041 74.1624 94.5304 75.2599 95.7079V95.7491C76.1539 96.6843 77.1303 98.1064 78.0655 99.8945C78.1067 99.9356 78.1479 99.9768 78.1479 100.016C78.3514 100.381 78.5549 100.788 78.7996 101.234C78.8796 101.314 78.9208 101.438 78.962 101.518C79.4102 102.453 79.856 103.427 80.3042 104.444C85.3024 115.337 90.6277 131.839 95.0589 136.757C96.9681 138.87 105.709 143.018 112.658 146.107C117.651 148.304 121.717 149.93 121.717 149.93Z" fill="#D4BF9E"/>
<path d="M69.9827 105.668C66.9009 107.098 63.1771 108.072 58.6732 108.316C41.7912 109.242 37.9584 94.441 37.2606 84.619C39.6931 83.7371 41.8251 83.8219 43.0535 83.8873C44.2503 83.9527 45.5005 84.0763 46.5302 84.2023C48.5968 83.1241 52.3061 77.8837 54.4503 69.118L55.1771 69.4548L67.3588 75.1823C67.3588 75.1823 66.0651 79.1459 65.1105 82.94C64.3643 85.9079 63.8289 88.7765 64.2771 89.5784C65.2365 89.9685 65.8107 90.2132 65.8107 90.2132C65.8107 90.2132 65.8107 90.2181 65.8155 90.2277C65.9391 90.5403 68.5872 97.2877 69.9827 105.668Z" fill="#D4BF9E"/>
<path d="M74.2063 116.745C74.0779 117.082 73.9373 117.411 73.7847 117.75C69.5085 126.959 61.5933 165.104 61.5933 165.104C62.7198 171.962 10.051 163.757 9.91531 157.513C8.05946 150.892 16.498 140.253 21.2564 134.916C21.8524 134.245 22.3878 133.525 22.853 132.767C24.028 130.862 24.7742 128.716 25.0092 126.47C25.9444 117.617 25.5883 109.321 25.6658 104.277C26.5962 103.589 27.495 102.952 28.3333 102.349C29.6125 101.416 30.744 100.541 31.5774 99.657C32.4932 98.6927 33.0674 97.7066 33.1328 96.5922C33.1813 95.749 33.1546 94.8865 33.0674 94.0216C33.0287 93.6146 32.9754 93.2051 32.9148 92.7981C32.2558 88.5146 30.4678 84.6285 30.4678 84.6285C34.9984 82.7968 43.0517 83.8871 43.0517 83.8871C43.0517 83.8871 43.042 84.3353 43.0396 85.067C43.0129 88.0107 43.0396 95.5649 43.9821 96.9943C45.1619 98.7751 66.7392 106.576 67.8804 104.159C69.0021 101.782 65.93 90.6491 65.8137 90.2275C65.8089 90.2178 65.8089 90.213 65.8089 90.213C73.036 93.05 75.6187 95.4316 75.6187 95.4316C71.2674 98.2566 77.5739 107.812 74.2063 116.745Z" fill="#CD9E64"/>
<path d="M67.3619 75.1873C67.3619 75.1873 66.0656 79.1488 65.1134 82.9454C57.9925 80.9587 55.8313 73.4743 55.1796 69.462L67.3619 75.1873Z" fill="#C9B28E"/>
<path d="M68.8613 79.3785C68.8613 79.3785 51.8267 75.4366 54.4433 64.866C57.0624 54.2954 56.6263 46.6661 67.6136 48.7376C78.6009 50.8066 79.7057 55.3639 79.6912 59.1047C79.6766 62.8454 73.358 80.132 68.8613 79.3785Z" fill="#D4BF9E"/>
<path d="M74.0128 65.999C73.8385 65.667 73.9666 65.2554 74.2986 65.081C74.6308 64.906 75.0416 65.0346 75.2166 65.3668C75.3914 65.6997 75.263 66.1098 74.9308 66.2848C74.5986 66.4597 74.1876 66.3319 74.0128 65.999Z" fill="#263238"/>
<path d="M75.4455 65.3856C75.3488 65.4363 75.0383 64.9467 74.4341 64.7223C73.8332 64.489 73.2759 64.6502 73.2371 64.5472C73.2168 64.5007 73.336 64.3886 73.5813 64.3127C73.8225 64.2362 74.197 64.2149 74.5729 64.3579C74.9482 64.5007 75.2144 64.765 75.3443 64.9817C75.4769 65.2013 75.4908 65.3643 75.4455 65.3856Z" fill="#263238"/>
<path d="M68.2749 63.3612C68.5078 63.6561 68.4572 64.0836 68.163 64.3168C67.8682 64.5497 67.4413 64.4993 67.2084 64.2045C66.9752 63.9103 67.0252 63.4825 67.32 63.2496C67.6148 63.0167 68.0424 63.0673 68.2749 63.3612Z" fill="#263238"/>
<path d="M68.6724 63.5129C68.5758 63.5636 68.2653 63.0741 67.6611 62.8497C67.0595 62.6162 66.5023 62.7774 66.4639 62.6752C66.4438 62.6281 66.563 62.516 66.8081 62.4407C67.0491 62.3648 67.4238 62.3429 67.7997 62.4859C68.1752 62.6281 68.4412 62.893 68.5709 63.1104C68.7039 63.3286 68.7178 63.4917 68.6724 63.5129Z" fill="#263238"/>
<path d="M69.2744 69.397C69.2871 69.3497 69.689 69.4125 70.3286 69.5516C70.493 69.5927 70.6329 69.6038 70.6784 69.5202C70.7441 69.4326 70.7441 69.2397 70.7329 69.0221C70.7238 68.5662 70.7142 68.1023 70.7048 67.6164C70.6847 65.6209 70.7478 64.004 70.8454 64.0025C70.9437 64.0012 71.0389 65.6177 71.0591 67.6126C71.0593 68.0985 71.0596 68.5625 71.0595 69.0185C71.0511 69.2232 71.0822 69.4764 70.9071 69.7052C70.8165 69.8187 70.6596 69.8671 70.5457 69.8566C70.4306 69.8501 70.3409 69.8177 70.2638 69.7933C69.6405 69.5924 69.2618 69.4443 69.2744 69.397Z" fill="#263238"/>
<path d="M67.0617 69.346C66.5675 68.7394 68.4609 70.9041 69.7157 71.295C69.7157 71.295 68.5955 72.1663 67.4974 71.2389C66.3575 70.2757 67.0617 69.346 67.0617 69.346Z" fill="white"/>
<path d="M80.6509 53.101C78.8192 49.2706 76.663 49.4741 75.3159 50.1524C67.311 42.746 55.1801 46.4698 55.1801 46.4698C52.1589 53.7697 49.8888 59.0804 49.8888 59.0804C49.8888 59.0804 52.5054 61.76 60.0911 61.7018C62.4073 61.6849 64.738 60.6189 66.858 59.1531C62.7683 63.2718 57.976 65.777 57.976 65.777C67.4709 63.9599 73.838 52.9677 74.4897 51.7999C75.2941 52.9871 76.8326 55.5165 76.9634 57.651C77.1402 60.5534 76.1421 66.1864 77.8017 66.3996C77.7992 66.4045 83.3959 58.8478 80.6509 53.101Z" fill="#263238"/>
<path d="M75.6231 95.4318C75.6231 95.4318 79.7251 102.587 80.338 104.428C80.338 104.428 75.0198 104.222 72.8707 108.314C72.8731 108.317 72.357 96.3961 75.6231 95.4318Z" fill="#CD9E64"/>
<path d="M47.4123 152.285C37.0234 152.176 28.2287 141.387 22.8525 132.767C24.0276 130.863 24.7738 128.716 25.0088 126.47C25.944 117.617 25.5879 109.322 25.6654 104.277C26.5957 103.589 27.4946 102.952 28.3329 102.349C29.6121 101.416 30.7435 100.541 31.577 99.6571C40.0858 114.034 61.4983 152.435 47.4123 152.285Z" fill="#8F7A61"/>
<path d="M27.1991 336.087H0.14871C0.14871 336.087 -0.500594 331.963 0.91431 328.835C2.26865 325.833 4.38858 324.469 3.88222 320.838C5.59997 322.606 8.40313 324.588 12.3135 324.062C12.7932 324.84 15.4074 328.998 17.0064 330.146C18.7726 331.42 26.6564 330.967 27.1991 336.087Z" fill="black"/>
<path d="M85.283 336.087H58.2326C58.2326 336.087 57.2223 331.772 58.9982 328.835C60.5706 326.238 59.9673 324.758 58.8019 322.609C60.0279 323.11 61.6124 323.566 63.3592 323.466C64.7063 323.389 66.1333 322.776 67.381 322.052C68.5464 323.379 73.53 329.029 75.0879 330.148C76.8565 331.42 84.7378 330.967 85.283 336.087Z" fill="black"/>
<path d="M110.434 137.469L84.1124 171.711L84.5025 172.188L111.199 137.884L110.434 137.469Z" fill="#232323"/>
<path d="M111.149 137.949H137.86L109.898 172.188H84.5028L111.149 137.949Z" fill="#CD9E64"/>
<path d="M105.654 158.727C105.579 157.365 103.784 157.426 102.417 157.421C100.179 157.411 96.6462 157.256 94.6038 156.474C94.6038 156.474 101.128 156.382 99.7401 154.32C99.4881 153.944 96.244 154.228 92.6244 154.228C91.1392 154.228 87.4711 156.263 87.6601 156.357C85.0362 156.011 82.6522 155.502 81.8817 155.335C80.0937 154.359 77.9399 153.181 75.6625 151.88C70.1749 148.791 63.8756 145.011 59.5655 141.881C57.087 140.093 55.2166 138.509 54.5673 137.37C53.5521 135.623 52.4134 132.859 51.1536 129.445C50.5043 127.657 49.8114 125.707 49.1209 123.633C47.9022 120.219 46.6811 116.52 45.4213 112.82C43.1463 106.073 40.7065 99.2839 38.3904 94.041C36.8858 90.7484 35.4225 88.0252 34.0415 86.3583C32.944 85.0161 31.8876 84.3256 30.8701 84.4879C30.7077 84.5291 30.5866 84.5679 30.463 84.6091C30.463 84.6091 24.6096 86.2348 24.5296 98.0216C24.4884 98.6733 24.5296 99.3638 24.5708 100.096C24.6532 102.169 25.0578 104.689 25.6683 107.453C26.6447 112.088 28.2704 117.452 30.3031 122.899C30.8725 124.362 31.4418 125.867 32.05 127.369C36.44 138.262 42.09 148.425 46.8459 151.878C47.0494 152.04 47.2117 152.164 47.4152 152.285C49.4068 153.545 52.3335 154.804 55.706 155.984C60.5031 157.61 66.1918 159.073 71.2748 160.292H71.316C74.2839 160.941 77.0071 161.552 79.2821 162C79.2821 162 79.6552 162.092 80.3215 162.225C80.416 162.245 80.5177 162.264 80.6243 162.283C82.7782 162.812 87.2094 163.95 91.396 165.576C97.2494 167.892 101.555 165.012 103.507 162.974C104.746 161.685 105.722 159.97 105.654 158.727Z" fill="#D4BF9E"/>
<path d="M38.3758 94.0585C30.5498 91.9021 24.5144 98.0102 24.5144 98.0102C24.6137 86.2422 30.4699 84.631 30.4699 84.631C32.8273 83.6545 37.8112 86.2882 38.3758 94.0585Z" fill="#CD9E64"/>
<path d="M70.3536 31.2571C66.4771 30.3703 63.1967 30.4357 60.425 31.1165C60.1512 31.1844 59.8799 31.2571 59.6134 31.337H59.6085C49.0258 34.5012 46.3608 46.7604 46.3608 46.7604C46.3608 46.7604 45.9174 49.9755 46.0313 51.3662C46.1427 52.7593 56.2239 56.3522 57.7527 54.5642C59.279 52.7762 62.2348 51.6109 62.2348 51.6109C62.2348 51.6109 72.5535 56.0034 73.2488 56.2965C75.5844 57.2802 83.1507 58.3171 83.1507 58.3171C83.4003 57.6533 89.9975 35.7537 70.3536 31.2571Z" fill="#FFA412"/>
<path d="M90.1385 59.211C89.0918 58.3097 87.2166 56.9457 83.9192 55.1092C83.9192 55.1092 79.9071 56.0105 73.3898 54.9324C72.4449 50.2685 69.0118 38.4356 60.4255 31.114C60.3988 31.0922 60.377 31.0704 60.3504 31.0486C60.0088 31.2036 59.8464 31.2327 59.6139 31.3345H59.609C59.5387 31.3635 59.4612 31.3999 59.3716 31.4508C66.6254 36.8923 69.6393 49.6895 70.5309 54.3582C68.0233 53.7719 65.2395 52.8972 62.2353 51.6083C62.2353 51.6083 69.918 59.79 89.5958 60.6719C90.3638 60.7107 90.7224 59.7125 90.1385 59.211Z" fill="#E27F2B"/>
<path d="M110.434 137.469H137.298L137.86 137.949H111.149L110.434 137.469Z" fill="#232323"/>
<path d="M312.92 298.916H264.547C263.592 298.916 262.82 298.102 262.82 297.099C262.82 296.096 263.592 295.282 264.547 295.282H312.92C313.875 295.282 314.648 296.096 314.648 297.099C314.648 298.102 313.872 298.916 312.92 298.916Z" fill="#2B478B"/>
<path d="M313.4 242.95H264.068C263.094 242.95 262.306 242.136 262.306 241.133C262.306 240.13 263.094 239.316 264.068 239.316H313.4C314.374 239.316 315.162 240.13 315.162 241.133C315.162 242.136 314.374 242.95 313.4 242.95Z" fill="#2B478B"/>
<path d="M343.956 159.57C346.883 160.246 360.109 160.406 369.396 158.32C371.331 157.886 373.1 157.356 374.563 156.709C376.313 155.938 377.633 155.006 378.304 153.884C379.353 152.135 381.274 146.148 383.533 138.301C389.752 116.677 398.503 80.9485 398.503 80.9485C398.503 80.9485 380.93 84.5342 377.211 87.5966C373.49 90.659 370.207 139.226 366.711 140.539C366.195 140.733 365.306 141.14 364.167 141.7C364.111 141.726 364.056 141.755 364 141.782C363.322 142.116 362.556 142.504 361.73 142.931C354.474 146.659 342.466 153.375 341.223 154.87C339.581 156.837 339.69 158.587 343.956 159.57Z" fill="#CD9E64"/>
<path d="M377.674 108.597C377.674 107.771 377.756 106.942 377.906 106.114C380.167 93.6802 398.146 80.946 398.502 80.946L398.505 81.2053C398.505 83.1047 401.502 86.6129 406.115 86.9158C411.588 87.2744 418.345 84.1514 418.345 80.9969C418.379 80.9969 421.42 81.4088 422.452 81.5227C426.839 82.0218 435.595 84.3912 439.346 87.2259C442.912 89.92 437.873 106.909 434.752 118.94C433.429 124.03 432.455 128.231 432.615 130.092C432.695 131.001 433.512 143.35 434.241 154.521C434.844 163.737 435.389 172.147 435.406 172.675C435.445 173.722 430.241 177.387 421.502 180.157C419.392 180.825 417.071 181.443 414.57 181.954C410.086 182.877 405.01 183.471 399.491 183.452C397.686 183.444 395.975 183.352 394.362 183.192C381.877 181.966 377.601 167.742 377.674 108.597Z" fill="#CD9E64"/>
<path d="M418.34 80.8495C418.447 76.0209 418.367 70.2547 417.713 65.3824L398.437 68.5321C398.437 68.5321 398.418 74.417 398.5 80.944C398.488 80.9464 397.977 86.9985 405.434 87.8853C412.894 88.772 418.542 85.523 418.34 80.8495Z" fill="#D4BF9E"/>
<path d="M402.215 336.087C404.638 334.595 403.216 323.539 403.216 323.539C403.216 323.539 391.862 314.527 390.334 321.466C388.803 328.404 379.62 331.552 374.387 332.419C370.775 333.02 369.442 334.885 369.1 336.072L402.215 336.087Z" fill="black"/>
<path d="M419.874 146.008C419.874 164.493 428.833 159.512 434.241 154.519C433.511 143.347 433 103.781 433 103.781C433 103.781 419.874 119.534 419.874 146.008Z" fill="#8F7A61"/>
<path d="M361.729 142.928C362.088 145.52 366.182 153.067 369.395 158.32C371.33 157.886 373.099 157.356 374.562 156.709C376.312 155.938 377.632 155.006 378.303 153.884C379.352 152.135 381.274 146.148 383.532 138.301C381.86 128.638 380.273 119.1 380.273 119.1L379.781 112.701C379.781 113.193 372.29 141.307 368.896 141.964C366.851 142.361 365.4 141.879 364.166 141.702C364.111 141.729 364.055 141.758 363.999 141.784C363.318 142.114 362.555 142.502 361.729 142.928Z" fill="#8F7A61"/>
<path d="M437.001 336.087C439.424 334.595 438.002 323.539 438.002 323.539C438.002 323.539 426.648 314.527 425.12 321.466C423.588 328.404 414.406 331.552 409.173 332.419C405.561 333.02 404.25 334.885 403.908 336.072L437.001 336.087Z" fill="black"/>
<path d="M420.177 59.8244C420.177 59.8244 433.044 39.536 408.336 38.1938C408.336 38.1938 399.069 39.284 396.971 37.1859C396.971 37.1859 389.783 48.1127 396.496 59.8244C403.207 71.5361 420.177 59.8244 420.177 59.8244Z" fill="#263238"/>
<path d="M399.011 70.4118C400.884 71.8848 406.377 73.3482 407.963 73.5202C407.963 73.5202 416.106 71.7031 417.587 70.8115C419.879 69.4208 419.731 66.608 419.85 62.6976C419.99 58.0677 420.458 54.4335 419.939 51.7636C419.326 48.5704 417.301 46.7557 411.634 46.2615C401.231 45.3578 396.899 47.9623 396.717 51.4511C396.671 52.3887 396.627 53.2803 396.596 54.1258C396.181 65.0041 397.039 68.8612 399.011 70.4118Z" fill="#D4BF9E"/>
<path d="M412.315 54.1229C412.053 53.8544 412.058 53.4233 412.327 53.1616C412.596 52.8991 413.026 52.9053 413.288 53.1738C413.551 53.443 413.545 53.8727 413.276 54.1351C413.008 54.3976 412.577 54.3921 412.315 54.1229Z" fill="#263238"/>
<path d="M413.513 53.1267C413.435 53.2028 412.998 52.8221 412.355 52.7793C411.712 52.7269 411.224 53.0403 411.158 52.9526C411.125 52.9139 411.207 52.7725 411.421 52.6297C411.63 52.4876 411.983 52.3605 412.384 52.3904C412.784 52.4203 413.115 52.5978 413.301 52.7684C413.491 52.9411 413.551 53.0934 413.513 53.1267Z" fill="#263238"/>
<path d="M406.064 53.2302C406.371 53.4464 406.444 53.8706 406.229 54.1779C406.013 54.4852 405.589 54.5586 405.282 54.3424C404.974 54.1269 404.9 53.7027 405.117 53.3954C405.333 53.0881 405.757 53.0146 406.064 53.2302Z" fill="#263238"/>
<path d="M406.488 53.262C406.41 53.3381 405.972 52.9574 405.329 52.9146C404.686 52.8622 404.198 53.1756 404.132 53.0886C404.099 53.0492 404.182 52.9078 404.395 52.7657C404.605 52.6243 404.957 52.4964 405.359 52.5264C405.759 52.5556 406.089 52.7337 406.276 52.905C406.465 53.0764 406.525 53.2287 406.488 53.262Z" fill="#263238"/>
<path d="M408.741 58.7307C408.74 58.6817 409.143 58.6273 409.796 58.5784C409.965 58.5709 410.102 58.5417 410.122 58.4485C410.16 58.3459 410.105 58.161 410.032 57.9556C409.894 57.5212 409.752 57.0793 409.605 56.6163C409.017 54.7092 408.616 53.1415 408.709 53.1122C408.803 53.083 409.355 54.6052 409.943 56.5116C410.082 56.9773 410.215 57.4219 410.344 57.8591C410.395 58.0576 410.497 58.2915 410.394 58.5607C410.34 58.6953 410.203 58.7864 410.091 58.8089C409.979 58.8354 409.884 58.8299 409.803 58.8286C409.148 58.8136 408.743 58.7796 408.741 58.7307Z" fill="#263238"/>
<path d="M406.607 59.3122C405.96 58.8717 408.392 60.4068 409.706 60.4238C409.706 60.4238 408.881 61.5782 407.564 61.0024C406.197 60.4041 406.607 59.3122 406.607 59.3122Z" fill="white"/>
<path d="M396.504 57.6921C396.606 63.9938 398.304 67.7225 399.535 68.1949C400.952 68.7376 402.622 69.1858 404.361 69.4838C404.947 69.5517 405.51 69.5323 405.502 69.2004C405.483 68.207 404.155 66.9811 405.141 66.1016C406.176 65.1785 411.731 64.8684 412.179 66.8818C412.398 67.863 410.607 69.5977 411.833 69.6365C412.206 69.5735 412.572 69.5008 412.921 69.4111C414.944 68.883 416.531 67.926 417.202 67.5238C419.494 66.1331 419.344 64.0035 419.852 60.1246C420.182 57.6146 420.182 58.9762 419.852 62.7C419.508 66.5983 420.182 69.0986 417.59 70.8139C416.148 71.7685 407.845 75.4972 407.845 75.4972C407.966 73.5226 400.887 71.8872 399.014 70.4142C397.272 69.0453 396.4 65.8836 396.504 57.6921Z" fill="#263238"/>
<path d="M435.404 172.673C435.443 173.719 430.239 177.385 421.5 180.154C420.797 180.38 420.066 180.595 419.317 180.804C419.307 180.806 419.3 180.816 419.3 180.825C418.486 190.39 416.279 203.902 414.287 216.942C414.287 216.942 414.287 216.942 414.287 216.944C413.771 220.324 413.272 223.672 412.814 226.911C411.601 235.483 410.692 243.294 410.593 248.915V248.973C410.549 251.554 412.725 257.989 412.89 259.474C412.991 260.382 413.074 261.344 413.132 262.352C413.369 266.379 413.272 271.137 412.948 276.218C411.521 298.388 405.662 326.754 403.571 327.963C399.416 330.367 391.855 327.961 388.012 327.399C386.421 327.161 385.149 325.807 385.229 324.203C387.106 287.408 381.713 236.167 377.684 204.665C377.58 203.844 377.473 203.04 377.372 202.25C376.889 198.536 376.57 195.066 376.371 191.939C376.187 189.196 376.097 186.705 376.058 184.544C376.049 183.871 376.041 183.229 376.039 182.621C376.029 180.648 377.597 167.737 377.67 108.592C377.672 107.226 378.791 106.109 380.155 106.109H416.325C419.821 106.109 422.632 108.97 422.588 112.464C422.532 116.975 422.695 123.275 423.673 129.288C425.008 137.501 427.867 145.172 433.767 147.018C433.774 147.02 433.779 147.023 433.781 147.03C433.808 147.09 433.97 147.449 434.227 148.047C434.229 148.05 434.229 148.055 434.229 148.057C434.285 149.542 434.348 151.054 434.416 152.595C434.428 152.903 434.443 153.215 434.46 153.528C434.467 153.712 434.476 153.891 434.486 154.075C434.498 154.388 434.515 154.703 434.532 155.018C434.554 155.536 434.581 156.057 434.612 156.585C434.634 157 434.658 157.412 434.68 157.828C434.724 158.63 434.772 159.439 434.825 160.256C434.838 160.518 434.854 160.777 434.874 161.043C434.942 162.1 435.014 163.173 435.097 164.253C435.119 164.585 435.145 164.917 435.172 165.252C435.182 165.412 435.194 165.574 435.208 165.734C435.24 166.158 435.274 166.579 435.31 167.008C435.346 167.459 435.385 167.909 435.424 168.367C435.574 170.029 435.361 171.507 435.404 172.673Z" fill="#263238"/>
<path d="M412.947 276.22C411.52 298.391 405.661 326.757 403.57 327.966C399.415 330.369 391.854 327.963 388.011 327.401C386.42 327.164 385.148 325.81 385.228 324.206C387.105 287.411 381.712 236.169 377.683 204.668C377.579 203.847 377.472 203.042 377.37 202.252C376.888 198.538 376.569 195.069 376.37 191.941C378.286 179.452 389.102 178.783 398.911 204.62C397.7 213.189 413.271 271.139 412.947 276.22Z" fill="#1B2226"/>
<path d="M435.809 247.873C436.107 250.437 439.106 256.53 439.465 257.981C444.424 277.923 441.684 325.211 439.225 327.101C435.421 330.027 427.608 328.637 423.726 328.584C422.118 328.562 420.678 327.382 420.548 325.783C417.497 288.106 404.865 236.36 396.739 205.918C392.647 190.584 392.068 179.311 392.068 179.311C392.068 179.311 430.043 156.045 434.149 168.755C437.788 180.002 433.519 228.193 435.809 247.873Z" fill="#263238"/>
<path d="M397.131 32.5196C397.393 32.224 397.671 31.9405 397.965 31.6619C399.203 30.4844 400.695 29.4693 402.488 28.7206C409.109 25.9587 414.599 28.5074 418.032 31.1192C418.372 31.3736 418.689 31.6328 418.985 31.8872C420.85 33.4717 421.892 34.8866 421.892 34.8866C421.892 34.8866 425.107 39.2743 425 48.5196L391.876 48.8733C391.876 48.8758 391.392 38.8891 397.131 32.5196Z" fill="#FFA412"/>
<path d="M415.707 48.6175L413.887 48.6369C413.848 48.1087 413.938 36.0863 418.423 31.4198C418.762 31.6742 418.692 31.6306 418.987 31.885C414.728 35.9966 415.697 48.4939 415.707 48.6175Z" fill="#E27F2B"/>
<path d="M401.311 48.7744C400.933 41.414 398.113 33.6805 397.352 32.3044C397.613 32.0015 397.669 31.9458 397.962 31.6599C398.491 32.5685 402.81 40.5782 403.266 48.7526L424.998 48.5201C424.998 48.5201 413.987 50.9889 407.341 51.0712C400.695 51.1536 391.874 48.8738 391.874 48.8738L401.311 48.7744Z" fill="#E27F2B"/>
<path d="M423.753 81.6996C423.753 81.6996 412.56 94.7366 411.906 106.114L417.607 106.417C417.607 106.417 419.043 93.7457 427.465 82.4797C427.465 82.4797 426.147 82.1599 425.708 82.0727C425.122 81.9564 423.753 81.6996 423.753 81.6996Z" fill="#263238"/>
<path d="M395.85 81.5204C387.833 93.6537 386.972 106.359 386.972 106.359L381.218 106.259C381.691 97.3169 387.309 87.4804 390.41 82.8214C390.41 82.8214 394.391 81.816 395.85 81.5204Z" fill="#263238"/>
<path d="M432.71 151.689C432.427 165.039 434.091 191.624 434.091 191.624H441.968C445.687 172.917 446.997 160.883 446.997 154.323C446.997 153.029 446.99 151.825 446.98 150.713C446.932 145.109 446.779 141.853 446.779 141.853C448.255 107.89 441.473 89.7312 439.344 87.2285C437.212 84.7282 427.465 82.4799 427.465 82.4799C427.465 82.4799 424.245 91.8633 422.932 99.4103C421.619 106.957 433.255 138.671 432.776 149.511C432.749 150.185 432.727 150.914 432.71 151.689Z" fill="#CD9E64"/>
<path d="M434.091 191.621C434.091 191.621 432.427 165.036 432.711 151.686C439.007 149.656 444.088 150.102 446.983 150.708C446.993 151.82 447 153.024 447 154.318C447 160.881 445.687 172.915 441.97 191.619C443.611 198.509 443.502 205.949 440.657 207.26C437.813 208.573 428.405 203.65 428.514 201.462C428.623 199.28 434.091 191.621 434.091 191.621Z" fill="#D4BF9E"/>
<path d="M326.331 160.883C327.099 158.068 327.668 156.508 329.606 155.141C332.421 153.155 335.765 153.692 338.258 154.129C340.162 154.463 342.159 153.823 342.994 153.504C347.406 150.562 358.486 144.498 364 141.78C367.765 143.963 372.388 148.28 374.563 156.709C366.074 160.454 347.494 160.387 343.956 159.57C343.956 159.57 340.681 161.952 338.19 162.17C337.245 162.252 336.058 161.978 334.946 161.605C333.194 161.019 331.317 161.603 330.057 163.158C328.845 164.656 327.549 164.653 326.893 164.653C325.877 164.653 325.848 162.657 326.331 160.883Z" fill="#D4BF9E"/>
<path d="M282.556 314.403C282.386 312.353 281.948 310.403 281.294 308.598C281.17 308.254 281.037 307.914 280.896 307.582C280.795 307.338 280.686 307.098 280.574 306.86C280.448 306.592 280.317 306.325 280.182 306.066C280.031 305.78 279.876 305.499 279.716 305.223C278.924 303.871 277.996 302.647 276.952 301.591C276.95 301.586 276.945 301.584 276.94 301.581C276.572 301.208 276.186 300.857 275.792 300.527C275.484 300.271 275.164 300.028 274.839 299.798C274.374 299.469 273.897 299.166 273.403 298.897C273.219 298.795 273.034 298.698 272.845 298.606C271.278 297.833 269.587 297.356 267.813 297.247C267.547 297.23 267.278 297.223 267.009 297.223H259.741C251.111 297.223 244.114 305.792 244.114 316.363C244.114 326.933 251.111 335.503 259.741 335.503H267.009C267.278 335.503 267.547 335.495 267.813 335.478C269.584 335.369 271.278 334.892 272.845 334.119C273.032 334.027 273.219 333.93 273.403 333.828C273.897 333.557 274.374 333.257 274.839 332.927C275.164 332.697 275.481 332.457 275.792 332.198C276.189 331.868 276.572 331.517 276.94 331.144C276.945 331.142 276.947 331.137 276.952 331.134C277.999 330.078 278.927 328.854 279.716 327.503C279.879 327.226 280.034 326.948 280.182 326.659C280.317 326.398 280.448 326.134 280.574 325.865C280.686 325.627 280.792 325.387 280.896 325.143C281.037 324.808 281.17 324.472 281.294 324.128C281.95 322.323 282.386 320.37 282.556 318.323C282.609 317.678 282.636 317.026 282.636 316.365C282.636 315.704 282.609 315.047 282.556 314.403Z" fill="#233862"/>
<path d="M315.99 329.281H257.317C256.314 329.281 254.066 328.467 254.066 327.464C254.066 326.461 261.613 325.647 262.616 325.647H312.353V171.805C312.353 165.525 317.463 160.415 323.742 160.415H336.46C337.463 160.415 338.277 161.229 338.277 162.232C338.277 163.236 337.463 164.05 336.46 164.05H323.742C319.466 164.05 315.987 167.529 315.987 171.805V329.281H315.99Z" fill="#263238"/>
<path d="M265.111 329.281H222.55C221.547 329.281 220.733 328.467 220.733 327.464C220.733 326.461 221.547 325.647 222.55 325.647H261.477V171.805C261.477 165.525 266.586 160.415 272.866 160.415H285.584C286.587 160.415 287.401 161.229 287.401 162.232C287.401 163.236 286.587 164.05 285.584 164.05H272.866C268.59 164.05 265.111 167.529 265.111 171.805V329.281Z" fill="#263238"/>
<path d="M313.003 187.226H264.463C263.506 187.226 262.728 186.412 262.728 185.409C262.728 184.406 263.503 183.592 264.463 183.592H313.003C313.96 183.592 314.738 184.406 314.738 185.409C314.738 186.412 313.962 187.226 313.003 187.226Z" fill="#263238"/>
<path d="M339.45 165.259H323.745C322.073 165.259 320.716 163.902 320.716 162.23C320.716 160.558 322.073 159.202 323.745 159.202H339.45C341.122 159.202 342.479 160.558 342.479 162.23C342.479 163.904 341.122 165.259 339.45 165.259Z" fill="#8F7A61"/>
<path d="M323.745 160.413C318.027 160.413 313.283 164.648 312.477 170.146H316.169C316.93 166.664 320.038 164.047 323.745 164.047C324.749 164.047 325.563 163.233 325.563 162.23C325.563 161.227 324.749 160.413 323.745 160.413Z" fill="#263238"/>
<path d="M288.572 165.259H272.867C271.195 165.259 269.839 163.902 269.839 162.23C269.839 160.558 271.195 159.202 272.867 159.202H288.572C290.244 159.202 291.601 160.558 291.601 162.23C291.601 163.904 290.244 165.259 288.572 165.259Z" fill="#8F7A61"/>
<path d="M272.867 160.413C267.149 160.413 262.405 164.648 261.598 170.146H265.29C266.051 166.664 269.16 164.047 272.867 164.047C273.87 164.047 274.684 163.233 274.684 162.23C274.684 161.227 273.87 160.413 272.867 160.413Z" fill="#263238"/>
<path d="M253.623 271.917L314.098 270.851L314.265 325.644H253.788L253.623 271.917Z" fill="#4A75CB"/>
<path d="M235.478 272.009L283.892 271.822L284.026 325.678L235.609 325.644L235.478 272.009Z" fill="#739AF0"/>
<path d="M320.068 297.22H312.799C304.169 297.22 297.172 305.79 297.172 316.36C297.172 326.931 304.169 335.5 312.799 335.5H320.068C328.697 335.5 335.694 326.931 335.694 316.36C335.694 305.79 328.697 297.22 320.068 297.22Z" fill="#233862"/>
<path d="M320.067 335.5C328.698 335.5 335.694 326.931 335.694 316.36C335.694 305.789 328.698 297.22 320.067 297.22C311.437 297.22 304.44 305.789 304.44 316.36C304.44 326.931 311.437 335.5 320.067 335.5Z" fill="#2B478B"/>
<path d="M329.958 316.36C329.958 323.05 325.529 328.474 320.068 328.474C314.607 328.474 310.178 323.05 310.178 316.36C310.178 309.671 314.607 304.247 320.068 304.247C325.531 304.247 329.958 309.669 329.958 316.36Z" fill="#4A75CB"/>
<path d="M264.487 210.495L334.079 210.281L333.888 271.665L264.676 271.878L264.487 210.495Z" fill="#FFA412"/>
<path d="M243.721 210.602L299.13 210.388L299.283 271.772L243.874 271.985L243.721 210.602Z" fill="#FFB93E"/>
<path d="M343.957 159.57C343.957 159.57 338.062 163.582 336.504 162.594C334.946 161.605 337.594 159.364 335.092 158.555C332.586 157.748 343.957 159.57 343.957 159.57Z" fill="#D4BF9E"/>
</svg>
