<svg width="20" height="21" viewBox="0 0 20 21" fill="none" xmlns="http://www.w3.org/2000/svg">
<path d="M20 14.657C20 12.2237 18.604 10.052 16.5133 8.99561C16.4483 13.6613 12.6657 17.4439 8 17.5089C9.05638 19.5996 11.2281 20.9956 13.6614 20.9956C14.8023 20.9956 15.9118 20.6918 16.8867 20.1144L19.9723 20.9679L19.1188 17.8823C19.6961 16.9074 20 15.7979 20 14.657Z" fill="#8F7A61"/>
<path d="M15 8.4956C15 4.36003 11.6356 0.995605 7.5 0.995605C3.36442 0.995605 0 4.36003 0 8.4956C0 9.84341 0.358756 11.1557 1.04 12.3078L0.0275735 15.9679L3.68781 14.9556C4.8399 15.6368 6.15219 15.9956 7.5 15.9956C11.6356 15.9956 15 12.6312 15 8.4956ZM6.3491 6.75008H5.19821C5.19821 5.4808 6.23072 4.44829 7.5 4.44829C8.76928 4.44829 9.80179 5.4808 9.80179 6.75008C9.80179 7.39431 9.52905 8.01352 9.05326 8.4487L8.07545 9.34364V10.2411H6.92455V8.83683L8.27625 7.59962C8.51782 7.37858 8.6509 7.07692 8.6509 6.75008C8.6509 6.11544 8.13464 5.59919 7.5 5.59919C6.86536 5.59919 6.3491 6.11544 6.3491 6.75008ZM6.92455 11.392H8.07545V12.5429H6.92455V11.392Z" fill="#8F7A61"/>
</svg>
