<svg width="142" height="206" viewBox="0 0 142 206" fill="none" xmlns="http://www.w3.org/2000/svg">
<path d="M72.1076 181.022C71.9098 178.632 71.3983 176.357 70.6353 174.252C70.4912 173.85 70.3358 173.455 70.1719 173.068C70.0532 172.782 69.9261 172.502 69.7961 172.226C69.6491 171.912 69.4965 171.601 69.3383 171.299C69.1631 170.965 68.9822 170.637 68.7957 170.315C67.8716 168.738 66.7893 167.311 65.5714 166.079C65.5685 166.074 65.5629 166.071 65.5573 166.068C65.1277 165.633 64.6784 165.223 64.2178 164.839C63.8589 164.539 63.4859 164.257 63.1072 163.988C62.5647 163.604 62.008 163.251 61.4315 162.937C61.2167 162.818 61.002 162.705 60.7815 162.598C58.9532 161.696 56.9807 161.14 54.9122 161.013C54.6013 160.993 54.2877 160.984 53.974 160.984H45.4964C35.4306 160.984 27.2695 170.979 27.2695 183.309C27.2695 195.638 35.4306 205.633 45.4964 205.633H53.974C54.2877 205.633 54.6013 205.625 54.9122 205.605C56.9779 205.478 58.9532 204.921 60.7815 204.019C60.9991 203.912 61.2167 203.799 61.4315 203.68C62.008 203.364 62.5647 203.013 63.1072 202.629C63.4859 202.361 63.8561 202.081 64.2178 201.779C64.6812 201.394 65.1277 200.984 65.5573 200.549C65.5629 200.546 65.5657 200.541 65.5714 200.538C66.7921 199.306 67.8745 197.879 68.7957 196.302C68.985 195.98 69.1659 195.655 69.3383 195.319C69.4965 195.013 69.6491 194.705 69.7961 194.392C69.9261 194.115 70.0504 193.835 70.1719 193.55C70.3358 193.16 70.4912 192.767 70.6353 192.366C71.4012 190.26 71.9098 187.983 72.1076 185.595C72.1698 184.843 72.2009 184.083 72.2009 183.311C72.2009 182.54 72.1698 181.774 72.1076 181.022Z" fill="#233862"/>
<path d="M111.105 198.376H42.6712C41.5013 198.376 38.8789 197.427 38.8789 196.257C38.8789 195.087 47.6815 194.137 48.8514 194.137H106.864V14.7002C106.864 7.37554 112.823 1.41577 120.148 1.41577H134.981C136.151 1.41577 137.101 2.36526 137.101 3.53518C137.101 4.70509 136.151 5.65458 134.981 5.65458H120.148C115.16 5.65458 111.103 9.71253 111.103 14.7002V198.376H111.105Z" fill="#232323"/>
<path d="M51.7615 198.376H2.1194C0.949493 198.376 0 197.427 0 196.257C0 195.087 0.949493 194.137 2.1194 194.137H47.5227V14.7002C47.5227 7.37554 53.4824 1.41577 60.8071 1.41577H75.6401C76.81 1.41577 77.7595 2.36526 77.7595 3.53518C77.7595 4.70509 76.81 5.65458 75.6401 5.65458H60.8071C55.8194 5.65458 51.7615 9.71253 51.7615 14.7002V198.376Z" fill="#232323"/>
<path d="M107.62 32.6868H51.0038C49.8876 32.6868 48.9805 31.7373 48.9805 30.5674C48.9805 29.3975 49.8848 28.448 51.0038 28.448H107.62C108.736 28.448 109.643 29.3975 109.643 30.5674C109.643 31.7373 108.739 32.6868 107.62 32.6868Z" fill="#232323"/>
<path d="M138.467 7.06468H120.15C118.2 7.06468 116.617 5.48219 116.617 3.53234C116.617 1.58249 118.2 0 120.15 0H138.467C140.417 0 141.999 1.58249 141.999 3.53234C141.999 5.48502 140.417 7.06468 138.467 7.06468Z" fill="#8F7A61"/>
<path d="M120.151 1.41309C113.482 1.41309 107.949 6.35272 107.008 12.7646H111.314C112.202 8.70385 115.827 5.65189 120.151 5.65189C121.321 5.65189 122.27 4.7024 122.27 3.53249C122.27 2.36258 121.321 1.41309 120.151 1.41309Z" fill="#232323"/>
<path d="M79.127 7.06468H60.8097C58.8598 7.06468 57.2773 5.48219 57.2773 3.53234C57.2773 1.58249 58.8598 0 60.8097 0H79.127C81.0769 0 82.6593 1.58249 82.6593 3.53234C82.6593 5.48502 81.0769 7.06468 79.127 7.06468Z" fill="#8F7A61"/>
<path d="M60.8072 1.41309C54.1381 1.41309 48.6051 6.35272 47.6641 12.7646H51.9707C52.858 8.70385 56.4836 5.65189 60.8072 5.65189C61.9771 5.65189 62.9266 4.7024 62.9266 3.53249C62.9266 2.36258 61.9771 1.41309 60.8072 1.41309Z" fill="#232323"/>
<path d="M38.3633 131.468L108.9 130.224L109.095 194.134H38.5554L38.3633 131.468Z" fill="#4A75CB"/>
<path d="M17.1992 131.575L73.6686 131.358L73.824 194.174L17.3518 194.134L17.1992 131.575Z" fill="#739AF0"/>
<path d="M115.861 160.981H107.383C97.3174 160.981 89.1562 170.977 89.1562 183.306C89.1562 195.635 97.3174 205.63 107.383 205.63H115.861C125.926 205.63 134.088 195.635 134.088 183.306C134.088 170.977 125.926 160.981 115.861 160.981Z" fill="#233862"/>
<path d="M115.86 205.63C125.926 205.63 134.087 195.635 134.087 183.306C134.087 170.976 125.926 160.981 115.86 160.981C105.793 160.981 97.6328 170.976 97.6328 183.306C97.6328 195.635 105.793 205.63 115.86 205.63Z" fill="#2B478B"/>
<path d="M127.395 183.306C127.395 191.108 122.229 197.435 115.859 197.435C109.49 197.435 104.324 191.108 104.324 183.306C104.324 175.504 109.49 169.176 115.859 169.176C122.232 169.176 127.395 175.501 127.395 183.306Z" fill="#4A75CB"/>
<path d="M51.0312 59.8266L132.202 59.5779L131.978 131.174L51.2517 131.423L51.0312 59.8266Z" fill="#FFA412"/>
<path d="M26.8125 59.9506L91.4402 59.7019L91.6182 131.298L26.9905 131.547L26.8125 59.9506Z" fill="#FFB93E"/>
</svg>
