<svg width="604" height="395" viewBox="0 0 604 395" fill="none" xmlns="http://www.w3.org/2000/svg">
<path opacity="0.1" d="M110.21 334.986C121.06 327.416 124.71 318.086 125.94 304.916C127.17 291.746 122.35 278.126 113.1 268.666C105.39 260.786 94.77 255.606 89.03 246.186C82.91 236.156 83.12 222.476 74.62 214.356C68.78 208.776 60.24 207.286 53.14 203.426C47.35 200.276 42.58 195.576 37.28 191.656C31.98 187.736 25.69 184.486 19.12 184.976C9.21 185.716 1.49 195.456 1.02 205.386C0.549996 215.316 6.09 224.816 13.67 231.246C19.17 235.916 25.94 239.486 29.54 245.726C36.3 257.456 29.24 273.756 36.5 285.186C41.8 293.536 53.83 297.526 55.5 307.276C56.11 310.866 55.1 314.516 55.13 318.156C55.22 329.526 65.85 338.696 77.04 340.716C88.24 342.746 99.66 339.236 110.21 334.986Z" fill="#8F7A61"/>
<path d="M40.6109 224.956C40.5809 224.986 40.9909 225.446 41.8009 226.286C42.7209 227.216 43.9109 228.416 45.4009 229.906C46.9909 231.446 48.9109 233.356 50.9909 235.706C53.1009 238.036 55.6109 240.586 58.0809 243.686C59.3509 245.206 60.6709 246.796 62.0509 248.456C63.4209 250.116 64.7109 251.956 66.1309 253.806C69.0109 257.456 71.7209 261.626 74.6609 265.946C80.2909 274.746 85.9409 284.766 90.9309 295.746C95.8209 306.776 99.5709 317.656 102.411 327.706C103.691 332.766 105.011 337.566 105.821 342.136C106.261 344.416 106.781 346.606 107.111 348.736C107.431 350.866 107.741 352.916 108.041 354.876C108.721 358.776 108.951 362.346 109.301 365.476C109.671 368.596 109.831 371.296 109.931 373.516C110.061 375.616 110.161 377.306 110.251 378.606C110.341 379.766 110.411 380.386 110.451 380.386C110.501 380.386 110.521 379.776 110.521 378.606C110.501 377.296 110.481 375.606 110.461 373.496C110.451 371.276 110.371 368.556 110.061 365.416C109.781 362.276 109.621 358.676 109.001 354.756C108.731 352.786 108.451 350.726 108.161 348.576C107.851 346.426 107.361 344.226 106.941 341.926C106.161 337.316 104.881 332.486 103.631 327.386C100.831 317.256 97.1009 306.296 92.1809 295.196C87.1509 284.146 81.4309 274.086 75.7209 265.266C72.7409 260.936 69.9809 256.776 67.0409 253.136C65.6009 251.296 64.2809 249.466 62.8809 247.806C61.4709 246.166 60.1209 244.586 58.8209 243.076C56.3009 240.006 53.7209 237.496 51.5509 235.206C49.4009 232.896 47.4309 231.036 45.7709 229.546C44.2109 228.126 42.9609 226.986 41.9909 226.106C41.1109 225.316 40.6409 224.926 40.6109 224.956Z" fill="#F8F4EE"/>
<path d="M596.542 140.426C596.542 140.426 587.002 134.116 575.372 156.936C563.742 179.756 559.332 192.916 559.332 192.916C559.332 192.916 556.262 197.696 552.972 194.576C549.692 191.456 545.192 182.586 539.612 184.186C533.822 185.846 531.912 192.306 533.022 201.796C534.122 211.286 535.782 232.176 535.922 234.066C536.062 235.916 535.002 238.656 532.422 236.886C529.842 235.116 515.012 218.596 507.592 226.106C500.172 233.616 507.592 259.556 508.352 262.406C509.112 265.256 508.552 266.476 507.192 267.186C505.842 267.896 501.372 261.866 496.962 257.346C492.552 252.816 486.642 248.346 482.722 253.036C478.802 257.726 477.552 277.196 496.082 308.806L505.622 322.896L522.692 321.946C559.092 317.696 573.872 304.966 575.262 299.016C576.652 293.066 569.522 291.046 563.252 290.246C556.982 289.446 549.492 289.516 549.232 288.006C548.982 286.496 549.612 285.316 552.352 284.206C555.082 283.096 580.262 273.396 581.792 262.956C583.322 252.516 561.202 250.616 558.232 249.626C555.262 248.636 556.812 246.136 558.372 245.136C559.962 244.116 577.642 232.856 585.882 228.016C594.122 223.176 598.132 217.766 595.972 212.146C593.882 206.726 584.102 208.476 579.622 207.736C575.152 206.996 577.112 201.666 577.112 201.666C577.112 201.666 584.962 190.226 596.172 167.196C607.382 144.166 596.312 140.316 596.312 140.316" fill="#EBEBEB"/>
<path d="M586.092 160.846C586.092 160.846 586.032 161.016 585.882 161.336C585.722 161.676 585.502 162.156 585.212 162.766C584.602 164.036 583.732 165.876 582.602 168.236C580.332 172.976 576.992 179.826 572.842 188.256C564.542 205.136 552.882 228.356 539.912 253.956C526.942 279.566 515.232 302.756 506.842 319.596C502.662 328.006 499.282 334.816 496.932 339.546C495.772 341.886 494.862 343.706 494.232 344.966C493.922 345.566 493.692 346.036 493.522 346.366C493.362 346.686 493.262 346.836 493.262 346.836C493.262 346.836 493.322 346.666 493.472 346.346C493.632 346.006 493.852 345.536 494.142 344.916C494.752 343.646 495.622 341.806 496.752 339.456C499.022 334.716 502.362 327.876 506.512 319.436C514.812 302.556 526.482 279.336 539.442 253.726C552.402 228.126 564.122 204.936 572.502 188.096C576.682 179.686 580.062 172.876 582.412 168.146C583.572 165.806 584.482 163.986 585.112 162.726C585.422 162.126 585.652 161.656 585.822 161.326C585.992 160.996 586.092 160.846 586.092 160.846Z" fill="#E0E0E0"/>
<path d="M545.412 196.826C545.452 196.816 545.602 197.226 545.842 197.976C546.092 198.726 546.412 199.826 546.802 201.186C547.572 203.906 548.542 207.696 549.532 211.886C550.492 216.026 551.372 219.776 552.032 222.636C552.342 223.926 552.602 225.016 552.812 225.886C553.002 226.656 553.082 227.086 553.052 227.096C553.022 227.106 552.862 226.696 552.612 225.946C552.372 225.196 552.042 224.096 551.672 222.736C550.932 220.006 550.012 216.206 549.012 212.016C548.022 207.886 547.122 204.146 546.432 201.286C546.112 199.996 545.852 198.916 545.632 198.036C545.462 197.266 545.372 196.836 545.412 196.826Z" fill="#E0E0E0"/>
<path d="M554.613 227.406C554.573 227.266 562.283 224.926 571.843 222.176C581.403 219.426 589.183 217.316 589.223 217.456C589.263 217.596 581.553 219.936 571.993 222.686C562.433 225.436 554.653 227.546 554.613 227.406Z" fill="#E0E0E0"/>
<path d="M532.934 265.826C532.934 265.786 533.384 265.766 534.194 265.766C535.114 265.766 536.254 265.776 537.614 265.776C540.494 265.786 544.474 265.776 548.874 265.606C553.264 265.446 557.244 265.166 560.114 264.936C561.464 264.826 562.604 264.736 563.514 264.666C564.314 264.606 564.764 264.596 564.774 264.626C564.774 264.666 564.344 264.746 563.544 264.866C562.744 264.986 561.584 265.146 560.154 265.306C557.284 265.626 553.304 265.976 548.904 266.136C544.504 266.306 540.504 266.256 537.624 266.156C536.184 266.096 535.014 266.036 534.214 265.976C533.374 265.916 532.934 265.866 532.934 265.826Z" fill="#E0E0E0"/>
<path d="M518.521 240.006C518.551 239.986 518.791 240.326 519.191 240.956C519.641 241.686 520.191 242.586 520.841 243.646C522.211 245.936 524.071 249.106 526.101 252.636C528.131 256.166 529.941 259.366 531.231 261.706C531.821 262.796 532.321 263.726 532.731 264.486C533.071 265.146 533.251 265.526 533.221 265.536C533.191 265.556 532.951 265.216 532.551 264.586C532.101 263.856 531.551 262.956 530.901 261.896C529.531 259.606 527.671 256.436 525.641 252.906C523.611 249.376 521.801 246.176 520.521 243.836C519.931 242.746 519.431 241.816 519.021 241.056C518.661 240.396 518.481 240.026 518.521 240.006Z" fill="#E0E0E0"/>
<path d="M495.061 271.496C495.091 271.476 495.391 271.916 495.901 272.726C496.451 273.626 497.171 274.786 498.021 276.176C499.791 279.096 502.211 283.146 504.851 287.646C507.491 292.136 509.861 296.226 511.551 299.196C512.351 300.616 513.011 301.806 513.531 302.726C513.991 303.566 514.221 304.036 514.191 304.056C514.161 304.076 513.861 303.636 513.351 302.826C512.801 301.926 512.081 300.776 511.231 299.386C509.461 296.466 507.041 292.416 504.401 287.916C501.761 283.426 499.391 279.336 497.701 276.366C496.901 274.946 496.241 273.756 495.721 272.836C495.271 271.986 495.031 271.516 495.061 271.496Z" fill="#E0E0E0"/>
<path d="M513.961 303.136C513.961 303.096 514.531 303.056 515.551 303.026C516.671 302.986 518.121 302.946 519.881 302.886C523.541 302.766 528.581 302.576 534.151 302.206C539.721 301.846 544.751 301.386 548.391 301.036C550.141 300.866 551.591 300.726 552.701 300.616C553.721 300.526 554.281 300.486 554.291 300.526C554.291 300.566 553.741 300.666 552.731 300.826C551.721 300.986 550.251 301.186 548.431 301.416C544.801 301.866 539.761 302.386 534.181 302.746C528.601 303.116 523.541 303.246 519.881 303.276C518.051 303.286 516.571 303.276 515.541 303.246C514.531 303.206 513.961 303.176 513.961 303.136Z" fill="#E0E0E0"/>
<path opacity="0.3" d="M390.94 25.6157H459.59C462.58 25.6157 465 28.0357 465 31.0257V76.5157C465 79.5057 462.58 81.9257 459.59 81.9257H423.44L406.25 99.1157V81.9257H390.94C388.72 81.9257 386.93 80.1257 386.93 77.9157V29.6257C386.93 27.4157 388.73 25.6157 390.94 25.6157Z" fill="#8F7A61"/>
<path d="M413.721 54.7257C413.721 56.9557 411.911 58.7657 409.681 58.7657C407.451 58.7657 405.641 56.9557 405.641 54.7257C405.641 52.4957 407.451 50.6857 409.681 50.6857C411.911 50.6857 413.721 52.4957 413.721 54.7257Z" fill="#FAFAFA"/>
<path d="M429.701 54.7257C429.701 56.9557 427.891 58.7657 425.661 58.7657C423.431 58.7657 421.621 56.9557 421.621 54.7257C421.621 52.4957 423.431 50.6857 425.661 50.6857C427.891 50.6857 429.701 52.4957 429.701 54.7257Z" fill="#FAFAFA"/>
<path d="M445.682 54.7257C445.682 56.9557 443.872 58.7657 441.642 58.7657C439.412 58.7657 437.602 56.9557 437.602 54.7257C437.602 52.4957 439.412 50.6857 441.642 50.6857C443.872 50.6857 445.682 52.4957 445.682 54.7257Z" fill="#FAFAFA"/>
<path d="M502.51 369.086C485.33 352.386 485.03 326.536 489.48 304.066C490.22 300.316 490.46 296.276 492.79 293.256C495.12 290.236 499.68 288.656 502.8 290.796C505.39 292.566 506.08 296.026 507.2 298.976C508.7 302.896 511.32 306.376 514.67 308.866C516.87 310.506 519.72 311.746 522.3 310.826C525.85 309.556 526.96 305.126 527.55 301.376C528.65 294.376 529.74 287.376 530.84 280.376C531.43 276.626 532.04 272.786 533.79 269.416C535.54 266.046 538.65 263.156 542.38 262.736C546.11 262.316 550.19 265.096 550.34 268.886C550.4 270.466 549.83 271.996 549.69 273.576C549.54 275.146 549.98 276.996 551.39 277.666C552.82 278.346 554.49 277.526 555.79 276.616C560.28 273.456 563.7 269.006 566.95 264.556C570.2 260.106 573.39 255.526 577.58 251.966C581.77 248.406 587.16 245.926 592.58 246.496C598 247.066 603.19 251.316 603.68 256.816C604.18 262.326 600.22 267.186 596.16 270.926C590.14 276.466 583.34 281.126 576.02 284.706C574.7 285.356 573.27 286.046 572.59 287.366C571.37 289.736 573.33 292.606 575.67 293.826C578.31 295.216 581.4 295.416 584.26 296.236C587.13 297.056 590.09 298.866 590.74 301.806C591.65 305.886 587.79 309.386 584.21 311.506C577.03 315.746 569.14 318.736 560.98 320.306C558.06 320.866 555.01 321.276 552.47 322.856C549.93 324.436 548.04 327.586 548.95 330.446C549.86 333.306 553.18 334.716 556.16 334.656C559.14 334.596 561.98 333.446 564.9 332.856C570.37 331.746 576.97 333.186 579.55 338.186C581.24 341.466 580.77 345.576 579.1 348.886C577.43 352.196 574.72 354.846 571.9 357.226C562.06 365.576 550.21 371.656 537.57 373.846C524.95 376.046 513.69 375.366 502.51 369.086Z" fill="#006837"/>
<path d="M499.492 385.786C501.772 376.966 505.452 366.716 510.662 355.866C515.842 345.006 522.512 333.576 529.902 321.856C531.762 318.936 533.592 316.046 535.402 313.196C537.212 310.356 539.012 307.546 540.942 304.906C544.772 299.606 548.862 294.796 552.892 290.356C556.912 285.906 560.892 281.836 564.642 278.056C568.402 274.286 571.972 270.826 575.362 267.826C582.122 261.786 588.142 257.566 592.392 254.836C594.512 253.466 596.192 252.456 597.342 251.786C597.892 251.466 598.332 251.216 598.652 251.036C598.952 250.866 599.102 250.786 599.112 250.806C599.122 250.816 598.972 250.916 598.692 251.106C598.372 251.306 597.952 251.576 597.412 251.916C596.292 252.626 594.632 253.666 592.532 255.076C588.332 257.866 582.382 262.136 575.682 268.206C572.322 271.226 568.782 274.696 565.042 278.476C561.312 282.276 557.352 286.356 553.352 290.796C549.352 295.236 545.292 300.036 541.482 305.316C539.572 307.946 537.792 310.736 535.972 313.586C534.162 316.436 532.332 319.316 530.472 322.236C523.092 333.946 516.422 345.346 511.222 356.156C506.002 366.956 502.282 377.146 499.952 385.916" fill="#263238"/>
<path d="M541.139 304.906C541.089 304.906 541.059 304.316 541.029 303.246C540.999 302.176 541.009 300.626 541.049 298.716C541.129 294.896 541.419 289.616 541.759 283.806C542.099 277.986 542.309 272.726 542.329 268.916C542.339 267.006 542.339 265.466 542.329 264.406C542.319 263.336 542.339 262.746 542.389 262.746C542.439 262.746 542.509 263.326 542.609 264.396C542.709 265.456 542.789 267.006 542.839 268.916C542.949 272.736 542.809 278.026 542.469 283.846C542.119 289.586 541.799 294.766 541.559 298.736C541.459 300.526 541.379 302.036 541.309 303.246C541.239 304.316 541.179 304.906 541.139 304.906Z" fill="#263238"/>
<path d="M590.831 303.756C590.821 303.806 590.121 303.776 588.871 303.676C587.611 303.586 585.801 303.446 583.551 303.336C579.051 303.096 572.831 302.976 565.961 303.146C559.091 303.326 552.881 303.756 548.391 304.196C546.151 304.396 544.331 304.616 543.081 304.756C541.831 304.906 541.131 304.956 541.121 304.916C541.111 304.866 541.801 304.716 543.041 304.486C544.281 304.266 546.091 303.976 548.331 303.706C552.811 303.136 559.041 302.626 565.931 302.446C572.821 302.276 579.061 302.476 583.561 302.846C585.811 303.016 587.631 303.236 588.881 303.406C590.151 303.586 590.841 303.706 590.831 303.756Z" fill="#263238"/>
<path d="M511.39 355.076C511.37 355.086 511.29 354.866 511.16 354.436C511.01 353.926 510.84 353.306 510.62 352.556C510.16 350.926 509.55 348.536 508.84 345.586C507.41 339.686 505.7 331.466 503.93 322.366C502.16 313.266 500.53 305.046 499.22 299.116C498.58 296.236 498.05 293.866 497.66 292.106C497.49 291.346 497.36 290.716 497.25 290.196C497.16 289.756 497.13 289.526 497.15 289.516C497.17 289.516 497.25 289.736 497.38 290.156C497.53 290.666 497.7 291.286 497.92 292.036C498.38 293.666 498.99 296.056 499.7 299.006C501.13 304.906 502.84 313.126 504.61 322.226C506.38 331.316 508.01 339.546 509.32 345.466C509.96 348.346 510.49 350.716 510.88 352.476C511.05 353.236 511.18 353.876 511.29 354.386C511.38 354.836 511.42 355.076 511.39 355.076Z" fill="#263238"/>
<path d="M578.851 344.866C578.851 344.886 578.621 344.946 578.171 345.026C577.641 345.116 576.991 345.216 576.211 345.346C574.401 345.626 571.961 345.996 568.981 346.456C562.881 347.396 554.471 348.776 545.181 350.326C535.881 351.876 527.451 353.186 521.331 353.996C518.271 354.406 515.791 354.706 514.071 354.876C513.281 354.956 512.621 355.016 512.091 355.066C511.641 355.106 511.401 355.106 511.391 355.086C511.391 355.066 511.621 355.006 512.071 354.926C512.601 354.836 513.251 354.736 514.031 354.606C515.841 354.326 518.281 353.956 521.251 353.496C527.351 352.566 535.761 351.176 545.061 349.626C554.351 348.076 562.781 346.766 568.911 345.956C571.971 345.546 574.451 345.246 576.171 345.076C576.961 344.996 577.621 344.936 578.151 344.886C578.611 344.846 578.841 344.846 578.851 344.866Z" fill="#263238"/>
<path d="M41.101 290.196C46.511 288.746 52.421 290.116 57.181 293.056C61.941 296.006 65.661 300.406 68.631 305.156C74.371 314.346 76.341 326.656 76.541 337.496C64.521 336.936 54.301 327.436 49.421 322.286C41.701 314.136 32.701 294.746 41.101 290.196Z" fill="#39B54A"/>
<path d="M95.8498 344.846C90.9298 340.986 88.7598 334.186 89.8298 328.016C90.8998 321.856 94.9098 316.416 100.09 312.906C102.49 311.286 105.45 310.006 108.22 310.836C110.81 311.616 112.6 314.146 113.11 316.806C113.62 319.466 113.04 322.216 112.14 324.766C109.05 333.516 104.46 341.416 95.8498 344.846Z" fill="#39B54A"/>
<path d="M106.77 379.136C106.7 379.176 106.27 378.486 105.57 377.196C104.87 375.916 103.9 374.036 102.77 371.676C100.54 366.976 97.5398 360.286 96.1098 352.336C94.6898 344.376 95.7298 336.876 97.7298 331.986C98.7098 329.526 99.7998 327.666 100.67 326.486C101.54 325.296 102.11 324.716 102.17 324.756C102.38 324.896 100.24 327.406 98.5398 332.286C96.7998 337.116 95.9298 344.376 97.3098 352.136C98.6998 359.896 101.53 366.556 103.56 371.336C105.62 376.106 106.93 379.056 106.77 379.136Z" fill="#263238"/>
<path d="M49.261 304.366C49.321 304.316 50.251 305.276 51.871 307.066C53.491 308.856 55.791 311.486 58.601 314.766C64.221 321.326 71.831 330.506 79.981 340.856C88.131 351.206 95.281 360.766 100.341 367.756C102.871 371.256 104.891 374.106 106.251 376.096C107.611 378.086 108.331 379.216 108.271 379.266C108.201 379.316 107.351 378.286 105.871 376.376C104.271 374.296 102.181 371.556 99.661 368.266C94.431 361.406 87.181 351.946 79.041 341.606C70.901 331.266 63.401 322.006 57.961 315.316C55.351 312.086 53.181 309.416 51.531 307.376C50.001 305.486 49.201 304.416 49.261 304.366Z" fill="#263238"/>
<path d="M87.7304 358.206C77.4304 349.966 63.0104 347.166 50.3804 350.966C47.1604 351.936 43.6004 353.896 43.2804 357.236C42.9604 360.586 46.1004 363.206 49.1104 364.696C61.6504 370.926 77.9304 368.546 88.1704 359.006" fill="#39B54A"/>
<path d="M58.3715 357.086C58.3515 357.006 59.0915 356.786 60.4615 356.456C61.1415 356.276 61.9815 356.096 62.9815 355.986C63.9715 355.866 65.1015 355.656 66.3615 355.646C68.8715 355.466 71.8915 355.586 75.1915 356.036C78.4815 356.556 82.0615 357.436 85.6615 358.826C89.2415 360.266 92.4515 362.076 95.2115 363.956C97.9315 365.896 100.211 367.866 101.921 369.716C102.831 370.586 103.511 371.506 104.151 372.276C104.801 373.036 105.291 373.746 105.671 374.336C106.441 375.506 106.831 376.176 106.771 376.226C106.581 376.366 104.861 373.776 101.321 370.326C99.5715 368.586 97.2815 366.726 94.5915 364.886C91.8615 363.106 88.7215 361.376 85.2315 359.966C81.7215 358.606 78.2415 357.716 75.0415 357.146C71.8215 356.656 68.8815 356.446 66.4115 356.516C61.4415 356.606 58.4115 357.316 58.3715 357.086Z" fill="#263238"/>
<path d="M222.86 32.3757L214.47 39.3857L210.39 37.5657L209.55 34.1057C209.55 34.1057 218.56 27.4557 218.22 27.1057C217.4 26.2457 216.26 25.8457 215.12 25.6857C212.97 25.3757 210.79 26.0257 209.04 27.3157L207.45 28.4957C204.51 30.6757 202.99 34.3257 203.62 37.9357C203.65 38.1357 203.68 38.2457 203.68 38.2457L178.81 58.9057C174.95 57.6157 170.67 59.4557 168.98 63.2457C167.18 67.2857 169 72.0157 173.04 73.8157C177.08 75.6157 181.81 73.7957 183.61 69.7557C184.34 68.1257 184.46 66.3857 184.1 64.7657L208.69 44.1157C209.64 45.0257 210.94 45.3557 212.23 45.4057C214.72 45.4957 217.12 44.4457 218.9 42.7057L220.98 40.6757C224.57 36.9957 222.86 32.3757 222.86 32.3757ZM174.82 69.8457C172.97 69.0257 172.14 66.8557 172.96 65.0057C173.78 63.1557 175.95 62.3257 177.8 63.1457C179.65 63.9657 180.48 66.1357 179.66 67.9857C178.84 69.8457 176.68 70.6757 174.82 69.8457Z" fill="#8F7A61"/>
<path d="M260.52 80.0757C259.49 80.1657 250.64 80.9057 233.73 82.3157L233.83 82.2657C229.04 87.9557 221.89 93.8257 212.31 97.2457C207.54 98.9257 202.22 100.016 196.58 100.116C190.95 100.156 185.03 99.3857 179.22 97.3657C173.42 95.3757 167.75 92.1957 162.78 87.8757C157.81 83.5657 153.53 78.1057 150.5 71.8257C147.46 65.5557 145.69 58.4657 145.53 51.1757C145.45 50.2657 145.5 49.3557 145.56 48.4357C145.61 47.5157 145.65 46.6057 145.7 45.6857C145.7 44.7657 145.93 43.8557 146.04 42.9457C146.18 42.0357 146.32 41.1157 146.46 40.1957C146.65 39.2857 146.91 38.3957 147.13 37.4857C147.38 36.5857 147.56 35.6657 147.87 34.7857C148.19 33.9057 148.51 33.0257 148.84 32.1357L149.33 30.8057C149.49 30.3657 149.73 29.9557 149.92 29.5257C152.93 22.8757 157.36 17.0157 162.66 12.3657C167.96 7.71572 174.14 4.28572 180.59 2.26572C187.04 0.225724 193.75 -0.374276 200.12 0.215724C206.5 0.805724 212.56 2.60572 217.91 5.30572C228.64 10.7157 236.52 19.4357 240.69 28.5357C241.24 29.6657 241.8 30.7757 242.17 31.9357C242.58 33.0857 243.01 34.2057 243.39 35.3257C243.94 37.6257 244.66 39.8257 244.89 42.0457C245.04 43.1457 245.25 44.2257 245.35 45.2957C245.4 46.3657 245.45 47.4257 245.5 48.4557C245.52 48.9757 245.55 49.4857 245.57 49.9957C245.56 50.5057 245.53 51.0057 245.51 51.5057C245.46 52.4957 245.41 53.4757 245.37 54.4257L245.35 54.3357C254.86 70.4557 259.96 79.1257 260.52 80.0757C259.95 79.1357 254.76 70.5157 245.11 54.4957L245.09 54.4557V54.4057C245.13 53.4557 245.17 52.4857 245.22 51.4957C245.24 51.0057 245.27 50.5057 245.28 49.9957C245.25 49.4957 245.23 48.9857 245.2 48.4657C245.15 47.4357 245.09 46.3957 245.04 45.3257C244.94 44.2657 244.73 43.1957 244.58 42.1057C244.35 39.9057 243.62 37.7257 243.07 35.4357C242.69 34.3257 242.26 33.2057 241.85 32.0657C241.48 30.9057 240.92 29.8157 240.37 28.6957C236.2 19.6757 228.37 11.0457 217.73 5.70572C212.42 3.04572 206.42 1.26572 200.1 0.695724C193.79 0.115724 187.15 0.715724 180.77 2.73572C174.39 4.74572 168.27 8.13572 163.03 12.7457C157.78 17.3457 153.41 23.1457 150.42 29.7257C150.23 30.1557 149.99 30.5557 149.83 30.9957L149.35 32.3057C149.03 33.1757 148.71 34.0557 148.39 34.9257C148.08 35.7957 147.91 36.7157 147.66 37.6057C147.44 38.5057 147.18 39.3857 146.99 40.2857C146.85 41.1957 146.71 42.1057 146.57 43.0057C146.46 43.9157 146.23 44.8057 146.23 45.7257C146.18 46.6357 146.14 47.5457 146.09 48.4457C146.04 49.3557 145.98 50.2557 146.06 51.1557C146.22 58.3757 147.96 65.3957 150.97 71.5957C153.97 77.8157 158.19 83.2157 163.11 87.4957C168.03 91.7857 173.63 94.9357 179.38 96.9157C185.13 98.9157 191 99.6957 196.58 99.6757C202.17 99.5957 207.45 98.5257 212.19 96.8757C221.7 93.5057 228.83 87.7057 233.62 82.0757L233.66 82.0257H233.72C250.63 80.7957 259.49 80.1457 260.52 80.0757Z" fill="#263238"/>
<path d="M493.69 390.526H114.8C106.75 390.526 100.23 384.006 100.23 375.956V135.266C100.23 127.216 106.75 120.696 114.8 120.696H493.69C501.74 120.696 508.26 127.216 508.26 135.266V375.956C508.26 384.006 501.74 390.526 493.69 390.526Z" fill="#232323"/>
<path d="M508.01 394.176H101.53C91.7005 394.176 83.7305 386.206 83.7305 376.376V370.566H525.8V376.376C525.8 386.206 517.84 394.176 508.01 394.176Z" fill="#232323"/>
<path d="M496.73 131.426H111.75V359.286H496.73V131.426Z" fill="#F8F4EE"/>
<path d="M264.59 370.566C264.58 370.566 264.73 370.556 265.01 370.556C265.32 370.556 265.75 370.546 266.3 370.546C267.47 370.536 269.16 370.526 271.33 370.516C275.75 370.496 282.11 370.476 289.98 370.436C305.86 370.406 327.83 370.356 352.35 370.306H352.81L352.58 370.706C351.8 372.046 350.95 373.496 350.1 374.946C349.21 376.466 348.33 377.986 347.48 379.426L347.4 379.556H347.25C313.33 379.496 284.36 379.436 270.06 379.416H269.99L269.96 379.356C268.2 376.496 266.85 374.296 265.92 372.786C265.48 372.066 265.14 371.516 264.9 371.116C264.69 370.746 264.59 370.566 264.59 370.566C264.59 370.566 264.73 370.766 264.97 371.146C265.23 371.536 265.58 372.096 266.05 372.816C267 374.286 268.38 376.436 270.17 379.236L270.07 379.176C284.37 379.146 313.34 379.096 347.26 379.036L347.03 379.166C347.88 377.716 348.76 376.206 349.65 374.686C350.5 373.236 351.34 371.786 352.13 370.446L352.36 370.846C327.94 370.796 306.06 370.746 290.25 370.716C282.34 370.686 275.95 370.656 271.51 370.636C269.31 370.626 267.6 370.616 266.4 370.606C265.83 370.596 265.39 370.596 265.06 370.596C264.76 370.576 264.59 370.566 264.59 370.566Z" fill="#8F7A61"/>
<path opacity="0.2" fill-rule="evenodd" clip-rule="evenodd" d="M252.631 173.806C253.341 172.856 254.161 172.016 255.081 171.306L254.501 168.116L259.431 166.016L261.331 168.646C262.481 168.476 263.651 168.466 264.831 168.606L266.671 165.936L271.651 167.936L271.141 171.136C272.091 171.846 272.931 172.666 273.641 173.586L276.831 173.006L278.931 177.936L276.301 179.836C276.471 180.986 276.481 182.156 276.341 183.336L279.011 185.176L277.011 190.156L273.811 189.646C273.101 190.596 272.281 191.436 271.361 192.146L271.941 195.336L267.011 197.436L265.111 194.806C263.971 194.976 262.791 194.986 261.611 194.846L259.771 197.516L254.791 195.516L255.301 192.316C254.351 191.606 253.511 190.786 252.801 189.866L249.611 190.446L247.511 185.516L250.141 183.616C249.971 182.476 249.961 181.296 250.101 180.116L247.441 178.276L249.441 173.296L252.631 173.806ZM257.961 179.356C256.781 182.306 258.201 185.656 261.151 186.836C264.101 188.016 267.451 186.586 268.631 183.646C269.811 180.696 268.381 177.346 265.441 176.166C262.501 174.976 259.151 176.406 257.961 179.356Z" fill="#8F7A61"/>
<path fill-rule="evenodd" clip-rule="evenodd" d="M232.642 277.226C234.692 274.476 237.082 272.056 239.732 269.986L238.042 260.746L252.332 254.646L257.832 262.256C261.152 261.776 264.552 261.726 267.962 262.146L273.302 254.426L287.722 260.216L286.232 269.486C288.982 271.536 291.402 273.936 293.472 276.576L302.712 274.886L308.812 289.176L301.202 294.676C301.682 297.996 301.732 301.396 301.312 304.806L309.032 310.146L303.242 324.566L293.972 323.076C291.922 325.826 289.522 328.246 286.882 330.316L288.572 339.556L274.282 345.656L268.782 338.046C265.462 338.526 262.062 338.576 258.652 338.156L253.312 345.876L238.892 340.086L240.382 330.816C237.632 328.766 235.212 326.376 233.142 323.726L223.902 325.416L217.802 311.126L225.412 305.626C224.932 302.306 224.882 298.906 225.302 295.496L217.582 290.156L223.372 275.736L232.642 277.226ZM248.102 293.286C244.672 301.826 248.812 311.536 257.352 314.966C265.892 318.396 275.602 314.256 279.032 305.716C282.462 297.176 278.322 287.466 269.782 284.036C261.242 280.596 251.532 284.746 248.102 293.286Z" fill="#F5F5F5"/>
<path d="M168.979 305.356C168.979 305.356 169.169 304.546 169.999 303.316C170.819 302.116 172.439 300.486 175.039 299.736C176.319 299.376 177.819 299.226 179.369 299.546C180.909 299.866 182.519 300.546 183.829 301.756C184.499 302.336 185.089 303.046 185.579 303.836C186.079 304.626 186.459 305.506 186.699 306.446C187.209 308.316 187.079 310.416 186.329 312.336C185.549 314.236 184.189 315.846 182.519 316.846C181.699 317.366 180.809 317.736 179.909 317.956C179.009 318.196 178.089 318.296 177.199 318.246C175.409 318.206 173.779 317.586 172.449 316.746C171.109 315.896 170.129 314.756 169.449 313.606C168.089 311.266 168.049 308.966 168.289 307.536C168.559 306.076 168.979 305.356 168.979 305.356C169.039 305.376 168.689 306.126 168.509 307.566C168.329 308.976 168.439 311.196 169.789 313.416C170.459 314.506 171.419 315.586 172.699 316.376C173.979 317.156 175.539 317.726 177.229 317.756C178.069 317.796 178.939 317.686 179.789 317.466C180.639 317.246 181.479 316.896 182.259 316.406C183.829 315.456 185.109 313.936 185.849 312.136C186.559 310.326 186.689 308.346 186.209 306.576C185.989 305.686 185.629 304.846 185.169 304.096C184.709 303.346 184.159 302.666 183.519 302.116C182.279 300.966 180.759 300.296 179.289 299.976C177.819 299.656 176.379 299.776 175.139 300.096C172.639 300.766 171.019 302.296 170.169 303.436C169.299 304.606 169.039 305.386 168.979 305.356Z" fill="#8F7A61"/>
<path d="M160.431 296.476C160.431 296.486 160.321 296.476 160.111 296.446C159.871 296.416 159.551 296.366 159.141 296.306C158.251 296.176 156.961 295.986 155.301 295.736L155.391 295.686C154.581 297.736 153.521 300.426 152.231 303.676L152.181 303.516C153.481 304.406 154.921 305.396 156.461 306.456L156.541 306.506L156.531 306.596C156.321 308.326 156.321 310.206 156.611 312.156L156.631 312.256L156.541 312.316C155.231 313.266 153.811 314.296 152.341 315.376L152.401 315.146C153.471 317.636 154.601 320.276 155.791 323.046L155.561 322.926C157.141 322.636 158.881 322.316 160.671 321.986L160.801 321.966L160.881 322.066C161.941 323.426 163.291 324.786 164.851 325.936L164.961 326.016L164.941 326.156C164.691 327.746 164.411 329.496 164.121 331.286L163.981 331.026C166.491 332.026 169.191 333.116 171.961 334.226L171.671 334.316C172.591 332.986 173.601 331.526 174.621 330.036L174.711 329.906L174.861 329.926C176.581 330.136 178.501 330.136 180.401 329.856L180.551 329.836L180.641 329.966C181.591 331.286 182.641 332.726 183.691 334.176L183.381 334.086C185.881 333.016 188.571 331.866 191.281 330.706L191.121 330.996C190.821 329.386 190.511 327.636 190.191 325.886L190.161 325.726L190.291 325.626C191.681 324.546 193.021 323.196 194.161 321.676L194.261 321.546L194.421 321.576C196.141 321.856 197.851 322.126 199.551 322.396L199.261 322.556C200.341 319.866 201.411 317.206 202.471 314.576L202.561 314.886C201.121 313.896 199.701 312.906 198.291 311.926L198.161 311.836L198.181 311.676C198.411 309.816 198.381 307.946 198.121 306.146L198.101 305.996L198.231 305.906C199.651 304.876 201.061 303.866 202.441 302.866L202.361 303.166C201.211 300.466 200.091 297.826 198.991 295.256L199.261 295.396C197.531 295.706 195.821 296.016 194.151 296.326L194.011 296.356L193.921 296.246C192.761 294.756 191.421 293.446 189.971 292.366L189.861 292.286L189.881 292.146C190.171 290.386 190.441 288.686 190.711 287.016L190.851 287.256C188.051 286.126 185.401 285.056 182.881 284.036L183.121 283.966C182.081 285.466 181.101 286.876 180.161 288.226L180.091 288.316L179.981 288.306C178.011 288.056 176.161 288.106 174.421 288.356L174.321 288.366L174.261 288.276C173.161 286.746 172.171 285.366 171.231 284.056L171.421 284.106C168.351 285.396 165.741 286.506 163.501 287.446L163.571 287.316C163.931 289.356 164.221 291.036 164.471 292.436L164.481 292.486L164.441 292.516C162.951 293.666 161.981 294.706 161.371 295.396C161.081 295.736 160.861 295.996 160.701 296.196C160.501 296.396 160.431 296.476 160.431 296.476C160.431 296.466 160.491 296.366 160.621 296.186C160.761 295.996 160.961 295.716 161.261 295.366C161.861 294.656 162.801 293.596 164.291 292.406L164.261 292.486C164.001 291.096 163.681 289.416 163.291 287.376L163.271 287.286L163.361 287.246C165.591 286.286 168.191 285.156 171.251 283.836L171.361 283.786L171.431 283.886C172.381 285.186 173.381 286.556 174.491 288.086L174.321 288.016C176.081 287.756 177.971 287.696 179.971 287.936L179.791 288.016C180.731 286.656 181.701 285.246 182.731 283.736L182.821 283.606L182.971 283.666C185.491 284.676 188.141 285.736 190.951 286.856L191.111 286.926L191.081 287.096C190.821 288.766 190.541 290.466 190.261 292.226L190.171 292.006C191.661 293.116 193.031 294.436 194.221 295.966L193.991 295.876C195.661 295.566 197.371 295.256 199.101 294.936L199.291 294.896L199.371 295.076C200.471 297.646 201.601 300.276 202.751 302.976L202.831 303.156L202.671 303.276C201.291 304.276 199.891 305.296 198.461 306.326L198.561 306.086C198.831 307.936 198.861 309.856 198.631 311.756L198.521 311.516C199.931 312.486 201.351 313.476 202.791 314.466L202.961 314.586L202.881 314.776C201.831 317.396 200.761 320.056 199.681 322.756L199.601 322.956L199.391 322.926C197.701 322.656 195.981 322.376 194.261 322.106L194.511 322.006C193.351 323.566 191.971 324.946 190.541 326.056L190.641 325.796C190.961 327.546 191.281 329.296 191.571 330.906L191.611 331.116L191.421 331.196C188.701 332.356 186.021 333.496 183.511 334.566L183.321 334.646L183.201 334.476C182.151 333.026 181.111 331.586 180.161 330.266L180.401 330.366C178.451 330.646 176.491 330.646 174.731 330.426L174.971 330.316C173.951 331.796 172.931 333.256 172.011 334.586L171.901 334.746L171.721 334.676C168.951 333.556 166.251 332.476 163.751 331.466L163.571 331.396L163.601 331.206C163.891 329.426 164.171 327.666 164.431 326.076L164.521 326.296C162.931 325.106 161.561 323.716 160.481 322.326L160.691 322.406C158.901 322.726 157.161 323.046 155.581 323.326L155.421 323.356L155.361 323.206C154.181 320.426 153.061 317.786 152.001 315.296L151.941 315.156L152.061 315.066C153.541 314.006 154.961 312.976 156.281 312.036L156.211 312.206C155.931 310.226 155.941 308.316 156.171 306.556L156.241 306.706C154.711 305.636 153.271 304.636 151.981 303.736L151.891 303.676L151.931 303.576C153.251 300.336 154.351 297.656 155.181 295.616L155.211 295.556L155.281 295.566C156.931 295.846 158.201 296.066 159.081 296.216C159.501 296.296 159.821 296.346 160.061 296.396C160.311 296.446 160.421 296.466 160.431 296.476Z" fill="#8F7A61"/>
<path opacity="0.2" fill-rule="evenodd" clip-rule="evenodd" d="M140.902 190.946C142.532 186.506 144.742 182.356 147.422 178.596L141.562 167.046L158.052 153.366L168.322 161.256C172.522 159.316 177.002 157.916 181.662 157.126L185.682 144.826L207.012 146.816L208.692 159.646C213.132 161.276 217.282 163.486 221.042 166.166L232.592 160.306L246.272 176.796L238.382 187.066C240.322 191.266 241.722 195.736 242.512 200.406L254.822 204.426L252.832 225.756L240.002 227.436C238.372 231.876 236.162 236.026 233.482 239.786L239.342 251.336L222.852 265.016L212.582 257.126C208.382 259.066 203.902 260.466 199.242 261.256L195.222 273.566L173.892 271.576L172.212 258.746C167.772 257.116 163.622 254.906 159.862 252.226L148.312 258.086L134.632 241.596L142.522 231.326C140.582 227.126 139.182 222.646 138.392 217.986L126.082 213.966L128.072 192.636L140.902 190.946ZM167.642 206.086C166.462 218.726 175.752 229.926 188.392 231.106C201.032 232.286 212.232 222.996 213.412 210.356C214.592 197.716 205.302 186.516 192.662 185.336C180.022 184.166 168.822 193.456 167.642 206.086Z" fill="#8F7A61"/>
<path d="M508.262 370.566C508.262 370.706 416.912 370.816 304.262 370.816C191.562 370.816 100.242 370.706 100.242 370.566C100.242 370.426 191.572 370.316 304.262 370.316C416.912 370.326 508.262 370.436 508.262 370.566Z" fill="#8F7A61"/>
<path d="M288.801 63.9957C282.511 66.7557 278.851 73.5357 277.471 80.2757C276.101 87.0057 276.552 93.9657 275.951 100.816C275.351 107.666 273.481 114.816 268.481 119.536C263.821 123.936 256.971 125.726 253.001 130.746C250.061 134.476 249.191 139.746 250.791 144.226C252.391 148.706 256.401 152.236 261.041 153.256C257.901 158.226 259.471 165.166 263.491 169.456C267.501 173.746 273.401 175.796 279.211 176.676C289.431 178.236 300.331 176.516 308.961 170.826C317.591 165.136 323.631 155.256 323.611 144.926" fill="#263238"/>
<path d="M261.55 165.576C261.55 165.576 260.98 164.866 260.44 163.346C259.9 161.836 259.52 159.446 260.04 156.596C260.3 155.176 260.77 153.656 261.48 152.116C262.22 150.586 263.19 149.046 264.37 147.556C266.71 144.546 269.86 141.776 273.02 138.806C276.18 135.816 279.08 132.846 281.43 129.906C283.81 126.996 285.6 124.086 286.81 121.526C288.02 118.956 288.67 116.736 288.99 115.176C289.18 114.406 289.23 113.786 289.32 113.376C289.39 112.966 289.44 112.746 289.46 112.746C289.48 112.746 289.46 112.966 289.42 113.386C289.36 113.806 289.34 114.426 289.18 115.216C288.91 116.796 288.31 119.056 287.12 121.676C285.93 124.286 284.16 127.246 281.78 130.196C279.43 133.176 276.52 136.176 273.35 139.176C270.17 142.166 267.04 144.906 264.72 147.856C263.55 149.316 262.58 150.826 261.84 152.316C261.12 153.816 260.65 155.296 260.37 156.686C259.82 159.466 260.14 161.806 260.61 163.316C261.1 164.806 261.6 165.556 261.55 165.576Z" fill="#455A64"/>
<path d="M364.012 86.5857C364.012 95.8257 368.272 104.296 372.112 107.416C377.532 111.826 385.492 113.956 390.742 115.416C398.382 117.556 404.782 124.236 405.742 132.116C406.692 139.986 401.542 148.406 393.862 150.386C398.692 155.316 397.252 163.796 393.282 169.436C385.752 180.126 370.722 184.236 358.252 180.286C345.782 176.336 336.232 165.286 332.512 152.746" fill="#263238"/>
<path d="M383.021 177.606C382.991 177.526 384.241 177.526 385.961 176.316C386.801 175.716 387.711 174.786 388.421 173.496C389.151 172.226 389.681 170.586 389.741 168.736C389.791 166.896 389.241 164.876 388.191 162.976C387.141 161.066 385.591 159.276 383.701 157.706C379.911 154.516 374.771 152.526 369.791 149.656C367.311 148.196 365.011 146.516 363.181 144.466C362.271 143.446 361.481 142.346 360.871 141.176C360.261 140.006 359.841 138.766 359.581 137.536C359.051 135.066 359.101 132.666 359.261 130.466C359.431 128.256 359.711 126.216 359.901 124.356C360.311 120.636 360.261 117.586 359.761 115.556C359.621 115.056 359.501 114.616 359.401 114.216C359.291 113.836 359.131 113.526 359.041 113.266C358.841 112.756 358.741 112.476 358.751 112.476C358.771 112.466 358.891 112.726 359.131 113.226C359.241 113.476 359.411 113.786 359.541 114.166C359.661 114.566 359.801 115.006 359.951 115.506C360.521 117.556 360.621 120.646 360.251 124.386C360.081 126.256 359.821 128.296 359.671 130.486C359.531 132.676 359.501 135.036 360.031 137.436C360.541 139.826 361.731 142.176 363.551 144.136C365.331 146.126 367.601 147.786 370.051 149.216C374.971 152.056 380.161 154.066 384.011 157.336C385.931 158.946 387.511 160.786 388.571 162.756C389.631 164.726 390.171 166.806 390.101 168.726C390.021 170.636 389.441 172.316 388.671 173.606C387.911 174.916 386.961 175.846 386.081 176.446C385.211 177.066 384.391 177.286 383.871 177.456C383.311 177.586 383.021 177.626 383.021 177.606Z" fill="#455A64"/>
<path d="M401.02 146.776C400.93 146.746 401.82 146.016 401.95 144.206C401.99 143.326 401.82 142.216 401.24 141.086C400.67 139.966 399.75 138.786 398.41 137.956C397.05 137.126 395.35 136.606 393.5 136.296C391.64 135.976 389.61 135.856 387.48 135.526C383.22 134.866 378.68 133.186 374.55 130.406C370.43 127.616 367.17 124.016 364.99 120.296C362.79 116.576 361.64 112.806 361.07 109.616C360.5 106.406 360.53 103.756 360.66 101.946C360.73 101.036 360.81 100.346 360.9 99.8757C360.97 99.4057 361.02 99.1557 361.04 99.1657C361.1 99.1757 360.93 100.166 360.85 101.966C360.78 103.766 360.8 106.396 361.41 109.556C362.02 112.706 363.2 116.416 365.38 120.066C367.54 123.716 370.76 127.246 374.82 129.996C378.89 132.726 383.36 134.396 387.55 135.076C389.65 135.416 391.68 135.546 393.57 135.896C395.45 136.226 397.2 136.776 398.6 137.666C400.01 138.556 400.93 139.796 401.5 140.976C402.08 142.156 402.23 143.316 402.16 144.226C402.08 145.146 401.75 145.806 401.5 146.216C401.37 146.416 401.24 146.546 401.16 146.646C401.07 146.736 401.03 146.776 401.02 146.776Z" fill="#455A64"/>
<path d="M293.292 194.916C294.612 181.106 295.742 166.546 295.742 166.546C295.742 166.546 278.252 161.846 276.852 138.276C275.512 115.806 284.192 65.0557 284.192 65.0557C310.812 57.1357 340.452 67.0657 356.692 89.3557L344.152 201.336C342.692 214.336 330.362 223.436 316.452 221.776C302.392 220.096 292.032 208.076 293.292 194.916Z" fill="#D4BF9E"/>
<path d="M286.841 105.626C286.631 107.196 287.781 108.666 289.411 108.906C291.041 109.156 292.531 108.096 292.741 106.526C292.951 104.956 291.801 103.486 290.171 103.236C288.541 102.996 287.051 104.056 286.841 105.626Z" fill="#263238"/>
<path d="M282.342 101.816C282.672 102.236 285.092 100.796 288.292 101.116C291.492 101.396 293.682 103.276 294.072 102.916C294.262 102.756 293.952 102.026 293.002 101.176C292.072 100.336 290.422 99.4457 288.422 99.2557C286.422 99.0657 284.672 99.6357 283.642 100.296C282.582 100.956 282.172 101.626 282.342 101.816Z" fill="#263238"/>
<path d="M319.564 109.416C319.354 110.986 320.504 112.456 322.134 112.696C323.764 112.946 325.254 111.876 325.464 110.316C325.674 108.746 324.524 107.276 322.894 107.026C321.264 106.786 319.774 107.846 319.564 109.416Z" fill="#263238"/>
<path d="M315.643 106.266C315.973 106.686 318.393 105.246 321.593 105.566C324.793 105.846 326.983 107.726 327.373 107.366C327.563 107.206 327.253 106.476 326.303 105.626C325.373 104.786 323.723 103.896 321.723 103.706C319.723 103.516 317.973 104.086 316.943 104.746C315.883 105.406 315.473 106.076 315.643 106.266Z" fill="#263238"/>
<path d="M301.68 128.876C301.71 128.696 299.76 128.156 296.57 127.426C295.76 127.256 295 127.026 294.92 126.446C294.79 125.836 295.21 124.986 295.7 124.076C296.66 122.176 297.67 120.176 298.73 118.086C302.96 109.556 306.11 102.506 305.76 102.336C305.41 102.166 301.71 108.946 297.47 117.486C296.45 119.596 295.47 121.596 294.54 123.526C294.14 124.426 293.5 125.426 293.8 126.696C293.96 127.326 294.52 127.836 295.03 128.026C295.54 128.236 296 128.296 296.4 128.356C299.64 128.846 301.65 129.056 301.68 128.876Z" fill="#263238"/>
<path d="M295.742 166.546C295.742 166.546 311.252 169.086 327.632 161.316C327.632 161.316 318.522 176.516 295.512 172.056L295.742 166.546Z" fill="#C9B28E"/>
<path d="M302.273 136.726C303.573 135.316 305.673 134.676 307.653 135.096C309.033 135.386 310.363 136.186 311.103 137.406C311.833 138.616 311.853 140.246 310.983 141.246C310.003 142.376 308.163 142.476 306.683 141.896C305.193 141.316 303.983 140.176 302.833 139.046C302.513 138.736 302.193 138.406 302.013 138.006C301.833 137.606 301.833 137.106 302.133 136.816" fill="#C9B28E"/>
<path d="M310.88 132.016C310.36 131.936 310.01 135.406 306.8 137.586C303.59 139.766 299.92 139.016 299.84 139.496C299.77 139.706 300.6 140.256 302.16 140.446C303.69 140.646 305.98 140.376 307.95 139.046C309.91 137.716 310.89 135.766 311.15 134.356C311.43 132.916 311.12 132.016 310.88 132.016Z" fill="#263238"/>
<path d="M345.641 114.116C348.171 113.876 350.781 114.206 353.061 115.326C355.341 116.446 357.251 118.416 358.041 120.826C358.841 123.246 358.471 125.946 357.371 128.246C356.281 130.546 354.511 132.466 352.531 134.066C351.111 135.216 349.521 136.236 347.731 136.616C345.941 136.986 343.911 136.616 342.641 135.306" fill="#D4BF9E"/>
<path d="M345.532 129.296C345.242 129.356 346.172 130.966 348.502 130.576C349.622 130.396 350.782 129.536 351.542 128.406C352.312 127.246 352.862 125.956 353.182 124.406C353.492 122.876 353.302 121.196 352.562 119.936C351.862 118.666 350.602 117.826 349.492 117.686C347.162 117.406 346.282 118.946 346.542 119.026C346.712 119.236 347.702 118.486 349.192 119.006C350.632 119.416 351.872 121.576 351.302 124.056C350.772 126.586 349.562 128.826 348.142 129.276C346.662 129.856 345.712 129.106 345.532 129.296Z" fill="#AA6550"/>
<path d="M295.4 74.9857C291.98 82.9357 284.66 89.0857 276.25 91.1157C275.75 85.3857 275.42 79.5857 276.36 73.9157C277.3 68.2457 279.61 62.6457 283.74 58.6557C287.88 54.6657 294.01 52.5157 299.57 53.9957" fill="#263238"/>
<path d="M297.002 64.4657C294.112 71.7257 295.302 80.4557 300.022 86.6857C304.742 92.9157 312.822 96.4157 320.592 95.5957C322.112 95.4357 323.712 95.1357 325.132 95.6857C326.662 96.2757 327.662 97.7057 328.572 99.0657C332.272 104.596 336.182 110.336 342.002 113.536C347.832 116.736 356.172 116.426 360.072 111.036C361.972 108.416 362.522 105.086 362.962 101.876C364.442 91.1057 365.042 79.5357 359.912 69.9557C356.102 62.8357 349.402 57.5357 341.982 54.3257C334.572 51.1157 326.452 49.8357 318.392 49.3457C313.702 49.0557 308.852 49.0557 304.512 50.8257C300.162 52.6057 296.412 56.5457 296.162 61.2357" fill="#263238"/>
<path d="M361.942 104.916C361.922 104.916 361.832 104.646 361.662 104.126C361.502 103.596 361.232 102.836 360.882 101.856C360.152 99.9057 358.932 97.1357 356.932 93.9957C354.922 90.8757 352.082 87.4057 348.262 84.3157C344.452 81.1957 339.612 78.6957 334.372 76.4957C329.122 74.2957 324.002 72.4857 319.512 70.3857C315.022 68.3057 311.192 65.9457 308.302 63.5457C305.422 61.1357 303.482 58.7557 302.362 56.9857C301.802 56.0957 301.402 55.3957 301.172 54.8857C300.922 54.3957 300.802 54.1257 300.822 54.1257C300.842 54.1157 300.992 54.3657 301.262 54.8457C301.522 55.3357 301.952 56.0157 302.522 56.8857C303.682 58.6057 305.642 60.9257 308.532 63.2757C311.422 65.6157 315.232 67.9257 319.712 69.9757C324.182 72.0457 329.312 73.8357 334.572 76.0457C339.822 78.2457 344.722 80.7957 348.552 83.9657C352.402 87.1057 355.242 90.6357 357.232 93.8057C359.212 96.9957 360.392 99.8157 361.062 101.786C361.392 102.776 361.632 103.556 361.762 104.096C361.892 104.636 361.962 104.916 361.942 104.916Z" fill="#455A64"/>
<path d="M354.732 103.646C354.712 103.656 354.582 103.426 354.342 102.986C354.092 102.556 353.712 101.916 353.152 101.146C352.052 99.6057 350.172 97.5457 347.392 95.5857C344.632 93.5957 340.982 91.8057 336.832 90.0457C334.762 89.1557 332.572 88.2357 330.352 87.1757C328.132 86.1157 325.872 84.9257 323.632 83.5857C319.142 80.9057 315.172 77.8357 311.982 74.6057C308.782 71.3857 306.382 68.0357 304.712 65.0457C303.022 62.0557 302.072 59.4357 301.512 57.6057C301.252 56.6857 301.062 55.9657 300.962 55.4757C300.852 54.9857 300.812 54.7257 300.822 54.7157C300.842 54.7157 300.922 54.9657 301.052 55.4457C301.182 55.9357 301.402 56.6357 301.682 57.5457C302.292 59.3457 303.292 61.9257 305.002 64.8657C306.702 67.8057 309.112 71.0957 312.292 74.2757C315.472 77.4557 319.412 80.4957 323.872 83.1557C326.102 84.4857 328.342 85.6657 330.552 86.7357C332.762 87.7957 334.942 88.7157 337.012 89.6257C341.152 91.4157 344.832 93.2557 347.592 95.3057C350.372 97.3257 352.242 99.4457 353.302 101.036C353.842 101.826 354.202 102.486 354.422 102.936C354.642 103.396 354.742 103.636 354.732 103.646Z" fill="#455A64"/>
<path d="M276.331 100.326C276.311 100.336 276.241 100.146 276.101 99.7957C275.971 99.4357 275.771 98.9157 275.551 98.2257C275.181 96.8357 274.661 94.7857 274.551 92.1857C274.441 89.6057 274.641 86.4757 275.581 83.1657C276.521 79.8757 278.071 76.3457 280.541 73.2357C281.731 71.6457 283.151 70.3057 284.561 69.0857C286.011 67.9057 287.501 66.8957 288.921 65.9657C291.781 64.1057 294.331 62.4057 296.141 60.5957C297.981 58.8157 299.101 57.0357 299.671 55.7257C300.251 54.4157 300.381 53.6257 300.431 53.6357C300.451 53.6357 300.421 53.8357 300.341 54.2057C300.261 54.5757 300.111 55.1257 299.841 55.7957C299.311 57.1457 298.221 58.9957 296.371 60.8357C294.561 62.7057 291.991 64.4657 289.161 66.3357C287.751 67.2857 286.271 68.2857 284.851 69.4557C283.471 70.6557 282.081 71.9757 280.911 73.5357C278.481 76.5857 276.941 80.0457 275.991 83.2857C275.041 86.5357 274.811 89.6157 274.871 92.1657C274.941 94.7357 275.401 96.7657 275.711 98.1657C275.901 98.8157 276.051 99.3457 276.171 99.7557C276.301 100.126 276.351 100.316 276.331 100.326Z" fill="#455A64"/>
<path d="M333.641 146.596C328.221 146.596 322.791 144.746 318.781 141.146L319.421 140.436C326.371 146.686 337.831 147.416 345.521 142.086C353.201 136.756 356.541 125.766 353.121 117.066L354.001 116.716C357.581 125.806 354.091 137.296 346.061 142.866C342.451 145.376 338.051 146.596 333.641 146.596Z" fill="#8F7A61"/>
<path d="M325.911 142.526C325.911 145.066 323.851 147.136 321.301 147.136C318.761 147.136 316.691 145.076 316.691 142.526C316.691 139.976 318.751 137.916 321.301 137.916C323.841 137.916 325.911 139.986 325.911 142.526Z" fill="#8F7A61"/>
<path d="M371.994 120.966C373.031 112.507 367.015 104.809 358.556 103.772C350.097 102.735 342.399 108.751 341.362 117.21C340.325 125.669 346.342 133.367 354.8 134.404C363.259 135.441 370.957 129.424 371.994 120.966Z" fill="#8F7A61"/>
<path d="M354.182 116.956C354.082 116.946 354.122 115.546 354.272 113.046C354.322 111.776 354.383 110.246 354.453 108.476C354.473 106.696 354.532 104.666 354.462 102.426C354.462 101.306 354.383 100.136 354.323 98.9157C354.283 97.6957 354.143 96.4357 354.013 95.1257C353.913 93.8157 353.662 92.4857 353.492 91.0957C353.362 90.4057 353.233 89.7157 353.103 89.0157C352.983 88.3057 352.833 87.5957 352.643 86.8857C351.333 81.1757 348.873 75.0557 344.562 69.8757C340.263 64.6857 334.632 61.2057 329.182 59.0957C323.712 56.9557 318.453 55.9257 314.033 55.2857C309.603 54.6657 305.972 54.4757 303.462 54.3057C300.952 54.1957 299.562 54.0857 299.562 53.9857C299.562 53.8857 300.953 53.7957 303.473 53.7257C305.993 53.7257 309.652 53.7557 314.152 54.2457C318.642 54.7557 324.013 55.6857 329.663 57.8157C335.293 59.9157 341.193 63.4957 345.693 68.9257C350.193 74.3357 352.702 80.7257 353.962 86.5857C354.142 87.3157 354.292 88.0457 354.402 88.7657C354.522 89.4857 354.653 90.1957 354.763 90.9057C354.913 92.3157 355.143 93.6857 355.223 95.0157C355.323 96.3457 355.433 97.6257 355.443 98.8657C355.483 100.106 355.522 101.286 355.492 102.416C355.492 104.676 355.363 106.716 355.263 108.506C355.113 110.296 354.972 111.836 354.832 113.086C354.522 115.596 354.282 116.966 354.182 116.956Z" fill="#8F7A61"/>
<g opacity="0.4">
<path opacity="0.4" d="M367.724 119.106C367.724 124.976 362.964 129.726 357.104 129.726C351.234 129.726 346.484 124.976 346.484 119.106C346.484 113.236 351.244 108.486 357.104 108.486C362.974 108.486 367.724 113.236 367.724 119.106Z" fill="black"/>
</g>
<path d="M353.611 109.196C353.601 109.176 353.771 109.096 354.081 108.946C354.401 108.806 354.891 108.636 355.551 108.506C356.841 108.276 358.921 108.266 361.061 109.446C362.121 110.026 363.161 110.926 363.891 112.156C364.641 113.376 365.041 114.906 365.031 116.516C365.021 118.116 364.521 119.826 363.461 121.236C362.401 122.646 360.781 123.676 358.971 124.106C357.171 124.546 355.251 124.386 353.661 123.626C352.061 122.866 350.861 121.556 350.121 120.136C349.381 118.706 349.101 117.146 349.211 115.726C349.341 114.296 349.881 113.046 350.521 112.026C351.821 109.976 353.621 108.916 354.921 108.596C355.571 108.416 356.101 108.406 356.451 108.426C356.801 108.456 356.981 108.486 356.981 108.506C356.981 108.576 356.231 108.396 354.971 108.786C353.731 109.146 352.041 110.216 350.821 112.216C350.221 113.206 349.731 114.416 349.621 115.766C349.531 117.116 349.811 118.586 350.521 119.936C351.231 121.276 352.371 122.496 353.861 123.196C355.351 123.896 357.141 124.056 358.851 123.636C360.551 123.226 362.081 122.266 363.071 120.946C364.071 119.636 364.541 118.026 364.571 116.516C364.601 114.996 364.231 113.536 363.541 112.376C362.871 111.206 361.891 110.326 360.891 109.756C358.871 108.576 356.861 108.536 355.581 108.696C354.291 108.896 353.631 109.256 353.611 109.196Z" fill="#263238"/>
<path d="M357.014 129.566C356.884 129.586 356.584 128.476 356.534 127.056C356.474 125.646 356.674 124.506 356.814 124.516C356.954 124.526 356.974 125.656 357.034 127.036C357.074 128.416 357.154 129.546 357.014 129.566Z" fill="#263238"/>
<path d="M362.873 127.506C362.743 127.556 362.253 126.596 361.773 125.356C361.293 124.116 361.003 123.076 361.133 123.026C361.263 122.976 361.753 123.936 362.233 125.176C362.713 126.416 363.003 127.456 362.873 127.506Z" fill="#263238"/>
<path d="M366.824 122.886C366.734 122.986 366.004 122.476 365.194 121.746C364.384 121.016 363.814 120.336 363.904 120.236C363.994 120.136 364.724 120.646 365.534 121.376C366.334 122.106 366.914 122.786 366.824 122.886Z" fill="#263238"/>
<path d="M367.104 116.436C367.054 116.566 366.534 116.496 365.924 116.276C365.324 116.056 364.864 115.776 364.914 115.646C364.964 115.516 365.484 115.586 366.094 115.806C366.694 116.026 367.144 116.306 367.104 116.436Z" fill="#263238"/>
<path d="M350.074 127.186C349.944 127.146 350.224 126.016 350.874 124.746C351.524 123.476 352.274 122.596 352.384 122.676C352.504 122.756 351.944 123.736 351.314 124.976C350.684 126.206 350.214 127.236 350.074 127.186Z" fill="#263238"/>
<path d="M346.913 121.776C346.813 121.676 347.423 120.926 348.263 120.106C349.103 119.276 349.863 118.696 349.963 118.786C350.063 118.886 349.453 119.636 348.613 120.456C347.763 121.286 347.003 121.876 346.913 121.776Z" fill="#263238"/>
<path d="M349.381 114.416C349.421 114.546 348.981 114.776 348.421 114.926C347.851 115.076 347.371 115.096 347.331 114.956C347.291 114.826 347.731 114.596 348.291 114.446C348.861 114.296 349.351 114.286 349.381 114.416Z" fill="#263238"/>
<path d="M430.089 198.836C429.089 193.186 426.879 190.116 425.239 188.506C423.689 186.996 422.199 185.426 420.349 184.306C418.109 182.936 415.059 181.246 413.109 180.826C410.699 180.306 410.109 177.166 412.129 176.276C414.149 175.386 420.829 176.656 427.259 181.386C433.679 186.116 430.439 174.146 429.329 169.756C428.219 165.376 425.439 151.676 426.529 150.306C428.119 148.296 430.629 149.666 431.629 154.056C432.639 158.506 436.569 171.456 438.869 170.826C441.129 170.206 435.199 147.966 435.199 147.966C435.199 147.966 433.159 143.396 435.789 142.576C440.529 141.096 445.089 165.146 445.469 167.446C445.729 169.046 448.259 168.446 447.879 166.746C447.499 164.996 441.439 144.696 446.249 143.136C449.939 141.946 450.189 162.896 453.789 166.466C457.399 170.036 451.969 150.556 455.549 149.566C456.879 149.196 457.929 149.106 459.419 160.696C460.219 166.926 459.699 175.516 462.129 187.406" fill="#D4BF9E"/>
<path d="M418.11 243.556L439.97 274.926L429.47 194.026L460.72 181.706C460.72 181.706 500.16 332.896 447.26 335.026C447.26 335.026 410.66 334.026 383.34 270.656L418.11 243.556Z" fill="#D4BF9E"/>
<path d="M453.171 181.106C453.231 181.186 452.491 181.676 451.521 182.756C450.571 183.816 449.421 185.556 448.961 187.796L448.841 188.386L448.411 187.956C447.921 187.466 447.391 186.976 446.791 186.536C444.521 184.856 441.981 184.146 440.151 183.956C438.301 183.756 437.141 183.956 437.121 183.846C437.101 183.776 438.251 183.406 440.181 183.486C442.091 183.556 444.791 184.226 447.181 185.996C447.811 186.456 448.371 186.976 448.871 187.496L448.311 187.656C448.841 185.266 450.131 183.486 451.211 182.456C452.301 181.416 453.141 181.046 453.171 181.106Z" fill="#C9B28E"/>
<path d="M402.402 308.966L375.952 275.406L369.082 309.726C366.302 323.626 367.732 338.046 373.202 351.126L376.612 359.286H254.132L257.192 348.386C258.922 335.026 256.602 321.076 257.012 301.946L253.612 280.376L235.082 359.296H180.602C180.602 359.296 210.502 236.806 229.232 212.566C252.842 182.006 294.102 186.036 294.102 186.036L319.382 225.656L344.062 189.936C344.062 189.936 386.482 180.916 419.602 237.936L437.322 268.306L429.092 205.776L467.442 196.926C467.442 196.926 481.292 258.356 480.382 291.256C479.572 320.636 467.062 336.056 449.732 337.566C422.502 339.946 402.402 308.966 402.402 308.966Z" fill="#CD9E64"/>
<path d="M294.102 186.036L294.532 181.106C294.532 181.106 313.252 185.266 319.532 217.956C319.532 217.956 325.832 187.786 345.992 184.746L349.392 193.436L337.012 225.676L315.262 232.036L294.112 225.676L284.492 206.566L294.102 186.036Z" fill="#CD9E64"/>
<path d="M241.932 199.036C241.952 199.036 241.982 199.326 242.032 199.886C242.072 200.486 242.132 201.296 242.212 202.316C242.352 204.426 242.572 207.486 242.872 211.256C243.472 218.806 244.512 229.206 246.142 240.646C247.782 252.086 249.702 262.366 251.242 269.776C252.012 273.486 252.652 276.476 253.112 278.546C253.332 279.546 253.502 280.346 253.622 280.926C253.732 281.476 253.782 281.766 253.772 281.766C253.752 281.766 253.672 281.486 253.532 280.946C253.382 280.366 253.182 279.576 252.932 278.586C252.412 276.536 251.712 273.546 250.902 269.846C249.272 262.446 247.292 252.166 245.652 240.716C244.022 229.266 243.042 218.846 242.522 211.286C242.262 207.506 242.092 204.446 242.022 202.326C241.982 201.306 241.962 200.486 241.942 199.886C241.912 199.326 241.912 199.036 241.932 199.036Z" fill="#263238"/>
<path d="M348.943 188.766C348.953 188.776 348.863 188.936 348.673 189.236C348.453 189.576 348.173 190.006 347.833 190.536C347.063 191.716 346.003 193.326 344.713 195.296C342.093 199.326 338.553 204.946 334.883 211.286C334.733 211.536 334.593 211.786 334.463 212.016L334.223 212.426L334.023 211.996C333.273 210.386 332.503 208.816 331.333 207.666C330.183 206.526 328.623 205.836 327.163 206.106C325.703 206.336 324.543 207.336 323.723 208.366C322.893 209.416 322.363 210.566 322.003 211.666C321.293 213.856 320.883 215.706 320.363 216.906C320.123 217.516 319.873 217.956 319.713 218.256C319.533 218.546 319.433 218.696 319.413 218.686C319.373 218.666 319.753 218.056 320.193 216.836C320.653 215.626 321.013 213.796 321.683 211.556C322.023 210.436 322.553 209.226 323.403 208.116C324.243 207.026 325.463 205.936 327.083 205.666C328.713 205.346 330.443 206.116 331.663 207.326C332.913 208.546 333.703 210.176 334.463 211.786L334.023 211.766C334.153 211.536 334.303 211.286 334.443 211.036C338.123 204.686 341.713 199.086 344.413 195.096C345.763 193.106 346.873 191.506 347.663 190.416C348.033 189.906 348.343 189.496 348.583 189.166C348.803 188.896 348.923 188.756 348.943 188.766Z" fill="#263238"/>
<path d="M331.112 207.276C331.122 207.286 331.052 207.426 330.912 207.696C330.732 208.016 330.512 208.396 330.252 208.856C329.622 209.916 328.772 211.346 327.742 213.076C326.652 214.866 325.372 216.966 323.962 219.296C323.242 220.466 322.492 221.686 321.712 222.956C321.312 223.596 320.912 224.246 320.502 224.896C320.382 225.066 320.242 225.236 320.032 225.376C319.822 225.516 319.512 225.566 319.272 225.476C318.772 225.316 318.522 224.866 318.322 224.566C314.802 219.276 312.192 214.176 310.132 210.586C309.122 208.776 308.292 207.326 307.702 206.326C307.122 205.326 306.792 204.776 306.822 204.756C306.832 204.746 306.932 204.876 307.112 205.126C307.282 205.376 307.552 205.746 307.862 206.236C308.502 207.206 309.382 208.636 310.432 210.416C312.562 213.966 315.232 219.046 318.722 224.296C318.942 224.636 319.142 224.926 319.412 225.006C319.652 225.096 319.892 224.906 320.102 224.616C320.502 223.966 320.902 223.326 321.302 222.706C322.092 221.446 322.852 220.226 323.572 219.056C325.022 216.756 326.332 214.666 327.442 212.896C328.532 211.196 329.422 209.806 330.092 208.766C330.392 208.326 330.632 207.956 330.832 207.656C331.002 207.396 331.092 207.266 331.112 207.276Z" fill="#263238"/>
<path d="M398.922 210.176C398.942 210.186 398.842 210.406 398.642 210.826C398.412 211.286 398.112 211.896 397.742 212.656C396.942 214.236 395.822 216.536 394.482 219.396C393.132 222.256 391.612 225.706 390.012 229.566C388.432 233.436 386.782 237.726 385.212 242.286C383.652 246.856 382.312 251.246 381.172 255.276C380.062 259.306 379.132 262.956 378.442 266.036C377.732 269.116 377.202 271.626 376.862 273.356C376.692 274.186 376.552 274.846 376.452 275.346C376.352 275.806 376.292 276.036 376.272 276.036C376.252 276.036 376.282 275.786 376.352 275.326C376.432 274.816 376.542 274.146 376.672 273.316C376.952 271.566 377.432 269.046 378.102 265.956C378.752 262.856 379.642 259.186 380.732 255.146C381.842 251.106 383.182 246.696 384.742 242.126C386.322 237.556 387.982 233.266 389.592 229.396C391.222 225.536 392.772 222.096 394.162 219.256C395.542 216.406 396.712 214.126 397.572 212.576C397.982 211.836 398.312 211.236 398.552 210.786C398.782 210.376 398.912 210.166 398.922 210.176Z" fill="#263238"/>
<path d="M342.9 334.446C342.9 334.466 342.64 334.456 342.13 334.416C341.58 334.376 340.86 334.316 339.94 334.246C338.99 334.176 337.83 334.066 336.49 333.896C335.15 333.736 333.61 333.576 331.93 333.316C328.55 332.856 324.55 332.156 320.14 331.246C315.74 330.296 310.92 329.116 305.93 327.646C300.95 326.156 296.27 324.516 292.06 322.896C287.86 321.246 284.13 319.646 281.06 318.186C279.51 317.486 278.14 316.776 276.92 316.176C275.7 315.586 274.67 315.036 273.84 314.576C273.04 314.136 272.4 313.786 271.91 313.526C271.47 313.286 271.25 313.146 271.25 313.126C271.26 313.106 271.5 313.216 271.95 313.436C272.44 313.676 273.1 313.996 273.92 314.406C274.77 314.836 275.81 315.356 277.04 315.926C278.26 316.496 279.64 317.186 281.2 317.866C284.29 319.286 288.03 320.846 292.22 322.466C296.43 324.056 301.1 325.676 306.07 327.166C311.05 328.636 315.84 329.826 320.23 330.796C324.63 331.736 328.61 332.466 331.97 332.966C333.65 333.246 335.18 333.426 336.51 333.616C337.85 333.806 339 333.946 339.95 334.046C340.86 334.156 341.58 334.246 342.13 334.306C342.64 334.386 342.9 334.426 342.9 334.446Z" fill="#263238"/>
<path d="M337.481 336.586C337.481 336.606 337.311 336.646 336.981 336.716C336.591 336.786 336.111 336.886 335.521 336.996C334.251 337.236 332.401 337.526 330.111 337.836C325.531 338.466 319.171 339.116 312.131 339.366C305.081 339.606 298.691 339.406 294.081 339.086C291.781 338.926 289.911 338.766 288.631 338.626C288.031 338.556 287.551 338.496 287.151 338.456C286.811 338.406 286.641 338.376 286.641 338.366C286.641 338.346 286.821 338.346 287.161 338.356C287.551 338.376 288.051 338.406 288.641 338.436C289.931 338.526 291.791 338.636 294.091 338.746C298.701 338.966 305.071 339.116 312.101 338.876C319.131 338.626 325.481 338.036 330.061 337.496C332.351 337.226 334.201 336.986 335.481 336.816C336.081 336.746 336.561 336.676 336.961 336.636C337.301 336.576 337.481 336.566 337.481 336.586Z" fill="#263238"/>
<path d="M380.832 281.586C380.812 281.586 380.862 281.336 380.972 280.866C381.102 280.356 381.272 279.676 381.482 278.826C381.942 277.006 382.592 274.466 383.382 271.346C384.992 265.026 387.122 256.276 389.742 246.676C391.062 241.876 392.412 237.326 393.732 233.216C395.062 229.116 396.342 225.446 397.522 222.396C398.082 220.866 398.662 219.506 399.152 218.306C399.632 217.106 400.082 216.076 400.462 215.246C400.822 214.446 401.112 213.816 401.332 213.336C401.532 212.906 401.652 212.676 401.662 212.686C401.682 212.696 401.592 212.936 401.422 213.376C401.222 213.866 400.962 214.516 400.642 215.326C400.292 216.166 399.872 217.196 399.412 218.406C398.952 219.616 398.402 220.976 397.862 222.516C396.722 225.566 395.492 229.246 394.182 233.346C392.902 237.456 391.562 242.006 390.242 246.796C387.622 256.386 385.432 265.126 383.742 271.426C382.902 274.576 382.202 277.116 381.692 278.876C381.442 279.716 381.242 280.386 381.092 280.886C380.932 281.356 380.842 281.596 380.832 281.586Z" fill="#263238"/>
<path d="M252.973 279.946C252.963 279.956 252.783 279.746 252.453 279.346C252.133 278.936 251.623 278.356 251.053 277.536C249.873 275.946 248.303 273.516 246.683 270.356C245.053 267.196 243.453 263.266 242.103 258.766C240.743 254.266 239.673 249.196 238.913 243.836C237.453 233.086 237.213 223.276 236.773 216.206C236.573 212.666 236.393 209.806 236.243 207.836C236.173 206.886 236.123 206.126 236.073 205.556C236.043 205.036 236.033 204.756 236.043 204.756C236.053 204.756 236.103 205.026 236.173 205.546C236.233 206.066 236.333 206.826 236.433 207.816C236.643 209.786 236.883 212.646 237.123 216.186C237.653 223.256 237.953 233.056 239.403 243.766C240.163 249.106 241.213 254.156 242.533 258.636C243.853 263.116 245.413 267.046 246.993 270.206C248.563 273.376 250.073 275.816 251.203 277.436C251.743 278.266 252.233 278.866 252.523 279.296C252.833 279.706 252.983 279.936 252.973 279.946Z" fill="#263238"/>
<path d="M248.32 257.926C248.35 258.076 246.9 258.386 245.36 259.296C243.81 260.186 242.83 261.296 242.72 261.206C242.61 261.136 243.47 259.826 245.11 258.866C246.74 257.906 248.31 257.806 248.32 257.926Z" fill="#263238"/>
<path d="M247.391 245.086C247.411 245.236 245.592 245.396 243.662 246.426C241.712 247.436 240.551 248.846 240.441 248.746C240.331 248.696 241.371 247.066 243.431 245.996C245.471 244.896 247.401 244.966 247.391 245.086Z" fill="#263238"/>
<path d="M244.583 233.346C244.593 233.496 243.153 233.566 241.623 234.346C240.073 235.096 239.153 236.196 239.033 236.106C238.923 236.046 239.733 234.726 241.403 233.906C243.053 233.066 244.603 233.216 244.583 233.346Z" fill="#263238"/>
<path d="M243.212 221.226C243.232 221.366 241.962 221.616 240.522 222.236C239.072 222.846 238.022 223.596 237.932 223.486C237.842 223.396 238.802 222.426 240.332 221.786C241.842 221.126 243.202 221.096 243.212 221.226Z" fill="#263238"/>
<path d="M242.423 211.426C242.443 211.576 241.153 211.806 239.723 212.486C238.283 213.156 237.283 213.996 237.183 213.886C237.083 213.806 237.983 212.746 239.513 212.036C241.033 211.316 242.423 211.296 242.423 211.426Z" fill="#263238"/>
<path d="M383.401 266.606C383.281 266.686 382.631 265.816 381.441 265.346C380.261 264.846 379.181 265.026 379.151 264.876C379.091 264.756 380.271 264.326 381.621 264.886C382.981 265.436 383.521 266.566 383.401 266.606Z" fill="#263238"/>
<path d="M387.12 256.596C386.99 256.656 386.471 255.166 384.921 254.186C383.391 253.166 381.821 253.316 381.821 253.166C381.811 253.106 382.19 252.976 382.83 252.996C383.47 253.016 384.361 253.236 385.191 253.766C386.021 254.306 386.58 255.026 386.86 255.596C387.14 256.176 387.17 256.576 387.12 256.596Z" fill="#263238"/>
<path d="M389.913 245.596C389.793 245.686 388.993 244.446 387.383 243.836C385.793 243.186 384.363 243.536 384.333 243.386C384.313 243.326 384.653 243.156 385.243 243.066C385.833 242.976 386.693 243.036 387.563 243.376C388.423 243.716 389.083 244.266 389.463 244.736C389.843 245.206 389.963 245.566 389.913 245.596Z" fill="#263238"/>
<path d="M393.193 235.016C393.063 235.086 392.543 234.106 391.393 233.516C390.253 232.896 389.153 233.016 389.133 232.876C389.123 232.816 389.393 232.696 389.853 232.666C390.313 232.636 390.983 232.746 391.623 233.076C392.263 233.416 392.723 233.906 392.963 234.306C393.203 234.696 393.253 234.986 393.193 235.016Z" fill="#263238"/>
<path d="M397.04 225.306C396.91 225.376 396.38 224.186 395.01 223.586C393.66 222.936 392.41 223.296 392.38 223.156C392.36 223.106 392.64 222.916 393.17 222.826C393.7 222.736 394.47 222.786 395.22 223.136C395.97 223.486 396.51 224.036 396.78 224.496C397.05 224.956 397.09 225.286 397.04 225.306Z" fill="#263238"/>
<path d="M334.171 211.426C334.181 211.436 334.111 211.596 333.961 211.886C333.771 212.226 333.541 212.646 333.261 213.166C332.641 214.266 331.721 215.856 330.561 217.806C329.401 219.756 328.001 222.056 326.401 224.586C325.601 225.846 324.741 227.166 323.831 228.516C322.911 229.866 321.961 231.256 320.801 232.586C320.501 232.916 320.221 233.236 319.771 233.506C319.661 233.586 319.501 233.606 319.331 233.596C319.171 233.586 319.081 233.516 318.951 233.476C318.741 233.356 318.551 233.236 318.381 233.086C317.701 232.526 317.161 231.886 316.631 231.256C315.581 229.996 314.661 228.716 313.791 227.486C312.071 225.026 310.611 222.756 309.401 220.846C308.201 218.926 307.251 217.356 306.611 216.266C306.321 215.756 306.081 215.336 305.891 214.996C305.731 214.706 305.651 214.546 305.671 214.536C305.681 214.526 305.791 214.666 305.981 214.946C306.191 215.276 306.461 215.676 306.781 216.166C307.511 217.286 308.501 218.806 309.701 220.656C310.941 222.546 312.431 224.796 314.171 227.226C315.041 228.436 315.971 229.706 317.001 230.946C317.521 231.556 318.071 232.186 318.691 232.696C318.991 232.936 319.371 233.206 319.551 233.056C319.831 232.886 320.151 232.566 320.421 232.256C321.531 230.976 322.491 229.576 323.411 228.246C324.331 226.906 325.191 225.596 326.001 224.336C327.621 221.826 329.051 219.536 330.251 217.616C331.421 215.736 332.371 214.196 333.081 213.066C333.401 212.566 333.651 212.166 333.861 211.836C334.051 211.556 334.161 211.416 334.171 211.426Z" fill="#263238"/>
<path d="M312.872 225.656C312.812 225.666 312.692 225.316 312.742 224.746C312.782 224.176 313.032 223.386 313.582 222.686C314.132 221.986 314.842 221.556 315.392 221.386C315.942 221.206 316.302 221.246 316.312 221.306C316.352 221.446 314.962 221.696 313.972 222.996C312.942 224.246 313.012 225.656 312.872 225.656Z" fill="#263238"/>
<path d="M319.442 233.536C319.312 233.556 318.972 231.796 318.962 229.596C318.942 227.396 319.262 225.636 319.392 225.646C319.532 225.666 319.442 227.426 319.462 229.586C319.462 231.766 319.582 233.526 319.442 233.536Z" fill="#263238"/>
<path d="M326.902 223.496C326.762 223.536 326.452 222.426 325.412 221.586C324.392 220.716 323.252 220.606 323.262 220.456C323.262 220.396 323.562 220.326 324.032 220.406C324.502 220.476 325.152 220.726 325.722 221.206C326.292 221.686 326.652 222.276 326.802 222.726C326.972 223.176 326.962 223.476 326.902 223.496Z" fill="#263238"/>
<path d="M331.773 215.346C331.633 215.366 331.463 214.246 330.543 213.286C329.653 212.306 328.533 212.056 328.563 211.916C328.573 211.856 328.873 211.826 329.333 211.956C329.793 212.086 330.393 212.406 330.903 212.946C331.403 213.486 331.683 214.106 331.783 214.576C331.883 215.036 331.833 215.336 331.773 215.346Z" fill="#263238"/>
<path d="M307.9 218.196C307.84 218.206 307.68 217.816 307.66 217.146C307.63 216.476 307.79 215.536 308.27 214.626C308.76 213.716 309.45 213.056 310.02 212.716C310.59 212.366 311 212.276 311.02 212.336C311.1 212.466 309.59 213.156 308.7 214.866C307.78 216.546 308.04 218.186 307.9 218.196Z" fill="#263238"/>
<g opacity="0.4">
<g opacity="0.4">
<path opacity="0.4" d="M293.852 185.956C295.992 194.176 299.572 207.556 303.442 218.036C303.622 218.516 303.812 219.016 304.182 219.366C305.162 220.306 306.852 219.726 307.782 218.736C308.662 217.796 309.172 216.576 309.892 215.516C310.612 214.446 311.672 213.466 312.962 213.416C314.012 213.376 314.992 213.996 315.682 214.786C316.372 215.576 316.832 216.536 317.352 217.446C317.632 217.936 317.982 218.466 318.532 218.586C319.082 218.696 319.692 218.196 319.372 217.596L315.942 208.716C315.942 208.716 314.372 202.206 308.922 203.216C302.832 204.346 305.592 214.346 305.592 214.346C305.592 214.346 293.762 185.616 293.852 185.956Z" fill="black"/>
</g>
</g>
<path d="M319.54 217.946C319.52 217.956 319.42 217.756 319.25 217.366C319.07 216.976 318.83 216.396 318.52 215.656C317.9 214.096 317.05 211.936 316 209.286C315.73 208.616 315.44 207.916 315.13 207.196C314.81 206.476 314.46 205.766 313.88 205.176C312.74 204.016 310.97 203.226 309.14 203.406C308.25 203.526 307.31 203.886 306.64 204.526C305.96 205.176 305.62 206.136 305.29 207.116C304.97 208.056 304.98 209.106 305.08 210.156C305.18 211.206 305.39 212.276 305.64 213.336C305.74 213.726 305.83 214.116 305.92 214.476L305.45 214.616C304.05 210.586 302.43 206.856 300.96 203.476C299.48 200.096 298.13 197.066 297.07 194.496C296.01 191.926 295.23 189.816 294.76 188.336C294.51 187.606 294.36 187.016 294.25 186.626C294.14 186.236 294.09 186.026 294.11 186.016C294.13 186.016 294.21 186.206 294.34 186.596C294.48 186.976 294.66 187.546 294.94 188.276C295.46 189.726 296.29 191.816 297.39 194.356C298.49 196.906 299.87 199.916 301.37 203.286C302.87 206.656 304.5 210.386 305.91 214.446L305.44 214.586C305.35 214.226 305.25 213.826 305.16 213.436C304.91 212.356 304.69 211.276 304.59 210.186C304.49 209.106 304.47 207.986 304.83 206.946C305.16 205.966 305.53 204.926 306.31 204.176C307.11 203.446 308.09 203.076 309.09 202.946C311.1 202.756 312.96 203.626 314.18 204.886C314.8 205.526 315.18 206.316 315.48 207.036C315.79 207.766 316.07 208.476 316.33 209.146C317.32 211.816 318.13 213.996 318.71 215.566C318.98 216.286 319.19 216.866 319.36 217.316C319.48 217.726 319.55 217.946 319.54 217.946Z" fill="#263238"/>
<g opacity="0.4">
<g opacity="0.4">
<path opacity="0.4" d="M320.022 217.706C319.812 217.846 319.962 218.216 320.212 218.266C320.462 218.316 320.702 218.176 320.902 218.016C322.172 217.026 322.892 215.506 323.782 214.176C324.682 212.836 325.992 211.556 327.602 211.546C329.312 211.536 330.682 212.976 331.532 214.456C332.372 215.946 332.952 217.626 334.172 218.836C340.292 209.856 345.192 200.036 348.682 189.746C346.672 191.136 345.362 193.296 344.102 195.396C340.852 200.816 337.612 206.226 334.362 211.646C333.682 210.066 332.872 208.496 331.622 207.316C330.362 206.136 328.572 205.406 326.902 205.806C325.002 206.246 323.692 207.966 322.762 209.676C321.402 212.186 320.522 214.946 320.162 217.766" fill="black"/>
</g>
</g>
<path d="M447.73 297.816C447.7 297.836 447.47 297.446 447.08 296.726C446.69 296.006 446.15 294.956 445.52 293.636C444.25 291.006 442.64 287.296 441.13 283.096C439.63 278.896 438.52 275.006 437.82 272.166C437.47 270.746 437.22 269.596 437.06 268.786C436.9 267.986 436.83 267.536 436.87 267.526C436.9 267.516 437.04 267.956 437.25 268.736C437.49 269.616 437.79 270.736 438.16 272.066C438.94 274.876 440.1 278.736 441.59 282.926C443.09 287.106 444.65 290.826 445.83 293.486C446.4 294.746 446.87 295.806 447.24 296.636C447.59 297.386 447.76 297.796 447.73 297.816Z" fill="#263238"/>
<path d="M438.221 295.936C438.191 295.946 438.051 295.556 437.821 294.846C437.591 294.136 437.301 293.086 436.981 291.786C436.341 289.186 435.671 285.536 435.341 281.456C435.021 277.376 435.121 273.656 435.341 270.996C435.451 269.666 435.571 268.586 435.691 267.846C435.801 267.106 435.881 266.696 435.911 266.706C435.941 266.706 435.931 267.126 435.881 267.866C435.821 268.606 435.751 269.686 435.691 271.016C435.561 273.676 435.521 277.366 435.841 281.416C436.161 285.466 436.781 289.106 437.331 291.716C437.601 293.016 437.841 294.076 438.011 294.796C438.171 295.516 438.251 295.926 438.221 295.936Z" fill="#263238"/>
<path d="M468.783 208.396C468.792 208.376 469.032 208.466 469.552 208.686L469.703 208.756L469.543 208.816C467.373 209.596 459.763 212.006 450.453 213.696C444.873 214.726 439.762 215.316 436.062 215.616C434.213 215.766 432.713 215.856 431.673 215.896C430.633 215.936 430.062 215.936 430.062 215.906C430.062 215.876 430.633 215.806 431.663 215.706C432.783 215.596 434.253 215.446 436.033 215.276C439.723 214.886 444.802 214.246 450.362 213.216C459.642 211.526 467.273 209.276 469.503 208.696L469.492 208.816C468.992 208.546 468.773 208.416 468.783 208.396Z" fill="#263238"/>
<path d="M460.16 204.056C460.15 204.046 460.26 203.896 460.57 203.806C460.87 203.716 461.38 203.766 461.85 204.086C462.3 204.396 462.81 205.026 462.68 205.866C462.61 206.266 462.33 206.656 461.95 206.866C461.57 207.086 461.11 207.166 460.67 207.106C460.23 207.046 459.81 206.866 459.49 206.556C459.17 206.246 459.01 205.806 459.02 205.406C459.05 204.576 459.61 204.036 460.09 203.766C460.59 203.496 461.08 203.476 461.38 203.556C461.69 203.636 461.81 203.776 461.8 203.786C461.79 203.876 461.12 203.496 460.27 204.056C459.88 204.316 459.47 204.806 459.48 205.396C459.46 205.996 460.02 206.516 460.74 206.596C461.44 206.696 462.13 206.326 462.24 205.756C462.36 205.196 462.01 204.646 461.65 204.356C461.28 204.056 460.88 203.956 460.61 203.986C460.33 204.016 460.19 204.106 460.16 204.056Z" fill="#263238"/>
<path d="M311.56 225.166C311.57 225.176 311.38 225.346 311.01 225.646C310.63 225.936 310.11 226.406 309.36 226.916C307.9 227.986 305.66 229.376 302.71 230.696C299.76 232.026 296.04 233.196 291.79 233.806C289.66 234.076 287.41 234.246 285.08 234.166C282.75 234.086 280.34 233.796 277.92 233.276C273.08 232.186 268.72 230.396 264.62 229.296C262.57 228.726 260.59 228.326 258.72 228.136C256.85 227.956 255.08 227.996 253.5 228.186C250.32 228.576 247.89 229.656 246.42 230.676C244.94 231.686 244.3 232.476 244.25 232.426C244.25 232.426 244.84 231.596 246.31 230.516C247.76 229.436 250.22 228.276 253.45 227.836C255.06 227.616 256.85 227.566 258.76 227.726C260.66 227.906 262.67 228.296 264.74 228.856C268.88 229.946 273.25 231.716 278.03 232.786C280.42 233.296 282.8 233.586 285.1 233.676C287.41 233.756 289.63 233.606 291.74 233.346C295.94 232.776 299.63 231.656 302.58 230.376C305.53 229.096 307.78 227.766 309.26 226.756C310.02 226.276 310.56 225.826 310.96 225.566C311.34 225.286 311.55 225.146 311.56 225.166Z" fill="#FAFAFA"/>
<path d="M375.112 266.346C375.112 266.356 375.002 266.306 374.812 266.206C374.592 266.096 374.312 265.946 373.952 265.756C373.572 265.566 373.082 265.366 372.512 265.106C371.922 264.906 371.262 264.616 370.472 264.416C367.372 263.476 362.592 263.006 356.852 263.916C353.982 264.336 350.882 265.116 347.582 266.016C344.282 266.916 340.762 267.966 336.972 268.736C333.192 269.516 329.092 269.926 324.892 269.476C320.682 269.086 316.462 267.896 312.232 266.496C308.012 265.076 303.972 263.486 300.002 262.166C296.042 260.816 292.122 259.816 288.322 259.306C280.702 258.266 273.712 259.046 268.082 260.406C265.262 261.096 262.782 261.976 260.632 262.816C259.572 263.276 258.582 263.686 257.692 264.116C256.812 264.566 255.982 264.936 255.282 265.336C254.572 265.726 253.942 266.086 253.392 266.396C252.862 266.716 252.412 266.996 252.042 267.226C251.692 267.436 251.422 267.606 251.212 267.736C251.022 267.846 250.922 267.906 250.922 267.896C250.922 267.886 251.012 267.816 251.192 267.696C251.392 267.556 251.662 267.376 252.002 267.146C252.362 266.906 252.792 266.606 253.332 266.276C253.882 265.956 254.502 265.586 255.202 265.176C255.912 264.766 256.732 264.376 257.602 263.916C258.492 263.466 259.482 263.046 260.542 262.576C262.692 261.716 265.182 260.806 268.022 260.086C273.672 258.666 280.722 257.846 288.402 258.876C292.242 259.376 296.192 260.386 300.172 261.736C304.162 263.056 308.202 264.646 312.412 266.056C316.612 267.446 320.802 268.626 324.962 269.016C329.112 269.476 333.152 269.076 336.902 268.316C340.662 267.566 344.182 266.536 347.492 265.646C350.802 264.756 353.912 263.996 356.812 263.596C362.602 262.716 367.432 263.246 370.542 264.256C371.332 264.476 371.992 264.776 372.582 264.996C373.152 265.266 373.642 265.486 374.012 265.696C374.362 265.906 374.642 266.066 374.852 266.186C375.022 266.276 375.112 266.336 375.112 266.346Z" fill="#FAFAFA"/>
<path d="M324.723 224.456C324.743 224.396 325.613 224.796 327.283 225.016C328.943 225.256 331.423 225.206 334.333 224.456C337.263 223.746 340.533 222.216 344.263 220.746C346.133 220.016 348.153 219.336 350.313 218.946C352.473 218.566 354.763 218.406 357.083 218.556C361.743 218.826 366.063 220.076 369.773 221.606C373.493 223.146 376.643 224.936 379.233 226.516C381.823 228.096 383.853 229.476 385.253 230.426C385.913 230.886 386.443 231.256 386.853 231.546C387.213 231.806 387.403 231.946 387.393 231.966C387.383 231.976 387.183 231.866 386.803 231.636C386.383 231.376 385.833 231.026 385.153 230.596C383.723 229.696 381.663 228.366 379.063 226.826C376.463 225.296 373.303 223.546 369.603 222.046C365.913 220.556 361.643 219.336 357.063 219.076C354.773 218.936 352.533 219.086 350.403 219.446C348.273 219.826 346.293 220.486 344.423 221.196C340.713 222.646 337.393 224.146 334.413 224.826C331.443 225.546 328.923 225.546 327.243 225.246C325.563 224.916 324.723 224.456 324.723 224.456Z" fill="#FAFAFA"/>
<path d="M383.161 199.376C383.171 199.406 382.661 199.566 381.741 199.806C381.281 199.936 380.711 200.076 380.041 200.206C379.371 200.336 378.621 200.516 377.771 200.636C376.081 200.926 374.051 201.156 371.791 201.276C369.531 201.376 367.031 201.366 364.431 201.146C361.821 200.916 359.361 200.506 357.151 200.026C354.941 199.516 352.981 198.956 351.371 198.386C350.551 198.126 349.841 197.826 349.211 197.576C348.571 197.336 348.041 197.096 347.611 196.896C346.741 196.496 346.271 196.266 346.281 196.226C346.291 196.196 346.791 196.366 347.681 196.716C348.121 196.896 348.671 197.106 349.311 197.316C349.951 197.536 350.671 197.816 351.481 198.046C353.101 198.576 355.051 199.096 357.251 199.576C359.451 200.026 361.891 200.416 364.471 200.646C367.051 200.856 369.531 200.886 371.771 200.806C374.011 200.706 376.031 200.516 377.711 200.276C378.561 200.176 379.311 200.026 379.981 199.916C380.651 199.816 381.221 199.696 381.681 199.596C382.631 199.426 383.151 199.336 383.161 199.376Z" fill="#FAFAFA"/>
<path d="M242.333 205.796C242.323 205.786 242.473 205.646 242.773 205.406C243.073 205.166 243.503 204.816 244.083 204.376C245.233 203.496 246.923 202.256 249.073 200.816C253.363 197.946 259.583 194.216 267.173 191.876C274.773 189.536 282.152 189.456 287.242 190.476C289.792 190.966 291.803 191.616 293.143 192.166C293.823 192.416 294.323 192.686 294.673 192.836C295.013 192.996 295.192 193.096 295.182 193.106C295.162 193.146 294.433 192.826 293.073 192.346C291.723 191.856 289.712 191.256 287.182 190.826C282.132 189.906 274.843 190.036 267.323 192.356C259.803 194.676 253.592 198.326 249.262 201.116C247.092 202.516 245.383 203.706 244.193 204.536C243.633 204.926 243.183 205.236 242.823 205.486C242.523 205.706 242.353 205.816 242.333 205.796Z" fill="#FAFAFA"/>
<path d="M368.201 310.666C368.201 310.676 368.111 310.696 367.921 310.746C367.701 310.796 367.431 310.856 367.081 310.926C366.711 311.016 366.251 311.086 365.701 311.136C365.421 311.166 365.131 311.196 364.811 311.226C364.491 311.236 364.151 311.246 363.801 311.256C360.921 311.376 356.781 310.636 351.921 309.066C349.481 308.306 346.841 307.376 343.971 306.526C341.101 305.676 337.971 305.016 334.621 304.716C327.921 304.076 320.491 304.886 312.851 306.276C305.191 307.656 297.961 309.396 291.231 310.196C284.521 311.026 278.371 311.086 273.301 310.316C268.211 309.626 264.291 308.086 261.741 306.826C261.111 306.496 260.541 306.206 260.061 305.936C259.601 305.646 259.211 305.396 258.881 305.186C258.581 304.996 258.351 304.836 258.161 304.716C258.001 304.606 257.921 304.546 257.931 304.546C257.931 304.536 258.021 304.586 258.191 304.676C258.381 304.786 258.631 304.926 258.931 305.106C259.261 305.306 259.661 305.536 260.131 305.806C260.631 306.056 261.191 306.336 261.831 306.646C264.401 307.846 268.301 309.326 273.361 309.966C278.401 310.686 284.511 310.596 291.191 309.746C297.881 308.926 305.101 307.176 312.781 305.796C320.441 304.396 327.921 303.596 334.681 304.266C338.051 304.586 341.221 305.266 344.101 306.136C346.981 307.006 349.611 307.956 352.041 308.736C356.881 310.336 360.961 311.126 363.811 311.066C364.161 311.066 364.501 311.066 364.821 311.066C365.131 311.036 365.431 311.016 365.701 310.996C366.251 310.966 366.711 310.906 367.081 310.836C367.431 310.786 367.711 310.736 367.921 310.706C368.101 310.676 368.201 310.666 368.201 310.666Z" fill="#FAFAFA"/>
<g opacity="0.3">
<g opacity="0.3">
<path opacity="0.3" d="M280.09 317.556C284.62 328.866 293.39 336.896 305.46 338.556C317.53 340.216 329.74 337.456 341.49 334.256C320.12 331.266 301.22 328.306 280.09 317.556Z" fill="black"/>
</g>
</g>
<path d="M371.262 348.656C371.262 348.666 371.162 348.626 370.962 348.546C370.742 348.456 370.472 348.336 370.112 348.186C369.342 347.846 368.262 347.366 366.882 346.756C364.072 345.516 360.042 343.626 355.012 341.446C352.482 340.386 349.672 339.306 346.542 338.576C343.422 337.836 339.952 337.586 336.382 338.106C334.602 338.366 332.792 338.776 330.982 339.336C329.182 339.906 327.372 340.596 325.572 341.386C321.962 342.956 318.372 344.926 314.672 346.906C310.972 348.886 307.292 350.716 303.552 352.076C299.822 353.426 296.032 354.306 292.362 354.356C288.682 354.456 285.232 353.586 282.232 352.366C279.212 351.156 276.592 349.636 274.202 348.286C271.812 346.926 269.662 345.686 267.702 344.736C265.742 343.796 264.012 343.056 262.542 342.636C261.822 342.376 261.152 342.246 260.582 342.106C260.012 341.956 259.522 341.876 259.122 341.826C258.742 341.766 258.442 341.716 258.212 341.686C258.012 341.646 257.902 341.626 257.902 341.616C257.902 341.606 258.012 341.616 258.212 341.636C258.442 341.656 258.752 341.696 259.132 341.736C259.532 341.776 260.032 341.836 260.612 341.976C261.192 342.106 261.872 342.216 262.602 342.466C264.092 342.856 265.842 343.586 267.832 344.506C269.812 345.436 271.982 346.666 274.382 348.006C276.782 349.336 279.402 350.826 282.392 352.016C285.372 353.206 288.752 354.046 292.362 353.926C295.972 353.866 299.702 352.996 303.402 351.646C307.102 350.296 310.762 348.466 314.452 346.496C318.142 344.516 321.742 342.546 325.392 340.976C327.212 340.186 329.032 339.486 330.862 338.916C332.692 338.366 334.522 337.946 336.332 337.686C339.962 337.166 343.492 337.446 346.652 338.206C349.812 338.956 352.642 340.066 355.162 341.146C360.192 343.376 364.192 345.316 366.982 346.606C368.352 347.256 369.422 347.766 370.182 348.126C370.522 348.296 370.802 348.426 371.012 348.536C371.172 348.596 371.262 348.646 371.262 348.656Z" fill="#FAFAFA"/>
</svg>
