<svg width="245" height="200" viewBox="0 0 245 200" fill="none" xmlns="http://www.w3.org/2000/svg">
<path d="M164.203 84.933H78.2305V170.865H164.203V84.933Z" fill="#FFA412"/>
<path d="M190.711 84.9327H104.738V170.865H190.711V84.9327Z" fill="#FFB93E"/>
<path d="M104.732 84.9329L78.2266 100.997V84.9329H104.732Z" fill="#F99746"/>
<path d="M121.28 135.121H87.9492L89.353 131.227L87.9492 127.026H120.97L118.945 131.384L121.28 135.121Z" fill="#FFD5AB"/>
<path d="M104.615 127.026V135.121H87.9492L89.353 131.227L87.9492 127.026H104.615Z" fill="#F99746"/>
<path d="M154.009 35.5223H104.57V84.9374H154.009V35.5223Z" fill="#FFA412"/>
<path d="M169.251 35.5226H119.812V84.9376H169.251V35.5226Z" fill="#FFB93E"/>
<path d="M119.814 35.5223L104.57 44.7595V35.5223H119.814Z" fill="#F99746"/>
<path d="M178.335 46.0195H139.398V84.9382H178.335V46.0195Z" fill="#4A75CB"/>
<path d="M190.339 46.0192H151.402V84.9378H190.339V46.0192Z" fill="#699DEE"/>
<path d="M168.953 72.7162L154.504 75.6L155.97 82.938L170.419 80.0543L168.953 72.7162Z" fill="#EBF2F9"/>
<path d="M158.405 55.9353H144.336L144.93 54.2939L144.336 52.522H158.275L157.42 54.3613L158.405 55.9353Z" fill="#EBF2F9"/>
<path d="M151.373 52.522V55.9353H144.336L144.93 54.2939L144.336 52.522H151.373Z" fill="#A6C7F9"/>
<path d="M128.133 46.2121H111.508L112.205 44.2738L111.508 42.1736H127.975L126.967 44.3502L128.133 46.2121Z" fill="#FFD5AB"/>
<path d="M119.818 42.1736V46.2121H111.508L112.205 44.2738L111.508 42.1736H119.818Z" fill="#F99746"/>
<path d="M128.133 76.0554H111.508L112.205 74.1127L111.508 72.017H127.975L126.967 74.1936L128.133 76.0554Z" fill="#FFD5AB"/>
<path d="M119.818 72.017V76.0554H111.508L112.205 74.1127L111.508 72.017H119.818Z" fill="#F99746"/>
<path d="M219.715 102.504H151.316V170.87H219.715V102.504Z" fill="#4A75CB"/>
<path d="M240.797 102.503H172.398V170.869H240.797V102.503Z" fill="#699DEE"/>
<path d="M235.109 106.623L218.723 109.893L220.385 118.215L236.771 114.944L235.109 106.623Z" fill="#EBF2F9"/>
<path d="M181.487 113.328H162.945L163.728 111.165L162.945 108.826H181.312L180.187 111.25L181.487 113.328Z" fill="#EBF2F9"/>
<path d="M172.218 108.826V113.328H162.945L163.728 111.165L162.945 108.826H172.218Z" fill="#A6C7F9"/>
<path d="M181.487 164.25H162.945L163.728 162.086L162.945 159.748H181.312L180.187 162.172L181.487 164.25Z" fill="#EBF2F9"/>
<path d="M172.218 159.748V164.25H162.945L163.728 162.086L162.945 159.748H172.218Z" fill="#A6C7F9"/>
<path d="M86.7689 180.516C81.5812 180.516 77.3789 184.716 77.3789 189.902C77.3789 195.087 81.5812 199.287 86.7689 199.287C91.9566 199.287 96.1589 195.087 96.1589 189.902C96.1589 184.716 91.9566 180.516 86.7689 180.516Z" fill="#232323"/>
<path d="M86.7746 183.798C83.4451 183.798 80.75 186.497 80.75 189.82C80.75 193.148 83.4496 195.842 86.7746 195.842C90.1041 195.842 92.7992 193.144 92.7992 189.82C92.7992 186.492 90.1041 183.798 86.7746 183.798Z" fill="#232323"/>
<path d="M220.214 180.516C215.027 180.516 210.824 184.716 210.824 189.902C210.824 195.087 215.027 199.287 220.214 199.287C225.402 199.287 229.604 195.087 229.604 189.902C229.604 184.716 225.402 180.516 220.214 180.516Z" fill="#232323"/>
<path d="M220.22 183.798C216.89 183.798 214.195 186.497 214.195 189.82C214.195 193.148 216.895 195.842 220.22 195.842C223.549 195.842 226.244 193.144 226.244 189.82C226.244 186.492 223.549 183.798 220.22 183.798Z" fill="#232323"/>
<path d="M241.152 170.825H87.4971L26.1645 3.68557C25.6102 2.1772 24.1993 1.15006 22.5904 1.08182L2.14263 0.241432C-0.0529613 0.151647 -1.90661 1.85397 -1.9966 4.04471C-2.08658 6.23545 -0.380502 8.08502 1.81509 8.1748L19.6066 8.90743L79.0206 170.821H65.66C63.5435 170.821 61.8123 172.549 61.8123 174.66V179.243C61.8123 181.355 63.5435 183.082 65.66 183.082H241.152C243.269 183.082 245 181.355 245 179.243V174.66C245.004 172.552 243.272 170.825 241.152 170.825Z" fill="#8F7A61"/>
</svg>
