<svg width="34" height="35" viewBox="0 0 34 35" fill="none" xmlns="http://www.w3.org/2000/svg">
<path d="M20.8164 13.1362V21.22H29.596C29.9567 21.22 30.302 21.0748 30.5549 20.8172L33.0955 18.2262C33.5973 17.7147 33.611 16.8984 33.1263 16.37L30.5593 13.5717C30.3046 13.2941 29.9457 13.1362 29.5697 13.1362H20.8164Z" fill="#8F7A61"/>
<path d="M12.6647 5.05249H3.8851C3.52432 5.05249 3.17908 5.19775 2.9262 5.45537L0.385531 8.04629C-0.116287 8.55785 -0.12997 9.37412 0.354743 9.90252L2.92172 12.7008C3.17645 12.9784 3.53538 13.1363 3.91141 13.1363H12.6647V5.05249Z" fill="#8F7A61"/>
<path d="M18.7958 33.1436V1.3473C18.7958 0.603128 18.1927 0 17.4485 0H16.1012C15.357 0 14.7539 0.603128 14.7539 1.3473V33.1436C14.7539 33.8878 15.357 34.4909 16.1012 34.4909H17.4485C18.1927 34.4909 18.7958 33.8878 18.7958 33.1436Z" fill="#8F7A61"/>
</svg>
