<svg width="696" height="680" viewBox="0 0 696 680" fill="none" xmlns="http://www.w3.org/2000/svg">
<g filter="url(#filter0_d)">
<path d="M315.473 42.5269C333.437 24.5628 362.563 24.5628 380.527 42.5269L633.473 295.473C651.437 313.437 651.437 342.563 633.473 360.527L380.527 613.473C362.563 631.437 333.437 631.437 315.473 613.473L62.5269 360.527C44.5628 342.563 44.5628 313.437 62.5269 295.473L315.473 42.5269Z" fill="#F8F4EE"/>
</g>
<g filter="url(#filter1_d)">
<rect x="526.154" y="416" width="76.9861" height="76.9861" rx="14" transform="rotate(45 526.154 416)" fill="#8F7A61"/>
</g>
<path d="M532.016 460.284L529.354 458.757L526.692 460.284L524.031 458.757L521.369 460.284L519.373 459.139V477.132H531.253V479.772C531.253 480.529 531.872 481.145 532.632 481.145C533.393 481.145 534.012 480.529 534.012 479.772V459.139L532.016 460.284ZM526.692 470.741H520.994V469.415H526.693L526.692 470.741ZM532.391 467.846H520.994V466.52H532.391V467.846ZM532.391 464.951H520.994V463.625H532.391V464.951Z" fill="#F8F4EE"/>
<path d="M530.198 478.562H515.928V479.825C515.928 480.553 516.531 481.145 517.272 481.145H530.566C530.333 480.758 530.198 480.307 530.198 479.825L530.198 478.562Z" fill="#F8F4EE"/>
<mask id="mask0" mask-type="alpha" maskUnits="userSpaceOnUse" x="471" y="416" width="110" height="109">
<rect x="525.887" y="416" width="76.9861" height="76.9861" rx="14" transform="rotate(45 525.887 416)" fill="#8F7A61"/>
</mask>
<g mask="url(#mask0)">
<g filter="url(#filter2_d)">
<rect x="491.592" y="475.576" width="40.2629" height="40.2629" rx="6" transform="rotate(45 491.592 475.576)" fill="#F8F4EE"/>
</g>
</g>
<mask id="mask1" mask-type="alpha" maskUnits="userSpaceOnUse" x="438" y="456" width="108" height="103">
<path d="M545.891 544.879L483.911 482.899L456.037 456.008L438 516.349L480.304 558.653L545.891 544.879Z" fill="#C4C4C4"/>
</mask>
<g mask="url(#mask1)">
<g filter="url(#filter3_d)">
<path d="M487.351 479.819C489.694 477.476 493.493 477.476 495.836 479.819L515.821 499.804C518.164 502.147 518.164 505.946 515.821 508.289L495.836 528.274C493.493 530.617 489.694 530.617 487.351 528.274L467.366 508.289C465.023 505.946 465.023 502.147 467.366 499.804L487.351 479.819Z" fill="#F8F4EE"/>
</g>
<path d="M496.12 504.745C495.761 504.745 495.469 505.037 495.469 505.396C495.469 505.756 495.761 506.048 496.12 506.048H498.074V504.745H496.12Z" fill="#8F7A61"/>
<path d="M494.746 505.365C494.746 504.546 495.398 503.877 496.194 503.877H497.641V502.016C497.641 501.807 497.482 501.643 497.28 501.643H496.556V500.527C496.556 500.318 496.397 500.155 496.194 500.155H495.333L494.71 498.874C494.616 498.688 494.399 498.614 494.225 498.703L493.386 499.135L493.263 498.874C493.169 498.688 492.952 498.614 492.778 498.703L489.955 500.155H487.871C487.27 500.155 486.785 500.653 486.785 501.271V507.971C486.785 508.589 487.27 509.087 487.871 509.087H497.28C497.482 509.087 497.641 508.924 497.641 508.715V506.854H496.194C495.398 506.854 494.746 506.184 494.746 505.365ZM495.832 500.899V501.182L495.695 500.899H495.832ZM494.225 499.537L495.246 501.643H494.609L493.711 499.797L494.225 499.537ZM487.871 500.899H488.508L487.531 501.398C487.516 501.36 487.509 501.316 487.509 501.271C487.509 501.063 487.668 500.899 487.871 500.899ZM488.681 501.643L492.778 499.537L493.798 501.643H488.681Z" fill="#8F7A61"/>
</g>
<path d="M370.021 277.126H256.203V390.891H370.021V277.126Z" fill="#FFA412"/>
<path d="M405.111 277.126H291.293V390.891H405.111V277.126Z" fill="#FFB93E"/>
<path d="M291.293 277.126L256.203 298.393V277.126H291.293Z" fill="#F99746"/>
<path d="M313.208 343.57H269.082L270.94 338.415L269.082 332.854H312.797L310.117 338.623L313.208 343.57Z" fill="#FFD5AB"/>
<path d="M291.145 332.854V343.57H269.082L270.94 338.415L269.082 332.854H291.145Z" fill="#F99746"/>
<path d="M356.54 211.713H291.09V277.133H356.54V211.713Z" fill="#FFA412"/>
<path d="M376.72 211.712H311.27V277.132H376.72V211.712Z" fill="#FFB93E"/>
<path d="M311.271 211.713L291.09 223.942V211.713H311.271Z" fill="#F99746"/>
<path d="M388.742 225.609H337.193V277.133H388.742V225.609Z" fill="#4A75CB"/>
<path d="M404.634 225.608H353.086V277.132H404.634V225.608Z" fill="#699DEE"/>
<path d="M376.325 260.952L357.195 264.77L359.136 274.485L378.265 270.667L376.325 260.952Z" fill="#EBF2F9"/>
<path d="M362.361 238.736H343.734L344.521 236.563L343.734 234.217H362.188L361.056 236.652L362.361 238.736Z" fill="#EBF2F9"/>
<path d="M353.051 234.217V238.736H343.734L344.521 236.563L343.734 234.217H353.051Z" fill="#A6C7F9"/>
<path d="M322.283 225.864H300.273L301.197 223.298L300.273 220.518H322.074L320.74 223.399L322.283 225.864Z" fill="#FFD5AB"/>
<path d="M311.275 220.518V225.864H300.273L301.197 223.298L300.273 220.518H311.275Z" fill="#F99746"/>
<path d="M322.283 265.373H300.273L301.197 262.801L300.273 260.027H322.074L320.74 262.908L322.283 265.373Z" fill="#FFD5AB"/>
<path d="M311.275 260.027V265.373H300.273L301.197 262.801L300.273 260.027H311.275Z" fill="#F99746"/>
<path d="M443.515 300.388H352.963V390.897H443.515V300.388Z" fill="#4A75CB"/>
<path d="M471.431 300.387H380.879V390.897H471.431V300.387Z" fill="#699DEE"/>
<path d="M463.895 305.842L442.201 310.171L444.402 321.188L466.095 316.858L463.895 305.842Z" fill="#EBF2F9"/>
<path d="M392.906 314.718H368.359L369.396 311.855L368.359 308.759H392.674L391.185 311.968L392.906 314.718Z" fill="#EBF2F9"/>
<path d="M380.636 308.759V314.718H368.359L369.396 311.855L368.359 308.759H380.636Z" fill="#A6C7F9"/>
<path d="M392.906 382.133H368.359L369.396 379.269L368.359 376.173H392.674L391.185 379.382L392.906 382.133Z" fill="#EBF2F9"/>
<path d="M380.636 376.173V382.133H368.359L369.396 379.269L368.359 376.173H380.636Z" fill="#A6C7F9"/>
<path d="M267.519 403.668C260.651 403.668 255.088 409.229 255.088 416.093C255.088 422.958 260.651 428.519 267.519 428.519C274.387 428.519 279.951 422.958 279.951 416.093C279.951 409.229 274.387 403.668 267.519 403.668Z" fill="#232323"/>
<path d="M267.521 408.013C263.113 408.013 259.545 411.586 259.545 415.986C259.545 420.391 263.119 423.958 267.521 423.958C271.929 423.958 275.497 420.385 275.497 415.986C275.497 411.58 271.929 408.013 267.521 408.013Z" fill="black"/>
<path d="M444.183 403.668C437.315 403.668 431.752 409.229 431.752 416.093C431.752 422.958 437.315 428.519 444.183 428.519C451.051 428.519 456.615 422.958 456.615 416.093C456.615 409.229 451.051 403.668 444.183 403.668Z" fill="#232323"/>
<path d="M444.183 408.013C439.775 408.013 436.207 411.586 436.207 415.986C436.207 420.391 439.781 423.958 444.183 423.958C448.591 423.958 452.159 420.385 452.159 415.986C452.159 411.58 448.591 408.013 444.183 408.013Z" fill="black"/>
<path d="M471.906 390.838H268.484L187.287 169.564C186.553 167.567 184.685 166.207 182.555 166.117L155.484 165.004C152.578 164.886 150.124 167.139 150.005 170.04C149.885 172.94 152.144 175.389 155.051 175.507L178.605 176.477L257.262 390.833H239.574C236.772 390.833 234.48 393.12 234.48 395.915V401.982C234.48 404.778 236.772 407.065 239.574 407.065H471.906C474.708 407.065 477 404.778 477 401.982V395.915C477.005 393.125 474.713 390.838 471.906 390.838Z" fill="#8F7A61"/>
<g filter="url(#filter4_d)">
<path d="M175.601 139.899C181.068 134.432 189.932 134.432 195.399 139.899L218.101 162.601C223.568 168.068 223.568 176.932 218.101 182.399L195.399 205.101C189.932 210.568 181.068 210.568 175.601 205.101L152.899 182.399C147.432 176.932 147.432 168.068 152.899 162.601L175.601 139.899Z" fill="#F8F4EE"/>
</g>
<path d="M193.84 171.719C192.928 171.719 192.145 171.195 191.758 170.431C191.372 171.195 190.586 171.719 189.673 171.719C188.76 171.719 187.972 171.195 187.587 170.431C187.2 171.195 186.412 171.719 185.499 171.719C184.587 171.719 183.797 171.195 183.411 170.431C183.025 171.195 182.236 171.719 181.323 171.719C180.411 171.719 179.621 171.195 179.235 170.431C178.85 171.195 178.048 171.719 177.135 171.719C176.731 171.719 176.367 171.616 176.007 171.436V180.136H174.783V182.448H196.169V180.136H195.017V171.394C194.657 171.6 194.274 171.719 193.84 171.719ZM185.512 172.984H192.64V176.524H185.512V172.984ZM178.383 172.984H183.136V178.908H178.383V172.984Z" fill="#8F7A61"/>
<path d="M174.809 169.445H174.811C174.811 169.443 174.811 169.441 174.811 169.44L174.809 169.445Z" fill="#8F7A61"/>
<path d="M179.295 169.371L180.808 164.603H184.002L183.35 169.371H187.651L187.014 164.603H190.304L191.707 169.371H196.158L193.865 164.603V161.062H177.232V164.603L174.844 169.371H179.295Z" fill="#8F7A61"/>
<defs>
<filter id="filter0_d" x="0" y="-16" width="696" height="696" filterUnits="userSpaceOnUse" color-interpolation-filters="sRGB">
<feFlood flood-opacity="0" result="BackgroundImageFix"/>
<feColorMatrix in="SourceAlpha" type="matrix" values="0 0 0 0 0 0 0 0 0 0 0 0 0 0 0 0 0 0 127 0"/>
<feOffset dy="4"/>
<feGaussianBlur stdDeviation="15"/>
<feColorMatrix type="matrix" values="0 0 0 0 0.8875 0 0 0 0 0.846781 0 0 0 0 0.796531 0 0 0 1 0"/>
<feBlend mode="normal" in2="BackgroundImageFix" result="effect1_dropShadow"/>
<feBlend mode="normal" in="SourceGraphic" in2="effect1_dropShadow" result="shape"/>
</filter>
<filter id="filter1_d" x="441.717" y="390" width="168.875" height="168.875" filterUnits="userSpaceOnUse" color-interpolation-filters="sRGB">
<feFlood flood-opacity="0" result="BackgroundImageFix"/>
<feColorMatrix in="SourceAlpha" type="matrix" values="0 0 0 0 0 0 0 0 0 0 0 0 0 0 0 0 0 0 127 0"/>
<feOffset dy="4"/>
<feGaussianBlur stdDeviation="15"/>
<feColorMatrix type="matrix" values="0 0 0 0 0 0 0 0 0 0 0 0 0 0 0 0 0 0 0.3 0"/>
<feBlend mode="normal" in2="BackgroundImageFix" result="effect1_dropShadow"/>
<feBlend mode="normal" in="SourceGraphic" in2="effect1_dropShadow" result="shape"/>
</filter>
<filter id="filter2_d" x="433.121" y="449.576" width="116.94" height="116.94" filterUnits="userSpaceOnUse" color-interpolation-filters="sRGB">
<feFlood flood-opacity="0" result="BackgroundImageFix"/>
<feColorMatrix in="SourceAlpha" type="matrix" values="0 0 0 0 0 0 0 0 0 0 0 0 0 0 0 0 0 0 127 0"/>
<feOffset dy="4"/>
<feGaussianBlur stdDeviation="15"/>
<feColorMatrix type="matrix" values="0 0 0 0 0.416667 0 0 0 0 0.343152 0 0 0 0 0.252431 0 0 0 1 0"/>
<feBlend mode="normal" in2="BackgroundImageFix" result="effect1_dropShadow"/>
<feBlend mode="normal" in="SourceGraphic" in2="effect1_dropShadow" result="shape"/>
</filter>
<filter id="filter3_d" x="435.609" y="452.062" width="111.97" height="111.97" filterUnits="userSpaceOnUse" color-interpolation-filters="sRGB">
<feFlood flood-opacity="0" result="BackgroundImageFix"/>
<feColorMatrix in="SourceAlpha" type="matrix" values="0 0 0 0 0 0 0 0 0 0 0 0 0 0 0 0 0 0 127 0"/>
<feOffset dy="4"/>
<feGaussianBlur stdDeviation="15"/>
<feColorMatrix type="matrix" values="0 0 0 0 0.8875 0 0 0 0 0.846781 0 0 0 0 0.796531 0 0 0 1 0"/>
<feBlend mode="normal" in2="BackgroundImageFix" result="effect1_dropShadow"/>
<feBlend mode="normal" in="SourceGraphic" in2="effect1_dropShadow" result="shape"/>
</filter>
<filter id="filter4_d" x="118.799" y="109.799" width="133.402" height="133.402" filterUnits="userSpaceOnUse" color-interpolation-filters="sRGB">
<feFlood flood-opacity="0" result="BackgroundImageFix"/>
<feColorMatrix in="SourceAlpha" type="matrix" values="0 0 0 0 0 0 0 0 0 0 0 0 0 0 0 0 0 0 127 0"/>
<feOffset dy="4"/>
<feGaussianBlur stdDeviation="15"/>
<feColorMatrix type="matrix" values="0 0 0 0 0.8875 0 0 0 0 0.846781 0 0 0 0 0.796531 0 0 0 1 0"/>
<feBlend mode="normal" in2="BackgroundImageFix" result="effect1_dropShadow"/>
<feBlend mode="normal" in="SourceGraphic" in2="effect1_dropShadow" result="shape"/>
</filter>
</defs>
</svg>
