<svg width="556" height="386" viewBox="0 0 556 386" fill="none" xmlns="http://www.w3.org/2000/svg">
<path opacity="0.2" d="M200.742 333.935C311.609 333.935 401.485 328.831 401.485 322.536C401.485 316.241 311.609 311.137 200.742 311.137C89.8754 311.137 0 316.241 0 322.536C0 328.831 89.8754 333.935 200.742 333.935Z" fill="#CFBFA6"/>
<path d="M44.93 282.557V298.216H31.3301V282.487L44.93 282.557Z" fill="#6F5C47"/>
<path d="M187.499 282.557V298.216H149.217V282.487L187.499 282.557Z" fill="#6F5C47"/>
<path d="M159.707 244.616C154.354 244.616 149.932 261.093 149.217 282.487H170.197C169.482 261.092 165.059 244.616 159.707 244.616Z" fill="#6F5C47"/>
<path d="M192.548 251.09H161.232V326.068H192.548C197.537 326.068 201.582 309.284 201.582 288.579C201.582 267.875 197.537 251.09 192.548 251.09Z" fill="#8F7A61"/>
<path d="M161.231 326.069C166.22 326.069 170.264 309.284 170.264 288.58C170.264 267.875 166.22 251.091 161.231 251.091C156.242 251.091 152.197 267.875 152.197 288.58C152.197 309.284 156.242 326.069 161.231 326.069Z" fill="#CD9E64"/>
<path d="M163.32 267.723C162.677 266.611 161.972 265.996 161.231 265.996C158.225 265.996 155.789 276.107 155.789 288.58C155.789 301.052 158.225 311.164 161.231 311.164C161.971 311.164 162.677 310.547 163.32 309.437C161.352 306.037 159.967 297.98 159.967 288.58C159.967 279.179 161.352 271.122 163.32 267.723Z" fill="#EBE0CF"/>
<path d="M163.322 267.723C161.354 271.123 159.969 279.179 159.969 288.58C159.969 297.98 161.354 306.037 163.322 309.437C165.29 306.037 166.675 297.98 166.675 288.58C166.675 279.179 165.29 271.122 163.322 267.723Z" fill="#8F7A61"/>
<path d="M362.345 251.09H331.029V326.068H362.345C367.334 326.068 371.379 309.284 371.379 288.579C371.379 267.875 367.334 251.09 362.345 251.09Z" fill="#8F7A61"/>
<path d="M331.03 326.069C336.019 326.069 340.063 309.284 340.063 288.58C340.063 267.875 336.019 251.091 331.03 251.091C326.041 251.091 321.996 267.875 321.996 288.58C321.996 309.284 326.041 326.069 331.03 326.069Z" fill="#CD9E64"/>
<path d="M333.118 267.723C332.474 266.611 331.77 265.996 331.03 265.996C328.024 265.996 325.588 276.107 325.588 288.58C325.588 301.052 328.024 311.164 331.03 311.164C331.77 311.164 332.475 310.547 333.118 309.437C331.15 306.037 329.765 297.98 329.765 288.58C329.765 279.179 331.15 271.122 333.118 267.723Z" fill="#EBE0CF"/>
<path d="M333.119 267.723C331.15 271.123 329.766 279.179 329.766 288.58C329.766 297.98 331.15 306.037 333.119 309.437C335.087 306.037 336.472 297.98 336.472 288.58C336.472 279.179 335.087 271.122 333.119 267.723Z" fill="#8F7A61"/>
<path d="M41.82 244.616C36.4676 244.616 32.0454 261.093 31.3301 282.487H52.31C51.5955 261.092 47.1725 244.616 41.82 244.616Z" fill="#6F5C47"/>
<path d="M403.16 50.7661H187.498V282.488H403.16V50.7661Z" fill="#E5D6BE"/>
<path d="M394.129 273.454L394.129 59.7993L196.534 59.7993L196.534 273.454H394.129Z" fill="#D8CBB6"/>
<path d="M73.1353 251.09H41.8184V326.068H73.1344C78.1234 326.068 82.168 309.284 82.168 288.579C82.1688 267.875 78.1242 251.09 73.1353 251.09Z" fill="#8F7A61"/>
<path d="M41.8187 326.069C46.8079 326.069 50.8523 309.284 50.8523 288.58C50.8523 267.875 46.8079 251.091 41.8187 251.091C36.8296 251.091 32.7852 267.875 32.7852 288.58C32.7852 309.284 36.8296 326.069 41.8187 326.069Z" fill="#CD9E64"/>
<path d="M43.9073 267.723C43.2636 266.611 42.5588 265.996 41.8187 265.996C38.8131 265.996 36.377 276.107 36.377 288.58C36.377 301.052 38.8131 311.164 41.8187 311.164C42.5588 311.164 43.2644 310.547 43.9073 309.437C41.9389 306.037 40.5542 297.98 40.5542 288.58C40.5542 279.179 41.9389 271.122 43.9073 267.723Z" fill="#EBE0CF"/>
<path d="M43.9078 267.723C41.9394 271.123 40.5547 279.179 40.5547 288.58C40.5547 297.98 41.9394 306.037 43.9078 309.437C45.8762 306.037 47.2609 297.98 47.2609 288.58C47.2609 279.179 45.8762 271.122 43.9078 267.723Z" fill="#8F7A61"/>
<path d="M101.818 50.7661V282.488H149.217C149.933 261.092 154.355 244.617 159.707 244.617C165.06 244.617 169.482 261.093 170.197 282.488H187.499V50.7661H101.818Z" fill="#EFE6D8"/>
<path d="M101.819 105.199H63.2505C56.4886 105.199 50.7621 110.184 49.8293 116.881L40.0131 187.404L27.7069 200.107C23.626 204.32 21.3438 209.955 21.3438 215.82V282.487H31.3297C32.045 261.092 36.4672 244.616 41.8196 244.616C47.1721 244.616 51.5942 261.093 52.3096 282.487H101.818V105.199H101.819Z" fill="#CD9E64"/>
<path d="M410.325 282.487H187.498V298.146H410.325V282.487Z" fill="#EBE0CF"/>
<path d="M187.5 282.487H170.266V298.215H187.5V282.487Z" fill="#DFCFB5"/>
<path d="M101.82 282.487V282.557L52.3105 282.487V298.215H101.82H149.218V282.557L101.82 282.487Z" fill="#CD9E64"/>
<path d="M31.3295 282.557V298.216H17.7305V282.487L31.3295 282.557Z" fill="#CD9E64"/>
<path d="M85.4807 115.135H63.2496C61.4563 115.135 59.9177 116.474 59.671 118.25L50.0449 187.403H85.4807V115.135Z" fill="#D8CBB6"/>
<path d="M84.126 178.973C80.6553 175.502 75.9484 173.552 71.0408 173.552H57.929L64.5061 120.933C64.6193 120.03 65.3877 119.351 66.2985 119.351H85.4807V115.135H63.2496C61.4563 115.135 59.9177 116.474 59.671 118.25L50.0449 187.403H85.4807V178.972H84.126V178.973Z" fill="#CAB696"/>
<path opacity="0.5" d="M81.1526 177.883C76.4696 174.198 73.7363 168.569 73.7363 162.611V119.352C73.7363 118.354 74.5454 117.545 75.5429 117.545H81.1137C82.112 117.545 82.9202 118.354 82.9202 119.352V177.025C82.9211 177.937 81.8697 178.447 81.1526 177.883Z" fill="white"/>
<path d="M47.0122 180.968H39.7285V184.581H47.0122C48.0096 184.581 48.8187 183.772 48.8187 182.774C48.8196 181.777 48.0105 180.968 47.0122 180.968Z" fill="#CAB696"/>
<path d="M37.754 161.885H28.2924C26.9616 161.885 25.8828 162.964 25.8828 164.295V185.523C25.8828 186.854 26.9616 187.933 28.2924 187.933H37.7531C39.0839 187.933 40.1627 186.854 40.1627 185.523V164.295C40.1627 162.964 39.0848 161.885 37.754 161.885Z" fill="#CAB696"/>
<path d="M41.3664 161.885H31.9057C30.5749 161.885 29.4961 162.963 29.4961 164.294V185.523C29.4961 186.853 30.5749 187.932 31.9057 187.932H41.3664C42.6972 187.932 43.776 186.853 43.776 185.523V164.294C43.776 162.963 42.6972 161.885 41.3664 161.885Z" fill="#D8CBB6"/>
<path d="M82.1699 187.404V272.696C82.1699 273.61 82.9118 274.352 83.8261 274.352C84.7405 274.352 85.4824 273.61 85.4824 272.696V187.404H82.1699Z" fill="#CAB696"/>
<path d="M26.6652 245.971C25.9163 245.971 25.3105 245.365 25.3105 244.617V216.836C25.3105 211.293 27.4345 206.047 31.2917 202.064C31.8134 201.527 32.672 201.514 33.2079 202.034C33.7455 202.555 33.7596 203.412 33.2388 203.95C29.8733 207.425 28.0208 212.001 28.0208 216.836V244.617C28.0199 245.365 27.4133 245.971 26.6652 245.971Z" fill="#FBEED1"/>
<path d="M35.7186 200.798C35.379 200.798 35.0386 200.671 34.7751 200.416C34.2383 199.895 34.2242 199.037 34.745 198.5L37.3651 195.796C37.8859 195.258 38.7436 195.246 39.2813 195.766C39.8189 196.286 39.8322 197.144 39.3113 197.682L36.6913 200.386C36.426 200.661 36.0723 200.798 35.7186 200.798Z" fill="#FBEED1"/>
<path d="M357.475 200.798H284.82V273.453H357.475V200.798Z" fill="#EBE0CF"/>
<path d="M327.622 200.797H314.674V223.537H327.622V200.797Z" fill="white"/>
<path d="M284.82 200.799H269.188V273.454H284.82V200.799Z" fill="#CAB696"/>
<path d="M329.238 139.513H267.953V200.798H329.238V139.513Z" fill="#EBE0CF"/>
<path d="M304.056 139.512H293.135V158.693H304.056V139.512Z" fill="white"/>
<path d="M267.954 139.513H248.182V200.798H267.954V139.513Z" fill="#CAB696"/>
<path d="M248.182 128.143H196.531V200.799H248.182V128.143Z" fill="#EBE0CF"/>
<path d="M218.329 128.143H205.381V150.882H218.329V128.143Z" fill="white"/>
<path d="M248.182 200.798H196.531V188.006L248.182 200.798Z" fill="#CAB696"/>
<path d="M269.187 200.799H196.531V273.454H269.187V200.799Z" fill="#EBE0CF"/>
<path d="M239.335 200.797H226.387V223.537H239.335V200.797Z" fill="white"/>
<path d="M269.187 273.454H196.531V256.962L269.187 273.454Z" fill="#CAB696"/>
<path d="M202.956 293.102H187.486V282.487H213.571C213.571 288.35 208.819 293.102 202.956 293.102Z" fill="#D5C2A4"/>
<path d="M394.87 293.102H410.341V282.487H384.256C384.256 288.35 389.008 293.102 394.87 293.102Z" fill="#D5C2A4"/>
<path d="M187.501 293.102C182.296 293.102 178.076 288.883 178.076 283.678V282.487H187.501V293.102Z" fill="#CAB696"/>
<path d="M187.499 50.7661L101.818 245.971V282.488H119.392L187.499 138.25V50.7661Z" fill="#EBE0CF"/>
<path d="M171.901 111.071H99.1816V117.168H171.901V111.071Z" fill="white"/>
<path d="M171.901 117.168H99.1816V123.266H171.901V117.168Z" fill="#E5D6BE"/>
<path d="M171.902 111.07V117.168V123.266H176.946V117.168V111.07H171.902Z" fill="#CAB696"/>
<path d="M171.903 176.677H99.1836V182.774H171.903V176.677Z" fill="white"/>
<path d="M171.901 182.774H99.1816V188.872H171.901V182.774Z" fill="#E5D6BE"/>
<path d="M171.902 176.677V182.774V188.872H176.946V182.774V176.677H171.902Z" fill="#CAB696"/>
<path opacity="0.2" d="M453.412 382.062C510.069 382.062 555.999 376.959 555.999 370.664C555.999 364.368 510.069 359.265 453.412 359.265C396.754 359.265 350.824 364.368 350.824 370.664C350.824 376.959 396.754 382.062 453.412 382.062Z" fill="#CFBFA6"/>
<path d="M417.945 161.345H435.564H451.636H468.836H478.588L481.911 173.273C496.906 227.097 504.507 282.712 504.507 338.585V348.948H477.555L456.564 199.709L451.636 277.818L448.007 348.948H421.055L408.611 161.345H417.945Z" fill="#CD9E64"/>
<path d="M506.35 348.947H475.515L474.262 340.019H505.116L506.35 348.947Z" fill="#C08E4F"/>
<path d="M449.77 348.947H418.935L418.461 340.019H449.315L449.77 348.947Z" fill="#C08E4F"/>
<path d="M479.66 348.948H502.458L504.22 352.596C505.591 355.437 507.96 357.675 510.874 358.884C513.892 360.135 516.28 362.486 517.622 365.412H481.237L479.66 348.948Z" fill="#D5C2A4"/>
<path d="M517.622 365.413C517.894 366.007 518.138 366.615 518.319 367.253L519.268 370.595H481.732L481.236 365.413H517.622Z" fill="#CAB696"/>
<path d="M412.602 357.58C417.267 356.405 421.25 353.379 423.634 349.202L423.779 348.948H446.04L448.141 365.413H401.896C404.293 361.544 408.114 358.71 412.602 357.58Z" fill="#D5C2A4"/>
<path d="M401.896 365.413H448.141L448.802 370.595H399.521L400.533 368.093C400.913 367.154 401.371 366.26 401.896 365.413Z" fill="#CAB696"/>
<path d="M410.002 182.323H438.667L443.603 189.642C445.175 191.973 447.803 193.371 450.615 193.371C459.321 193.371 467.793 190.556 474.768 185.347L481.236 180.517L478.587 161.345H408.611L410.002 182.323Z" fill="#FFB93E"/>
<path d="M408.614 161.345H478.589L484.268 154.59L473.004 77.3457H414.895L403.209 154.59L408.614 161.345Z" fill="#FFB93E"/>
<path d="M434.697 71.6377H454.151L445.523 77.3456H438.668L434.697 71.6377Z" fill="#232323"/>
<path d="M436.258 53.2861V77.345L442.581 84.275L451.635 77.345V53.2861H436.258Z" fill="#E5D6BE"/>
<path d="M445.177 68.8615C442.406 70.1189 439.213 70.3718 436.258 69.6635V53.2861H451.634V62.7221C450.219 65.3934 447.934 67.6111 445.177 68.8615Z" fill="#C9B28E"/>
<path d="M440.596 16.104C450.819 16.104 459.106 24.3913 459.106 34.6142V48.4962C459.106 58.7191 450.819 67.0063 440.596 67.0063C430.373 67.0063 422.086 58.7191 422.086 48.4962V34.6133C422.087 24.3904 430.374 16.104 440.596 16.104Z" fill="#E5D6BE"/>
<path opacity="0.3" d="M459.106 34.6132C459.106 24.3903 450.819 16.103 440.596 16.103C430.373 16.103 422.086 24.3903 422.086 34.6132V38.4845H459.105V34.6132H459.106Z" fill="#72A9F7"/>
<path d="M436.656 40.8875C437.324 40.8875 437.865 41.4286 437.865 42.0962V43.6508C437.865 44.3184 437.324 44.8595 436.656 44.8595C435.988 44.8595 435.447 44.3184 435.447 43.6508V42.0962C435.447 41.4295 435.988 40.8875 436.656 40.8875Z" fill="#402C49"/>
<path d="M424.161 39.8516C424.733 39.8516 425.198 40.3927 425.198 41.0603V42.6149C425.198 43.2825 424.733 43.8237 424.161 43.8237C423.589 43.8237 423.125 43.2825 423.125 42.6149V41.0603C423.125 40.3927 423.589 39.8516 424.161 39.8516Z" fill="#402C49"/>
<path d="M427.17 48.6404C428.79 49.0418 430.457 49.2558 432.126 49.2762C431.736 49.7289 431.309 50.2374 430.811 50.5681C430.313 50.8997 429.694 51.0933 429.112 50.9571C428.613 50.8404 428.192 50.4947 427.887 50.0835C427.581 49.6732 427.371 49.1117 427.17 48.6404Z" fill="#C9B28E"/>
<path d="M426.996 53.8633C430.812 54.7794 434.833 54.8209 438.667 53.9862C438.354 55.7689 437.022 57.3649 435.416 58.1997C433.81 59.0344 431.814 59.0751 430.176 58.3076C428.536 57.5391 427.383 55.6318 426.996 53.8633Z" fill="white"/>
<path d="M437.855 35.8707C439.863 36.1156 441.526 37.2934 442.474 38.9143L432.641 37.7161C433.95 36.3711 435.847 35.6266 437.855 35.8707Z" fill="#8F7A61"/>
<path d="M423.93 36.288C423.026 36.4649 422.279 37.3146 421.852 38.4845L426.275 37.6197C425.687 36.6488 424.833 36.1112 423.93 36.288Z" fill="#8F7A61"/>
<path d="M456.686 49.8347C454.849 49.9099 452.722 49.8595 451.575 48.4226C450.862 47.5295 450.731 46.3189 450.628 45.1809C450.163 40.0513 449.699 34.9208 449.233 29.7913C447.311 31.4652 416.44 27.3507 423.436 18.7831C425.972 15.6785 429.125 13.0646 432.604 11.0715C436.083 9.07839 440.134 7.9094 444.115 8.3701C448.097 8.8308 451.964 11.0786 453.84 14.6218C457.149 14.4228 460.693 16.4646 462.572 19.1978C464.45 21.9302 465.129 25.3452 465.077 28.6612C465.025 31.9763 464.292 35.2392 463.558 38.4729C463.068 40.6402 462.569 42.8243 461.658 44.8511C460.748 46.8769 458.906 49.7437 456.686 49.8347Z" fill="#232323"/>
<path d="M463.561 38.4722C464.294 35.2384 465.027 31.9755 465.079 28.6604C465.131 25.3454 464.452 21.9304 462.574 19.1971C460.696 16.4648 457.152 14.423 453.842 14.6211C451.966 11.0779 448.099 8.83007 444.118 8.36937C440.135 7.90867 436.084 9.07766 432.606 11.0708C429.128 13.0639 425.974 15.6769 423.438 18.7824C416.441 27.3509 447.313 31.4653 449.236 29.7905C449.498 32.6882 449.761 35.586 450.024 38.4837H463.559C463.558 38.4801 463.56 38.4757 463.561 38.4722Z" fill="black"/>
<path d="M436.17 5.90747H433.155C426.318 5.90747 420.775 11.45 420.775 18.2871V32.6563H448.55V18.2871C448.55 11.45 443.007 5.90747 436.17 5.90747Z" fill="#72A9F7"/>
<path d="M450.067 5.90747H436.17C443.007 5.90747 448.55 11.45 448.55 18.2871V32.6563H465.984V21.8241C465.984 13.0337 458.857 5.90747 450.067 5.90747Z" fill="#4A75CB"/>
<path d="M449.576 29.0627H405.803C404.811 29.0627 404.006 29.8674 404.006 30.8596C404.006 31.8517 404.811 32.6564 405.803 32.6564H449.576C450.568 32.6564 451.373 31.8517 451.373 30.8596C451.374 29.8674 450.569 29.0627 449.576 29.0627Z" fill="#4A75CB"/>
<path d="M453.312 52.1154C453.312 55.7117 456.228 58.6271 459.824 58.6271C463.42 58.6271 466.336 55.7117 466.336 52.1154C466.336 48.5192 463.42 45.6038 459.824 45.6038C456.228 45.6038 453.312 48.5192 453.312 52.1154Z" fill="#E5D6BE"/>
<path d="M456.395 52.1156C456.395 54.0097 457.931 55.5456 459.825 55.5456C461.719 55.5456 463.255 54.0097 463.255 52.1156C463.255 50.2215 461.719 48.6855 459.825 48.6855C457.931 48.6855 456.395 50.2215 456.395 52.1156Z" fill="#C9B28E"/>
<path d="M445.523 77.3453L450.32 89.7648L456.043 77.3453L454.151 71.6375L445.523 77.3453Z" fill="#FFA412"/>
<path d="M438.668 77.3456L435.446 87.702L432.832 77.3456L434.697 71.6377L438.668 77.3456Z" fill="#FFA412"/>
<path d="M438.67 77.3455L442.584 84.2754L437.129 82.2991L438.67 77.3455Z" fill="#232323"/>
<path d="M445.525 77.3455L442.584 84.2754L447.655 82.8606L445.525 77.3455Z" fill="#232323"/>
<path d="M414.894 77.3459C406.572 77.3459 398.868 81.7434 394.636 88.9094L383.338 108.04L409.887 110.442L414.894 77.3459Z" fill="#FFB93E"/>
<path d="M388.57 169.696C389.619 168.59 390.669 167.484 391.719 166.377H389.168C388.626 167.394 388.374 168.57 388.57 169.696Z" fill="#EBA58E"/>
<path d="M391.719 166.377C390.67 167.483 389.62 168.589 388.57 169.696C388.375 168.57 388.627 167.394 389.169 166.377H385.277C385.498 168.809 387.92 171.361 390.357 171.525C391.92 171.629 393.466 171.014 394.728 170.088C395.991 169.162 397.297 167.622 398.247 166.377H391.719Z" fill="#E5D6BE"/>
<path d="M384.198 169.696C385.248 168.59 386.298 167.484 387.347 166.377H384.797C384.256 167.394 384.003 168.57 384.198 169.696Z" fill="#EBA58E"/>
<path d="M387.348 166.377C386.298 167.483 385.249 168.589 384.199 169.696C384.004 168.57 384.256 167.394 384.798 166.377H380.906C381.126 168.809 383.549 171.361 385.986 171.525C387.549 171.629 389.094 171.014 390.357 170.088C391.62 169.162 392.926 167.622 393.876 166.377H387.348Z" fill="#E5D6BE"/>
<path d="M377.716 169.696C378.766 168.59 379.815 167.484 380.865 166.377H378.315C377.773 167.394 377.521 168.57 377.716 169.696Z" fill="#EBA58E"/>
<path d="M380.864 166.377C379.814 167.483 378.764 168.59 377.715 169.697C377.519 168.57 377.771 167.394 378.313 166.377H374.422C374.642 168.81 377.065 171.362 379.502 171.525C381.064 171.63 382.61 171.014 383.873 170.088C385.136 169.163 386.442 167.622 387.391 166.377H380.864Z" fill="#E5D6BE"/>
<path d="M359.98 166.376H437.77V88.5865L359.98 88.5865V166.376Z" fill="#739AF0"/>
<path d="M391.945 112.933H405.809V88.5859H391.945V112.933Z" fill="#AFCDFB"/>
<path d="M473.533 88.5862H437.771V166.376H473.533V88.5862Z" fill="#4A75CB"/>
<path d="M462.157 166.539L450.484 156.296C449.146 156.814 448.52 158.416 448.533 159.851C448.547 161.286 449.26 162.642 450.223 163.707C451.186 164.771 452.388 165.584 453.578 166.386H439.291C439.467 167.351 439.986 168.269 440.67 168.989C441.656 170.03 442.937 170.734 444.195 171.421C443.612 173.715 444.268 176.267 446.172 177.672C446.834 178.16 447.599 178.515 448.186 179.091C449.09 179.977 449.47 181.281 450.322 182.216C451.593 183.61 453.647 183.927 455.532 183.98C462.109 184.162 468.529 181.996 473.807 178.067L462.157 166.539Z" fill="#E5D6BE"/>
<path d="M473.003 77.3457C481.069 77.3457 488.463 81.8422 492.174 89.0047L513.822 130.784C517.5 137.883 515.521 146.599 509.139 151.415L473.807 178.069L462.156 166.54L495.627 138.624L476.82 103.527L473.003 77.3457Z" fill="#E5D6BE"/>
<path d="M495.587 90.11C490.819 82.1888 482.249 77.3457 473.004 77.3457L476.822 103.527L482.279 117.231L502.683 101.898L495.587 90.11Z" fill="#FFB93E"/>
<path d="M507.358 109.661L502.684 101.897L482.279 117.23L485.251 124.693L507.358 109.661Z" fill="#E5D6BE"/>
<path d="M487.385 123.241L504.044 111.913L490.227 128.543L487.385 123.241Z" fill="#C9B28E"/>
<path opacity="0.2" d="M450.964 385.65C508.974 385.65 556 380.425 556 373.98C556 367.534 508.974 362.309 450.964 362.309C392.954 362.309 345.928 367.534 345.928 373.98C345.928 380.425 392.954 385.65 450.964 385.65Z" fill="#CFBFA6"/>
<path d="M414.652 159.664H432.691H449.147H466.758H476.743L480.684 173.813C495.679 227.637 503.281 283.252 503.281 339.126V351.745H475.685L454.193 198.944L449.147 278.917L445.431 351.745H417.836L405.096 159.664H414.652Z" fill="#4A75CB"/>
<path d="M505.166 351.744H473.595L472.312 342.603H503.903L505.166 351.744Z" fill="#335DAF"/>
<path d="M447.238 351.744H415.667L415.182 342.603H446.773L447.238 351.744Z" fill="#335DAF"/>
<path d="M477.84 351.744H501.182L502.985 355.48C504.39 358.389 506.815 360.68 509.799 361.918C512.889 363.199 515.334 365.606 516.708 368.602H479.454L477.84 351.744Z" fill="#4A75CB"/>
<path d="M516.707 368.603C516.986 369.211 517.236 369.834 517.421 370.487L518.393 373.909H479.961L479.453 368.603H516.707Z" fill="#F2C94C"/>
<path d="M409.182 360.582C413.958 359.38 418.036 356.282 420.477 352.005L420.626 351.745H443.417L445.569 368.603H398.221C400.674 364.641 404.586 361.74 409.182 360.582Z" fill="#4A75CB"/>
<path d="M398.22 368.603H445.569L446.246 373.909H395.789L396.825 371.347C397.214 370.385 397.683 369.47 398.22 368.603Z" fill="#F2C94C"/>
<path d="M406.774 184.644H436.123L441.177 192.138C442.786 194.525 445.477 195.956 448.356 195.956C457.27 195.956 465.944 193.074 473.085 187.741L479.708 182.795L476.996 163.166H405.35L406.774 184.644Z" fill="#F1AC33"/>
<path d="M406.52 181.143H435.869L440.923 188.637C442.532 191.023 445.223 192.455 448.102 192.455C457.016 192.455 465.69 189.573 472.831 184.24L479.454 179.294L476.742 159.664H405.096L406.52 181.143Z" fill="#FFB93E"/>
<path d="M405.098 159.665H476.744L482.558 152.748L471.025 73.6604H411.53L399.564 152.748L405.098 159.665Z" fill="#FFB93E"/>
<path d="M431.805 67.8157H451.723L442.889 73.6598H435.871L431.805 67.8157Z" fill="#D8A60D"/>
<path d="M433.404 49.0269V73.66L439.879 80.7553L449.149 73.66V49.0269H433.404Z" fill="#D4BF9E"/>
<path d="M442.537 64.9739C439.699 66.2614 436.43 66.5203 433.404 65.7951V49.0269H449.148V58.688C447.699 61.4231 445.36 63.6938 442.537 64.9739Z" fill="#C9B28E"/>
<path d="M437.845 10.957C448.311 10.957 456.797 19.4421 456.797 29.909V44.1223C456.797 54.5892 448.311 63.0743 437.845 63.0743C427.378 63.0743 418.893 54.5892 418.893 44.1223V29.9081C418.893 19.4412 427.379 10.957 437.845 10.957Z" fill="#D4BF9E"/>
<path opacity="0.3" d="M456.797 29.908C456.797 19.4411 448.311 10.9561 437.845 10.9561C427.378 10.9561 418.893 19.4411 418.893 29.908V33.8717H456.796V29.908H456.797Z" fill="#CD9E64"/>
<path d="M433.808 36.3318C434.491 36.3318 435.046 36.8859 435.046 37.5694V39.161C435.046 39.8446 434.491 40.3987 433.808 40.3987C433.124 40.3987 432.57 39.8446 432.57 39.161V37.5694C432.57 36.8868 433.124 36.3318 433.808 36.3318Z" fill="#402C49"/>
<path d="M421.018 35.2717C421.604 35.2717 422.079 35.8258 422.079 36.5094V38.101C422.079 38.7845 421.604 39.3386 421.018 39.3386C420.432 39.3386 419.957 38.7845 419.957 38.101V36.5094C419.957 35.8258 420.432 35.2717 421.018 35.2717Z" fill="#402C49"/>
<path d="M424.098 44.27C425.756 44.6811 427.463 44.9002 429.172 44.921C428.773 45.3845 428.336 45.9051 427.826 46.2437C427.316 46.5832 426.682 46.7815 426.086 46.6421C425.575 46.5226 425.144 46.1686 424.832 45.7476C424.519 45.3275 424.303 44.7526 424.098 44.27Z" fill="#C9B28E"/>
<path d="M423.92 49.6177C427.827 50.5556 431.944 50.5982 435.87 49.7435C435.548 51.5687 434.185 53.2029 432.541 54.0576C430.897 54.9122 428.853 54.9539 427.176 54.168C425.496 53.3813 424.316 51.4284 423.92 49.6177Z" fill="white"/>
<path d="M435.038 31.1957C437.094 31.4465 438.796 32.6525 439.768 34.312L429.699 33.0852C431.04 31.7082 432.982 30.9458 435.038 31.1957Z" fill="#8F7A61"/>
<path d="M420.78 31.6228C419.855 31.8039 419.09 32.6739 418.652 33.8717L423.182 32.9863C422.579 31.9922 421.705 31.4417 420.78 31.6228Z" fill="#8F7A61"/>
<path d="M454.319 45.4931C452.438 45.57 450.26 45.5184 449.086 44.0472C448.356 43.1328 448.222 41.8933 448.116 40.7281C447.64 35.4761 447.164 30.2232 446.688 24.9712C444.72 26.685 413.112 22.4724 420.275 13.7003C422.872 10.5216 426.1 7.84532 429.662 5.80463C433.224 3.76394 437.371 2.56705 441.448 3.03875C445.525 3.51044 449.484 5.81188 451.404 9.43967C454.793 9.23596 458.421 11.3264 460.345 14.1249C462.268 16.9225 462.963 20.419 462.91 23.8141C462.856 27.2083 462.106 30.5491 461.355 33.8601C460.853 36.0791 460.342 38.3153 459.409 40.3904C458.478 42.4646 456.592 45.3998 454.319 45.4931Z" fill="#232323"/>
<path d="M461.357 33.8591C462.108 30.5482 462.858 27.2074 462.912 23.8132C462.965 20.419 462.27 16.9224 460.347 14.124C458.424 11.3264 454.795 9.23589 451.406 9.43869C449.486 5.8109 445.527 3.50947 441.45 3.03777C437.372 2.56608 433.225 3.76297 429.664 5.80366C426.103 7.84435 422.874 10.5197 420.277 13.6993C413.113 22.4723 444.722 26.685 446.69 24.9702C446.959 27.9371 447.228 30.904 447.497 33.8708H461.356C461.355 33.8672 461.356 33.8627 461.357 33.8591Z" fill="#232323"/>
<path d="M433.313 0.517334H430.226C423.226 0.517334 417.551 6.19216 417.551 13.1924V27.9046H445.988V13.1924C445.988 6.19216 440.313 0.517334 433.313 0.517334Z" fill="#4A75CB"/>
<g clip-path="url(#clip0)">
<path d="M437.348 6.19147C437.348 10.6501 437.348 15.0595 437.348 19.4986C436.16 19.4986 434.983 19.4986 433.786 19.4986C433.595 21.1096 432.413 22.107 431.359 23.1811C430.177 22.3251 429.243 20.9472 428.878 19.5036C428.301 19.5036 427.717 19.5036 427.132 19.5036C426.546 19.5036 425.96 19.5036 425.35 19.5036C425.35 15.0761 425.35 10.6609 425.35 6.2042C425.515 6.30306 425.666 6.40155 425.824 6.4866C427.424 7.34377 428.234 8.67059 428.409 10.3761C428.534 11.5924 428.66 12.8087 428.78 14.0254C428.812 14.343 428.798 14.3615 428.448 14.3502C428.202 14.3424 428.035 14.4419 427.896 14.6144C427.319 15.3311 427.641 16.1787 428.562 16.3673C429.33 16.5244 429.329 16.5239 429.641 15.8382C429.919 15.2272 430.203 14.6187 430.479 14.0071C430.791 13.3158 430.835 12.5974 430.799 11.8497C430.716 10.1167 430.69 8.38141 430.637 6.64711C430.614 5.87345 430.911 5.19705 431.346 4.5166C431.697 5.11344 432.037 5.68636 432.03 6.36763C432.016 7.85464 431.992 9.34165 431.956 10.8283C431.941 11.4176 431.846 12.007 431.863 12.5944C431.875 12.9787 431.971 13.3776 432.117 13.7384C432.464 14.5986 432.86 15.4413 433.246 16.2871C433.276 16.3529 433.389 16.4369 433.451 16.4287C433.806 16.3818 434.169 16.3434 434.506 16.2368C434.872 16.121 435.07 15.8366 435.042 15.4598C435.026 15.2416 434.981 15.0199 434.91 14.8119C434.805 14.504 434.554 14.3546 434.214 14.353C434.117 14.3525 434.019 14.353 433.886 14.353C433.906 14.0911 433.917 13.8555 433.943 13.6215C434.082 12.3554 434.19 11.085 434.378 9.82526C434.576 8.49628 435.293 7.44905 436.495 6.71506C436.766 6.54922 437.037 6.38246 437.348 6.19147ZM426.026 7.41948C426.026 10.0046 426.026 12.5363 426.026 15.0802C426.358 15.0802 426.652 15.0802 426.956 15.0802C426.983 14.9864 427.002 14.9036 427.029 14.823C427.165 14.4122 427.379 14.0477 427.792 13.8366C427.949 13.7565 427.983 13.6616 427.973 13.5121C427.919 12.6597 427.893 11.805 427.813 10.9549C427.744 10.2228 427.605 9.49773 427.274 8.8218C427 8.26346 426.609 7.797 426.026 7.41948ZM435.824 15.0693C436.044 15.0693 436.346 15.0693 436.652 15.0693C436.652 12.521 436.652 9.99048 436.652 7.42251C436.558 7.48564 436.499 7.52101 436.445 7.56222C435.701 8.12883 435.29 8.88273 435.083 9.74857C434.829 10.8126 434.785 11.8965 434.721 12.981C434.694 13.4388 434.738 13.7719 435.164 14.0859C435.458 14.3022 435.594 14.7106 435.824 15.0693ZM436.648 18.832C436.648 17.7917 436.648 16.7801 436.648 15.7437C436.373 15.7437 436.113 15.7362 435.855 15.7494C435.796 15.7524 435.705 15.817 435.689 15.8695C435.488 16.5478 434.956 16.8508 434.284 16.9947C434.049 17.0451 433.809 17.073 433.598 17.1068C433.688 17.6851 433.777 18.2536 433.867 18.832C434.78 18.832 435.705 18.832 436.648 18.832ZM426.034 18.829C426.992 18.829 427.917 18.829 428.818 18.829C428.909 18.2442 428.998 17.6765 429.088 17.0995C428.937 17.0802 428.766 17.0661 428.599 17.0363C427.853 16.9031 427.219 16.632 426.993 15.8574C426.979 15.8103 426.897 15.7512 426.845 15.7491C426.578 15.738 426.311 15.744 426.034 15.744C426.034 16.7895 426.034 17.801 426.034 18.829ZM432.564 16.4239C432.178 15.6095 431.773 14.752 431.341 13.8411C430.908 14.7608 430.504 15.6194 430.123 16.4281C430.564 16.6737 430.969 16.8992 431.34 17.1062C431.717 16.8961 432.115 16.6744 432.564 16.4239ZM430.975 21.7054C430.975 20.9557 430.975 20.2366 430.975 19.5223C430.509 19.5223 430.064 19.5223 429.62 19.5223C429.674 20.2301 430.258 21.1715 430.975 21.7054ZM431.698 21.7437C432.401 21.0933 432.948 20.4292 433.081 19.5209C432.602 19.5209 432.156 19.5209 431.698 19.5209C431.698 20.2513 431.698 20.9644 431.698 21.7437ZM430.968 18.8282C431.156 17.6651 430.698 17.2836 429.797 17.1585C429.702 17.7055 429.607 18.2535 429.508 18.8282C430.046 18.8282 430.502 18.8282 430.968 18.8282ZM432.879 17.1395C431.769 17.3665 431.57 17.8172 431.718 18.8273C432.176 18.8273 432.637 18.8273 433.179 18.8273C433.076 18.2468 432.978 17.6948 432.879 17.1395Z" fill="white"/>
</g>
<path d="M447.541 0.51709H433.312C440.313 0.51709 445.988 6.19191 445.988 13.1922V27.9044H463.838V16.8136C463.838 7.81342 456.541 0.51709 447.541 0.51709Z" fill="#FFB93E"/>
<path d="M447.039 24.2249H402.221C401.205 24.2249 400.381 25.0487 400.381 26.0646C400.381 27.0804 401.205 27.9043 402.221 27.9043H447.039C448.055 27.9043 448.879 27.0804 448.879 26.0646C448.879 25.0487 448.055 24.2249 447.039 24.2249Z" fill="#4A75CB"/>
<path d="M450.865 47.8282C450.865 51.5104 453.85 54.4953 457.532 54.4953C461.214 54.4953 464.199 51.5104 464.199 47.8282C464.199 44.1461 461.214 41.1611 457.532 41.1611C453.85 41.1611 450.865 44.1461 450.865 47.8282Z" fill="#D4BF9E"/>
<path d="M454.02 47.8286C454.02 49.7678 455.592 51.3405 457.531 51.3405C459.471 51.3405 461.043 49.7678 461.043 47.8286C461.043 45.8893 459.471 44.3167 457.531 44.3167C455.592 44.3167 454.02 45.8893 454.02 47.8286Z" fill="#C9B28E"/>
<path d="M442.889 73.6598L447.799 86.3756L453.66 73.6598L451.722 67.8157L442.889 73.6598Z" fill="#F1AC33"/>
<path d="M435.87 73.6598L432.571 84.2634L429.895 73.6598L431.804 67.8157L435.87 73.6598Z" fill="#F1AC33"/>
<path d="M435.871 73.6599L439.878 80.7552L434.293 78.7318L435.871 73.6599Z" fill="#D8A60D"/>
<path d="M442.888 73.6599L439.877 80.7552L445.069 79.3067L442.888 73.6599Z" fill="#D8A60D"/>
<path d="M411.528 73.6604C403.007 73.6604 395.12 78.1628 390.787 85.4998L379.219 105.087L406.401 107.546L411.528 73.6604Z" fill="#FFB93E"/>
<path d="M384.575 168.214C385.65 167.082 386.724 165.949 387.799 164.816H385.188C384.633 165.857 384.375 167.061 384.575 168.214Z" fill="#EBA58E"/>
<path d="M387.801 164.816C386.726 165.949 385.651 167.081 384.577 168.215C384.377 167.061 384.635 165.857 385.19 164.816H381.205C381.431 167.307 383.911 169.919 386.406 170.087C388.006 170.194 389.589 169.564 390.882 168.616C392.174 167.668 393.512 166.091 394.484 164.816H387.801Z" fill="#D4BF9E"/>
<path d="M380.098 168.214C381.173 167.082 382.248 165.949 383.322 164.816H380.711C380.157 165.857 379.898 167.061 380.098 168.214Z" fill="#EBA58E"/>
<path d="M383.324 164.816C382.249 165.949 381.175 167.081 380.1 168.215C379.9 167.061 380.158 165.857 380.713 164.816H376.729C376.954 167.307 379.435 169.919 381.93 170.087C383.53 170.194 385.112 169.564 386.405 168.616C387.698 167.668 389.035 166.091 390.007 164.816H383.324Z" fill="#D4BF9E"/>
<path d="M373.462 168.215C374.537 167.082 375.611 165.949 376.686 164.816H374.075C373.52 165.857 373.262 167.061 373.462 168.215Z" fill="#EBA58E"/>
<path d="M376.685 164.817C375.611 165.95 374.536 167.082 373.461 168.216C373.261 167.062 373.519 165.858 374.074 164.817H370.09C370.315 167.308 372.796 169.921 375.291 170.088C376.891 170.195 378.474 169.565 379.766 168.617C381.059 167.669 382.396 166.092 383.369 164.817H376.685Z" fill="#D4BF9E"/>
<path d="M355.304 164.816H434.951V85.169L355.304 85.169V164.816Z" fill="#739AF0"/>
<path d="M388.03 110.097H402.225V85.1686H388.03V110.097Z" fill="#F8F4EE"/>
<path d="M471.566 85.1689H434.951V164.816H471.566V85.1689Z" fill="#4A75CB"/>
<path d="M459.918 164.983L447.966 154.495C446.596 155.025 445.955 156.665 445.969 158.134C445.982 159.604 446.713 160.993 447.699 162.083C448.685 163.172 449.915 164.005 451.134 164.826H436.506C436.686 165.814 437.217 166.753 437.917 167.49C438.928 168.556 440.239 169.278 441.527 169.981C440.93 172.33 441.601 174.943 443.551 176.381C444.229 176.881 445.012 177.244 445.613 177.833C446.538 178.741 446.927 180.076 447.8 181.034C449.101 182.461 451.204 182.786 453.135 182.839C459.869 183.026 466.442 180.808 471.846 176.786L459.918 164.983Z" fill="#D4BF9E"/>
<path d="M471.023 73.6604C479.282 73.6604 486.853 78.2642 490.652 85.5976L512.817 128.374C516.583 135.643 514.557 144.567 508.022 149.497L471.847 176.788L459.918 164.984L494.188 136.401L474.932 100.466L471.023 73.6604Z" fill="#D4BF9E"/>
<path d="M494.144 86.7293C489.262 78.6191 480.487 73.6604 471.021 73.6604L474.931 100.466L480.518 114.498L501.409 98.7987L494.144 86.7293Z" fill="#FFB93E"/>
<path d="M506.195 106.747L501.41 98.7979L480.518 114.497L483.561 122.138L506.195 106.747Z" fill="#F1AC33"/>
<path d="M485.748 120.651L502.805 109.053L488.658 126.08L485.748 120.651Z" fill="#C9B28E"/>
<defs>
<clipPath id="clip0">
<rect width="11.9987" height="18.6646" fill="white" transform="translate(425.348 4.5166)"/>
</clipPath>
</defs>
</svg>
