<svg width="576" height="576" viewBox="0 0 576 576" fill="none" xmlns="http://www.w3.org/2000/svg">
<g filter="url(#filter0_d)">
<path d="M255.473 58.5269C273.437 40.5628 302.563 40.5628 320.527 58.5269L513.473 251.473C531.437 269.437 531.437 298.563 513.473 316.527L320.527 509.473C302.563 527.437 273.437 527.437 255.473 509.473L62.5269 316.527C44.5628 298.563 44.5628 269.437 62.5269 251.473L255.473 58.5269Z" fill="#F8F4EE"/>
</g>
<g filter="url(#filter1_d)">
<rect x="432.539" y="355.396" width="62.4605" height="62.4605" rx="14" transform="rotate(45 432.539 355.396)" fill="#8F7A61"/>
</g>
<path d="M437.297 391.324L435.137 390.085L432.977 391.324L430.818 390.085L428.659 391.324L427.039 390.396V404.994H436.678V407.135C436.678 407.75 437.18 408.25 437.797 408.25C438.413 408.25 438.916 407.75 438.916 407.135V390.396L437.297 391.324ZM432.977 399.809H428.355V398.733H432.978L432.977 399.809ZM437.601 397.46H428.355V396.384H437.601V397.46ZM437.601 395.111H428.355V394.035H437.601V395.111Z" fill="#F8F4EE"/>
<path d="M435.822 406.154H424.244V407.179C424.244 407.769 424.734 408.25 425.335 408.25H436.121C435.931 407.936 435.822 407.57 435.822 407.179L435.822 406.154Z" fill="#F8F4EE"/>
<mask id="mask0" mask-type="alpha" maskUnits="userSpaceOnUse" x="388" y="355" width="89" height="89">
<rect x="432.322" y="355.396" width="62.4605" height="62.4605" rx="14" transform="rotate(45 432.322 355.396)" fill="#8F7A61"/>
</mask>
<g mask="url(#mask0)">
<g filter="url(#filter2_d)">
<rect x="404.498" y="403.732" width="32.6662" height="32.6662" rx="6" transform="rotate(45 404.498 403.732)" fill="#F8F4EE"/>
</g>
</g>
<mask id="mask1" mask-type="alpha" maskUnits="userSpaceOnUse" x="361" y="387" width="88" height="85">
<path d="M448.552 459.959L398.266 409.673L375.651 387.856L361.018 436.811L395.34 471.133L448.552 459.959Z" fill="#C4C4C4"/>
</mask>
<g mask="url(#mask1)">
<g filter="url(#filter3_d)">
<path d="M400.255 407.974C402.599 405.631 406.398 405.631 408.741 407.974L423.354 422.587C425.697 424.93 425.697 428.729 423.354 431.073L408.741 445.686C406.398 448.029 402.599 448.029 400.255 445.686L385.642 431.073C383.299 428.729 383.299 424.93 385.642 422.587L400.255 407.974Z" fill="#F8F4EE"/>
</g>
<path d="M408.173 427.397C407.881 427.397 407.645 427.634 407.645 427.925C407.645 428.217 407.881 428.454 408.173 428.454H409.758V427.397H408.173Z" fill="#8F7A61"/>
<path d="M407.059 427.9C407.059 427.236 407.587 426.692 408.233 426.692H409.408V425.182C409.408 425.013 409.278 424.881 409.114 424.881H408.527V423.975C408.527 423.805 408.398 423.673 408.233 423.673H407.534L407.029 422.634C406.953 422.483 406.777 422.422 406.636 422.495L405.955 422.845L405.855 422.634C405.779 422.483 405.602 422.422 405.462 422.495L403.172 423.673H401.48C400.993 423.673 400.6 424.077 400.6 424.579V430.014C400.6 430.515 400.993 430.92 401.48 430.92H409.114C409.278 430.92 409.408 430.787 409.408 430.618V429.108H408.233C407.587 429.108 407.059 428.565 407.059 427.9ZM407.94 424.277V424.506L407.828 424.277H407.94ZM406.636 423.171L407.464 424.881H406.947L406.219 423.383L406.636 423.171ZM401.48 424.277H401.997L401.204 424.681C401.193 424.651 401.187 424.615 401.187 424.579C401.187 424.409 401.316 424.277 401.48 424.277ZM402.138 424.881L405.462 423.171L406.29 424.881H402.138Z" fill="#8F7A61"/>
</g>
<path d="M305.866 242.725H213.523V335.025H305.866V242.725Z" fill="#FFA412"/>
<path d="M334.335 242.725H241.992V335.024H334.335V242.725Z" fill="#FFB93E"/>
<path d="M241.993 242.725L213.523 259.98V242.725H241.993Z" fill="#F99746"/>
<path d="M259.773 296.633H223.973L225.48 292.45L223.973 287.938H259.44L257.265 292.619L259.773 296.633Z" fill="#FFD5AB"/>
<path d="M241.873 287.938V296.633H223.973L225.48 292.45L223.973 287.938H241.873Z" fill="#F99746"/>
<path d="M294.93 189.654H241.828V242.73H294.93V189.654Z" fill="#FFA412"/>
<path d="M311.301 189.653H258.199V242.73H311.301V189.653Z" fill="#FFB93E"/>
<path d="M258.201 189.654L241.828 199.575V189.654H258.201Z" fill="#F99746"/>
<path d="M321.055 200.928H279.232V242.73H321.055V200.928Z" fill="#4A75CB"/>
<path d="M333.949 200.927H292.127V242.73H333.949V200.927Z" fill="#699DEE"/>
<path d="M310.981 229.603L295.461 232.7L297.035 240.582L312.555 237.485L310.981 229.603Z" fill="#EBF2F9"/>
<path d="M299.651 211.578H284.539L285.177 209.815L284.539 207.912H299.511L298.592 209.888L299.651 211.578Z" fill="#EBF2F9"/>
<path d="M292.097 207.912V211.578H284.539L285.177 209.815L284.539 207.912H292.097Z" fill="#A6C7F9"/>
<path d="M267.136 201.135H249.279L250.028 199.053L249.279 196.797H266.967L265.884 199.135L267.136 201.135Z" fill="#FFD5AB"/>
<path d="M258.205 196.797V201.135H249.279L250.028 199.053L249.279 196.797H258.205Z" fill="#F99746"/>
<path d="M267.136 233.19H249.279L250.028 231.103L249.279 228.852H266.967L265.884 231.19L267.136 233.19Z" fill="#FFD5AB"/>
<path d="M258.205 228.852V233.19H249.279L250.028 231.103L249.279 228.852H258.205Z" fill="#F99746"/>
<path d="M365.494 261.598H292.027V335.03H365.494V261.598Z" fill="#4A75CB"/>
<path d="M388.142 261.597H314.676V335.029H388.142V261.597Z" fill="#699DEE"/>
<path d="M382.028 266.022L364.428 269.535L366.213 278.473L383.814 274.961L382.028 266.022Z" fill="#EBF2F9"/>
<path d="M324.433 273.224H304.518L305.358 270.901L304.518 268.389H324.245L323.036 270.993L324.433 273.224Z" fill="#EBF2F9"/>
<path d="M314.478 268.389V273.224H304.518L305.358 270.901L304.518 268.389H314.478Z" fill="#A6C7F9"/>
<path d="M324.433 327.919H304.518L305.358 325.596L304.518 323.084H324.245L323.036 325.687L324.433 327.919Z" fill="#EBF2F9"/>
<path d="M314.478 323.084V327.919H304.518L305.358 325.596L304.518 323.084H314.478Z" fill="#A6C7F9"/>
<path d="M222.705 345.391C217.133 345.391 212.619 349.902 212.619 355.472C212.619 361.041 217.133 365.553 222.705 365.553C228.277 365.553 232.791 361.041 232.791 355.472C232.791 349.902 228.277 345.391 222.705 345.391Z" fill="#232323"/>
<path d="M222.705 348.917C219.129 348.917 216.234 351.815 216.234 355.384C216.234 358.959 219.134 361.852 222.705 361.852C226.282 361.852 229.176 358.954 229.176 355.384C229.176 351.81 226.282 348.917 222.705 348.917Z" fill="black"/>
<path d="M366.035 345.391C360.463 345.391 355.949 349.902 355.949 355.472C355.949 361.041 360.463 365.553 366.035 365.553C371.607 365.553 376.121 361.041 376.121 355.472C376.121 349.902 371.607 345.391 366.035 345.391Z" fill="#232323"/>
<path d="M366.035 348.917C362.459 348.917 359.564 351.815 359.564 355.384C359.564 358.959 362.464 361.852 366.035 361.852C369.612 361.852 372.506 358.954 372.506 355.384C372.506 351.81 369.612 348.917 366.035 348.917Z" fill="black"/>
<path d="M388.528 334.981H223.488L157.611 155.458C157.015 153.837 155.5 152.734 153.772 152.661L131.809 151.758C129.451 151.662 127.46 153.49 127.363 155.843C127.266 158.196 129.099 160.183 131.457 160.279L150.567 161.066L214.383 334.977H200.033C197.759 334.977 195.9 336.833 195.9 339.101V344.023C195.9 346.291 197.759 348.147 200.033 348.147H388.528C390.802 348.147 392.661 346.291 392.661 344.023V339.101C392.665 336.837 390.806 334.981 388.528 334.981Z" fill="#8F7A61"/>
<g filter="url(#filter4_d)">
<path d="M149.94 125.899C155.408 120.432 164.272 120.432 169.739 125.899L195.78 151.94C201.247 157.408 201.247 166.272 195.78 171.739L169.739 197.78C164.272 203.247 155.408 203.247 149.94 197.78L123.9 171.739C118.432 166.272 118.432 157.408 123.9 151.94L149.94 125.899Z" fill="#F8F4EE"/>
</g>
<path d="M168.836 160.997C167.851 160.997 167.007 160.432 166.59 159.608C166.174 160.432 165.325 160.997 164.341 160.997C163.357 160.997 162.506 160.432 162.091 159.608C161.674 160.432 160.824 160.997 159.84 160.997C158.855 160.997 158.004 160.432 157.587 159.608C157.171 160.432 156.319 160.997 155.335 160.997C154.352 160.997 153.499 160.432 153.083 159.608C152.667 160.432 151.802 160.997 150.818 160.997C150.382 160.997 149.99 160.886 149.602 160.692V170.076H148.281V172.569H171.347V170.076H170.105V160.647C169.716 160.869 169.304 160.997 168.836 160.997ZM159.853 162.361H167.542V166.179H159.853V162.361ZM152.164 162.361H157.29V168.751H152.164V162.361Z" fill="#8F7A61"/>
<path d="M148.311 158.545H148.314C148.314 158.543 148.314 158.54 148.314 158.539L148.311 158.545Z" fill="#8F7A61"/>
<path d="M153.146 158.465L154.778 153.322H158.224L157.521 158.465H162.159L161.472 153.322H165.021L166.534 158.465H171.335L168.861 153.322V149.503H150.921V153.322L148.346 158.465H153.146Z" fill="#8F7A61"/>
<defs>
<filter id="filter0_d" x="0" y="0" width="576" height="576" filterUnits="userSpaceOnUse" color-interpolation-filters="sRGB">
<feFlood flood-opacity="0" result="BackgroundImageFix"/>
<feColorMatrix in="SourceAlpha" type="matrix" values="0 0 0 0 0 0 0 0 0 0 0 0 0 0 0 0 0 0 127 0"/>
<feOffset dy="4"/>
<feGaussianBlur stdDeviation="15"/>
<feColorMatrix type="matrix" values="0 0 0 0 0.8875 0 0 0 0 0.846781 0 0 0 0 0.796531 0 0 0 1 0"/>
<feBlend mode="normal" in2="BackgroundImageFix" result="effect1_dropShadow"/>
<feBlend mode="normal" in="SourceGraphic" in2="effect1_dropShadow" result="shape"/>
</filter>
<filter id="filter1_d" x="358.373" y="329.396" width="148.332" height="148.332" filterUnits="userSpaceOnUse" color-interpolation-filters="sRGB">
<feFlood flood-opacity="0" result="BackgroundImageFix"/>
<feColorMatrix in="SourceAlpha" type="matrix" values="0 0 0 0 0 0 0 0 0 0 0 0 0 0 0 0 0 0 127 0"/>
<feOffset dy="4"/>
<feGaussianBlur stdDeviation="15"/>
<feColorMatrix type="matrix" values="0 0 0 0 0 0 0 0 0 0 0 0 0 0 0 0 0 0 0.3 0"/>
<feBlend mode="normal" in2="BackgroundImageFix" result="effect1_dropShadow"/>
<feBlend mode="normal" in="SourceGraphic" in2="effect1_dropShadow" result="shape"/>
</filter>
<filter id="filter2_d" x="351.4" y="377.732" width="106.197" height="106.197" filterUnits="userSpaceOnUse" color-interpolation-filters="sRGB">
<feFlood flood-opacity="0" result="BackgroundImageFix"/>
<feColorMatrix in="SourceAlpha" type="matrix" values="0 0 0 0 0 0 0 0 0 0 0 0 0 0 0 0 0 0 127 0"/>
<feOffset dy="4"/>
<feGaussianBlur stdDeviation="15"/>
<feColorMatrix type="matrix" values="0 0 0 0 0.416667 0 0 0 0 0.343152 0 0 0 0 0.252431 0 0 0 1 0"/>
<feBlend mode="normal" in2="BackgroundImageFix" result="effect1_dropShadow"/>
<feBlend mode="normal" in="SourceGraphic" in2="effect1_dropShadow" result="shape"/>
</filter>
<filter id="filter3_d" x="351.4" y="377.731" width="106.197" height="106.197" filterUnits="userSpaceOnUse" color-interpolation-filters="sRGB">
<feFlood flood-opacity="0" result="BackgroundImageFix"/>
<feColorMatrix in="SourceAlpha" type="matrix" values="0 0 0 0 0 0 0 0 0 0 0 0 0 0 0 0 0 0 127 0"/>
<feOffset dy="4"/>
<feGaussianBlur stdDeviation="15"/>
<feColorMatrix type="matrix" values="0 0 0 0 0.8875 0 0 0 0 0.846781 0 0 0 0 0.796531 0 0 0 1 0"/>
<feBlend mode="normal" in2="BackgroundImageFix" result="effect1_dropShadow"/>
<feBlend mode="normal" in="SourceGraphic" in2="effect1_dropShadow" result="shape"/>
</filter>
<filter id="filter4_d" x="84" y="90" width="151.68" height="151.68" filterUnits="userSpaceOnUse" color-interpolation-filters="sRGB">
<feFlood flood-opacity="0" result="BackgroundImageFix"/>
<feColorMatrix in="SourceAlpha" type="matrix" values="0 0 0 0 0 0 0 0 0 0 0 0 0 0 0 0 0 0 127 0"/>
<feOffset dy="4"/>
<feGaussianBlur stdDeviation="15"/>
<feColorMatrix type="matrix" values="0 0 0 0 0.8875 0 0 0 0 0.846781 0 0 0 0 0.796531 0 0 0 1 0"/>
<feBlend mode="normal" in2="BackgroundImageFix" result="effect1_dropShadow"/>
<feBlend mode="normal" in="SourceGraphic" in2="effect1_dropShadow" result="shape"/>
</filter>
</defs>
</svg>
