<svg width="21" height="24" viewBox="0 0 21 24" fill="none" xmlns="http://www.w3.org/2000/svg">
<path d="M11.1631 9.56656V10.7602C11.1631 11.1393 11.2388 11.4574 11.3883 11.7052C11.5944 12.0471 11.9327 12.2431 12.3169 12.2431C12.6933 12.2431 13.0673 12.0598 13.4285 11.6986L17.371 7.75616C18.2366 6.89054 18.2366 5.48207 17.371 4.61645L13.4285 0.673964C13.0673 0.312609 12.6933 0.129486 12.3169 0.129486C11.7426 0.129486 11.1631 0.588108 11.1631 1.6124V2.69647C5.56583 3.02703 0.932153 7.32254 0.243495 12.9465C0.204914 13.2605 0.383509 13.5612 0.677846 13.6777C0.761166 13.7106 0.847927 13.7266 0.933602 13.7266C1.1506 13.7266 1.36107 13.625 1.49511 13.4418C3.34227 10.918 6.3081 9.41115 9.42862 9.41115C10.0068 9.41115 10.5882 9.46332 11.1631 9.56656Z" fill="#8F7A61"/>
<path d="M20.559 10.3224C20.2647 10.2058 19.9289 10.3029 19.7418 10.5584C17.8948 13.0821 14.9289 14.589 11.8084 14.589C11.2303 14.589 10.6488 14.5368 10.0739 14.4335V13.2399C10.0739 12.2156 9.4943 11.757 8.92012 11.757C8.54373 11.757 8.16969 11.9403 7.80834 12.3016L3.86586 16.2439C3.00041 17.1096 3.00041 18.518 3.86604 19.3838L7.80834 23.3261C8.16969 23.6875 8.54373 23.8706 8.92012 23.8706C9.4943 23.8706 10.0739 23.412 10.0739 22.3877V21.3036C15.6714 20.9731 20.3049 16.6776 20.9935 11.0538C21.0321 10.7396 20.8535 10.4389 20.559 10.3224Z" fill="#8F7A61"/>
</svg>
