<svg width="32" height="20" viewBox="0 0 32 20" fill="none" xmlns="http://www.w3.org/2000/svg">
<path d="M30.7945 3.68323H27.9707V16.5743H30.7945C31.3034 16.5743 31.7153 16.1625 31.7153 15.6535V4.60402C31.7153 4.09507 31.3034 3.68323 30.7945 3.68323Z" fill="#8F7A61"/>
<path d="M1.20595 3.68323C0.696996 3.68323 0.285156 4.09507 0.285156 4.60402V15.6535C0.285156 16.1625 0.696996 16.5743 1.20595 16.5743H4.02971V3.68323H1.20595Z" fill="#8F7A61"/>
<path d="M15.2969 4.604C14.5945 4.604 13.9633 4.99424 13.6495 5.62191L10.8467 11.2294C11.316 11.4352 11.8124 11.5396 12.3196 11.5396C13.7215 11.5396 14.9831 10.7582 15.6116 9.4993L16.2177 8.28717H17.9999C18.4846 8.28717 18.9594 8.4841 19.3019 8.8267L26.1288 15.6535V4.604H15.2969Z" fill="#8F7A61"/>
<path d="M17.9996 10.1288H17.3558L17.3027 10.2352C16.4329 11.9747 14.7367 13.2027 12.7983 13.3612C11.372 13.4779 10.3837 13.0676 9.21167 12.5345C8.73506 12.3178 8.5277 11.7484 8.76183 11.2801L12.0015 4.79911C12.6254 3.55088 13.9012 2.76238 15.2966 2.76238H19.2703C19.5254 2.19744 19.683 1.58069 19.683 0.920792C19.683 0.41184 19.2711 0 18.7622 0H11.6135C10.5669 0 9.61025 0.59121 9.14218 1.52729L8.31887 3.17397C8.16282 3.486 7.84398 3.68317 7.49506 3.68317H5.87109V16.5743H10.0938L12.7024 19.1829C13.4585 19.939 14.5477 20.1777 15.4872 19.8636L23.3509 17.3916C23.8208 17.2593 24.217 17.0008 24.5402 16.6692L17.9996 10.1288Z" fill="#8F7A61"/>
</svg>
