<svg width="20" height="19" viewBox="0 0 20 19" fill="none" xmlns="http://www.w3.org/2000/svg">
<path d="M0 6.96455V17.3646C0 18.0823 0.559896 18.6646 1.25 18.6646H5V5.66455H1.25C0.559896 5.66455 0 6.24684 0 6.96455Z" fill="#8F7A61"/>
<path d="M17.6493 7.09321H13.8895C13.5608 7.09321 13.3964 6.87143 13.3407 6.77607C13.2856 6.68125 13.1737 6.4284 13.3328 6.13804L14.6585 3.72681C14.9496 3.1986 14.9793 2.57771 14.7412 2.02379C14.5031 1.46879 14.0333 1.06647 13.4521 0.920224L12.5177 0.683976C12.2902 0.626119 12.0489 0.699511 11.8909 0.877367L6.81611 6.5725C6.28953 7.16446 6 7.92785 6 8.72284V15.4503C6 17.2224 7.42752 18.6646 9.1817 18.6646L15.5122 18.664C16.9413 18.664 18.2034 17.6917 18.581 16.2999L19.9395 10.0021C19.9793 9.82694 20 9.64748 20 9.46802C19.9995 8.15874 18.9447 7.09321 17.6493 7.09321Z" fill="#8F7A61"/>
</svg>
