<svg width="22" height="17" viewBox="0 0 22 17" fill="none" xmlns="http://www.w3.org/2000/svg">
<path d="M21.5697 4.50265L11.2143 0.763884C11.0756 0.713471 10.9244 0.713471 10.7857 0.763884L0.430262 4.50265C0.172449 4.59586 0.000574344 4.84441 1.42793e-06 5.12402C-0.000571489 5.40364 0.171303 5.65277 0.428543 5.74598L10.784 9.51288C10.8539 9.53809 10.9272 9.55099 11 9.55099C11.0728 9.55099 11.1461 9.53809 11.216 9.51288L21.5715 5.74598C21.8287 5.65219 22 5.40305 22 5.12402C21.9994 4.84441 21.8275 4.59527 21.5697 4.50265Z" fill="#8F7A61"/>
<path d="M20.4519 12.1327V7.55273L19.1629 8.02169V12.1327C18.7744 12.3613 18.5132 12.7898 18.5132 13.2811C18.5132 13.7723 18.775 14.2008 19.1629 14.4294V15.5016C19.1629 15.8662 19.4516 16.1611 19.8074 16.1611C20.1632 16.1611 20.4519 15.8662 20.4519 15.5016V14.4294C20.8404 14.2008 21.1016 13.7723 21.1016 13.2811C21.1016 12.7898 20.8404 12.3613 20.4519 12.1327Z" fill="#8F7A61"/>
<path d="M11 10.8694C10.7789 10.8694 10.5612 10.8307 10.352 10.755L4.53064 8.6377V11.54C4.53064 12.2498 5.25481 12.8501 6.68251 13.3243C7.92689 13.7376 9.46001 13.9651 11 13.9651C12.54 13.9651 14.0731 13.7376 15.3175 13.3243C16.7452 12.8501 17.4688 12.2498 17.4688 11.54V8.6377L11.6474 10.7556C11.4389 10.8312 11.2212 10.8694 11 10.8694Z" fill="#8F7A61"/>
</svg>
