<svg width="24" height="23" viewBox="0 0 24 23" fill="none" xmlns="http://www.w3.org/2000/svg">
<path d="M12 22.6646C11.6584 22.6646 11.3291 22.5372 11.0719 22.3053C10.1021 21.4318 9.16758 20.6107 8.34316 19.8869L8.33906 19.8832C5.92148 17.76 3.8332 15.9265 2.38066 14.1208C0.756445 12.1019 0 10.1876 0 8.09629C0 6.06418 0.676172 4.18965 1.90371 2.818C3.1459 1.42946 4.85098 0.664551 6.70488 0.664551C8.09004 0.664551 9.35918 1.11613 10.476 2.00601C11.0396 2.45517 11.5506 3.00516 12.0006 3.6463C12.4506 3.00516 12.9615 2.45517 13.5252 2.00601C14.6414 1.11613 15.91 0.664551 17.2957 0.664551C19.149 0.664551 20.8541 1.42946 22.0963 2.8174C23.3238 4.18965 24 6.06418 24 8.09569C24 10.187 23.2436 12.1013 21.6193 14.1202C20.1668 15.9265 18.0791 17.7594 15.6615 19.882C14.8354 20.6071 13.899 21.4293 12.9275 22.3047C12.6709 22.5372 12.3416 22.6646 12 22.6646Z" fill="#8F7A61"/>
</svg>
