<svg width="22" height="22" viewBox="0 0 22 22" fill="none" xmlns="http://www.w3.org/2000/svg">
<path d="M17.1794 8.08531C17.445 8.08531 17.7015 8.12578 17.9428 8.20072L20.142 6.00154L19.117 4.97656L16.0083 8.08531H17.1794Z" fill="#8F7A61"/>
<path d="M21.6224 7.48209L21.0531 6.91284L19.0615 8.90444C19.4925 9.36545 19.7571 9.98386 19.7571 10.6632V11.1704L21.6224 9.30508C22.1258 8.8017 22.1258 7.98551 21.6224 7.48209Z" fill="#8F7A61"/>
<path d="M18.205 4.06506L14.5175 0.377566C14.0141 -0.125855 13.1979 -0.125855 12.6946 0.377566L4.98682 8.0853H14.1848L18.205 4.06506Z" fill="#8F7A61"/>
<path d="M3.3833 13.4607H5.34706V14.9102H3.3833V13.4607Z" fill="#8F7A61"/>
<path d="M17.1791 9.37427H1.28906C0.577113 9.37427 0 9.95138 0 10.6633V20.7108C0 21.4228 0.577113 21.9999 1.28906 21.9999H17.1791C17.891 21.9999 18.4681 21.4228 18.4681 20.7108V10.6633C18.4681 9.95138 17.891 9.37427 17.1791 9.37427ZM2.09404 12.1714H6.63592V16.199H2.09404V12.1714ZM4.60174 19.2027H2.05395V17.9137H4.60174V19.2027ZM8.53918 19.2027H5.99139V17.9137H8.53918V19.2027ZM12.4767 19.2027H9.92892V17.9137H12.4767V19.2027ZM16.4142 19.2027H13.8664V17.9137H16.4142V19.2027Z" fill="#8F7A61"/>
</svg>
