<svg width="24" height="26" viewBox="0 0 24 26" fill="none" xmlns="http://www.w3.org/2000/svg">
<path d="M7.81824 5.23409C9.49401 5.08517 10.8562 4.93026 12.0009 4.74347C15.4774 4.17609 16.8824 3.21071 18.4833 1.24264C18.7505 0.919269 19.2427 0.905161 19.5239 1.2005L23.7911 5.51223C24.0306 5.7517 24.071 6.13164 23.8773 6.40945C23.3406 7.17942 22.7458 7.88944 22.1002 8.52882C20.823 9.96171 19.4941 10.9827 18.2427 11.6748C17.453 12.1115 16.5622 12.3321 15.6599 12.3321H11.4853C10.2092 12.3321 9.1316 11.4822 8.7877 10.3176C8.67684 9.94207 8.93145 9.54581 9.32218 9.52125C9.33737 9.52031 9.35274 9.5198 9.36826 9.5198H15.5001C15.8825 9.5198 16.2078 9.22113 16.219 8.83888C16.2309 8.4347 15.9174 8.11363 15.5163 8.11363H8.48547C8.27449 8.11363 8.07772 8.21206 7.93706 8.36674C7.75707 8.55296 6.90011 9.82456 5.26652 11.1993C4.20796 12.0902 1.66594 13.7383 0.704733 13.7383C0.100082 13.7383 -0.223289 13.0211 0.184452 12.5712L6.55907 5.5404C6.67161 5.39973 6.85441 5.31536 7.03712 5.3013C7.30485 5.27894 7.56513 5.25658 7.81824 5.23409Z" fill="#8F7A61"/>
<path d="M16.1826 20.766C14.5068 20.9149 13.1446 21.0698 11.9999 21.2566C8.52336 21.824 7.11842 22.7894 5.5175 24.7574C5.25033 25.0808 4.75812 25.0949 4.47694 24.7996L0.209647 20.4878C-0.0298232 20.2484 -0.070227 19.8684 0.123496 19.5906C0.660229 18.8206 1.25504 18.1106 1.90056 17.4712C3.17778 16.0384 4.50665 15.0174 5.75814 14.3253C6.54775 13.8886 7.4386 13.6679 8.34094 13.6679H12.5156C13.7917 13.6679 14.8692 14.5179 15.2131 15.6825C15.324 16.058 15.0694 16.4543 14.6787 16.4788C14.6635 16.4798 14.6481 16.4803 14.6326 16.4803H8.50077C8.11834 16.4803 7.793 16.7789 7.7818 17.1612C7.76994 17.5654 8.08342 17.8864 8.48455 17.8864H15.5154C15.7263 17.8864 15.9231 17.788 16.0638 17.6333C16.2438 17.4471 17.1007 16.1755 18.7343 14.8008C19.7929 13.9099 22.3349 12.2618 23.2961 12.2618C23.9008 12.2618 24.2241 12.9789 23.8164 13.4289L17.4418 20.4597C17.3292 20.6003 17.1464 20.6847 16.9637 20.6988C16.6959 20.7211 16.4357 20.7435 16.1826 20.766Z" fill="#8F7A61"/>
</svg>
