<svg width="19" height="17" viewBox="0 0 19 17" fill="none" xmlns="http://www.w3.org/2000/svg">
<path d="M15.1129 9.40796C14.5648 9.40796 14.1198 9.85301 14.1198 10.4011C14.1198 10.9492 14.5648 11.3942 15.1129 11.3942H18.0923V9.40796H15.1129Z" fill="#8F7A61"/>
<path d="M13.0177 10.3541C13.0177 9.10562 14.0108 8.08415 15.2246 8.08415H17.4316V5.24673C17.4316 4.92894 17.1889 4.67924 16.8799 4.67924H15.7764V2.97679C15.7764 2.659 15.5336 2.4093 15.2246 2.4093H13.9115L12.9625 0.457158C12.819 0.173416 12.488 0.0599189 12.2232 0.196115L10.9431 0.854397L10.7555 0.457158C10.6121 0.173416 10.281 0.0599189 10.0162 0.196115L5.71256 2.4093H2.53451C1.61861 2.4093 0.879272 3.16973 0.879272 4.11176V14.3265C0.879272 15.2685 1.61861 16.0289 2.53451 16.0289H16.8799C17.1889 16.0289 17.4316 15.7792 17.4316 15.4614V12.624H15.2246C14.0108 12.624 13.0177 11.6026 13.0177 10.3541ZM14.6729 3.54427V3.97556L14.4632 3.54427H14.6729ZM12.2232 1.46728L13.7791 4.67924H12.808L11.4397 1.86452L12.2232 1.46728ZM2.53451 3.54427H3.50558L2.01587 4.3047C1.9938 4.24795 1.98276 4.17986 1.98276 4.11176C1.98276 3.79397 2.22553 3.54427 2.53451 3.54427ZM3.77042 4.67924L10.0162 1.46728L11.5721 4.67924H3.77042Z" fill="#8F7A61"/>
</svg>
