<svg width="26" height="22" viewBox="0 0 26 22" fill="none" xmlns="http://www.w3.org/2000/svg">
<path d="M23.6099 1.95434C21.0084 -0.647178 16.7754 -0.647178 14.1739 1.95434L13.0011 3.12707L11.8284 1.95429C10.5681 0.694032 8.89258 0 7.11035 0C5.32812 0 3.6526 0.69413 2.39239 1.95434C0.191907 4.15482 -0.147063 7.52244 1.37499 10.0828C2.65791 8.91227 4.36341 8.19749 6.23282 8.19749C10.2109 8.19749 13.4472 11.4339 13.4472 15.4119C13.4472 17.3549 12.6748 19.1208 11.4212 20.4192L13.0011 21.9991L23.6099 11.3904C26.2114 8.78883 26.2114 4.55586 23.6099 1.95434Z" fill="#8F7A61"/>
<path d="M6.23299 9.62024C3.03949 9.62024 0.441406 12.2183 0.441406 15.4118C0.441406 18.6053 3.03949 21.2034 6.23299 21.2034C9.42649 21.2034 12.0246 18.6053 12.0246 15.4118C12.0246 12.2183 9.42649 9.62024 6.23299 9.62024ZM5.61898 17.5743L3.65325 15.6086L4.69425 14.5676L5.61893 15.4922L7.93024 13.1809L8.97124 14.2219L5.61898 17.5743Z" fill="#8F7A61"/>
</svg>
