<svg width="20" height="20" viewBox="0 0 20 20" fill="none" xmlns="http://www.w3.org/2000/svg">
<path d="M20.0001 13.6614C20.0001 11.2281 18.6041 9.05638 16.5133 8C16.4484 12.6657 12.6657 16.4483 8.00006 16.5133C9.05644 18.604 11.2281 20 13.6615 20C14.8024 20 15.9119 19.6961 16.8867 19.1188L19.9724 19.9723L19.1189 16.8867C19.6962 15.9118 20.0001 14.8023 20.0001 13.6614Z" fill="#8F7A61"/>
<path d="M15.0001 7.5C15.0001 3.36442 11.6356 0 7.50006 0C3.36448 0 6.10352e-05 3.36442 6.10352e-05 7.5C6.10352e-05 8.84781 0.358817 10.1601 1.04006 11.3122L0.0276346 14.9723L3.68787 13.96C4.83996 14.6412 6.15225 15 7.50006 15C11.6356 15 15.0001 11.6356 15.0001 7.5ZM6.34917 5.75448H5.19827C5.19827 4.48519 6.23078 3.45269 7.50006 3.45269C8.76934 3.45269 9.80185 4.48519 9.80185 5.75448C9.80185 6.39871 9.52911 7.01791 9.05332 7.45309L8.07551 8.34804V9.24552H6.92461V7.84122L8.27632 6.60401C8.51788 6.38297 8.65096 6.08131 8.65096 5.75448C8.65096 5.11983 8.1347 4.60358 7.50006 4.60358C6.86542 4.60358 6.34917 5.11983 6.34917 5.75448ZM6.92461 10.3964H8.07551V11.5473H6.92461V10.3964Z" fill="#8F7A61"/>
</svg>
