<svg width="24" height="25" viewBox="0 0 24 25" fill="none" xmlns="http://www.w3.org/2000/svg">
<path d="M15.5172 2.88037C15.5172 1.32928 14.2556 0.0209961 12.7044 0.0209961C11.1531 0.0209961 9.84473 1.32928 9.84473 2.88037C9.84473 4.43146 11.1531 5.73975 12.7044 5.73975C14.2556 5.73975 15.5172 4.43146 15.5172 2.88037Z" fill="#8F7A61"/>
<path d="M8.43835 8.55225V9.25537C8.43835 9.64396 8.75292 9.9585 9.14155 9.9585H16.2204C16.609 9.9585 16.9236 9.64396 16.9236 9.25537V8.55225C16.9236 7.46803 16.5007 6.48787 15.8261 5.73975C15.0531 6.59662 13.9462 7.146 12.7044 7.146C11.4626 7.146 10.3084 6.59662 9.53581 5.73975C8.86121 6.48787 8.43835 7.46803 8.43835 8.55225Z" fill="#8F7A61"/>
<path d="M3.21033 14.4187C2.86436 13.725 2.02194 13.4423 1.32765 13.7864L0.390997 14.2504C0.0422125 14.4234 -0.0998326 14.8471 0.0745594 15.1954L4.29372 23.6329C4.46718 23.9808 4.88909 24.1195 5.23506 23.9489L6.15953 23.4909C6.8571 23.1454 7.14119 22.2993 6.79381 21.6033L3.21033 14.4187Z" fill="#8F7A61"/>
<path d="M23.4263 11.6318C22.8496 11.21 22.048 11.2943 21.5698 11.8147L17.7257 16.5396C17.4585 16.8209 16.9522 16.9896 16.685 16.9896H13.4076C13.0138 16.9896 12.7044 16.6803 12.7044 16.2865C12.7044 15.8928 13.0138 15.5834 13.4076 15.5834C14.3494 15.5834 15.392 15.5834 16.2204 15.5834C16.9939 15.5834 17.6268 14.9506 17.6268 14.1771C17.6268 13.4037 16.9939 12.7709 16.2204 12.7709C12.9177 12.7709 16.068 12.7709 12.5357 12.7709C12.185 12.7709 12.0106 12.5487 11.734 12.3068C10.6459 11.3281 9.01735 10.8561 7.36859 11.2386C6.45304 11.4509 5.83563 11.8203 5.20979 12.3162L5.18916 12.2993L4.17188 13.1942L8.1693 21.2084H9.35301H16.2204C17.5424 21.2084 18.8082 20.5756 19.5957 19.5209L23.7211 13.6146C24.1852 12.9959 24.0587 12.0959 23.4263 11.6318Z" fill="#8F7A61"/>
</svg>
