<svg width="22" height="16" viewBox="0 0 22 16" fill="none" xmlns="http://www.w3.org/2000/svg">
<path d="M21.1354 5.17243C21.1395 5.23484 21.1343 5.29831 21.1189 5.36072L19.7618 10.9459C19.6929 11.2273 19.4482 11.4251 19.1665 11.4261L11.0236 11.4684H2.87769C2.59495 11.4684 2.34717 11.2696 2.27931 10.9871L0.922169 5.38082C0.906747 5.31629 0.901607 5.25071 0.905719 5.18724C0.380341 5.01799 -0.00109863 4.51237 -0.00109863 3.91683C-0.00109863 3.18166 0.579799 2.584 1.29436 2.584C2.00788 2.584 2.58981 3.18166 2.58981 3.91683C2.58981 4.33043 2.40577 4.70065 2.11687 4.94606L3.81535 6.70729C4.24511 7.15262 4.8404 7.40755 5.45009 7.40755C6.17081 7.40755 6.85864 7.05531 7.29148 6.46506L10.0839 2.65805C9.84949 2.41687 9.7035 2.08367 9.7035 1.71661C9.70452 0.981444 10.2854 0.383789 11 0.383789C11.7145 0.383789 12.2954 0.981444 12.2954 1.71661C12.2954 2.07309 12.1577 2.39677 11.9356 2.63584C11.9356 2.63689 11.9366 2.63795 11.9376 2.63901L14.7095 6.4566C15.1423 7.05213 15.8322 7.40755 16.555 7.40755C17.1709 7.40755 17.7487 7.16109 18.1836 6.71364L19.8934 4.95452C19.5983 4.71017 19.4091 4.33571 19.4091 3.91683C19.4091 3.18166 19.99 2.584 20.7046 2.584C21.4191 2.584 22 3.18166 22 3.91683C22.0011 4.4965 21.6392 4.98943 21.1354 5.17243ZM19.6291 13.4581C19.6291 13.107 19.3526 12.8235 19.0123 12.8235H3.05556C2.71524 12.8235 2.43867 13.107 2.43867 13.4581V14.9814C2.43867 15.3315 2.71524 15.616 3.05556 15.616H19.0123C19.3526 15.616 19.6291 15.3315 19.6291 14.9814V13.4581Z" fill="#8F7A61"/>
</svg>
