<svg width="34" height="35" viewBox="0 0 34 35" fill="none" xmlns="http://www.w3.org/2000/svg">
<path d="M20.8154 13.1362V21.22H29.595C29.9558 21.22 30.301 21.0748 30.5539 20.8172L33.0946 18.2262C33.5964 17.7147 33.6101 16.8984 33.1253 16.37L30.5584 13.5717C30.3036 13.2941 29.9447 13.1362 29.5687 13.1362H20.8154Z" fill="#8F7A61"/>
<path d="M12.6647 5.05249H3.8851C3.52432 5.05249 3.17908 5.19775 2.9262 5.45537L0.385531 8.04629C-0.116287 8.55785 -0.12997 9.37412 0.354743 9.90252L2.92172 12.7008C3.17645 12.9784 3.53538 13.1363 3.91141 13.1363H12.6647V5.05249Z" fill="#8F7A61"/>
<path d="M18.7948 33.1436V1.3473C18.7948 0.603128 18.1917 0 17.4475 0H16.1002C15.3561 0 14.7529 0.603128 14.7529 1.3473V33.1436C14.7529 33.8878 15.3561 34.4909 16.1002 34.4909H17.4475C18.1917 34.4909 18.7948 33.8878 18.7948 33.1436Z" fill="#8F7A61"/>
</svg>
