<svg width="24" height="24" viewBox="0 0 24 24" fill="none" xmlns="http://www.w3.org/2000/svg">
<path d="M14.2117 18.8726C12.7201 18.8726 11.2711 18.6112 9.90513 18.0958C8.57721 17.5947 7.3825 16.8753 6.35406 15.9578C5.31409 15.03 4.49579 13.9457 3.92185 12.735C3.69549 12.2575 3.51132 11.7687 3.36957 11.2705C1.3425 12.4351 0 14.4662 0 16.7772C0 18.7212 0.950299 20.4669 2.45865 21.6657C2.08491 22.28 1.57266 22.7551 1.13789 23.0846C0.807377 23.3352 0.937315 23.8549 1.34644 23.9229C1.6575 23.9746 1.96908 24.0001 2.27729 24.0001C3.37998 24.0001 4.43706 23.6735 5.25198 23.0539C5.91264 23.2282 6.61192 23.3222 7.33596 23.3222C10.5664 23.3222 13.3092 21.4592 14.2882 18.8716C14.2627 18.8718 14.2372 18.8726 14.2117 18.8726Z" fill="#8F7A61"/>
<path d="M22.7578 17.351C22.1308 16.9137 21.299 16.2108 20.7181 15.2558C22.7306 13.6564 23.9986 11.327 23.9986 8.73312C23.9986 3.90995 19.6162 0 14.2102 0C8.80428 0 4.42188 3.90995 4.42188 8.73312C4.42188 13.5563 8.80428 17.4662 14.2102 17.4662C15.1763 17.4662 16.1094 17.3407 16.9909 17.1082C18.0783 17.935 19.4887 18.3708 20.96 18.3708C21.4982 18.3708 22.0445 18.3125 22.5862 18.1937C22.987 18.1059 23.0942 17.5857 22.7578 17.351ZM15.4757 5.60683C15.4757 5.21851 15.7905 4.9037 16.1788 4.9037C16.5671 4.9037 16.8819 5.21851 16.8819 5.60683V7.37402C16.8819 7.76233 16.5671 8.07714 16.1788 8.07714C15.7905 8.07714 15.4757 7.76233 15.4757 7.37402V5.60683ZM11.2344 5.58475C11.2344 5.19643 11.5492 4.88162 11.9375 4.88162C12.3258 4.88162 12.6406 5.19643 12.6406 5.58475V7.35194C12.6406 7.74025 12.3258 8.05507 11.9375 8.05507C11.5492 8.05507 11.2344 7.74025 11.2344 7.35194V5.58475ZM18.5111 12.2522C17.3509 13.2065 15.8166 13.7322 14.1907 13.7322C12.5649 13.7322 11.0305 13.2065 9.87031 12.2522C8.67017 11.265 8.00927 9.94057 8.00927 8.52269C8.00927 8.13438 8.32409 7.81957 8.7124 7.81957C9.10072 7.81957 9.41553 8.13438 9.41553 8.52269C9.41553 10.6198 11.5576 12.3259 14.1907 12.3259C16.8238 12.3259 18.9659 10.6198 18.9659 8.52269C18.9659 8.13438 19.2807 7.81957 19.669 7.81957C20.0573 7.81957 20.3721 8.13438 20.3721 8.52269C20.3721 9.94052 19.7112 11.265 18.5111 12.2522Z" fill="#8F7A61"/>
</svg>
