<svg width="28" height="17" viewBox="0 0 28 17" fill="none" xmlns="http://www.w3.org/2000/svg">
<path d="M25.9999 8.65588H16.3888C15.2842 8.65588 14.3888 9.55132 14.3888 10.6559V14.4337C14.3888 15.5382 15.2842 16.4337 16.3888 16.4337H25.9999C27.1045 16.4337 27.9999 15.5382 27.9999 14.4337V10.6559C27.9999 9.55131 27.1045 8.65588 25.9999 8.65588Z" fill="#8F7A61"/>
<path d="M11.6111 8.65588H2C0.895431 8.65588 0 9.55132 0 10.6559V14.4337C0 15.5382 0.89543 16.4337 2 16.4337H11.6111C12.7157 16.4337 13.6111 15.5382 13.6111 14.4337V10.6559C13.6111 9.55131 12.7157 8.65588 11.6111 8.65588Z" fill="#8F7A61"/>
<path d="M19.3888 0.100342H9.77771C8.67314 0.100342 7.77771 0.995774 7.77771 2.10034V5.87812C7.77771 6.98269 8.67314 7.87812 9.77771 7.87812H19.3888C20.4934 7.87812 21.3888 6.98269 21.3888 5.87812V2.10034C21.3888 0.995772 20.4934 0.100342 19.3888 0.100342Z" fill="#8F7A61"/>
</svg>
