<svg width="24" height="25" viewBox="0 0 24 25" fill="none" xmlns="http://www.w3.org/2000/svg">
<path d="M23.4656 10.6302L20.6578 9.94111C20.5031 9.44893 20.3062 8.9708 20.0672 8.50674L21.5016 6.11611C21.6703 5.83486 21.6281 5.4833 21.4031 5.2583L19.4062 3.26143C19.1812 3.03643 18.8297 2.99424 18.5484 3.16299L16.1578 4.59736C15.6938 4.3583 15.2156 4.16143 14.7234 4.00674L14.0484 1.19893C13.9641 0.889551 13.6828 0.664551 13.3594 0.664551H10.5469C10.2234 0.664551 9.94219 0.889551 9.85781 1.19893L9.18281 4.00674C8.69062 4.16143 8.2125 4.3583 7.74844 4.59736L5.35781 3.16299C5.07656 2.99424 4.725 3.03643 4.5 3.26143L2.50313 5.2583C2.27813 5.4833 2.23594 5.83486 2.40469 6.11611L3.83906 8.50674C3.6 8.9708 3.40313 9.44893 3.24844 9.94111L0.534375 10.6302C0.225 10.7005 0 10.9817 0 11.3052V14.1177C0 14.4411 0.225 14.7224 0.534375 14.7927L3.24844 15.4817C3.40313 15.9739 3.6 16.4521 3.83906 16.9161L2.40469 19.3067C2.23594 19.588 2.27813 19.9396 2.50313 20.1646L4.5 22.1614C4.725 22.3864 5.07656 22.4286 5.35781 22.2599L7.74844 20.8255C8.2125 21.0646 8.69062 21.2614 9.18281 21.4161L9.85781 24.1302C9.94219 24.4396 10.2234 24.6646 10.5469 24.6646H13.3594C13.6828 24.6646 13.9641 24.4396 14.0484 24.1302L14.7234 21.4161C15.2156 21.2614 15.6938 21.0646 16.1578 20.8255L18.5484 22.2599C18.8297 22.4286 19.1812 22.3864 19.4062 22.1614L21.4031 20.1646C21.6281 19.9396 21.6703 19.588 21.5016 19.3067L20.0672 16.9161C20.3062 16.4521 20.5031 15.9739 20.6578 15.4817L23.4656 14.7927C23.775 14.7224 24 14.4411 24 14.1177V11.3052C24 10.9817 23.775 10.7005 23.4656 10.6302ZM11.9531 16.2271C10.0125 16.2271 8.4375 14.6521 8.4375 12.7114C8.4375 10.7708 10.0125 9.1958 11.9531 9.1958C13.8938 9.1958 15.4688 10.7708 15.4688 12.7114C15.4688 14.6521 13.8938 16.2271 11.9531 16.2271Z" fill="#8F7A61"/>
</svg>
