<svg width="22" height="20" viewBox="0 0 22 20" fill="none" xmlns="http://www.w3.org/2000/svg">
<path d="M11 7.47656C13.0646 7.47656 14.7383 5.80288 14.7383 3.73828C14.7383 1.67369 13.0646 0 11 0C8.9354 0 7.26172 1.67369 7.26172 3.73828C7.26172 5.80288 8.9354 7.47656 11 7.47656Z" fill="#8F7A61"/>
<path d="M18.5625 7.47657C19.8677 7.47657 20.9258 6.41849 20.9258 5.11329C20.9258 3.80808 19.8677 2.75 18.5625 2.75C17.2573 2.75 16.1992 3.80808 16.1992 5.11329C16.1992 6.41849 17.2573 7.47657 18.5625 7.47657Z" fill="#8F7A61"/>
<path d="M3.4375 7.47657C4.7427 7.47657 5.80078 6.41849 5.80078 5.11329C5.80078 3.80808 4.7427 2.75 3.4375 2.75C2.1323 2.75 1.07422 3.80808 1.07422 5.11329C1.07422 6.41849 2.1323 7.47657 3.4375 7.47657Z" fill="#8F7A61"/>
<path d="M5.76598 9.59857C4.8357 8.83639 3.99321 8.93728 2.91758 8.93728C1.30883 8.93728 0 10.2384 0 11.8372V16.5298C0 17.2242 0.566758 17.7888 1.26371 17.7888C4.27264 17.7888 3.91016 17.8433 3.91016 17.6591C3.91016 14.3339 3.5163 11.8954 5.76598 9.59857Z" fill="#8F7A61"/>
<path d="M12.023 8.95475C10.1442 8.79805 8.51117 8.95656 7.10262 10.1192C4.74548 12.0073 5.1991 14.5494 5.1991 17.6594C5.1991 18.4822 5.86855 19.1641 6.70387 19.1641C15.7738 19.1641 16.1348 19.4567 16.6726 18.2656C16.849 17.8629 16.8007 17.9909 16.8007 14.1376C16.8007 11.0772 14.1507 8.95475 12.023 8.95475Z" fill="#8F7A61"/>
<path d="M19.0823 8.93742C18.0008 8.93742 17.1629 8.83756 16.2339 9.59871C18.4668 11.8785 18.0897 14.1506 18.0897 17.6592C18.0897 17.8446 17.7888 17.789 20.691 17.789C21.4129 17.789 21.9999 17.2042 21.9999 16.4853V11.8374C21.9999 10.2385 20.691 8.93742 19.0823 8.93742Z" fill="#8F7A61"/>
</svg>
