<svg width="22" height="26" viewBox="0 0 22 26" fill="none" xmlns="http://www.w3.org/2000/svg">
<path d="M0 5.8667H7.33333V8.80003H0V5.8667Z" fill="#8F7A61"/>
<path d="M0 10.2667H7.33333V20.5334H0V10.2667Z" fill="#8F7A61"/>
<path d="M14.667 5.8667H22.0003V8.80003H14.667V5.8667Z" fill="#8F7A61"/>
<path d="M14.667 20.5334H22.0003V10.2667H14.667V20.5334ZM16.1337 16.1334H20.5337V17.6001H16.1337V16.1334Z" fill="#8F7A61"/>
<path d="M15.3537 3.88007C15.8493 3.46114 16.1329 2.8488 16.1329 2.2C16.1329 0.986871 15.146 0 13.9329 0C12.9689 0 12.1253 0.61732 11.836 1.5354L10.9995 4.17379L10.1631 1.5354C9.87378 0.61732 9.03015 0 8.06621 0C6.85308 0 5.86621 0.986871 5.86621 2.2C5.86621 2.8488 6.14982 3.46114 6.64682 3.8808L8.99613 5.86667H8.79954V25.0311L10.9995 22.8311L13.1995 25.0311V5.86667H13.0033L15.3537 3.88007ZM13.2339 1.978C13.3313 1.6722 13.6121 1.46667 13.9329 1.46667C14.3368 1.46667 14.6662 1.7954 14.6662 2.2C14.6662 2.41628 14.5717 2.62108 14.407 2.76076L12.4662 4.4L13.2339 1.978ZM7.33288 2.2C7.33288 1.7954 7.66229 1.46667 8.06621 1.46667C8.38707 1.46667 8.66779 1.6722 8.76518 1.978L9.53288 4.4L7.59355 2.76144C7.42743 2.62108 7.33288 2.41628 7.33288 2.2Z" fill="#8F7A61"/>
</svg>
