<svg width="26" height="27" viewBox="0 0 26 27" fill="none" xmlns="http://www.w3.org/2000/svg">
<path d="M13 26.0869C20.1797 26.0869 26 20.2666 26 13.0869C26 5.90721 20.1797 0.0869141 13 0.0869141C5.8203 0.0869141 0 5.90721 0 13.0869C0 20.2666 5.8203 26.0869 13 26.0869Z" fill="#8F7A61"/>
<path fill-rule="evenodd" clip-rule="evenodd" d="M17.7866 10.4694C18.1276 10.9038 18.052 11.5324 17.6176 11.8735L12.5232 15.8735C12.1607 16.1581 11.6507 16.1581 11.2882 15.8736L8.38263 13.5931C7.94818 13.2521 7.87242 12.6235 8.2134 12.189C8.55439 11.7546 9.18301 11.6788 9.61746 12.0198L11.9055 13.8156L16.3825 10.3004C16.8169 9.95936 17.4455 10.035 17.7866 10.4694Z" fill="#F8F4EE"/>
</svg>
