<svg width="178" height="32" viewBox="0 0 178 32" fill="none" xmlns="http://www.w3.org/2000/svg">
<path d="M26.4109 0V31.9026L44.4903 29.4381V13.9137L30.195 10.3172L28.4937 3.78407L31.9932 8.61603L49.9821 13.5386L44.7749 7.38055L26.4109 0Z" fill="#FFA200"/>
<path d="M23.5712 0V31.9026L5.49175 29.4381V13.9137L19.7871 10.3172L21.4883 3.78407L17.9824 8.61603L0 13.5386L5.20714 7.38055L23.5712 0Z" fill="#FFA200"/>
<path d="M58.5593 21.1129C57.3238 20.7378 56.347 20.2397 55.629 19.6187L56.7351 17.1413C57.4402 17.6976 58.3005 18.1504 59.3225 18.4997C60.3446 18.849 61.3731 19.0236 62.4015 19.0236C63.6758 19.0236 64.6267 18.8166 65.2606 18.4091C65.8881 18.0016 66.205 17.4583 66.205 16.792C66.205 16.3004 66.0304 15.8993 65.6746 15.5759C65.3253 15.259 64.879 15.0067 64.3356 14.8256C63.7923 14.6445 63.0613 14.4439 62.1299 14.2111C60.8232 13.9006 59.7624 13.5901 58.9538 13.2796C58.1453 12.9691 57.4467 12.484 56.871 11.8177C56.2888 11.1579 55.9977 10.2588 55.9977 9.1333C55.9977 8.1889 56.2565 7.32212 56.7675 6.5459C57.2785 5.76968 58.0612 5.14871 59.0961 4.69591C60.1376 4.23665 61.4054 4.01025 62.9126 4.01025C63.9604 4.01025 64.9889 4.13962 66.0045 4.40483C67.02 4.67004 67.8933 5.04521 68.6307 5.53035L67.6281 8.00778C66.8777 7.56793 66.0886 7.23156 65.2736 7.00517C64.4585 6.77877 63.6629 6.66234 62.8931 6.66234C61.6318 6.66234 60.7003 6.8758 60.0858 7.30272C59.4648 7.72964 59.1608 8.2924 59.1608 8.99746C59.1608 9.48907 59.3355 9.89011 59.6912 10.2006C60.0405 10.5111 60.4869 10.7569 61.0302 10.938C61.5736 11.1191 62.3045 11.3197 63.236 11.5525C64.5103 11.8501 65.5582 12.1541 66.3732 12.471C67.1882 12.788 67.8868 13.2796 68.469 13.9329C69.0512 14.5862 69.3422 15.4724 69.3422 16.5785C69.3422 17.5294 69.0835 18.3832 68.5725 19.153C68.055 19.9227 67.2788 20.5373 66.2309 20.99C65.183 21.4493 63.9087 21.6757 62.4015 21.6757C61.0755 21.6757 59.7947 21.4881 58.5593 21.1129Z" fill="#3D3D3E"/>
<path d="M77.5507 15.8154L75.2674 17.9758V21.4365H72.2013V3.23413H75.2674V14.2241L81.6194 8.33777H85.3L79.8341 13.8295L85.8175 21.43H82.0916L77.5507 15.8154Z" fill="#3D3D3E"/>
<path d="M87.8033 3.23413H90.8694V21.43H87.8033V3.23413Z" fill="#3D3D3E"/>
<path d="M104.324 9.57322C105.346 10.4982 105.857 11.8889 105.857 13.7519V21.43H102.965V19.8387C102.59 20.4144 102.053 20.8478 101.361 21.1518C100.669 21.4558 99.8282 21.6046 98.845 21.6046C97.8618 21.6046 97.008 21.4364 96.2706 21.1001C95.5331 20.7637 94.9639 20.298 94.5629 19.7029C94.1618 19.1078 93.9613 18.4351 93.9613 17.6782C93.9613 16.501 94.4012 15.5566 95.2744 14.845C96.1477 14.1335 97.5254 13.7777 99.4078 13.7777H102.791V13.5837C102.791 12.6652 102.519 11.9666 101.969 11.475C101.419 10.9834 100.611 10.7376 99.5307 10.7376C98.7933 10.7376 98.0688 10.854 97.3573 11.0804C96.6457 11.3068 96.0442 11.6302 95.5526 12.0377L94.3494 9.80609C95.0351 9.28214 95.863 8.88109 96.8268 8.60295C97.7907 8.3248 98.8127 8.18896 99.8929 8.18896C101.821 8.18896 103.302 8.64823 104.324 9.57322ZM101.523 18.8426C102.118 18.4933 102.539 17.9887 102.784 17.3354V15.8153H99.6212C97.8553 15.8153 96.9756 16.3975 96.9756 17.5553C96.9756 18.1116 97.1956 18.5515 97.6354 18.8814C98.0753 19.2113 98.6898 19.373 99.4725 19.373C100.249 19.373 100.928 19.1983 101.523 18.8426Z" fill="#3D3D3E"/>
<path d="M122.727 3.23413V21.43H119.784V19.7353C119.279 20.3562 118.652 20.822 117.908 21.1325C117.164 21.4429 116.342 21.5982 115.443 21.5982C114.182 21.5982 113.05 21.32 112.047 20.7637C111.045 20.2075 110.255 19.4183 109.68 18.3963C109.111 17.3743 108.819 16.2035 108.819 14.8774C108.819 13.5514 109.104 12.387 109.68 11.3715C110.249 10.3559 111.038 9.57325 112.047 9.01696C113.05 8.46067 114.182 8.18253 115.443 8.18253C116.31 8.18253 117.099 8.3313 117.824 8.62239C118.548 8.91347 119.156 9.35979 119.661 9.94843V3.23413H122.727ZM117.798 18.4739C118.386 18.1375 118.852 17.6589 119.195 17.0379C119.538 16.4169 119.712 15.6989 119.712 14.8774C119.712 14.0624 119.538 13.3379 119.195 12.7169C118.852 12.096 118.386 11.6173 117.798 11.2809C117.209 10.9446 116.549 10.7764 115.812 10.7764C115.074 10.7764 114.415 10.9446 113.826 11.2809C113.237 11.6173 112.772 12.096 112.429 12.7169C112.086 13.3379 111.911 14.0559 111.911 14.8774C111.911 15.6924 112.086 16.4169 112.429 17.0379C112.772 17.6589 113.237 18.1375 113.826 18.4739C114.415 18.8103 115.074 18.9784 115.812 18.9784C116.549 18.9784 117.209 18.8103 117.798 18.4739Z" fill="#3D3D3E"/>
<path d="M128.885 19.6771C127.559 18.3446 126.899 16.4364 126.899 13.9525V4.2627H130.088V13.8296C130.088 17.1997 131.543 18.8815 134.454 18.8815C137.346 18.8815 138.794 17.1997 138.794 13.8296V4.2627H141.932V13.9525C141.932 16.4364 141.272 18.3446 139.959 19.6771C138.639 21.0096 136.802 21.6759 134.428 21.6759C132.054 21.6759 130.204 21.0096 128.885 19.6771Z" fill="#3D3D3E"/>
<path d="M147.876 21.1129C146.641 20.7378 145.664 20.2397 144.946 19.6187L146.052 17.1413C146.757 17.6976 147.618 18.1504 148.64 18.4997C149.662 18.849 150.69 19.0236 151.719 19.0236C152.993 19.0236 153.944 18.8166 154.578 18.4091C155.205 18.0016 155.522 17.4583 155.522 16.792C155.522 16.3004 155.347 15.8993 154.992 15.5759C154.642 15.259 154.196 15.0067 153.653 14.8256C153.109 14.6445 152.378 14.4439 151.447 14.2111C150.14 13.9006 149.079 13.5901 148.271 13.2796C147.462 12.9691 146.764 12.484 146.188 11.8177C145.606 11.1579 145.315 10.2588 145.315 9.1333C145.315 8.1889 145.573 7.32212 146.084 6.5459C146.596 5.76968 147.378 5.14871 148.413 4.69591C149.455 4.23665 150.722 4.01025 152.23 4.01025C153.277 4.01025 154.306 4.13962 155.322 4.40483C156.337 4.67004 157.21 5.04521 157.948 5.53035L156.945 8.00778C156.195 7.56793 155.406 7.23156 154.591 7.00517C153.776 6.77877 152.98 6.66234 152.21 6.66234C150.949 6.66234 150.017 6.8758 149.403 7.30272C148.788 7.72964 148.484 8.2924 148.484 8.99746C148.484 9.48907 148.659 9.89011 149.015 10.2006C149.364 10.5111 149.81 10.7569 150.354 10.938C150.897 11.1191 151.628 11.3197 152.559 11.5525C153.834 11.8501 154.882 12.1541 155.697 12.471C156.512 12.788 157.21 13.2796 157.792 13.9329C158.375 14.5862 158.666 15.4724 158.666 16.5785C158.666 17.5294 158.407 18.3832 157.896 19.153C157.378 19.9227 156.602 20.5373 155.554 20.99C154.506 21.4493 153.232 21.6757 151.725 21.6757C150.393 21.6757 149.112 21.4881 147.876 21.1129Z" fill="#3D3D3E"/>
<path d="M172.955 17.4584H164.371L162.676 21.4301H159.39L167.114 4.2627H170.251L178 21.4301H174.662L172.955 17.4584ZM171.9 14.9551L168.666 7.45166L165.451 14.9551H171.9Z" fill="#3D3D3E"/>
<path d="M59.6847 29.5816V31.6645H59.0573V29.5816L56.651 25.6423H57.3302L59.3936 29.0189L61.4506 25.6488H62.0845L59.6847 29.5816Z" fill="#3D3D3E"/>
<path d="M63.831 31.3141C63.3459 31.0489 62.9707 30.6802 62.699 30.2209C62.4273 29.7617 62.2915 29.2377 62.2915 28.6555C62.2915 28.0734 62.4273 27.5559 62.699 27.0902C62.9707 26.6244 63.3523 26.2622 63.831 25.997C64.3161 25.7318 64.853 25.5959 65.4481 25.5959C66.0432 25.5959 66.5801 25.7253 67.0588 25.9905C67.5374 26.2557 67.9126 26.618 68.1908 27.0837C68.4689 27.5494 68.6048 28.0734 68.6048 28.6555C68.6048 29.2312 68.4689 29.7552 68.1908 30.2209C67.9191 30.6867 67.5374 31.0554 67.0588 31.3206C66.5801 31.5858 66.0432 31.7151 65.4481 31.7151C64.853 31.7151 64.3161 31.5793 63.831 31.3141ZM66.7418 30.8225C67.1235 30.609 67.4275 30.3115 67.6474 29.9298C67.8673 29.5482 67.9773 29.1213 67.9773 28.6555C67.9773 28.1898 67.8673 27.7629 67.6474 27.3813C67.4275 26.9996 67.1299 26.7021 66.7418 26.4886C66.3602 26.2751 65.9268 26.1652 65.4546 26.1652C64.9824 26.1652 64.549 26.2751 64.1609 26.4886C63.7728 26.7021 63.4688 26.9996 63.2488 27.3813C63.0289 27.7629 62.9189 28.1898 62.9189 28.6555C62.9189 29.1213 63.0289 29.5482 63.2488 29.9298C63.4688 30.3115 63.7728 30.609 64.1609 30.8225C64.549 31.036 64.9759 31.1459 65.4546 31.1459C65.9333 31.1459 66.3537 31.0424 66.7418 30.8225Z" fill="#3D3D3E"/>
<path d="M70.636 31.0426C70.2026 30.5962 69.9827 29.9429 69.9827 29.0891V25.6414H70.6166V29.0632C70.6166 29.7618 70.7718 30.2857 71.0888 30.6286C71.4057 30.9714 71.8585 31.146 72.4536 31.146C73.0552 31.146 73.5145 30.9714 73.8314 30.6286C74.1484 30.2857 74.3036 29.7618 74.3036 29.0632V25.6414H74.9246V29.0891C74.9246 29.9429 74.7111 30.5962 74.2777 31.0426C73.8444 31.4889 73.2363 31.7153 72.4601 31.7153C71.6839 31.7153 71.0694 31.4889 70.636 31.0426Z" fill="#3D3D3E"/>
<path d="M79.4655 31.5017C79.058 31.3594 78.741 31.1718 78.5146 30.9325L78.7605 30.4408C78.9804 30.6608 79.265 30.8354 79.6272 30.9713C79.9895 31.1071 80.3582 31.1718 80.7463 31.1718C81.2832 31.1718 81.6907 31.0748 81.9559 30.8742C82.2276 30.6737 82.3634 30.4214 82.3634 30.1045C82.3634 29.8652 82.2922 29.6711 82.1435 29.5288C81.9947 29.3865 81.8201 29.2765 81.6066 29.1989C81.3931 29.1213 81.102 29.0372 80.7204 28.9466C80.2676 28.8302 79.9054 28.7202 79.6402 28.6167C79.3685 28.5132 79.1421 28.3515 78.948 28.1316C78.754 27.9117 78.657 27.6206 78.657 27.2454C78.657 26.9414 78.7346 26.6632 78.8963 26.4174C79.058 26.1716 79.3038 25.9711 79.6337 25.8223C79.9636 25.6736 80.3776 25.5959 80.8692 25.5959C81.212 25.5959 81.5484 25.6412 81.8783 25.7383C82.2082 25.8353 82.4928 25.9647 82.7321 26.1328L82.5186 26.6374C82.2664 26.4692 81.9947 26.3463 81.7101 26.2622C81.4255 26.1781 81.1409 26.1393 80.8692 26.1393C80.3388 26.1393 79.9442 26.2428 79.679 26.4433C79.4138 26.6438 79.2779 26.9091 79.2779 27.2325C79.2779 27.4718 79.3491 27.6659 79.4979 27.8146C79.6466 27.9634 79.8278 28.0734 80.0477 28.151C80.2676 28.2286 80.5652 28.3127 80.9403 28.4033C81.3802 28.5132 81.736 28.6167 82.0076 28.7267C82.2793 28.8367 82.5122 28.9919 82.6998 29.2054C82.8874 29.4188 82.9844 29.7099 82.9844 30.0786C82.9844 30.3826 82.9003 30.6608 82.7386 30.9066C82.5769 31.1524 82.3246 31.3529 81.9882 31.5017C81.6519 31.6505 81.2314 31.7216 80.7398 31.7216C80.3064 31.7151 79.8795 31.644 79.4655 31.5017Z" fill="#3D3D3E"/>
<path d="M88.6377 31.1136V31.6634H84.3815V25.6477H88.5084V26.1975H85.0154V28.3386H88.1267V28.882H85.0154V31.12H88.6377V31.1136Z" fill="#3D3D3E"/>
<path d="M90.132 25.6477H90.7659V31.1136H94.136V31.6634H90.132V25.6477Z" fill="#3D3D3E"/>
<path d="M95.1968 25.6477H95.8307V31.1136H99.2008V31.6634H95.1968V25.6477Z" fill="#3D3D3E"/>
<path d="M110.773 25.6477L108.742 31.6634H108.069L106.31 26.5339L104.537 31.6634H103.877L101.846 25.6477H102.5L104.233 30.8225L106.031 25.6477H106.627L108.399 30.8484L110.158 25.6477H110.773Z" fill="#3D3D3E"/>
<path d="M116.187 31.1136V31.6634H111.931V25.6477H116.058V26.1975H112.565V28.3386H115.676V28.882H112.565V31.12H116.187V31.1136Z" fill="#3D3D3E"/>
<path d="M119.939 25.6477H122.39C123.024 25.6477 123.587 25.7771 124.079 26.0293C124.564 26.2816 124.945 26.6374 125.211 27.0966C125.482 27.5494 125.618 28.0734 125.618 28.6556C125.618 29.2377 125.482 29.7617 125.211 30.2145C124.939 30.6673 124.564 31.023 124.079 31.2818C123.594 31.534 123.031 31.6634 122.39 31.6634H119.939V25.6477ZM122.352 31.1136C122.876 31.1136 123.341 31.0101 123.736 30.7966C124.13 30.5896 124.434 30.2986 124.654 29.9298C124.874 29.5611 124.978 29.1342 124.978 28.6556C124.978 28.1769 124.868 27.75 124.654 27.3813C124.434 27.0126 124.13 26.7215 123.736 26.5145C123.341 26.3075 122.876 26.1975 122.352 26.1975H120.573V31.1136H122.352Z" fill="#3D3D3E"/>
<path d="M128.05 31.3141C127.565 31.0489 127.19 30.6802 126.918 30.2209C126.647 29.7617 126.511 29.2377 126.511 28.6555C126.511 28.0734 126.647 27.5559 126.918 27.0902C127.19 26.6244 127.572 26.2622 128.05 25.997C128.535 25.7318 129.072 25.5959 129.667 25.5959C130.262 25.5959 130.799 25.7253 131.278 25.9905C131.757 26.2557 132.132 26.618 132.41 27.0837C132.688 27.5494 132.824 28.0734 132.824 28.6555C132.824 29.2312 132.688 29.7552 132.41 30.2209C132.138 30.6867 131.757 31.0554 131.278 31.3206C130.799 31.5858 130.262 31.7151 129.667 31.7151C129.072 31.7151 128.535 31.5793 128.05 31.3141ZM130.961 30.8225C131.343 30.609 131.647 30.3115 131.867 29.9298C132.087 29.5482 132.197 29.1213 132.197 28.6555C132.197 28.1898 132.087 27.7629 131.867 27.3813C131.647 26.9996 131.349 26.7021 130.961 26.4886C130.579 26.2751 130.146 26.1652 129.674 26.1652C129.202 26.1652 128.768 26.2751 128.38 26.4886C127.992 26.7021 127.688 26.9996 127.468 27.3813C127.248 27.7629 127.138 28.1898 127.138 28.6555C127.138 29.1213 127.248 29.5482 127.468 29.9298C127.688 30.3115 127.992 30.609 128.38 30.8225C128.768 31.036 129.195 31.1459 129.674 31.1459C130.153 31.1459 130.573 31.0424 130.961 30.8225Z" fill="#3D3D3E"/>
<path d="M137.669 26.1975H135.554V25.6477H140.418V26.1975H138.303V31.6634H137.669V26.1975Z" fill="#3D3D3E"/>
<path d="M146.466 25.6477V31.6634H145.839V28.8884H142.074V31.6634H141.44V25.6477H142.074V28.3321H145.839V25.6477H146.466Z" fill="#3D3D3E"/>
<path d="M152.682 31.1136V31.6634H148.426V25.6477H152.553V26.1975H149.06V28.3386H152.171V28.882H149.06V31.12H152.682V31.1136Z" fill="#3D3D3E"/>
<path d="M160.542 31.6634L159.164 29.7293C159.009 29.7487 158.847 29.7552 158.685 29.7552H157.068V31.6634H156.434V25.6477H158.685C159.455 25.6477 160.056 25.8288 160.49 26.1975C160.923 26.5662 161.143 27.0708 161.143 27.7112C161.143 28.1834 161.027 28.5779 160.787 28.9014C160.548 29.2248 160.212 29.4576 159.765 29.6L161.234 31.6634H160.542ZM160.031 28.8173C160.348 28.5521 160.503 28.1834 160.503 27.7112C160.503 27.226 160.348 26.8508 160.031 26.5921C159.714 26.3334 159.261 26.1975 158.666 26.1975H157.068V29.2183H158.666C159.261 29.2118 159.72 29.0825 160.031 28.8173Z" fill="#3D3D3E"/>
<path d="M166.9 31.1136V31.6634H162.644V25.6477H166.771V26.1975H163.278V28.3386H166.389V28.882H163.278V31.12H166.9V31.1136Z" fill="#3D3D3E"/>
<path d="M168.769 31.5017C168.362 31.3594 168.045 31.1718 167.819 30.9325L168.064 30.4408C168.284 30.6608 168.569 30.8354 168.931 30.9713C169.293 31.1071 169.662 31.1718 170.05 31.1718C170.587 31.1718 170.995 31.0748 171.26 30.8742C171.532 30.6737 171.667 30.4214 171.667 30.1045C171.667 29.8652 171.596 29.6711 171.447 29.5288C171.299 29.3865 171.124 29.2765 170.911 29.1989C170.697 29.1213 170.406 29.0372 170.024 28.9466C169.572 28.8302 169.209 28.7202 168.944 28.6167C168.672 28.5132 168.446 28.3515 168.252 28.1316C168.058 27.9117 167.961 27.6206 167.961 27.2454C167.961 26.9414 168.039 26.6632 168.2 26.4174C168.362 26.1716 168.608 25.9711 168.938 25.8223C169.268 25.6736 169.682 25.5959 170.173 25.5959C170.516 25.5959 170.852 25.6412 171.182 25.7383C171.512 25.8353 171.797 25.9647 172.036 26.1328L171.823 26.6374C171.57 26.4692 171.299 26.3463 171.014 26.2622C170.729 26.1781 170.445 26.1393 170.173 26.1393C169.643 26.1393 169.248 26.2428 168.983 26.4433C168.718 26.6438 168.582 26.9091 168.582 27.2325C168.582 27.4718 168.653 27.6659 168.802 27.8146C168.951 27.9634 169.132 28.0734 169.352 28.151C169.572 28.2286 169.869 28.3127 170.244 28.4033C170.684 28.5132 171.04 28.6167 171.312 28.7267C171.583 28.8367 171.816 28.9919 172.004 29.2054C172.191 29.4188 172.288 29.7099 172.288 30.0786C172.288 30.3826 172.204 30.6608 172.043 30.9066C171.881 31.1524 171.629 31.3529 171.292 31.5017C170.956 31.6505 170.535 31.7216 170.044 31.7216C169.61 31.7151 169.183 31.644 168.769 31.5017Z" fill="#3D3D3E"/>
<path d="M174.766 26.1975H172.651V25.6477H177.515V26.1975H175.4V31.6634H174.766V26.1975Z" fill="#3D3D3E"/>
</svg>
