<svg width="604" height="395" viewBox="0 0 604 395" fill="none" xmlns="http://www.w3.org/2000/svg">
<path opacity="0.1" d="M110.21 334.99C121.06 327.42 124.71 318.09 125.94 304.92C127.17 291.75 122.35 278.13 113.1 268.67C105.39 260.79 94.77 255.61 89.03 246.19C82.91 236.16 83.12 222.48 74.62 214.36C68.78 208.78 60.24 207.29 53.14 203.43C47.35 200.28 42.58 195.58 37.28 191.66C31.98 187.74 25.69 184.49 19.12 184.98C9.21 185.72 1.49 195.46 1.02 205.39C0.549996 215.32 6.09 224.82 13.67 231.25C19.17 235.92 25.94 239.49 29.54 245.73C36.3 257.46 29.24 273.76 36.5 285.19C41.8 293.54 53.83 297.53 55.5 307.28C56.11 310.87 55.1 314.52 55.13 318.16C55.22 329.53 65.85 338.7 77.04 340.72C88.24 342.75 99.66 339.24 110.21 334.99Z" fill="#8F7A61"/>
<path d="M40.6099 224.96C40.5799 224.99 40.9899 225.45 41.7999 226.29C42.7199 227.22 43.9099 228.42 45.3999 229.91C46.9899 231.45 48.9099 233.36 50.9899 235.71C53.0999 238.04 55.6099 240.59 58.0799 243.69C59.3499 245.21 60.6699 246.8 62.0499 248.46C63.4199 250.12 64.7099 251.96 66.1299 253.81C69.0099 257.46 71.7199 261.63 74.6599 265.95C80.2899 274.75 85.9399 284.77 90.9299 295.75C95.8199 306.78 99.5699 317.66 102.41 327.71C103.69 332.77 105.01 337.57 105.82 342.14C106.26 344.42 106.78 346.61 107.11 348.74C107.43 350.87 107.74 352.92 108.04 354.88C108.72 358.78 108.95 362.35 109.3 365.48C109.67 368.6 109.83 371.3 109.93 373.52C110.06 375.62 110.16 377.31 110.25 378.61C110.34 379.77 110.41 380.39 110.45 380.39C110.5 380.39 110.52 379.78 110.52 378.61C110.5 377.3 110.48 375.61 110.46 373.5C110.45 371.28 110.37 368.56 110.06 365.42C109.78 362.28 109.62 358.68 109 354.76C108.73 352.79 108.45 350.73 108.16 348.58C107.85 346.43 107.36 344.23 106.94 341.93C106.16 337.32 104.88 332.49 103.63 327.39C100.83 317.26 97.0999 306.3 92.1799 295.2C87.1499 284.15 81.4299 274.09 75.7199 265.27C72.7399 260.94 69.9799 256.78 67.0399 253.14C65.5999 251.3 64.2799 249.47 62.8799 247.81C61.4699 246.17 60.1199 244.59 58.8199 243.08C56.2999 240.01 53.7199 237.5 51.5499 235.21C49.3999 232.9 47.4299 231.04 45.7699 229.55C44.2099 228.13 42.9599 226.99 41.9899 226.11C41.1099 225.32 40.6399 224.93 40.6099 224.96Z" fill="#F8F4EE"/>
<path d="M596.54 140.43C596.54 140.43 587 134.12 575.37 156.94C563.74 179.76 559.33 192.92 559.33 192.92C559.33 192.92 556.26 197.7 552.97 194.58C549.69 191.46 545.19 182.59 539.61 184.19C533.82 185.85 531.91 192.31 533.02 201.8C534.12 211.29 535.78 232.18 535.92 234.07C536.06 235.92 535 238.66 532.42 236.89C529.84 235.12 515.01 218.6 507.59 226.11C500.17 233.62 507.59 259.56 508.35 262.41C509.11 265.26 508.55 266.48 507.19 267.19C505.84 267.9 501.37 261.87 496.96 257.35C492.55 252.82 486.64 248.35 482.72 253.04C478.8 257.73 477.55 277.2 496.08 308.81L505.62 322.9L522.69 321.95C559.09 317.7 573.87 304.97 575.26 299.02C576.65 293.07 569.52 291.05 563.25 290.25C556.98 289.45 549.49 289.52 549.23 288.01C548.98 286.5 549.61 285.32 552.35 284.21C555.08 283.1 580.26 273.4 581.79 262.96C583.32 252.52 561.2 250.62 558.23 249.63C555.26 248.64 556.81 246.14 558.37 245.14C559.96 244.12 577.64 232.86 585.88 228.02C594.12 223.18 598.13 217.77 595.97 212.15C593.88 206.73 584.1 208.48 579.62 207.74C575.15 207 577.11 201.67 577.11 201.67C577.11 201.67 584.96 190.23 596.17 167.2C607.38 144.17 596.31 140.32 596.31 140.32" fill="#EBEBEB"/>
<path d="M586.09 160.85C586.09 160.85 586.03 161.02 585.88 161.34C585.72 161.68 585.5 162.16 585.21 162.77C584.6 164.04 583.73 165.88 582.6 168.24C580.33 172.98 576.99 179.83 572.84 188.26C564.54 205.14 552.88 228.36 539.91 253.96C526.94 279.57 515.23 302.76 506.84 319.6C502.66 328.01 499.28 334.82 496.93 339.55C495.77 341.89 494.86 343.71 494.23 344.97C493.92 345.57 493.69 346.04 493.52 346.37C493.36 346.69 493.26 346.84 493.26 346.84C493.26 346.84 493.32 346.67 493.47 346.35C493.63 346.01 493.85 345.54 494.14 344.92C494.75 343.65 495.62 341.81 496.75 339.46C499.02 334.72 502.36 327.88 506.51 319.44C514.81 302.56 526.48 279.34 539.44 253.73C552.4 228.13 564.12 204.94 572.5 188.1C576.68 179.69 580.06 172.88 582.41 168.15C583.57 165.81 584.48 163.99 585.11 162.73C585.42 162.13 585.65 161.66 585.82 161.33C585.99 161 586.09 160.85 586.09 160.85Z" fill="#E0E0E0"/>
<path d="M545.41 196.83C545.45 196.82 545.6 197.23 545.84 197.98C546.09 198.73 546.41 199.83 546.8 201.19C547.57 203.91 548.54 207.7 549.53 211.89C550.49 216.03 551.37 219.78 552.03 222.64C552.34 223.93 552.6 225.02 552.81 225.89C553 226.66 553.08 227.09 553.05 227.1C553.02 227.11 552.86 226.7 552.61 225.95C552.37 225.2 552.04 224.1 551.67 222.74C550.93 220.01 550.01 216.21 549.01 212.02C548.02 207.89 547.12 204.15 546.43 201.29C546.11 200 545.85 198.92 545.63 198.04C545.46 197.27 545.37 196.84 545.41 196.83Z" fill="#E0E0E0"/>
<path d="M554.61 227.41C554.57 227.27 562.28 224.93 571.84 222.18C581.4 219.43 589.18 217.32 589.22 217.46C589.26 217.6 581.55 219.94 571.99 222.69C562.43 225.44 554.65 227.55 554.61 227.41Z" fill="#E0E0E0"/>
<path d="M532.93 265.83C532.93 265.79 533.38 265.77 534.19 265.77C535.11 265.77 536.25 265.78 537.61 265.78C540.49 265.79 544.47 265.78 548.87 265.61C553.26 265.45 557.24 265.17 560.11 264.94C561.46 264.83 562.6 264.74 563.51 264.67C564.31 264.61 564.76 264.6 564.77 264.63C564.77 264.67 564.34 264.75 563.54 264.87C562.74 264.99 561.58 265.15 560.15 265.31C557.28 265.63 553.3 265.98 548.9 266.14C544.5 266.31 540.5 266.26 537.62 266.16C536.18 266.1 535.01 266.04 534.21 265.98C533.37 265.92 532.93 265.87 532.93 265.83Z" fill="#E0E0E0"/>
<path d="M518.52 240.01C518.55 239.99 518.79 240.33 519.19 240.96C519.64 241.69 520.19 242.59 520.84 243.65C522.21 245.94 524.07 249.11 526.1 252.64C528.13 256.17 529.94 259.37 531.23 261.71C531.82 262.8 532.32 263.73 532.73 264.49C533.07 265.15 533.25 265.53 533.22 265.54C533.19 265.56 532.95 265.22 532.55 264.59C532.1 263.86 531.55 262.96 530.9 261.9C529.53 259.61 527.67 256.44 525.64 252.91C523.61 249.38 521.8 246.18 520.52 243.84C519.93 242.75 519.43 241.82 519.02 241.06C518.66 240.4 518.48 240.03 518.52 240.01Z" fill="#E0E0E0"/>
<path d="M495.06 271.5C495.09 271.48 495.39 271.92 495.9 272.73C496.45 273.63 497.17 274.79 498.02 276.18C499.79 279.1 502.21 283.15 504.85 287.65C507.49 292.14 509.86 296.23 511.55 299.2C512.35 300.62 513.01 301.81 513.53 302.73C513.99 303.57 514.22 304.04 514.19 304.06C514.16 304.08 513.86 303.64 513.35 302.83C512.8 301.93 512.08 300.78 511.23 299.39C509.46 296.47 507.04 292.42 504.4 287.92C501.76 283.43 499.39 279.34 497.7 276.37C496.9 274.95 496.24 273.76 495.72 272.84C495.27 271.99 495.03 271.52 495.06 271.5Z" fill="#E0E0E0"/>
<path d="M513.96 303.14C513.96 303.1 514.53 303.06 515.55 303.03C516.67 302.99 518.12 302.95 519.88 302.89C523.54 302.77 528.58 302.58 534.15 302.21C539.72 301.85 544.75 301.39 548.39 301.04C550.14 300.87 551.59 300.73 552.7 300.62C553.72 300.53 554.28 300.49 554.29 300.53C554.29 300.57 553.74 300.67 552.73 300.83C551.72 300.99 550.25 301.19 548.43 301.42C544.8 301.87 539.76 302.39 534.18 302.75C528.6 303.12 523.54 303.25 519.88 303.28C518.05 303.29 516.57 303.28 515.54 303.25C514.53 303.21 513.96 303.18 513.96 303.14Z" fill="#E0E0E0"/>
<path opacity="0.3" d="M390.94 25.62H459.59C462.58 25.62 465 28.04 465 31.03V76.52C465 79.51 462.58 81.93 459.59 81.93H423.44L406.25 99.12V81.93H390.94C388.72 81.93 386.93 80.13 386.93 77.92V29.63C386.93 27.42 388.73 25.62 390.94 25.62Z" fill="#8F7A61"/>
<path d="M413.72 54.7299C413.72 56.9599 411.91 58.7699 409.68 58.7699C407.45 58.7699 405.64 56.9599 405.64 54.7299C405.64 52.4999 407.45 50.6899 409.68 50.6899C411.91 50.6899 413.72 52.4999 413.72 54.7299Z" fill="#FAFAFA"/>
<path d="M429.7 54.7299C429.7 56.9599 427.89 58.7699 425.66 58.7699C423.43 58.7699 421.62 56.9599 421.62 54.7299C421.62 52.4999 423.43 50.6899 425.66 50.6899C427.89 50.6899 429.7 52.4999 429.7 54.7299Z" fill="#FAFAFA"/>
<path d="M445.68 54.7299C445.68 56.9599 443.87 58.7699 441.64 58.7699C439.41 58.7699 437.6 56.9599 437.6 54.7299C437.6 52.4999 439.41 50.6899 441.64 50.6899C443.87 50.6899 445.68 52.4999 445.68 54.7299Z" fill="#FAFAFA"/>
<path d="M502.51 369.09C485.33 352.39 485.03 326.54 489.48 304.07C490.22 300.32 490.46 296.28 492.79 293.26C495.12 290.24 499.68 288.66 502.8 290.8C505.39 292.57 506.08 296.03 507.2 298.98C508.7 302.9 511.32 306.38 514.67 308.87C516.87 310.51 519.72 311.75 522.3 310.83C525.85 309.56 526.96 305.13 527.55 301.38C528.65 294.38 529.74 287.38 530.84 280.38C531.43 276.63 532.04 272.79 533.79 269.42C535.54 266.05 538.65 263.16 542.38 262.74C546.11 262.32 550.19 265.1 550.34 268.89C550.4 270.47 549.83 272 549.69 273.58C549.54 275.15 549.98 277 551.39 277.67C552.82 278.35 554.49 277.53 555.79 276.62C560.28 273.46 563.7 269.01 566.95 264.56C570.2 260.11 573.39 255.53 577.58 251.97C581.77 248.41 587.16 245.93 592.58 246.5C598 247.07 603.19 251.32 603.68 256.82C604.18 262.33 600.22 267.19 596.16 270.93C590.14 276.47 583.34 281.13 576.02 284.71C574.7 285.36 573.27 286.05 572.59 287.37C571.37 289.74 573.33 292.61 575.67 293.83C578.31 295.22 581.4 295.42 584.26 296.24C587.13 297.06 590.09 298.87 590.74 301.81C591.65 305.89 587.79 309.39 584.21 311.51C577.03 315.75 569.14 318.74 560.98 320.31C558.06 320.87 555.01 321.28 552.47 322.86C549.93 324.44 548.04 327.59 548.95 330.45C549.86 333.31 553.18 334.72 556.16 334.66C559.14 334.6 561.98 333.45 564.9 332.86C570.37 331.75 576.97 333.19 579.55 338.19C581.24 341.47 580.77 345.58 579.1 348.89C577.43 352.2 574.72 354.85 571.9 357.23C562.06 365.58 550.21 371.66 537.57 373.85C524.95 376.05 513.69 375.37 502.51 369.09Z" fill="#006837"/>
<path d="M499.49 385.79C501.77 376.97 505.45 366.72 510.66 355.87C515.84 345.01 522.51 333.58 529.9 321.86C531.76 318.94 533.59 316.05 535.4 313.2C537.21 310.36 539.01 307.55 540.94 304.91C544.77 299.61 548.86 294.8 552.89 290.36C556.91 285.91 560.89 281.84 564.64 278.06C568.4 274.29 571.97 270.83 575.36 267.83C582.12 261.79 588.14 257.57 592.39 254.84C594.51 253.47 596.19 252.46 597.34 251.79C597.89 251.47 598.33 251.22 598.65 251.04C598.95 250.87 599.1 250.79 599.11 250.81C599.12 250.82 598.97 250.92 598.69 251.11C598.37 251.31 597.95 251.58 597.41 251.92C596.29 252.63 594.63 253.67 592.53 255.08C588.33 257.87 582.38 262.14 575.68 268.21C572.32 271.23 568.78 274.7 565.04 278.48C561.31 282.28 557.35 286.36 553.35 290.8C549.35 295.24 545.29 300.04 541.48 305.32C539.57 307.95 537.79 310.74 535.97 313.59C534.16 316.44 532.33 319.32 530.47 322.24C523.09 333.95 516.42 345.35 511.22 356.16C506 366.96 502.28 377.15 499.95 385.92" fill="#263238"/>
<path d="M541.14 304.91C541.09 304.91 541.06 304.32 541.03 303.25C541 302.18 541.01 300.63 541.05 298.72C541.13 294.9 541.42 289.62 541.76 283.81C542.1 277.99 542.31 272.73 542.33 268.92C542.34 267.01 542.34 265.47 542.33 264.41C542.32 263.34 542.34 262.75 542.39 262.75C542.44 262.75 542.51 263.33 542.61 264.4C542.71 265.46 542.79 267.01 542.84 268.92C542.95 272.74 542.81 278.03 542.47 283.85C542.12 289.59 541.8 294.77 541.56 298.74C541.46 300.53 541.38 302.04 541.31 303.25C541.24 304.32 541.18 304.91 541.14 304.91Z" fill="#263238"/>
<path d="M590.83 303.76C590.82 303.81 590.12 303.78 588.87 303.68C587.61 303.59 585.8 303.45 583.55 303.34C579.05 303.1 572.83 302.98 565.96 303.15C559.09 303.33 552.88 303.76 548.39 304.2C546.15 304.4 544.33 304.62 543.08 304.76C541.83 304.91 541.13 304.96 541.12 304.92C541.11 304.87 541.8 304.72 543.04 304.49C544.28 304.27 546.09 303.98 548.33 303.71C552.81 303.14 559.04 302.63 565.93 302.45C572.82 302.28 579.06 302.48 583.56 302.85C585.81 303.02 587.63 303.24 588.88 303.41C590.15 303.59 590.84 303.71 590.83 303.76Z" fill="#263238"/>
<path d="M511.39 355.08C511.37 355.09 511.29 354.87 511.16 354.44C511.01 353.93 510.84 353.31 510.62 352.56C510.16 350.93 509.55 348.54 508.84 345.59C507.41 339.69 505.7 331.47 503.93 322.37C502.16 313.27 500.53 305.05 499.22 299.12C498.58 296.24 498.05 293.87 497.66 292.11C497.49 291.35 497.36 290.72 497.25 290.2C497.16 289.76 497.13 289.53 497.15 289.52C497.17 289.52 497.25 289.74 497.38 290.16C497.53 290.67 497.7 291.29 497.92 292.04C498.38 293.67 498.99 296.06 499.7 299.01C501.13 304.91 502.84 313.13 504.61 322.23C506.38 331.32 508.01 339.55 509.32 345.47C509.96 348.35 510.49 350.72 510.88 352.48C511.05 353.24 511.18 353.88 511.29 354.39C511.38 354.84 511.42 355.08 511.39 355.08Z" fill="#263238"/>
<path d="M578.85 344.87C578.85 344.89 578.62 344.95 578.17 345.03C577.64 345.12 576.99 345.22 576.21 345.35C574.4 345.63 571.96 346 568.98 346.46C562.88 347.4 554.47 348.78 545.18 350.33C535.88 351.88 527.45 353.19 521.33 354C518.27 354.41 515.79 354.71 514.07 354.88C513.28 354.96 512.62 355.02 512.09 355.07C511.64 355.11 511.4 355.11 511.39 355.09C511.39 355.07 511.62 355.01 512.07 354.93C512.6 354.84 513.25 354.74 514.03 354.61C515.84 354.33 518.28 353.96 521.25 353.5C527.35 352.57 535.76 351.18 545.06 349.63C554.35 348.08 562.78 346.77 568.91 345.96C571.97 345.55 574.45 345.25 576.17 345.08C576.96 345 577.62 344.94 578.15 344.89C578.61 344.85 578.84 344.85 578.85 344.87Z" fill="#263238"/>
<path d="M41.0999 290.2C46.5099 288.75 52.4199 290.12 57.1799 293.06C61.9399 296.01 65.6599 300.41 68.6299 305.16C74.3699 314.35 76.3399 326.66 76.5399 337.5C64.5199 336.94 54.2999 327.44 49.4199 322.29C41.6999 314.14 32.6999 294.75 41.0999 290.2Z" fill="#39B54A"/>
<path d="M95.8499 344.85C90.9299 340.99 88.7599 334.19 89.8299 328.02C90.8999 321.86 94.9099 316.42 100.09 312.91C102.49 311.29 105.45 310.01 108.22 310.84C110.81 311.62 112.6 314.15 113.11 316.81C113.62 319.47 113.04 322.22 112.14 324.77C109.05 333.52 104.46 341.42 95.8499 344.85Z" fill="#39B54A"/>
<path d="M106.77 379.14C106.7 379.18 106.27 378.49 105.57 377.2C104.87 375.92 103.9 374.04 102.77 371.68C100.54 366.98 97.54 360.29 96.11 352.34C94.69 344.38 95.73 336.88 97.73 331.99C98.71 329.53 99.8 327.67 100.67 326.49C101.54 325.3 102.11 324.72 102.17 324.76C102.38 324.9 100.24 327.41 98.54 332.29C96.8 337.12 95.93 344.38 97.31 352.14C98.7 359.9 101.53 366.56 103.56 371.34C105.62 376.11 106.93 379.06 106.77 379.14Z" fill="#263238"/>
<path d="M49.26 304.37C49.32 304.32 50.25 305.28 51.87 307.07C53.49 308.86 55.79 311.49 58.6 314.77C64.22 321.33 71.83 330.51 79.98 340.86C88.13 351.21 95.28 360.77 100.34 367.76C102.87 371.26 104.89 374.11 106.25 376.1C107.61 378.09 108.33 379.22 108.27 379.27C108.2 379.32 107.35 378.29 105.87 376.38C104.27 374.3 102.18 371.56 99.66 368.27C94.43 361.41 87.18 351.95 79.04 341.61C70.9 331.27 63.4 322.01 57.96 315.32C55.35 312.09 53.18 309.42 51.53 307.38C50 305.49 49.2 304.42 49.26 304.37Z" fill="#263238"/>
<path d="M87.7299 358.21C77.4299 349.97 63.0099 347.17 50.3799 350.97C47.1599 351.94 43.5999 353.9 43.2799 357.24C42.9599 360.59 46.0999 363.21 49.1099 364.7C61.6499 370.93 77.9299 368.55 88.1699 359.01" fill="#39B54A"/>
<path d="M58.3699 357.09C58.3499 357.01 59.0899 356.79 60.4599 356.46C61.1399 356.28 61.9799 356.1 62.9799 355.99C63.9699 355.87 65.0999 355.66 66.3599 355.65C68.8699 355.47 71.8899 355.59 75.1899 356.04C78.4799 356.56 82.0599 357.44 85.6599 358.83C89.2399 360.27 92.4499 362.08 95.2099 363.96C97.9299 365.9 100.21 367.87 101.92 369.72C102.83 370.59 103.51 371.51 104.15 372.28C104.8 373.04 105.29 373.75 105.67 374.34C106.44 375.51 106.83 376.18 106.77 376.23C106.58 376.37 104.86 373.78 101.32 370.33C99.5699 368.59 97.2799 366.73 94.5899 364.89C91.8599 363.11 88.7199 361.38 85.2299 359.97C81.7199 358.61 78.2399 357.72 75.0399 357.15C71.8199 356.66 68.8799 356.45 66.4099 356.52C61.4399 356.61 58.4099 357.32 58.3699 357.09Z" fill="#263238"/>
<path d="M222.86 32.38L214.47 39.39L210.39 37.57L209.55 34.11C209.55 34.11 218.56 27.46 218.22 27.11C217.4 26.25 216.26 25.85 215.12 25.69C212.97 25.38 210.79 26.03 209.04 27.32L207.45 28.5C204.51 30.68 202.99 34.33 203.62 37.94C203.65 38.14 203.68 38.25 203.68 38.25L178.81 58.91C174.95 57.62 170.67 59.46 168.98 63.25C167.18 67.29 169 72.02 173.04 73.82C177.08 75.62 181.81 73.8 183.61 69.76C184.34 68.13 184.46 66.39 184.1 64.77L208.69 44.12C209.64 45.03 210.94 45.36 212.23 45.41C214.72 45.5 217.12 44.45 218.9 42.71L220.98 40.68C224.57 37 222.86 32.38 222.86 32.38ZM174.82 69.85C172.97 69.03 172.14 66.86 172.96 65.01C173.78 63.16 175.95 62.33 177.8 63.15C179.65 63.97 180.48 66.14 179.66 67.99C178.84 69.85 176.68 70.68 174.82 69.85Z" fill="#8F7A61"/>
<path d="M260.52 80.08C259.49 80.17 250.64 80.91 233.73 82.32L233.83 82.27C229.04 87.96 221.89 93.83 212.31 97.25C207.54 98.93 202.22 100.02 196.58 100.12C190.95 100.16 185.03 99.39 179.22 97.37C173.42 95.38 167.75 92.2 162.78 87.88C157.81 83.57 153.53 78.11 150.5 71.83C147.46 65.56 145.69 58.47 145.53 51.18C145.45 50.27 145.5 49.36 145.56 48.44C145.61 47.52 145.65 46.61 145.7 45.69C145.7 44.77 145.93 43.86 146.04 42.95C146.18 42.04 146.32 41.12 146.46 40.2C146.65 39.29 146.91 38.4 147.13 37.49C147.38 36.59 147.56 35.67 147.87 34.79C148.19 33.91 148.51 33.03 148.84 32.14L149.33 30.81C149.49 30.37 149.73 29.96 149.92 29.53C152.93 22.88 157.36 17.02 162.66 12.37C167.96 7.72 174.14 4.29 180.59 2.27C187.04 0.229996 193.75 -0.370004 200.12 0.219996C206.5 0.809996 212.56 2.61 217.91 5.31C228.64 10.72 236.52 19.44 240.69 28.54C241.24 29.67 241.8 30.78 242.17 31.94C242.58 33.09 243.01 34.21 243.39 35.33C243.94 37.63 244.66 39.83 244.89 42.05C245.04 43.15 245.25 44.23 245.35 45.3C245.4 46.37 245.45 47.43 245.5 48.46C245.52 48.98 245.55 49.49 245.57 50C245.56 50.51 245.53 51.01 245.51 51.51C245.46 52.5 245.41 53.48 245.37 54.43L245.35 54.34C254.86 70.46 259.96 79.13 260.52 80.08C259.95 79.14 254.76 70.52 245.11 54.5L245.09 54.46V54.41C245.13 53.46 245.17 52.49 245.22 51.5C245.24 51.01 245.27 50.51 245.28 50C245.25 49.5 245.23 48.99 245.2 48.47C245.15 47.44 245.09 46.4 245.04 45.33C244.94 44.27 244.73 43.2 244.58 42.11C244.35 39.91 243.62 37.73 243.07 35.44C242.69 34.33 242.26 33.21 241.85 32.07C241.48 30.91 240.92 29.82 240.37 28.7C236.2 19.68 228.37 11.05 217.73 5.71C212.42 3.05 206.42 1.27 200.1 0.699996C193.79 0.119996 187.15 0.719996 180.77 2.74C174.39 4.75 168.27 8.14 163.03 12.75C157.78 17.35 153.41 23.15 150.42 29.73C150.23 30.16 149.99 30.56 149.83 31L149.35 32.31C149.03 33.18 148.71 34.06 148.39 34.93C148.08 35.8 147.91 36.72 147.66 37.61C147.44 38.51 147.18 39.39 146.99 40.29C146.85 41.2 146.71 42.11 146.57 43.01C146.46 43.92 146.23 44.81 146.23 45.73C146.18 46.64 146.14 47.55 146.09 48.45C146.04 49.36 145.98 50.26 146.06 51.16C146.22 58.38 147.96 65.4 150.97 71.6C153.97 77.82 158.19 83.22 163.11 87.5C168.03 91.79 173.63 94.94 179.38 96.92C185.13 98.92 191 99.7 196.58 99.68C202.17 99.6 207.45 98.53 212.19 96.88C221.7 93.51 228.83 87.71 233.62 82.08L233.66 82.03H233.72C250.63 80.8 259.49 80.15 260.52 80.08Z" fill="#263238"/>
<path d="M493.69 390.53H114.8C106.75 390.53 100.23 384.01 100.23 375.96V135.27C100.23 127.22 106.75 120.7 114.8 120.7H493.69C501.74 120.7 508.26 127.22 508.26 135.27V375.96C508.26 384.01 501.74 390.53 493.69 390.53Z" fill="#232323"/>
<path d="M508.01 394.18H101.53C91.7 394.18 83.73 386.21 83.73 376.38V370.57H525.8V376.38C525.8 386.21 517.84 394.18 508.01 394.18Z" fill="#232323"/>
<path d="M496.73 131.43H111.75V359.29H496.73V131.43Z" fill="#F8F4EE"/>
<path d="M264.59 370.57C264.58 370.57 264.73 370.56 265.01 370.56C265.32 370.56 265.75 370.55 266.3 370.55C267.47 370.54 269.16 370.53 271.33 370.52C275.75 370.5 282.11 370.48 289.98 370.44C305.86 370.41 327.83 370.36 352.35 370.31H352.81L352.58 370.71C351.8 372.05 350.95 373.5 350.1 374.95C349.21 376.47 348.33 377.99 347.48 379.43L347.4 379.56H347.25C313.33 379.5 284.36 379.44 270.06 379.42H269.99L269.96 379.36C268.2 376.5 266.85 374.3 265.92 372.79C265.48 372.07 265.14 371.52 264.9 371.12C264.69 370.75 264.59 370.57 264.59 370.57C264.59 370.57 264.73 370.77 264.97 371.15C265.23 371.54 265.58 372.1 266.05 372.82C267 374.29 268.38 376.44 270.17 379.24L270.07 379.18C284.37 379.15 313.34 379.1 347.26 379.04L347.03 379.17C347.88 377.72 348.76 376.21 349.65 374.69C350.5 373.24 351.34 371.79 352.13 370.45L352.36 370.85C327.94 370.8 306.06 370.75 290.25 370.72C282.34 370.69 275.95 370.66 271.51 370.64C269.31 370.63 267.6 370.62 266.4 370.61C265.83 370.6 265.39 370.6 265.06 370.6C264.76 370.58 264.59 370.57 264.59 370.57Z" fill="#8F7A61"/>
<path opacity="0.2" fill-rule="evenodd" clip-rule="evenodd" d="M252.63 173.81C253.34 172.86 254.16 172.02 255.08 171.31L254.5 168.12L259.43 166.02L261.33 168.65C262.48 168.48 263.65 168.47 264.83 168.61L266.67 165.94L271.65 167.94L271.14 171.14C272.09 171.85 272.93 172.67 273.64 173.59L276.83 173.01L278.93 177.94L276.3 179.84C276.47 180.99 276.48 182.16 276.34 183.34L279.01 185.18L277.01 190.16L273.81 189.65C273.1 190.6 272.28 191.44 271.36 192.15L271.94 195.34L267.01 197.44L265.11 194.81C263.97 194.98 262.79 194.99 261.61 194.85L259.77 197.52L254.79 195.52L255.3 192.32C254.35 191.61 253.51 190.79 252.8 189.87L249.61 190.45L247.51 185.52L250.14 183.62C249.97 182.48 249.96 181.3 250.1 180.12L247.44 178.28L249.44 173.3L252.63 173.81ZM257.96 179.36C256.78 182.31 258.2 185.66 261.15 186.84C264.1 188.02 267.45 186.59 268.63 183.65C269.81 180.7 268.38 177.35 265.44 176.17C262.5 174.98 259.15 176.41 257.96 179.36Z" fill="#8F7A61"/>
<path fill-rule="evenodd" clip-rule="evenodd" d="M232.64 277.23C234.69 274.48 237.08 272.06 239.73 269.99L238.04 260.75L252.33 254.65L257.83 262.26C261.15 261.78 264.55 261.73 267.96 262.15L273.3 254.43L287.72 260.22L286.23 269.49C288.98 271.54 291.4 273.94 293.47 276.58L302.71 274.89L308.81 289.18L301.2 294.68C301.68 298 301.73 301.4 301.31 304.81L309.03 310.15L303.24 324.57L293.97 323.08C291.92 325.83 289.52 328.25 286.88 330.32L288.57 339.56L274.28 345.66L268.78 338.05C265.46 338.53 262.06 338.58 258.65 338.16L253.31 345.88L238.89 340.09L240.38 330.82C237.63 328.77 235.21 326.38 233.14 323.73L223.9 325.42L217.8 311.13L225.41 305.63C224.93 302.31 224.88 298.91 225.3 295.5L217.58 290.16L223.37 275.74L232.64 277.23ZM248.1 293.29C244.67 301.83 248.81 311.54 257.35 314.97C265.89 318.4 275.6 314.26 279.03 305.72C282.46 297.18 278.32 287.47 269.78 284.04C261.24 280.6 251.53 284.75 248.1 293.29Z" fill="#F5F5F5"/>
<path d="M168.98 305.36C168.98 305.36 169.17 304.55 170 303.32C170.82 302.12 172.44 300.49 175.04 299.74C176.32 299.38 177.82 299.23 179.37 299.55C180.91 299.87 182.52 300.55 183.83 301.76C184.5 302.34 185.09 303.05 185.58 303.84C186.08 304.63 186.46 305.51 186.7 306.45C187.21 308.32 187.08 310.42 186.33 312.34C185.55 314.24 184.19 315.85 182.52 316.85C181.7 317.37 180.81 317.74 179.91 317.96C179.01 318.2 178.09 318.3 177.2 318.25C175.41 318.21 173.78 317.59 172.45 316.75C171.11 315.9 170.13 314.76 169.45 313.61C168.09 311.27 168.05 308.97 168.29 307.54C168.56 306.08 168.98 305.36 168.98 305.36C169.04 305.38 168.69 306.13 168.51 307.57C168.33 308.98 168.44 311.2 169.79 313.42C170.46 314.51 171.42 315.59 172.7 316.38C173.98 317.16 175.54 317.73 177.23 317.76C178.07 317.8 178.94 317.69 179.79 317.47C180.64 317.25 181.48 316.9 182.26 316.41C183.83 315.46 185.11 313.94 185.85 312.14C186.56 310.33 186.69 308.35 186.21 306.58C185.99 305.69 185.63 304.85 185.17 304.1C184.71 303.35 184.16 302.67 183.52 302.12C182.28 300.97 180.76 300.3 179.29 299.98C177.82 299.66 176.38 299.78 175.14 300.1C172.64 300.77 171.02 302.3 170.17 303.44C169.3 304.61 169.04 305.39 168.98 305.36Z" fill="#8F7A61"/>
<path d="M160.43 296.48C160.43 296.49 160.32 296.48 160.11 296.45C159.87 296.42 159.55 296.37 159.14 296.31C158.25 296.18 156.96 295.99 155.3 295.74L155.39 295.69C154.58 297.74 153.52 300.43 152.23 303.68L152.18 303.52C153.48 304.41 154.92 305.4 156.46 306.46L156.54 306.51L156.53 306.6C156.32 308.33 156.32 310.21 156.61 312.16L156.63 312.26L156.54 312.32C155.23 313.27 153.81 314.3 152.34 315.38L152.4 315.15C153.47 317.64 154.6 320.28 155.79 323.05L155.56 322.93C157.14 322.64 158.88 322.32 160.67 321.99L160.8 321.97L160.88 322.07C161.94 323.43 163.29 324.79 164.85 325.94L164.96 326.02L164.94 326.16C164.69 327.75 164.41 329.5 164.12 331.29L163.98 331.03C166.49 332.03 169.19 333.12 171.96 334.23L171.67 334.32C172.59 332.99 173.6 331.53 174.62 330.04L174.71 329.91L174.86 329.93C176.58 330.14 178.5 330.14 180.4 329.86L180.55 329.84L180.64 329.97C181.59 331.29 182.64 332.73 183.69 334.18L183.38 334.09C185.88 333.02 188.57 331.87 191.28 330.71L191.12 331C190.82 329.39 190.51 327.64 190.19 325.89L190.16 325.73L190.29 325.63C191.68 324.55 193.02 323.2 194.16 321.68L194.26 321.55L194.42 321.58C196.14 321.86 197.85 322.13 199.55 322.4L199.26 322.56C200.34 319.87 201.41 317.21 202.47 314.58L202.56 314.89C201.12 313.9 199.7 312.91 198.29 311.93L198.16 311.84L198.18 311.68C198.41 309.82 198.38 307.95 198.12 306.15L198.1 306L198.23 305.91C199.65 304.88 201.06 303.87 202.44 302.87L202.36 303.17C201.21 300.47 200.09 297.83 198.99 295.26L199.26 295.4C197.53 295.71 195.82 296.02 194.15 296.33L194.01 296.36L193.92 296.25C192.76 294.76 191.42 293.45 189.97 292.37L189.86 292.29L189.88 292.15C190.17 290.39 190.44 288.69 190.71 287.02L190.85 287.26C188.05 286.13 185.4 285.06 182.88 284.04L183.12 283.97C182.08 285.47 181.1 286.88 180.16 288.23L180.09 288.32L179.98 288.31C178.01 288.06 176.16 288.11 174.42 288.36L174.32 288.37L174.26 288.28C173.16 286.75 172.17 285.37 171.23 284.06L171.42 284.11C168.35 285.4 165.74 286.51 163.5 287.45L163.57 287.32C163.93 289.36 164.22 291.04 164.47 292.44L164.48 292.49L164.44 292.52C162.95 293.67 161.98 294.71 161.37 295.4C161.08 295.74 160.86 296 160.7 296.2C160.5 296.4 160.43 296.48 160.43 296.48C160.43 296.47 160.49 296.37 160.62 296.19C160.76 296 160.96 295.72 161.26 295.37C161.86 294.66 162.8 293.6 164.29 292.41L164.26 292.49C164 291.1 163.68 289.42 163.29 287.38L163.27 287.29L163.36 287.25C165.59 286.29 168.19 285.16 171.25 283.84L171.36 283.79L171.43 283.89C172.38 285.19 173.38 286.56 174.49 288.09L174.32 288.02C176.08 287.76 177.97 287.7 179.97 287.94L179.79 288.02C180.73 286.66 181.7 285.25 182.73 283.74L182.82 283.61L182.97 283.67C185.49 284.68 188.14 285.74 190.95 286.86L191.11 286.93L191.08 287.1C190.82 288.77 190.54 290.47 190.26 292.23L190.17 292.01C191.66 293.12 193.03 294.44 194.22 295.97L193.99 295.88C195.66 295.57 197.37 295.26 199.1 294.94L199.29 294.9L199.37 295.08C200.47 297.65 201.6 300.28 202.75 302.98L202.83 303.16L202.67 303.28C201.29 304.28 199.89 305.3 198.46 306.33L198.56 306.09C198.83 307.94 198.86 309.86 198.63 311.76L198.52 311.52C199.93 312.49 201.35 313.48 202.79 314.47L202.96 314.59L202.88 314.78C201.83 317.4 200.76 320.06 199.68 322.76L199.6 322.96L199.39 322.93C197.7 322.66 195.98 322.38 194.26 322.11L194.51 322.01C193.35 323.57 191.97 324.95 190.54 326.06L190.64 325.8C190.96 327.55 191.28 329.3 191.57 330.91L191.61 331.12L191.42 331.2C188.7 332.36 186.02 333.5 183.51 334.57L183.32 334.65L183.2 334.48C182.15 333.03 181.11 331.59 180.16 330.27L180.4 330.37C178.45 330.65 176.49 330.65 174.73 330.43L174.97 330.32C173.95 331.8 172.93 333.26 172.01 334.59L171.9 334.75L171.72 334.68C168.95 333.56 166.25 332.48 163.75 331.47L163.57 331.4L163.6 331.21C163.89 329.43 164.17 327.67 164.43 326.08L164.52 326.3C162.93 325.11 161.56 323.72 160.48 322.33L160.69 322.41C158.9 322.73 157.16 323.05 155.58 323.33L155.42 323.36L155.36 323.21C154.18 320.43 153.06 317.79 152 315.3L151.94 315.16L152.06 315.07C153.54 314.01 154.96 312.98 156.28 312.04L156.21 312.21C155.93 310.23 155.94 308.32 156.17 306.56L156.24 306.71C154.71 305.64 153.27 304.64 151.98 303.74L151.89 303.68L151.93 303.58C153.25 300.34 154.35 297.66 155.18 295.62L155.21 295.56L155.28 295.57C156.93 295.85 158.2 296.07 159.08 296.22C159.5 296.3 159.82 296.35 160.06 296.4C160.31 296.45 160.42 296.47 160.43 296.48Z" fill="#8F7A61"/>
<path opacity="0.2" fill-rule="evenodd" clip-rule="evenodd" d="M140.9 190.95C142.53 186.51 144.74 182.36 147.42 178.6L141.56 167.05L158.05 153.37L168.32 161.26C172.52 159.32 177 157.92 181.66 157.13L185.68 144.83L207.01 146.82L208.69 159.65C213.13 161.28 217.28 163.49 221.04 166.17L232.59 160.31L246.27 176.8L238.38 187.07C240.32 191.27 241.72 195.74 242.51 200.41L254.82 204.43L252.83 225.76L240 227.44C238.37 231.88 236.16 236.03 233.48 239.79L239.34 251.34L222.85 265.02L212.58 257.13C208.38 259.07 203.9 260.47 199.24 261.26L195.22 273.57L173.89 271.58L172.21 258.75C167.77 257.12 163.62 254.91 159.86 252.23L148.31 258.09L134.63 241.6L142.52 231.33C140.58 227.13 139.18 222.65 138.39 217.99L126.08 213.97L128.07 192.64L140.9 190.95ZM167.64 206.09C166.46 218.73 175.75 229.93 188.39 231.11C201.03 232.29 212.23 223 213.41 210.36C214.59 197.72 205.3 186.52 192.66 185.34C180.02 184.17 168.82 193.46 167.64 206.09Z" fill="#8F7A61"/>
<path d="M508.26 370.57C508.26 370.71 416.91 370.82 304.26 370.82C191.56 370.82 100.24 370.71 100.24 370.57C100.24 370.43 191.57 370.32 304.26 370.32C416.91 370.33 508.26 370.44 508.26 370.57Z" fill="#8F7A61"/>
<path d="M288.8 64C282.51 66.76 278.85 73.54 277.47 80.28C276.1 87.01 276.55 93.97 275.95 100.82C275.35 107.67 273.48 114.82 268.48 119.54C263.82 123.94 256.97 125.73 253 130.75C250.06 134.48 249.19 139.75 250.79 144.23C252.39 148.71 256.4 152.24 261.04 153.26C257.9 158.23 259.47 165.17 263.49 169.46C267.5 173.75 273.4 175.8 279.21 176.68C289.43 178.24 300.33 176.52 308.96 170.83C317.59 165.14 323.63 155.26 323.61 144.93" fill="#263238"/>
<path d="M261.55 165.58C261.55 165.58 260.98 164.87 260.44 163.35C259.9 161.84 259.52 159.45 260.04 156.6C260.3 155.18 260.77 153.66 261.48 152.12C262.22 150.59 263.19 149.05 264.37 147.56C266.71 144.55 269.86 141.78 273.02 138.81C276.18 135.82 279.08 132.85 281.43 129.91C283.81 127 285.6 124.09 286.81 121.53C288.02 118.96 288.67 116.74 288.99 115.18C289.18 114.41 289.23 113.79 289.32 113.38C289.39 112.97 289.44 112.75 289.46 112.75C289.48 112.75 289.46 112.97 289.42 113.39C289.36 113.81 289.34 114.43 289.18 115.22C288.91 116.8 288.31 119.06 287.12 121.68C285.93 124.29 284.16 127.25 281.78 130.2C279.43 133.18 276.52 136.18 273.35 139.18C270.17 142.17 267.04 144.91 264.72 147.86C263.55 149.32 262.58 150.83 261.84 152.32C261.12 153.82 260.65 155.3 260.37 156.69C259.82 159.47 260.14 161.81 260.61 163.32C261.1 164.81 261.6 165.56 261.55 165.58Z" fill="#455A64"/>
<path d="M364.01 86.59C364.01 95.83 368.27 104.3 372.11 107.42C377.53 111.83 385.49 113.96 390.74 115.42C398.38 117.56 404.78 124.24 405.74 132.12C406.69 139.99 401.54 148.41 393.86 150.39C398.69 155.32 397.25 163.8 393.28 169.44C385.75 180.13 370.72 184.24 358.25 180.29C345.78 176.34 336.23 165.29 332.51 152.75" fill="#263238"/>
<path d="M383.02 177.61C382.99 177.53 384.24 177.53 385.96 176.32C386.8 175.72 387.71 174.79 388.42 173.5C389.15 172.23 389.68 170.59 389.74 168.74C389.79 166.9 389.24 164.88 388.19 162.98C387.14 161.07 385.59 159.28 383.7 157.71C379.91 154.52 374.77 152.53 369.79 149.66C367.31 148.2 365.01 146.52 363.18 144.47C362.27 143.45 361.48 142.35 360.87 141.18C360.26 140.01 359.84 138.77 359.58 137.54C359.05 135.07 359.1 132.67 359.26 130.47C359.43 128.26 359.71 126.22 359.9 124.36C360.31 120.64 360.26 117.59 359.76 115.56C359.62 115.06 359.5 114.62 359.4 114.22C359.29 113.84 359.13 113.53 359.04 113.27C358.84 112.76 358.74 112.48 358.75 112.48C358.77 112.47 358.89 112.73 359.13 113.23C359.24 113.48 359.41 113.79 359.54 114.17C359.66 114.57 359.8 115.01 359.95 115.51C360.52 117.56 360.62 120.65 360.25 124.39C360.08 126.26 359.82 128.3 359.67 130.49C359.53 132.68 359.5 135.04 360.03 137.44C360.54 139.83 361.73 142.18 363.55 144.14C365.33 146.13 367.6 147.79 370.05 149.22C374.97 152.06 380.16 154.07 384.01 157.34C385.93 158.95 387.51 160.79 388.57 162.76C389.63 164.73 390.17 166.81 390.1 168.73C390.02 170.64 389.44 172.32 388.67 173.61C387.91 174.92 386.96 175.85 386.08 176.45C385.21 177.07 384.39 177.29 383.87 177.46C383.31 177.59 383.02 177.63 383.02 177.61Z" fill="#455A64"/>
<path d="M401.02 146.78C400.93 146.75 401.82 146.02 401.95 144.21C401.99 143.33 401.82 142.22 401.24 141.09C400.67 139.97 399.75 138.79 398.41 137.96C397.05 137.13 395.35 136.61 393.5 136.3C391.64 135.98 389.61 135.86 387.48 135.53C383.22 134.87 378.68 133.19 374.55 130.41C370.43 127.62 367.17 124.02 364.99 120.3C362.79 116.58 361.64 112.81 361.07 109.62C360.5 106.41 360.53 103.76 360.66 101.95C360.73 101.04 360.81 100.35 360.9 99.88C360.97 99.41 361.02 99.16 361.04 99.17C361.1 99.18 360.93 100.17 360.85 101.97C360.78 103.77 360.8 106.4 361.41 109.56C362.02 112.71 363.2 116.42 365.38 120.07C367.54 123.72 370.76 127.25 374.82 130C378.89 132.73 383.36 134.4 387.55 135.08C389.65 135.42 391.68 135.55 393.57 135.9C395.45 136.23 397.2 136.78 398.6 137.67C400.01 138.56 400.93 139.8 401.5 140.98C402.08 142.16 402.23 143.32 402.16 144.23C402.08 145.15 401.75 145.81 401.5 146.22C401.37 146.42 401.24 146.55 401.16 146.65C401.07 146.74 401.03 146.78 401.02 146.78Z" fill="#455A64"/>
<path d="M293.29 194.92C294.61 181.11 295.74 166.55 295.74 166.55C295.74 166.55 278.25 161.85 276.85 138.28C275.51 115.81 284.19 65.06 284.19 65.06C310.81 57.14 340.45 67.07 356.69 89.36L344.15 201.34C342.69 214.34 330.36 223.44 316.45 221.78C302.39 220.1 292.03 208.08 293.29 194.92Z" fill="#D4BF9E"/>
<path d="M286.84 105.63C286.63 107.2 287.78 108.67 289.41 108.91C291.04 109.16 292.53 108.1 292.74 106.53C292.95 104.96 291.8 103.49 290.17 103.24C288.54 103 287.05 104.06 286.84 105.63Z" fill="#263238"/>
<path d="M282.34 101.82C282.67 102.24 285.09 100.8 288.29 101.12C291.49 101.4 293.68 103.28 294.07 102.92C294.26 102.76 293.95 102.03 293 101.18C292.07 100.34 290.42 99.45 288.42 99.26C286.42 99.07 284.67 99.64 283.64 100.3C282.58 100.96 282.17 101.63 282.34 101.82Z" fill="#263238"/>
<path d="M319.56 109.42C319.35 110.99 320.5 112.46 322.13 112.7C323.76 112.95 325.25 111.88 325.46 110.32C325.67 108.75 324.52 107.28 322.89 107.03C321.26 106.79 319.77 107.85 319.56 109.42Z" fill="#263238"/>
<path d="M315.64 106.27C315.97 106.69 318.39 105.25 321.59 105.57C324.79 105.85 326.98 107.73 327.37 107.37C327.56 107.21 327.25 106.48 326.3 105.63C325.37 104.79 323.72 103.9 321.72 103.71C319.72 103.52 317.97 104.09 316.94 104.75C315.88 105.41 315.47 106.08 315.64 106.27Z" fill="#263238"/>
<path d="M301.68 128.88C301.71 128.7 299.76 128.16 296.57 127.43C295.76 127.26 295 127.03 294.92 126.45C294.79 125.84 295.21 124.99 295.7 124.08C296.66 122.18 297.67 120.18 298.73 118.09C302.96 109.56 306.11 102.51 305.76 102.34C305.41 102.17 301.71 108.95 297.47 117.49C296.45 119.6 295.47 121.6 294.54 123.53C294.14 124.43 293.5 125.43 293.8 126.7C293.96 127.33 294.52 127.84 295.03 128.03C295.54 128.24 296 128.3 296.4 128.36C299.64 128.85 301.65 129.06 301.68 128.88Z" fill="#263238"/>
<path d="M295.74 166.55C295.74 166.55 311.25 169.09 327.63 161.32C327.63 161.32 318.52 176.52 295.51 172.06L295.74 166.55Z" fill="#C9B28E"/>
<path d="M302.27 136.73C303.57 135.32 305.67 134.68 307.65 135.1C309.03 135.39 310.36 136.19 311.1 137.41C311.83 138.62 311.85 140.25 310.98 141.25C310 142.38 308.16 142.48 306.68 141.9C305.19 141.32 303.98 140.18 302.83 139.05C302.51 138.74 302.19 138.41 302.01 138.01C301.83 137.61 301.83 137.11 302.13 136.82" fill="#C9B28E"/>
<path d="M310.88 132.02C310.36 131.94 310.01 135.41 306.8 137.59C303.59 139.77 299.92 139.02 299.84 139.5C299.77 139.71 300.6 140.26 302.16 140.45C303.69 140.65 305.98 140.38 307.95 139.05C309.91 137.72 310.89 135.77 311.15 134.36C311.43 132.92 311.12 132.02 310.88 132.02Z" fill="#263238"/>
<path d="M345.64 114.12C348.17 113.88 350.78 114.21 353.06 115.33C355.34 116.45 357.25 118.42 358.04 120.83C358.84 123.25 358.47 125.95 357.37 128.25C356.28 130.55 354.51 132.47 352.53 134.07C351.11 135.22 349.52 136.24 347.73 136.62C345.94 136.99 343.91 136.62 342.64 135.31" fill="#D4BF9E"/>
<path d="M345.53 129.3C345.24 129.36 346.17 130.97 348.5 130.58C349.62 130.4 350.78 129.54 351.54 128.41C352.31 127.25 352.86 125.96 353.18 124.41C353.49 122.88 353.3 121.2 352.56 119.94C351.86 118.67 350.6 117.83 349.49 117.69C347.16 117.41 346.28 118.95 346.54 119.03C346.71 119.24 347.7 118.49 349.19 119.01C350.63 119.42 351.87 121.58 351.3 124.06C350.77 126.59 349.56 128.83 348.14 129.28C346.66 129.86 345.71 129.11 345.53 129.3Z" fill="#AA6550"/>
<path d="M295.4 74.99C291.98 82.94 284.66 89.09 276.25 91.12C275.75 85.39 275.42 79.59 276.36 73.92C277.3 68.25 279.61 62.65 283.74 58.66C287.88 54.67 294.01 52.52 299.57 54" fill="#263238"/>
<path d="M297 64.47C294.11 71.73 295.3 80.46 300.02 86.69C304.74 92.92 312.82 96.42 320.59 95.6C322.11 95.44 323.71 95.14 325.13 95.69C326.66 96.28 327.66 97.71 328.57 99.07C332.27 104.6 336.18 110.34 342 113.54C347.83 116.74 356.17 116.43 360.07 111.04C361.97 108.42 362.52 105.09 362.96 101.88C364.44 91.11 365.04 79.54 359.91 69.96C356.1 62.84 349.4 57.54 341.98 54.33C334.57 51.12 326.45 49.84 318.39 49.35C313.7 49.06 308.85 49.06 304.51 50.83C300.16 52.61 296.41 56.55 296.16 61.24" fill="#263238"/>
<path d="M361.94 104.92C361.92 104.92 361.83 104.65 361.66 104.13C361.5 103.6 361.23 102.84 360.88 101.86C360.15 99.9099 358.93 97.1399 356.93 93.9999C354.92 90.8799 352.08 87.4099 348.26 84.3199C344.45 81.1999 339.61 78.6999 334.37 76.4999C329.12 74.2999 324 72.4899 319.51 70.3899C315.02 68.3099 311.19 65.9499 308.3 63.5499C305.42 61.1399 303.48 58.7599 302.36 56.9899C301.8 56.0999 301.4 55.3999 301.17 54.8899C300.92 54.3999 300.8 54.1299 300.82 54.1299C300.84 54.1199 300.99 54.3699 301.26 54.8499C301.52 55.3399 301.95 56.0199 302.52 56.8899C303.68 58.6099 305.64 60.9299 308.53 63.2799C311.42 65.6199 315.23 67.9299 319.71 69.9799C324.18 72.0499 329.31 73.8399 334.57 76.0499C339.82 78.2499 344.72 80.7999 348.55 83.9699C352.4 87.1099 355.24 90.6399 357.23 93.8099C359.21 96.9999 360.39 99.8199 361.06 101.79C361.39 102.78 361.63 103.56 361.76 104.1C361.89 104.64 361.96 104.92 361.94 104.92Z" fill="#455A64"/>
<path d="M354.73 103.65C354.71 103.66 354.58 103.43 354.34 102.99C354.09 102.56 353.71 101.92 353.15 101.15C352.05 99.61 350.17 97.55 347.39 95.59C344.63 93.6 340.98 91.81 336.83 90.05C334.76 89.16 332.57 88.24 330.35 87.18C328.13 86.12 325.87 84.93 323.63 83.59C319.14 80.91 315.17 77.84 311.98 74.61C308.78 71.39 306.38 68.04 304.71 65.05C303.02 62.06 302.07 59.44 301.51 57.61C301.25 56.69 301.06 55.97 300.96 55.48C300.85 54.99 300.81 54.73 300.82 54.72C300.84 54.72 300.92 54.97 301.05 55.45C301.18 55.94 301.4 56.64 301.68 57.55C302.29 59.35 303.29 61.93 305 64.87C306.7 67.81 309.11 71.1 312.29 74.28C315.47 77.46 319.41 80.5 323.87 83.16C326.1 84.49 328.34 85.67 330.55 86.74C332.76 87.8 334.94 88.72 337.01 89.63C341.15 91.42 344.83 93.26 347.59 95.31C350.37 97.33 352.24 99.45 353.3 101.04C353.84 101.83 354.2 102.49 354.42 102.94C354.64 103.4 354.74 103.64 354.73 103.65Z" fill="#455A64"/>
<path d="M276.33 100.33C276.31 100.34 276.24 100.15 276.1 99.8C275.97 99.44 275.77 98.92 275.55 98.23C275.18 96.84 274.66 94.79 274.55 92.19C274.44 89.61 274.64 86.48 275.58 83.17C276.52 79.88 278.07 76.35 280.54 73.24C281.73 71.65 283.15 70.31 284.56 69.09C286.01 67.91 287.5 66.9 288.92 65.97C291.78 64.11 294.33 62.41 296.14 60.6C297.98 58.82 299.1 57.04 299.67 55.73C300.25 54.42 300.38 53.63 300.43 53.64C300.45 53.64 300.42 53.84 300.34 54.21C300.26 54.58 300.11 55.13 299.84 55.8C299.31 57.15 298.22 59 296.37 60.84C294.56 62.71 291.99 64.47 289.16 66.34C287.75 67.29 286.27 68.29 284.85 69.46C283.47 70.66 282.08 71.98 280.91 73.54C278.48 76.59 276.94 80.05 275.99 83.29C275.04 86.54 274.81 89.62 274.87 92.17C274.94 94.74 275.4 96.77 275.71 98.17C275.9 98.82 276.05 99.35 276.17 99.76C276.3 100.13 276.35 100.32 276.33 100.33Z" fill="#455A64"/>
<path d="M333.64 146.6C328.22 146.6 322.79 144.75 318.78 141.15L319.42 140.44C326.37 146.69 337.83 147.42 345.52 142.09C353.2 136.76 356.54 125.77 353.12 117.07L354 116.72C357.58 125.81 354.09 137.3 346.06 142.87C342.45 145.38 338.05 146.6 333.64 146.6Z" fill="#8F7A61"/>
<path d="M325.91 142.53C325.91 145.07 323.85 147.14 321.3 147.14C318.76 147.14 316.69 145.08 316.69 142.53C316.69 139.98 318.75 137.92 321.3 137.92C323.84 137.92 325.91 139.99 325.91 142.53Z" fill="#8F7A61"/>
<path d="M371.991 120.97C373.028 112.511 367.011 104.813 358.553 103.776C350.094 102.739 342.396 108.756 341.359 117.214C340.322 125.673 346.338 133.371 354.797 134.408C363.256 135.445 370.953 129.429 371.991 120.97Z" fill="#8F7A61"/>
<path d="M354.18 116.96C354.08 116.95 354.12 115.55 354.27 113.05C354.32 111.78 354.38 110.25 354.45 108.48C354.47 106.7 354.53 104.67 354.46 102.43C354.46 101.31 354.38 100.14 354.32 98.92C354.28 97.7 354.14 96.44 354.01 95.13C353.91 93.82 353.66 92.49 353.49 91.1C353.36 90.41 353.23 89.72 353.1 89.02C352.98 88.31 352.83 87.6 352.64 86.89C351.33 81.18 348.87 75.06 344.56 69.88C340.26 64.69 334.63 61.21 329.18 59.1C323.71 56.96 318.45 55.93 314.03 55.29C309.6 54.67 305.97 54.48 303.46 54.31C300.95 54.2 299.56 54.09 299.56 53.99C299.56 53.89 300.95 53.8 303.47 53.73C305.99 53.73 309.65 53.76 314.15 54.25C318.64 54.76 324.01 55.69 329.66 57.82C335.29 59.92 341.19 63.5 345.69 68.93C350.19 74.34 352.7 80.73 353.96 86.59C354.14 87.32 354.29 88.05 354.4 88.77C354.52 89.49 354.65 90.2 354.76 90.91C354.91 92.32 355.14 93.69 355.22 95.02C355.32 96.35 355.43 97.63 355.44 98.87C355.48 100.11 355.52 101.29 355.49 102.42C355.49 104.68 355.36 106.72 355.26 108.51C355.11 110.3 354.97 111.84 354.83 113.09C354.52 115.6 354.28 116.97 354.18 116.96Z" fill="#8F7A61"/>
<g opacity="0.4">
<path opacity="0.4" d="M367.72 119.11C367.72 124.98 362.96 129.73 357.1 129.73C351.23 129.73 346.48 124.98 346.48 119.11C346.48 113.24 351.24 108.49 357.1 108.49C362.97 108.49 367.72 113.24 367.72 119.11Z" fill="black"/>
</g>
<path d="M353.61 109.2C353.6 109.18 353.77 109.1 354.08 108.95C354.4 108.81 354.89 108.64 355.55 108.51C356.84 108.28 358.92 108.27 361.06 109.45C362.12 110.03 363.16 110.93 363.89 112.16C364.64 113.38 365.04 114.91 365.03 116.52C365.02 118.12 364.52 119.83 363.46 121.24C362.4 122.65 360.78 123.68 358.97 124.11C357.17 124.55 355.25 124.39 353.66 123.63C352.06 122.87 350.86 121.56 350.12 120.14C349.38 118.71 349.1 117.15 349.21 115.73C349.34 114.3 349.88 113.05 350.52 112.03C351.82 109.98 353.62 108.92 354.92 108.6C355.57 108.42 356.1 108.41 356.45 108.43C356.8 108.46 356.98 108.49 356.98 108.51C356.98 108.58 356.23 108.4 354.97 108.79C353.73 109.15 352.04 110.22 350.82 112.22C350.22 113.21 349.73 114.42 349.62 115.77C349.53 117.12 349.81 118.59 350.52 119.94C351.23 121.28 352.37 122.5 353.86 123.2C355.35 123.9 357.14 124.06 358.85 123.64C360.55 123.23 362.08 122.27 363.07 120.95C364.07 119.64 364.54 118.03 364.57 116.52C364.6 115 364.23 113.54 363.54 112.38C362.87 111.21 361.89 110.33 360.89 109.76C358.87 108.58 356.86 108.54 355.58 108.7C354.29 108.9 353.63 109.26 353.61 109.2Z" fill="#263238"/>
<path d="M357.01 129.57C356.88 129.59 356.58 128.48 356.53 127.06C356.47 125.65 356.67 124.51 356.81 124.52C356.95 124.53 356.97 125.66 357.03 127.04C357.07 128.42 357.15 129.55 357.01 129.57Z" fill="#263238"/>
<path d="M362.87 127.51C362.74 127.56 362.25 126.6 361.77 125.36C361.29 124.12 361 123.08 361.13 123.03C361.26 122.98 361.75 123.94 362.23 125.18C362.71 126.42 363 127.46 362.87 127.51Z" fill="#263238"/>
<path d="M366.82 122.89C366.73 122.99 366 122.48 365.19 121.75C364.38 121.02 363.81 120.34 363.9 120.24C363.99 120.14 364.72 120.65 365.53 121.38C366.33 122.11 366.91 122.79 366.82 122.89Z" fill="#263238"/>
<path d="M367.1 116.44C367.05 116.57 366.53 116.5 365.92 116.28C365.32 116.06 364.86 115.78 364.91 115.65C364.96 115.52 365.48 115.59 366.09 115.81C366.69 116.03 367.14 116.31 367.1 116.44Z" fill="#263238"/>
<path d="M350.07 127.19C349.94 127.15 350.22 126.02 350.87 124.75C351.52 123.48 352.27 122.6 352.38 122.68C352.5 122.76 351.94 123.74 351.31 124.98C350.68 126.21 350.21 127.24 350.07 127.19Z" fill="#263238"/>
<path d="M346.91 121.78C346.81 121.68 347.42 120.93 348.26 120.11C349.1 119.28 349.86 118.7 349.96 118.79C350.06 118.89 349.45 119.64 348.61 120.46C347.76 121.29 347 121.88 346.91 121.78Z" fill="#263238"/>
<path d="M349.38 114.42C349.42 114.55 348.98 114.78 348.42 114.93C347.85 115.08 347.37 115.1 347.33 114.96C347.29 114.83 347.73 114.6 348.29 114.45C348.86 114.3 349.35 114.29 349.38 114.42Z" fill="#263238"/>
<path d="M430.09 198.84C429.09 193.19 426.88 190.12 425.24 188.51C423.69 187 422.2 185.43 420.35 184.31C418.11 182.94 415.06 181.25 413.11 180.83C410.7 180.31 410.11 177.17 412.13 176.28C414.15 175.39 420.83 176.66 427.26 181.39C433.68 186.12 430.44 174.15 429.33 169.76C428.22 165.38 425.44 151.68 426.53 150.31C428.12 148.3 430.63 149.67 431.63 154.06C432.64 158.51 436.57 171.46 438.87 170.83C441.13 170.21 435.2 147.97 435.2 147.97C435.2 147.97 433.16 143.4 435.79 142.58C440.53 141.1 445.09 165.15 445.47 167.45C445.73 169.05 448.26 168.45 447.88 166.75C447.5 165 441.44 144.7 446.25 143.14C449.94 141.95 450.19 162.9 453.79 166.47C457.4 170.04 451.97 150.56 455.55 149.57C456.88 149.2 457.93 149.11 459.42 160.7C460.22 166.93 459.7 175.52 462.13 187.41" fill="#D4BF9E"/>
<path d="M418.11 243.56L439.97 274.93L429.47 194.03L460.72 181.71C460.72 181.71 500.16 332.9 447.26 335.03C447.26 335.03 410.66 334.03 383.34 270.66L418.11 243.56Z" fill="#D4BF9E"/>
<path d="M453.17 181.11C453.23 181.19 452.49 181.68 451.52 182.76C450.57 183.82 449.42 185.56 448.96 187.8L448.84 188.39L448.41 187.96C447.92 187.47 447.39 186.98 446.79 186.54C444.52 184.86 441.98 184.15 440.15 183.96C438.3 183.76 437.14 183.96 437.12 183.85C437.1 183.78 438.25 183.41 440.18 183.49C442.09 183.56 444.79 184.23 447.18 186C447.81 186.46 448.37 186.98 448.87 187.5L448.31 187.66C448.84 185.27 450.13 183.49 451.21 182.46C452.3 181.42 453.14 181.05 453.17 181.11Z" fill="#C9B28E"/>
<path d="M402.4 308.97L375.95 275.41L369.08 309.73C366.3 323.63 367.73 338.05 373.2 351.13L376.61 359.29H254.13L257.19 348.39C258.92 335.03 256.6 321.08 257.01 301.95L253.61 280.38L235.08 359.3H180.6C180.6 359.3 210.5 236.81 229.23 212.57C252.84 182.01 294.1 186.04 294.1 186.04L319.38 225.66L344.06 189.94C344.06 189.94 386.48 180.92 419.6 237.94L437.32 268.31L429.09 205.78L467.44 196.93C467.44 196.93 481.29 258.36 480.38 291.26C479.57 320.64 467.06 336.06 449.73 337.57C422.5 339.95 402.4 308.97 402.4 308.97Z" fill="#CD9E64"/>
<path d="M294.1 186.04L294.53 181.11C294.53 181.11 313.25 185.27 319.53 217.96C319.53 217.96 325.83 187.79 345.99 184.75L349.39 193.44L337.01 225.68L315.26 232.04L294.11 225.68L284.49 206.57L294.1 186.04Z" fill="#CD9E64"/>
<path d="M241.93 199.04C241.95 199.04 241.98 199.33 242.03 199.89C242.07 200.49 242.13 201.3 242.21 202.32C242.35 204.43 242.57 207.49 242.87 211.26C243.47 218.81 244.51 229.21 246.14 240.65C247.78 252.09 249.7 262.37 251.24 269.78C252.01 273.49 252.65 276.48 253.11 278.55C253.33 279.55 253.5 280.35 253.62 280.93C253.73 281.48 253.78 281.77 253.77 281.77C253.75 281.77 253.67 281.49 253.53 280.95C253.38 280.37 253.18 279.58 252.93 278.59C252.41 276.54 251.71 273.55 250.9 269.85C249.27 262.45 247.29 252.17 245.65 240.72C244.02 229.27 243.04 218.85 242.52 211.29C242.26 207.51 242.09 204.45 242.02 202.33C241.98 201.31 241.96 200.49 241.94 199.89C241.91 199.33 241.91 199.04 241.93 199.04Z" fill="#263238"/>
<path d="M348.94 188.77C348.95 188.78 348.86 188.94 348.67 189.24C348.45 189.58 348.17 190.01 347.83 190.54C347.06 191.72 346 193.33 344.71 195.3C342.09 199.33 338.55 204.95 334.88 211.29C334.73 211.54 334.59 211.79 334.46 212.02L334.22 212.43L334.02 212C333.27 210.39 332.5 208.82 331.33 207.67C330.18 206.53 328.62 205.84 327.16 206.11C325.7 206.34 324.54 207.34 323.72 208.37C322.89 209.42 322.36 210.57 322 211.67C321.29 213.86 320.88 215.71 320.36 216.91C320.12 217.52 319.87 217.96 319.71 218.26C319.53 218.55 319.43 218.7 319.41 218.69C319.37 218.67 319.75 218.06 320.19 216.84C320.65 215.63 321.01 213.8 321.68 211.56C322.02 210.44 322.55 209.23 323.4 208.12C324.24 207.03 325.46 205.94 327.08 205.67C328.71 205.35 330.44 206.12 331.66 207.33C332.91 208.55 333.7 210.18 334.46 211.79L334.02 211.77C334.15 211.54 334.3 211.29 334.44 211.04C338.12 204.69 341.71 199.09 344.41 195.1C345.76 193.11 346.87 191.51 347.66 190.42C348.03 189.91 348.34 189.5 348.58 189.17C348.8 188.9 348.92 188.76 348.94 188.77Z" fill="#263238"/>
<path d="M331.11 207.28C331.12 207.29 331.05 207.43 330.91 207.7C330.73 208.02 330.51 208.4 330.25 208.86C329.62 209.92 328.77 211.35 327.74 213.08C326.65 214.87 325.37 216.97 323.96 219.3C323.24 220.47 322.49 221.69 321.71 222.96C321.31 223.6 320.91 224.25 320.5 224.9C320.38 225.07 320.24 225.24 320.03 225.38C319.82 225.52 319.51 225.57 319.27 225.48C318.77 225.32 318.52 224.87 318.32 224.57C314.8 219.28 312.19 214.18 310.13 210.59C309.12 208.78 308.29 207.33 307.7 206.33C307.12 205.33 306.79 204.78 306.82 204.76C306.83 204.75 306.93 204.88 307.11 205.13C307.28 205.38 307.55 205.75 307.86 206.24C308.5 207.21 309.38 208.64 310.43 210.42C312.56 213.97 315.23 219.05 318.72 224.3C318.94 224.64 319.14 224.93 319.41 225.01C319.65 225.1 319.89 224.91 320.1 224.62C320.5 223.97 320.9 223.33 321.3 222.71C322.09 221.45 322.85 220.23 323.57 219.06C325.02 216.76 326.33 214.67 327.44 212.9C328.53 211.2 329.42 209.81 330.09 208.77C330.39 208.33 330.63 207.96 330.83 207.66C331 207.4 331.09 207.27 331.11 207.28Z" fill="#263238"/>
<path d="M398.92 210.18C398.94 210.19 398.84 210.41 398.64 210.83C398.41 211.29 398.11 211.9 397.74 212.66C396.94 214.24 395.82 216.54 394.48 219.4C393.13 222.26 391.61 225.71 390.01 229.57C388.43 233.44 386.78 237.73 385.21 242.29C383.65 246.86 382.31 251.25 381.17 255.28C380.06 259.31 379.13 262.96 378.44 266.04C377.73 269.12 377.2 271.63 376.86 273.36C376.69 274.19 376.55 274.85 376.45 275.35C376.35 275.81 376.29 276.04 376.27 276.04C376.25 276.04 376.28 275.79 376.35 275.33C376.43 274.82 376.54 274.15 376.67 273.32C376.95 271.57 377.43 269.05 378.1 265.96C378.75 262.86 379.64 259.19 380.73 255.15C381.84 251.11 383.18 246.7 384.74 242.13C386.32 237.56 387.98 233.27 389.59 229.4C391.22 225.54 392.77 222.1 394.16 219.26C395.54 216.41 396.71 214.13 397.57 212.58C397.98 211.84 398.31 211.24 398.55 210.79C398.78 210.38 398.91 210.17 398.92 210.18Z" fill="#263238"/>
<path d="M342.9 334.45C342.9 334.47 342.64 334.46 342.13 334.42C341.58 334.38 340.86 334.32 339.94 334.25C338.99 334.18 337.83 334.07 336.49 333.9C335.15 333.74 333.61 333.58 331.93 333.32C328.55 332.86 324.55 332.16 320.14 331.25C315.74 330.3 310.92 329.12 305.93 327.65C300.95 326.16 296.27 324.52 292.06 322.9C287.86 321.25 284.13 319.65 281.06 318.19C279.51 317.49 278.14 316.78 276.92 316.18C275.7 315.59 274.67 315.04 273.84 314.58C273.04 314.14 272.4 313.79 271.91 313.53C271.47 313.29 271.25 313.15 271.25 313.13C271.26 313.11 271.5 313.22 271.95 313.44C272.44 313.68 273.1 314 273.92 314.41C274.77 314.84 275.81 315.36 277.04 315.93C278.26 316.5 279.64 317.19 281.2 317.87C284.29 319.29 288.03 320.85 292.22 322.47C296.43 324.06 301.1 325.68 306.07 327.17C311.05 328.64 315.84 329.83 320.23 330.8C324.63 331.74 328.61 332.47 331.97 332.97C333.65 333.25 335.18 333.43 336.51 333.62C337.85 333.81 339 333.95 339.95 334.05C340.86 334.16 341.58 334.25 342.13 334.31C342.64 334.39 342.9 334.43 342.9 334.45Z" fill="#263238"/>
<path d="M337.48 336.59C337.48 336.61 337.31 336.65 336.98 336.72C336.59 336.79 336.11 336.89 335.52 337C334.25 337.24 332.4 337.53 330.11 337.84C325.53 338.47 319.17 339.12 312.13 339.37C305.08 339.61 298.69 339.41 294.08 339.09C291.78 338.93 289.91 338.77 288.63 338.63C288.03 338.56 287.55 338.5 287.15 338.46C286.81 338.41 286.64 338.38 286.64 338.37C286.64 338.35 286.82 338.35 287.16 338.36C287.55 338.38 288.05 338.41 288.64 338.44C289.93 338.53 291.79 338.64 294.09 338.75C298.7 338.97 305.07 339.12 312.1 338.88C319.13 338.63 325.48 338.04 330.06 337.5C332.35 337.23 334.2 336.99 335.48 336.82C336.08 336.75 336.56 336.68 336.96 336.64C337.3 336.58 337.48 336.57 337.48 336.59Z" fill="#263238"/>
<path d="M380.83 281.59C380.81 281.59 380.86 281.34 380.97 280.87C381.1 280.36 381.27 279.68 381.48 278.83C381.94 277.01 382.59 274.47 383.38 271.35C384.99 265.03 387.12 256.28 389.74 246.68C391.06 241.88 392.41 237.33 393.73 233.22C395.06 229.12 396.34 225.45 397.52 222.4C398.08 220.87 398.66 219.51 399.15 218.31C399.63 217.11 400.08 216.08 400.46 215.25C400.82 214.45 401.11 213.82 401.33 213.34C401.53 212.91 401.65 212.68 401.66 212.69C401.68 212.7 401.59 212.94 401.42 213.38C401.22 213.87 400.96 214.52 400.64 215.33C400.29 216.17 399.87 217.2 399.41 218.41C398.95 219.62 398.4 220.98 397.86 222.52C396.72 225.57 395.49 229.25 394.18 233.35C392.9 237.46 391.56 242.01 390.24 246.8C387.62 256.39 385.43 265.13 383.74 271.43C382.9 274.58 382.2 277.12 381.69 278.88C381.44 279.72 381.24 280.39 381.09 280.89C380.93 281.36 380.84 281.6 380.83 281.59Z" fill="#263238"/>
<path d="M252.97 279.95C252.96 279.96 252.78 279.75 252.45 279.35C252.13 278.94 251.62 278.36 251.05 277.54C249.87 275.95 248.3 273.52 246.68 270.36C245.05 267.2 243.45 263.27 242.1 258.77C240.74 254.27 239.67 249.2 238.91 243.84C237.45 233.09 237.21 223.28 236.77 216.21C236.57 212.67 236.39 209.81 236.24 207.84C236.17 206.89 236.12 206.13 236.07 205.56C236.04 205.04 236.03 204.76 236.04 204.76C236.05 204.76 236.1 205.03 236.17 205.55C236.23 206.07 236.33 206.83 236.43 207.82C236.64 209.79 236.88 212.65 237.12 216.19C237.65 223.26 237.95 233.06 239.4 243.77C240.16 249.11 241.21 254.16 242.53 258.64C243.85 263.12 245.41 267.05 246.99 270.21C248.56 273.38 250.07 275.82 251.2 277.44C251.74 278.27 252.23 278.87 252.52 279.3C252.83 279.71 252.98 279.94 252.97 279.95Z" fill="#263238"/>
<path d="M248.32 257.93C248.35 258.08 246.9 258.39 245.36 259.3C243.81 260.19 242.83 261.3 242.72 261.21C242.61 261.14 243.47 259.83 245.11 258.87C246.74 257.91 248.31 257.81 248.32 257.93Z" fill="#263238"/>
<path d="M247.39 245.09C247.41 245.24 245.59 245.4 243.66 246.43C241.71 247.44 240.55 248.85 240.44 248.75C240.33 248.7 241.37 247.07 243.43 246C245.47 244.9 247.4 244.97 247.39 245.09Z" fill="#263238"/>
<path d="M244.58 233.35C244.59 233.5 243.15 233.57 241.62 234.35C240.07 235.1 239.15 236.2 239.03 236.11C238.92 236.05 239.73 234.73 241.4 233.91C243.05 233.07 244.6 233.22 244.58 233.35Z" fill="#263238"/>
<path d="M243.21 221.23C243.23 221.37 241.96 221.62 240.52 222.24C239.07 222.85 238.02 223.6 237.93 223.49C237.84 223.4 238.8 222.43 240.33 221.79C241.84 221.13 243.2 221.1 243.21 221.23Z" fill="#263238"/>
<path d="M242.42 211.43C242.44 211.58 241.15 211.81 239.72 212.49C238.28 213.16 237.28 214 237.18 213.89C237.08 213.81 237.98 212.75 239.51 212.04C241.03 211.32 242.42 211.3 242.42 211.43Z" fill="#263238"/>
<path d="M383.4 266.61C383.28 266.69 382.63 265.82 381.44 265.35C380.26 264.85 379.18 265.03 379.15 264.88C379.09 264.76 380.27 264.33 381.62 264.89C382.98 265.44 383.52 266.57 383.4 266.61Z" fill="#263238"/>
<path d="M387.12 256.6C386.99 256.66 386.47 255.17 384.92 254.19C383.39 253.17 381.82 253.32 381.82 253.17C381.81 253.11 382.19 252.98 382.83 253C383.47 253.02 384.36 253.24 385.19 253.77C386.02 254.31 386.58 255.03 386.86 255.6C387.14 256.18 387.17 256.58 387.12 256.6Z" fill="#263238"/>
<path d="M389.91 245.6C389.79 245.69 388.99 244.45 387.38 243.84C385.79 243.19 384.36 243.54 384.33 243.39C384.31 243.33 384.65 243.16 385.24 243.07C385.83 242.98 386.69 243.04 387.56 243.38C388.42 243.72 389.08 244.27 389.46 244.74C389.84 245.21 389.96 245.57 389.91 245.6Z" fill="#263238"/>
<path d="M393.19 235.02C393.06 235.09 392.54 234.11 391.39 233.52C390.25 232.9 389.15 233.02 389.13 232.88C389.12 232.82 389.39 232.7 389.85 232.67C390.31 232.64 390.98 232.75 391.62 233.08C392.26 233.42 392.72 233.91 392.96 234.31C393.2 234.7 393.25 234.99 393.19 235.02Z" fill="#263238"/>
<path d="M397.04 225.31C396.91 225.38 396.38 224.19 395.01 223.59C393.66 222.94 392.41 223.3 392.38 223.16C392.36 223.11 392.64 222.92 393.17 222.83C393.7 222.74 394.47 222.79 395.22 223.14C395.97 223.49 396.51 224.04 396.78 224.5C397.05 224.96 397.09 225.29 397.04 225.31Z" fill="#263238"/>
<path d="M334.17 211.43C334.18 211.44 334.11 211.6 333.96 211.89C333.77 212.23 333.54 212.65 333.26 213.17C332.64 214.27 331.72 215.86 330.56 217.81C329.4 219.76 328 222.06 326.4 224.59C325.6 225.85 324.74 227.17 323.83 228.52C322.91 229.87 321.96 231.26 320.8 232.59C320.5 232.92 320.22 233.24 319.77 233.51C319.66 233.59 319.5 233.61 319.33 233.6C319.17 233.59 319.08 233.52 318.95 233.48C318.74 233.36 318.55 233.24 318.38 233.09C317.7 232.53 317.16 231.89 316.63 231.26C315.58 230 314.66 228.72 313.79 227.49C312.07 225.03 310.61 222.76 309.4 220.85C308.2 218.93 307.25 217.36 306.61 216.27C306.32 215.76 306.08 215.34 305.89 215C305.73 214.71 305.65 214.55 305.67 214.54C305.68 214.53 305.79 214.67 305.98 214.95C306.19 215.28 306.46 215.68 306.78 216.17C307.51 217.29 308.5 218.81 309.7 220.66C310.94 222.55 312.43 224.8 314.17 227.23C315.04 228.44 315.97 229.71 317 230.95C317.52 231.56 318.07 232.19 318.69 232.7C318.99 232.94 319.37 233.21 319.55 233.06C319.83 232.89 320.15 232.57 320.42 232.26C321.53 230.98 322.49 229.58 323.41 228.25C324.33 226.91 325.19 225.6 326 224.34C327.62 221.83 329.05 219.54 330.25 217.62C331.42 215.74 332.37 214.2 333.08 213.07C333.4 212.57 333.65 212.17 333.86 211.84C334.05 211.56 334.16 211.42 334.17 211.43Z" fill="#263238"/>
<path d="M312.87 225.66C312.81 225.67 312.69 225.32 312.74 224.75C312.78 224.18 313.03 223.39 313.58 222.69C314.13 221.99 314.84 221.56 315.39 221.39C315.94 221.21 316.3 221.25 316.31 221.31C316.35 221.45 314.96 221.7 313.97 223C312.94 224.25 313.01 225.66 312.87 225.66Z" fill="#263238"/>
<path d="M319.44 233.54C319.31 233.56 318.97 231.8 318.96 229.6C318.94 227.4 319.26 225.64 319.39 225.65C319.53 225.67 319.44 227.43 319.46 229.59C319.46 231.77 319.58 233.53 319.44 233.54Z" fill="#263238"/>
<path d="M326.9 223.5C326.76 223.54 326.45 222.43 325.41 221.59C324.39 220.72 323.25 220.61 323.26 220.46C323.26 220.4 323.56 220.33 324.03 220.41C324.5 220.48 325.15 220.73 325.72 221.21C326.29 221.69 326.65 222.28 326.8 222.73C326.97 223.18 326.96 223.48 326.9 223.5Z" fill="#263238"/>
<path d="M331.77 215.35C331.63 215.37 331.46 214.25 330.54 213.29C329.65 212.31 328.53 212.06 328.56 211.92C328.57 211.86 328.87 211.83 329.33 211.96C329.79 212.09 330.39 212.41 330.9 212.95C331.4 213.49 331.68 214.11 331.78 214.58C331.88 215.04 331.83 215.34 331.77 215.35Z" fill="#263238"/>
<path d="M307.9 218.2C307.84 218.21 307.68 217.82 307.66 217.15C307.63 216.48 307.79 215.54 308.27 214.63C308.76 213.72 309.45 213.06 310.02 212.72C310.59 212.37 311 212.28 311.02 212.34C311.1 212.47 309.59 213.16 308.7 214.87C307.78 216.55 308.04 218.19 307.9 218.2Z" fill="#263238"/>
<g opacity="0.4">
<g opacity="0.4">
<path opacity="0.4" d="M293.85 185.96C295.99 194.18 299.57 207.56 303.44 218.04C303.62 218.52 303.81 219.02 304.18 219.37C305.16 220.31 306.85 219.73 307.78 218.74C308.66 217.8 309.17 216.58 309.89 215.52C310.61 214.45 311.67 213.47 312.96 213.42C314.01 213.38 314.99 214 315.68 214.79C316.37 215.58 316.83 216.54 317.35 217.45C317.63 217.94 317.98 218.47 318.53 218.59C319.08 218.7 319.69 218.2 319.37 217.6L315.94 208.72C315.94 208.72 314.37 202.21 308.92 203.22C302.83 204.35 305.59 214.35 305.59 214.35C305.59 214.35 293.76 185.62 293.85 185.96Z" fill="black"/>
</g>
</g>
<path d="M319.54 217.95C319.52 217.96 319.42 217.76 319.25 217.37C319.07 216.98 318.83 216.4 318.52 215.66C317.9 214.1 317.05 211.94 316 209.29C315.73 208.62 315.44 207.92 315.13 207.2C314.81 206.48 314.46 205.77 313.88 205.18C312.74 204.02 310.97 203.23 309.14 203.41C308.25 203.53 307.31 203.89 306.64 204.53C305.96 205.18 305.62 206.14 305.29 207.12C304.97 208.06 304.98 209.11 305.08 210.16C305.18 211.21 305.39 212.28 305.64 213.34C305.74 213.73 305.83 214.12 305.92 214.48L305.45 214.62C304.05 210.59 302.43 206.86 300.96 203.48C299.48 200.1 298.13 197.07 297.07 194.5C296.01 191.93 295.23 189.82 294.76 188.34C294.51 187.61 294.36 187.02 294.25 186.63C294.14 186.24 294.09 186.03 294.11 186.02C294.13 186.02 294.21 186.21 294.34 186.6C294.48 186.98 294.66 187.55 294.94 188.28C295.46 189.73 296.29 191.82 297.39 194.36C298.49 196.91 299.87 199.92 301.37 203.29C302.87 206.66 304.5 210.39 305.91 214.45L305.44 214.59C305.35 214.23 305.25 213.83 305.16 213.44C304.91 212.36 304.69 211.28 304.59 210.19C304.49 209.11 304.47 207.99 304.83 206.95C305.16 205.97 305.53 204.93 306.31 204.18C307.11 203.45 308.09 203.08 309.09 202.95C311.1 202.76 312.96 203.63 314.18 204.89C314.8 205.53 315.18 206.32 315.48 207.04C315.79 207.77 316.07 208.48 316.33 209.15C317.32 211.82 318.13 214 318.71 215.57C318.98 216.29 319.19 216.87 319.36 217.32C319.48 217.73 319.55 217.95 319.54 217.95Z" fill="#263238"/>
<g opacity="0.4">
<g opacity="0.4">
<path opacity="0.4" d="M320.02 217.71C319.81 217.85 319.96 218.22 320.21 218.27C320.46 218.32 320.7 218.18 320.9 218.02C322.17 217.03 322.89 215.51 323.78 214.18C324.68 212.84 325.99 211.56 327.6 211.55C329.31 211.54 330.68 212.98 331.53 214.46C332.37 215.95 332.95 217.63 334.17 218.84C340.29 209.86 345.19 200.04 348.68 189.75C346.67 191.14 345.36 193.3 344.1 195.4C340.85 200.82 337.61 206.23 334.36 211.65C333.68 210.07 332.87 208.5 331.62 207.32C330.36 206.14 328.57 205.41 326.9 205.81C325 206.25 323.69 207.97 322.76 209.68C321.4 212.19 320.52 214.95 320.16 217.77" fill="black"/>
</g>
</g>
<path d="M447.73 297.82C447.7 297.84 447.47 297.45 447.08 296.73C446.69 296.01 446.15 294.96 445.52 293.64C444.25 291.01 442.64 287.3 441.13 283.1C439.63 278.9 438.52 275.01 437.82 272.17C437.47 270.75 437.22 269.6 437.06 268.79C436.9 267.99 436.83 267.54 436.87 267.53C436.9 267.52 437.04 267.96 437.25 268.74C437.49 269.62 437.79 270.74 438.16 272.07C438.94 274.88 440.1 278.74 441.59 282.93C443.09 287.11 444.65 290.83 445.83 293.49C446.4 294.75 446.87 295.81 447.24 296.64C447.59 297.39 447.76 297.8 447.73 297.82Z" fill="#263238"/>
<path d="M438.22 295.94C438.19 295.95 438.05 295.56 437.82 294.85C437.59 294.14 437.3 293.09 436.98 291.79C436.34 289.19 435.67 285.54 435.34 281.46C435.02 277.38 435.12 273.66 435.34 271C435.45 269.67 435.57 268.59 435.69 267.85C435.8 267.11 435.88 266.7 435.91 266.71C435.94 266.71 435.93 267.13 435.88 267.87C435.82 268.61 435.75 269.69 435.69 271.02C435.56 273.68 435.52 277.37 435.84 281.42C436.16 285.47 436.78 289.11 437.33 291.72C437.6 293.02 437.84 294.08 438.01 294.8C438.17 295.52 438.25 295.93 438.22 295.94Z" fill="#263238"/>
<path d="M468.78 208.4C468.79 208.38 469.03 208.47 469.55 208.69L469.7 208.76L469.54 208.82C467.37 209.6 459.76 212.01 450.45 213.7C444.87 214.73 439.76 215.32 436.06 215.62C434.21 215.77 432.71 215.86 431.67 215.9C430.63 215.94 430.06 215.94 430.06 215.91C430.06 215.88 430.63 215.81 431.66 215.71C432.78 215.6 434.25 215.45 436.03 215.28C439.72 214.89 444.8 214.25 450.36 213.22C459.64 211.53 467.27 209.28 469.5 208.7L469.49 208.82C468.99 208.55 468.77 208.42 468.78 208.4Z" fill="#263238"/>
<path d="M460.16 204.06C460.15 204.05 460.26 203.9 460.57 203.81C460.87 203.72 461.38 203.77 461.85 204.09C462.3 204.4 462.81 205.03 462.68 205.87C462.61 206.27 462.33 206.66 461.95 206.87C461.57 207.09 461.11 207.17 460.67 207.11C460.23 207.05 459.81 206.87 459.49 206.56C459.17 206.25 459.01 205.81 459.02 205.41C459.05 204.58 459.61 204.04 460.09 203.77C460.59 203.5 461.08 203.48 461.38 203.56C461.69 203.64 461.81 203.78 461.8 203.79C461.79 203.88 461.12 203.5 460.27 204.06C459.88 204.32 459.47 204.81 459.48 205.4C459.46 206 460.02 206.52 460.74 206.6C461.44 206.7 462.13 206.33 462.24 205.76C462.36 205.2 462.01 204.65 461.65 204.36C461.28 204.06 460.88 203.96 460.61 203.99C460.33 204.02 460.19 204.11 460.16 204.06Z" fill="#263238"/>
<path d="M311.56 225.17C311.57 225.18 311.38 225.35 311.01 225.65C310.63 225.94 310.11 226.41 309.36 226.92C307.9 227.99 305.66 229.38 302.71 230.7C299.76 232.03 296.04 233.2 291.79 233.81C289.66 234.08 287.41 234.25 285.08 234.17C282.75 234.09 280.34 233.8 277.92 233.28C273.08 232.19 268.72 230.4 264.62 229.3C262.57 228.73 260.59 228.33 258.72 228.14C256.85 227.96 255.08 228 253.5 228.19C250.32 228.58 247.89 229.66 246.42 230.68C244.94 231.69 244.3 232.48 244.25 232.43C244.25 232.43 244.84 231.6 246.31 230.52C247.76 229.44 250.22 228.28 253.45 227.84C255.06 227.62 256.85 227.57 258.76 227.73C260.66 227.91 262.67 228.3 264.74 228.86C268.88 229.95 273.25 231.72 278.03 232.79C280.42 233.3 282.8 233.59 285.1 233.68C287.41 233.76 289.63 233.61 291.74 233.35C295.94 232.78 299.63 231.66 302.58 230.38C305.53 229.1 307.78 227.77 309.26 226.76C310.02 226.28 310.56 225.83 310.96 225.57C311.34 225.29 311.55 225.15 311.56 225.17Z" fill="#FAFAFA"/>
<path d="M375.11 266.35C375.11 266.36 375 266.31 374.81 266.21C374.59 266.1 374.31 265.95 373.95 265.76C373.57 265.57 373.08 265.37 372.51 265.11C371.92 264.91 371.26 264.62 370.47 264.42C367.37 263.48 362.59 263.01 356.85 263.92C353.98 264.34 350.88 265.12 347.58 266.02C344.28 266.92 340.76 267.97 336.97 268.74C333.19 269.52 329.09 269.93 324.89 269.48C320.68 269.09 316.46 267.9 312.23 266.5C308.01 265.08 303.97 263.49 300 262.17C296.04 260.82 292.12 259.82 288.32 259.31C280.7 258.27 273.71 259.05 268.08 260.41C265.26 261.1 262.78 261.98 260.63 262.82C259.57 263.28 258.58 263.69 257.69 264.12C256.81 264.57 255.98 264.94 255.28 265.34C254.57 265.73 253.94 266.09 253.39 266.4C252.86 266.72 252.41 267 252.04 267.23C251.69 267.44 251.42 267.61 251.21 267.74C251.02 267.85 250.92 267.91 250.92 267.9C250.92 267.89 251.01 267.82 251.19 267.7C251.39 267.56 251.66 267.38 252 267.15C252.36 266.91 252.79 266.61 253.33 266.28C253.88 265.96 254.5 265.59 255.2 265.18C255.91 264.77 256.73 264.38 257.6 263.92C258.49 263.47 259.48 263.05 260.54 262.58C262.69 261.72 265.18 260.81 268.02 260.09C273.67 258.67 280.72 257.85 288.4 258.88C292.24 259.38 296.19 260.39 300.17 261.74C304.16 263.06 308.2 264.65 312.41 266.06C316.61 267.45 320.8 268.63 324.96 269.02C329.11 269.48 333.15 269.08 336.9 268.32C340.66 267.57 344.18 266.54 347.49 265.65C350.8 264.76 353.91 264 356.81 263.6C362.6 262.72 367.43 263.25 370.54 264.26C371.33 264.48 371.99 264.78 372.58 265C373.15 265.27 373.64 265.49 374.01 265.7C374.36 265.91 374.64 266.07 374.85 266.19C375.02 266.28 375.11 266.34 375.11 266.35Z" fill="#FAFAFA"/>
<path d="M324.72 224.46C324.74 224.4 325.61 224.8 327.28 225.02C328.94 225.26 331.42 225.21 334.33 224.46C337.26 223.75 340.53 222.22 344.26 220.75C346.13 220.02 348.15 219.34 350.31 218.95C352.47 218.57 354.76 218.41 357.08 218.56C361.74 218.83 366.06 220.08 369.77 221.61C373.49 223.15 376.64 224.94 379.23 226.52C381.82 228.1 383.85 229.48 385.25 230.43C385.91 230.89 386.44 231.26 386.85 231.55C387.21 231.81 387.4 231.95 387.39 231.97C387.38 231.98 387.18 231.87 386.8 231.64C386.38 231.38 385.83 231.03 385.15 230.6C383.72 229.7 381.66 228.37 379.06 226.83C376.46 225.3 373.3 223.55 369.6 222.05C365.91 220.56 361.64 219.34 357.06 219.08C354.77 218.94 352.53 219.09 350.4 219.45C348.27 219.83 346.29 220.49 344.42 221.2C340.71 222.65 337.39 224.15 334.41 224.83C331.44 225.55 328.92 225.55 327.24 225.25C325.56 224.92 324.72 224.46 324.72 224.46Z" fill="#FAFAFA"/>
<path d="M383.16 199.38C383.17 199.41 382.66 199.57 381.74 199.81C381.28 199.94 380.71 200.08 380.04 200.21C379.37 200.34 378.62 200.52 377.77 200.64C376.08 200.93 374.05 201.16 371.79 201.28C369.53 201.38 367.03 201.37 364.43 201.15C361.82 200.92 359.36 200.51 357.15 200.03C354.94 199.52 352.98 198.96 351.37 198.39C350.55 198.13 349.84 197.83 349.21 197.58C348.57 197.34 348.04 197.1 347.61 196.9C346.74 196.5 346.27 196.27 346.28 196.23C346.29 196.2 346.79 196.37 347.68 196.72C348.12 196.9 348.67 197.11 349.31 197.32C349.95 197.54 350.67 197.82 351.48 198.05C353.1 198.58 355.05 199.1 357.25 199.58C359.45 200.03 361.89 200.42 364.47 200.65C367.05 200.86 369.53 200.89 371.77 200.81C374.01 200.71 376.03 200.52 377.71 200.28C378.56 200.18 379.31 200.03 379.98 199.92C380.65 199.82 381.22 199.7 381.68 199.6C382.63 199.43 383.15 199.34 383.16 199.38Z" fill="#FAFAFA"/>
<path d="M242.33 205.8C242.32 205.79 242.47 205.65 242.77 205.41C243.07 205.17 243.5 204.82 244.08 204.38C245.23 203.5 246.92 202.26 249.07 200.82C253.36 197.95 259.58 194.22 267.17 191.88C274.77 189.54 282.15 189.46 287.24 190.48C289.79 190.97 291.8 191.62 293.14 192.17C293.82 192.42 294.32 192.69 294.67 192.84C295.01 193 295.19 193.1 295.18 193.11C295.16 193.15 294.43 192.83 293.07 192.35C291.72 191.86 289.71 191.26 287.18 190.83C282.13 189.91 274.84 190.04 267.32 192.36C259.8 194.68 253.59 198.33 249.26 201.12C247.09 202.52 245.38 203.71 244.19 204.54C243.63 204.93 243.18 205.24 242.82 205.49C242.52 205.71 242.35 205.82 242.33 205.8Z" fill="#FAFAFA"/>
<path d="M368.2 310.67C368.2 310.68 368.11 310.7 367.92 310.75C367.7 310.8 367.43 310.86 367.08 310.93C366.71 311.02 366.25 311.09 365.7 311.14C365.42 311.17 365.13 311.2 364.81 311.23C364.49 311.24 364.15 311.25 363.8 311.26C360.92 311.38 356.78 310.64 351.92 309.07C349.48 308.31 346.84 307.38 343.97 306.53C341.1 305.68 337.97 305.02 334.62 304.72C327.92 304.08 320.49 304.89 312.85 306.28C305.19 307.66 297.96 309.4 291.23 310.2C284.52 311.03 278.37 311.09 273.3 310.32C268.21 309.63 264.29 308.09 261.74 306.83C261.11 306.5 260.54 306.21 260.06 305.94C259.6 305.65 259.21 305.4 258.88 305.19C258.58 305 258.35 304.84 258.16 304.72C258 304.61 257.92 304.55 257.93 304.55C257.93 304.54 258.02 304.59 258.19 304.68C258.38 304.79 258.63 304.93 258.93 305.11C259.26 305.31 259.66 305.54 260.13 305.81C260.63 306.06 261.19 306.34 261.83 306.65C264.4 307.85 268.3 309.33 273.36 309.97C278.4 310.69 284.51 310.6 291.19 309.75C297.88 308.93 305.1 307.18 312.78 305.8C320.44 304.4 327.92 303.6 334.68 304.27C338.05 304.59 341.22 305.27 344.1 306.14C346.98 307.01 349.61 307.96 352.04 308.74C356.88 310.34 360.96 311.13 363.81 311.07C364.16 311.07 364.5 311.07 364.82 311.07C365.13 311.04 365.43 311.02 365.7 311C366.25 310.97 366.71 310.91 367.08 310.84C367.43 310.79 367.71 310.74 367.92 310.71C368.1 310.68 368.2 310.67 368.2 310.67Z" fill="#FAFAFA"/>
<g opacity="0.3">
<g opacity="0.3">
<path opacity="0.3" d="M280.09 317.56C284.62 328.87 293.39 336.9 305.46 338.56C317.53 340.22 329.74 337.46 341.49 334.26C320.12 331.27 301.22 328.31 280.09 317.56Z" fill="black"/>
</g>
</g>
<path d="M371.26 348.66C371.26 348.67 371.16 348.63 370.96 348.55C370.74 348.46 370.47 348.34 370.11 348.19C369.34 347.85 368.26 347.37 366.88 346.76C364.07 345.52 360.04 343.63 355.01 341.45C352.48 340.39 349.67 339.31 346.54 338.58C343.42 337.84 339.95 337.59 336.38 338.11C334.6 338.37 332.79 338.78 330.98 339.34C329.18 339.91 327.37 340.6 325.57 341.39C321.96 342.96 318.37 344.93 314.67 346.91C310.97 348.89 307.29 350.72 303.55 352.08C299.82 353.43 296.03 354.31 292.36 354.36C288.68 354.46 285.23 353.59 282.23 352.37C279.21 351.16 276.59 349.64 274.2 348.29C271.81 346.93 269.66 345.69 267.7 344.74C265.74 343.8 264.01 343.06 262.54 342.64C261.82 342.38 261.15 342.25 260.58 342.11C260.01 341.96 259.52 341.88 259.12 341.83C258.74 341.77 258.44 341.72 258.21 341.69C258.01 341.65 257.9 341.63 257.9 341.62C257.9 341.61 258.01 341.62 258.21 341.64C258.44 341.66 258.75 341.7 259.13 341.74C259.53 341.78 260.03 341.84 260.61 341.98C261.19 342.11 261.87 342.22 262.6 342.47C264.09 342.86 265.84 343.59 267.83 344.51C269.81 345.44 271.98 346.67 274.38 348.01C276.78 349.34 279.4 350.83 282.39 352.02C285.37 353.21 288.75 354.05 292.36 353.93C295.97 353.87 299.7 353 303.4 351.65C307.1 350.3 310.76 348.47 314.45 346.5C318.14 344.52 321.74 342.55 325.39 340.98C327.21 340.19 329.03 339.49 330.86 338.92C332.69 338.37 334.52 337.95 336.33 337.69C339.96 337.17 343.49 337.45 346.65 338.21C349.81 338.96 352.64 340.07 355.16 341.15C360.19 343.38 364.19 345.32 366.98 346.61C368.35 347.26 369.42 347.77 370.18 348.13C370.52 348.3 370.8 348.43 371.01 348.54C371.17 348.6 371.26 348.65 371.26 348.66Z" fill="#FAFAFA"/>
</svg>
