<svg width="127" height="47" viewBox="0 0 127 47" fill="none" xmlns="http://www.w3.org/2000/svg">
<path d="M72.2935 12.9348C72.3778 12.9339 72.4614 12.9502 72.5394 12.9828C72.6175 13.0154 72.6884 13.0636 72.748 13.1245C72.8076 13.1855 72.8547 13.258 72.8866 13.3379C72.9184 13.4177 72.9344 13.5032 72.9335 13.5894V33.463C72.9348 33.5424 72.9204 33.6213 72.8913 33.695C72.8621 33.7686 72.8188 33.8355 72.7639 33.8917C72.7089 33.9479 72.6435 33.9922 72.5715 34.022C72.4995 34.0518 72.4224 34.0665 72.3447 34.0652H68.3255C68.066 34.0286 67.8242 33.9095 67.6343 33.7248C67.6343 33.7248 60.4152 23.5916 60.1848 23.3298C59.9887 23.0352 59.8256 22.719 59.6984 22.3872V33.463C59.699 33.5444 59.6832 33.6251 59.6522 33.7002C59.6212 33.7752 59.5755 33.843 59.518 33.8993C59.4605 33.9557 59.3924 33.9995 59.3177 34.028C59.2431 34.0565 59.1636 34.0692 59.0841 34.0652H54.5785C54.499 34.0692 54.4194 34.0565 54.3448 34.028C54.2702 33.9995 54.2021 33.9557 54.1446 33.8993C54.0871 33.843 54.0414 33.7752 54.0104 33.7002C53.9793 33.6251 53.9636 33.5444 53.9641 33.463V13.5894C53.9636 13.5079 53.9793 13.4272 54.0104 13.3522C54.0414 13.2772 54.0871 13.2094 54.1446 13.153C54.2021 13.0967 54.2702 13.0529 54.3448 13.0244C54.4194 12.9958 54.499 12.9832 54.5785 12.9872H58.5977C58.8513 13.0187 59.0864 13.139 59.2632 13.3276C59.2632 13.3276 66.4056 23.2774 66.7128 23.7226C66.9128 24.0191 67.0843 24.3348 67.2248 24.6652V13.5894C67.2235 13.51 67.2378 13.4311 67.267 13.3574C67.2961 13.2838 67.3394 13.2168 67.3943 13.1607C67.4493 13.1045 67.5147 13.0602 67.5867 13.0304C67.6587 13.0006 67.7359 12.9859 67.8135 12.9872C67.8135 12.9348 72.0119 12.9348 72.2935 12.9348ZM104.037 41.7109C94.258 41.7109 86.2965 33.5415 86.2965 23.5131C86.2965 13.4585 94.258 5.28914 104.037 5.28914C113.791 5.28914 121.752 13.4585 121.752 23.5131C121.752 33.5415 113.791 41.7109 104.037 41.7109ZM63.4616 41.7109C53.6825 41.7109 45.721 33.5415 45.721 23.5131C45.721 13.4585 53.6825 5.28914 63.4616 5.28914C73.2151 5.28914 81.1766 13.4585 81.1766 23.5131C81.1766 33.5415 73.2151 41.7109 63.4616 41.7109ZM22.8861 41.7109C13.107 41.7109 5.14554 33.5415 5.14554 23.5131C5.14554 13.4585 13.107 5.28914 22.8861 5.28914C32.6396 5.28914 40.6011 13.4585 40.6011 23.5131C40.5755 33.5415 32.614 41.7109 22.8861 41.7109ZM104.037 1.96982e-06C95.2308 1.96982e-06 87.5765 5.15822 83.7109 12.673C81.7928 8.8563 78.8832 5.65423 75.3019 3.41853C71.7206 1.18282 67.6061 0 63.4104 0C59.2147 0 55.1002 1.18282 51.5189 3.41853C47.9376 5.65423 45.028 8.8563 43.1099 12.673C41.1838 8.85723 38.2689 5.65674 34.684 3.4216C31.099 1.18646 26.9822 0.00276669 22.7837 1.96982e-06C10.2655 1.96982e-06 0 10.5521 0 23.5131C0 36.4479 10.2655 47 22.8861 47C31.6668 47 39.3467 41.8418 43.1867 34.327C45.1098 38.1395 48.0205 41.3381 51.6007 43.5731C55.1809 45.8081 59.2929 46.9936 63.4872 47C72.2935 47 79.9478 41.8418 83.8133 34.327C85.7339 38.1417 88.644 41.3421 92.2248 43.5775C95.8056 45.8129 99.9188 46.9969 104.114 47C116.735 47 127 36.4479 127 23.5131C126.923 10.5521 116.632 1.96982e-06 104.037 1.96982e-06ZM14.2846 13.3276C14.2069 13.3263 14.1298 13.3409 14.0578 13.3707C13.9858 13.4005 13.9204 13.4449 13.8654 13.501C13.8105 13.5572 13.7672 13.6241 13.738 13.6978C13.7089 13.7715 13.6945 13.8504 13.6958 13.9298V17.8836C13.6945 17.963 13.7089 18.0419 13.738 18.1156C13.7672 18.1892 13.8105 18.2561 13.8654 18.3123C13.9204 18.3685 13.9858 18.4128 14.0578 18.4426C14.1298 18.4724 14.2069 18.4871 14.2846 18.4858H18.9438C19.244 18.4831 19.5435 18.4569 19.8398 18.4072V33.9866C19.8385 34.0661 19.8528 34.145 19.882 34.2186C19.9111 34.2923 19.9544 34.3592 20.0093 34.4154C20.0643 34.4716 20.1297 34.5159 20.2017 34.5457C20.2737 34.5755 20.3509 34.5902 20.4285 34.5889H25.2157C25.2934 34.5902 25.3705 34.5755 25.4425 34.5457C25.5145 34.5159 25.5799 34.4716 25.6349 34.4154C25.6898 34.3592 25.7331 34.2923 25.7623 34.2186C25.7914 34.145 25.8058 34.0661 25.8045 33.9866V18.4072C26.1782 18.4548 26.5543 18.481 26.9309 18.4858H31.3852C31.4629 18.4871 31.54 18.4724 31.612 18.4426C31.684 18.4128 31.7495 18.3685 31.8044 18.3123C31.8593 18.2561 31.9027 18.1892 31.9318 18.1156C31.9609 18.0419 31.9753 17.963 31.974 17.8836V13.9298C31.9753 13.8504 31.9609 13.7715 31.9318 13.6978C31.9027 13.6241 31.8593 13.5572 31.8044 13.501C31.7495 13.4449 31.684 13.4005 31.612 13.3707C31.54 13.3409 31.4629 13.3263 31.3852 13.3276H14.2846ZM112.613 13.3276C112.691 13.3263 112.768 13.3409 112.84 13.3707C112.912 13.4005 112.977 13.4449 113.032 13.501C113.087 13.5572 113.13 13.6241 113.16 13.6978C113.189 13.7715 113.203 13.8504 113.202 13.9298V17.8836C113.203 17.963 113.189 18.0419 113.16 18.1156C113.13 18.1892 113.087 18.2561 113.032 18.3123C112.977 18.3685 112.912 18.4128 112.84 18.4426C112.768 18.4724 112.691 18.4871 112.613 18.4858H108.184C107.799 18.4817 107.415 18.4555 107.032 18.4072V33.9866C107.034 34.0661 107.019 34.145 106.99 34.2186C106.961 34.2923 106.918 34.3592 106.863 34.4154C106.808 34.4716 106.742 34.5159 106.67 34.5457C106.598 34.5755 106.521 34.5902 106.443 34.5889H101.656C101.579 34.5902 101.502 34.5755 101.429 34.5457C101.357 34.5159 101.292 34.4716 101.237 34.4154C101.182 34.3592 101.139 34.2923 101.11 34.2186C101.081 34.145 101.066 34.0661 101.068 33.9866V18.4072C100.771 18.4569 100.472 18.4831 100.172 18.4858H95.5124C95.4347 18.4871 95.3576 18.4724 95.2856 18.4426C95.2136 18.4128 95.1481 18.3685 95.0932 18.3123C95.0383 18.2561 94.9949 18.1892 94.9658 18.1156C94.9367 18.0419 94.9223 17.963 94.9236 17.8836V13.9298C94.9223 13.8504 94.9367 13.7715 94.9658 13.6978C94.9949 13.6241 95.0383 13.5572 95.0932 13.501C95.1481 13.4449 95.2136 13.4005 95.2856 13.3707C95.3576 13.3409 95.4347 13.3263 95.5124 13.3276H112.613Z" fill="#FF6600"/>
</svg>
