<svg width="275" height="139" viewBox="0 0 275 139" fill="none" xmlns="http://www.w3.org/2000/svg">
<path d="M92.3607 138.423C90.7115 138.423 89.3765 137.074 89.3765 135.409V103.49C89.3765 101.825 90.7115 100.476 92.3607 100.476C94.0099 100.476 95.3449 101.825 95.3449 103.49V135.409C95.3449 137.074 94.0099 138.423 92.3607 138.423Z" fill="#0E3A52"/>
<path d="M243.589 138.423C241.94 138.423 240.605 137.074 240.605 135.409V103.49C240.605 101.825 241.94 100.476 243.589 100.476C245.238 100.476 246.573 101.825 246.573 103.49V135.409C246.573 137.074 245.238 138.423 243.589 138.423Z" fill="#0E3A52"/>
<path d="M270.702 138.423C269.053 138.423 267.718 137.074 267.718 135.409V114.799C267.718 113.133 269.053 111.785 270.702 111.785C272.351 111.785 273.686 113.133 273.686 114.799V135.409C273.686 137.074 272.348 138.423 270.702 138.423Z" fill="#0E3A52"/>
<path d="M27.4924 99.9397H2.91779C1.30787 99.9397 0 101.258 0 102.887C0 104.513 1.30485 105.833 2.91779 105.833H11.4929V134.674C11.4929 136.745 13.1542 138.423 15.2051 138.423C17.256 138.423 18.9173 136.745 18.9173 134.674V105.833H27.4924C29.1024 105.833 30.4102 104.516 30.4102 102.887C30.4102 101.261 29.1054 99.9397 27.4924 99.9397Z" fill="#0E3A52"/>
<path d="M42.0144 112.173H37.3507C37.3507 112.173 32.4123 112.045 29.6636 115.373C28.9357 116.105 28.9357 117.292 29.6606 118.024C30.3825 118.753 31.5514 118.756 32.2763 118.03C33.7715 116.77 35.6925 116.01 37.7917 116.01H40.2413C42.5973 116.01 44.5063 117.938 44.5063 120.318V122.438C44.4338 122.438 44.3643 122.438 44.3643 122.438H36.9098C34.2306 122.438 31.8051 123.533 30.0472 125.303C25.2265 130.153 28.1685 138.618 34.9646 138.948C35.0975 138.954 35.2273 138.957 35.3633 138.957H37.088C40.6672 138.957 43.7058 136.636 44.8144 133.402V136.022C44.8144 137.468 45.9772 138.643 47.4089 138.643H48.0644C49.4961 138.643 50.659 137.468 50.659 136.022V135.293V131.752V120.894C50.656 116.081 46.7867 112.173 42.0144 112.173ZM44.5063 128.402C44.5063 132.212 41.4495 135.299 37.677 135.299C34.9797 135.299 32.7928 133.091 32.7928 130.367C32.7928 127.987 34.7018 126.059 37.0578 126.059H44.5063V128.402Z" fill="#0E3A52"/>
<path d="M72.5364 111.516C68.5494 111.516 65.0758 113.734 63.2545 117.014V103.487C63.2545 101.822 61.9194 100.473 60.2702 100.473C58.6211 100.473 57.286 101.822 57.286 103.487V135.406C57.286 137.071 58.6211 138.42 60.2702 138.42C61.9194 138.42 63.2545 137.071 63.2545 135.406V133.456C65.0758 136.736 68.5494 138.954 72.5364 138.954C78.4113 138.954 83.1746 134.143 83.1746 128.209V122.258C83.1746 116.327 78.4113 111.516 72.5364 111.516ZM77.1608 128.273C77.1608 132.154 74.0467 135.296 70.2076 135.296C66.3686 135.296 63.2545 132.151 63.2545 128.273V122.59C63.2545 118.71 66.3686 115.568 70.2076 115.568C74.0467 115.568 77.1608 118.713 77.1608 122.59V128.273Z" fill="#0E3A52"/>
<path d="M125.549 126.16C126.428 126.16 127.14 125.44 127.14 124.553C127.14 117.28 121.241 111.395 114.013 111.517C106.936 111.636 101.327 117.619 101.327 124.766V125.919C101.327 133.119 107.106 138.955 114.234 138.955C121.172 139.351 124.398 135.895 125.473 134.376C125.941 133.732 125.887 132.82 125.31 132.237C124.733 131.654 123.803 131.606 123.162 132.082C119.061 135.294 114.527 134.787 114.527 134.787C110.555 134.787 107.338 131.535 107.338 127.527V126.157H125.549V126.16ZM114.527 115.984C118.499 115.984 121.716 119.235 121.716 123.244H107.335C107.338 119.235 110.555 115.984 114.527 115.984Z" fill="#0E3A52"/>
<path d="M147.994 134.409C147.387 133.796 146.496 133.649 145.753 133.963C145.089 134.244 144.394 134.451 143.672 134.494C142.322 134.494 141.225 133.387 141.225 132.023V116.517H145.028C146.249 116.517 147.239 115.516 147.239 114.284C147.239 113.051 146.249 112.051 145.028 112.051H141.225V105.95C141.225 101.871 138.368 102.243 138.368 102.243C137.278 102.243 136.356 102.963 136.039 103.958C135.964 104.196 135.922 104.449 135.922 104.714L135.71 112.051H132.65C131.43 112.051 130.439 113.051 130.439 114.284C130.439 115.516 131.43 116.517 132.65 116.517H135.58L135.154 131.294C135.154 135.544 138.564 138.988 142.772 138.988C142.772 138.988 147.013 139.29 148.438 136.66C148.743 135.913 148.595 135.019 147.994 134.409Z" fill="#0E3A52"/>
<path d="M164.713 111.202C157.113 111.202 150.951 117.426 150.951 125.101C150.951 132.776 157.113 139 164.713 139C172.312 139 178.474 132.776 178.474 125.101C178.474 117.426 172.312 111.202 164.713 111.202ZM172.167 127.859C172.167 131.953 168.881 135.269 164.83 135.269C160.777 135.269 157.494 131.95 157.494 127.859V123.039C157.494 118.945 160.78 115.629 164.83 115.629C168.884 115.629 172.167 118.948 172.167 123.039V127.859Z" fill="#0E3A52"/>
<path d="M200.925 117.38C201.753 117.889 202.846 117.782 203.562 117.059C204.471 116.141 204.396 114.607 203.339 113.789C201.291 112.52 198.88 111.785 196.301 111.785C188.852 111.785 182.814 117.892 182.833 125.421C182.851 132.706 188.677 138.764 195.887 138.984C198.775 139.073 201.463 138.24 203.692 136.76C203.922 136.608 204.133 136.428 204.332 136.236C205.16 135.4 205.16 134.045 204.332 133.206C203.598 132.465 202.46 132.38 201.635 132.953C200.363 133.838 198.805 134.375 197.186 134.375C192.646 134.375 188.964 130.351 188.964 125.388C188.964 120.424 192.646 116.401 197.186 116.401C198.545 116.401 199.829 116.761 200.959 117.401" fill="#0E3A52"/>
<path d="M223.531 111.785C219.61 111.785 216.266 114.289 214.986 117.801V103.49C214.986 101.825 213.651 100.476 212.002 100.476C210.352 100.476 209.017 101.825 209.017 103.49V135.409C209.017 137.074 210.352 138.423 212.002 138.423C213.651 138.423 214.986 137.074 214.986 135.409V134.716V120.995C214.986 118.225 217.209 115.979 219.951 115.979H221.749C224.491 115.979 226.714 118.225 226.714 120.995C226.714 120.995 226.714 133.883 226.714 135.476C226.714 137.129 228.04 138.465 229.674 138.465C231.309 138.465 232.634 137.126 232.634 135.476V120.979C232.638 115.903 228.56 111.785 223.531 111.785Z" fill="#0E3A52"/>
<path d="M271.519 105.983H269.958C268.46 105.983 267.233 104.745 267.233 103.231C267.233 101.718 268.46 100.48 269.958 100.48H271.519C273.018 100.48 274.244 101.718 274.244 103.231C274.244 104.745 273.018 105.983 271.519 105.983Z" fill="#0E3A52"/>
<path d="M262.096 134.152L252.053 123.252L260.535 116.15C261.459 115.379 261.586 113.981 260.822 113.048C260.057 112.114 258.674 111.986 257.75 112.758L246.806 121.922C245.915 122.666 245.767 123.99 246.441 124.918C246.507 125.015 246.577 125.113 246.661 125.201L258.245 137.77C259.064 138.658 260.45 138.707 261.326 137.883L261.984 137.264C262.863 136.437 262.915 135.037 262.096 134.152Z" fill="#0E3A52"/>
<path d="M175.055 7.17416C158.554 -7.34976 135.804 4.67267 135.804 4.67267C135.804 4.67267 113.054 -7.34976 96.5529 7.17416C80.052 21.6981 94.197 56.5787 135.804 76.5784C177.414 56.5787 191.559 21.6981 175.055 7.17416ZM145.473 50.267C125.417 40.6271 118.596 23.8122 126.552 16.811C134.508 9.80988 145.473 15.606 145.473 15.606C145.473 15.606 156.44 9.80988 164.393 16.811C172.346 23.8122 165.532 40.6271 145.473 50.267Z" fill="#DC360D"/>
<path d="M152.423 25.743H149.357V22.6497C149.357 20.4899 147.605 18.7205 145.467 18.7205C143.328 18.7205 141.577 20.4899 141.577 22.6497V25.7461H138.511C136.372 25.7461 134.62 27.5154 134.62 29.6752C134.62 31.8351 136.372 33.6044 138.511 33.6044H141.577V36.7008C141.577 38.8606 143.328 40.63 145.467 40.63C147.605 40.63 149.357 38.8606 149.357 36.7008V33.6044H152.423C154.562 33.6044 156.313 31.8351 156.313 29.6752C156.313 27.5124 154.565 25.743 152.423 25.743Z" fill="#DC360D"/>
</svg>
