<svg width="440" height="432" viewBox="0 0 440 432" fill="none" xmlns="http://www.w3.org/2000/svg">
<path d="M192 3.67993H234.77H294.61V57.8999H219.14C216.91 61.3399 212.2 69.1299 212.2 69.1299L206.77 57.8999H192V3.67993Z" fill="#EFE5D7"/>
<path d="M191.999 3.67995C191.999 3.67995 192.009 4.01995 192.019 4.65995C192.019 5.30995 192.029 6.25995 192.039 7.48995C192.049 9.97995 192.069 13.63 192.089 18.32C192.109 27.7 192.149 41.23 192.189 57.91L191.999 57.7099C196.669 57.7 201.609 57.7 206.769 57.69H206.899L206.959 57.8099C208.659 61.3299 210.499 65.12 212.399 69.03L211.999 69.02C214.179 65.49 216.529 61.68 218.939 57.7799L219.009 57.6699H219.139C239.879 57.66 263.279 57.65 287.949 57.65C290.179 57.65 292.409 57.65 294.609 57.65L294.349 57.91C294.359 38.76 294.359 20.4799 294.369 3.67995L294.609 3.91995C264.529 3.87995 238.899 3.84995 220.769 3.81995C211.719 3.78995 204.549 3.75995 199.619 3.73995C197.159 3.72995 195.269 3.70995 193.969 3.70995C193.339 3.69995 192.849 3.69995 192.509 3.69995C192.169 3.68995 191.999 3.67995 191.999 3.67995C191.999 3.67995 192.159 3.66995 192.479 3.66995C192.819 3.66995 193.289 3.65995 193.919 3.65995C195.209 3.64995 197.089 3.63995 199.529 3.62995C204.459 3.60995 211.649 3.57995 220.699 3.54995C238.849 3.52995 264.509 3.48995 294.619 3.44995H294.859V3.68995C294.869 20.49 294.869 38.77 294.879 57.9199V58.18H294.619C292.419 58.18 290.189 58.18 287.959 58.18C263.289 58.17 239.889 58.16 219.149 58.16L219.349 58.05C216.939 61.95 214.579 65.75 212.399 69.27L212.179 69.62L211.999 69.25C210.109 65.33 208.279 61.54 206.579 58.01L206.769 58.1299C201.609 58.1199 196.679 58.1199 191.999 58.11H191.809V57.9199C191.849 41.1899 191.889 27.6199 191.909 18.21C191.929 13.54 191.949 9.90995 191.959 7.42995C191.969 6.20995 191.979 5.27995 191.979 4.62995C191.989 3.98995 191.999 3.67995 191.999 3.67995Z" fill="#E0E0E0"/>
<path d="M216.278 30.3699C217.948 29.6799 219.148 27.9799 219.178 25.9499C219.208 23.2999 217.218 21.1199 214.728 21.0799C212.238 21.0499 210.198 23.1699 210.158 25.8299C210.128 27.8799 211.308 29.6299 212.988 30.3399C206.048 31.3299 206.298 38.8699 206.298 38.8699L222.698 39.0899C222.708 39.0799 223.148 31.4699 216.278 30.3699Z" fill="#CD9E64"/>
<path d="M280.587 22.71C280.587 22.81 270.127 22.9 257.227 22.9C244.327 22.9 233.867 22.82 233.867 22.71C233.867 22.61 244.327 22.52 257.227 22.52C270.137 22.53 280.587 22.61 280.587 22.71Z" fill="#CD9E64"/>
<path d="M280.587 28.2999C280.587 28.3999 270.127 28.4899 257.227 28.4899C244.327 28.4899 233.867 28.4099 233.867 28.2999C233.867 28.1999 244.327 28.1099 257.227 28.1099C270.137 28.1199 280.587 28.1999 280.587 28.2999Z" fill="#CD9E64"/>
<path d="M280.587 33.9C280.587 34 270.127 34.09 257.227 34.09C244.327 34.09 233.867 34.01 233.867 33.9C233.867 33.8 244.327 33.71 257.227 33.71C270.137 33.71 280.587 33.79 280.587 33.9Z" fill="#CD9E64"/>
<path d="M261.807 40.97C261.807 41.08 255.557 41.17 247.837 41.17C240.117 41.17 233.867 41.08 233.867 40.97C233.867 40.86 240.117 40.77 247.837 40.77C255.557 40.77 261.807 40.86 261.807 40.97Z" fill="#CD9E64"/>
<path d="M234.08 351.6L239.23 356.44C239.56 356.75 240.01 356.87 240.44 356.78L247.35 355.28C248.45 355.04 249.34 356.16 248.86 357.18L245.85 363.58C245.66 363.98 245.68 364.45 245.91 364.84L249.47 370.95C250.04 371.92 249.24 373.12 248.13 372.98L241.12 372.09C240.68 372.03 240.24 372.2 239.94 372.53L235.23 377.81C234.48 378.65 233.1 378.26 232.89 377.16L231.57 370.21C231.49 369.77 231.19 369.4 230.78 369.22L224.31 366.37C223.28 365.92 223.22 364.48 224.2 363.94L230.4 360.54C230.79 360.33 231.05 359.93 231.1 359.49L231.81 352.45C231.92 351.34 233.27 350.83 234.08 351.6Z" fill="#8F7A61"/>
<path d="M371 29.3301L377.38 36.9801C377.78 37.4601 378.4 37.7201 379.02 37.6601L388.94 36.7401C390.52 36.5901 391.57 38.3201 390.73 39.6601L385.42 48.0901C385.09 48.6201 385.03 49.2801 385.28 49.8601L389.22 59.0101C389.85 60.4601 388.53 62.0001 387 61.6101L377.34 59.1701C376.73 59.0201 376.09 59.1701 375.61 59.5901L368.12 66.1601C366.93 67.2001 365.06 66.4301 364.96 64.8501L364.3 54.9101C364.26 54.2801 363.91 53.7201 363.37 53.4001L354.8 48.3101C353.44 47.5001 353.6 45.4901 355.07 44.9001L364.32 41.2001C364.9 40.9701 365.33 40.4601 365.47 39.8501L367.66 30.1301C368.02 28.5901 369.99 28.1101 371 29.3301Z" fill="#8F7A61"/>
<path d="M431.661 255.05L432.501 258.25C432.551 258.45 432.701 258.62 432.901 258.69L436.021 259.81C436.521 259.99 436.591 260.66 436.151 260.94L433.361 262.73C433.181 262.84 433.081 263.04 433.071 263.24L432.971 266.55C432.951 267.08 432.341 267.35 431.931 267.02L429.361 264.92C429.201 264.79 428.981 264.74 428.781 264.8L425.601 265.72C425.091 265.87 424.641 265.37 424.831 264.88L426.031 261.79C426.111 261.6 426.081 261.38 425.961 261.2L424.101 258.46C423.801 258.02 424.141 257.44 424.661 257.47L427.971 257.66C428.181 257.67 428.381 257.58 428.511 257.42L430.541 254.8C430.871 254.41 431.521 254.54 431.661 255.05Z" fill="#8F7A61"/>
<path d="M429.062 188.15L428.232 198.08C428.182 198.71 428.442 199.32 428.922 199.72L436.632 206.03C437.852 207.03 437.402 209 435.862 209.36L426.162 211.64C425.552 211.78 425.052 212.22 424.822 212.8L421.202 222.08C420.632 223.55 418.612 223.73 417.792 222.38L412.622 213.86C412.292 213.32 411.732 212.98 411.102 212.94L401.152 212.37C399.572 212.28 398.782 210.42 399.812 209.22L406.322 201.67C406.732 201.19 406.882 200.55 406.722 199.94L404.192 190.3C403.792 188.77 405.322 187.44 406.772 188.06L415.962 191.92C416.542 192.16 417.202 192.11 417.732 191.77L426.112 186.39C427.462 185.53 429.192 186.57 429.062 188.15Z" fill="#F5F5F5"/>
<path d="M32.4421 182.58L38.0821 188.18C38.4421 188.53 38.9421 188.69 39.4321 188.6L47.2421 187.13C48.4821 186.9 49.4521 188.19 48.8821 189.31L45.3021 196.4C45.0721 196.85 45.0821 197.38 45.3221 197.82L49.1321 204.79C49.7421 205.9 48.8121 207.22 47.5621 207.02L39.7121 205.8C39.2121 205.72 38.7121 205.9 38.3721 206.26L32.9221 212.04C32.0521 212.96 30.5121 212.48 30.3121 211.24L29.0421 203.4C28.9621 202.91 28.6421 202.48 28.1921 202.27L21.0121 198.87C19.8721 198.33 19.8421 196.72 20.9721 196.14L28.0421 192.51C28.4921 192.28 28.7921 191.85 28.8521 191.35L29.8621 183.47C30.0221 182.22 31.5521 181.69 32.4421 182.58Z" fill="#8F7A61"/>
<path d="M134.663 56.9427L118.18 87.5454L129.563 93.6768L146.046 63.0741L134.663 56.9427Z" fill="#E0E0E0"/>
<path d="M137.745 58.5982L121.262 89.2009L132.645 95.3323L149.128 64.7296L137.745 58.5982Z" fill="#8F7A61"/>
<path d="M137.167 67.8498C136.407 69.2698 136.937 71.0398 138.357 71.7998C139.777 72.5598 141.547 72.0298 142.307 70.6098C143.067 69.1898 142.537 67.4198 141.117 66.6598C139.707 65.8998 137.937 66.4298 137.167 67.8498Z" fill="white"/>
<path d="M132.208 61.5598C132.348 61.5398 132.618 62.8898 132.808 64.5598C132.998 66.2298 133.038 67.6098 132.898 67.6198C132.758 67.6398 132.488 66.2898 132.298 64.6198C132.098 62.9398 132.068 61.5698 132.208 61.5598Z" fill="#8F7A61"/>
<path d="M130.376 64.9399C130.516 64.9199 130.786 66.2699 130.976 67.9399C131.166 69.6099 131.206 70.9899 131.066 70.9999C130.926 71.0199 130.656 69.6699 130.466 67.9999C130.276 66.3299 130.236 64.9599 130.376 64.9399Z" fill="#8F7A61"/>
<path d="M128.556 68.3298C128.696 68.3098 128.966 69.6598 129.156 71.3298C129.346 73.0098 129.386 74.3798 129.246 74.3898C129.106 74.4098 128.836 73.0598 128.646 71.3898C128.456 69.7098 128.416 68.3398 128.556 68.3298Z" fill="#8F7A61"/>
<path d="M126.739 71.7099C126.879 71.6899 127.149 73.0399 127.339 74.7099C127.529 76.3899 127.569 77.7599 127.429 77.7699C127.289 77.7899 127.019 76.4399 126.829 74.7699C126.629 73.0999 126.589 71.7299 126.739 71.7099Z" fill="#8F7A61"/>
<path d="M124.908 75.0998C125.048 75.0798 125.318 76.4298 125.508 78.0998C125.698 79.7798 125.738 81.1498 125.598 81.1598C125.458 81.1798 125.188 79.8298 124.998 78.1598C124.808 76.4798 124.768 75.1098 124.908 75.0998Z" fill="#8F7A61"/>
<path d="M123.087 78.48C123.227 78.46 123.497 79.81 123.687 81.48C123.877 83.15 123.917 84.53 123.777 84.54C123.637 84.56 123.367 83.21 123.177 81.54C122.987 79.87 122.947 78.5 123.087 78.48Z" fill="#8F7A61"/>
<path d="M121.267 81.8698C121.407 81.8498 121.677 83.1998 121.867 84.8698C122.057 86.5498 122.097 87.9198 121.957 87.9298C121.817 87.9498 121.547 86.5998 121.357 84.9298C121.157 83.2598 121.117 81.8798 121.267 81.8698Z" fill="#8F7A61"/>
<path d="M133.849 58.5898C133.989 58.5698 134.259 59.9198 134.449 61.5898C134.639 63.2698 134.679 64.6398 134.539 64.6498C134.399 64.6698 134.129 63.3198 133.939 61.6498C133.739 59.9698 133.699 58.5998 133.849 58.5898Z" fill="#8F7A61"/>
<path d="M135.877 57.59C136.017 57.57 136.227 58.36 136.337 59.36C136.447 60.35 136.427 61.17 136.277 61.18C136.137 61.2 135.927 60.41 135.817 59.41C135.707 58.43 135.737 57.61 135.877 57.59Z" fill="#8F7A61"/>
<path d="M113.73 82.04L127.68 54.67C127.68 54.67 122.29 50.26 121.33 39.18C120.7 31.85 125.1 26.82 125.69 24.07C126.06 22.39 122.47 20.84 120.88 20.2C119.37 19.6 116.59 19.12 114.39 20.84C110.31 24.03 107.5 35.39 107.5 35.39C107.5 35.39 107.52 38.03 104.68 36.49L94.53 31.02C93.21 30.31 91.68 30.05 90.22 30.37C88.94 30.65 87.58 31.4 86.8 33.16C85.02 37.19 86.13 40.01 85.69 40.82C85.25 41.63 83.37 42.45 82.92 45.23C82.47 48.01 83.09 48.08 82.49 49.2C81.89 50.32 80.56 53.27 80.34 55.39C80.12 57.5 80.5 58.75 80.5 58.75C80.5 58.75 78.07 62.24 78.09 64.93C78.12 68.45 83.85 73.87 87.3 74.09C88.91 74.19 95.73 76.01 98.96 76.83C102.18 77.66 111.69 79.24 113.73 82.04Z" fill="#E0E0E0"/>
<path d="M117.201 84.3099L131.931 56.9599C131.931 56.9599 126.542 52.5499 125.582 41.4699C124.951 34.1399 125.702 28.9099 126.302 26.1599C126.672 24.4799 125.801 22.7499 124.211 22.1199C122.701 21.5199 120.682 21.1599 118.482 22.8699C114.402 26.0599 111.741 37.6899 111.741 37.6899C111.741 37.6899 111.761 40.3299 108.921 38.7899L98.7715 33.3199C97.4515 32.6099 95.9215 32.3499 94.4615 32.6699C93.1815 32.9499 91.8215 33.6999 91.0415 35.4599C89.2615 39.4899 90.3715 42.3099 89.9315 43.1199C89.4915 43.9299 87.6115 44.7499 87.1615 47.5299C86.7115 50.3099 87.3315 50.3799 86.7315 51.4999C86.1315 52.6199 84.8015 55.5699 84.5815 57.6899C84.3615 59.7999 84.7415 61.0499 84.7415 61.0499C84.7415 61.0499 82.4615 64.5499 82.3315 67.2299C82.2015 69.9099 85.8615 73.3299 87.2915 74.0999C88.7115 74.8699 99.9815 78.3099 103.211 79.1299C106.431 79.9499 115.161 81.5099 117.201 84.3099Z" fill="#8F7A61"/>
<path d="M109.492 29.4401C109.632 29.4101 110.152 31.1301 110.782 33.2401C111.412 35.3601 111.932 37.0801 111.792 37.1301C111.662 37.1801 110.922 35.5301 110.282 33.3901C109.642 31.2601 109.352 29.4701 109.492 29.4401Z" fill="#8F7A61"/>
<path d="M110.908 25.4799C111.048 25.4499 111.518 26.9999 112.248 28.8699C112.978 30.7399 113.468 32.3299 113.318 32.3699C113.188 32.4099 112.498 30.9399 111.758 29.0499C111.018 27.1599 110.768 25.5099 110.908 25.4799Z" fill="#8F7A61"/>
<path d="M112.961 22.3399C113.121 22.3099 113.471 23.5799 114.161 25.0399C114.891 26.5099 115.241 27.8399 115.101 27.8799C114.961 27.9199 114.411 26.7299 113.681 25.2599C112.971 23.7299 112.831 22.3599 112.961 22.3399Z" fill="#8F7A61"/>
<path d="M115.559 20.19C115.689 20.14 116.159 21.01 116.589 22.13C117.029 23.26 117.269 24.21 117.139 24.26C117.009 24.31 116.539 23.44 116.109 22.32C115.669 21.19 115.429 20.24 115.559 20.19Z" fill="#8F7A61"/>
<path d="M118.501 19.68C118.621 19.61 119.001 20.06 119.341 20.69C119.681 21.32 119.851 21.88 119.721 21.95C119.591 22.02 119.221 21.56 118.881 20.94C118.541 20.31 118.371 19.75 118.501 19.68Z" fill="#8F7A61"/>
<path d="M107.682 34.6799C107.812 34.6299 108.302 35.5499 108.762 36.7399C109.222 37.9299 109.482 38.9399 109.352 38.9899C109.222 39.0399 108.732 38.1199 108.282 36.9299C107.812 35.7399 107.552 34.7299 107.682 34.6799Z" fill="#8F7A61"/>
<path d="M86.0181 35.32C86.1481 35.25 87.1281 36.9 88.2081 39.01C89.2881 41.11 90.0681 42.87 89.9381 42.94C89.8081 43.01 88.8281 41.36 87.7481 39.25C86.6681 37.14 85.8881 35.38 86.0181 35.32Z" fill="#8F7A61"/>
<path d="M88.6799 30.7699C88.8099 30.6999 89.4299 31.6699 90.0799 32.9199C90.7199 34.1799 91.1399 35.2499 91.0099 35.3099C90.8799 35.3799 90.2599 34.4099 89.6099 33.1599C88.9699 31.8999 88.5499 30.8299 88.6799 30.7699Z" fill="#8F7A61"/>
<path d="M83.9983 42.7899C84.1183 42.7099 84.9983 43.8399 85.8083 45.4099C86.6183 46.9699 87.0384 48.3499 86.9084 48.3999C86.7684 48.4499 86.1483 47.1899 85.3483 45.6499C84.5483 44.1099 83.8783 42.8699 83.9983 42.7899Z" fill="#8F7A61"/>
<path d="M82.6381 48.86C82.7681 48.8 83.4581 50.02 84.1881 51.59C84.9181 53.16 85.3981 54.48 85.2681 54.54C85.1381 54.6 84.4481 53.38 83.7181 51.81C82.9981 50.24 82.5081 48.92 82.6381 48.86Z" fill="#8F7A61"/>
<path d="M80.4706 55.73C80.6106 55.68 81.2906 57.16 82.1706 58.96C83.0506 60.76 83.8006 62.21 83.6706 62.28C83.5506 62.35 82.5906 61.01 81.7006 59.19C80.8106 57.36 80.3406 55.78 80.4706 55.73Z" fill="#8F7A61"/>
<path d="M78.9501 61.68C79.0801 61.63 79.8801 63.35 80.9101 65.45C81.9301 67.56 82.8001 69.24 82.6801 69.32C82.5601 69.4 81.4701 67.81 80.4401 65.68C79.4001 63.56 78.8101 61.73 78.9501 61.68Z" fill="#8F7A61"/>
<path d="M48.5848 89.9375L38.7227 111.993L46.9296 115.663L56.7917 93.6072L48.5848 89.9375Z" fill="#E0E0E0"/>
<path d="M46.366 88.9492L36.5039 111.005L44.7109 114.675L54.573 92.6189L46.366 88.9492Z" fill="#8F7A61"/>
<path d="M44.6325 108.22C45.0925 107.2 44.6325 106 43.6125 105.54C42.5925 105.08 41.3925 105.54 40.9325 106.56C40.4725 107.58 40.9325 108.78 41.9525 109.24C42.9825 109.71 44.1825 109.25 44.6325 108.22Z" fill="white"/>
<path d="M48.4027 112.33C48.3027 112.35 48.0527 111.43 47.8327 110.28C47.6127 109.13 47.5227 108.18 47.6127 108.16C47.7127 108.14 47.9627 109.06 48.1827 110.21C48.4027 111.37 48.4927 112.32 48.4027 112.33Z" fill="#8F7A61"/>
<path d="M49.4925 109.89C49.3925 109.91 49.1425 108.99 48.9225 107.84C48.7025 106.69 48.6125 105.74 48.7025 105.72C48.8025 105.7 49.0525 106.62 49.2725 107.77C49.4925 108.93 49.5925 109.88 49.4925 109.89Z" fill="#8F7A61"/>
<path d="M50.5824 107.45C50.4824 107.47 50.2324 106.55 50.0124 105.4C49.7924 104.25 49.7024 103.3 49.7924 103.28C49.8924 103.26 50.1424 104.18 50.3624 105.33C50.5824 106.49 50.6824 107.43 50.5824 107.45Z" fill="#8F7A61"/>
<path d="M51.6722 105.01C51.5722 105.03 51.3222 104.11 51.1022 102.96C50.8822 101.81 50.7922 100.86 50.8822 100.84C50.9822 100.82 51.2322 101.74 51.4522 102.89C51.6722 104.05 51.7722 104.99 51.6722 105.01Z" fill="#8F7A61"/>
<path d="M52.7621 102.57C52.6621 102.59 52.4121 101.67 52.1921 100.52C51.9721 99.37 51.8821 98.42 51.9721 98.4C52.0721 98.38 52.3221 99.3 52.5421 100.45C52.7621 101.6 52.8621 102.55 52.7621 102.57Z" fill="#8F7A61"/>
<path d="M53.8519 100.13C53.7519 100.15 53.5019 99.23 53.2819 98.08C53.0619 96.93 52.9719 95.98 53.0619 95.96C53.1619 95.94 53.4119 96.86 53.6319 98.01C53.8519 99.16 53.9519 100.11 53.8519 100.13Z" fill="#8F7A61"/>
<path d="M54.9418 97.6901C54.8418 97.7101 54.5918 96.7901 54.3718 95.6401C54.1518 94.4901 54.0618 93.5401 54.1518 93.5201C54.2518 93.5001 54.5018 94.4201 54.7218 95.5701C54.9518 96.7201 55.0418 97.6701 54.9418 97.6901Z" fill="#8F7A61"/>
<path d="M47.4105 114.48C47.3105 114.5 47.0605 113.58 46.8405 112.43C46.6205 111.28 46.5305 110.33 46.6205 110.31C46.7205 110.29 46.9705 111.21 47.1905 112.36C47.4105 113.51 47.5105 114.46 47.4105 114.48Z" fill="#8F7A61"/>
<path d="M46.0526 115.27C45.9526 115.29 45.7726 114.75 45.6426 114.07C45.5126 113.39 45.4926 112.82 45.5826 112.8C45.6826 112.78 45.8626 113.32 45.9926 114C46.1326 114.68 46.1526 115.25 46.0526 115.27Z" fill="#8F7A61"/>
<path d="M60.1606 97.1799L51.8906 116.87C51.8906 116.87 55.8506 119.65 57.0806 127.28C57.8906 132.33 55.1006 136.04 54.8306 137.98C54.6606 139.16 57.2306 140.06 58.3706 140.41C59.4506 140.75 61.4006 140.94 62.8406 139.63C65.5106 137.21 66.8806 129.19 66.8806 129.19C66.8806 129.19 66.7306 127.36 68.7806 128.28L76.1006 131.55C77.0506 131.97 78.1206 132.08 79.1206 131.78C80.0006 131.52 80.9006 130.93 81.3506 129.67C82.3806 126.79 81.4706 124.89 81.7306 124.3C81.9906 123.71 83.2606 123.05 83.4206 121.1C83.5906 119.15 83.1606 119.13 83.5206 118.33C83.8806 117.52 84.6506 115.41 84.7006 113.93C84.7406 112.45 84.4206 111.61 84.4206 111.61C84.4206 111.61 85.9306 109.06 85.7706 107.2C85.5706 104.76 81.3206 101.3 78.9206 101.32C77.8006 101.33 72.9806 100.42 70.6906 100.02C68.4006 99.6299 61.7206 99.0199 60.1606 97.1799Z" fill="#E0E0E0"/>
<path d="M57.642 95.79L48.832 115.5C48.832 115.5 52.792 118.28 54.022 125.91C54.832 130.96 54.582 134.63 54.302 136.56C54.132 137.74 54.822 138.9 55.962 139.26C57.042 139.6 58.452 139.75 59.892 138.44C62.562 136.02 63.802 127.82 63.802 127.82C63.802 127.82 63.652 125.99 65.702 126.91L73.022 130.18C73.972 130.6 75.042 130.71 76.042 130.41C76.922 130.15 77.822 129.56 78.272 128.3C79.302 125.42 78.392 123.52 78.652 122.93C78.912 122.34 80.182 121.68 80.342 119.73C80.512 117.78 80.082 117.76 80.442 116.96C80.802 116.15 81.572 114.04 81.622 112.56C81.662 111.08 81.342 110.24 81.342 110.24C81.342 110.24 82.742 107.7 82.692 105.83C82.652 103.96 79.932 101.78 78.902 101.32C77.872 100.86 69.892 99.05 67.612 98.65C65.332 98.26 59.192 97.63 57.642 95.79Z" fill="#8F7A61"/>
<path d="M65.7908 133.44C65.6908 133.47 65.2508 132.3 64.7008 130.87C64.1508 129.43 63.7108 128.27 63.8008 128.23C63.8908 128.19 64.4908 129.3 65.0408 130.75C65.5908 132.19 65.8908 133.41 65.7908 133.44Z" fill="#8F7A61"/>
<path d="M65.0113 136.26C64.9113 136.29 64.5113 135.24 63.9113 133.98C63.3113 132.72 62.8913 131.65 62.9913 131.6C63.0813 131.56 63.6313 132.55 64.2413 133.82C64.8413 135.1 65.1013 136.23 65.0113 136.26Z" fill="#8F7A61"/>
<path d="M63.753 138.54C63.643 138.57 63.333 137.7 62.783 136.73C62.203 135.75 61.883 134.84 61.983 134.81C62.073 134.77 62.513 135.57 63.103 136.56C63.673 137.57 63.833 138.52 63.753 138.54Z" fill="#8F7A61"/>
<path d="M62.0506 140.17C61.9606 140.21 61.6006 139.63 61.2406 138.88C60.8806 138.12 60.6606 137.47 60.7506 137.43C60.8406 137.39 61.2006 137.97 61.5606 138.72C61.9206 139.47 62.1406 140.12 62.0506 140.17Z" fill="#8F7A61"/>
<path d="M60.041 140.67C59.961 140.73 59.671 140.43 59.411 140.01C59.141 139.59 59.001 139.21 59.081 139.16C59.171 139.11 59.451 139.4 59.711 139.82C59.981 140.23 60.131 140.61 60.041 140.67Z" fill="#8F7A61"/>
<path d="M66.7801 129.71C66.6901 129.75 66.3101 129.14 65.9301 128.33C65.5501 127.53 65.3201 126.84 65.4101 126.8C65.5001 126.76 65.8801 127.37 66.2601 128.18C66.6301 128.98 66.8701 129.67 66.7801 129.71Z" fill="#8F7A61"/>
<path d="M81.7631 128.17C81.6731 128.22 80.9131 127.13 80.0531 125.73C79.1931 124.33 78.5631 123.15 78.6531 123.1C78.7431 123.05 79.5031 124.14 80.3631 125.54C81.2231 126.93 81.8531 128.11 81.7631 128.17Z" fill="#8F7A61"/>
<path d="M80.1532 131.46C80.0632 131.51 79.5832 130.88 79.0732 130.04C78.5632 129.2 78.2132 128.48 78.3032 128.43C78.3932 128.38 78.8732 129.01 79.3832 129.85C79.8932 130.68 80.2432 131.4 80.1532 131.46Z" fill="#8F7A61"/>
<path d="M82.7824 122.88C82.7024 122.94 82.0324 122.2 81.3924 121.16C80.7524 120.12 80.3924 119.19 80.4824 119.15C80.5724 119.11 81.0724 119.95 81.7024 120.97C82.3324 121.99 82.8624 122.82 82.7824 122.88Z" fill="#8F7A61"/>
<path d="M83.4115 118.6C83.3215 118.65 82.7815 117.84 82.2015 116.78C81.6215 115.73 81.2115 114.84 81.3015 114.79C81.3915 114.74 81.9315 115.55 82.5115 116.61C83.1015 117.66 83.5015 118.56 83.4115 118.6Z" fill="#8F7A61"/>
<path d="M84.5729 113.73C84.4829 113.77 83.9329 112.78 83.2329 111.58C82.5329 110.38 81.9429 109.41 82.0229 109.35C82.1029 109.29 82.8329 110.17 83.5429 111.39C84.2529 112.61 84.6529 113.69 84.5729 113.73Z" fill="#8F7A61"/>
<path d="M85.3202 109.53C85.2302 109.57 84.5902 108.42 83.7702 107.01C82.9502 105.6 82.2702 104.48 82.3502 104.42C82.4302 104.36 83.2602 105.41 84.0902 106.83C84.9102 108.25 85.4102 109.49 85.3202 109.53Z" fill="#8F7A61"/>
<path d="M140.659 127.04L143.869 131.72C144.069 132.02 144.409 132.19 144.769 132.19L150.449 132.2C151.349 132.2 151.859 133.24 151.309 133.95L147.849 138.45C147.629 138.73 147.569 139.11 147.679 139.45L149.429 144.85C149.709 145.71 148.879 146.51 148.029 146.21L142.679 144.31C142.339 144.19 141.969 144.24 141.679 144.45L137.079 147.78C136.349 148.31 135.329 147.77 135.349 146.87L135.499 141.19C135.509 140.83 135.339 140.49 135.049 140.28L130.459 136.93C129.729 136.4 129.929 135.26 130.789 135.01L136.239 133.4C136.579 133.3 136.859 133.03 136.969 132.69L138.729 127.29C139.009 126.46 140.149 126.3 140.659 127.04Z" fill="#CD9E64"/>
<path d="M391.911 241.35L395.931 243.44C396.181 243.57 396.491 243.57 396.741 243.44L400.741 241.31C401.371 240.97 402.121 241.51 402.001 242.22L401.261 246.69C401.211 246.97 401.311 247.26 401.511 247.46L404.771 250.6C405.291 251.1 405.011 251.98 404.301 252.08L399.821 252.76C399.541 252.8 399.291 252.98 399.171 253.24L397.191 257.31C396.881 257.96 395.961 257.96 395.631 257.32L393.601 253.27C393.471 253.01 393.231 252.84 392.941 252.8L388.451 252.17C387.741 252.07 387.451 251.2 387.961 250.69L391.191 247.51C391.391 247.31 391.491 247.02 391.441 246.74L390.651 242.28C390.531 241.57 391.271 241.02 391.911 241.35Z" fill="#CD9E64"/>
<path d="M167.49 107.9L168.34 110.48C168.39 110.64 168.52 110.77 168.69 110.82L171.3 111.58C171.71 111.7 171.81 112.25 171.46 112.5L169.27 114.11C169.13 114.21 169.05 114.37 169.06 114.55L169.14 117.27C169.15 117.7 168.66 117.96 168.31 117.71L166.11 116.12C165.97 116.02 165.79 115.99 165.63 116.05L163.07 116.96C162.66 117.11 162.27 116.72 162.4 116.31L163.23 113.72C163.28 113.56 163.25 113.38 163.15 113.24L161.49 111.09C161.23 110.75 161.47 110.25 161.9 110.25L164.62 110.24C164.79 110.24 164.95 110.15 165.05 110.01L166.58 107.77C166.8 107.41 167.35 107.49 167.49 107.9Z" fill="#CD9E64"/>
<path d="M242.302 92.8799L276.442 162.05C278.592 166.41 282.752 169.43 287.572 170.13L363.912 181.22C376.032 182.98 380.872 197.88 372.102 206.43L316.862 260.27C313.382 263.66 311.792 268.56 312.612 273.35L334.672 354.08C335.252 364.56 318.802 371.7 304.212 364.95L235.932 329.05C231.632 326.79 226.482 326.79 222.182 329.05L153.902 364.95C143.062 370.65 130.392 361.44 132.462 349.37L145.502 273.34C146.322 268.55 144.732 263.66 141.252 260.26L86.0017 206.44C77.2317 197.89 82.0717 183 94.1917 181.23L170.532 170.14C175.342 169.44 179.502 166.42 181.662 162.06L214.842 94.8199C218.982 86.4499 223.992 83.1499 239.802 83.1499C245.072 83.1499 239.592 87.3899 242.302 92.8799Z" fill="#CD9E64"/>
<path opacity="0.3" d="M242.302 92.8799L276.442 162.05C278.592 166.41 282.752 169.43 287.572 170.13L363.912 181.22C376.032 182.98 380.872 197.88 372.102 206.43L316.862 260.27C313.382 263.66 311.792 268.56 312.612 273.35L334.672 354.08C335.252 364.56 318.802 371.7 304.212 364.95L235.932 329.05C231.632 326.79 226.482 326.79 222.182 329.05L153.902 364.95C143.062 370.65 130.392 361.44 132.462 349.37L145.502 273.34C146.322 268.55 144.732 263.66 141.252 260.26L86.0017 206.44C77.2317 197.89 82.0717 183 94.1917 181.23L170.532 170.14C175.342 169.44 179.502 166.42 181.662 162.06L214.842 94.8199C218.982 86.4499 223.992 83.1499 239.802 83.1499C245.072 83.1499 239.592 87.3899 242.302 92.8799Z" fill="black"/>
<path d="M149.983 259.09C150.003 259.23 147.793 259.6 145.053 259.91C142.313 260.22 140.083 260.35 140.063 260.21C140.043 260.07 142.253 259.7 144.993 259.39C147.733 259.08 149.963 258.95 149.983 259.09Z" fill="#CD9E64"/>
<path d="M151.534 265.56C151.554 265.7 150.344 265.96 148.854 266.12C147.354 266.29 146.124 266.31 146.114 266.17C146.094 266.03 147.304 265.77 148.794 265.61C150.294 265.44 151.524 265.42 151.534 265.56Z" fill="#CD9E64"/>
<path d="M145.213 253.53C145.233 253.67 142.803 254.06 139.793 254.4C136.783 254.74 134.323 254.9 134.313 254.75C134.293 254.61 136.723 254.22 139.743 253.88C142.743 253.54 145.193 253.39 145.213 253.53Z" fill="#CD9E64"/>
<path d="M139.861 248.2C139.881 248.34 137.451 248.73 134.441 249.07C131.431 249.41 128.971 249.57 128.961 249.42C128.951 249.27 131.371 248.89 134.391 248.55C137.391 248.22 139.841 248.06 139.861 248.2Z" fill="#CD9E64"/>
<path d="M134.513 242.87C134.533 243.01 132.103 243.4 129.093 243.74C126.083 244.08 123.623 244.24 123.613 244.09C123.593 243.95 126.023 243.56 129.043 243.22C132.043 242.89 134.493 242.73 134.513 242.87Z" fill="#CD9E64"/>
<path d="M129.162 237.54C129.182 237.68 126.752 238.07 123.742 238.41C120.732 238.75 118.272 238.91 118.262 238.76C118.242 238.62 120.672 238.23 123.692 237.89C126.692 237.56 129.142 237.4 129.162 237.54Z" fill="#CD9E64"/>
<path d="M123.81 232.21C123.83 232.35 121.4 232.74 118.39 233.08C115.38 233.42 112.92 233.58 112.91 233.43C112.89 233.29 115.32 232.9 118.34 232.56C121.34 232.23 123.79 232.07 123.81 232.21Z" fill="#CD9E64"/>
<path d="M118.463 226.88C118.483 227.02 116.053 227.41 113.043 227.75C110.033 228.09 107.573 228.25 107.563 228.1C107.543 227.96 109.973 227.57 112.993 227.23C115.993 226.9 118.443 226.74 118.463 226.88Z" fill="#CD9E64"/>
<path d="M113.111 221.55C113.131 221.69 110.701 222.08 107.691 222.42C104.681 222.76 102.221 222.92 102.211 222.77C102.191 222.63 104.621 222.24 107.641 221.9C110.641 221.57 113.091 221.41 113.111 221.55Z" fill="#CD9E64"/>
<path d="M107.763 216.22C107.783 216.36 105.353 216.75 102.343 217.09C99.3334 217.43 96.8734 217.59 96.8634 217.44C96.8434 217.3 99.2734 216.91 102.293 216.57C105.293 216.24 107.743 216.08 107.763 216.22Z" fill="#CD9E64"/>
<path d="M92.0311 193.06C92.0411 193.2 89.7711 193.42 86.9611 193.53C84.1511 193.65 81.8811 193.63 81.8711 193.48C81.8611 193.34 84.1311 193.12 86.9411 193.01C89.7511 192.9 92.0311 192.92 92.0311 193.06Z" fill="#CD9E64"/>
<path d="M93.6906 187.38C93.6906 187.52 91.5506 187.59 88.9106 187.52C86.2706 187.45 84.1406 187.28 84.1406 187.14C84.1406 187 86.2806 186.93 88.9206 187C91.5506 187.06 93.6906 187.24 93.6906 187.38Z" fill="#CD9E64"/>
<path d="M98.8808 182.02C98.8808 182.16 97.1908 182.31 95.0908 182.36C93.0008 182.4 91.2908 182.32 91.3008 182.17C91.2908 182.03 92.9908 181.88 95.0808 181.84C97.1808 181.79 98.8808 181.88 98.8808 182.02Z" fill="#CD9E64"/>
<path d="M102.412 210.9C102.432 211.04 100.002 211.43 96.9918 211.77C93.9818 212.11 91.5218 212.27 91.5118 212.12C91.4918 211.98 93.9218 211.59 96.9418 211.25C99.9418 210.91 102.392 210.75 102.412 210.9Z" fill="#CD9E64"/>
<path d="M97.6501 205.16C97.6701 205.3 95.2401 205.69 92.2301 206.03C89.2201 206.37 86.7601 206.53 86.7501 206.38C86.7301 206.24 89.1601 205.85 92.1801 205.51C95.1801 205.18 97.6301 205.02 97.6501 205.16Z" fill="#CD9E64"/>
<path d="M93.1726 199.48C93.1926 199.62 90.7726 200.01 87.7726 200.35C84.7726 200.69 82.3326 200.84 82.3126 200.7C82.2926 200.56 84.7126 200.17 87.7126 199.83C90.7126 199.49 93.1626 199.34 93.1726 199.48Z" fill="#CD9E64"/>
<path d="M310.194 357.95C310.254 358.08 308.284 359.13 305.784 360.3C303.284 361.47 301.214 362.31 301.154 362.18C301.094 362.05 303.064 361 305.564 359.83C308.064 358.67 310.134 357.82 310.194 357.95Z" fill="#CD9E64"/>
<path d="M313.731 363.58C313.791 363.71 312.731 364.33 311.371 364.97C310.001 365.61 308.851 366.02 308.791 365.89C308.731 365.76 309.791 365.14 311.151 364.5C312.521 363.87 313.671 363.45 313.731 363.58Z" fill="#CD9E64"/>
<path d="M303.894 354.21C303.954 354.34 301.784 355.49 299.034 356.77C296.284 358.06 294.014 358.99 293.954 358.86C293.894 358.73 296.064 357.58 298.814 356.3C301.554 355.02 303.824 354.08 303.894 354.21Z" fill="#CD9E64"/>
<path d="M297.113 350.88C297.173 351.01 295.003 352.16 292.253 353.44C289.503 354.73 287.233 355.66 287.173 355.53C287.113 355.4 289.283 354.25 292.033 352.97C294.773 351.69 297.053 350.75 297.113 350.88Z" fill="#CD9E64"/>
<path d="M290.332 347.55C290.392 347.68 288.222 348.83 285.472 350.11C282.722 351.4 280.452 352.33 280.392 352.2C280.332 352.07 282.502 350.92 285.252 349.64C288.002 348.35 290.272 347.42 290.332 347.55Z" fill="#CD9E64"/>
<path d="M283.562 344.21C283.622 344.34 281.452 345.49 278.702 346.77C275.952 348.06 273.682 348.99 273.622 348.86C273.562 348.73 275.732 347.58 278.482 346.3C281.222 345.02 283.502 344.08 283.562 344.21Z" fill="#CD9E64"/>
<path d="M276.785 340.88C276.845 341.01 274.675 342.16 271.925 343.44C269.175 344.73 266.905 345.66 266.845 345.53C266.785 345.4 268.955 344.25 271.705 342.97C274.455 341.69 276.725 340.75 276.785 340.88Z" fill="#CD9E64"/>
<path d="M270.012 337.55C270.072 337.68 267.902 338.83 265.152 340.11C262.402 341.4 260.132 342.33 260.072 342.2C260.012 342.07 262.182 340.92 264.932 339.64C267.672 338.35 269.952 337.42 270.012 337.55Z" fill="#CD9E64"/>
<path d="M263.234 334.21C263.294 334.34 261.124 335.49 258.374 336.77C255.624 338.06 253.354 338.99 253.294 338.86C253.234 338.73 255.404 337.58 258.154 336.3C260.904 335.02 263.174 334.08 263.234 334.21Z" fill="#CD9E64"/>
<path d="M256.465 330.88C256.525 331.01 254.355 332.16 251.605 333.44C248.855 334.73 246.585 335.66 246.525 335.53C246.465 335.4 248.635 334.25 251.385 332.97C254.125 331.68 256.405 330.75 256.465 330.88Z" fill="#CD9E64"/>
<path d="M249.683 327.54C249.743 327.67 247.573 328.82 244.823 330.1C242.073 331.39 239.803 332.32 239.743 332.19C239.683 332.06 241.853 330.91 244.603 329.63C247.353 328.35 249.623 327.41 249.683 327.54Z" fill="#CD9E64"/>
<path d="M243.344 323.64C243.404 323.77 241.234 324.92 238.484 326.2C235.734 327.49 233.464 328.42 233.404 328.29C233.344 328.16 235.514 327.01 238.264 325.73C241.004 324.45 243.284 323.51 243.344 323.64Z" fill="#CD9E64"/>
<path d="M235.023 320.75C235.083 320.88 234.023 321.51 232.653 322.15C231.283 322.79 230.123 323.21 230.053 323.08C229.993 322.95 231.053 322.32 232.423 321.68C233.793 321.03 234.953 320.62 235.023 320.75Z" fill="#CD9E64"/>
<path d="M253.053 91.38L287.193 160.55C289.343 164.91 293.503 167.93 298.323 168.63L374.663 179.72C386.783 181.48 391.623 196.38 382.853 204.93L327.613 258.77C324.133 262.16 322.543 267.06 323.363 271.85L336.403 347.88C338.473 359.95 325.803 369.16 314.963 363.46L246.683 327.56C242.383 325.3 237.233 325.3 232.933 327.56L164.653 363.46C153.813 369.16 141.143 359.95 143.213 347.88L156.253 271.85C157.073 267.06 155.483 262.17 152.003 258.77L96.7634 204.93C87.9934 196.38 92.8334 181.49 104.953 179.72L181.293 168.63C186.103 167.93 190.263 164.91 192.423 160.55L226.563 91.38C231.973 80.4 247.633 80.4 253.053 91.38Z" fill="#CD9E64"/>
<g opacity="0.3">
<path opacity="0.3" d="M327.834 217.25C326.444 205.9 324.704 194.19 318.614 184.51C312.524 174.84 300.864 167.72 289.754 170.43C287.714 182.26 285.564 194.82 292.304 204.76C293.864 207.05 295.864 209.16 296.554 211.84C297.294 214.74 296.364 217.77 295.654 220.68C290.344 242.46 297.664 265.11 304.894 286.33C312.794 309.5 320.994 333.22 336.514 352.14C336.394 346.41 335.404 342.09 334.694 337.77C333.564 330.91 332.394 324.48 330.864 315.51C329.104 305.23 324.854 282.86 323.304 271.26C322.884 268.16 323.514 265.19 324.614 262.89C325.824 260.34 327.674 258.72 329.014 257.41C330.174 256.28 330.974 255.5 330.974 255.5C329.704 238.02 329.964 234.65 327.834 217.25Z" fill="black"/>
</g>
<path d="M188.952 164.73C188.822 164.79 187.792 162.8 186.652 160.29C185.512 157.78 184.692 155.7 184.822 155.64C184.952 155.58 185.982 157.57 187.122 160.08C188.262 162.59 189.082 164.67 188.952 164.73Z" fill="#CD9E64"/>
<path d="M183.271 168.21C183.141 168.27 182.531 167.2 181.911 165.83C181.291 164.46 180.891 163.3 181.021 163.24C181.151 163.18 181.761 164.25 182.381 165.62C183.011 166.99 183.401 168.15 183.271 168.21Z" fill="#CD9E64"/>
<path d="M192.761 158.48C192.631 158.54 191.511 156.35 190.261 153.59C189.011 150.83 188.101 148.54 188.231 148.48C188.361 148.42 189.481 150.61 190.731 153.37C191.991 156.13 192.891 158.42 192.761 158.48Z" fill="#CD9E64"/>
<path d="M196.183 151.74C196.053 151.8 194.933 149.61 193.683 146.85C192.433 144.09 191.523 141.8 191.653 141.74C191.783 141.68 192.903 143.87 194.153 146.63C195.403 149.4 196.313 151.68 196.183 151.74Z" fill="#CD9E64"/>
<path d="M199.601 145.01C199.471 145.07 198.351 142.88 197.101 140.12C195.851 137.36 194.941 135.07 195.071 135.01C195.201 134.95 196.321 137.14 197.571 139.9C198.821 142.66 199.731 144.95 199.601 145.01Z" fill="#CD9E64"/>
<path d="M203.011 138.27C202.881 138.33 201.761 136.14 200.511 133.38C199.261 130.62 198.351 128.33 198.481 128.27C198.611 128.21 199.731 130.4 200.981 133.16C202.231 135.93 203.141 138.21 203.011 138.27Z" fill="#CD9E64"/>
<path d="M206.433 131.54C206.303 131.6 205.183 129.41 203.933 126.65C202.683 123.89 201.773 121.6 201.903 121.54C202.033 121.48 203.153 123.67 204.403 126.43C205.653 129.19 206.563 131.48 206.433 131.54Z" fill="#CD9E64"/>
<path d="M209.843 124.8C209.713 124.86 208.593 122.67 207.343 119.91C206.093 117.15 205.183 114.86 205.313 114.8C205.443 114.74 206.563 116.93 207.813 119.69C209.073 122.46 209.983 124.74 209.843 124.8Z" fill="#CD9E64"/>
<path d="M213.261 118.07C213.131 118.13 212.011 115.94 210.761 113.18C209.511 110.42 208.601 108.13 208.731 108.07C208.861 108.01 209.981 110.2 211.231 112.96C212.481 115.72 213.391 118.01 213.261 118.07Z" fill="#CD9E64"/>
<path d="M216.683 111.34C216.553 111.4 215.433 109.21 214.183 106.45C212.933 103.69 212.023 101.4 212.153 101.34C212.283 101.28 213.403 103.47 214.653 106.23C215.903 108.99 216.813 111.28 216.683 111.34Z" fill="#CD9E64"/>
<path d="M220.093 104.6C219.963 104.66 218.843 102.47 217.593 99.7101C216.343 96.9501 215.433 94.6601 215.563 94.6001C215.693 94.5401 216.813 96.7301 218.063 99.4901C219.323 102.26 220.223 104.54 220.093 104.6Z" fill="#CD9E64"/>
<path d="M224.081 98.31C223.951 98.37 222.831 96.18 221.581 93.42C220.331 90.66 219.421 88.37 219.551 88.31C219.681 88.25 220.801 90.44 222.051 93.2C223.301 95.96 224.211 98.25 224.081 98.31Z" fill="#CD9E64"/>
<path d="M227.072 90.02C226.942 90.08 226.332 89.01 225.702 87.63C225.072 86.25 224.672 85.08 224.802 85.02C224.932 84.96 225.542 86.03 226.172 87.41C226.802 88.79 227.202 89.96 227.072 90.02Z" fill="#CD9E64"/>
<path d="M229.98 95.9301C230.11 96.0001 222.3 111.61 212.54 130.79C202.78 149.98 194.761 165.49 194.631 165.42C194.501 165.35 202.311 149.75 212.071 130.55C221.831 111.37 229.85 95.8701 229.98 95.9301Z" fill="white"/>
<path d="M178.243 175.57C178.243 175.59 177.953 175.64 177.403 175.72C176.803 175.8 175.993 175.9 174.973 176.04C172.813 176.3 169.763 176.66 166.023 177.11C158.413 177.96 147.983 179.14 136.463 180.43C130.693 181.06 125.193 181.65 120.183 182.2C117.683 182.47 115.303 182.7 113.113 183.12C110.923 183.53 108.933 184.12 107.223 184.93C103.803 186.56 101.743 189.03 100.833 190.91C99.9034 192.82 99.9134 194.05 99.8434 194.03C99.8334 194.03 99.8334 193.96 99.8434 193.81C99.8534 193.67 99.8634 193.45 99.9134 193.17C100.013 192.62 100.203 191.8 100.653 190.82C101.523 188.87 103.593 186.3 107.073 184.59C108.803 183.74 110.823 183.11 113.033 182.68C115.243 182.24 117.633 181.99 120.133 181.71C125.143 181.15 130.643 180.54 136.413 179.9C147.943 178.66 158.373 177.55 165.993 176.73C169.743 176.35 172.793 176.05 174.963 175.83C175.983 175.74 176.803 175.67 177.403 175.61C177.953 175.57 178.243 175.56 178.243 175.57Z" fill="white"/>
<path d="M307.553 355.54C307.483 355.67 297.743 350.3 285.793 343.55C273.843 336.8 264.223 331.23 264.293 331.11C264.363 330.98 274.103 336.35 286.053 343.1C298.003 349.84 307.623 355.41 307.553 355.54Z" fill="white"/>
<path d="M250.472 323.47C250.422 323.58 248.652 322.49 245.452 321.86C242.272 321.19 237.652 321.24 232.882 322.67C228.102 324.1 224.112 326.3 221.252 327.88C219.892 328.65 218.752 329.29 217.872 329.79C217.072 330.24 216.622 330.47 216.602 330.44C216.582 330.41 217.002 330.12 217.772 329.61C218.542 329.11 219.662 328.4 221.072 327.55C223.892 325.88 227.892 323.61 232.742 322.16C237.592 320.71 242.312 320.72 245.532 321.49C247.152 321.86 248.402 322.34 249.232 322.75C249.652 322.94 249.962 323.13 250.172 323.25C250.372 323.39 250.482 323.46 250.472 323.47Z" fill="white"/>
<path d="M383.648 148.83L394.578 145.4C398.928 148.27 404.098 150 409.688 150.17C425.758 150.66 439.188 138.02 439.678 121.95C440.168 105.88 427.528 92.4498 411.458 91.9598C395.388 91.4698 381.958 104.11 381.478 120.18C381.278 126.89 383.368 133.14 387.028 138.17L387.018 138.16L383.648 148.83Z" fill="#EFE5D7"/>
<path d="M383.65 148.83C383.65 148.83 383.71 148.61 383.84 148.16C383.98 147.68 384.19 147.01 384.45 146.13C385.01 144.3 385.83 141.61 386.89 138.13C386.91 138.07 386.98 138.03 387.04 138.05C387.05 138.05 387.07 138.06 387.08 138.07L387.09 138.08L386.92 138.24C384.59 135.06 382.18 130.42 381.48 124.51C380.75 118.67 381.85 111.54 385.92 105.2C387.94 102.05 390.68 99.1399 394.04 96.8399C397.39 94.5399 401.36 92.8299 405.66 92.1199C409.95 91.4199 414.53 91.6499 418.92 92.9399C421.13 93.5399 423.24 94.5399 425.29 95.6499C427.27 96.8899 429.23 98.2299 430.91 99.9299C432.66 101.53 434.07 103.43 435.38 105.35C436.57 107.35 437.64 109.4 438.33 111.58C439.8 115.89 440.22 120.44 439.69 124.73C439.18 129.04 437.64 133.06 435.51 136.5C433.36 139.94 430.59 142.8 427.54 144.96C424.49 147.12 421.18 148.59 417.92 149.44C414.66 150.34 411.44 150.42 408.5 150.29C402.57 149.86 397.81 147.71 394.5 145.5L394.6 145.51C391.03 146.59 388.28 147.43 386.4 148C385.5 148.27 384.81 148.48 384.32 148.63C383.87 148.77 383.65 148.83 383.65 148.83C384.45 148.57 387.68 147.52 394.54 145.28C394.58 145.27 394.61 145.28 394.64 145.29C397.94 147.44 402.67 149.53 408.53 149.93C411.44 150.04 414.62 149.95 417.83 149.04C421.04 148.19 424.3 146.73 427.29 144.59C430.28 142.46 433.01 139.64 435.11 136.25C437.21 132.86 438.71 128.9 439.2 124.67C439.71 120.45 439.3 115.98 437.85 111.74C437.17 109.6 436.11 107.59 434.95 105.62C433.66 103.74 432.28 101.87 430.56 100.29C428.91 98.6299 426.99 97.2999 425.04 96.0899C423.02 94.9999 420.96 94.0099 418.78 93.4199C414.47 92.1399 409.97 91.9099 405.75 92.5999C401.53 93.2999 397.62 94.9699 394.32 97.2199C391.01 99.4799 388.3 102.33 386.3 105.43C382.26 111.66 381.15 118.68 381.84 124.46C382.5 130.31 384.84 134.91 387.12 138.09C387.16 138.14 387.15 138.22 387.09 138.26C387.05 138.29 386.98 138.29 386.94 138.26L386.93 138.25L387.12 138.19C384.94 144.89 383.91 148.04 383.65 148.83Z" fill="#263238"/>
<path d="M416.399 129.31L416.659 117.5C416.659 117.5 414.069 116.94 411.829 113.35C410.349 110.98 409.699 109.07 409.429 108.04C409.259 107.41 408.669 106.97 408.019 107.03C407.399 107.09 406.659 107.31 406.209 108.27C405.379 110.05 406.489 114.45 406.489 114.45C406.489 114.45 406.949 115.34 405.719 115.31L401.339 115.21C400.769 115.2 400.209 115.37 399.769 115.73C399.379 116.05 399.049 116.53 399.089 117.27C399.179 118.94 400.049 119.71 400.039 120.06C400.029 120.41 399.539 121.01 399.859 122.03C400.189 123.05 400.409 122.96 400.399 123.45C400.389 123.93 400.449 125.16 400.739 125.92C401.029 126.67 401.369 127.03 401.369 127.03C401.369 127.03 401.199 128.61 401.619 129.54C402.039 130.47 403.869 131 404.489 131.01C405.099 131.02 409.509 130.24 410.749 129.96C411.999 129.7 415.229 128.71 416.399 129.31Z" fill="#CD9E64"/>
<path d="M418.618 117.259L418.348 129.386L422.857 129.487L423.127 117.359L418.618 117.259Z" fill="#CD9E64"/>
<path d="M85.3117 244.95H49.8617H0.261719V289.9H62.8217C64.6717 292.75 68.5817 299.21 68.5817 299.21L73.0817 289.9H85.3217V244.95H85.3117Z" fill="#EFE5D7"/>
<path d="M85.31 244.95C85.31 244.95 85.32 245.21 85.33 245.73C85.33 246.27 85.34 247.04 85.35 248.04C85.36 250.1 85.38 253.11 85.4 256.98C85.42 264.78 85.46 276.04 85.5 289.9V290.09H85.31C81.44 290.1 77.35 290.1 73.07 290.11L73.26 289.99C71.85 292.91 70.34 296.06 68.77 299.3L68.59 299.67L68.37 299.32C66.56 296.4 64.61 293.25 62.61 290.02L62.81 290.13C45.62 290.14 26.23 290.15 5.77 290.15C3.92 290.15 2.08 290.15 0.25 290.15H0V289.89C0.01 274.02 0.01 258.87 0.02 244.94V244.7H0.26C25.21 244.74 46.48 244.77 61.53 244.8C69.04 244.83 74.99 244.86 79.08 244.88C81.1 244.89 82.65 244.91 83.72 244.91C84.23 244.92 84.62 244.92 84.91 244.92C85.18 244.94 85.31 244.95 85.31 244.95C85.31 244.95 85.16 244.96 84.89 244.96C84.6 244.96 84.2 244.97 83.68 244.97C82.6 244.98 81.03 244.99 79 245C74.91 245.02 68.97 245.05 61.47 245.08C46.44 245.1 25.19 245.14 0.27 245.18L0.51 244.94C0.52 258.86 0.52 274.02 0.53 289.89L0.27 289.63C2.1 289.63 3.94 289.63 5.79 289.63C26.24 289.64 45.64 289.65 62.83 289.65H62.96L63.03 289.76C65.03 293 66.98 296.16 68.78 299.08L68.39 299.1C69.96 295.86 71.49 292.71 72.9 289.8L72.96 289.68H73.09C77.37 289.69 81.45 289.69 85.33 289.7L85.14 289.89C85.18 276.07 85.22 264.86 85.24 257.09C85.26 253.21 85.28 250.18 85.29 248.11C85.3 247.09 85.31 246.31 85.31 245.76C85.3 245.23 85.31 244.95 85.31 244.95Z" fill="#263238"/>
<path d="M20.1403 267.07C21.5303 266.5 22.5203 265.08 22.5403 263.41C22.5703 261.21 20.9203 259.4 18.8503 259.38C16.7903 259.35 15.0903 261.11 15.0603 263.31C15.0403 265.01 16.0203 266.46 17.4103 267.05C11.6503 267.87 11.8603 274.12 11.8603 274.12L25.4503 274.3C25.4703 274.3 25.8403 267.98 20.1403 267.07Z" fill="#CD9E64"/>
<path d="M73.4505 260.73C73.4505 260.82 64.7805 260.89 54.0905 260.89C43.4005 260.89 34.7305 260.82 34.7305 260.73C34.7305 260.64 43.4005 260.57 54.0905 260.57C64.7805 260.57 73.4505 260.64 73.4505 260.73Z" fill="#263238"/>
<path d="M73.4505 265.36C73.4505 265.45 64.7805 265.52 54.0905 265.52C43.4005 265.52 34.7305 265.45 34.7305 265.36C34.7305 265.27 43.4005 265.2 54.0905 265.2C64.7805 265.2 73.4505 265.27 73.4505 265.36Z" fill="#263238"/>
<path d="M73.4505 269.99C73.4505 270.08 64.7805 270.15 54.0905 270.15C43.4005 270.15 34.7305 270.08 34.7305 269.99C34.7305 269.9 43.4005 269.83 54.0905 269.83C64.7805 269.84 73.4505 269.91 73.4505 269.99Z" fill="#263238"/>
<path d="M57.8905 275.86C57.8905 275.95 52.7105 276.02 46.3105 276.02C39.9105 276.02 34.7305 275.95 34.7305 275.86C34.7305 275.77 39.9105 275.7 46.3105 275.7C52.7005 275.69 57.8905 275.77 57.8905 275.86Z" fill="#263238"/>
<path d="M368.883 384.14L357.373 401.4C357.373 401.4 371.053 418.9 369.233 422.29L334.973 401.17L351.803 373.54L368.883 384.14Z" fill="#CD9E64"/>
<g opacity="0.3">
<g opacity="0.3">
<path opacity="0.3" d="M368.883 384.14L357.373 401.4C357.373 401.4 371.053 418.9 369.233 422.29L334.973 401.17L351.803 373.54L368.883 384.14Z" fill="black"/>
</g>
</g>
<path d="M347.691 393.38C346.921 393.15 346.001 393.62 345.741 394.38C345.481 395.14 345.941 396.08 346.711 396.32C347.481 396.56 348.601 396.04 348.771 395.25C348.941 394.46 348.341 393.39 347.531 393.34" fill="#E0E0E0"/>
<g opacity="0.6">
<g opacity="0.6">
<path opacity="0.6" d="M334.961 401.17L336.771 398.45L368.951 419.71C368.951 419.71 370.071 421.31 369.231 422.28L334.961 401.17Z" fill="white"/>
</g>
</g>
<path d="M358.03 401.56C357.92 401.72 357.04 401.28 355.88 401.31C354.72 401.31 353.849 401.77 353.739 401.61C353.609 401.48 354.47 400.64 355.87 400.62C357.27 400.61 358.16 401.43 358.03 401.56Z" fill="#263238"/>
<path d="M360.711 405.26C360.651 405.45 359.751 405.28 358.741 405.64C357.731 405.97 357.111 406.64 356.951 406.53C356.781 406.46 357.261 405.41 358.521 404.99C359.781 404.57 360.801 405.1 360.711 405.26Z" fill="#263238"/>
<path d="M360.101 410.82C359.931 410.76 360.211 409.78 361.201 409.13C362.191 408.47 363.201 408.6 363.191 408.78C363.201 408.98 362.391 409.15 361.581 409.7C360.761 410.23 360.281 410.91 360.101 410.82Z" fill="#263238"/>
<path d="M360.221 397.34C360.061 397.45 359.431 396.75 358.451 396.23C357.481 395.69 356.541 395.56 356.551 395.36C356.531 395.18 357.631 395 358.781 395.63C359.921 396.24 360.381 397.26 360.221 397.34Z" fill="#263238"/>
<path d="M362.483 393.81C362.443 393.88 361.713 393.58 360.773 392.74C360.303 392.33 359.793 391.77 359.313 391.08C359.073 390.74 358.853 390.36 358.653 389.95C358.553 389.75 358.433 389.53 358.383 389.23C358.303 388.94 358.473 388.43 358.853 388.29C359.193 388.13 359.573 388.21 359.823 388.36C360.083 388.51 360.253 388.68 360.413 388.85C360.733 389.18 361.013 389.52 361.253 389.87C361.723 390.57 362.023 391.28 362.193 391.88C362.533 393.11 362.423 393.9 362.343 393.9C362.233 393.91 362.173 393.15 361.733 392.04C361.513 391.49 361.193 390.86 360.733 390.23C360.503 389.92 360.233 389.61 359.933 389.32C359.633 389 359.323 388.81 359.133 388.91C359.063 388.95 359.043 388.97 359.053 389.13C359.073 389.28 359.163 389.46 359.253 389.66C359.433 390.04 359.633 390.4 359.843 390.74C360.253 391.4 360.703 391.96 361.113 392.4C361.923 393.28 362.543 393.72 362.483 393.81Z" fill="#263238"/>
<path d="M362.113 393.92C362.033 393.91 362.073 393.11 362.683 391.98C362.983 391.42 363.443 390.81 364.073 390.25C364.393 389.97 364.753 389.71 365.153 389.48C365.563 389.27 366.083 388.96 366.783 389.29C367.133 389.49 367.253 389.92 367.203 390.21C367.173 390.51 367.073 390.72 366.993 390.95C366.813 391.39 366.563 391.78 366.283 392.11C365.723 392.77 365.053 393.2 364.453 393.43C363.233 393.9 362.413 393.67 362.433 393.61C362.433 393.49 363.213 393.53 364.253 392.99C364.763 392.73 365.333 392.31 365.793 391.71C366.023 391.41 366.223 391.07 366.373 390.7C366.543 390.3 366.593 389.92 366.433 389.88C366.263 389.77 365.803 389.87 365.483 390.07C365.113 390.27 364.783 390.5 364.483 390.74C363.883 391.23 363.423 391.76 363.093 392.25C362.423 393.21 362.223 393.95 362.113 393.92Z" fill="#263238"/>
<path d="M365.71 387.77L369.45 408.17C369.45 408.17 391.45 411.22 392.51 414.92L353.21 423.6L346.07 392.05L365.71 387.77Z" fill="#CD9E64"/>
<path d="M356.929 409.16C356.219 409.54 355.879 410.51 356.219 411.24C356.569 411.97 357.549 412.32 358.269 411.96C358.989 411.6 359.429 410.44 359.009 409.76C358.579 409.07 357.409 408.72 356.789 409.25" fill="#E0E0E0"/>
<g opacity="0.6">
<g opacity="0.6">
<path opacity="0.6" d="M353.211 423.61L352.621 420.4L390.531 413.28C390.531 413.28 392.451 413.66 392.521 414.93L353.211 423.61Z" fill="white"/>
</g>
</g>
<path d="M370.052 407.84C370.092 408.03 369.152 408.33 368.342 409.16C367.512 409.96 367.212 410.9 367.012 410.87C366.822 410.87 366.862 409.66 367.852 408.68C368.842 407.68 370.052 407.65 370.052 407.84Z" fill="#263238"/>
<path d="M374.549 408.63C374.629 408.81 373.879 409.32 373.399 410.27C372.899 411.21 372.929 412.13 372.739 412.16C372.569 412.23 372.189 411.14 372.799 409.96C373.389 408.78 374.499 408.45 374.549 408.63Z" fill="#263238"/>
<path d="M377.98 413.05C377.81 413.13 377.34 412.23 377.6 411.07C377.85 409.91 378.67 409.29 378.78 409.44C378.92 409.57 378.46 410.27 378.27 411.22C378.04 412.17 378.16 412.99 377.98 413.05Z" fill="#263238"/>
<path d="M368.679 403.28C368.639 403.47 367.699 403.4 366.629 403.72C365.559 404.01 364.789 404.56 364.659 404.42C364.519 404.31 365.189 403.41 366.449 403.06C367.699 402.7 368.739 403.11 368.679 403.28Z" fill="#263238"/>
<path d="M367.852 399.18C367.872 399.26 367.142 399.54 365.882 399.6C365.252 399.63 364.502 399.59 363.682 399.42C363.272 399.34 362.852 399.22 362.422 399.07C362.212 398.99 361.972 398.92 361.722 398.74C361.462 398.59 361.232 398.1 361.412 397.74C361.542 397.39 361.872 397.18 362.152 397.12C362.442 397.05 362.692 397.05 362.912 397.06C363.372 397.07 363.812 397.12 364.232 397.21C365.062 397.39 365.762 397.68 366.312 398C367.412 398.64 367.882 399.29 367.822 399.34C367.752 399.42 367.172 398.92 366.092 398.43C365.552 398.19 364.882 397.96 364.122 397.83C363.742 397.77 363.332 397.73 362.912 397.73C362.472 397.71 362.112 397.79 362.052 398C362.032 398.08 362.032 398.11 362.142 398.21C362.252 398.3 362.452 398.38 362.652 398.45C363.052 398.6 363.442 398.72 363.822 398.81C364.582 399 365.292 399.09 365.882 399.12C367.082 399.19 367.832 399.08 367.852 399.18Z" fill="#263238"/>
<path d="M367.66 399.51C367.6 399.55 367.07 398.95 366.72 397.72C366.55 397.11 366.45 396.35 366.51 395.51C366.54 395.09 366.62 394.65 366.75 394.2C366.89 393.76 367.06 393.18 367.79 392.93C368.18 392.83 368.57 393.06 368.73 393.3C368.92 393.54 368.99 393.76 369.09 393.98C369.26 394.42 369.35 394.88 369.38 395.31C369.44 396.17 369.25 396.95 368.99 397.53C368.45 398.72 367.7 399.12 367.67 399.06C367.58 398.98 368.17 398.46 368.54 397.35C368.72 396.8 368.84 396.11 368.75 395.36C368.71 394.99 368.62 394.6 368.46 394.23C368.31 393.83 368.08 393.52 367.93 393.6C367.73 393.64 367.47 394.03 367.38 394.4C367.26 394.8 367.18 395.19 367.13 395.57C367.04 396.33 367.08 397.04 367.18 397.62C367.39 398.79 367.76 399.46 367.66 399.51Z" fill="#263238"/>
<path d="M357.899 217.73L405.729 291.53C410.279 298.21 412.879 305.08 412.199 313.01C411.759 318.11 409.889 322.97 407.079 327.25L368.049 395.44L348.599 375.53L377.339 314.8L349.919 277.87L335.359 217.73H357.899Z" fill="#263238"/>
<path d="M371.69 402.16L347.61 235.66L346.27 218.77L305.071 216.54C305.071 216.54 298.42 237.88 297.86 248.93C297.31 259.98 322.381 318.71 322.381 318.71L328.16 348.09L344.881 407.69L371.69 402.16Z" fill="#263238"/>
<path d="M301.899 213.11C301.169 211.9 306.819 207.14 315.919 199.73C318.199 197.87 320.689 195.83 323.359 193.64C326.119 191.44 329.379 188.82 333.899 187.1C338.379 185.42 343.539 184.97 348.659 186.12C351.209 186.69 353.739 187.66 356.129 189.11C358.509 190.56 360.799 192.56 362.519 195.21C362.929 195.85 363.369 196.58 363.769 197.56C364.159 198.52 364.489 199.78 364.439 201.24C364.359 202.88 363.859 204.35 362.799 205.72C362.259 206.4 361.539 207.06 360.619 207.55C360.169 207.8 359.659 207.99 359.149 208.13C358.659 208.25 358.179 208.34 357.689 208.35C355.629 208.43 354.229 207.66 353.459 207.24C352.649 206.77 352.209 206.44 351.969 206.3C351.869 206.23 351.809 206.2 351.879 206.23C351.939 206.25 352.059 206.29 352.139 206.29C352.309 206.31 352.319 206.28 352.149 206.29C351.809 206.31 350.959 206.57 349.749 206.92C349.139 207.1 348.389 207.24 347.709 207.37C347.029 207.46 346.339 207.56 345.689 207.58C343.059 207.73 340.809 207.41 338.839 207.15C336.869 206.87 335.169 206.63 333.699 206.58C332.219 206.52 331.059 206.68 329.729 207.03C327.119 207.77 324.489 209.31 321.949 210.78C319.439 212.26 316.819 213.73 314.359 214.59C311.909 215.48 309.579 215.87 307.669 215.82C305.759 215.78 304.299 215.3 303.429 214.79C302.559 214.28 302.229 213.79 302.329 213.47C302.569 212.75 304.419 212.92 307.159 211.94C308.529 211.46 310.139 210.69 311.919 209.53C313.729 208.39 315.569 206.85 317.899 204.94C320.239 203.09 322.969 200.83 326.929 199.18C328.879 198.38 331.289 197.83 333.529 197.74C335.769 197.62 337.879 197.8 339.799 197.93C341.719 198.07 343.489 198.17 344.949 198C345.329 197.97 345.659 197.9 345.999 197.84C346.329 197.75 346.609 197.7 346.989 197.57C347.789 197.33 348.919 196.84 350.699 196.54C351.589 196.4 352.679 196.32 353.909 196.54C354.509 196.65 355.159 196.83 355.709 197.06C356.279 197.29 356.699 197.53 357.059 197.74C357.749 198.15 358.199 198.46 358.339 198.52C358.359 198.53 358.379 198.54 358.369 198.54C358.369 198.54 358.379 198.51 358.319 198.64L358.079 199.15C357.849 199.58 357.659 200.14 357.569 200.38C357.459 200.76 357.409 200.89 357.379 201.12C357.349 201.23 357.349 201.39 357.349 201.39C357.349 201.42 357.359 201.44 357.349 201.4L357.339 201.37V201.36V201.35C357.279 201.12 357.419 201.65 357.399 201.6C357.399 201.59 357.389 201.57 357.359 201.51C357.309 201.41 357.179 201.25 357.019 201.13C356.869 201.01 356.719 200.94 356.679 200.93C356.659 200.92 356.669 200.93 356.699 200.93L356.769 200.94L356.819 200.95H356.849H356.859L356.229 200.92C356.079 200.91 355.799 200.93 355.389 201.01C355.189 201.05 354.939 201.11 354.669 201.2L354.449 201.27C354.399 201.29 354.439 201.28 354.419 201.28L354.409 201.26C354.389 201.2 354.259 200.95 354.059 200.64C352.599 198.32 349.519 196.47 346.349 195.67C343.169 194.84 339.809 194.96 336.899 195.83C333.989 196.68 331.109 198.48 328.259 200.34C325.359 202.25 322.539 204.02 319.959 205.53C309.609 211.64 302.599 214.27 301.899 213.11Z" fill="#F5F5F5"/>
<path d="M342.94 132.96C343.79 133.11 352 136.56 355.72 138.14C356.9 138.64 357.86 139.54 358.43 140.69L376.73 177.62L362.57 187.42C362.57 187.42 364.23 216.27 360.59 217.73C359.23 218.27 309.76 218.19 309.76 218.19C309.76 218.19 304.41 220.08 302.5 218.19C301.02 216.73 301.59 213.88 301.59 213.88L301.58 153.67L298.91 137.09C298.91 137.08 324.43 129.7 342.94 132.96Z" fill="#BDAD94"/>
<path d="M308.639 149.91L309.429 179.86L283.909 182.3C283.909 182.13 281.149 143.48 298.909 137.08L308.639 149.91Z" fill="#BDAD94"/>
<path d="M361.521 182.29C361.371 181.32 361.201 180.19 360.931 178.37C360.541 175.66 360.041 172.16 359.481 168.29C358.931 164.42 358.441 160.91 358.061 158.2C357.901 157 357.761 155.98 357.641 155.14C357.551 154.42 357.511 154.01 357.551 154.01C357.591 154 357.691 154.39 357.851 155.11C358.011 155.82 358.211 156.86 358.441 158.14C358.901 160.71 359.461 164.27 360.021 168.21C360.581 172.15 361.031 175.72 361.311 178.32C361.451 179.62 361.551 180.67 361.601 181.4C361.621 181.76 361.631 182.05 361.631 182.24L361.621 182.37C361.601 182.37 361.661 182.46 361.531 182.41L361.521 182.36C361.511 182.32 361.511 182.3 361.521 182.29Z" fill="#263238"/>
<g opacity="0.3">
<g opacity="0.3">
<path opacity="0.3" d="M359.901 199.39C358.791 196.02 355.981 193.39 352.751 191.92C349.521 190.45 345.901 190.04 342.351 190.09C336.171 190.18 329.931 191.65 324.701 194.95C316.871 199.9 311.631 208.68 303.021 212.1L301.961 213.62C308.621 213.97 315.371 212.35 321.151 209.03C324.931 206.86 328.351 203.96 332.481 202.55C336.131 201.31 340.071 201.33 343.921 201.36C347.561 201.39 351.441 201.49 354.461 203.53C355.351 204.13 356.221 204.92 357.301 204.98C358.511 205.05 359.621 204.1 360.031 202.96C360.451 201.82 360.281 200.55 359.901 199.39Z" fill="black"/>
</g>
</g>
<path d="M348.827 178.63L351.887 170.9C352.197 170.12 352.947 169.61 353.787 169.61H368.307C369.327 169.61 370.037 170.62 369.677 171.58L360.367 196.84C360.257 197.14 359.977 197.34 359.657 197.34H342.467C341.927 197.34 341.567 196.8 341.767 196.3L348.827 178.63Z" fill="#263238"/>
<path d="M367.058 194.68L368.768 185.28L367.358 177.88L365.088 184.04V186.53C364.248 186.31 356.458 179.71 354.368 181.13C352.278 182.55 346.918 190.35 346.918 190.35C346.918 190.35 356.338 199.55 357.848 200.24C357.848 200.24 358.348 206.05 358.418 209.05C358.478 211.6 358.958 212.57 362.268 213.68C365.578 214.79 369.778 209.02 369.778 203.88C369.768 200.66 367.058 194.68 367.058 194.68Z" fill="#D4BF9E"/>
<path d="M306.418 180.43L307.238 190.31L331.028 181.61L341.618 176.71L346.248 177.87C346.248 177.87 360.808 178.82 360.948 179.75C361.078 180.68 361.738 181.47 360.948 181.6C360.158 181.73 348.638 182.26 348.638 182.26C348.638 182.26 361.058 183.05 361.338 183.98C361.618 184.91 361.218 186.36 360.558 186.36C359.898 186.36 347.048 186.36 347.048 186.36C347.048 186.36 359.758 187.15 359.888 187.68C360.018 188.21 360.948 189.14 359.758 189.53C358.568 189.93 346.918 190.32 346.918 190.32L357.908 192.31C357.908 192.31 358.308 194.03 357.378 194.03C356.448 194.03 332.488 195.62 332.488 195.62C332.488 195.62 304.418 213.52 299.118 214.82C293.728 216.14 289.188 209.99 288.538 205.66C287.548 199.13 286.648 182.13 286.648 182.13L306.418 180.43Z" fill="#D4BF9E"/>
<path d="M332.487 195.65C332.487 195.64 332.647 195.62 332.977 195.59C333.327 195.56 333.797 195.52 334.407 195.47C335.687 195.38 337.537 195.24 339.897 195.07C342.287 194.9 345.197 194.7 348.577 194.47C350.267 194.36 352.077 194.23 353.987 194.1C354.947 194.04 355.927 193.97 356.937 193.9C357.437 193.88 357.987 193.82 358.267 193.56C358.497 193.32 358.137 192.8 357.787 192.49L357.877 192.54C354.527 191.94 350.817 191.28 346.887 190.58C346.767 190.56 346.687 190.44 346.707 190.32C346.727 190.21 346.817 190.14 346.927 190.13C349.027 190.04 351.197 189.94 353.437 189.84C354.557 189.77 355.687 189.71 356.837 189.64C357.407 189.6 357.987 189.56 358.557 189.5C359.117 189.42 359.757 189.43 360.067 189.11C360.387 188.84 360.217 188.17 359.867 187.97C359.697 187.91 359.357 187.87 359.077 187.83L358.187 187.72C356.987 187.6 355.777 187.47 354.547 187.34C352.097 187.11 349.587 186.88 347.047 186.64C346.907 186.63 346.797 186.5 346.807 186.35C346.817 186.21 346.937 186.11 347.067 186.11C349.757 186.11 352.487 186.11 355.257 186.11C356.647 186.11 358.037 186.11 359.447 186.11H360.507C360.687 186.14 360.897 185.89 361.027 185.62C361.297 185.06 361.267 184.34 360.757 184.07C360.417 183.91 359.807 183.84 359.327 183.76L357.787 183.54C356.757 183.42 355.727 183.29 354.707 183.17C352.657 182.96 350.637 182.75 348.637 182.54C348.487 182.53 348.387 182.4 348.397 182.25C348.407 182.12 348.517 182.02 348.647 182.01C351.307 181.88 353.917 181.76 356.487 181.63C357.767 181.56 359.037 181.48 360.297 181.41C360.597 181.38 360.967 181.38 361.097 181.29C361.257 181.19 361.327 180.96 361.297 180.71C361.267 180.46 361.137 180.23 360.957 180.06C360.767 179.89 360.527 179.85 360.217 179.77C357.837 179.28 355.417 179.05 353.087 178.77C350.747 178.52 348.467 178.29 346.257 178.09L346.217 178.08C344.637 177.68 343.087 177.29 341.587 176.91L341.737 176.9C337.927 178.65 334.387 180.28 331.137 181.77L331.127 181.78C323.787 184.43 317.837 186.57 313.697 188.06C311.657 188.78 310.057 189.35 308.947 189.74C308.417 189.92 308.007 190.06 307.707 190.16C307.427 190.25 307.277 190.3 307.277 190.29C307.277 190.28 307.417 190.22 307.687 190.11C307.987 189.99 308.387 189.84 308.907 189.63C310.007 189.21 311.597 188.62 313.617 187.85C317.747 186.32 323.677 184.12 330.987 181.4L330.977 181.41C334.227 179.9 337.757 178.25 341.557 176.48C341.607 176.46 341.657 176.45 341.707 176.47C343.217 176.85 344.757 177.23 346.347 177.63L346.307 177.62C348.527 177.81 350.807 178.03 353.157 178.27C355.497 178.54 357.897 178.75 360.357 179.26C360.637 179.33 361.037 179.41 361.317 179.66C361.597 179.91 361.777 180.25 361.827 180.62C361.877 180.98 361.777 181.45 361.387 181.7C360.957 181.92 360.667 181.84 360.347 181.89C359.087 181.96 357.817 182.04 356.527 182.11C353.957 182.24 351.347 182.37 348.687 182.5L348.697 181.97C350.697 182.18 352.727 182.38 354.777 182.6C355.797 182.72 356.827 182.85 357.867 182.97L359.427 183.19C359.967 183.3 360.427 183.3 361.047 183.57C361.427 183.78 361.687 184.21 361.737 184.63C361.787 185.05 361.697 185.45 361.527 185.81C361.437 185.99 361.337 186.17 361.177 186.32C361.097 186.4 361.017 186.47 360.897 186.53C360.817 186.59 360.577 186.62 360.527 186.61H359.467C358.057 186.61 356.667 186.61 355.277 186.61C352.507 186.61 349.767 186.61 347.087 186.61L347.107 186.09C349.657 186.33 352.157 186.57 354.617 186.8C355.847 186.93 357.057 187.06 358.257 187.19L359.157 187.3C359.467 187.36 359.727 187.35 360.117 187.49C360.477 187.71 360.647 188.03 360.727 188.38C360.807 188.72 360.717 189.16 360.437 189.42C360.167 189.69 359.827 189.78 359.507 189.84C359.207 189.88 358.907 189.92 358.617 189.95C358.027 190.01 357.457 190.05 356.877 190.09C355.727 190.16 354.587 190.22 353.467 190.28C351.227 190.37 349.057 190.46 346.947 190.54L346.977 190.09C350.907 190.81 354.617 191.49 357.957 192.1H357.967C357.997 192.11 358.037 192.12 358.057 192.14C358.277 192.34 358.457 192.55 358.597 192.81C358.737 193.05 358.827 193.48 358.567 193.76C358.057 194.21 357.477 194.18 356.987 194.22C355.977 194.28 354.987 194.34 354.027 194.4C352.107 194.51 350.307 194.62 348.607 194.72C345.227 194.92 342.317 195.09 339.917 195.23C337.557 195.36 335.707 195.46 334.417 195.53C333.807 195.56 333.337 195.58 332.987 195.59C332.647 195.66 332.487 195.66 332.487 195.65Z" fill="#AA997E"/>
<path d="M299.69 201.55C299.63 201.54 299.63 200.74 299.87 199.47C300.12 198.21 300.66 196.46 301.77 194.79C302.88 193.12 304.29 191.95 305.37 191.25C306.46 190.55 307.21 190.26 307.24 190.32C307.37 190.49 304.37 191.88 302.22 195.09C301.16 196.69 300.58 198.35 300.24 199.56C299.91 200.78 299.78 201.56 299.69 201.55Z" fill="#AA997E"/>
<path d="M360.83 176.01C361.07 176.6 360.74 177.29 360.1 177.55C359.45 177.81 358.74 177.55 358.5 176.97C358.26 176.38 358.59 175.69 359.23 175.43C359.87 175.17 360.59 175.43 360.83 176.01Z" fill="#FAFAFA"/>
<path d="M363.639 185.6C363.609 185.59 363.769 185.07 364.089 184.14C364.449 183.13 364.929 181.82 365.499 180.23C366.119 178.56 366.849 176.61 367.649 174.45C367.849 173.91 368.059 173.35 368.279 172.78C368.449 172.24 368.849 171.55 368.689 171.19C368.619 171.04 368.389 170.96 368.089 170.98C367.769 170.98 367.439 170.98 367.119 170.98C366.469 170.98 365.809 170.98 365.139 170.98C362.459 170.97 359.909 170.97 357.579 170.96C356.419 170.95 355.319 170.95 354.279 170.94C353.769 170.89 353.379 171.06 353.149 171.41C352.959 171.77 352.789 172.26 352.619 172.64C351.969 174.2 351.429 175.49 351.009 176.48C350.619 177.38 350.389 177.87 350.359 177.86C350.329 177.85 350.499 177.33 350.829 176.41C351.209 175.41 351.699 174.09 352.289 172.51C352.459 172.09 352.569 171.69 352.819 171.2C352.969 170.96 353.189 170.77 353.449 170.65C353.709 170.52 354.039 170.52 354.279 170.52C355.319 170.51 356.419 170.5 357.569 170.5C359.899 170.49 362.449 170.49 365.119 170.48C365.789 170.48 366.449 170.48 367.099 170.48C367.429 170.48 367.749 170.48 368.069 170.48C368.379 170.46 368.909 170.52 369.129 170.97C369.319 171.4 369.159 171.78 369.059 172.06C368.949 172.35 368.839 172.64 368.729 172.92C368.509 173.49 368.299 174.04 368.089 174.58C367.249 176.72 366.489 178.67 365.839 180.33C365.209 181.9 364.679 183.2 364.279 184.19C363.899 185.12 363.679 185.61 363.639 185.6Z" fill="#BDAD94"/>
<path d="M321.85 75.9C319.42 74.36 318.83 70.78 320.15 68.22C321.47 65.66 324.26 64.1 327.11 63.65C331.23 62.99 335.63 64.44 338.53 67.43C340.1 69.05 341.37 71.15 343.5 71.89C345.37 72.54 347.44 71.95 349.4 72.21C352.03 72.55 354.29 74.42 355.64 76.71C356.99 79 357.55 81.66 357.86 84.3C358.15 86.72 358.34 89.37 360.01 91.14C361.65 92.86 364.23 93.23 366.27 94.45C370.1 96.75 371.34 102.46 368.81 106.15C368 107.33 366.85 108.4 366.75 109.83C366.66 111.13 367.5 112.28 367.9 113.52C368.91 116.71 366.3 120.51 362.95 120.7C361.26 120.8 359.45 120.14 357.94 120.89C356.44 121.64 355.88 123.45 354.92 124.83C353.03 127.54 349.07 128.56 346.1 127.11C344.86 126.5 343.69 125.5 342.31 125.59C340.93 125.68 339.85 126.86 338.49 127.12C336.72 127.46 335.03 126.16 333.98 124.69C332.93 123.22 332.19 121.49 330.84 120.29C329.07 118.72 326.59 118.33 324.35 117.56C319.41 115.86 315.29 111.94 313.33 107.1C311.38 102.26 311.63 96.57 314.01 91.92" fill="#263238"/>
<path d="M347.578 107.7C348.088 107.16 348.808 106.65 349.548 106.4L349.398 106.39C349.538 106.35 349.678 106.34 349.818 106.32C350.358 106.19 350.898 106.22 351.358 106.51H351.348C352.188 106.82 352.938 107.44 353.348 108.25C354.058 109.66 353.798 111.45 352.838 112.7C352.008 113.79 350.578 114.5 349.248 114.18C348.028 113.88 347.118 112.78 346.778 111.57C346.398 110.24 346.638 108.71 347.578 107.7Z" fill="#BDAD94"/>
<path d="M315.491 133.56L312.911 86.1301C312.811 84.0401 314.321 82.2201 316.401 81.9501L337.611 75.9401C344.431 75.0201 349.221 83.3201 349.841 90.1701C350.541 97.7801 351.091 107.11 350.351 112.82C348.861 124.31 340.131 126.02 340.131 126.02C340.261 132.57 340.261 132.57 340.261 132.57L339.571 150.4L315.491 133.56Z" fill="#D4BF9E"/>
<path d="M346.88 100.11C346.93 100.88 346.31 101.56 345.51 101.63C344.7 101.7 344.01 101.12 343.96 100.35C343.91 99.5799 344.53 98.8899 345.33 98.8299C346.13 98.7599 346.83 99.3399 346.88 100.11Z" fill="#263238"/>
<path d="M347.951 95.08C347.771 95.28 346.641 94.49 345.061 94.53C343.481 94.56 342.351 95.4 342.171 95.21C342.081 95.13 342.261 94.78 342.751 94.39C343.241 94.01 344.071 93.63 345.061 93.61C346.041 93.59 346.881 93.93 347.371 94.28C347.861 94.65 348.031 94.99 347.951 95.08Z" fill="#263238"/>
<path d="M332.282 100.11C332.332 100.88 331.712 101.56 330.912 101.63C330.102 101.7 329.412 101.12 329.362 100.35C329.312 99.5799 329.932 98.8899 330.732 98.8299C331.542 98.7599 332.232 99.3399 332.282 100.11Z" fill="#263238"/>
<path d="M332.431 95.81C332.251 96.01 331.121 95.22 329.541 95.26C327.961 95.29 326.831 96.13 326.651 95.94C326.561 95.86 326.741 95.51 327.231 95.12C327.721 94.74 328.551 94.36 329.541 94.34C330.521 94.32 331.361 94.66 331.851 95.01C332.341 95.38 332.521 95.72 332.431 95.81Z" fill="#263238"/>
<path d="M338.498 107.36C338.488 107.27 339.468 107.07 341.048 106.82C341.448 106.77 341.828 106.68 341.888 106.4C341.978 106.11 341.798 105.68 341.588 105.21C341.178 104.24 340.758 103.23 340.308 102.17C338.528 97.85 337.228 94.28 337.398 94.21C337.568 94.14 339.158 97.59 340.938 101.91C341.368 102.98 341.778 103.99 342.168 104.97C342.338 105.42 342.608 105.94 342.418 106.55C342.318 106.85 342.028 107.08 341.768 107.16C341.508 107.25 341.288 107.26 341.088 107.27C339.498 107.41 338.498 107.45 338.498 107.36Z" fill="#263238"/>
<path d="M340.12 126.02C340.12 126.02 332.44 126.74 324.68 122.37C324.68 122.37 328.62 130.12 340.04 128.73L340.12 126.02Z" fill="#AA997E"/>
<path d="M338.368 111.12C337.568 110.06 336.308 109.43 335.118 109.51C334.298 109.56 333.498 109.97 333.068 110.7C332.638 111.43 332.648 112.5 333.178 113.25C333.778 114.09 334.878 114.34 335.768 114.1C336.658 113.86 337.368 113.23 338.048 112.6C338.238 112.43 338.428 112.24 338.528 111.99C338.628 111.74 338.628 111.41 338.448 111.19" fill="#AA997E"/>
<path d="M333.88 108.58C334.14 108.56 334.19 110.27 335.69 111.45C337.19 112.63 339.01 112.38 339.03 112.62C339.06 112.73 338.63 112.96 337.86 113.01C337.1 113.06 335.99 112.85 335.07 112.13C334.15 111.41 333.74 110.42 333.66 109.72C333.58 109.01 333.76 108.58 333.88 108.58Z" fill="#263238"/>
<path d="M332.94 89.29C332.8 89.72 331.21 89.57 329.37 89.84C327.52 90.08 326.04 90.66 325.78 90.29C325.67 90.11 325.91 89.7 326.51 89.26C327.1 88.83 328.04 88.41 329.15 88.25C330.26 88.1 331.28 88.24 331.96 88.5C332.65 88.76 333.01 89.09 332.94 89.29Z" fill="#263238"/>
<path d="M347.24 89.6601C346.97 90.0301 345.87 89.6901 344.57 89.7001C343.26 89.6701 342.16 90.0101 341.9 89.6401C341.78 89.4601 341.95 89.1001 342.42 88.7401C342.89 88.3901 343.68 88.0901 344.58 88.0901C345.48 88.0901 346.27 88.4001 346.73 88.7501C347.19 89.1101 347.35 89.4801 347.24 89.6601Z" fill="#263238"/>
<path d="M357.55 87.76C357.02 86.05 356.04 84.41 354.53 83.43C353.71 82.89 352.75 82.57 351.98 81.95C350.33 80.62 349.94 78.29 348.92 76.43C347.6 74.03 345.06 72.34 342.34 72.06C340.07 71.83 337.74 72.51 335.53 71.95C333.9 71.54 332.47 70.48 330.81 70.16C327.59 69.55 324.59 71.86 322.25 74.16C322.24 76.47 324.08 78.01 325.85 79.49C327.62 80.97 330.06 81.61 332.33 81.2C334.09 80.88 336.02 79.99 337.55 80.93C339.15 81.92 339.22 84.33 340.64 85.57C342.67 87.33 345.9 85.68 348.48 86.44C350.47 87.03 351.72 88.93 353.04 90.54C354.36 92.14 356.35 93.66 358.34 93.07C358.21 91.29 358.08 89.48 357.55 87.76Z" fill="#263238"/>
<path d="M333.539 77.3999C332.029 76.9699 328.949 75.9899 328.139 74.6799C326.379 71.8399 323.289 69.8999 320.119 70.0699C316.959 70.2399 313.919 72.7399 313.269 76.0799C309.439 76.1099 305.709 78.5099 303.869 82.1299C303.639 82.5799 303.439 83.0499 303.269 83.5299C302.079 85.6299 301.849 88.2599 302.709 90.5199C303.229 91.8799 304.119 93.3999 303.419 94.6799C302.709 95.9799 300.909 96.0199 299.499 96.5099C297.059 97.3499 295.479 100.16 296.019 102.68C296.219 103.59 296.649 104.49 296.459 105.4C296.259 106.34 295.459 107.01 294.829 107.75C293.289 109.58 292.809 112.25 293.619 114.51C294.429 116.76 296.499 118.52 298.859 118.94C299.929 119.13 301.099 119.09 302.019 119.66C303.079 120.32 303.549 121.6 304.299 122.59C305.739 124.51 308.449 125.35 310.729 124.6C311.189 124.45 311.619 124.22 312.019 123.95C312.739 124.95 313.869 125.62 315.789 125.62L315.349 100.45C315.589 100.98 316.049 101.46 316.879 101.65C320.919 102.56 321.509 94.2399 320.609 91.9799C322.069 90.6799 323.549 89.3699 324.659 87.7199C325.769 86.0699 326.759 81.5799 326.519 79.5499C327.999 79.6399 334.209 77.5899 333.539 77.3999Z" fill="#263238"/>
<path d="M316.998 102.07C316.878 99.6199 313.878 99.0899 311.748 100.32C310.578 100.99 309.688 102.35 309.798 104.95C310.088 111.89 316.998 110.17 316.998 109.97C316.998 109.86 317.138 104.94 316.998 102.07Z" fill="#D4BF9E"/>
<path d="M314.769 107.44C314.739 107.42 314.649 107.53 314.449 107.63C314.249 107.73 313.909 107.81 313.549 107.69C312.809 107.45 312.139 106.31 312.049 105.06C312.009 104.43 312.109 103.82 312.319 103.31C312.509 102.79 312.819 102.42 313.189 102.34C313.549 102.24 313.819 102.45 313.919 102.64C314.019 102.83 313.979 102.97 314.019 102.98C314.039 103 314.159 102.86 314.099 102.57C314.069 102.43 313.979 102.27 313.809 102.15C313.639 102.02 313.389 101.96 313.129 102C312.599 102.06 312.129 102.57 311.909 103.13C311.659 103.69 311.519 104.37 311.569 105.08C311.669 106.48 312.439 107.76 313.459 108.01C313.949 108.12 314.359 107.95 314.559 107.78C314.759 107.61 314.789 107.45 314.769 107.44Z" fill="#AA997E"/>
<path d="M323.781 76.1299C323.831 76.1999 323.081 76.3299 322.391 77.2899C321.701 78.2399 321.441 80.0499 321.881 82.0899L321.921 82.2699L321.751 82.3099C320.031 82.7399 318.141 84.0999 317.281 86.2499C317.081 86.7799 316.941 87.3699 316.921 87.9399C316.921 88.5299 317.021 89.1399 317.141 89.7699C317.251 90.3999 317.381 91.0499 317.401 91.7499C317.451 92.4299 317.271 93.2199 316.851 93.7999C315.991 95.1099 314.601 95.7599 313.411 96.3899C312.181 96.9999 311.051 97.6199 310.191 98.4999C308.431 100.23 307.651 102.47 307.601 104.32C307.531 106.19 308.061 107.67 308.511 108.61C308.971 109.56 309.361 110.01 309.321 110.04C309.311 110.05 309.211 109.94 309.021 109.73C308.851 109.51 308.601 109.17 308.341 108.7C307.821 107.77 307.221 106.26 307.251 104.31C307.261 102.38 308.041 100.02 309.871 98.1799C310.771 97.2399 311.981 96.5699 313.191 95.9599C314.381 95.3299 315.691 94.6899 316.441 93.5299C317.211 92.4799 316.861 91.0999 316.661 89.8599C316.551 89.2299 316.441 88.5899 316.451 87.9299C316.481 87.2699 316.631 86.6499 316.861 86.0799C317.821 83.7799 319.841 82.3699 321.671 81.9499L321.541 82.1699C321.131 80.0299 321.451 78.1499 322.241 77.1699C322.621 76.6799 323.041 76.4199 323.331 76.2799C323.621 76.1699 323.781 76.1199 323.781 76.1299Z" fill="#BDAD94"/>
<path d="M312.169 110.04C312.679 109.5 313.399 108.99 314.139 108.74L313.989 108.73C314.129 108.69 314.269 108.68 314.409 108.66C314.949 108.53 315.489 108.56 315.949 108.85H315.939C316.779 109.16 317.529 109.78 317.939 110.59C318.649 112 318.389 113.79 317.429 115.04C316.599 116.13 315.169 116.84 313.839 116.52C312.619 116.22 311.709 115.12 311.369 113.91C310.999 112.58 311.239 111.05 312.169 110.04Z" fill="#BDAD94"/>
<path d="M371.691 402.16C371.551 402.18 365.891 364.32 359.051 317.62C352.211 270.9 346.781 233.01 346.921 232.99C347.061 232.97 352.721 270.82 359.561 317.54C366.401 364.25 371.831 402.14 371.691 402.16Z" fill="#BDAD94"/>
<path d="M329.807 219.76C329.837 219.77 329.817 220.08 329.707 220.65C329.597 221.22 329.387 222.02 329.017 222.99C328.287 224.91 326.797 227.45 324.367 229.51C321.937 231.57 319.187 232.62 317.177 233.03C316.167 233.24 315.337 233.32 314.757 233.33C314.177 233.34 313.867 233.32 313.867 233.28C313.857 233.19 315.137 233.17 317.097 232.67C319.047 232.18 321.687 231.11 324.037 229.11C326.387 227.12 327.887 224.69 328.687 222.85C329.487 221 329.717 219.74 329.807 219.76Z" fill="#BDAD94"/>
<path d="M342.898 221.11C342.918 221.2 342.238 221.19 341.718 221.96C341.478 222.32 341.288 222.87 341.438 223.4C341.568 223.93 342.118 224.35 342.778 224.42C343.428 224.5 344.058 224.22 344.318 223.73C344.588 223.25 344.528 222.68 344.378 222.27C344.048 221.41 343.378 221.25 343.418 221.17C343.418 221.14 343.588 221.13 343.858 221.25C344.128 221.36 344.478 221.65 344.718 222.12C344.948 222.58 345.078 223.28 344.748 223.96C344.418 224.65 343.548 225.05 342.728 224.94C341.908 224.86 341.148 224.27 340.988 223.52C340.818 222.78 341.108 222.14 341.438 221.74C341.778 221.33 342.188 221.14 342.468 221.09C342.738 221.03 342.898 221.09 342.898 221.11Z" fill="#BDAD94"/>
<path d="M386.318 311.37C386.358 311.52 384.278 312.11 381.838 313.11C379.388 314.1 377.488 315.11 377.408 314.98C377.338 314.87 379.148 313.63 381.638 312.63C384.128 311.61 386.288 311.24 386.318 311.37Z" fill="#BDAD94"/>
<path d="M309.33 168.29C309.32 168.32 308.92 168.24 308.23 167.98C307.54 167.71 306.59 167.18 305.55 166.36C304.51 165.54 303.4 164.43 302.14 163.25C300.89 162.08 299.45 160.81 297.62 160.14C295.8 159.46 293.86 159.65 292.25 160.15C290.63 160.65 289.29 161.46 288.22 162.19C286.09 163.69 284.87 164.77 284.81 164.69C284.79 164.66 285.07 164.37 285.61 163.88C286.15 163.39 286.95 162.68 288.01 161.89C289.07 161.12 290.42 160.25 292.11 159.7C293.77 159.15 295.84 158.92 297.8 159.65C299.75 160.37 301.23 161.7 302.47 162.9C303.72 164.11 304.79 165.24 305.78 166.07C307.75 167.8 309.38 168.19 309.33 168.29Z" fill="white"/>
<path d="M358.288 161.33C358.248 161.37 357.748 160.81 356.698 160C355.648 159.2 353.988 158.17 351.708 157.52C349.448 156.87 346.538 156.66 343.548 157.6C340.548 158.52 337.658 160.48 334.528 162.36C332.958 163.3 331.358 164.14 329.718 164.73C328.078 165.33 326.438 165.7 324.858 165.93C321.698 166.39 318.818 166.27 316.428 166.09C314.038 165.9 312.118 165.62 310.798 165.42C310.188 165.32 309.688 165.23 309.278 165.17C308.928 165.11 308.748 165.06 308.758 165.05C308.758 165.03 308.948 165.04 309.298 165.07C309.708 165.11 310.218 165.16 310.828 165.23C312.158 165.37 314.078 165.59 316.458 165.74C318.828 165.87 321.688 165.95 324.788 165.48C326.338 165.24 327.938 164.86 329.538 164.27C331.138 163.69 332.698 162.86 334.258 161.93C337.368 160.07 340.308 158.08 343.398 157.16C346.488 156.22 349.498 156.48 351.798 157.19C354.118 157.9 355.778 159.01 356.808 159.86C357.318 160.3 357.698 160.66 357.928 160.93C358.178 161.17 358.298 161.31 358.288 161.33Z" fill="white"/>
<path d="M368.608 161C368.668 161.01 368.628 161.68 368.158 162.65C367.708 163.61 366.728 164.84 365.238 165.58C363.738 166.31 362.168 166.33 361.128 166.1C360.078 165.88 359.518 165.49 359.548 165.44C359.578 165.36 360.178 165.62 361.188 165.74C362.188 165.86 363.628 165.79 365.008 165.12C366.378 164.44 367.328 163.35 367.838 162.48C368.358 161.6 368.518 160.98 368.608 161Z" fill="white"/>
<path d="M283.91 182.3C283.91 182.26 284.55 182.17 285.73 182.02C286.99 181.88 288.67 181.69 290.71 181.46C294.92 181.01 300.74 180.42 307.17 179.81C307.94 179.74 308.69 179.66 309.41 179.6L309.17 179.87C309.02 173.93 308.91 168.64 308.86 164.84C308.85 163.01 308.83 161.5 308.82 160.36C308.82 159.31 308.84 158.73 308.88 158.73C308.91 158.73 308.96 159.31 309.02 160.36C309.07 161.5 309.14 163.01 309.22 164.84C309.37 168.64 309.54 173.92 309.7 179.86L309.71 180.11L309.46 180.13C308.75 180.2 307.99 180.27 307.22 180.35C300.79 180.97 294.97 181.49 290.75 181.85C288.71 182.01 287.02 182.14 285.75 182.24C284.57 182.31 283.91 182.34 283.91 182.3Z" fill="#263238"/>
<path d="M69.1916 391.98L47.5416 404.15L27.6416 408.84C26.2116 409.18 25.3616 410.66 25.7916 412.07C26.0316 412.86 26.6416 413.48 27.4216 413.73C32.4116 415.37 50.7916 420.89 52.0016 420.34C53.9316 419.47 76.0316 409 76.0316 409L69.1916 391.98Z" fill="#CD9E64"/>
<g opacity="0.6">
<g opacity="0.6">
<g opacity="0.6">
<g opacity="0.6">
<g opacity="0.6">
<g opacity="0.6">
<g opacity="0.6">
<path opacity="0.6" d="M25.8008 412.07L53.8208 419.53L52.8908 420.02C51.9008 420.44 51.1608 420.58 50.2708 420.39C47.8908 419.87 41.3608 418.29 27.4608 413.8C26.6508 413.54 26.0308 412.89 25.8008 412.07Z" fill="white"/>
</g>
</g>
</g>
</g>
</g>
</g>
</g>
<g opacity="0.6">
<g opacity="0.6">
<g opacity="0.6">
<g opacity="0.6">
<g opacity="0.6">
<g opacity="0.6">
<g opacity="0.6">
<g opacity="0.6">
<path opacity="0.6" d="M58.4909 411.27C57.8209 410.92 56.8909 411.19 56.5209 411.84C56.1509 412.5 56.4109 413.44 57.0709 413.8C57.7409 414.16 58.8609 413.88 59.1609 413.18C59.4609 412.48 59.0909 411.39 58.3609 411.2" fill="white"/>
</g>
</g>
</g>
</g>
</g>
</g>
</g>
</g>
<path d="M45.051 410.97C44.921 410.93 45.281 409.59 45.001 407.9C44.741 406.21 43.971 404.96 44.081 404.9C44.161 404.82 45.151 406.06 45.431 407.87C45.731 409.69 45.151 411.03 45.051 410.97Z" fill="#263238"/>
<path d="M50.2532 409.73C50.0932 409.74 49.9532 408.26 49.1732 406.65C48.4132 405.03 47.3432 404 47.4532 403.88C47.5332 403.76 48.8432 404.68 49.6632 406.42C50.4932 408.15 50.3832 409.75 50.2532 409.73Z" fill="#263238"/>
<path d="M54.6826 407.65C54.5226 407.65 54.6026 406.04 53.6426 404.42C52.7126 402.77 51.2826 402.04 51.3626 401.9C51.3926 401.84 51.7926 401.93 52.3526 402.28C52.9126 402.63 53.6026 403.26 54.1126 404.14C54.6226 405.02 54.8226 405.94 54.8426 406.59C54.8626 407.26 54.7426 407.65 54.6826 407.65Z" fill="#263238"/>
<path d="M54.7433 402.96C54.7233 402.93 54.9933 402.73 55.5533 402.49C56.1133 402.26 56.9733 401.99 58.0733 401.99C58.6033 402.01 59.2633 401.98 59.8733 402.44C60.1833 402.67 60.3633 403.15 60.2133 403.56C60.0633 403.97 59.7533 404.24 59.4033 404.43C58.0033 405.15 56.0133 404.67 54.9833 403.21C53.9733 401.73 54.1133 399.83 54.9833 398.57C55.2233 398.27 55.5533 397.97 56.0133 397.94C56.4733 397.91 56.8633 398.27 56.9733 398.62C57.2233 399.32 57.0633 399.93 56.9933 400.46C56.7833 401.54 56.4033 402.35 56.0833 402.86C55.7733 403.38 55.5333 403.62 55.5033 403.6C55.4033 403.55 56.2833 402.47 56.6033 400.39C56.6633 399.88 56.7533 399.27 56.5433 398.78C56.4433 398.54 56.2533 398.39 56.0233 398.41C55.8033 398.42 55.5533 398.61 55.3733 398.86C54.6733 399.91 54.5433 401.65 55.4233 402.89C56.2833 404.13 58.0233 404.55 59.1633 403.98C59.4333 403.84 59.6633 403.62 59.7533 403.39C59.8333 403.16 59.7633 402.93 59.5733 402.77C59.1733 402.43 58.5633 402.39 58.0533 402.36C55.9733 402.31 54.7733 403.07 54.7433 402.96Z" fill="#263238"/>
<path d="M80.9531 397.5L95.4931 410.26C95.4931 410.26 87.4031 429.32 89.8531 431.94L115.613 404.64L93.7831 383.82L80.9531 397.5Z" fill="#CD9E64"/>
<path d="M102.272 400.71C102.912 400.32 103.852 400.51 104.272 401.14C104.692 401.77 104.502 402.72 103.862 403.13C103.222 403.53 102.092 403.33 101.742 402.66C101.392 401.99 101.682 400.88 102.392 400.64" fill="#E0E0E0"/>
<g opacity="0.6">
<g opacity="0.6">
<path opacity="0.6" d="M115.622 404.65L113.342 402.64L89.4925 429.56C89.4925 429.56 88.8725 431.27 89.8625 431.94L115.622 404.65Z" fill="white"/>
</g>
</g>
<path d="M94.934 410.57C95.074 410.69 95.764 410.08 96.804 409.83C97.844 409.55 98.744 409.76 98.804 409.59C98.894 409.44 97.914 408.89 96.644 409.22C95.394 409.53 94.794 410.49 94.934 410.57Z" fill="#263238"/>
<path d="M93.424 414.56C93.524 414.71 94.294 414.35 95.284 414.43C96.274 414.48 96.994 414.94 97.114 414.8C97.254 414.69 96.564 413.87 95.324 413.79C94.094 413.7 93.294 414.43 93.424 414.56Z" fill="#263238"/>
<path d="M95.312 419.42C95.452 419.33 94.962 418.51 93.912 418.17C92.862 417.82 91.982 418.17 92.042 418.33C92.082 418.51 92.852 418.47 93.712 418.77C94.572 419.04 95.172 419.54 95.312 419.42Z" fill="#263238"/>
<path d="M91.9414 407.3C92.1114 407.36 92.5114 406.57 93.2714 405.87C94.0214 405.15 94.8214 404.8 94.7814 404.62C94.7614 404.45 93.7214 404.56 92.8414 405.4C91.9414 406.24 91.7814 407.26 91.9414 407.3Z" fill="#263238"/>
<path d="M89.0618 404.67C89.1118 404.72 89.6918 404.27 90.3418 403.3C90.6618 402.81 90.9918 402.19 91.2518 401.45C91.3818 401.08 91.4918 400.69 91.5718 400.27C91.6118 400.07 91.6718 399.84 91.6418 399.55C91.6418 399.27 91.3718 398.85 90.9918 398.82C90.6518 398.76 90.3218 398.92 90.1318 399.12C89.9318 399.31 89.8218 399.52 89.7218 399.7C89.5118 400.07 89.3418 400.45 89.2118 400.83C88.9518 401.58 88.8618 402.28 88.8518 402.87C88.8418 404.06 89.1318 404.74 89.2018 404.72C89.3018 404.7 89.1718 404 89.3018 402.9C89.3618 402.35 89.5018 401.71 89.7618 401.03C89.8918 400.69 90.0618 400.35 90.2618 400.02C90.4618 399.66 90.6918 399.41 90.8918 399.46C90.9618 399.48 90.9918 399.49 91.0118 399.63C91.0318 399.77 90.9918 399.96 90.9618 400.15C90.8918 400.54 90.8018 400.91 90.6918 401.26C90.4818 401.96 90.2118 402.57 89.9518 403.06C89.4318 404.05 88.9818 404.6 89.0618 404.67Z" fill="#263238"/>
<path d="M89.4123 404.67C89.4823 404.64 89.2523 403.93 88.4323 403.06C88.0223 402.63 87.4623 402.19 86.7623 401.83C86.4123 401.66 86.0223 401.5 85.6023 401.39C85.1823 401.3 84.6323 401.15 84.0923 401.61C83.8223 401.87 83.8223 402.29 83.9323 402.54C84.0323 402.8 84.1723 402.97 84.3023 403.15C84.5723 403.5 84.8923 403.79 85.2223 404.02C85.8823 404.48 86.5923 404.7 87.1823 404.77C88.3923 404.9 89.0823 404.5 89.0423 404.44C89.0123 404.33 88.3223 404.55 87.2523 404.32C86.7323 404.21 86.1123 403.97 85.5623 403.54C85.2823 403.33 85.0223 403.07 84.7923 402.77C84.5423 402.45 84.4123 402.12 84.5423 402.04C84.6723 401.9 85.1023 401.88 85.4423 401.98C85.8223 402.07 86.1723 402.2 86.5023 402.34C87.1523 402.63 87.7023 403.01 88.1123 403.36C88.9623 404.11 89.3323 404.73 89.4123 404.67Z" fill="#263238"/>
<path d="M80.9541 357.84L64.6641 341.74L97.5941 281.28C100.614 277.82 104.444 275.16 108.744 273.53L118.974 269.64L144.614 267.52L160.394 272.09C164.954 273.89 170.714 277.17 170.134 282.04L164.494 323.16L161.714 374.92L92.7041 357.93L108.004 338.1L102.484 314.54L80.9541 357.84Z" fill="#BDAD94"/>
<path d="M106.273 349.52L141.863 335.28C145.063 333.99 146.133 330.47 146.393 327.03L149.293 289.03C149.293 289.03 148.953 272.87 159.043 272.08L164.783 274.34C172.203 278.28 174.043 289.09 173.033 297.43C171.593 309.29 171.003 326.06 169.393 336.35C168.083 344.77 163.023 351.43 155.023 354.34L110.193 363.95L106.273 349.52Z" fill="#BDAD94"/>
<path d="M107.624 350.77H102.824C102.824 350.77 91.9943 346.86 89.7643 347.23C87.7543 347.57 80.4143 352.44 78.9743 353.41C78.8143 353.52 78.6943 353.67 78.6243 353.85C78.3343 354.64 78.7143 355.53 79.5043 355.85L79.6543 355.91L79.5843 356.13C79.5043 356.4 79.4543 356.71 79.4743 357.01C79.5243 358.04 80.9143 358.35 81.4443 357.47L81.1643 357.96C81.0543 358.16 80.9943 358.39 81.0143 358.62L81.0343 359.07C81.0643 359.57 81.3943 359.99 81.8643 360.15C82.3143 360.3 82.8043 360.17 83.1243 359.82C84.0543 358.8 86.0643 356.74 87.4243 356.52C88.6343 356.32 90.6543 356.29 91.8643 356.3C92.4843 356.3 93.0343 356.68 93.2643 357.26C92.4543 357.32 86.8343 360.25 84.8343 361.3C84.2143 361.62 83.7543 362.21 83.6743 362.9C83.6043 363.52 83.9143 364.18 85.1543 363.89C87.8043 363.27 92.5643 361.08 92.5643 361.08C92.5643 361.08 95.0243 360.38 96.6143 361.5C98.8543 363.08 99.8743 363.66 101.804 363.02C103.724 362.38 105.144 361.47 105.144 361.47L108.934 361.09C108.934 361.09 112.514 352.15 107.624 350.77Z" fill="#916B5C"/>
<path d="M93.3246 352.6C93.3146 352.64 92.5546 352.4 91.2946 352.32C90.0346 352.23 88.2546 352.38 86.4746 353.14C84.6946 353.9 83.3546 355.09 82.5446 356.06C81.7246 357.03 81.3746 357.75 81.3446 357.72C81.3346 357.71 81.4146 357.53 81.5846 357.22C81.7546 356.91 82.0346 356.47 82.4346 355.96C83.2246 354.96 84.5746 353.72 86.3946 352.95C88.2146 352.18 90.0346 352.05 91.3046 352.17C91.9446 352.23 92.4546 352.33 92.8046 352.42C93.1346 352.52 93.3246 352.59 93.3246 352.6Z" fill="#6D5046"/>
<path d="M92.1751 349.97C92.1651 350.02 91.3951 349.64 90.0551 349.6C88.7351 349.54 86.8751 349.94 85.1251 350.99C83.3851 352.05 82.0851 353.39 81.1551 354.35C80.7151 354.82 80.3451 355.21 80.0651 355.51C79.8051 355.78 79.6651 355.93 79.6451 355.92C79.6351 355.91 79.7651 355.75 80.0051 355.46C80.2451 355.17 80.5951 354.76 81.0451 354.26C81.9451 353.27 83.2451 351.9 85.0151 350.83C86.7851 349.76 88.7051 349.37 90.0551 349.47C90.7351 349.51 91.2751 349.63 91.6251 349.76C91.8051 349.81 91.9351 349.88 92.0351 349.92C92.1351 349.94 92.1751 349.97 92.1751 349.97Z" fill="#6D5046"/>
<path d="M152.135 294.83C152.115 294.83 152.075 295.13 152.015 295.7C151.955 296.32 151.875 297.15 151.775 298.2C151.585 300.43 151.315 303.56 150.995 307.42C150.685 311.33 150.305 315.96 149.895 321.09C149.795 322.38 149.695 323.7 149.585 325.04C149.475 326.39 149.395 327.77 149.115 329.11C148.845 330.45 148.235 331.71 147.275 332.67C146.315 333.63 145.105 334.34 143.855 334.95C133.635 339.68 124.215 343.58 117.375 346.32C113.985 347.66 111.215 348.75 109.255 349.52C108.325 349.89 107.595 350.18 107.045 350.39C106.545 350.59 106.285 350.71 106.285 350.73C106.295 350.75 106.565 350.67 107.075 350.49C107.625 350.3 108.375 350.04 109.315 349.71C111.255 349.02 114.055 347.99 117.495 346.67C124.375 344.02 133.815 340.17 144.065 335.43C145.335 334.81 146.595 334.08 147.615 333.05C148.655 332.03 149.315 330.63 149.595 329.22C149.895 327.81 149.965 326.42 150.065 325.08C150.165 323.73 150.265 322.41 150.355 321.12C150.725 315.98 151.065 311.35 151.345 307.43C151.605 303.57 151.825 300.43 151.975 298.2C152.035 297.15 152.085 296.31 152.125 295.69C152.145 295.13 152.155 294.83 152.135 294.83Z" fill="#263238"/>
<path d="M157.894 342.08C157.944 342.07 157.784 341.22 157.174 339.97C156.574 338.72 155.464 337.11 153.844 335.72C152.224 334.34 150.454 333.49 149.134 333.1C147.804 332.7 146.944 332.66 146.934 332.72C146.914 332.81 147.754 332.97 149.014 333.46C150.274 333.94 151.944 334.8 153.504 336.13C155.064 337.47 156.174 338.98 156.844 340.15C157.514 341.32 157.804 342.11 157.894 342.08Z" fill="#263238"/>
<g opacity="0.3">
<g opacity="0.3">
<g opacity="0.3">
<g opacity="0.3">
<path opacity="0.3" d="M115.902 346.18C120.142 343.79 124.292 341.95 128.722 339.93C133.152 337.92 137.492 335.33 140.392 331.42C145.862 324.05 145.242 313.41 150.842 306.13C150.472 311.02 150.112 315.91 149.742 320.81C149.402 325.29 150.092 329.73 147.202 332.78C144.772 335.35 140.022 337.32 136.662 338.42C129.922 340.64 122.652 343.95 115.902 346.18Z" fill="black"/>
</g>
</g>
</g>
</g>
<path d="M36.7331 344.2C36.7331 344.2 28.0831 347.29 28.0431 356.99C27.9731 375.57 65.5731 396.04 65.5731 396.04L115.613 362.88L118.753 361.61C118.763 361.62 51.2031 336.24 36.7331 344.2Z" fill="#263238"/>
<path d="M90.273 379.63C90.253 379.66 89.793 379.34 88.973 378.75C88.153 378.16 86.983 377.27 85.553 376.17C82.683 373.96 78.793 370.82 74.593 367.22C70.403 363.62 66.703 360.24 64.083 357.74C62.773 356.49 61.723 355.47 61.013 354.75C60.303 354.03 59.913 353.62 59.943 353.6C59.963 353.57 60.393 353.94 61.153 354.61C61.973 355.35 63.043 356.32 64.333 357.48C67.013 359.91 70.743 363.24 74.933 366.84C79.123 370.43 82.973 373.61 85.783 375.9C87.133 377 88.253 377.91 89.103 378.61C89.873 379.24 90.293 379.61 90.273 379.63Z" fill="#BDAD94"/>
<path d="M50.8634 351.15C50.8434 351.03 53.0734 350.81 55.6834 351.59C58.3034 352.35 60.0534 353.75 59.9734 353.84C59.8934 353.97 58.0634 352.81 55.5434 352.08C53.0234 351.32 50.8534 351.3 50.8634 351.15Z" fill="#BDAD94"/>
<path d="M55.1712 348.22C55.2112 348.1 56.8212 348.8 58.1412 350.45C59.4712 352.09 59.8212 353.8 59.7012 353.82C59.5512 353.87 59.0112 352.31 57.7512 350.77C56.4912 349.21 55.0912 348.35 55.1712 348.22Z" fill="#BDAD94"/>
<path d="M40.3124 317.82L54.5524 356.17C55.3624 358.36 57.4724 359.8 59.8024 359.77L138.162 358.74V352.79L109.082 353.85L96.7325 315.57C96.3125 314.28 95.1124 313.4 93.7524 313.4L43.2024 313.55C41.0024 313.55 39.5024 315.77 40.3124 317.82Z" fill="#CD9E64"/>
<path d="M40.3126 317.82C40.3126 317.82 40.3026 317.78 40.2826 317.7C40.2626 317.62 40.2126 317.5 40.1826 317.34C40.1126 317.02 40.0526 316.52 40.2126 315.9C40.3726 315.29 40.7826 314.54 41.5926 314.05C41.9926 313.8 42.4726 313.63 43.0126 313.6C43.5526 313.58 44.1326 313.59 44.7526 313.59C49.6926 313.58 56.8625 313.58 65.8425 313.57C70.3325 313.56 75.2826 313.55 80.6226 313.54C83.2926 313.53 86.0625 313.53 88.9226 313.52C90.3526 313.52 91.8125 313.51 93.2826 313.51C94.0226 313.47 94.7426 313.57 95.3726 313.97C95.9826 314.36 96.4626 314.96 96.6726 315.68C100.403 327.26 104.553 340.13 108.983 353.89L109.013 353.98H109.103C118.373 353.64 128.143 353.29 138.183 352.92L138.053 352.79C138.053 353.12 138.053 353.49 138.053 353.85C138.053 355.53 138.053 357.19 138.053 358.74L138.173 358.61C120.643 358.84 104.003 359.07 88.8926 359.27C81.3426 359.37 74.1726 359.47 67.4726 359.56C65.7926 359.58 64.1526 359.61 62.5326 359.63C61.7226 359.64 60.9226 359.65 60.1326 359.66C59.3426 359.69 58.5725 359.6 57.8526 359.33C56.4226 358.8 55.2526 357.67 54.7126 356.31C54.1926 354.92 53.6826 353.55 53.1826 352.22C49.2126 341.57 46.0026 332.97 43.7826 327.02C42.6726 324.06 41.8126 321.76 41.2226 320.19C40.6326 318.63 40.3126 317.82 40.3126 317.82C40.3126 317.82 40.6026 318.65 41.1726 320.21C41.7526 321.79 42.6026 324.09 43.6926 327.06C45.8926 333.02 49.0725 341.63 53.0126 352.29C53.5126 353.62 54.0126 354.99 54.5326 356.39C55.0926 357.8 56.2926 358.98 57.7726 359.52C58.5126 359.8 59.3226 359.9 60.1226 359.87C60.9126 359.86 61.7126 359.85 62.5226 359.84C64.1426 359.82 65.7826 359.8 67.4626 359.78C74.1626 359.7 81.3326 359.61 88.8825 359.51C103.993 359.31 120.633 359.1 138.163 358.87H138.283V358.75C138.283 357.2 138.283 355.53 138.283 353.86C138.283 353.5 138.283 353.13 138.283 352.8V352.67H138.153C128.113 353.04 118.343 353.4 109.073 353.74L109.193 353.83C104.753 340.07 100.593 327.2 96.8526 315.63C96.6325 314.88 96.1226 314.22 95.4626 313.81C94.8125 313.38 93.9926 313.28 93.2626 313.32C91.7826 313.33 90.3326 313.33 88.9026 313.34C86.0426 313.35 83.2726 313.36 80.6026 313.37C75.2626 313.39 70.3226 313.41 65.8226 313.43C56.8426 313.47 49.6726 313.5 44.7326 313.53C44.1126 313.54 43.5326 313.52 42.9926 313.55C42.4426 313.59 41.9426 313.77 41.5426 314.02C40.7226 314.53 40.3226 315.3 40.1626 315.92C40.0126 316.55 40.0726 317.06 40.1526 317.38C40.2426 317.66 40.3126 317.82 40.3126 317.82Z" fill="#263238"/>
<path d="M75.0622 332.32C74.0422 331.63 72.1722 331.91 71.2522 332.73C70.3422 333.55 70.0422 334.97 70.5022 336.1C70.9622 337.24 72.1422 338.03 73.3622 338.1C74.6622 338.17 76.0222 337.35 76.3922 336.1C76.7522 334.85 76.3522 332.98 75.0622 332.32Z" fill="white"/>
<path d="M57.1445 398.13C57.1445 398.13 127.765 352.89 130.885 351.12C133.535 349.61 140.635 345.24 147.625 347.17C154.625 349.1 160.895 355.37 164.035 364.54C165.825 369.78 166.675 378.71 167.075 385.42C167.545 393.43 166.505 400.1 161.265 406.18C158.885 408.95 155.935 411.35 152.445 412.44C151.705 412.67 150.945 412.87 150.165 413.04C136.795 415.94 121.625 411.26 114.115 399.83L112.465 397.32C112.465 397.32 66.2145 414.31 65.4945 414.07L57.1445 398.13Z" fill="#263238"/>
<path d="M144.615 385.37C144.615 385.37 144.485 385.44 144.225 385.54C143.945 385.65 143.565 385.8 143.065 386C142.025 386.4 140.515 386.98 138.585 387.73C134.655 389.21 128.975 391.35 121.925 394.01C114.845 396.65 106.375 399.79 96.8647 403.25C87.3547 406.71 76.8147 410.5 65.5547 414.31L65.3547 414.38L65.2547 414.19C63.4847 410.82 61.6247 407.25 59.7347 403.64C58.7747 401.8 57.8147 399.97 56.9147 398.26L56.8047 398.05L57.0047 397.93C78.2347 384.45 97.2247 372.4 110.935 363.69C117.775 359.37 123.305 355.89 127.135 353.47C129.035 352.29 130.515 351.36 131.535 350.72C132.025 350.42 132.405 350.19 132.685 350.02C132.945 349.86 133.085 349.8 133.085 349.8C133.085 349.8 132.965 349.9 132.715 350.07C132.445 350.25 132.075 350.5 131.595 350.81C130.585 351.47 129.125 352.42 127.245 353.63C123.435 356.08 117.935 359.61 111.135 363.98C97.4547 372.72 78.4847 384.82 57.2947 398.35L57.3847 398.02C58.2747 399.73 59.2347 401.56 60.2047 403.4C62.0947 407.01 63.9547 410.58 65.7247 413.95L65.4247 413.83C76.6747 410.03 87.2147 406.25 96.7347 402.82C106.235 399.36 114.725 396.27 121.835 393.69C128.905 391.09 134.605 389.01 138.545 387.56C140.495 386.85 142.005 386.3 143.055 385.92C143.555 385.74 143.945 385.6 144.225 385.5C144.475 385.4 144.615 385.37 144.615 385.37Z" fill="#BDAD94"/>
<path d="M106.47 224.1C106.47 224.1 102.23 242.31 102.23 255.1V259.36C102.23 259.36 113.17 267.86 122.13 268.11L129.02 249.45L106.47 224.1Z" fill="#263238"/>
<path d="M154.151 233.63C151.831 224.89 150.711 214.67 143.201 209.17C137.631 205.09 131.401 204.1 124.511 204.61C121.121 204.86 117.331 206.55 114.431 208.33C110.451 210.76 108.881 215.47 107.061 219.77C103.411 228.37 104.281 239.83 107.041 242.94L143.071 260.49C150.021 256.58 154.411 254.97 155.231 245.5C155.581 241.52 155.181 237.5 154.151 233.63Z" fill="#263238"/>
<path d="M142.662 216.19L120.162 210.34C112.952 209.53 108.082 218.38 107.582 225.63C107.022 233.68 106.652 243.52 107.562 249.53C109.402 261.62 118.642 263.22 118.642 263.22C118.642 263.18 118.672 263.4 118.712 266.99L118.662 272.81C118.642 275.16 119.342 277.51 120.842 279.32C124.272 283.47 130.282 283.85 137.262 281C141.312 279.35 144.052 276.21 144.232 272.05L146.432 220.52C146.492 218.32 144.852 216.44 142.662 216.19Z" fill="#D4BF9E"/>
<path d="M110.513 237.33C110.483 238.15 111.143 238.85 111.993 238.9C112.843 238.95 113.563 238.33 113.603 237.51C113.633 236.69 112.973 235.99 112.123 235.94C111.273 235.89 110.553 236.51 110.513 237.33Z" fill="#263238"/>
<path d="M109.683 232.84C109.873 233.04 111.053 232.18 112.723 232.2C114.393 232.19 115.603 233.06 115.783 232.85C115.873 232.76 115.683 232.39 115.153 232C114.633 231.61 113.743 231.23 112.703 231.23C111.663 231.23 110.793 231.61 110.283 231.99C109.763 232.38 109.583 232.75 109.683 232.84Z" fill="#263238"/>
<path d="M125.181 237.33C125.151 238.15 125.811 238.85 126.661 238.9C127.511 238.95 128.231 238.33 128.271 237.51C128.301 236.69 127.641 235.99 126.791 235.94C125.931 235.89 125.211 236.51 125.181 237.33Z" fill="#263238"/>
<path d="M126.062 232.5C126.252 232.7 127.432 231.84 129.102 231.86C130.762 231.85 131.982 232.72 132.162 232.51C132.252 232.42 132.062 232.05 131.532 231.66C131.012 231.27 130.122 230.89 129.082 230.89C128.042 230.89 127.172 231.27 126.662 231.65C126.142 232.05 125.972 232.41 126.062 232.5Z" fill="#263238"/>
<path d="M119.933 243.51C119.943 243.42 118.903 243.23 117.233 243C116.803 242.95 116.403 242.87 116.333 242.58C116.233 242.27 116.413 241.81 116.623 241.32C117.033 240.29 117.453 239.22 117.903 238.09C119.683 233.49 120.973 229.7 120.783 229.63C120.593 229.56 119.003 233.23 117.223 237.84C116.793 238.97 116.383 240.06 115.993 241.09C115.833 241.57 115.543 242.12 115.763 242.76C115.873 243.08 116.183 243.31 116.463 243.39C116.733 243.48 116.973 243.48 117.183 243.5C118.873 243.59 119.923 243.6 119.933 243.51Z" fill="#263238"/>
<path d="M118.641 263.22C118.641 263.22 126.761 263.8 134.841 259.02C134.841 259.02 130.781 267.44 118.701 266.23L118.641 263.22Z" fill="#AA997E"/>
<path d="M125.414 246.65C124.944 245.87 124.084 245.46 123.194 245.42C121.914 245.37 120.844 245.8 120.014 246.97C119.724 247.31 119.744 248.27 119.864 248.53C119.974 248.8 119.894 248.66 120.094 248.85C120.834 249.51 121.614 250.18 122.574 250.41C123.534 250.65 124.714 250.34 125.344 249.41C125.904 248.59 125.884 247.43 125.414 246.65Z" fill="#AA997E"/>
<path d="M125.123 244.75C124.853 244.73 124.823 246.54 123.263 247.8C121.703 249.07 119.773 248.84 119.763 249.09C119.733 249.2 120.193 249.45 121.003 249.48C121.803 249.52 122.973 249.28 123.923 248.5C124.873 247.72 125.293 246.68 125.363 245.94C125.443 245.2 125.253 244.75 125.123 244.75Z" fill="#263238"/>
<path d="M125.231 226.43C125.361 226.89 127.041 226.79 128.981 227.15C130.921 227.47 132.461 228.14 132.751 227.76C132.881 227.57 132.631 227.13 132.021 226.65C131.421 226.17 130.441 225.69 129.271 225.49C128.111 225.29 127.021 225.4 126.291 225.65C125.561 225.88 125.181 226.21 125.231 226.43Z" fill="#263238"/>
<path d="M109.671 228.35C110.061 228.67 111.251 228.05 112.771 227.77C114.281 227.43 115.621 227.52 115.851 227.08C115.951 226.87 115.681 226.53 115.051 226.28C114.431 226.03 113.461 225.9 112.421 226.12C111.381 226.34 110.541 226.83 110.081 227.31C109.601 227.78 109.501 228.2 109.671 228.35Z" fill="#263238"/>
<path d="M120.433 209.03C120.413 209.12 120.403 209.21 120.383 209.29L120.423 209.31C120.423 209.22 120.433 209.12 120.433 209.03Z" fill="#263238"/>
<path d="M137.929 267.47C138.169 264.3 136.789 261.16 137.059 257.99C137.339 254.63 139.419 251.69 140.199 248.4C141.459 243.14 139.319 237.67 138.429 232.31C135.399 232.04 132.519 230.31 130.439 228.04C127.929 225.3 126.349 221.85 124.819 218.46C125.009 221.82 126.289 225.11 128.409 227.73C127.079 228.05 125.649 227.53 124.609 226.63C123.569 225.74 122.869 224.51 122.289 223.28C120.879 220.28 120.059 217.01 119.839 213.7C119.549 218.45 120.229 223.27 121.879 227.74C121.029 227.51 120.129 227.77 119.259 227.93C118.389 228.09 117.389 228.09 116.749 227.48C116.319 227.07 116.149 226.47 116.009 225.89C115.049 221.89 114.769 217.72 115.209 213.63C114.209 215.87 113.209 218.13 112.659 220.52C112.109 222.91 112.029 225.47 112.849 227.78C112.519 228.23 111.779 228.19 111.349 227.82C110.929 227.45 110.749 226.88 110.639 226.33C110.259 224.31 110.549 222.24 110.839 220.21C109.699 222.39 109.379 224.88 108.789 227.27C108.199 229.65 107.219 232.11 105.209 233.52C104.739 230 104.789 227.58 105.209 224.25C105.529 221.71 106.649 219.16 107.679 216.81C108.839 214.18 110.479 211.59 112.349 209.84C115.799 206.61 117.329 207.9 119.639 209.02L119.909 209.12C119.919 209.06 119.919 209.01 119.919 208.95L120.009 208.46C125.869 206.94 132.149 207.03 137.969 208.72C142.289 209.98 147.699 214.2 150.009 218.07C150.049 218.14 150.099 218.22 150.139 218.29C155.479 227.23 159.599 240.09 156.449 261.1L137.929 267.47Z" fill="#263238"/>
<path d="M104.58 291.85C102.67 297.57 100.73 303.38 100.43 309.4C100.12 315.42 101.64 321.8 105.81 326.15" fill="#BDAD94"/>
<path d="M105.81 326.15C105.8 326.16 105.7 326.08 105.53 325.91C105.36 325.74 105.09 325.5 104.8 325.14C104.19 324.45 103.4 323.36 102.63 321.9C101.07 318.99 99.8902 314.42 100.17 309.38C100.45 304.34 101.77 299.94 102.77 296.83C103.28 295.27 103.72 294.02 104.04 293.16C104.36 292.3 104.55 291.83 104.59 291.84C104.62 291.85 104.5 292.34 104.24 293.22C103.95 294.19 103.58 295.44 103.13 296.93C102.23 300.06 100.98 304.44 100.7 309.4C100.43 314.36 101.52 318.84 102.97 321.73C104.38 324.67 105.91 326.08 105.81 326.15Z" fill="#263238"/>
<path d="M173.253 294.83C173.273 294.83 173.273 295.06 173.263 295.49C173.243 295.97 173.223 296.6 173.193 297.37C173.113 299 172.963 301.36 172.743 304.27C172.313 310.1 171.503 318.12 170.743 327C170.443 331.46 169.733 335.68 168.783 339.43C168.293 341.3 167.763 343.09 166.933 344.64C166.093 346.17 165.033 347.43 163.933 348.42C161.703 350.39 159.413 351.27 157.853 351.72C157.063 351.95 156.433 352.07 156.013 352.13C155.583 352.19 155.363 352.22 155.363 352.2C155.353 352.15 156.253 352.02 157.803 351.53C159.333 351.02 161.563 350.11 163.703 348.15C164.763 347.17 165.773 345.94 166.563 344.44C167.343 342.94 167.853 341.18 168.323 339.32C169.243 335.58 169.923 331.4 170.233 326.96C170.983 318.08 171.853 310.06 172.383 304.24C172.643 301.38 172.853 299.04 173.003 297.35C173.073 296.58 173.133 295.96 173.173 295.48C173.203 295.05 173.233 294.83 173.253 294.83Z" fill="#263238"/>
<path d="M35.0822 151.447L36.4922 153.057C48.3922 166.617 66.6622 172.837 84.0322 168.617C86.2622 168.077 88.4622 167.377 90.5922 166.507C105.962 160.267 117.732 145.737 120.762 129.257C122.542 119.557 121.642 108.917 126.802 100.567C133.512 89.6967 147.662 86.8867 160.222 85.0767C172.782 83.2667 186.932 80.4267 193.602 69.5167C197.772 62.6867 197.952 53.9967 196.132 46.1567C191.322 25.4067 173.422 9.24672 153.212 3.20672C133.002 -2.83328 110.992 0.186719 91.3922 7.86672C63.9422 18.6267 39.6522 39.1667 27.6722 66.3767C15.6922 93.5867 17.4322 127.467 35.0822 151.447Z" fill="#EFEAE5"/>
</svg>
