<svg width="187" height="151" viewBox="0 0 187 151" fill="none" xmlns="http://www.w3.org/2000/svg">
<path d="M125.823 64.1211H60.7342V129.179H125.823V64.1211Z" fill="#FFA412"/>
<path d="M145.89 64.121H80.8012V129.179H145.89V64.121Z" fill="#FFB93E"/>
<path d="M80.801 64.1211L60.7342 76.2829V64.1211H80.801Z" fill="#F99746"/>
<path d="M93.3333 102.118H68.099L69.1618 99.1696L68.099 95.9896H93.0982L91.5654 99.2888L93.3333 102.118Z" fill="#FFD5AB"/>
<path d="M80.7161 95.9896V102.118H68.099L69.1618 99.1696L68.099 95.9896H80.7161Z" fill="#F99746"/>
<path d="M118.113 26.7137H80.684V64.1251H118.113V26.7137Z" fill="#FFA412"/>
<path d="M129.654 26.7133H92.2246V64.1247H129.654V26.7133Z" fill="#FFB93E"/>
<path d="M92.2246 26.7137L80.684 33.707V26.7137H92.2246Z" fill="#F99746"/>
<path d="M136.527 34.6604H107.049V64.1251H136.527V34.6604Z" fill="#4A75CB"/>
<path d="M145.616 34.6602H116.137V64.1249H145.616V34.6602Z" fill="#699DEE"/>
<path d="M129.426 54.8722L118.487 57.0554L119.597 62.611L130.536 60.4277L129.426 54.8722Z" fill="#EBF2F9"/>
<path d="M121.441 42.1675H110.79L111.239 40.9247L110.79 39.5833H121.342L120.695 40.9758L121.441 42.1675Z" fill="#EBF2F9"/>
<path d="M116.117 39.5833V42.1675H110.79L111.239 40.9247L110.79 39.5833H116.117Z" fill="#A6C7F9"/>
<path d="M98.5223 34.8063H85.9359L86.4638 33.3389L85.9359 31.7488H98.4031L97.64 33.3967L98.5223 34.8063Z" fill="#FFD5AB"/>
<path d="M92.2273 31.7488V34.8063H85.9359L86.4638 33.3389L85.9359 31.7488H92.2273Z" fill="#F99746"/>
<path d="M98.5223 57.4002H85.9359L86.4638 55.9294L85.9359 54.3428H98.4031L97.64 55.9907L98.5223 57.4002Z" fill="#FFD5AB"/>
<path d="M92.2273 54.3428V57.4002H85.9359L86.4638 55.9294L85.9359 54.3428H92.2273Z" fill="#F99746"/>
<path d="M167.851 77.4237H116.067V129.183H167.851V77.4237Z" fill="#4A75CB"/>
<path d="M183.815 77.4233H132.032V129.182H183.815V77.4233Z" fill="#699DEE"/>
<path d="M179.505 80.5423L167.099 83.0182L168.358 89.3183L180.764 86.8424L179.505 80.5423Z" fill="#EBF2F9"/>
<path d="M138.91 85.6187H124.872L125.465 83.981L124.872 82.2105H138.777L137.925 84.0457L138.91 85.6187Z" fill="#EBF2F9"/>
<path d="M131.893 82.2105V85.6187H124.872L125.465 83.981L124.872 82.2105H131.893Z" fill="#A6C7F9"/>
<path d="M138.91 124.171H124.872L125.465 122.533L124.872 120.763H138.777L137.925 122.598L138.91 124.171Z" fill="#EBF2F9"/>
<path d="M131.893 120.763V124.171H124.872L125.465 122.533L124.872 120.763H131.893Z" fill="#A6C7F9"/>
<path d="M67.2053 136.486C63.2778 136.486 60.0963 139.666 60.0963 143.591C60.0963 147.517 63.2778 150.697 67.2053 150.697C71.1328 150.697 74.3143 147.517 74.3143 143.591C74.3143 139.666 71.1328 136.486 67.2053 136.486Z" fill="#232323"/>
<path d="M67.2056 138.971C64.6849 138.971 62.6445 141.014 62.6445 143.53C62.6445 146.049 64.6883 148.089 67.2056 148.089C69.7263 148.089 71.7667 146.046 71.7667 143.53C71.7667 141.01 69.7263 138.971 67.2056 138.971Z" fill="black"/>
<path d="M168.233 136.486C164.306 136.486 161.124 139.666 161.124 143.591C161.124 147.517 164.306 150.697 168.233 150.697C172.161 150.697 175.343 147.517 175.343 143.591C175.343 139.666 172.161 136.486 168.233 136.486Z" fill="#232323"/>
<path d="M168.233 138.971C165.713 138.971 163.672 141.014 163.672 143.53C163.672 146.049 165.716 148.089 168.233 148.089C170.754 148.089 172.795 146.046 172.795 143.53C172.795 141.01 170.754 138.971 168.233 138.971Z" fill="black"/>
<path d="M184.087 129.149H67.7569L21.323 2.61008C20.9033 1.46811 19.8351 0.690479 18.617 0.638819L3.13632 0.00256987C1.47407 -0.0654046 0.0707005 1.2234 0.00257557 2.88198C-0.0655493 4.54056 1.2261 5.94083 2.88835 6.0088L16.358 6.56347L61.3395 129.146H51.2243C49.622 129.146 48.3113 130.454 48.3113 132.053V135.522C48.3113 137.121 49.622 138.429 51.2243 138.429H184.087C185.689 138.429 187 137.121 187 135.522V132.053C187.003 130.457 185.692 129.149 184.087 129.149Z" fill="#8F7A61"/>
</svg>
