<svg width="23" height="24" viewBox="0 0 23 24" fill="none" xmlns="http://www.w3.org/2000/svg">
<path d="M1.46497 2.92994C2.27405 2.92994 2.92994 2.27405 2.92994 1.46497C2.92994 0.655889 2.27405 0 1.46497 0C0.655889 0 0 0.655889 0 1.46497C0 2.27405 0.655889 2.92994 1.46497 2.92994Z" fill="#8F7A61"/>
<path d="M0.78125 3.61379V14.1277H12.9259C13.2741 14.1277 13.6108 14.2026 13.9175 14.3447V3.92149C13.9175 3.37927 13.4795 2.92993 12.9259 2.92993H1.46511C1.08744 2.92993 0.78125 3.23607 0.78125 3.61379Z" fill="#8F7A61"/>
<path d="M4.39453 15.4956V20.5176L13.5735 16.9873C13.7788 16.9082 13.9169 16.7072 13.9169 16.4872C13.9169 15.9404 13.4722 15.4956 12.9254 15.4956H4.39453Z" fill="#8F7A61"/>
<path d="M18.367 17.7434L22.7984 13.312C23.2292 12.8812 22.9241 12.1445 22.3149 12.1445H15.2846V16.4869C15.2846 17.2686 14.7943 17.9826 14.0647 18.2635L4.7381 21.8506C4.53244 21.9296 4.39453 22.1305 4.39453 22.3508C4.39453 22.8975 4.83931 23.3423 5.38609 23.3423H22.3149C22.9241 23.3423 23.2292 22.6057 22.7984 22.1749L18.367 17.7434Z" fill="#8F7A61"/>
<path d="M0.78125 22.6587C0.78125 23.0364 1.08744 23.3426 1.46511 23.3426C1.84279 23.3426 2.14897 23.0364 2.14897 22.6587V15.4956H0.78125V22.6587Z" fill="#8F7A61"/>
</svg>
