<svg width="683" height="304" viewBox="0 0 683 304" fill="none" xmlns="http://www.w3.org/2000/svg">
<path d="M255.725 179.303H143.199V274.722H269.277L255.725 179.303Z" fill="#DB6161"/>
<path d="M250.8 182.568H123.266V274.722H264.025L250.8 182.568Z" fill="#85B2EF"/>
<path d="M195.795 274.721H213.137V257.111H195.795V274.721Z" fill="#E69D43"/>
<path d="M212.414 274.721H222.91V257.111H212.414V274.721Z" fill="#D57912"/>
<path d="M194.874 257.355H223.633V234.989H194.874V257.355Z" fill="#E69D43"/>
<path d="M222.912 257.356H230.852V239.99H222.912V257.356Z" fill="#D57912"/>
<path d="M73.8408 281.382H36.809C35.9103 281.382 35.1738 280.645 35.1738 279.745V265.117C35.1738 264.217 35.9103 263.48 36.809 263.48H73.844C74.7427 263.48 75.4792 264.217 75.4792 265.117V279.745C75.4792 280.645 74.7427 281.382 73.8408 281.382Z" fill="#B65615"/>
<path d="M177.643 287.296C177.643 278.361 184.878 271.115 193.8 271.115C202.722 271.115 209.957 278.361 209.957 287.296C209.957 296.231 202.722 303.476 193.8 303.476C184.874 303.476 177.643 296.234 177.643 287.296Z" fill="#232323"/>
<path d="M231.973 287.296C231.973 278.361 239.208 271.115 248.13 271.115C257.052 271.115 264.287 278.361 264.287 287.296C264.287 296.231 257.052 303.476 248.13 303.476C239.204 303.476 231.973 296.234 231.973 287.296Z" fill="#232323"/>
<path d="M40.6758 287.296C40.6758 278.361 47.9108 271.115 56.833 271.115C65.7551 271.115 72.9902 278.361 72.9902 287.296C72.9902 296.231 65.7551 303.476 56.833 303.476C47.9108 303.476 40.6758 296.234 40.6758 287.296Z" fill="#232323"/>
<path d="M48.6777 287.296C48.6777 282.786 52.3277 279.127 56.8309 279.127C61.3342 279.127 64.9874 282.783 64.9874 287.296C64.9874 291.805 61.3374 295.461 56.8309 295.461C52.3309 295.464 48.6777 291.805 48.6777 287.296Z" fill="#D36E2A"/>
<path d="M48.6777 287.296C48.6777 282.786 52.3277 279.127 56.8309 279.127C61.3342 279.127 64.9874 282.783 64.9874 287.296C64.9874 291.805 61.3374 295.461 56.8309 295.461C52.3309 295.464 48.6777 291.805 48.6777 287.296Z" fill="black"/>
<path opacity="0.3" d="M62.2619 281.204C62.7193 282.224 62.9757 283.354 62.9757 284.547C62.9757 289.057 59.3257 292.715 54.8224 292.715C52.7363 292.715 50.8351 291.929 49.3945 290.642C50.6696 293.485 53.5214 295.467 56.834 295.467C61.3372 295.467 64.9904 291.812 64.9904 287.302C64.9872 284.875 63.936 282.698 62.2619 281.204Z" fill="#8F7A61"/>
<path d="M56.834 289.827C58.2299 289.827 59.3614 288.693 59.3614 287.296C59.3614 285.898 58.2299 284.765 56.834 284.765C55.4382 284.765 54.3066 285.898 54.3066 287.296C54.3066 288.693 55.4382 289.827 56.834 289.827Z" fill="#8F7A61"/>
<path d="M51.5527 291.633C51.5527 291.091 51.9907 290.652 52.5325 290.652C53.0744 290.652 53.5123 291.091 53.5123 291.633C53.5123 292.176 53.0744 292.614 52.5325 292.614C51.9907 292.614 51.5527 292.176 51.5527 291.633Z" fill="#8F7A61"/>
<path d="M51.39 285.336C51.9311 285.336 52.3698 284.897 52.3698 284.355C52.3698 283.813 51.9311 283.374 51.39 283.374C50.8488 283.374 50.4102 283.813 50.4102 284.355C50.4102 284.897 50.8488 285.336 51.39 285.336Z" fill="#8F7A61"/>
<path d="M61.1738 284.355C61.1738 283.813 61.6118 283.374 62.1536 283.374C62.6954 283.374 63.1334 283.813 63.1334 284.355C63.1334 284.898 62.6954 285.336 62.1536 285.336C61.6118 285.336 61.1738 284.898 61.1738 284.355Z" fill="#8F7A61"/>
<path d="M60.3594 291.633C60.3594 291.091 60.7974 290.652 61.3392 290.652C61.881 290.652 62.319 291.091 62.319 291.633C62.319 292.176 61.881 292.614 61.3392 292.614C60.7974 292.614 60.3594 292.176 60.3594 291.633Z" fill="#8F7A61"/>
<path d="M55.8535 281.057C55.8535 280.515 56.2915 280.076 56.8333 280.076C57.3751 280.076 57.8131 280.515 57.8131 281.057C57.8131 281.6 57.3751 282.039 56.8333 282.039C56.2915 282.035 55.8535 281.597 55.8535 281.057Z" fill="#8F7A61"/>
<path d="M185.342 287.296C185.342 282.786 188.992 279.127 193.495 279.127C197.998 279.127 201.648 282.783 201.648 287.296C201.648 291.805 197.998 295.461 193.495 295.461C188.995 295.464 185.342 291.805 185.342 287.296Z" fill="#D36E2A"/>
<path d="M185.342 287.296C185.342 282.786 188.992 279.127 193.495 279.127C197.998 279.127 201.648 282.783 201.648 287.296C201.648 291.805 197.998 295.461 193.495 295.461C188.995 295.464 185.342 291.805 185.342 287.296Z" fill="black"/>
<path d="M193.498 289.827C194.894 289.827 196.026 288.693 196.026 287.296C196.026 285.898 194.894 284.765 193.498 284.765C192.102 284.765 190.971 285.898 190.971 287.296C190.971 288.693 192.102 289.827 193.498 289.827Z" fill="#8F7A61"/>
<path d="M188.217 291.633C188.217 291.091 188.655 290.652 189.197 290.652C189.738 290.652 190.176 291.091 190.176 291.633C190.176 292.176 189.738 292.614 189.197 292.614C188.655 292.614 188.217 292.176 188.217 291.633Z" fill="#8F7A61"/>
<path d="M187.85 284.355C187.85 283.813 188.288 283.374 188.829 283.374C189.371 283.374 189.809 283.813 189.809 284.355C189.809 284.898 189.371 285.336 188.829 285.336C188.288 285.336 187.85 284.898 187.85 284.355Z" fill="#8F7A61"/>
<path d="M197.025 291.633C197.025 291.091 197.463 290.652 198.005 290.652C198.547 290.652 198.985 291.091 198.985 291.633C198.985 292.176 198.547 292.614 198.005 292.614C197.463 292.614 197.025 292.176 197.025 291.633Z" fill="#8F7A61"/>
<path d="M186.007 282.039C186.548 282.039 186.987 281.599 186.987 281.057C186.987 280.515 186.548 280.076 186.007 280.076C185.466 280.076 185.027 280.515 185.027 281.057C185.027 281.599 185.466 282.039 186.007 282.039Z" fill="#B65615"/>
<path d="M86.582 287.296C86.582 278.361 93.8171 271.115 102.739 271.115C111.661 271.115 118.896 278.361 118.896 287.296C118.896 296.231 111.661 303.476 102.739 303.476C93.8171 303.476 86.582 296.234 86.582 287.296Z" fill="#232323"/>
<path d="M56.6543 199.928C56.6543 199.928 65.4207 186.685 75.5563 186.574L74.6511 200.903L56.6543 199.928Z" fill="#578DDD"/>
<path d="M108.3 260.429H38.1328L43.9728 212.963C44.9234 205.247 51.4674 199.454 59.228 199.454H108.3V260.429Z" fill="#85B2EF"/>
<path d="M67.5114 231.415H47.834L50.4393 212.674C50.9746 208.814 54.2709 205.942 58.1642 205.942H68.1213L67.5114 231.415Z" fill="#578DDD"/>
<path d="M66.0581 230.005H53.1031C51.1467 230.005 49.6413 228.279 49.8976 226.34L51.6172 213.373C52.0714 209.948 54.8584 207.398 58.1514 207.398H66.574L66.0581 230.005Z" fill="#DCE7F9"/>
<path d="M203.742 274.722H68.7773L74.799 179.303H195.767L203.742 274.722Z" fill="#FFA412"/>
<path d="M198.459 271.102H73.7344L79.2985 182.922H191.088L197.064 254.399L198.459 271.102Z" fill="#FFB93E"/>
<path d="M80.9462 260.429H38.1329C34.3629 260.679 33.9995 262.547 33.9995 262.547L30.3398 280.281C30.3398 280.888 30.8946 281.382 31.576 281.382H42.3409C43.0223 281.382 43.5122 280.882 43.8009 280.252C43.8009 280.252 45.4588 278.201 46.5684 277.47C49.3521 275.631 52.3727 274.429 56.837 274.429C62.3265 274.429 67.1737 276.177 70.0937 278.848H80.9527C82.2635 278.848 83.3341 278.162 83.3341 277.324V261.95C83.3309 261.115 82.257 260.429 80.9462 260.429Z" fill="#578DDD"/>
<path d="M215.567 295.243H201.999C201.688 293.596 201.097 292.146 200.299 290.866C196.195 284.28 186.605 282.269 181.138 281.655C178.743 281.386 177.141 281.386 177.141 281.386H200.465C206.567 282.214 210.312 285.544 212.547 288.735C214.883 292.065 215.567 295.243 215.567 295.243Z" fill="#85B2EF"/>
<path d="M269.277 295.243H255.709C255.355 293.368 254.638 291.747 253.668 290.346C247.471 281.395 230.854 281.382 230.854 281.382H254.181C259.284 282.074 262.736 284.518 265.037 287.166C268.359 290.993 269.277 295.243 269.277 295.243Z" fill="#85B2EF"/>
<path d="M212.545 288.735C212.545 288.735 203.614 286.847 200.298 290.866C196.194 284.28 186.603 282.269 181.136 281.655C181.026 281.564 180.916 281.473 180.809 281.386H200.466C206.566 282.211 210.313 285.544 212.545 288.735Z" fill="#4F82CD"/>
<path d="M265.035 287.166C265.035 287.169 265.035 287.169 265.035 287.166C265.035 287.166 257.566 287 253.666 290.347C247.469 281.395 230.852 281.382 230.852 281.382H254.179C259.279 282.074 262.734 284.521 265.035 287.166Z" fill="#4F82CD"/>
<path d="M71.8364 283.978H270.816C271.816 283.978 272.633 283.16 272.633 282.159V276.541C272.633 275.54 271.816 274.722 270.816 274.722H71.8364C70.8371 274.722 70.0195 275.54 70.0195 276.541V282.159C70.0195 283.16 70.8371 283.978 71.8364 283.978Z" fill="#578DDD"/>
<path d="M117.148 297.546H80.3438C79.3802 297.546 78.5918 296.757 78.5918 295.792V278.803C78.5918 277.838 79.3802 277.048 80.3438 277.048H117.148C118.112 277.048 118.9 277.838 118.9 278.803V295.792C118.9 296.757 118.112 297.546 117.148 297.546Z" fill="#578DDD"/>
<path d="M198.622 271.102H73.8965L79.4607 182.922H101.247C108.067 203.067 131.138 250.821 197.226 254.399L198.622 271.102Z" fill="#FFA412"/>
<path d="M39.4091 222.23C39.4091 222.23 37.6539 231.668 37.7415 233.208C37.8291 234.748 39.2793 235.499 40.3824 235.499L39.4091 222.23Z" fill="#85B2EF"/>
<path d="M44.7373 235.499H40.4741C39.8512 235.499 39.3418 234.989 39.3418 234.365V222.577C39.3418 221.953 39.8512 221.443 40.4741 221.443H44.7373C45.3602 221.443 45.8696 221.953 45.8696 222.577V234.365C45.8696 234.989 45.3602 235.499 44.7373 235.499Z" fill="#578DDD"/>
<path d="M44.4087 234.816H41.0313C40.4992 234.816 40.0645 234.381 40.0645 233.848V223.201C40.0645 222.668 40.4992 222.233 41.0313 222.233H44.4087C44.9408 222.233 45.3756 222.668 45.3756 223.201V233.848C45.3756 234.381 44.9408 234.816 44.4087 234.816Z" fill="#DCE7F9"/>
<path d="M42.6041 221.697C42.484 221.697 42.3867 221.583 42.3867 221.44V217.473C42.3867 217.463 42.3867 217.45 42.39 217.44C42.3932 217.418 42.6625 215.16 45.0342 215.231C47.2047 215.299 48.1391 215.231 48.1488 215.231C48.2688 215.221 48.3727 215.329 48.3792 215.471C48.3856 215.614 48.2948 215.735 48.1748 215.744C48.1358 215.748 47.2112 215.813 45.0212 215.744C43.1102 215.686 42.8442 217.307 42.8215 217.489V221.44C42.8215 221.583 42.7241 221.697 42.6041 221.697Z" fill="#578DDD"/>
<path d="M65.6885 237.523H61.7173C61.1625 237.523 60.7051 237.068 60.7051 236.509C60.7051 235.954 61.1593 235.496 61.7173 235.496H65.6885C66.2433 235.496 66.7008 235.95 66.7008 236.509C66.7008 237.068 66.2465 237.523 65.6885 237.523Z" fill="#578DDD"/>
<path d="M224.584 274.722H241.926V257.355H224.584V274.722Z" fill="#E69D43"/>
<path d="M241.205 274.722H249.145V257.355H241.205V274.722Z" fill="#D57912"/>
<path d="M104.057 221.583C104.823 221.583 105.484 221.684 106.049 221.885C106.61 222.087 107.081 222.373 107.46 222.746C107.837 223.12 108.125 223.568 108.326 224.095C108.528 224.621 108.648 225.212 108.69 225.862C108.732 226.629 108.732 227.392 108.69 228.159C108.648 228.812 108.528 229.4 108.326 229.927C108.125 230.453 107.84 230.905 107.467 231.275C107.094 231.649 106.633 231.935 106.081 232.136C105.53 232.337 104.881 232.438 104.138 232.438H100.235C100.121 232.438 100.024 232.396 99.9397 232.315C99.8553 232.233 99.8164 232.133 99.8164 232.019V221.996C99.8164 221.882 99.8586 221.784 99.9397 221.7C100.021 221.619 100.121 221.577 100.235 221.577H104.057V221.583ZM106.597 225.865C106.578 225.534 106.513 225.228 106.403 224.943C106.295 224.657 106.133 224.41 105.922 224.199C105.712 223.987 105.445 223.822 105.124 223.701C104.803 223.581 104.42 223.523 103.979 223.523H101.903V230.505H104.057C104.479 230.505 104.848 230.446 105.157 230.326C105.468 230.206 105.724 230.044 105.932 229.839C106.14 229.631 106.295 229.384 106.406 229.095C106.513 228.806 106.578 228.494 106.6 228.162C106.636 227.396 106.636 226.629 106.597 225.865Z" fill="white"/>
<path d="M117.937 230.505C118.05 230.505 118.148 230.547 118.232 230.628C118.313 230.713 118.355 230.81 118.355 230.924V232.026C118.355 232.139 118.313 232.237 118.232 232.321C118.148 232.402 118.05 232.445 117.937 232.445H111.133C111.02 232.445 110.922 232.402 110.838 232.321C110.754 232.24 110.715 232.139 110.715 232.026V222.002C110.715 221.888 110.757 221.791 110.838 221.706C110.919 221.625 111.02 221.583 111.133 221.583H117.81C117.924 221.583 118.021 221.625 118.106 221.706C118.187 221.788 118.229 221.888 118.229 222.002V223.104C118.229 223.217 118.187 223.315 118.106 223.399C118.024 223.48 117.924 223.523 117.81 223.523H112.804V225.989H117.466C117.58 225.989 117.677 226.031 117.762 226.112C117.843 226.193 117.885 226.294 117.885 226.408V227.509C117.885 227.623 117.843 227.721 117.762 227.805C117.677 227.889 117.58 227.928 117.466 227.928H112.804V230.505H117.937Z" fill="white"/>
<path d="M127.481 230.505C127.595 230.505 127.692 230.547 127.776 230.628C127.858 230.713 127.9 230.81 127.9 230.924V232.026C127.9 232.139 127.858 232.237 127.776 232.321C127.692 232.402 127.595 232.445 127.481 232.445H120.694C120.58 232.445 120.483 232.402 120.399 232.321C120.314 232.24 120.275 232.139 120.275 232.026V222.002C120.275 221.888 120.318 221.791 120.399 221.706C120.48 221.625 120.58 221.583 120.694 221.583H121.95C122.063 221.583 122.16 221.625 122.245 221.706C122.326 221.788 122.368 221.888 122.368 222.002V230.505H127.481Z" fill="white"/>
<path d="M129.807 232.445C129.694 232.445 129.596 232.402 129.512 232.321C129.428 232.24 129.389 232.139 129.389 232.026V222.002C129.389 221.888 129.431 221.791 129.512 221.706C129.593 221.625 129.694 221.583 129.807 221.583H131.063C131.176 221.583 131.274 221.625 131.358 221.706C131.439 221.788 131.481 221.888 131.481 222.002V232.026C131.481 232.139 131.439 232.237 131.358 232.321C131.277 232.402 131.176 232.445 131.063 232.445H129.807Z" fill="white"/>
<path d="M137.831 229.371L140.433 221.97C140.466 221.888 140.518 221.801 140.596 221.713C140.673 221.625 140.79 221.58 140.943 221.58H142.12C142.234 221.58 142.331 221.622 142.416 221.703C142.497 221.784 142.539 221.885 142.539 221.999C142.539 222.018 142.539 222.038 142.539 222.054C142.539 222.07 142.529 222.103 142.507 222.155L139.035 231.915C138.973 232.091 138.902 232.224 138.818 232.311C138.733 232.399 138.61 232.445 138.445 232.445H137.212C137.046 232.445 136.923 232.402 136.839 232.311C136.754 232.224 136.683 232.091 136.621 231.915L133.15 222.155C133.13 222.103 133.117 222.07 133.117 222.054C133.117 222.038 133.117 222.022 133.117 221.999C133.117 221.885 133.159 221.788 133.24 221.703C133.322 221.622 133.422 221.58 133.536 221.58H134.713C134.869 221.58 134.986 221.625 135.061 221.713C135.138 221.801 135.194 221.885 135.223 221.97L137.831 229.371Z" fill="white"/>
<path d="M151.406 230.505C151.52 230.505 151.617 230.547 151.702 230.628C151.783 230.713 151.825 230.81 151.825 230.924V232.026C151.825 232.139 151.783 232.237 151.702 232.321C151.617 232.402 151.52 232.445 151.406 232.445H144.606C144.492 232.445 144.395 232.402 144.311 232.321C144.226 232.24 144.188 232.139 144.188 232.026V222.002C144.188 221.888 144.23 221.791 144.311 221.706C144.392 221.625 144.492 221.583 144.606 221.583H151.283C151.397 221.583 151.494 221.625 151.578 221.706C151.659 221.788 151.702 221.888 151.702 222.002V223.104C151.702 223.217 151.659 223.315 151.578 223.399C151.494 223.48 151.397 223.523 151.283 223.523H146.28V225.989H150.942C151.056 225.989 151.153 226.031 151.238 226.112C151.319 226.193 151.361 226.294 151.361 226.408V227.509C151.361 227.623 151.319 227.721 151.238 227.805C151.156 227.889 151.056 227.928 150.942 227.928H146.28V230.505H151.406Z" fill="white"/>
<path d="M158.162 221.583C159.453 221.583 160.433 221.882 161.104 222.483C161.776 223.084 162.11 223.916 162.11 224.982C162.11 225.735 161.938 226.382 161.591 226.915C161.244 227.448 160.738 227.844 160.066 228.101L162.204 231.935C162.237 231.996 162.25 232.055 162.25 232.107C162.25 232.201 162.217 232.279 162.149 232.347C162.081 232.415 162.003 232.448 161.909 232.448H160.592C160.384 232.448 160.232 232.399 160.134 232.302C160.037 232.204 159.966 232.113 159.927 232.029L157.899 228.409H155.839V232.026C155.839 232.139 155.797 232.237 155.715 232.321C155.631 232.402 155.534 232.445 155.42 232.445H154.165C154.051 232.445 153.954 232.402 153.869 232.321C153.785 232.24 153.746 232.139 153.746 232.026V222.002C153.746 221.888 153.788 221.791 153.869 221.706C153.95 221.625 154.051 221.583 154.165 221.583H158.162ZM155.836 226.47H158.081C158.668 226.47 159.138 226.366 159.492 226.158C159.842 225.95 160.018 225.557 160.018 224.978C160.018 224.4 159.842 224.01 159.492 223.815C159.142 223.62 158.671 223.519 158.081 223.519H155.836V226.47Z" fill="white"/>
<path d="M171.967 221.583C172.08 221.583 172.177 221.625 172.262 221.706C172.343 221.788 172.385 221.888 172.385 222.002C172.385 222.054 172.375 222.1 172.353 222.142L168.68 228.611V232.026C168.68 232.139 168.638 232.237 168.557 232.321C168.472 232.402 168.375 232.445 168.261 232.445H167.022C166.909 232.445 166.811 232.402 166.727 232.321C166.646 232.24 166.604 232.139 166.604 232.026V228.611L162.931 222.142C162.911 222.1 162.898 222.054 162.898 222.002C162.898 221.888 162.941 221.791 163.022 221.706C163.103 221.625 163.203 221.583 163.317 221.583H164.478C164.686 221.583 164.839 221.635 164.942 221.739C165.046 221.843 165.108 221.921 165.127 221.973L167.639 226.362L170.15 221.973C170.169 221.921 170.231 221.843 170.335 221.739C170.438 221.635 170.594 221.583 170.799 221.583H171.967Z" fill="white"/>
<path d="M275.215 11.0428C250.204 11.0428 227.181 19.8348 209.126 34.5141C185.439 53.8396 170.365 83.1983 170.365 116.04C170.365 174.016 275.212 302.894 275.212 302.894C275.212 302.894 322.833 244.349 353.808 188.446C368.881 161.41 380.062 134.95 380.062 116.04C380.062 58.0699 333.105 11.0428 275.215 11.0428ZM275.215 163.977C248.134 163.977 226.185 142.085 226.185 114.965C226.185 108.327 227.509 102.027 229.913 96.2173C237.285 78.3864 254.759 65.8644 275.215 65.8644C302.296 65.8644 324.245 87.8412 324.245 114.961C324.245 138.433 307.847 157.924 285.899 162.732C282.502 163.564 278.859 163.977 275.215 163.977Z" fill="#85B2EF"/>
<path d="M353.808 188.446C322.834 244.346 275.216 302.898 275.216 302.898C275.216 302.898 170.369 174.017 170.369 116.043C170.369 83.2015 185.443 53.8396 209.13 34.5173C213.105 53.5115 219.564 75.2413 229.917 96.2206C227.516 102.027 226.189 108.33 226.189 114.968C226.189 142.088 248.134 163.98 275.219 163.98C278.862 163.98 282.506 163.567 285.903 162.736C304.201 175.261 326.562 184.466 353.808 188.446Z" fill="#578DDD"/>
<path d="M644.291 193.742C622.914 193.742 605.582 211.098 605.582 232.506C605.582 253.915 644.291 301.514 644.291 301.514C644.291 301.514 683 253.915 683 232.506C683 211.095 665.668 193.742 644.291 193.742ZM644.291 250.23C634.298 250.23 626.197 242.117 626.197 232.11C626.197 222.103 634.298 213.99 644.291 213.99C654.284 213.99 662.385 222.103 662.385 232.11C662.382 242.117 654.284 250.23 644.291 250.23Z" fill="#CD9E64"/>
<path d="M181.49 302.979H155.908C156.174 302.059 157.037 300.48 159.866 300.019C163.815 299.376 170.657 297.079 172.182 292.023C172.231 291.861 172.276 291.692 172.312 291.523C173.522 286.119 182.334 293.176 182.334 293.176C182.334 293.176 182.36 293.394 182.399 293.761C182.603 295.74 183.119 302.069 181.49 302.979Z" fill="#CD9E64"/>
<path d="M160.914 158.437C160.914 158.437 162.254 175.157 163.824 195.256C165.962 222.558 168.532 256.095 168.788 262.45C169.226 273.484 170.991 291.13 170.991 291.13C170.991 291.13 175.173 295.321 183.547 293.557C183.547 293.557 191.009 268.363 193.141 241.711C193.173 241.276 193.206 240.834 193.241 240.395C195.224 213.262 198.306 156.124 198.306 156.124L160.914 158.437Z" fill="#232323"/>
<path d="M160.914 158.437C160.914 158.437 162.254 175.157 163.824 195.256L193.141 241.708C193.173 241.272 193.206 240.831 193.241 240.392C195.224 213.259 198.306 156.121 198.306 156.121L160.914 158.437Z" fill="black"/>
<path d="M167.023 160.422C167.023 160.422 191.146 220.979 207.004 249.437C222.866 277.896 227.82 285.837 227.82 285.837C227.82 285.837 236.908 282.198 237.732 279.715C237.732 279.715 231.668 224.777 221.046 211.384C215.044 203.817 207.994 181.106 207.663 173.165C207.332 165.224 205.515 149.505 205.515 149.505L167.023 160.422Z" fill="#232323"/>
<path d="M198.761 67.1023C198.761 67.1023 182.441 75.1113 173.029 72.1384C173.029 72.1384 175.346 69.1687 179.398 66.9561C179.074 65.0359 178.821 63.3691 178.675 61.9558C178.276 58.6937 178.276 56.845 178.276 56.845L184.573 51.8089L190.543 46.9873C190.075 60.5424 198.761 67.1023 198.761 67.1023Z" fill="#D4BF9E"/>
<path d="M207.362 152.605C207.398 153.619 205.263 154.779 204.322 155.214C197.337 158.33 190.825 160.504 183.441 161.231C174.72 162.138 164.406 160.143 160.86 160.218C160.496 160.218 160.172 160.071 159.883 159.818C159.63 159.636 159.449 148.947 159.63 135.502C159.63 134.959 159.63 134.413 159.666 133.871V133.689C159.737 128.435 159.919 122.925 160.172 117.418C160.678 105.311 161.619 93.644 163.212 87.1914C165.13 79.582 169.474 74.5427 173.416 70.8842L176.673 67.9861C179.931 68.6391 183.366 68.4572 186.805 66.7547C190.569 64.9059 194.686 62.833 195.338 63.3399C200.26 67.0016 203.524 75.3062 205.299 85.817C206.311 91.87 206.817 98.6476 206.781 105.75C206.781 108.359 206.71 111.043 206.564 113.688C205.695 128.039 206.564 140.506 207.07 147.718C207.219 149.814 207.326 151.445 207.362 152.605Z" fill="#FFB93E"/>
<path d="M207.074 147.712C128.004 147.605 192.49 88.6762 192.49 88.6762L205.302 85.8138C206.315 91.8668 206.821 98.6444 206.785 105.747C206.785 108.356 206.714 111.04 206.568 113.684C205.698 128.032 206.568 140.499 207.074 147.712Z" fill="#FFA412"/>
<path d="M109.799 147.327H158.965V98.0904H109.799V147.327Z" fill="#8F7A61"/>
<path d="M156.918 147.327H179.428V98.0904H156.918V147.327Z" fill="#7B6750"/>
<path d="M151.578 123.435L148.652 122.496C148.652 122.496 146.604 115.709 139.681 118.746C139.681 118.746 136.871 120.238 138.107 122.005C139.347 123.773 139.119 122.84 140.81 125.384C142.503 127.928 145.18 129.137 147.315 128.175L149.748 128.247L151.578 123.435Z" fill="#D4BF9E"/>
<path d="M198.767 67.0828C198.767 67.0828 216.673 95.6032 197.599 128.559C191.646 138.845 146.672 129.069 146.672 129.069C146.672 129.069 144.92 125.898 149.611 122.558C149.611 122.558 179.554 117.483 183.123 116.631C186.289 115.877 184.177 86.7332 187.798 78.2759C191.416 69.8185 198.767 67.0828 198.767 67.0828Z" fill="#FFB93E"/>
<path d="M190.657 52.1696C190.657 52.1696 186.53 59.8146 178.678 61.9525C178.279 58.6905 178.279 56.8417 178.279 56.8417L184.577 51.8057L190.657 52.1696Z" fill="#C9B28E"/>
<path d="M175.409 56.624C175.409 56.624 190.979 59.2136 192.439 49.4793C193.899 39.7451 196.893 33.5231 187.014 31.4567C177.135 29.3903 174.64 32.8148 173.365 35.9437C172.892 37.1046 172.5 40.1187 172.397 43.5C172.372 44.3188 171.201 46.9453 171.213 47.7861C171.222 48.3838 172.471 47.9095 172.501 48.5C172.724 52.9035 173.501 56.1835 175.409 56.624Z" fill="#D4BF9E"/>
<path d="M176.269 41.8922C175.983 41.5997 175.989 41.1301 176.282 40.8449C176.575 40.559 177.043 40.5657 177.329 40.8583C177.615 41.1516 177.609 41.6197 177.316 41.9056C177.023 42.1915 176.555 42.1855 176.269 41.8922Z" fill="#263238"/>
<path d="M177.574 40.807C177.489 40.8899 177.013 40.4751 176.312 40.4285C175.612 40.3714 175.08 40.7129 175.008 40.6173C174.972 40.5751 175.062 40.4211 175.294 40.2655C175.522 40.1107 175.907 39.9722 176.344 40.0048C176.78 40.0374 177.14 40.2307 177.343 40.4166C177.55 40.6047 177.615 40.7707 177.574 40.807Z" fill="#263238"/>
<path d="M172.849 48.1214C172.85 48.0681 172.411 48.0088 171.7 47.9555C171.516 47.9473 171.366 47.9155 171.345 47.814C171.303 47.7022 171.363 47.5007 171.442 47.277C171.594 46.8037 171.748 46.3223 171.908 45.8179C172.549 43.7403 172.985 42.0323 172.884 42.0005C172.782 41.9686 172.18 43.627 171.539 45.7038C171.388 46.2112 171.244 46.6956 171.102 47.1719C171.048 47.3881 170.937 47.6429 171.048 47.9362C171.108 48.0829 171.257 48.1821 171.379 48.2066C171.501 48.2355 171.605 48.2295 171.693 48.2281C172.406 48.2118 172.847 48.1747 172.849 48.1214Z" fill="#263238"/>
<path d="M192.337 50.1519C192.337 50.1519 192.023 37.1133 177.838 35.0177C168.121 33.5848 168.929 26.5343 170.042 25.2477C170.042 25.2477 182.601 25.3517 190.147 27.2556C201.561 30.1376 194.024 48.2122 192.337 50.1519Z" fill="#263238"/>
<path d="M237.736 281.756L236.98 280.781L228.408 285.593C228.327 287.234 228.285 289.135 228.376 290.798C228.437 291.926 228.372 293.079 228.171 294.171C227.993 295.022 227.084 298.658 224.43 299.613C221.416 300.695 221.173 303.015 226.319 302.979C227.24 302.972 228.145 302.969 229.005 302.966C232.217 302.956 234.959 300.77 235.831 297.676C236.175 296.461 236.811 295.093 237.914 293.638C239.264 292.055 240.857 290.658 241.373 288.923C242.255 285.947 237.736 281.756 237.736 281.756Z" fill="#CD9E64"/>
<path d="M334.553 219.893L336.243 218.516L313.578 188.852L305.398 188.511L334.553 219.893Z" fill="#232323"/>
<path d="M364.164 219.893L365.562 218.516L346.813 188.852L340.045 188.511L364.164 219.893Z" fill="#232323"/>
<path d="M502.557 142.588C502.557 136.958 498.109 132.396 492.619 132.396C487.13 132.396 482.682 136.961 482.682 142.588C482.682 148.219 487.13 152.781 492.619 152.781C498.106 152.781 502.557 148.216 502.557 142.588Z" fill="#CD9E64"/>
<path d="M376.475 279.995H477.535C478.632 279.995 479.53 279.088 479.53 277.981V268.415C479.53 267.307 478.632 266.401 477.535 266.401H388.265C387.168 266.401 386.27 267.307 386.27 268.415L376.475 279.995Z" fill="#232323"/>
<path d="M375.584 272.503C375.584 255.799 362.061 242.257 345.382 242.257C328.702 242.257 315.18 255.799 315.18 272.503C315.18 289.206 328.702 302.748 345.382 302.748C362.061 302.748 375.584 289.209 375.584 272.503Z" fill="#232323"/>
<path d="M360.778 272.506C360.778 263.99 353.883 257.089 345.383 257.089C336.879 257.089 329.988 263.993 329.988 272.506C329.988 281.022 336.883 287.923 345.383 287.923C353.887 287.923 360.778 281.022 360.778 272.506Z" fill="#CD9E64"/>
<path d="M500.625 229.813C504.891 228.452 509.43 227.721 514.134 227.721C517.457 227.721 520.701 228.088 523.816 228.78C541.702 232.747 555.592 247.481 558.349 265.809C558.878 269.335 556.14 272.503 552.577 272.503H552.38C550.462 272.503 548.876 271.034 548.694 269.12C546.991 251.523 532.138 237.721 514.131 237.721C508.752 237.721 503.655 238.953 499.106 241.146C487.459 246.767 479.4 258.71 479.4 272.499H469.41C469.413 252.524 482.547 235.557 500.625 229.813Z" fill="#232323"/>
<path d="M454.281 266.401L469.416 272.503C479.896 252.095 490.596 242.081 499.752 237.143C516.217 228.253 527.68 235.781 523.819 228.78L495.573 169.094C492.925 165.41 489.477 162.612 485.619 160.783C481.424 158.798 476.752 157.963 472.109 158.388C466.72 158.886 463.197 164.331 464.913 169.474C468.612 180.547 470.033 191.682 470.033 202.251C470.03 237.435 454.281 266.401 454.281 266.401Z" fill="#232323"/>
<path d="M469.709 165.296L481.107 160.936C482.658 160.936 485.617 162.339 485.617 160.786L483.926 132.909C483.926 131.356 482.658 130.086 481.107 130.086H473.758C472.207 130.086 465.988 133.065 466.429 138.641L464.473 166.742C464.476 168.295 468.158 165.296 469.709 165.296Z" fill="#232323"/>
<path d="M275.556 189.891H351.472C353.668 189.891 355.466 188.092 355.466 185.889V183.143C355.466 180.944 353.668 179.14 351.472 179.14H275.556C273.359 179.14 271.559 180.94 271.559 183.143V185.889C271.562 188.092 273.359 189.891 275.556 189.891Z" fill="#232323"/>
<path d="M515.377 302.687C532.043 301.992 544.99 287.899 544.296 271.21C543.602 254.521 529.53 241.555 512.864 242.25C496.199 242.945 483.252 257.037 483.946 273.727C484.64 290.416 498.712 303.382 515.377 302.687Z" fill="#232323"/>
<path d="M498.734 272.506C498.734 275.102 499.377 277.552 500.509 279.696C500.584 279.836 500.658 279.972 500.739 280.109C503.38 284.778 508.386 287.926 514.129 287.926C522.633 287.926 529.527 281.025 529.527 272.506C529.527 266.089 525.614 260.591 520.047 258.275C519.992 258.249 519.93 258.226 519.872 258.2C518.097 257.482 516.16 257.089 514.132 257.089C505.629 257.089 498.734 263.99 498.734 272.506Z" fill="#CD9E64"/>
<path d="M403.509 211.582C403.509 211.582 395.71 242.549 422.015 271.102L357.328 266.401L365.562 203.895L403.509 211.582Z" fill="#232323"/>
<path d="M284.5 275.995C284.5 277.097 284.948 278.097 285.674 278.822C286.398 279.547 287.397 279.995 288.494 279.995H385.382C387.578 279.995 389.379 278.195 389.379 275.992L388.094 212.531L355.468 210.53C312.006 210.533 284.5 232.474 284.5 275.995Z" fill="#232323"/>
<path d="M482.68 142.007C482.68 142.991 482.771 143.95 482.942 144.885C484.292 152.153 490.661 157.657 498.311 157.657V126.359C489.681 126.359 482.68 133.364 482.68 142.007Z" fill="#3D3B3B"/>
<path d="M458.012 144.122C458.074 144.122 458.719 143.995 458.781 143.982L475.973 139.206C476.655 139.073 477.128 138.225 477.028 137.315C476.927 136.405 476.294 135.772 475.61 135.908L458.376 139.277C457.694 139.411 457.149 140.447 456.987 141.344C456.721 142.842 457.402 144.122 458.012 144.122Z" fill="#8F7A61"/>
<path d="M499.561 238.352C499.405 239.316 499.256 240.249 499.11 241.149C499.152 241.129 499.198 241.107 499.243 241.084C503.759 238.93 508.811 237.721 514.135 237.721C532.141 237.721 546.994 251.523 548.698 269.12C548.879 271.034 550.466 272.503 552.383 272.503H552.581C556.14 272.503 558.882 269.335 558.353 265.809C555.605 247.54 541.8 232.848 524.001 228.822C523.943 228.806 523.881 228.793 523.823 228.78L495.577 169.094C492.929 165.41 489.481 162.612 485.623 160.783C490.438 168.896 503.72 194.843 500.632 229.81C500.418 232.211 500.129 234.654 499.756 237.143C499.688 237.546 499.626 237.949 499.561 238.352Z" fill="#232323"/>
<path d="M338.627 199.184V208.609C338.627 210.244 339.964 211.582 341.596 211.582H403.509C405.141 211.582 406.481 210.24 406.481 208.609V199.184C406.481 197.546 405.141 196.208 403.509 196.208H341.596C339.96 196.208 338.627 197.546 338.627 199.184Z" fill="#FFB93E"/>
<path d="M292.174 279.998H385.383C385.383 279.998 391.07 245.438 370.092 233.767C365.04 230.957 358.694 229.988 351.777 230.664C329.984 232.802 302.54 251.296 292.174 279.998Z" fill="#232323"/>
<path d="M482.941 144.885C484.291 152.153 490.66 157.657 498.31 157.657V148.924C493.716 149.109 487.101 148.609 482.941 144.885Z" fill="#232323"/>
<path d="M358.225 211.586H403.51C405.142 211.586 406.482 210.244 406.482 208.613V199.187C406.482 197.55 405.142 196.211 403.51 196.211H372.487C369.791 200.019 364.723 206.481 358.225 211.586Z" fill="#FFA412"/>
<path d="M292.174 279.998H330.886C354.252 268.123 352.822 239.476 351.777 230.664C329.984 232.802 302.54 251.296 292.174 279.998Z" fill="#3D3B3B"/>
<path opacity="0.2" d="M500.74 280.105C503.381 284.774 508.387 287.923 514.13 287.923C522.634 287.923 529.528 281.022 529.528 272.503C529.528 266.086 525.615 260.588 520.048 258.272C518.708 264.945 514.399 277.308 500.74 280.105Z" fill="#232323"/>
<path d="M499.56 238.352C499.405 239.316 499.255 240.249 499.109 241.149C499.152 241.129 499.197 241.107 499.242 241.084C504.82 235.918 516.603 231.343 523.997 228.822C523.939 228.806 523.877 228.793 523.819 228.78L495.573 169.094C492.926 165.41 489.477 162.612 485.619 160.783C490.434 168.896 503.717 194.843 500.628 229.81C500.414 232.211 500.125 234.654 499.752 237.143C499.687 237.546 499.625 237.949 499.56 238.352Z" fill="#3D3B3B"/>
<path d="M349.233 139.297H300.979V179.14H349.233V139.297Z" fill="#FFA412"/>
<path d="M325.104 139.297H276.854V179.14H325.104V139.297Z" fill="#FFB93E"/>
<path d="M349.204 169.036H341.561L342.232 166.882L341.561 165.341H349.204V169.036Z" fill="#F1A34F"/>
<path opacity="0.4" d="M276.854 148.235H284.501L283.826 146.081L284.501 144.541H276.854V148.235Z" fill="#D86713"/>
<path d="M276.854 172.733H284.501L283.826 170.576L284.501 169.036H276.854V172.733Z" fill="#F1A34F"/>
<path d="M398.127 103.19C389.785 106.582 374.533 99.3299 374.533 99.3299C374.533 99.3299 379.595 94.843 380.561 86.3434C380.61 85.9145 380.649 85.4791 380.675 85.0307C381.554 84.7188 383.212 84.1275 384.987 83.4939L392.377 88.5333C392.377 88.5333 392.556 91.0123 392.293 95.3466C392.248 96.1036 392.189 96.9159 392.111 97.7834C395.946 99.5086 398.127 103.19 398.127 103.19Z" fill="#D4BF9E"/>
<path d="M392.377 88.5333C392.377 88.5333 392.556 91.0123 392.293 95.3466C385.571 94.1217 381.869 88.686 380.564 86.3434C380.613 85.9145 380.652 85.4791 380.678 85.0307C381.557 84.7188 383.215 84.1275 384.99 83.4939L392.377 88.5333Z" fill="#C9B28E"/>
<path d="M393.74 92.143C393.74 92.143 379.374 91.6751 379.802 82.7174C380.231 73.7629 378.667 67.6709 387.858 67.5897C397.05 67.5117 398.665 71.0142 399.249 74.0359C399.83 77.0607 397.488 92.0325 393.74 92.143Z" fill="#D4BF9E"/>
<path d="M397.921 79.8922C397.636 79.5997 397.642 79.1301 397.934 78.8449C398.227 78.559 398.696 78.5657 398.982 78.8582C399.268 79.1516 399.261 79.6197 398.968 79.9056C398.676 80.1915 398.207 80.1855 397.921 79.8922Z" fill="#263238"/>
<path d="M399.226 78.807C399.141 78.8899 398.665 78.4751 397.964 78.4285C397.264 78.3714 396.732 78.7129 396.66 78.6173C396.624 78.5751 396.714 78.4211 396.947 78.2655C397.175 78.1107 397.559 77.9722 397.996 78.0048C398.432 78.0374 398.792 78.2307 398.995 78.4166C399.202 78.6047 399.267 78.7707 399.226 78.807Z" fill="#263238"/>
<path d="M391.112 78.9197C391.447 79.1552 391.527 79.6174 391.292 79.9522C391.056 80.287 390.595 80.367 390.26 80.1314C389.925 79.8966 389.845 79.4345 390.08 79.0997C390.316 78.7649 390.778 78.6849 391.112 78.9197Z" fill="#263238"/>
<path d="M391.574 78.9544C391.489 79.0373 391.013 78.6226 390.312 78.5759C389.611 78.5189 389.079 78.8603 389.008 78.7655C388.972 78.7226 389.062 78.5685 389.294 78.4137C389.522 78.2596 389.907 78.1204 390.344 78.153C390.78 78.1848 391.14 78.3789 391.343 78.5655C391.55 78.7522 391.615 78.9181 391.574 78.9544Z" fill="#263238"/>
<path d="M394.028 84.9122C394.026 84.8588 394.466 84.7996 395.177 84.7463C395.361 84.7381 395.511 84.7063 395.532 84.6048C395.574 84.4929 395.514 84.2915 395.435 84.0678C395.283 83.5945 395.129 83.1131 394.969 82.6087C394.328 80.5311 393.892 78.8231 393.993 78.7912C394.095 78.7594 394.697 80.4177 395.337 82.4946C395.489 83.002 395.633 83.4864 395.774 83.9626C395.829 84.1789 395.94 84.4337 395.829 84.727C395.769 84.8737 395.62 84.9729 395.498 84.9973C395.376 85.0262 395.272 85.0203 395.184 85.0188C394.471 85.0025 394.029 84.9655 394.028 84.9122Z" fill="#263238"/>
<path d="M391.703 85.546C390.998 85.066 393.648 86.7385 395.08 86.757C395.08 86.757 394.18 88.0147 392.746 87.3873C391.256 86.7355 391.703 85.546 391.703 85.546Z" fill="white"/>
<path d="M380.562 86.3434C380.562 86.3434 380.001 83.364 381.619 81.4015C381.619 81.4015 380.575 78.4806 381.697 77.8243C382.82 77.1712 383.404 79.6633 383.897 79.1954C384.39 78.7275 386.564 76.5182 387.232 73.6037C387.901 70.6893 397.864 72.7785 399.039 73.1294C400.213 73.4803 392.43 58.9309 384.02 62.3782C375.614 65.8254 374.981 70.1467 375.951 73.6492C376.922 77.1485 376.834 85.6221 380.562 86.3434Z" fill="#263238"/>
<path d="M366.818 171.817C366.818 171.817 367.814 189.391 371.812 194.398C375.809 199.405 452.393 197.462 452.393 197.462C452.393 197.462 452.727 186.194 449.729 183.296C446.732 180.398 432.748 172.074 388.095 167.356L366.818 171.817Z" fill="#232323"/>
<path d="M365.796 135.031C367.045 150.126 365.4 173.087 366.818 177.067C368.041 180.498 381.969 178.458 387.527 177.314C389.584 176.889 392.079 176.284 394.651 175.566C401.831 173.568 409.657 170.715 410.494 168.594C410.526 168.509 410.555 168.431 410.572 168.35C410.653 168.045 410.637 167.752 410.559 167.463C410.351 166.664 409.705 165.816 409.332 164.344C409.203 163.827 409.105 163.233 409.073 162.538C408.943 159.802 408.949 156.624 408.855 153.203C408.846 152.891 408.836 152.573 408.826 152.254C408.82 151.829 408.813 151.364 408.761 150.942L408.758 150.786C408.758 150.704 408.755 150.626 408.752 150.545C408.632 146.328 408.385 141.896 408.103 137.497C408.012 136.126 407.915 134.761 407.811 133.416C407.778 132.938 407.736 132.467 407.7 131.996C407.626 131.116 407.554 130.242 407.473 129.381C406.847 122.619 406 116.602 404.887 112.801C403.061 106.601 399.038 102.56 395.375 99.5996L392.724 97.5559C389.769 98.1375 386.271 97.7509 383.108 96.4058C379.688 94.9404 378.507 93.8942 377.91 94.2906C370.007 99.7751 364.323 116.576 365.796 135.031Z" fill="#CD9E64"/>
<path d="M424.836 255.286C424.836 255.286 425.514 266.225 427.626 266.381C427.908 266.401 438.346 266.401 438.346 266.401L451.671 266.323C451.671 266.323 451.583 263.106 447.69 262.427C443.793 261.748 437.275 259.006 434.916 253.85C432.431 248.43 424.836 255.286 424.836 255.286Z" fill="#FFB93E"/>
<path d="M422.052 255.997C422.052 255.997 424.628 257.982 429.877 258.236C431.23 258.301 432.466 258.229 433.553 258.09C436.447 257.722 438.254 256.884 438.254 256.884L452.393 197.462C452.393 197.462 437.077 184.059 429.086 192.393C428.044 193.482 427.155 195.363 426.396 197.822C421.325 214.204 422.052 255.997 422.052 255.997Z" fill="#232323"/>
<path d="M388.094 123.558C388.094 123.558 398.009 159.915 409.335 164.347C409.205 163.831 409.108 163.236 409.075 162.541C408.945 159.805 408.952 156.627 408.858 153.206C408.848 152.894 408.838 152.576 408.829 152.257C408.822 151.832 408.816 151.367 408.764 150.945L408.761 150.789C408.761 150.708 408.757 150.63 408.754 150.548C408.634 146.331 408.387 141.899 408.105 137.5C408.014 136.129 407.917 134.764 407.813 133.419C402.827 127.386 396.062 123.051 388.094 123.558Z" fill="#8F7A61"/>
<path d="M447.576 137.562C447.576 137.562 451.894 137.897 453.003 137.562C454.113 137.227 459.33 134.115 461.218 134.784C463.107 135.45 467.879 140.343 466.656 142.565C466.656 142.565 464.437 142.621 462.383 140.509C460.329 138.397 458.11 139.843 458.331 140.119C458.551 140.395 461.773 141.675 461.215 142.231C460.66 142.786 456.443 142.676 455.443 142.01C454.444 141.344 447.008 142.176 447.008 142.176L447.576 137.562Z" fill="#D4BF9E"/>
<path d="M388.094 104.382C388.094 104.382 414.948 127.305 422.015 129.517C429.084 131.727 454.056 136.587 454.056 136.587C454.056 136.587 454.744 142.507 452.402 144.733C452.402 144.733 420.314 142.871 416.317 142.023C412.32 141.175 382.549 125.725 380.119 124.559C377.693 123.389 378.072 102.495 388.094 104.382Z" fill="#CD9E64"/>
<path d="M422.052 255.997C422.052 255.997 424.628 257.982 429.877 258.236C431.23 258.301 432.466 258.229 433.553 258.09C425.488 247.875 426.393 197.822 426.393 197.822C421.325 214.204 422.052 255.997 422.052 255.997Z" fill="black"/>
<path d="M373.832 74.2406V74.377C373.832 74.7539 374.004 75.0788 374.251 75.2153C374.335 75.2608 374.423 75.29 374.513 75.29H408.557C408.933 75.29 409.238 74.8806 409.238 74.3803V74.2438C409.238 73.7434 408.933 73.3341 408.557 73.3341L400.955 72.3561C400.245 66.6994 396.494 62.0858 391.537 60.4937C391.537 60.4937 391.534 60.4937 391.53 60.4937C390.32 60.1038 389.042 59.8959 387.721 59.8959C380.736 59.8959 375.013 65.676 374.416 73.0416C374.41 73.1294 374.403 73.2106 374.397 73.2983C374.309 73.3633 374.26 73.4023 374.254 73.4055C374.004 73.5387 373.832 73.8669 373.832 74.2406Z" fill="#CD9E64"/>
<path d="M385.337 73.0384C382.8 59.5937 391.248 60.458 391.53 60.4905C390.32 60.1006 389.042 59.8926 387.721 59.8926C380.736 59.8926 375.013 65.6727 374.416 73.0384H385.337Z" fill="#8F7A61"/>
<path d="M352.257 31.9668C351.871 31.9668 351.495 31.7719 351.284 31.4145C350.96 30.8751 351.135 30.1766 351.673 29.8549C351.696 29.8387 352.28 29.491 353.393 28.8672C353.941 28.5618 354.632 28.7567 354.937 29.3058C355.242 29.8549 355.048 30.547 354.499 30.8524C353.422 31.4534 352.848 31.7978 352.845 31.8011C352.66 31.9148 352.455 31.9668 352.257 31.9668Z" fill="#8F7A61"/>
<path d="M644.489 174.273C644.486 174.273 644.485 174.273 644.482 174.273C643.856 174.27 643.35 173.757 643.353 173.129C643.353 172.892 643.356 172.649 643.356 172.398C643.356 171.362 643.343 170.296 643.317 169.227C643.304 168.6 643.801 168.077 644.427 168.064C645.047 168.048 645.576 168.548 645.589 169.175C645.615 170.261 645.628 171.346 645.628 172.398C645.628 172.652 645.628 172.902 645.624 173.143C645.621 173.77 645.115 174.273 644.489 174.273ZM644.314 166.401C643.71 166.401 643.21 165.926 643.181 165.319C643.12 164.032 643.038 162.716 642.944 161.413C642.899 160.786 643.369 160.244 643.996 160.198C644.622 160.153 645.164 160.624 645.209 161.251C645.303 162.573 645.384 163.905 645.449 165.211C645.478 165.839 644.995 166.371 644.369 166.404C644.349 166.401 644.33 166.401 644.314 166.401ZM643.746 158.544C643.168 158.544 642.672 158.103 642.617 157.514C642.493 156.225 642.354 154.915 642.201 153.625C642.127 153.001 642.575 152.436 643.197 152.361C643.82 152.287 644.385 152.735 644.46 153.359C644.612 154.668 644.755 155.994 644.878 157.3C644.936 157.924 644.479 158.479 643.856 158.541C643.817 158.541 643.781 158.544 643.746 158.544ZM642.824 150.724C642.266 150.724 641.78 150.314 641.702 149.746C641.52 148.459 641.325 147.156 641.118 145.879C641.017 145.259 641.439 144.674 642.055 144.573C642.675 144.476 643.259 144.895 643.36 145.512C643.571 146.805 643.768 148.125 643.95 149.427C644.038 150.048 643.603 150.623 642.983 150.711C642.931 150.721 642.879 150.724 642.824 150.724ZM641.566 142.952C641.027 142.952 640.55 142.569 640.449 142.02C640.216 140.746 639.963 139.456 639.7 138.182C639.573 137.568 639.966 136.964 640.582 136.837C641.199 136.711 641.799 137.107 641.926 137.721C642.192 139.011 642.448 140.32 642.685 141.607C642.798 142.224 642.39 142.819 641.773 142.933C641.705 142.946 641.634 142.952 641.566 142.952ZM639.973 135.245C639.457 135.245 638.986 134.888 638.866 134.361C638.574 133.094 638.266 131.817 637.951 130.56C637.799 129.952 638.165 129.332 638.775 129.179C639.382 129.027 640.002 129.394 640.154 130.004C640.475 131.278 640.787 132.571 641.082 133.855C641.222 134.465 640.842 135.076 640.229 135.219C640.141 135.239 640.057 135.245 639.973 135.245ZM638.045 127.616C637.546 127.616 637.091 127.285 636.952 126.781C636.605 125.527 636.241 124.263 635.872 123.025C635.69 122.424 636.031 121.791 636.631 121.609C637.231 121.427 637.864 121.768 638.045 122.369C638.422 123.623 638.792 124.903 639.142 126.174C639.307 126.778 638.954 127.405 638.35 127.574C638.246 127.603 638.146 127.616 638.045 127.616ZM635.784 120.082C635.307 120.082 634.859 119.776 634.704 119.296C634.304 118.061 633.883 116.816 633.454 115.592C633.247 115 633.558 114.35 634.152 114.142C634.742 113.935 635.391 114.246 635.599 114.841C636.034 116.082 636.459 117.343 636.864 118.594C637.059 119.192 636.731 119.832 636.134 120.027C636.021 120.066 635.901 120.082 635.784 120.082ZM633.188 112.658C632.728 112.658 632.296 112.375 632.124 111.92C631.67 110.708 631.193 109.483 630.71 108.278C630.476 107.696 630.758 107.034 631.339 106.8C631.92 106.566 632.582 106.848 632.815 107.43C633.305 108.648 633.789 109.889 634.249 111.121C634.47 111.709 634.171 112.365 633.584 112.586C633.454 112.635 633.321 112.658 633.188 112.658ZM630.255 105.357C629.814 105.357 629.396 105.1 629.211 104.668C628.698 103.473 628.166 102.27 627.628 101.097C627.368 100.526 627.618 99.853 628.189 99.5899C628.76 99.3299 629.431 99.5801 629.694 100.152C630.236 101.341 630.778 102.56 631.297 103.771C631.543 104.35 631.277 105.016 630.703 105.266C630.557 105.328 630.405 105.357 630.255 105.357ZM626.988 98.2058C626.567 98.2058 626.164 97.9718 625.966 97.5657C625.402 96.4025 624.815 95.2264 624.218 94.0729C623.929 93.5141 624.149 92.8285 624.704 92.5394C625.259 92.2502 625.947 92.4711 626.236 93.0267C626.839 94.1964 627.436 95.3888 628.007 96.5682C628.283 97.1336 628.046 97.8126 627.482 98.0888C627.323 98.17 627.154 98.2058 626.988 98.2058ZM623.384 91.2202C622.981 91.2202 622.592 91.0058 622.388 90.6289C621.765 89.4885 621.119 88.3416 620.474 87.2271C620.159 86.6845 620.344 85.9892 620.886 85.6741C621.427 85.3589 622.125 85.5441 622.436 86.0867C623.092 87.2206 623.744 88.3805 624.377 89.5372C624.678 90.0896 624.477 90.7784 623.926 91.0805C623.754 91.1747 623.569 91.2202 623.384 91.2202ZM619.448 84.4134C619.065 84.4134 618.692 84.2217 618.478 83.8708C617.803 82.7694 617.106 81.6582 616.402 80.5665C616.061 80.0402 616.214 79.3351 616.739 78.994C617.265 78.6528 617.969 78.8055 618.31 79.3319C619.023 80.4365 619.731 81.5672 620.415 82.6849C620.743 83.221 620.574 83.9196 620.039 84.2477C619.854 84.3582 619.65 84.4134 619.448 84.4134ZM615.185 77.808C614.822 77.808 614.465 77.6358 614.248 77.3109C613.518 76.2387 612.765 75.1633 612.012 74.1138C611.645 73.6037 611.762 72.8922 612.272 72.5283C612.781 72.1611 613.492 72.2781 613.855 72.7882C614.617 73.8507 615.38 74.9424 616.123 76.0308C616.476 76.5507 616.343 77.2589 615.824 77.6098C615.626 77.7431 615.406 77.808 615.185 77.808ZM610.604 71.4236C610.26 71.4236 609.919 71.2676 609.699 70.972C608.92 69.942 608.116 68.9056 607.308 67.8886C606.918 67.398 606.999 66.6832 607.489 66.2901C607.979 65.9002 608.693 65.9814 609.086 66.472C609.906 67.502 610.721 68.5547 611.509 69.6009C611.889 70.1012 611.788 70.816 611.289 71.1929C611.081 71.3456 610.841 71.4236 610.604 71.4236ZM605.711 65.2699C605.387 65.2699 605.066 65.1301 604.842 64.8637C604.015 63.8727 603.161 62.8785 602.302 61.9006C601.886 61.4294 601.932 60.7114 602.402 60.2955C602.873 59.8796 603.59 59.9284 604.005 60.3995C604.874 61.3904 605.741 62.4009 606.581 63.4049C606.983 63.8857 606.922 64.6038 606.438 65.0067C606.227 65.1854 605.968 65.2699 605.711 65.2699ZM600.524 59.3695C600.219 59.3695 599.914 59.2461 599.69 59.0056C598.814 58.0569 597.912 57.1049 597.01 56.1724C596.572 55.7208 596.585 55.0028 597.033 54.5641C597.484 54.1255 598.201 54.1353 598.639 54.5869C599.557 55.5324 600.472 56.5006 601.357 57.4623C601.782 57.9237 601.756 58.6417 601.296 59.0706C601.075 59.2688 600.799 59.3695 600.524 59.3695ZM595.053 53.7291C594.768 53.7291 594.479 53.6219 594.259 53.4042C593.34 52.501 592.393 51.5912 591.443 50.7042C590.985 50.2754 590.959 49.5573 591.387 49.0959C591.816 48.6378 592.536 48.6118 592.993 49.0407C593.954 49.9407 594.914 50.8634 595.848 51.7797C596.296 52.2183 596.303 52.9396 595.865 53.388C595.641 53.6154 595.349 53.7291 595.053 53.7291ZM589.317 48.3584C589.048 48.3584 588.779 48.2642 588.561 48.0692C587.595 47.205 586.605 46.344 585.619 45.5057C585.142 45.0996 585.083 44.3815 585.489 43.9039C585.895 43.4263 586.612 43.3678 587.088 43.7739C588.088 44.622 589.09 45.496 590.07 46.3732C590.537 46.7923 590.579 47.5104 590.164 47.9783C589.94 48.2317 589.632 48.3584 589.317 48.3584ZM583.335 43.2703C583.085 43.2703 582.832 43.1891 582.621 43.0169C581.622 42.2046 580.59 41.3891 579.561 40.5931C579.065 40.2097 578.974 39.4949 579.357 38.9978C579.74 38.5007 580.454 38.4097 580.95 38.7931C581.991 39.5989 583.036 40.4242 584.048 41.2494C584.535 41.6458 584.61 42.3606 584.217 42.848C583.993 43.1274 583.666 43.2703 583.335 43.2703ZM577.122 38.465C576.888 38.465 576.651 38.3935 576.45 38.244C575.409 37.4772 574.344 36.7105 573.283 35.9632C572.771 35.6025 572.648 34.8942 573.008 34.3776C573.368 33.8643 574.075 33.7408 574.591 34.1014C575.665 34.8585 576.745 35.635 577.8 36.4115C578.306 36.7852 578.413 37.4967 578.04 38.0003C577.813 38.3025 577.469 38.465 577.122 38.465ZM570.698 33.9455C570.48 33.9455 570.26 33.8838 570.065 33.7538C568.991 33.0325 567.894 32.3145 566.801 31.6159C566.272 31.278 566.117 30.573 566.457 30.0466C566.795 29.517 567.499 29.361 568.024 29.7022C569.131 30.4105 570.24 31.1383 571.33 31.8693C571.853 32.2202 571.992 32.9253 571.642 33.4484C571.424 33.7668 571.064 33.9455 570.698 33.9455ZM564.082 29.7119C563.881 29.7119 563.677 29.6567 563.492 29.5462C562.385 28.8704 561.256 28.1979 560.14 27.5481C559.599 27.2329 559.414 26.5376 559.728 25.995C560.043 25.4524 560.737 25.2672 561.282 25.5824C562.415 26.2419 563.557 26.921 564.676 27.6065C565.211 27.9347 565.38 28.6332 565.056 29.1693C564.841 29.517 564.465 29.7119 564.082 29.7119ZM357.403 29.1336C356.994 29.1336 356.598 28.9094 356.394 28.5228C356.105 27.9672 356.32 27.2784 356.874 26.9892C358.007 26.3979 359.194 25.7936 360.401 25.1957C360.962 24.9163 361.644 25.147 361.923 25.7091C362.202 26.2712 361.971 26.9535 361.41 27.2329C360.219 27.8242 359.045 28.4188 357.925 29.0036C357.76 29.0914 357.578 29.1336 357.403 29.1336ZM557.295 25.7578C557.11 25.7578 556.919 25.7123 556.747 25.6149C555.608 24.9813 554.453 24.3575 553.314 23.7564C552.759 23.464 552.548 22.7752 552.84 22.2196C553.132 21.664 553.82 21.4528 554.375 21.7452C555.527 22.3528 556.698 22.9864 557.85 23.6264C558.398 23.9318 558.596 24.6239 558.294 25.173C558.083 25.5466 557.694 25.7578 557.295 25.7578ZM364.447 25.6376C364.022 25.6376 363.613 25.3972 363.418 24.9845C363.149 24.4159 363.392 23.7401 363.96 23.4705C365.135 22.9149 366.341 22.356 367.545 21.8134C368.116 21.5535 368.791 21.8102 369.047 22.382C369.304 22.9539 369.051 23.6264 368.48 23.8863C367.289 24.4257 366.092 24.978 364.93 25.5271C364.771 25.6019 364.609 25.6376 364.447 25.6376ZM371.61 22.4015C371.169 22.4015 370.751 22.1448 370.566 21.7127C370.316 21.1344 370.582 20.4683 371.159 20.2181C372.36 19.6983 373.586 19.1817 374.796 18.6813C375.377 18.4409 376.039 18.7203 376.279 19.2986C376.519 19.8802 376.24 20.543 375.663 20.7835C374.462 21.2806 373.249 21.7907 372.058 22.304C371.912 22.3723 371.76 22.4015 371.61 22.4015ZM550.349 22.0896C550.177 22.0896 550.005 22.0506 549.839 21.9694C548.675 21.3846 547.497 20.8095 546.332 20.2539C545.764 19.9842 545.524 19.3051 545.794 18.7398C546.063 18.1712 546.741 17.9308 547.305 18.2005C548.483 18.7626 549.677 19.3441 550.855 19.9355C551.416 20.2181 551.643 20.9004 551.361 21.4625C551.166 21.8589 550.767 22.0896 550.349 22.0896ZM378.875 19.4026C378.42 19.4026 377.995 19.1297 377.817 18.6813C377.587 18.0965 377.872 17.4369 378.456 17.2062C379.683 16.7221 380.922 16.2445 382.139 15.7864C382.726 15.5655 383.381 15.8611 383.602 16.4492C383.822 17.0373 383.524 17.6936 382.94 17.9145C381.733 18.3694 380.503 18.8438 379.29 19.3214C379.154 19.3766 379.014 19.4026 378.875 19.4026ZM543.26 18.7138C543.104 18.7138 542.945 18.6813 542.796 18.6131C541.615 18.0802 540.411 17.5539 539.22 17.047C538.643 16.8001 538.374 16.134 538.62 15.5557C538.867 14.9774 539.532 14.7077 540.109 14.9546C541.316 15.468 542.533 16.0008 543.73 16.5402C544.301 16.7969 544.557 17.4727 544.301 18.0445C544.106 18.4636 543.691 18.7138 543.26 18.7138ZM386.23 16.6312C385.763 16.6312 385.328 16.342 385.162 15.8774C384.951 15.286 385.256 14.6362 385.847 14.4218C387.086 13.9767 388.342 13.538 389.572 13.1157C390.165 12.9142 390.811 13.2294 391.012 13.824C391.216 14.4185 390.898 15.0651 390.305 15.2665C389.085 15.6824 387.842 16.1178 386.613 16.5597C386.486 16.6084 386.356 16.6312 386.23 16.6312ZM536.031 15.6369C535.892 15.6369 535.749 15.6109 535.609 15.5557C534.406 15.0748 533.182 14.5972 531.972 14.1424C531.385 13.9214 531.087 13.2651 531.307 12.677C531.528 12.0889 532.183 11.79 532.77 12.011C533.997 12.4723 535.236 12.9532 536.453 13.4406C537.037 13.6745 537.319 14.3341 537.086 14.9189C536.907 15.3673 536.482 15.6369 536.031 15.6369ZM393.666 14.0871C393.186 14.0871 392.741 13.7817 392.586 13.3008C392.391 12.703 392.719 12.063 393.316 11.868C394.565 11.4619 395.83 11.0622 397.079 10.6756C397.679 10.4904 398.315 10.8283 398.497 11.4294C398.682 12.0305 398.344 12.6673 397.744 12.8492C396.508 13.2294 395.253 13.6258 394.016 14.0286C393.9 14.0676 393.783 14.0871 393.666 14.0871ZM528.679 12.872C528.553 12.872 528.426 12.8525 528.303 12.807C527.07 12.3749 525.827 11.9525 524.607 11.5496C524.011 11.3547 523.686 10.7113 523.881 10.1135C524.075 9.51567 524.718 9.19077 525.315 9.38571C526.551 9.79185 527.81 10.2175 529.056 10.6561C529.646 10.864 529.958 11.5139 529.75 12.1052C529.588 12.5796 529.146 12.872 528.679 12.872ZM401.174 11.7738C400.68 11.7738 400.229 11.4521 400.083 10.955C399.908 10.3507 400.255 9.72037 400.856 9.54492C402.118 9.17777 403.396 8.81387 404.652 8.46947C405.255 8.30377 405.881 8.66117 406.047 9.26549C406.212 9.86982 405.855 10.4969 405.252 10.6626C404.006 11.0038 402.741 11.3644 401.488 11.7283C401.384 11.7575 401.281 11.7738 401.174 11.7738ZM521.217 10.4254C521.107 10.4254 520.996 10.4092 520.886 10.3767C519.653 9.99979 518.391 9.63264 517.142 9.27849C516.539 9.10954 516.185 8.48247 516.357 7.87489C516.526 7.27056 517.155 6.91641 517.759 7.08861C519.027 7.44601 520.302 7.81965 521.551 8.1998C522.151 8.38175 522.489 9.01857 522.307 9.61964C522.155 10.1103 521.704 10.4254 521.217 10.4254ZM408.753 9.69112C408.246 9.69112 407.786 9.34997 407.653 8.83662C407.497 8.22904 407.864 7.60846 408.47 7.45251C409.736 7.1276 411.024 6.80594 412.299 6.49728C412.909 6.35107 413.522 6.72472 413.668 7.33554C413.814 7.94637 413.441 8.56044 412.831 8.70665C411.565 9.01207 410.29 9.33048 409.035 9.65213C408.941 9.68138 408.843 9.69112 408.753 9.69112ZM513.658 8.29727C513.563 8.29727 513.469 8.28427 513.372 8.26153C512.113 7.93662 510.838 7.62146 509.583 7.32579C508.973 7.18284 508.593 6.56876 508.739 5.95793C508.882 5.34711 509.495 4.96696 510.105 5.11317C511.377 5.41209 512.665 5.7305 513.94 6.0619C514.547 6.21786 514.913 6.83843 514.757 7.44601C514.624 7.95612 514.164 8.29727 513.658 8.29727ZM416.39 7.85215C415.871 7.85215 415.4 7.4915 415.284 6.9619C415.147 6.34782 415.53 5.74024 416.143 5.60378C417.431 5.31462 418.729 5.03519 420.001 4.77202C420.617 4.64531 421.214 5.04169 421.344 5.65577C421.471 6.26984 421.075 6.87417 420.462 7.00089C419.203 7.26081 417.918 7.54023 416.64 7.82615C416.555 7.8424 416.471 7.85215 416.39 7.85215ZM506.014 6.49403C505.936 6.49403 505.855 6.48428 505.777 6.46804C504.515 6.19836 503.23 5.93844 501.952 5.69151C501.335 5.57454 500.933 4.97671 501.05 4.35939C501.167 3.74206 501.764 3.33918 502.38 3.45614C503.671 3.70307 504.975 3.9695 506.251 4.24242C506.864 4.37238 507.256 4.97671 507.123 5.59079C507.01 6.12688 506.536 6.49403 506.014 6.49403ZM424.082 6.2601C423.547 6.2601 423.07 5.87996 422.97 5.33411C422.853 4.71679 423.258 4.1222 423.875 4.00524C425.169 3.75831 426.477 3.52112 427.758 3.30019C428.378 3.19622 428.965 3.60885 429.069 4.22617C429.176 4.8435 428.761 5.43158 428.144 5.5388C426.873 5.75974 425.578 5.99367 424.297 6.23735C424.225 6.2536 424.151 6.2601 424.082 6.2601ZM498.298 5.0157C498.237 5.0157 498.172 5.0092 498.107 4.99945C496.826 4.78177 495.528 4.57383 494.253 4.38538C493.633 4.2944 493.205 3.71607 493.296 3.09225C493.386 2.47167 493.967 2.03954 494.587 2.13377C495.878 2.32546 497.192 2.53665 498.487 2.75759C499.106 2.86156 499.522 3.44964 499.415 4.07022C499.324 4.62256 498.844 5.0157 498.298 5.0157ZM431.824 4.92148C431.272 4.92148 430.789 4.52184 430.704 3.95975C430.607 3.33918 431.032 2.75759 431.652 2.66012C432.953 2.45868 434.267 2.26373 435.558 2.08503C436.178 1.99731 436.752 2.43268 436.839 3.05651C436.924 3.68033 436.492 4.25217 435.869 4.33989C434.594 4.51534 433.293 4.70704 432.002 4.90848C431.94 4.91498 431.882 4.92148 431.824 4.92148ZM490.531 3.85578C490.483 3.85578 490.434 3.85253 490.385 3.84603C489.107 3.68358 487.803 3.52762 486.508 3.39116C485.885 3.32293 485.434 2.76409 485.499 2.14027C485.567 1.51644 486.125 1.06157 486.748 1.1298C488.056 1.26951 489.376 1.42547 490.671 1.59117C491.294 1.6724 491.732 2.24099 491.654 2.86156C491.583 3.43665 491.096 3.85578 490.531 3.85578ZM439.604 3.84603C439.036 3.84603 438.546 3.42365 438.478 2.84532C438.403 2.22149 438.848 1.65615 439.471 1.58142C440.781 1.42222 442.102 1.27601 443.393 1.1428C444.016 1.07457 444.574 1.53269 444.639 2.15651C444.704 2.78033 444.25 3.33918 443.624 3.40416C442.342 3.53737 441.038 3.68033 439.74 3.83953C439.695 3.84278 439.649 3.84603 439.604 3.84603ZM447.42 3.04351C446.836 3.04351 446.339 2.59514 446.29 2.0038C446.239 1.37673 446.702 0.827639 447.325 0.775653C448.646 0.665185 449.97 0.564463 451.261 0.476738C451.887 0.440998 452.429 0.908865 452.468 1.53594C452.51 2.16301 452.036 2.70561 451.41 2.74459C450.132 2.82907 448.821 2.92979 447.514 3.04026C447.481 3.04026 447.452 3.04351 447.42 3.04351ZM482.722 3.01752C482.69 3.01752 482.657 3.01752 482.621 3.01427C481.337 2.9038 480.026 2.80308 478.728 2.71535C478.102 2.67311 477.628 2.13052 477.67 1.50345C477.713 0.876375 478.251 0.405258 478.881 0.444247C480.195 0.531972 481.518 0.632694 482.819 0.746412C483.446 0.801646 483.906 1.35074 483.854 1.97781C483.802 2.57239 483.306 3.01752 482.722 3.01752ZM455.255 2.52041C454.651 2.52041 454.152 2.04604 454.122 1.43846C454.093 0.811393 454.577 0.278544 455.203 0.246053C456.52 0.181072 457.85 0.129087 459.148 0.0933468C459.778 0.0641051 460.297 0.567712 460.316 1.19478C460.336 1.82186 459.842 2.34496 459.216 2.36445C457.931 2.40344 456.617 2.45543 455.313 2.51716C455.294 2.52041 455.274 2.52041 455.255 2.52041ZM474.887 2.49442C474.867 2.49442 474.851 2.49442 474.832 2.49442C473.537 2.43268 472.223 2.38395 470.929 2.34821C470.302 2.33196 469.806 1.80886 469.825 1.18179C469.842 0.554716 470.371 0.0511088 470.99 0.0771014C472.301 0.112841 473.628 0.161577 474.935 0.22331C475.562 0.252552 476.045 0.7854 476.016 1.41247C475.99 2.02005 475.49 2.49442 474.887 2.49442ZM463.106 2.28647C462.483 2.28647 461.977 1.78612 461.971 1.16229C461.964 0.535221 462.467 0.018618 463.093 0.0121199C464.404 -0.000876457 465.721 -0.00412554 467.042 0.0056217C467.668 0.0121199 468.174 0.522225 468.168 1.15255C468.161 1.77637 467.655 2.27998 467.032 2.27998C467.029 2.27998 467.026 2.27998 467.022 2.27998C465.715 2.27023 464.414 2.27348 463.116 2.28647C463.116 2.28647 463.113 2.28647 463.106 2.28647Z" fill="#CD9E64"/>
<path d="M644.291 180.105C644.258 180.105 644.226 180.105 644.193 180.102C643.567 180.05 643.106 179.498 643.158 178.874C643.158 178.867 643.213 178.201 643.265 176.976C643.291 176.349 643.82 175.865 644.446 175.888C645.072 175.914 645.559 176.444 645.533 177.071C645.478 178.351 645.423 179.036 645.42 179.066C645.371 179.657 644.875 180.105 644.291 180.105Z" fill="#8F7A61"/>
<path d="M160.914 81.0019C160.872 81.0019 160.826 80.9986 160.781 80.9954C160.135 80.9207 159.493 80.8492 158.854 80.7777C158.231 80.7095 157.78 80.1474 157.851 79.5236C157.919 78.8997 158.481 78.4481 159.104 78.5196C159.749 78.5911 160.395 78.6626 161.044 78.7405C161.667 78.812 162.114 79.3773 162.04 80.0012C161.975 80.5763 161.482 81.0019 160.914 81.0019Z" fill="#FF9136"/>
<path d="M-51.0175 228.182C-51.0662 228.182 -51.1149 228.179 -51.1668 228.172C-51.7897 228.091 -52.2277 227.522 -52.1466 226.898C-51.9811 225.631 -51.7929 224.315 -51.5853 222.987C-51.488 222.366 -50.9072 221.94 -50.2875 222.038C-49.6678 222.135 -49.2428 222.717 -49.3402 223.338C-49.5446 224.647 -49.7295 225.943 -49.8917 227.191C-49.9663 227.766 -50.4562 228.182 -51.0175 228.182ZM-49.8138 220.436C-49.882 220.436 -49.9469 220.43 -50.015 220.417C-50.6314 220.306 -51.0435 219.715 -50.9332 219.097C-50.7028 217.821 -50.4562 216.518 -50.1967 215.228C-50.0734 214.61 -49.4732 214.211 -48.86 214.338C-48.2435 214.461 -47.8477 215.062 -47.971 215.676C-48.2273 216.95 -48.4707 218.236 -48.6978 219.5C-48.7983 220.049 -49.2753 220.436 -49.8138 220.436ZM-48.2727 212.758C-48.3539 212.758 -48.4382 212.749 -48.5193 212.733C-49.1325 212.596 -49.5186 211.988 -49.3823 211.374C-49.1001 210.107 -48.8016 208.817 -48.4901 207.54C-48.3409 206.93 -47.7277 206.556 -47.1177 206.705C-46.5078 206.855 -46.1347 207.469 -46.2839 208.08C-46.5921 209.34 -46.8874 210.614 -47.1664 211.868C-47.2832 212.398 -47.7536 212.758 -48.2727 212.758ZM-46.4234 205.156C-46.5208 205.156 -46.6181 205.143 -46.7154 205.117C-47.3221 204.954 -47.6823 204.334 -47.5233 203.726C-47.1891 202.465 -46.8387 201.189 -46.4818 199.934C-46.3099 199.33 -45.6805 198.982 -45.077 199.155C-44.4735 199.327 -44.1264 199.957 -44.2983 200.561C-44.652 201.803 -44.9991 203.063 -45.3301 204.311C-45.4598 204.821 -45.9205 205.156 -46.4234 205.156ZM-44.2789 197.637C-44.3892 197.637 -44.5027 197.621 -44.613 197.585C-45.2133 197.4 -45.5507 196.763 -45.3658 196.165C-44.9829 194.918 -44.5838 193.654 -44.1751 192.416C-43.9804 191.818 -43.338 191.497 -42.741 191.691C-42.144 191.886 -41.8196 192.53 -42.0175 193.128C-42.4198 194.352 -42.8156 195.597 -43.1952 196.832C-43.3412 197.322 -43.7922 197.637 -44.2789 197.637ZM-41.8391 190.207C-41.9624 190.207 -42.0921 190.187 -42.2154 190.142C-42.8059 189.934 -43.1174 189.284 -42.9097 188.693C-42.4782 187.461 -42.0272 186.217 -41.573 184.995C-41.3524 184.407 -40.7003 184.108 -40.113 184.329C-39.5258 184.55 -39.2273 185.203 -39.4479 185.791C-39.8989 187 -40.3434 188.228 -40.7684 189.446C-40.9306 189.914 -41.3686 190.207 -41.8391 190.207ZM-39.1073 182.883C-39.2468 182.883 -39.3895 182.857 -39.5258 182.802C-40.1098 182.571 -40.3953 181.909 -40.1617 181.327C-39.6815 180.112 -39.1819 178.887 -38.6758 177.688C-38.4324 177.11 -37.7673 176.837 -37.1898 177.08C-36.6123 177.324 -36.3398 177.99 -36.5831 178.568C-37.0828 179.754 -37.5759 180.966 -38.0496 182.165C-38.228 182.61 -38.6563 182.883 -39.1073 182.883ZM-36.0802 175.677C-36.236 175.677 -36.3917 175.644 -36.5409 175.579C-37.1152 175.323 -37.3715 174.65 -37.1152 174.078C-36.5831 172.883 -36.0348 171.68 -35.48 170.504C-35.214 169.936 -34.5359 169.692 -33.9681 169.962C-33.4003 170.228 -33.157 170.907 -33.4231 171.476C-33.9681 172.639 -34.5132 173.825 -35.0388 175.007C-35.2334 175.427 -35.6455 175.677 -36.0802 175.677ZM-32.758 168.607C-32.9267 168.607 -33.1019 168.568 -33.2641 168.487C-33.8254 168.207 -34.0557 167.525 -33.7767 166.963C-33.1927 165.79 -32.5925 164.61 -31.989 163.46C-31.697 162.905 -31.0125 162.69 -30.4544 162.983C-29.8996 163.275 -29.6855 163.961 -29.9775 164.519C-30.5712 165.653 -31.1649 166.817 -31.7425 167.976C-31.9371 168.376 -32.3394 168.607 -32.758 168.607ZM-29.1307 161.689C-29.3156 161.689 -29.5038 161.644 -29.679 161.547C-30.2273 161.241 -30.4252 160.549 -30.1235 160C-29.4876 158.85 -28.8355 157.7 -28.1833 156.582C-27.8686 156.039 -27.1711 155.857 -26.6293 156.173C-26.0874 156.488 -25.9057 157.186 -26.2205 157.729C-26.8628 158.834 -27.5085 159.971 -28.1347 161.105C-28.3423 161.475 -28.7316 161.689 -29.1307 161.689ZM-25.1985 154.941C-25.4029 154.941 -25.6073 154.886 -25.7922 154.772C-26.3275 154.444 -26.493 153.742 -26.1653 153.209C-25.4775 152.092 -24.7734 150.971 -24.0694 149.882C-23.7287 149.353 -23.0279 149.203 -22.4991 149.544C-21.9735 149.886 -21.821 150.591 -22.1617 151.117C-22.856 152.189 -23.5503 153.294 -24.2284 154.399C-24.4458 154.746 -24.8189 154.941 -25.1985 154.941ZM-20.9613 148.378C-21.1819 148.378 -21.4025 148.313 -21.6004 148.18C-22.1195 147.826 -22.2525 147.117 -21.8989 146.601C-21.1592 145.516 -20.4032 144.43 -19.6505 143.378C-19.2839 142.868 -18.5766 142.751 -18.0672 143.115C-17.5579 143.482 -17.4411 144.19 -17.8044 144.7C-18.5474 145.74 -19.2936 146.809 -20.0236 147.881C-20.2442 148.206 -20.6011 148.378 -20.9613 148.378ZM-16.4191 142.033C-16.6559 142.033 -16.896 141.958 -17.1004 141.802C-17.6 141.425 -17.7006 140.71 -17.3243 140.21C-16.5391 139.167 -15.7313 138.121 -14.9202 137.097C-14.5308 136.607 -13.8171 136.522 -13.3239 136.912C-12.834 137.302 -12.7496 138.017 -13.139 138.511C-13.9371 139.518 -14.7352 140.551 -15.5074 141.578C-15.7345 141.877 -16.0752 142.033 -16.4191 142.033ZM-11.5687 135.915C-11.825 135.915 -12.0845 135.827 -12.2954 135.651C-12.7756 135.248 -12.8405 134.53 -12.4382 134.05C-11.6044 133.049 -10.7446 132.045 -9.88158 131.06C-9.46629 130.589 -8.74928 130.544 -8.27884 130.956C-7.8084 131.372 -7.76298 132.09 -8.17502 132.562C-9.02505 133.53 -9.87185 134.521 -10.6927 135.505C-10.923 135.775 -11.2442 135.915 -11.5687 135.915ZM-6.41979 130.047C-6.69556 130.047 -6.97134 129.946 -7.19196 129.745C-7.65267 129.319 -7.67862 128.598 -7.2536 128.136C-6.36464 127.175 -5.4562 126.216 -4.54776 125.284C-4.10976 124.835 -3.3895 124.825 -2.94178 125.264C-2.49405 125.703 -2.48431 126.421 -2.92231 126.872C-3.81452 127.792 -4.71323 128.737 -5.58598 129.683C-5.80984 129.927 -6.11481 130.047 -6.41979 130.047ZM-0.978901 124.455C-1.27414 124.455 -1.56939 124.341 -1.79325 124.111C-2.23125 123.662 -2.22152 122.941 -1.77379 122.502C-0.836151 121.589 0.120949 120.676 1.07481 119.793C1.53551 119.367 2.25254 119.393 2.6808 119.854C3.10582 120.316 3.07986 121.034 2.61915 121.463C1.67827 122.333 0.734146 123.23 -0.187267 124.13C-0.40789 124.348 -0.693394 124.455 -0.978901 124.455ZM4.74425 119.153C4.42954 119.153 4.11483 119.023 3.89096 118.766C3.47892 118.295 3.52434 117.577 3.99478 117.161C4.97135 116.303 5.97712 115.442 6.98289 114.607C7.46631 114.204 8.18008 114.272 8.58239 114.753C8.98469 115.237 8.91656 115.952 8.43639 116.355C7.44684 117.18 6.4573 118.025 5.49371 118.873C5.27958 119.062 5.01029 119.153 4.74425 119.153ZM10.7399 114.162C10.4025 114.162 10.0716 114.013 9.84771 113.73C9.45838 113.236 9.54273 112.521 10.0359 112.131C11.0611 111.322 12.1091 110.517 13.1538 109.737C13.6567 109.36 14.3672 109.464 14.7435 109.967C15.1199 110.471 15.0161 111.183 14.5132 111.559C13.4847 112.326 12.453 113.119 11.444 113.915C11.2331 114.081 10.9865 114.162 10.7399 114.162ZM16.9887 109.493C16.6318 109.493 16.2814 109.324 16.0608 109.012C15.7006 108.499 15.8207 107.791 16.3333 107.427C17.4007 106.673 18.4908 105.926 19.5712 105.201C20.0936 104.853 20.7976 104.993 21.1448 105.516C21.4919 106.039 21.3524 106.744 20.8301 107.092C19.7626 107.804 18.692 108.541 17.6408 109.285C17.4429 109.425 17.2125 109.493 16.9887 109.493ZM23.471 105.162C23.0947 105.162 22.7248 104.974 22.5107 104.632C22.1765 104.103 22.3355 103.398 22.8643 103.063C23.9577 102.374 25.0835 101.682 26.2125 101.01C26.7511 100.688 27.4487 100.867 27.7699 101.406C28.0911 101.945 27.9126 102.644 27.374 102.966C26.2612 103.628 25.1516 104.308 24.0745 104.987C23.8895 105.104 23.6786 105.162 23.471 105.162ZM30.1707 101.172C29.7717 101.172 29.3888 100.961 29.1779 100.591C28.873 100.041 29.0676 99.3494 29.6127 99.044C30.7482 98.4072 31.9065 97.7769 33.0615 97.166C33.6163 96.8736 34.3041 97.0848 34.5961 97.6404C34.8881 98.196 34.6772 98.8848 34.1224 99.1772C32.9836 99.7783 31.8416 100.402 30.7223 101.029C30.5503 101.127 30.3589 101.172 30.1707 101.172ZM37.0651 97.5299C36.6466 97.5299 36.2443 97.2993 36.0464 96.8964C35.7673 96.3343 35.9977 95.652 36.559 95.3726C37.7172 94.7975 38.9079 94.2256 40.0986 93.67C40.6664 93.4069 41.3412 93.6538 41.6073 94.2224C41.8733 94.791 41.6235 95.4668 41.0557 95.7332C39.8845 96.279 38.71 96.8444 37.568 97.4097C37.4058 97.4942 37.2338 97.5299 37.0651 97.5299ZM44.1314 94.2386C43.6935 94.2386 43.2749 93.9819 43.09 93.5563C42.8402 92.9812 43.103 92.3119 43.6772 92.0585C44.8712 91.5386 46.0878 91.0253 47.2947 90.5314C47.8755 90.2942 48.5374 90.5737 48.7742 91.1552C49.0111 91.7368 48.732 92.3996 48.1513 92.6368C46.9638 93.1209 45.7634 93.6278 44.5857 94.1411C44.4364 94.2094 44.2839 94.2386 44.1314 94.2386ZM51.3503 91.295C50.8928 91.295 50.4613 91.0155 50.2893 90.5607C50.0655 89.9726 50.3607 89.3163 50.948 89.0921C52.1581 88.6307 53.3975 88.1758 54.6304 87.7372C55.2209 87.526 55.8697 87.8379 56.0806 88.4293C56.2883 89.0206 55.9801 89.6704 55.3896 89.8816C54.1729 90.3137 52.9498 90.7621 51.7558 91.217C51.6196 91.2722 51.4833 91.295 51.3503 91.295ZM58.6956 88.6924C58.2187 88.6924 57.7742 88.387 57.6152 87.9094C57.4206 87.3116 57.745 86.6715 58.342 86.4733C59.5846 86.0672 60.8402 85.6676 62.0828 85.2907C62.683 85.1055 63.3157 85.4466 63.5006 86.0477C63.6823 86.6488 63.3449 87.2823 62.7447 87.4675C61.5215 87.8412 60.2789 88.2343 59.0525 88.6372C58.9325 88.6729 58.8124 88.6924 58.6956 88.6924ZM66.1513 86.4213C65.6549 86.4213 65.2007 86.0932 65.0579 85.5896C64.8892 84.9852 65.2396 84.3582 65.8463 84.1892C67.0954 83.8383 68.3705 83.4972 69.6326 83.169C70.2393 83.0131 70.8589 83.3802 71.0147 83.9878C71.1704 84.5954 70.8038 85.2159 70.1971 85.3719C68.948 85.6935 67.6892 86.0314 66.4563 86.3791C66.3557 86.4083 66.2551 86.4213 66.1513 86.4213ZM73.701 84.4784C73.1852 84.4784 72.718 84.1242 72.598 83.6011C72.4552 82.9903 72.8348 82.3762 73.4447 82.2333C74.7068 81.9376 75.9949 81.6484 77.2699 81.3723C77.8831 81.2423 78.4866 81.6322 78.6163 82.2463C78.7461 82.8603 78.3568 83.4647 77.7436 83.5946C76.4815 83.8643 75.2097 84.1502 73.9639 84.4426C73.873 84.4654 73.7854 84.4784 73.701 84.4784ZM81.3222 82.8441C80.7901 82.8441 80.3132 82.4672 80.2094 81.9214C80.0893 81.304 80.4916 80.7095 81.108 80.5892C82.3799 80.3423 83.6776 80.1051 84.9624 79.8809C85.5789 79.7737 86.1693 80.1896 86.2764 80.8069C86.3835 81.4275 85.9682 82.0156 85.3517 82.1228C84.0799 82.3437 82.7984 82.5777 81.5396 82.8214C81.4649 82.8376 81.3936 82.8441 81.3222 82.8441ZM89.0017 81.5087C88.4502 81.5087 87.9668 81.1058 87.8792 80.5438C87.7851 79.9232 88.2101 79.3416 88.8298 79.2474C90.1113 79.0492 91.4156 78.8607 92.7068 78.6853C93.3298 78.6008 93.9008 79.0362 93.9851 79.66C94.0695 80.2838 93.6348 80.8557 93.0118 80.9401C91.7335 81.1123 90.4422 81.3008 89.1737 81.4957C89.1185 81.5055 89.0601 81.5087 89.0017 81.5087ZM96.7267 80.4625C96.1589 80.4625 95.669 80.0369 95.6009 79.4586C95.5295 78.8347 95.974 78.2694 96.5969 78.1979C97.8849 78.0485 99.1957 77.9055 100.49 77.7755C101.113 77.7138 101.671 78.1687 101.733 78.7925C101.794 79.4163 101.34 79.9752 100.714 80.0369C99.4293 80.1636 98.1315 80.3066 96.8597 80.456C96.8143 80.4593 96.7688 80.4625 96.7267 80.4625ZM155.1 80.3781C155.061 80.3781 155.026 80.3748 154.987 80.3716C153.686 80.2416 152.385 80.1214 151.116 80.0109C150.49 79.9557 150.029 79.4066 150.084 78.7795C150.139 78.1524 150.691 77.6911 151.314 77.7463C152.589 77.8568 153.9 77.9802 155.21 78.1102C155.833 78.1719 156.291 78.7275 156.229 79.3546C156.171 79.9394 155.678 80.3781 155.1 80.3781ZM147.33 79.699C147.301 79.699 147.271 79.699 147.242 79.6957C145.964 79.6015 144.66 79.5105 143.365 79.4293C142.739 79.3903 142.262 78.851 142.304 78.2239C142.343 77.5968 142.882 77.1225 143.508 77.1615C144.812 77.2427 146.126 77.3337 147.414 77.4311C148.04 77.4766 148.508 78.0225 148.462 78.6495C148.417 79.2441 147.92 79.699 147.33 79.699ZM104.481 79.6893C103.897 79.6893 103.4 79.2409 103.352 78.6463C103.3 78.0192 103.764 77.4701 104.39 77.4181C105.675 77.3109 106.989 77.2135 108.296 77.129C108.922 77.0835 109.464 77.5611 109.503 78.1882C109.545 78.8152 109.072 79.3578 108.446 79.3968C107.151 79.4813 105.85 79.5788 104.578 79.686C104.546 79.686 104.513 79.6893 104.481 79.6893ZM139.546 79.2116C139.527 79.2116 139.508 79.2116 139.488 79.2116C138.2 79.1467 136.893 79.0914 135.608 79.0427C134.982 79.0199 134.492 78.4936 134.514 77.8633C134.537 77.2362 135.066 76.7488 135.692 76.7683C136.99 76.8171 138.304 76.8723 139.605 76.9373C140.231 76.9698 140.714 77.5026 140.682 78.1297C140.65 78.7405 140.147 79.2116 139.546 79.2116ZM112.261 79.1726C111.661 79.1726 111.158 78.7015 111.129 78.0907C111.096 77.4636 111.58 76.9308 112.206 76.8983C113.507 76.8333 114.824 76.7781 116.119 76.7326C116.741 76.7228 117.27 77.2037 117.293 77.8308C117.316 78.4578 116.823 78.9842 116.196 79.0069C114.915 79.0524 113.611 79.1077 112.319 79.1726C112.3 79.1726 112.28 79.1726 112.261 79.1726ZM131.75 78.929C131.74 78.929 131.731 78.929 131.724 78.929C130.426 78.8997 129.119 78.877 127.841 78.864C127.214 78.8575 126.708 78.3441 126.715 77.7171C126.721 77.09 127.231 76.5929 127.86 76.5896C129.151 76.6026 130.469 76.6221 131.776 76.6546C132.402 76.6676 132.899 77.1907 132.886 77.8178C132.869 78.4351 132.363 78.929 131.75 78.929ZM120.051 78.903C119.434 78.903 118.928 78.4091 118.915 77.7885C118.902 77.1615 119.402 76.6416 120.028 76.6286C121.31 76.6026 122.627 76.5864 123.944 76.5799C123.947 76.5799 123.947 76.5799 123.951 76.5799C124.577 76.5799 125.083 77.0867 125.086 77.7106C125.089 78.3376 124.583 78.851 123.957 78.8542C122.653 78.8607 121.349 78.877 120.077 78.903C120.067 78.903 120.057 78.903 120.051 78.903Z" fill="#CD9E64"/>
</svg>
