<svg width="444" height="503" viewBox="0 0 444 503" fill="none" xmlns="http://www.w3.org/2000/svg">
<path d="M81.7507 212.354C71.3273 225.915 81.6124 267.373 83.1884 273.428C83.3266 273.912 83.3819 274.175 83.3819 274.175C83.3819 274.175 82.5801 273.719 81.2115 272.848C72.1982 267.138 38.4675 243.693 45.9602 216.86C54.614 185.95 36.8086 192.019 24.2011 162.933C11.6074 133.847 40.237 116 40.237 116C73.5115 141.27 93.0034 197.7 81.7507 212.354Z" fill="#219653"/>
<path opacity="0.1" d="M83.3818 274.175C83.3818 274.175 82.58 273.719 81.2114 272.848C80.852 272.295 80.5064 271.742 80.147 271.189C73.2211 260.268 64.8023 245.393 63.9866 236.504C63.489 231.141 63.7516 224.989 64.0005 219.045C64.5258 206.575 65.0787 193.677 58.927 186.53C49.5405 175.623 49.2225 157.223 49.2225 156.435L50.5911 156.422C50.5911 156.615 50.9091 175.112 59.9638 185.632C66.4611 193.18 65.9082 206.354 65.369 219.086C65.1202 224.989 64.8575 231.085 65.3552 236.352C66.1708 245.089 74.9768 260.752 83.1744 273.401C83.3127 273.912 83.3818 274.175 83.3818 274.175Z" fill="#263238"/>
<path d="M57.0627 293.9L57.0327 293.4C57.1127 293.39 64.9927 292.81 67.7127 285.61C68.3627 283.9 68.7127 282.12 69.0827 280.23C70.3327 273.92 71.6327 267.39 83.9127 262.95C91.7327 260.12 97.5527 260.61 102.233 261C109.403 261.6 114.153 262 120.193 250L120.633 250.22C114.433 262.52 109.563 262.11 102.183 261.49C97.5527 261.1 91.7927 260.62 84.0727 263.42C72.0627 267.77 70.8027 274.16 69.5727 280.33C69.1927 282.24 68.8327 284.04 68.1727 285.78C65.3427 293.3 57.1427 293.89 57.0627 293.9Z" fill="#BBAD9C"/>
<path d="M54.9727 293.04L41.1627 292.68C40.3727 292.66 39.6027 292.91 38.9727 293.38L1.38272 321.78C-0.147285 322.94 -0.457285 325.12 0.702715 326.66L11.0727 340.39C12.2327 341.92 14.4127 342.23 15.9527 341.07L53.5427 312.69C54.1727 312.21 54.6227 311.54 54.8127 310.78L58.2527 297.4C58.8027 295.22 57.2027 293.1 54.9727 293.04ZM55.8927 298.09C55.0727 298.71 53.9027 298.55 53.2827 297.73C52.6627 296.91 52.8227 295.74 53.6427 295.12C54.4627 294.5 55.6327 294.66 56.2527 295.48C56.8727 296.31 56.7127 297.47 55.8927 298.09Z" fill="#BBAD9C"/>
<path d="M20.2727 328.59C19.7127 329.01 19.1127 329.33 18.4627 329.54C17.8127 329.75 17.1827 329.83 16.5627 329.79L16.5227 327.74C16.6127 327.78 16.7627 327.8 16.9827 327.8C17.2027 327.8 17.4527 327.78 17.7427 327.74C18.0327 327.69 18.3327 327.61 18.6527 327.48C18.9727 327.36 19.2727 327.18 19.5627 326.96C20.0127 326.62 20.2727 326.29 20.3627 325.95C20.4527 325.61 20.3827 325.3 20.1627 325.01C20.0527 324.87 19.9227 324.78 19.7527 324.74C19.5927 324.7 19.4027 324.7 19.1927 324.73C18.9827 324.76 18.7527 324.82 18.4927 324.9C18.2327 324.98 17.9527 325.08 17.6527 325.19C16.9627 325.44 16.3827 325.55 15.9027 325.51C15.4227 325.47 15.0027 325.23 14.6627 324.77C14.3127 324.31 14.1027 323.83 14.0127 323.33C13.9227 322.83 13.9427 322.34 14.0627 321.85C14.1827 321.37 14.3927 320.9 14.7027 320.47C15.0127 320.04 15.3827 319.65 15.8227 319.32C16.3527 318.92 16.8827 318.65 17.4327 318.52C17.9727 318.38 18.4827 318.33 18.9427 318.35V320.31C18.8727 320.28 18.7527 320.26 18.5727 320.26C18.3927 320.26 18.1927 320.27 17.9527 320.31C17.7227 320.35 17.4827 320.42 17.2227 320.52C16.9727 320.62 16.7327 320.75 16.5127 320.92C16.0627 321.26 15.8027 321.61 15.7327 321.97C15.6527 322.33 15.7327 322.67 15.9827 322.99C16.0827 323.12 16.1927 323.2 16.3227 323.25C16.4527 323.3 16.6127 323.31 16.7927 323.28C16.9727 323.26 17.1727 323.21 17.3927 323.13C17.6127 323.05 17.8727 322.96 18.1627 322.85C18.5227 322.71 18.8627 322.6 19.1827 322.52C19.5027 322.44 19.8027 322.41 20.0827 322.43C20.3627 322.45 20.6227 322.52 20.8727 322.65C21.1127 322.78 21.3427 322.98 21.5527 323.26C21.9327 323.76 22.1527 324.26 22.2327 324.76C22.3127 325.26 22.2727 325.74 22.1327 326.21C21.9927 326.67 21.7627 327.11 21.4327 327.52C21.0727 327.91 20.6927 328.27 20.2727 328.59Z" fill="white"/>
<path d="M26.4127 323.99C26.0827 324.24 25.7527 324.4 25.4027 324.47C25.0527 324.54 24.7127 324.54 24.3727 324.46C24.0327 324.38 23.7027 324.23 23.3927 324C23.0827 323.78 22.7927 323.5 22.5427 323.16C22.1827 322.68 21.9127 322.15 21.7527 321.58C21.5927 321.01 21.5327 320.44 21.5727 319.89C21.6127 319.33 21.7527 318.81 21.9827 318.32C22.2127 317.83 22.5427 317.42 22.9727 317.1C23.3727 316.8 23.7927 316.64 24.2327 316.64C24.6727 316.63 25.0727 316.76 25.4227 317.02L24.8927 315.85L26.3827 314.72L28.6127 319.47C28.6527 319.57 28.6927 319.64 28.7327 319.7C28.8527 319.86 29.0027 319.87 29.1827 319.74L29.8727 321.21C29.7527 321.33 29.6527 321.44 29.5627 321.53C29.4727 321.62 29.3927 321.69 29.3127 321.75C29.0527 321.95 28.8027 322.05 28.5727 322.05C28.3327 322.05 28.1327 321.94 27.9627 321.72C27.8927 321.63 27.8127 321.47 27.7127 321.25C27.7127 321.83 27.5927 322.37 27.3527 322.84C27.1127 323.31 26.8027 323.7 26.4127 323.99ZM26.1227 322.21C26.2527 322.11 26.3627 321.99 26.4727 321.83C26.5827 321.67 26.6727 321.5 26.7327 321.31C26.8027 321.12 26.8427 320.92 26.8727 320.71C26.9027 320.5 26.9027 320.3 26.8827 320.09L26.1227 318.48C25.8327 318.19 25.4927 318.01 25.1227 317.96C24.7427 317.91 24.4127 317.99 24.1327 318.2C23.8927 318.38 23.7127 318.61 23.5827 318.91C23.4527 319.2 23.3827 319.51 23.3727 319.84C23.3627 320.17 23.4027 320.5 23.4927 320.83C23.5827 321.16 23.7327 321.46 23.9327 321.73C24.2227 322.12 24.5727 322.36 24.9727 322.46C25.3727 322.57 25.7627 322.49 26.1227 322.21Z" fill="white"/>
<path d="M32.4527 319.39C32.0727 319.68 31.7227 319.81 31.3827 319.78C31.0527 319.76 30.7627 319.58 30.5127 319.26C30.4627 319.19 30.4127 319.12 30.3727 319.05C30.3327 318.98 30.2827 318.9 30.2427 318.8L26.5727 310.92L28.0527 309.8L31.4527 317.06C31.4727 317.1 31.4927 317.14 31.5227 317.18C31.5427 317.22 31.5727 317.26 31.6027 317.3C31.8327 317.6 32.1027 317.64 32.4027 317.41C32.4827 317.35 32.5727 317.26 32.6527 317.15C32.7427 317.04 32.8127 316.92 32.8727 316.81L33.6827 317.98C33.5427 318.24 33.3527 318.5 33.1227 318.75C32.8927 319.02 32.6727 319.23 32.4527 319.39Z" fill="white"/>
<path d="M37.0727 315.94C36.7027 316.22 36.3227 316.41 35.9327 316.51C35.5427 316.61 35.1627 316.63 34.7927 316.57C34.4227 316.51 34.0627 316.37 33.7327 316.15C33.4027 315.93 33.0927 315.64 32.8227 315.29C32.4627 314.81 32.2027 314.28 32.0727 313.7C31.9327 313.12 31.9027 312.55 31.9927 311.97C32.0727 311.39 32.2727 310.84 32.5727 310.31C32.8727 309.78 33.2827 309.32 33.8027 308.92C34.4327 308.44 35.0427 308.2 35.6227 308.2C36.2127 308.2 36.7027 308.46 37.1027 308.98C38.0527 310.23 37.4027 311.71 35.1627 313.4C35.0327 313.5 34.8927 313.6 34.7527 313.71C34.6127 313.82 34.4527 313.92 34.2927 314.02L34.4027 314.16C34.7027 314.55 35.0327 314.81 35.3927 314.92C35.7527 315.03 36.1327 314.94 36.5127 314.65C36.8127 314.43 37.0327 314.14 37.1927 313.8C37.3527 313.46 37.4127 313.1 37.3727 312.73L38.8327 312.21C38.8527 312.54 38.8227 312.89 38.7527 313.24C38.6827 313.59 38.5627 313.93 38.4127 314.26C38.2527 314.59 38.0627 314.89 37.8427 315.18C37.6227 315.47 37.3627 315.72 37.0727 315.94ZM34.4027 310.16C34.1827 310.32 34.0127 310.51 33.8927 310.73C33.7627 310.95 33.6827 311.18 33.6327 311.42C33.5927 311.66 33.5827 311.92 33.6027 312.18C33.6227 312.44 33.6827 312.7 33.7627 312.95C33.8827 312.87 34.0027 312.78 34.1127 312.7C34.2227 312.62 34.3427 312.53 34.4627 312.44C34.8227 312.17 35.1127 311.92 35.3327 311.7C35.5527 311.47 35.7127 311.27 35.8127 311.08C35.9127 310.89 35.9527 310.72 35.9427 310.57C35.9327 310.42 35.8827 310.28 35.7727 310.14C35.6127 309.92 35.4027 309.82 35.1627 309.84C34.9127 309.85 34.6627 309.96 34.4027 310.16Z" fill="white"/>
<path d="M383 190H298V195H383V190Z" fill="white"/>
<path d="M383 172H298V177H383V172Z" fill="white"/>
<path d="M360.522 319.882C332.376 325.48 304.769 343.203 300.166 346.258C299.724 346.548 299.489 346.714 299.489 346.714C299.489 346.714 299.171 346.355 298.645 345.663C295.908 342.055 287.614 329.31 289.839 309.5C292.494 285.874 305.682 276.806 350.513 271.815C383.055 268.193 383.497 232.887 383.511 232.237C408.187 280.068 384.714 315.071 360.522 319.882Z" fill="#219653"/>
<path opacity="0.1" d="M311.543 312.348C297.926 324.139 299.806 343.479 300.166 346.258C299.723 346.548 299.488 346.714 299.488 346.714C299.488 346.714 299.17 346.355 298.645 345.664C298.175 340.922 297.373 322.729 310.603 311.255C318.524 304.385 331.519 300.127 342.979 296.353C353.457 292.911 363.342 289.662 366.977 285.169L368.097 286.082C364.199 290.893 354.577 294.058 343.435 297.722C332.085 301.44 319.243 305.671 311.543 312.348Z" fill="#263238"/>
<path d="M322.623 288.374C300.987 292.677 279.765 306.301 276.226 308.649C275.886 308.872 275.706 309 275.706 309C275.706 309 275.461 308.724 275.057 308.192C272.953 305.419 266.577 295.621 268.288 280.393C270.329 262.232 280.466 255.261 314.929 251.424C339.944 248.64 340.284 221.499 340.295 221C359.264 257.769 341.22 284.675 322.623 288.374Z" fill="#219653"/>
<path opacity="0.1" d="M284.972 282.582C274.505 291.646 275.95 306.513 276.226 308.649C275.886 308.872 275.706 309 275.706 309C275.706 309 275.461 308.724 275.057 308.192C274.696 304.547 274.08 290.563 284.25 281.742C290.339 276.461 300.328 273.188 309.137 270.287C317.192 267.641 324.791 265.143 327.585 261.69L328.446 262.391C325.449 266.089 318.053 268.523 309.488 271.339C300.764 274.197 290.891 277.449 284.972 282.582Z" fill="#263238"/>
<path d="M88.6626 437.09H298.465C306.001 437.09 312.128 430.977 312.128 423.428V150.296C312.128 142.747 306.014 136.633 298.465 136.633H88.6626C81.1136 136.633 75 142.747 75 150.296V423.441C75 430.977 81.1136 437.09 88.6626 437.09Z" fill="#E5D6BE"/>
<path d="M298 118H89V408H298V118Z" fill="white"/>
<path d="M89 118V146.44C89 146.44 94.5979 154.45 101.294 146.44H113.588C113.588 146.44 119.186 154.45 125.882 146.44H138.176C138.176 146.44 143.774 154.45 150.471 146.44H162.765C162.765 146.44 168.363 154.45 175.059 146.44H187.353C187.353 146.44 192.951 154.45 199.647 146.44H211.941C211.941 146.44 217.539 154.45 224.235 146.44H236.529C236.529 146.44 242.127 154.45 248.824 146.44H261.118C261.118 146.44 266.715 154.45 273.412 146.44H285.706C285.706 146.44 291.304 154.45 298 146.44V118H89Z" fill="#BBAD9C"/>
<path d="M101.294 146.095C101.294 146.095 106.892 154.009 113.588 146.095V118H101.294V146.095Z" fill="#8F7A61"/>
<path d="M125.869 146.095C125.869 146.095 131.467 154.009 138.163 146.095V118H125.869V146.095Z" fill="#8F7A61"/>
<path d="M150.457 146.095C150.457 146.095 156.055 154.009 162.751 146.095V118H150.457V146.095Z" fill="#8F7A61"/>
<path d="M175.032 146.095C175.032 146.095 180.63 154.009 187.327 146.095V118H175.032V146.095Z" fill="#8F7A61"/>
<path d="M199.62 146.095C199.62 146.095 205.218 154.009 211.914 146.095V118H199.62V146.095Z" fill="#8F7A61"/>
<path d="M224.196 146.095C224.196 146.095 229.793 154.009 236.49 146.095V118H224.196V146.095Z" fill="#8F7A61"/>
<path d="M248.784 146.095C248.784 146.095 254.382 154.009 261.078 146.095V118H248.784V146.095Z" fill="#8F7A61"/>
<path d="M273.359 118V146.095C273.359 146.095 278.956 154.009 285.653 146.095V118H273.359Z" fill="#8F7A61"/>
<path d="M400.543 200H332.457C327.781 200 324 196.239 324 191.607V176.393C324 171.753 327.79 168 332.457 168H400.543C405.219 168 409 171.761 409 176.393V191.607C409 196.239 405.21 200 400.543 200Z" fill="#BBAD9C"/>
<path d="M345.846 191.513C344.754 191.513 343.763 191.301 342.874 190.869C341.985 190.446 341.223 189.879 340.588 189.167C339.953 188.465 339.454 187.652 339.106 186.737C338.759 185.823 338.582 184.892 338.582 183.943C338.582 182.953 338.768 181.996 339.14 181.082C339.513 180.167 340.021 179.363 340.673 178.669C341.325 177.966 342.095 177.416 342.993 177.001C343.89 176.586 344.864 176.383 345.914 176.383C346.989 176.383 347.98 176.603 348.869 177.043C349.758 177.483 350.52 178.059 351.146 178.779C351.773 179.49 352.264 180.303 352.62 181.217C352.967 182.132 353.144 183.054 353.144 183.994C353.144 184.985 352.967 185.942 352.594 186.839C352.23 187.745 351.722 188.541 351.079 189.235C350.435 189.929 349.665 190.48 348.767 190.895C347.87 191.301 346.896 191.513 345.846 191.513ZM341.52 183.943C341.52 184.587 341.621 185.213 341.816 185.815C342.011 186.416 342.298 186.949 342.663 187.415C343.035 187.881 343.492 188.245 344.026 188.524C344.568 188.803 345.177 188.947 345.863 188.947C346.566 188.947 347.184 188.803 347.726 188.516C348.268 188.228 348.716 187.847 349.089 187.372C349.461 186.898 349.741 186.365 349.927 185.764C350.113 185.171 350.215 184.562 350.215 183.943C350.215 183.3 350.113 182.673 349.91 182.072C349.707 181.471 349.419 180.938 349.047 180.472C348.674 180.006 348.217 179.642 347.683 179.371C347.141 179.1 346.54 178.965 345.863 178.965C345.16 178.965 344.542 179.109 343.992 179.397C343.45 179.685 342.993 180.066 342.629 180.531C342.265 180.997 341.985 181.53 341.799 182.132C341.613 182.724 341.52 183.334 341.52 183.943Z" fill="white"/>
<path d="M355.363 191.403V176.493H361.687C362.373 176.493 363.008 176.637 363.592 176.924C364.177 177.212 364.676 177.593 365.1 178.059C365.523 178.525 365.845 179.058 366.09 179.659C366.327 180.252 366.446 180.853 366.446 181.454C366.446 182.081 366.336 182.699 366.107 183.292C365.887 183.884 365.565 184.418 365.159 184.875C364.752 185.34 364.261 185.705 363.686 185.992C363.11 186.272 362.483 186.416 361.797 186.416H358.267V191.42H355.363V191.403ZM358.267 183.867H361.628C362.162 183.867 362.602 183.647 362.966 183.215C363.321 182.784 363.499 182.191 363.499 181.454C363.499 181.073 363.44 180.735 363.33 180.438C363.22 180.133 363.067 179.879 362.89 179.668C362.712 179.456 362.492 179.304 362.246 179.194C362.001 179.092 361.755 179.033 361.501 179.033H358.267V183.867Z" fill="white"/>
<path d="M378.816 188.863V191.403H368.461V176.493H378.63V179.033H371.357V182.623H377.639V184.976H371.357V188.863H378.816Z" fill="white"/>
<path d="M383.981 181.844V191.403H381.085V176.493H383.337L391.11 186.28V176.51H394.014V191.403H391.66L383.981 181.844Z" fill="white"/>
<path d="M103 367V367.742H112.887L114.503 374.966L117.28 388.065V388.527H131.907L131.596 389.865H118.633V390.607H119.399C118.74 390.85 118.274 391.495 118.274 392.249C118.274 393.209 119.052 394 119.997 394C120.943 394 121.721 393.209 121.721 392.249C121.721 391.495 121.254 390.85 120.596 390.607H130.291C129.633 390.85 129.166 391.495 129.166 392.249C129.166 393.209 129.944 394 130.89 394C131.835 394 132.614 393.209 132.614 392.249C132.614 391.495 132.147 390.85 131.488 390.607H132.195L132.685 388.539H134.613V388.077L138 372.072V371.135H114.419L113.498 367.012H103V367ZM130.878 391.227C131.429 391.227 131.871 391.677 131.871 392.236C131.871 392.796 131.429 393.246 130.878 393.246C130.327 393.246 129.884 392.796 129.884 392.236C129.872 391.689 130.327 391.227 130.878 391.227ZM119.997 391.227C120.548 391.227 120.991 391.677 120.991 392.236C120.991 392.796 120.548 393.246 119.997 393.246C119.447 393.246 119.004 392.796 119.004 392.236C118.992 391.689 119.447 391.227 119.997 391.227ZM128.687 382.105H123.169L122.846 377.545H129.011L128.687 382.105ZM129.825 377.545H135.989L135.019 382.105H129.501L129.825 377.545ZM122.463 372.059H129.406L129.082 376.62H122.786L122.463 372.059ZM121.972 376.608H115.676L114.707 372.047H121.637L121.972 376.608ZM128.628 383.042L128.304 387.603H123.552L123.229 383.042H128.628ZM122.75 387.591H118.01L117.041 383.03H122.427L122.75 387.591ZM116.825 382.008L115.88 377.545H122.044L122.367 382.105H116.849L116.825 382.008ZM137.15 372.059L136.181 376.62H129.884L130.208 372.059H137.15ZM133.846 387.591H129.106L129.43 383.03H134.816L133.846 387.591Z" fill="#8F7A61"/>
<path d="M192.82 312H105V315.48H192.82V312Z" fill="#BBAD9C"/>
<path d="M143 370.5C143 373.53 140.542 376 137.5 376C134.458 376 132 373.542 132 370.5C132 367.47 134.458 365 137.5 365C140.542 365 143 367.458 143 370.5Z" fill="#8F7A61"/>
<path d="M152.082 227H112.918C108.558 227 105 223.442 105 219.082V179.918C105 175.558 108.558 172 112.918 172H152.082C156.442 172 160 175.558 160 179.918V219.082C160 223.442 156.442 227 152.082 227ZM112.918 174.256C109.799 174.256 107.256 176.799 107.256 179.918V219.082C107.256 222.201 109.799 224.744 112.918 224.744H152.082C155.201 224.744 157.744 222.201 157.744 219.082V179.918C157.744 176.799 155.201 174.256 152.082 174.256H112.918Z" fill="#BBAD9C"/>
<path d="M151.866 226H114.134C110.194 226 107 222.965 107 219.22V212H159V219.22C159 222.965 155.806 226 151.866 226Z" fill="#BBAD9C"/>
<path d="M238.163 185.186H166.918V188.653H238.163V185.186Z" fill="#BBAD9C"/>
<path d="M259.372 200.855H166.918V204.337H259.372V200.855Z" fill="#BBAD9C"/>
<path d="M203.434 193.028H166.918V196.51H203.434V193.028Z" fill="#BBAD9C"/>
<path d="M181.301 212.996C178.273 211.891 176.274 214.268 176.274 214.268C176.274 214.268 174.276 211.906 171.248 212.996C168.22 214.102 168.765 216.403 168.765 216.403C168.993 221.02 176.274 225.88 176.274 225.88C176.274 225.88 183.344 221.005 183.783 216.403C183.783 216.403 184.328 214.086 181.301 212.996Z" fill="#8F7A61"/>
<path d="M202.374 212.996C199.346 211.891 197.348 214.268 197.348 214.268C197.348 214.268 195.349 211.906 192.322 212.996C189.294 214.102 189.839 216.403 189.839 216.403C190.066 221.02 197.348 225.88 197.348 225.88C197.348 225.88 204.418 221.005 204.857 216.403C204.857 216.403 205.402 214.086 202.374 212.996Z" fill="#8F7A61"/>
<path d="M223.039 212.996C220.011 211.891 218.013 214.268 218.013 214.268C218.013 214.268 216.015 211.906 212.987 212.996C209.959 214.102 210.504 216.403 210.504 216.403C210.746 221.02 218.013 225.88 218.013 225.88C218.013 225.88 225.083 221.005 225.522 216.403C225.522 216.403 226.067 214.086 223.039 212.996Z" fill="#8F7A61"/>
<path d="M243.704 212.996C240.676 211.891 238.678 214.268 238.678 214.268C238.678 214.268 236.679 211.906 233.651 212.996C230.624 214.102 231.169 216.403 231.169 216.403C231.411 221.02 238.678 225.88 238.678 225.88C238.678 225.88 245.748 221.005 246.187 216.403C246.187 216.403 246.732 214.086 243.704 212.996Z" fill="#8F7A61"/>
<path d="M264.52 212.996C261.492 211.891 259.494 214.268 259.494 214.268C259.494 214.268 257.495 211.906 254.468 212.996C251.44 214.102 251.985 216.403 251.985 216.403C252.227 221.02 259.494 225.88 259.494 225.88C259.494 225.88 266.564 221.005 267.003 216.403C267.003 216.403 267.548 214.086 264.52 212.996Z" fill="#8F7A61"/>
<path d="M152.082 290H112.918C108.558 290 105 286.442 105 282.082V242.918C105 238.558 108.558 235 112.918 235H152.082C156.442 235 160 238.558 160 242.918V282.082C160 286.442 156.442 290 152.082 290ZM112.918 237.256C109.799 237.256 107.256 239.799 107.256 242.918V282.082C107.256 285.201 109.799 287.744 112.918 287.744H152.082C155.201 287.744 157.744 285.201 157.744 282.082V242.918C157.744 239.799 155.201 237.256 152.082 237.256H112.918Z" fill="#BBAD9C"/>
<path d="M151.866 289H114.134C110.194 289 107 285.965 107 282.22V275H159V282.22C159 285.965 155.806 289 151.866 289Z" fill="#BBAD9C"/>
<path d="M238.163 248.186H166.918V251.653H238.163V248.186Z" fill="#BBAD9C"/>
<path d="M259.372 263.855H166.918V267.337H259.372V263.855Z" fill="#BBAD9C"/>
<path d="M203.434 256.028H166.918V259.51H203.434V256.028Z" fill="#BBAD9C"/>
<path d="M181.301 275.996C178.273 274.891 176.274 277.268 176.274 277.268C176.274 277.268 174.276 274.906 171.248 275.996C168.22 277.102 168.765 279.403 168.765 279.403C168.993 284.02 176.274 288.88 176.274 288.88C176.274 288.88 183.344 284.005 183.783 279.403C183.783 279.403 184.328 277.086 181.301 275.996Z" fill="#8F7A61"/>
<path d="M202.374 275.996C199.346 274.891 197.348 277.268 197.348 277.268C197.348 277.268 195.349 274.906 192.322 275.996C189.294 277.102 189.839 279.403 189.839 279.403C190.066 284.02 197.348 288.88 197.348 288.88C197.348 288.88 204.418 284.005 204.857 279.403C204.857 279.403 205.402 277.086 202.374 275.996Z" fill="#8F7A61"/>
<path d="M223.039 275.996C220.011 274.891 218.013 277.268 218.013 277.268C218.013 277.268 216.015 274.906 212.987 275.996C209.959 277.102 210.504 279.403 210.504 279.403C210.746 284.02 218.013 288.88 218.013 288.88C218.013 288.88 225.083 284.005 225.522 279.403C225.522 279.403 226.067 277.086 223.039 275.996Z" fill="#8F7A61"/>
<path d="M243.704 275.996C240.676 274.891 238.678 277.268 238.678 277.268C238.678 277.268 236.679 274.906 233.651 275.996C230.624 277.102 231.169 279.403 231.169 279.403C231.411 284.02 238.678 288.88 238.678 288.88C238.678 288.88 245.748 284.005 246.187 279.403C246.187 279.403 246.732 277.086 243.704 275.996Z" fill="#8F7A61"/>
<path d="M264.52 275.996C261.492 274.891 259.494 277.268 259.494 277.268C259.494 277.268 257.495 274.906 254.468 275.996C251.44 277.102 251.985 279.403 251.985 279.403C252.227 284.02 259.494 288.88 259.494 288.88C259.494 288.88 266.564 284.005 267.003 279.403C267.003 279.403 267.548 277.086 264.52 275.996Z" fill="#8F7A61"/>
<path d="M290.155 454H159.845C155.512 454 152 450.501 152 446.183V348.817C152 344.499 155.512 341 159.845 341H290.155C294.488 341 298 344.499 298 348.817V446.183C298 450.501 294.488 454 290.155 454Z" fill="#F8F4EE"/>
<path d="M210 356H161V360H210V356Z" fill="#BBAD9C"/>
<path d="M198 367H161V370H198V367Z" fill="#BBAD9C"/>
<path d="M202 376H161V380H202V376Z" fill="#BBAD9C"/>
<path d="M285.449 446.618H161V394.062H285.461V446.618H285.449ZM163.379 444.239H283.083V396.441H163.379V444.239Z" fill="#BBAD9C"/>
<path d="M126.6 473.451C126.6 473.451 124.793 475.577 124.682 476.868C124.584 478.159 122.359 483.85 123.183 485.251C124.006 486.652 130.533 486.849 133.791 486.333C137.048 485.816 144.14 486.898 144.866 485.509C145.591 484.108 146.009 482.08 143.882 481.281C141.756 480.494 136.9 478.417 136.015 476.241C135.143 474.078 126.6 473.451 126.6 473.451Z" fill="#BBAD9C"/>
<path d="M289.014 353.677H222.895V383.78H289.014V353.677Z" fill="#8F7A61"/>
<path d="M248.045 371.317C248.045 371.919 247.922 372.435 247.688 372.89C247.455 373.345 247.123 373.726 246.705 374.021C246.287 374.328 245.808 374.562 245.254 374.722C244.701 374.882 244.111 374.968 243.497 374.968H236.662V360.832H244.234C244.726 360.832 245.168 360.942 245.574 361.151C245.967 361.36 246.311 361.643 246.594 361.975C246.877 362.319 247.086 362.7 247.246 363.13C247.393 363.561 247.479 364.003 247.479 364.433C247.479 365.122 247.307 365.773 246.963 366.376C246.619 366.978 246.115 367.433 245.451 367.715C246.262 367.961 246.901 368.379 247.369 369.006C247.811 369.621 248.045 370.395 248.045 371.317ZM239.403 363.18V366.744H243.066C243.533 366.744 243.927 366.584 244.246 366.265C244.566 365.945 244.738 365.503 244.738 364.95C244.738 364.409 244.591 363.979 244.296 363.659C244.001 363.339 243.632 363.18 243.189 363.18H239.403ZM245.279 370.801C245.279 370.542 245.23 370.309 245.144 370.075C245.058 369.842 244.947 369.645 244.8 369.473C244.652 369.301 244.48 369.166 244.283 369.067C244.087 368.969 243.865 368.92 243.632 368.92H239.416V372.644H243.497C243.755 372.644 243.988 372.595 244.21 372.509C244.431 372.411 244.615 372.288 244.775 372.116C244.935 371.956 245.058 371.759 245.156 371.526C245.23 371.292 245.279 371.059 245.279 370.801Z" fill="white"/>
<path d="M256.182 372.631C256.833 372.631 257.374 372.496 257.829 372.238C258.271 371.968 258.628 371.624 258.91 371.206C259.181 370.775 259.378 370.296 259.488 369.743C259.599 369.19 259.66 368.624 259.66 368.047V360.831H262.389V368.047C262.389 369.018 262.279 369.927 262.045 370.775C261.811 371.624 261.443 372.373 260.951 373C260.447 373.639 259.808 374.143 259.033 374.512C258.247 374.881 257.313 375.065 256.231 375.065C255.1 375.065 254.141 374.869 253.354 374.475C252.568 374.082 251.929 373.566 251.437 372.926C250.945 372.287 250.589 371.537 250.368 370.689C250.146 369.841 250.036 368.956 250.036 368.034V360.819H252.789V368.034C252.789 368.637 252.851 369.202 252.961 369.755C253.072 370.308 253.268 370.8 253.539 371.218C253.809 371.648 254.166 371.98 254.608 372.238C255.002 372.509 255.542 372.631 256.182 372.631Z" fill="white"/>
<path d="M266.728 360.819L270.219 367.629L273.759 360.819H276.722L271.584 370.026V374.967H268.855V369.989L263.741 360.831H266.728V360.819Z" fill="white"/>
<g opacity="0.04">
<path d="M393 0H292V45.9842H393V0Z" fill="#8F7A61"/>
<path d="M330.417 26.9455C330.417 27.8656 330.23 28.6542 329.873 29.3489C329.516 30.0437 329.009 30.6258 328.371 31.0764C327.732 31.5458 327 31.9026 326.155 32.1467C325.31 32.3908 324.409 32.5222 323.47 32.5222H313.03V10.929H324.597C325.348 10.929 326.024 11.098 326.643 11.4172C327.244 11.7364 327.77 12.1682 328.202 12.6752C328.634 13.201 328.953 13.783 329.197 14.4402C329.422 15.0974 329.554 15.7734 329.554 16.4305C329.554 17.482 329.291 18.4772 328.765 19.3973C328.239 20.3173 327.469 21.0121 326.456 21.4439C327.695 21.8195 328.671 22.4579 329.385 23.4155C330.061 24.3543 330.417 25.5372 330.417 26.9455ZM317.217 14.5153V19.9606H322.813C323.526 19.9606 324.127 19.7165 324.615 19.2283C325.104 18.7401 325.366 18.0641 325.366 17.2192C325.366 16.393 325.141 15.7358 324.691 15.2476C324.24 14.7594 323.677 14.5153 323.001 14.5153H317.217ZM326.193 26.1569C326.193 25.7626 326.118 25.4058 325.986 25.0491C325.855 24.6923 325.686 24.3919 325.46 24.129C325.235 23.8661 324.972 23.6596 324.672 23.5094C324.371 23.3592 324.033 23.284 323.677 23.284H317.236V28.9734H323.47C323.864 28.9734 324.221 28.8983 324.559 28.7668C324.897 28.6166 325.179 28.4289 325.423 28.166C325.667 27.9219 325.855 27.6215 326.005 27.2647C326.118 26.908 326.193 26.5512 326.193 26.1569Z" fill="white"/>
<path d="M342.847 28.9536C343.842 28.9536 344.669 28.7471 345.363 28.3527C346.039 27.9397 346.584 27.4139 347.016 26.7755C347.429 26.1183 347.729 25.386 347.898 24.5411C348.067 23.6961 348.161 22.8324 348.161 21.9499V10.9279H352.33V21.9499C352.33 23.4333 352.161 24.8227 351.804 26.1183C351.447 27.4139 350.884 28.5593 350.133 29.5169C349.363 30.4933 348.386 31.2631 347.204 31.8264C346.002 32.3897 344.575 32.6714 342.922 32.6714C341.195 32.6714 339.73 32.371 338.529 31.7701C337.327 31.1693 336.351 30.3807 335.6 29.4043C334.848 28.4279 334.304 27.2825 333.966 25.9869C333.628 24.6913 333.459 23.3394 333.459 21.9311V10.9092H337.665V21.9311C337.665 22.8512 337.759 23.7149 337.928 24.5599C338.097 25.4048 338.397 26.1559 338.81 26.7943C339.223 27.4515 339.768 27.9584 340.444 28.3527C341.045 28.7658 341.871 28.9536 342.847 28.9536Z" fill="white"/>
<path d="M358.958 10.9092L364.29 21.3115L369.698 10.9092H374.223L366.374 24.973V32.5212H362.206V24.9166L354.395 10.9279H358.958V10.9092Z" fill="white"/>
</g>
<path d="M224.923 326.537C224.923 326.537 233.528 328.073 233.601 335.362C233.675 342.651 227.013 353.198 222.674 352.424C218.347 351.649 213.418 347.802 213.578 343.364C213.75 338.927 214.979 333.113 216.97 329.917C218.974 326.709 222.514 326.377 224.923 326.537Z" fill="#D6C2A2"/>
<path d="M213.885 339.984C213.885 339.984 213.897 341.471 216.86 342.651C219.822 343.831 225.255 342.184 226.62 342.455C227.984 342.725 228.39 342.074 228.39 342.074L228.488 343.524L229.643 344.311C229.643 344.311 230.455 340.439 232.889 340.107C235.322 339.775 237.351 328.663 226.865 326.561C226.865 326.561 219.109 324.459 217.106 328.392C215.09 332.314 213.504 337.206 213.885 339.984Z" fill="#232323"/>
<path d="M244.345 380.326C244.345 380.326 246.643 379.134 249.348 378.114C251.72 377.216 254.658 376.577 254.977 376.983C255.69 377.892 252.912 378.532 250.614 379.576C248.499 380.535 248.856 380.388 248.856 380.388C248.856 380.388 248.696 380.338 251.191 379.724C253.871 379.06 256.674 378.654 257.03 379.146C257.202 379.392 257.522 380.24 256.391 380.203C256.981 380.093 256.883 380.007 256.944 380.228C257.239 381.432 253.429 383.006 251.904 383.62C253.072 383.153 253.969 382.92 253.662 383.805C253.306 384.813 247.811 386.804 245.906 387.689C243.841 388.672 244.345 380.326 244.345 380.326Z" fill="#D6C2A2"/>
<path d="M203.596 347.986C203.596 347.986 198.225 347.593 194.426 347.986C190.628 348.379 185.392 351.477 182.221 352.374C179.049 353.272 171.391 358.422 171.6 359.123C171.809 359.823 174.772 368.206 180.254 375.004C184.949 380.83 203.596 347.986 203.596 347.986Z" fill="#FFB93E"/>
<path d="M191.993 351.366C191.993 351.366 186.204 355.656 184.175 359.59C182.159 363.523 181.471 368.207 181.471 368.207L191.993 351.366Z" fill="#FFB93E"/>
<path d="M196.393 479.142C196.393 479.142 198.053 480.9 199.012 481.367C199.97 481.834 211.402 483.801 212.176 484.735C212.951 485.669 212.951 489.344 210.001 489.344C207.051 489.344 197.217 489.295 195.57 489.344C193.911 489.393 186.916 490.795 186.203 489.344C185.478 487.894 185.552 481.133 186.83 479.511C188.096 477.888 196.393 479.142 196.393 479.142Z" fill="#BBAD9C"/>
<path d="M213.59 344.028C213.59 344.028 208.391 348.453 206.904 348.084C205.416 347.728 212.005 357.438 212.005 357.438C212.005 357.438 218.274 351.268 219.687 351.083C221.113 350.887 213.59 344.028 213.59 344.028Z" fill="#D6C2A2"/>
<path d="M213.947 361.483C212.176 362.552 211.881 362.896 212.078 367.973C212.287 373.037 214.389 377.13 214.549 378.532C214.709 379.933 217.523 393.786 218.298 394.56C219.072 395.335 228.353 393.528 230.221 392.95C233.024 392.077 244.91 388.058 244.91 388.058L242.292 382.613C242.292 382.613 227.283 385.956 226.804 384.788C226.325 383.62 225.145 373.762 224.739 371.623C224.321 369.485 225.046 366.129 222.489 361.052C220.215 356.492 213.947 361.483 213.947 361.483Z" fill="#FFB93E"/>
<path d="M196.357 399.625C196.357 399.625 199.54 403.005 200.425 404.112C206.522 411.634 214.807 425.463 215.839 427.872C216.872 430.281 210.714 447.355 208.182 453.329C206.854 456.451 198.077 478.011 198.348 478.491C198.618 478.97 189.067 479.29 184.79 477.089C184.79 477.089 190.936 458.873 192.239 455.296C194.193 449.899 200.978 434.965 201.187 433.514C201.396 432.064 190.223 420.116 186.498 417.842C182.774 415.568 173.666 407.492 172.633 406.459C171.6 405.427 165.737 402.661 166.29 397.425C166.843 392.188 170.74 388.046 170.74 388.046L196.357 399.625Z" fill="#739AF0"/>
<path d="M179.639 412.605C179.639 412.605 179.062 414.142 178.238 416.28C176.48 420.89 173.653 428.327 173.174 429.507C172.485 431.228 169.031 438.677 167.384 440.127C165.725 441.577 138.486 474.274 138.412 474.545C138.338 474.815 125.37 472.775 124.755 470.771C124.755 470.771 142.345 448.338 144.619 445.511C146.893 442.684 151.65 438.48 153.248 431.781C154.834 425.094 166.216 399.367 166.253 398.396C166.253 398.396 168.085 390.467 170.74 388.046C173.395 385.636 183.057 388.464 184.568 393.491C186.08 398.531 179.639 412.605 179.639 412.605Z" fill="#739AF0"/>
<path d="M206.436 348.035L208.637 347.163C208.637 347.163 214.193 348.441 217.401 352.891L217.13 354.218C217.118 354.231 208.649 352.387 206.436 348.035Z" fill="#739AF0"/>
<path d="M227.025 341.791C227.222 341.164 226.742 338.742 225.206 340.119C223.669 341.496 223.669 344.581 224.542 344.827C225.415 345.085 226.533 343.401 227.025 341.791Z" fill="#D6C2A2"/>
<path d="M214.918 380.425C214.475 381.039 214.106 381.494 213.885 381.691C213.725 381.826 213.541 381.986 213.32 382.158C211.218 383.842 206.485 387.124 204.31 388.304C201.9 389.619 197.315 400.657 197.315 400.657C197.315 400.657 175.718 399.195 170.752 388.021C170.752 388.021 174.268 380.154 177.476 375.495C180.684 370.837 187.715 354.083 191.44 351.698C195.164 349.313 198.373 347.765 205.723 347.974C213.074 348.183 217.143 354.009 217.143 354.009C217.143 354.009 222.735 360.008 223.276 363.179C223.731 365.945 217.671 376.589 214.918 380.425Z" fill="#FFB93E"/>
<path d="M401.575 305.928C401.575 305.928 405.256 304.964 407.057 308.207C408.859 311.45 401.718 321.572 404.717 325.691C407.365 329.34 409.793 327.499 409.793 327.499C409.793 327.499 404.728 332.988 400.378 326.513C397.774 322.624 398.894 318.395 399.037 314.9C399.18 311.395 401.575 305.928 401.575 305.928Z" fill="#232323"/>
<path d="M373.021 467.652C373.021 467.652 372.033 470.27 370.659 470.894C369.286 471.519 366.177 474.4 364.924 474.597C363.672 474.805 360.684 475.035 360.508 476.613C360.343 478.191 360.662 479.626 366.704 478.793C372.736 477.961 378.438 475.178 378.438 475.178C378.438 475.178 379.657 469.076 377.691 466.074C375.735 463.072 373.021 467.652 373.021 467.652Z" fill="#BBAD9C"/>
<path d="M373.022 467.651L374.153 463.894H378.46V467.903C378.46 467.903 371.945 470.347 373.022 467.651Z" fill="#D6C2A2"/>
<path d="M410.859 460.574C410.859 460.574 410.43 463.291 409.76 464.113C409.09 464.935 408.123 468.846 406.761 470.095C405.398 471.344 402.048 474.159 403.069 475.561C404.091 476.964 411.265 475.156 413.825 470.807C416.385 466.457 417.264 465.964 416.934 464.781C416.605 463.598 414.177 459.052 414.232 458.504C414.297 457.956 410.859 460.574 410.859 460.574Z" fill="#BBAD9C"/>
<path d="M409.815 458.613C409.859 458.613 410.683 459.84 410.859 460.563C411.046 461.286 412.628 461.571 413.891 460.005C413.891 460.005 414.287 459.435 414.232 458.504C414.177 457.573 413.111 455.36 413.111 455.36L409.815 458.613Z" fill="#D6C2A2"/>
<path d="M380.756 364.616C380.701 364.693 380.613 364.791 380.514 364.923C380.24 365.251 379.822 365.766 379.284 366.391C376.208 370.05 369.462 377.861 366.891 379.274C365.067 380.271 364.793 377.138 366.605 375.21C368.253 373.446 374.636 362.096 377.108 359.653C378.306 358.47 379.921 347.252 379.921 347.252C379.921 347.252 381.415 356.597 381.25 357.681C381.075 358.744 381.811 363.301 380.756 364.616Z" fill="#BBAD9C"/>
<path d="M366.594 375.199C366.594 375.199 365.529 376.59 364.979 376.766C364.43 376.941 363.793 377.905 363.331 378.157C362.87 378.409 361.365 378.65 360.991 379.066C360.838 379.242 360.354 380.655 360.014 380.972C359.673 381.29 358.893 381.849 359.19 382.134C359.486 382.419 360.321 382.101 360.321 382.101C360.321 382.101 360.025 382.408 360.211 382.736C360.563 383.372 361.013 383.361 361.013 383.361C361.013 383.361 360.925 383.865 361.134 384.095C361.607 384.599 362.046 384.577 362.046 384.577C362.046 384.577 362.134 384.96 362.518 385.223C363.013 385.563 363.551 385.3 363.551 385.3C363.551 385.3 364.079 385.87 364.474 385.716C364.881 385.563 365.089 385.234 365.364 385.037C365.639 384.84 367.462 382.331 367.979 380.085C368.495 377.839 369.792 376.316 369.792 376.316L366.594 375.199Z" fill="#EEA886"/>
<path d="M367.298 391.38C367.375 391.227 369.067 387.502 367.825 384.621C367.265 383.328 366.21 382.418 364.683 381.904C362.541 381.181 360.618 381.301 358.97 382.243C357.179 383.273 356.07 385.114 355.443 386.472C354.773 387.929 354.531 389.145 354.521 389.189L354.455 389.507L367.21 391.588L367.298 391.38ZM359.278 382.791C360.761 381.936 362.508 381.838 364.474 382.495C365.826 382.944 366.759 383.744 367.243 384.872C368.221 387.129 367.155 390.087 366.825 390.898L355.213 389.003C355.487 387.918 356.597 384.336 359.278 382.791Z" fill="#23344A"/>
<path d="M333.613 425.024L374.439 430.316L381.371 393.034L338.678 385.749L333.613 425.024Z" fill="#739AF0"/>
<path d="M324 422.285L338.678 385.749L333.613 425.024L329.34 422.526L324 422.285Z" fill="#628BE6"/>
<path d="M369.176 390.997C369.22 390.821 370.352 386.658 368.55 383.865C367.748 382.616 366.485 381.838 364.793 381.575C362.431 381.192 360.453 381.652 358.904 382.922C357.223 384.303 356.377 386.406 355.96 387.94C355.52 389.583 355.465 390.876 355.465 390.931L355.454 391.27L369.11 391.249L369.176 390.997ZM359.322 383.426C360.717 382.276 362.53 381.871 364.683 382.221C366.177 382.462 367.287 383.131 367.979 384.215C369.385 386.395 368.792 389.66 368.583 390.569L356.146 390.591C356.267 389.419 356.795 385.497 359.322 383.426Z" fill="#23344A"/>
<path d="M339.886 431.871L383.371 430.348L384.118 390.285L338.359 390.054L339.886 431.871Z" fill="#FFB93E"/>
<path d="M329.394 430.677L338.359 390.054L339.886 431.871L334.998 429.998L329.394 430.677Z" fill="#F0A726"/>
<path d="M360.42 381.827C360.42 381.827 362.013 379.713 362.925 379.669C363.837 379.636 363.299 380.425 363.299 380.425C363.299 380.425 363.815 379.625 364.496 379.965C365.188 380.304 364.518 381.202 364.518 381.202C364.518 381.202 365.067 380.699 365.617 381.29C366.166 381.871 365.43 382.484 365.43 382.484C365.43 382.484 366.606 382.21 366.463 383.185C366.21 384.829 364.485 385.727 364.485 385.727C364.485 385.727 364.046 385.902 363.562 385.311C363.562 385.311 362.519 385.815 362.057 384.577C362.057 384.577 360.728 384.401 361.024 383.35C361.024 383.372 359.618 383.098 360.42 381.827Z" fill="#DB9C7C"/>
<path d="M391.973 396.803C391.742 397.888 390.303 402.423 388.699 407.473C387.227 412.075 385.612 417.081 384.645 420.291C384.283 421.485 384.008 422.428 383.876 422.997C382.942 426.788 383.997 432.737 384.327 437.699C384.667 442.673 379.295 467.115 379.295 467.115C378.031 467.706 372.406 466.14 372.406 466.14C373.34 464.376 374.582 433.942 374.076 432.003C373.571 430.063 373.23 424.673 373.736 422.57C373.835 422.132 373.889 421.562 373.9 420.883C373.944 418.232 373.395 413.839 373.055 409.018C372.637 402.949 374.999 387.885 375.329 386.538C375.362 386.417 375.406 386.242 375.472 386.023C376.098 383.908 378.097 377.905 378.097 377.905C382.162 376.7 385.216 376.481 387.502 376.941C390.523 377.554 392.182 379.362 393.017 381.663C395.005 387.14 392.259 395.39 391.973 396.803Z" fill="#C08E4F"/>
<path d="M415.056 457.846L409.507 460.191C408.804 456.828 393.324 433.427 392.303 430.82C391.281 428.212 390.193 423.162 390.193 421.299C390.193 420.971 390.171 420.412 390.127 419.689C389.952 416.884 389.435 411.582 388.688 407.463C388.545 406.696 388.403 405.962 388.249 405.304C387.436 401.744 387.293 389.605 387.282 382.462C387.282 379.285 387.304 377.094 387.304 377.094C387.304 377.094 387.37 377.04 387.513 376.941C389.051 375.78 398.927 368.692 402.377 375.32C403.289 377.072 403.882 378.946 404.245 380.907C405.355 386.91 405.322 394.305 404.432 400.462C403.674 405.732 401.147 412.535 400.729 418.067C400.499 421.102 400.586 423.567 401.268 424.761C403.212 428.135 405.113 430.984 409.035 442.87C410.309 446.727 415.056 457.846 415.056 457.846Z" fill="#CD9E64"/>
<path d="M392.83 304.482C392.83 304.482 385.183 304.745 384.876 315.788C384.568 326.831 386.974 329.186 393.797 326.886C400.619 324.585 402.773 313.027 402.927 311.242C403.08 309.445 403.344 303.156 392.83 304.482Z" fill="#D6C2A2"/>
<path d="M406.662 341.928C406.695 345.74 402.311 354.822 401.63 357.638C400.96 360.442 399.883 361.34 400.784 364.934C401.685 368.527 404.476 380.677 404.366 381.75C404.256 382.813 379.24 386.746 375.471 386.023C375.471 386.023 380.086 368.867 380.415 366.906C380.756 364.945 380.009 357.572 379.833 355.501C379.668 353.42 377.559 348.95 377.625 346.868C377.702 344.743 378.745 342.914 380.207 340.646C380.657 339.945 381.14 339.233 381.613 338.531C383.162 336.264 384.711 334.204 385.469 333.503C386.029 332.977 386.568 332.572 387.018 332.265C387.974 331.629 388.611 331.421 388.611 331.421L395.313 330.359C395.313 330.359 399.488 331.87 401.894 332.429C401.905 332.418 406.596 333.097 406.662 341.928Z" fill="#BBAD9C"/>
<path d="M387.029 332.254L383.151 338.356L379.569 343.987C379.58 343.954 379.822 343.1 380.218 340.635C380.295 340.164 380.382 339.638 380.47 339.046C380.492 338.871 380.536 338.696 380.58 338.531C382.107 335.004 386.853 332.342 387.029 332.254Z" fill="#BBAD9C"/>
<path d="M398.18 321.912C397.499 323.183 396.796 331.082 396.796 331.082C396.796 331.082 387.26 334.675 388.238 332.637C388.677 331.717 388.809 330.523 388.82 329.482C388.831 328.671 388.765 327.959 388.71 327.565C388.688 327.357 388.666 327.236 388.666 327.236C388.666 327.236 398.862 320.641 398.18 321.912Z" fill="#D6C2A2"/>
<path d="M394.148 326.754C392.687 328.902 388.82 329.482 388.82 329.482C388.831 328.672 388.765 327.959 388.71 327.565C391.193 328.047 394.148 326.754 394.148 326.754Z" fill="#C9B28E"/>
<path d="M380.591 338.488C380.591 338.488 380.382 338.915 380.218 340.635L381.624 338.52C381.624 338.52 384.129 334.938 384.986 334.007C385.843 333.076 387.029 332.254 387.029 332.254C387.029 332.254 382.096 334.62 380.591 338.488Z" fill="#BBAD9C"/>
<path d="M388.633 331.41C388.633 331.41 384.14 338.301 385.667 338.904C387.183 339.506 395.423 338.104 398.917 331.564C398.906 331.564 393.676 328.88 388.633 331.41Z" fill="#EEA886"/>
<path d="M365.562 376.371C365.562 376.371 367.858 377.127 368.561 378.431C368.561 378.431 370.022 376.536 370.495 376.185L367.023 374.684L365.562 376.371Z" fill="#E6D3CC"/>
<path d="M379.855 355.601C379.844 355.513 379.844 355.458 379.844 355.447C379.844 355.447 379.844 355.469 379.855 355.491C379.855 355.513 379.855 355.546 379.855 355.601Z" fill="#2F4563"/>
<path d="M380.503 364.912C380.229 365.241 379.218 366.468 378.691 367.103C378.691 367.103 379.899 356.925 379.855 355.6C379.976 356.652 380.69 362.655 380.503 364.912Z" fill="#BDAEA8"/>
<path d="M389.009 378.841L416.398 370.592L410.125 345L381 352.515L389.009 378.841Z" fill="#8F7A61"/>
<path d="M381.899 379.691L380.756 352.357L388.765 378.683L385.348 378.321L381.899 379.691Z" fill="#715D46"/>
<path d="M406.014 338.433C406.014 338.433 404.959 331.312 399.729 332.484C394.709 333.612 399.411 342.946 399.784 344.053C400.158 345.159 403.871 354.186 404.201 355.37C405.223 359.105 404.267 359.193 402.729 360.08C398.191 362.688 389.095 363.137 388.018 363.86C386.941 364.572 386.798 366.172 388.6 366.248C390.951 366.347 404.377 365.087 406.244 364.901C408.057 364.726 411.672 364.572 410.727 358.13C410.079 353.792 406.014 338.433 406.014 338.433Z" fill="#BBAD9C"/>
<path d="M396.038 362.217C396.038 362.217 393.237 362.688 392.973 362.644C392.709 362.6 391.611 360.793 390.325 360.475C389.04 360.146 387.436 359.905 387.051 359.653C386.656 359.412 386.546 360.661 387.776 361.176C389.007 361.691 389.314 362.37 387.007 362.83C385.733 363.082 380.965 362.557 381.36 363.356C381.591 363.827 386.183 364.167 386.183 364.167C386.183 364.167 381.228 364.145 381.053 364.441C380.723 365.032 385.689 365.241 385.898 365.219C385.898 365.219 381.635 365.46 381.602 365.843C381.558 366.314 385.876 366.117 385.832 366.194C385.832 366.194 382.448 366.424 382.481 366.72C382.525 367.092 385.502 367.147 386.084 367.07C386.667 367.004 392.5 366.336 393.478 366.15C394.467 365.953 396.115 365.843 396.115 365.843L396.038 362.217Z" fill="#EEA886"/>
<path d="M401.356 360.738C401.356 360.738 398.62 361.68 396.049 362.217C393.478 362.765 396.137 365.832 396.137 365.832C396.137 365.832 400.597 365.405 402.74 365.208C403.509 365.153 401.356 360.738 401.356 360.738Z" fill="#EEA886"/>
<path d="M399.257 343.45C399.257 343.45 404.981 341.423 406.761 341.281C406.761 341.281 405.838 331.323 399.938 332.341C394.027 333.371 399.257 343.45 399.257 343.45Z" fill="#BBAD9C"/>
<path d="M399.532 347.515L390.852 349.75L390.907 349.947C390.918 349.98 391.16 350.801 391.709 351.776C392.215 352.686 393.094 353.891 394.39 354.504C395.588 355.063 396.917 355.041 398.367 354.417C399.4 353.978 400.081 353.277 400.389 352.357C401.081 350.286 399.697 347.81 399.642 347.712L399.532 347.515ZM391.402 350.045L399.334 348.062C399.609 348.61 400.521 350.593 399.971 352.215C399.697 353.014 399.103 353.628 398.191 354.011C396.873 354.581 395.654 354.614 394.577 354.11C392.632 353.2 391.654 350.779 391.402 350.045Z" fill="#23344A"/>
<path d="M388.776 330.348C388.776 330.348 389.545 331.377 396.983 329.099L397.115 330.884C397.115 330.884 398.103 331.038 400.784 332.122C400.784 332.122 387.37 344.732 385.337 339.583C383.316 334.434 388.468 331.465 388.468 331.465L388.776 330.348Z" fill="#BBAD9C"/>
<path d="M390.765 311.461C390.765 311.461 392.237 316.873 401.004 318.494C401.004 318.494 407.881 306.761 398.202 304.318C388.534 301.875 385.425 309.291 385.14 312.94C385.151 312.929 387.743 311.285 390.765 311.461Z" fill="#232323"/>
<path d="M385.491 311.504C385.491 311.504 389.358 297.602 401.279 305.347C401.279 305.347 407.266 309.302 400.795 319.042C400.784 319.042 391.764 316.675 385.491 311.504Z" fill="#232323"/>
<path d="M394.917 362.403C394.917 362.403 395.862 363.564 395.456 365.898C395.456 365.898 395.236 366.194 394.467 365.997C394.467 365.997 394.511 363.488 393.753 362.568C393.753 362.579 394.093 362.327 394.917 362.403Z" fill="#23344A"/>
<path d="M395.192 317.409C395.708 316.27 396.554 315.273 397.807 316.04C399.059 316.807 398.235 319.568 396.631 319.995C395.038 320.422 394.731 318.406 395.192 317.409Z" fill="#D6C2A2"/>
<path d="M398.257 318.253C398.257 318.253 399.642 320.126 399.301 321.967C399.301 321.967 401.279 319.907 401.136 318.494C401.004 317.081 398.257 318.253 398.257 318.253Z" fill="#232323"/>
<g opacity="0.3">
<path d="M40 72.2216H75.3213V37H40V72.2216ZM74.2336 71.126H41.0986V38.0846H74.2336V71.126Z" fill="#BBAD9C"/>
</g>
<g opacity="0.3">
<path d="M57.5541 46.104H58.6418V63.1177H57.5541V46.104Z" fill="#BBAD9C"/>
<path d="M49.567 54.0686H66.6289V55.1532H49.567V54.0686Z" fill="#BBAD9C"/>
</g>
</svg>
