<svg width="757" height="304" viewBox="0 0 757 304" fill="none" xmlns="http://www.w3.org/2000/svg">
<path d="M329.725 179.303H217.199V274.722H343.277L329.725 179.303Z" fill="#DB6161"/>
<path d="M324.8 182.568H197.266V274.722H338.025L324.8 182.568Z" fill="#85B2EF"/>
<path d="M269.795 274.721H287.137V257.111H269.795V274.721Z" fill="#E69D43"/>
<path d="M286.414 274.721H296.91V257.111H286.414V274.721Z" fill="#D57912"/>
<path d="M268.874 257.355H297.633V234.989H268.874V257.355Z" fill="#E69D43"/>
<path d="M296.912 257.356H304.852V239.99H296.912V257.356Z" fill="#D57912"/>
<path d="M147.841 281.382H110.809C109.91 281.382 109.174 280.645 109.174 279.745V265.117C109.174 264.217 109.91 263.48 110.809 263.48H147.844C148.743 263.48 149.479 264.217 149.479 265.117V279.745C149.479 280.645 148.743 281.382 147.841 281.382Z" fill="#B65615"/>
<path d="M251.643 287.296C251.643 278.361 258.878 271.115 267.8 271.115C276.722 271.115 283.957 278.361 283.957 287.296C283.957 296.231 276.722 303.476 267.8 303.476C258.874 303.476 251.643 296.234 251.643 287.296Z" fill="#232323"/>
<path d="M305.973 287.296C305.973 278.361 313.208 271.115 322.13 271.115C331.052 271.115 338.287 278.361 338.287 287.296C338.287 296.231 331.052 303.476 322.13 303.476C313.204 303.476 305.973 296.234 305.973 287.296Z" fill="#232323"/>
<path d="M114.676 287.296C114.676 278.361 121.911 271.115 130.833 271.115C139.755 271.115 146.99 278.361 146.99 287.296C146.99 296.231 139.755 303.476 130.833 303.476C121.911 303.476 114.676 296.234 114.676 287.296Z" fill="#232323"/>
<path d="M122.678 287.296C122.678 282.786 126.328 279.127 130.831 279.127C135.334 279.127 138.987 282.783 138.987 287.296C138.987 291.805 135.337 295.461 130.831 295.461C126.331 295.464 122.678 291.805 122.678 287.296Z" fill="#D36E2A"/>
<path d="M122.678 287.296C122.678 282.786 126.328 279.127 130.831 279.127C135.334 279.127 138.987 282.783 138.987 287.296C138.987 291.805 135.337 295.461 130.831 295.461C126.331 295.464 122.678 291.805 122.678 287.296Z" fill="black"/>
<path opacity="0.3" d="M136.262 281.204C136.719 282.224 136.976 283.354 136.976 284.547C136.976 289.057 133.326 292.715 128.822 292.715C126.736 292.715 124.835 291.929 123.395 290.642C124.67 293.485 127.521 295.467 130.834 295.467C135.337 295.467 138.99 291.812 138.99 287.302C138.987 284.875 137.936 282.698 136.262 281.204Z" fill="#8F7A61"/>
<path d="M130.834 289.827C132.23 289.827 133.361 288.693 133.361 287.296C133.361 285.898 132.23 284.765 130.834 284.765C129.438 284.765 128.307 285.898 128.307 287.296C128.307 288.693 129.438 289.827 130.834 289.827Z" fill="#8F7A61"/>
<path d="M125.553 291.633C125.553 291.091 125.991 290.652 126.533 290.652C127.074 290.652 127.512 291.091 127.512 291.633C127.512 292.176 127.074 292.614 126.533 292.614C125.991 292.614 125.553 292.176 125.553 291.633Z" fill="#8F7A61"/>
<path d="M125.39 285.336C125.931 285.336 126.37 284.897 126.37 284.355C126.37 283.813 125.931 283.374 125.39 283.374C124.849 283.374 124.41 283.813 124.41 284.355C124.41 284.897 124.849 285.336 125.39 285.336Z" fill="#8F7A61"/>
<path d="M135.174 284.355C135.174 283.813 135.612 283.374 136.154 283.374C136.695 283.374 137.133 283.813 137.133 284.355C137.133 284.898 136.695 285.336 136.154 285.336C135.612 285.336 135.174 284.898 135.174 284.355Z" fill="#8F7A61"/>
<path d="M134.359 291.633C134.359 291.091 134.797 290.652 135.339 290.652C135.881 290.652 136.319 291.091 136.319 291.633C136.319 292.176 135.881 292.614 135.339 292.614C134.797 292.614 134.359 292.176 134.359 291.633Z" fill="#8F7A61"/>
<path d="M129.854 281.057C129.854 280.515 130.292 280.076 130.833 280.076C131.375 280.076 131.813 280.515 131.813 281.057C131.813 281.6 131.375 282.039 130.833 282.039C130.292 282.035 129.854 281.597 129.854 281.057Z" fill="#8F7A61"/>
<path d="M259.342 287.296C259.342 282.786 262.992 279.127 267.495 279.127C271.998 279.127 275.648 282.783 275.648 287.296C275.648 291.805 271.998 295.461 267.495 295.461C262.995 295.464 259.342 291.805 259.342 287.296Z" fill="#D36E2A"/>
<path d="M259.342 287.296C259.342 282.786 262.992 279.127 267.495 279.127C271.998 279.127 275.648 282.783 275.648 287.296C275.648 291.805 271.998 295.461 267.495 295.461C262.995 295.464 259.342 291.805 259.342 287.296Z" fill="black"/>
<path d="M267.498 289.827C268.894 289.827 270.026 288.693 270.026 287.296C270.026 285.898 268.894 284.765 267.498 284.765C266.102 284.765 264.971 285.898 264.971 287.296C264.971 288.693 266.102 289.827 267.498 289.827Z" fill="#8F7A61"/>
<path d="M262.217 291.633C262.217 291.091 262.655 290.652 263.197 290.652C263.738 290.652 264.176 291.091 264.176 291.633C264.176 292.176 263.738 292.614 263.197 292.614C262.655 292.614 262.217 292.176 262.217 291.633Z" fill="#8F7A61"/>
<path d="M261.85 284.355C261.85 283.813 262.288 283.374 262.829 283.374C263.371 283.374 263.809 283.813 263.809 284.355C263.809 284.898 263.371 285.336 262.829 285.336C262.288 285.336 261.85 284.898 261.85 284.355Z" fill="#8F7A61"/>
<path d="M271.025 291.633C271.025 291.091 271.463 290.652 272.005 290.652C272.547 290.652 272.985 291.091 272.985 291.633C272.985 292.176 272.547 292.614 272.005 292.614C271.463 292.614 271.025 292.176 271.025 291.633Z" fill="#8F7A61"/>
<path d="M260.007 282.039C260.548 282.039 260.987 281.599 260.987 281.057C260.987 280.515 260.548 280.076 260.007 280.076C259.466 280.076 259.027 280.515 259.027 281.057C259.027 281.599 259.466 282.039 260.007 282.039Z" fill="#B65615"/>
<path d="M160.582 287.296C160.582 278.361 167.817 271.115 176.739 271.115C185.661 271.115 192.896 278.361 192.896 287.296C192.896 296.231 185.661 303.476 176.739 303.476C167.817 303.476 160.582 296.234 160.582 287.296Z" fill="#232323"/>
<path d="M130.654 199.928C130.654 199.928 139.421 186.685 149.556 186.574L148.651 200.903L130.654 199.928Z" fill="#578DDD"/>
<path d="M182.3 260.429H112.133L117.973 212.963C118.923 205.247 125.467 199.454 133.228 199.454H182.3V260.429Z" fill="#85B2EF"/>
<path d="M141.511 231.415H121.834L124.439 212.674C124.975 208.814 128.271 205.942 132.164 205.942H142.121L141.511 231.415Z" fill="#578DDD"/>
<path d="M140.058 230.005H127.103C125.147 230.005 123.641 228.279 123.898 226.34L125.617 213.373C126.071 209.948 128.858 207.398 132.151 207.398H140.574L140.058 230.005Z" fill="#DCE7F9"/>
<path d="M277.742 274.722H142.777L148.799 179.303H269.767L277.742 274.722Z" fill="#FFA412"/>
<path d="M272.459 271.102H147.734L153.299 182.922H265.088L271.064 254.399L272.459 271.102Z" fill="#FFB93E"/>
<path d="M154.946 260.429H112.133C108.363 260.679 108 262.547 108 262.547L104.34 280.281C104.34 280.888 104.895 281.382 105.576 281.382H116.341C117.022 281.382 117.512 280.882 117.801 280.252C117.801 280.252 119.459 278.201 120.568 277.47C123.352 275.631 126.373 274.429 130.837 274.429C136.327 274.429 141.174 276.177 144.094 278.848H154.953C156.263 278.848 157.334 278.162 157.334 277.324V261.95C157.331 261.115 156.257 260.429 154.946 260.429Z" fill="#578DDD"/>
<path d="M289.567 295.243H275.999C275.688 293.596 275.097 292.146 274.299 290.866C270.195 284.28 260.605 282.269 255.138 281.655C252.743 281.386 251.141 281.386 251.141 281.386H274.465C280.567 282.214 284.312 285.544 286.547 288.735C288.883 292.065 289.567 295.243 289.567 295.243Z" fill="#85B2EF"/>
<path d="M343.277 295.243H329.709C329.355 293.368 328.638 291.747 327.668 290.346C321.471 281.395 304.854 281.382 304.854 281.382H328.181C333.284 282.074 336.736 284.518 339.037 287.166C342.359 290.993 343.277 295.243 343.277 295.243Z" fill="#85B2EF"/>
<path d="M286.545 288.735C286.545 288.735 277.614 286.847 274.298 290.866C270.194 284.28 260.603 282.269 255.136 281.655C255.026 281.564 254.916 281.473 254.809 281.386H274.466C280.566 282.211 284.313 285.544 286.545 288.735Z" fill="#4F82CD"/>
<path d="M339.035 287.166C339.035 287.169 339.035 287.169 339.035 287.166C339.035 287.166 331.566 287 327.666 290.347C321.469 281.395 304.852 281.382 304.852 281.382H328.179C333.279 282.074 336.734 284.521 339.035 287.166Z" fill="#4F82CD"/>
<path d="M145.836 283.978H344.816C345.816 283.978 346.633 283.16 346.633 282.159V276.541C346.633 275.54 345.816 274.722 344.816 274.722H145.836C144.837 274.722 144.02 275.54 144.02 276.541V282.159C144.02 283.16 144.837 283.978 145.836 283.978Z" fill="#578DDD"/>
<path d="M191.148 297.546H154.344C153.38 297.546 152.592 296.757 152.592 295.792V278.803C152.592 277.838 153.38 277.048 154.344 277.048H191.148C192.112 277.048 192.9 277.838 192.9 278.803V295.792C192.9 296.757 192.112 297.546 191.148 297.546Z" fill="#578DDD"/>
<path d="M272.622 271.102H147.896L153.461 182.922H175.247C182.067 203.067 205.138 250.821 271.226 254.399L272.622 271.102Z" fill="#FFA412"/>
<path d="M113.409 222.23C113.409 222.23 111.654 231.668 111.741 233.208C111.829 234.748 113.279 235.499 114.382 235.499L113.409 222.23Z" fill="#85B2EF"/>
<path d="M118.737 235.499H114.474C113.851 235.499 113.342 234.989 113.342 234.365V222.577C113.342 221.953 113.851 221.443 114.474 221.443H118.737C119.36 221.443 119.87 221.953 119.87 222.577V234.365C119.87 234.989 119.36 235.499 118.737 235.499Z" fill="#578DDD"/>
<path d="M118.409 234.816H115.031C114.499 234.816 114.064 234.381 114.064 233.848V223.201C114.064 222.668 114.499 222.233 115.031 222.233H118.409C118.941 222.233 119.376 222.668 119.376 223.201V233.848C119.376 234.381 118.941 234.816 118.409 234.816Z" fill="#DCE7F9"/>
<path d="M116.604 221.697C116.484 221.697 116.387 221.583 116.387 221.44V217.473C116.387 217.463 116.387 217.45 116.39 217.44C116.393 217.418 116.662 215.16 119.034 215.231C121.205 215.299 122.139 215.231 122.149 215.231C122.269 215.221 122.373 215.329 122.379 215.471C122.386 215.614 122.295 215.735 122.175 215.744C122.136 215.748 121.211 215.813 119.021 215.744C117.11 215.686 116.844 217.307 116.821 217.489V221.44C116.821 221.583 116.724 221.697 116.604 221.697Z" fill="#578DDD"/>
<path d="M139.688 237.523H135.717C135.163 237.523 134.705 237.068 134.705 236.509C134.705 235.954 135.159 235.496 135.717 235.496H139.688C140.243 235.496 140.701 235.95 140.701 236.509C140.701 237.068 140.247 237.523 139.688 237.523Z" fill="#578DDD"/>
<path d="M298.584 274.722H315.926V257.355H298.584V274.722Z" fill="#E69D43"/>
<path d="M315.205 274.722H323.145V257.355H315.205V274.722Z" fill="#D57912"/>
<path d="M178.057 221.583C178.823 221.583 179.484 221.684 180.049 221.885C180.61 222.087 181.081 222.373 181.46 222.746C181.837 223.12 182.125 223.568 182.326 224.095C182.528 224.621 182.648 225.212 182.69 225.862C182.732 226.629 182.732 227.392 182.69 228.159C182.648 228.812 182.528 229.4 182.326 229.927C182.125 230.453 181.84 230.905 181.467 231.275C181.094 231.649 180.633 231.935 180.081 232.136C179.53 232.337 178.881 232.438 178.138 232.438H174.235C174.121 232.438 174.024 232.396 173.94 232.315C173.855 232.233 173.816 232.133 173.816 232.019V221.996C173.816 221.882 173.859 221.784 173.94 221.7C174.021 221.619 174.121 221.577 174.235 221.577H178.057V221.583ZM180.597 225.865C180.578 225.534 180.513 225.228 180.403 224.943C180.295 224.657 180.133 224.41 179.922 224.199C179.712 223.987 179.445 223.822 179.124 223.701C178.803 223.581 178.42 223.523 177.979 223.523H175.903V230.505H178.057C178.479 230.505 178.848 230.446 179.157 230.326C179.468 230.206 179.724 230.044 179.932 229.839C180.14 229.631 180.295 229.384 180.406 229.095C180.513 228.806 180.578 228.494 180.6 228.162C180.636 227.396 180.636 226.629 180.597 225.865Z" fill="white"/>
<path d="M191.937 230.505C192.05 230.505 192.148 230.547 192.232 230.628C192.313 230.713 192.355 230.81 192.355 230.924V232.026C192.355 232.139 192.313 232.237 192.232 232.321C192.148 232.402 192.05 232.445 191.937 232.445H185.133C185.02 232.445 184.922 232.402 184.838 232.321C184.754 232.24 184.715 232.139 184.715 232.026V222.002C184.715 221.888 184.757 221.791 184.838 221.706C184.919 221.625 185.02 221.583 185.133 221.583H191.81C191.924 221.583 192.021 221.625 192.106 221.706C192.187 221.788 192.229 221.888 192.229 222.002V223.104C192.229 223.217 192.187 223.315 192.106 223.399C192.024 223.48 191.924 223.523 191.81 223.523H186.804V225.989H191.466C191.58 225.989 191.677 226.031 191.762 226.112C191.843 226.193 191.885 226.294 191.885 226.408V227.509C191.885 227.623 191.843 227.721 191.762 227.805C191.677 227.889 191.58 227.928 191.466 227.928H186.804V230.505H191.937Z" fill="white"/>
<path d="M201.481 230.505C201.595 230.505 201.692 230.547 201.776 230.628C201.858 230.713 201.9 230.81 201.9 230.924V232.026C201.9 232.139 201.858 232.237 201.776 232.321C201.692 232.402 201.595 232.445 201.481 232.445H194.694C194.58 232.445 194.483 232.402 194.399 232.321C194.314 232.24 194.275 232.139 194.275 232.026V222.002C194.275 221.888 194.318 221.791 194.399 221.706C194.48 221.625 194.58 221.583 194.694 221.583H195.95C196.063 221.583 196.16 221.625 196.245 221.706C196.326 221.788 196.368 221.888 196.368 222.002V230.505H201.481Z" fill="white"/>
<path d="M203.807 232.445C203.694 232.445 203.596 232.402 203.512 232.321C203.428 232.24 203.389 232.139 203.389 232.026V222.002C203.389 221.888 203.431 221.791 203.512 221.706C203.593 221.625 203.694 221.583 203.807 221.583H205.063C205.176 221.583 205.274 221.625 205.358 221.706C205.439 221.788 205.481 221.888 205.481 222.002V232.026C205.481 232.139 205.439 232.237 205.358 232.321C205.277 232.402 205.176 232.445 205.063 232.445H203.807Z" fill="white"/>
<path d="M211.831 229.371L214.433 221.97C214.466 221.888 214.518 221.801 214.596 221.713C214.673 221.625 214.79 221.58 214.943 221.58H216.12C216.234 221.58 216.331 221.622 216.416 221.703C216.497 221.784 216.539 221.885 216.539 221.999C216.539 222.018 216.539 222.038 216.539 222.054C216.539 222.07 216.529 222.103 216.507 222.155L213.035 231.915C212.973 232.091 212.902 232.224 212.818 232.311C212.733 232.399 212.61 232.445 212.445 232.445H211.212C211.046 232.445 210.923 232.402 210.839 232.311C210.754 232.224 210.683 232.091 210.621 231.915L207.15 222.155C207.13 222.103 207.117 222.07 207.117 222.054C207.117 222.038 207.117 222.022 207.117 221.999C207.117 221.885 207.159 221.788 207.24 221.703C207.322 221.622 207.422 221.58 207.536 221.58H208.713C208.869 221.58 208.986 221.625 209.061 221.713C209.138 221.801 209.194 221.885 209.223 221.97L211.831 229.371Z" fill="white"/>
<path d="M225.406 230.505C225.52 230.505 225.617 230.547 225.702 230.628C225.783 230.713 225.825 230.81 225.825 230.924V232.026C225.825 232.139 225.783 232.237 225.702 232.321C225.617 232.402 225.52 232.445 225.406 232.445H218.606C218.492 232.445 218.395 232.402 218.311 232.321C218.226 232.24 218.188 232.139 218.188 232.026V222.002C218.188 221.888 218.23 221.791 218.311 221.706C218.392 221.625 218.492 221.583 218.606 221.583H225.283C225.397 221.583 225.494 221.625 225.578 221.706C225.659 221.788 225.702 221.888 225.702 222.002V223.104C225.702 223.217 225.659 223.315 225.578 223.399C225.494 223.48 225.397 223.523 225.283 223.523H220.28V225.989H224.942C225.056 225.989 225.153 226.031 225.238 226.112C225.319 226.193 225.361 226.294 225.361 226.408V227.509C225.361 227.623 225.319 227.721 225.238 227.805C225.156 227.889 225.056 227.928 224.942 227.928H220.28V230.505H225.406Z" fill="white"/>
<path d="M232.162 221.583C233.453 221.583 234.433 221.882 235.104 222.483C235.776 223.084 236.11 223.916 236.11 224.982C236.11 225.735 235.938 226.382 235.591 226.915C235.244 227.448 234.738 227.844 234.066 228.101L236.204 231.935C236.237 231.996 236.25 232.055 236.25 232.107C236.25 232.201 236.217 232.279 236.149 232.347C236.081 232.415 236.003 232.448 235.909 232.448H234.592C234.384 232.448 234.232 232.399 234.134 232.302C234.037 232.204 233.966 232.113 233.927 232.029L231.899 228.409H229.839V232.026C229.839 232.139 229.797 232.237 229.715 232.321C229.631 232.402 229.534 232.445 229.42 232.445H228.165C228.051 232.445 227.954 232.402 227.869 232.321C227.785 232.24 227.746 232.139 227.746 232.026V222.002C227.746 221.888 227.788 221.791 227.869 221.706C227.95 221.625 228.051 221.583 228.165 221.583H232.162ZM229.836 226.47H232.081C232.668 226.47 233.138 226.366 233.492 226.158C233.842 225.95 234.018 225.557 234.018 224.978C234.018 224.4 233.842 224.01 233.492 223.815C233.142 223.62 232.671 223.519 232.081 223.519H229.836V226.47Z" fill="white"/>
<path d="M245.967 221.583C246.08 221.583 246.177 221.625 246.262 221.706C246.343 221.788 246.385 221.888 246.385 222.002C246.385 222.054 246.375 222.1 246.353 222.142L242.68 228.611V232.026C242.68 232.139 242.638 232.237 242.557 232.321C242.472 232.402 242.375 232.445 242.261 232.445H241.022C240.909 232.445 240.811 232.402 240.727 232.321C240.646 232.24 240.604 232.139 240.604 232.026V228.611L236.931 222.142C236.911 222.1 236.898 222.054 236.898 222.002C236.898 221.888 236.941 221.791 237.022 221.706C237.103 221.625 237.203 221.583 237.317 221.583H238.478C238.686 221.583 238.839 221.635 238.942 221.739C239.046 221.843 239.108 221.921 239.127 221.973L241.639 226.362L244.15 221.973C244.169 221.921 244.231 221.843 244.335 221.739C244.438 221.635 244.594 221.583 244.799 221.583H245.967Z" fill="white"/>
<path d="M349.215 11.0428C324.204 11.0428 301.181 19.8348 283.126 34.5141C259.439 53.8396 244.365 83.1983 244.365 116.04C244.365 174.016 349.212 302.894 349.212 302.894C349.212 302.894 396.833 244.349 427.808 188.446C442.881 161.41 454.062 134.95 454.062 116.04C454.062 58.0699 407.105 11.0428 349.215 11.0428ZM349.215 163.977C322.134 163.977 300.185 142.085 300.185 114.965C300.185 108.327 301.509 102.027 303.913 96.2173C311.285 78.3864 328.759 65.8644 349.215 65.8644C376.296 65.8644 398.245 87.8412 398.245 114.961C398.245 138.433 381.847 157.924 359.899 162.732C356.502 163.564 352.859 163.977 349.215 163.977Z" fill="#85B2EF"/>
<path d="M427.808 188.446C396.834 244.346 349.216 302.898 349.216 302.898C349.216 302.898 244.369 174.017 244.369 116.043C244.369 83.2015 259.443 53.8396 283.13 34.5173C287.105 53.5115 293.564 75.2413 303.917 96.2206C301.516 102.027 300.189 108.33 300.189 114.968C300.189 142.088 322.134 163.98 349.219 163.98C352.862 163.98 356.506 163.567 359.903 162.736C378.201 175.261 400.562 184.466 427.808 188.446Z" fill="#578DDD"/>
<path d="M718.291 193.742C696.914 193.742 679.582 211.098 679.582 232.506C679.582 253.915 718.291 301.514 718.291 301.514C718.291 301.514 757 253.915 757 232.506C757 211.095 739.668 193.742 718.291 193.742ZM718.291 250.23C708.298 250.23 700.197 242.117 700.197 232.11C700.197 222.103 708.298 213.99 718.291 213.99C728.284 213.99 736.385 222.103 736.385 232.11C736.382 242.117 728.284 250.23 718.291 250.23Z" fill="#CD9E64"/>
<path d="M22.1756 242.257C9.92791 242.257 0 252.199 0 264.464C0 276.73 22.1756 303.996 22.1756 303.996C22.1756 303.996 44.3512 276.73 44.3512 264.464C44.3512 252.199 34.4232 242.257 22.1756 242.257ZM22.1756 274.621C16.4524 274.621 11.8097 269.975 11.8097 264.24C11.8097 258.509 16.4492 253.859 22.1756 253.859C27.8987 253.859 32.5415 258.506 32.5415 264.24C32.5415 269.972 27.8987 274.621 22.1756 274.621Z" fill="#85B2EF"/>
<path d="M255.49 302.979H229.908C230.174 302.059 231.037 300.48 233.866 300.019C237.815 299.376 244.657 297.079 246.182 292.023C246.231 291.861 246.276 291.692 246.312 291.523C247.522 286.119 256.334 293.176 256.334 293.176C256.334 293.176 256.36 293.394 256.399 293.761C256.603 295.74 257.119 302.069 255.49 302.979Z" fill="#CD9E64"/>
<path d="M234.914 158.437C234.914 158.437 236.254 175.157 237.824 195.256C239.962 222.558 242.532 256.095 242.788 262.45C243.226 273.484 244.991 291.13 244.991 291.13C244.991 291.13 249.173 295.321 257.547 293.557C257.547 293.557 265.009 268.363 267.141 241.711C267.173 241.276 267.206 240.834 267.241 240.395C269.224 213.262 272.306 156.124 272.306 156.124L234.914 158.437Z" fill="#232323"/>
<path d="M234.914 158.437C234.914 158.437 236.254 175.157 237.824 195.256L267.141 241.708C267.173 241.272 267.206 240.831 267.241 240.392C269.224 213.259 272.306 156.121 272.306 156.121L234.914 158.437Z" fill="black"/>
<path d="M241.023 160.422C241.023 160.422 265.146 220.979 281.004 249.437C296.866 277.896 301.82 285.837 301.82 285.837C301.82 285.837 310.908 282.198 311.732 279.715C311.732 279.715 305.668 224.777 295.046 211.384C289.044 203.817 281.994 181.106 281.663 173.165C281.332 165.224 279.515 149.505 279.515 149.505L241.023 160.422Z" fill="#232323"/>
<path d="M272.761 67.1023C272.761 67.1023 256.441 75.1113 247.029 72.1384C247.029 72.1384 249.346 69.1687 253.398 66.9561C253.074 65.0359 252.821 63.3691 252.675 61.9558C252.276 58.6937 252.276 56.845 252.276 56.845L258.573 51.8089L264.543 46.9873C264.075 60.5424 272.761 67.1023 272.761 67.1023Z" fill="#D4BF9E"/>
<path d="M281.362 152.605C281.398 153.619 279.263 154.779 278.322 155.214C271.337 158.33 264.825 160.504 257.441 161.231C248.72 162.138 238.406 160.143 234.86 160.218C234.496 160.218 234.172 160.071 233.883 159.818C233.63 159.636 233.449 148.947 233.63 135.502C233.63 134.959 233.63 134.413 233.666 133.871V133.689C233.737 128.435 233.919 122.925 234.172 117.418C234.678 105.311 235.619 93.644 237.212 87.1914C239.13 79.582 243.474 74.5427 247.416 70.8842L250.673 67.9861C253.931 68.6391 257.366 68.4572 260.805 66.7547C264.569 64.9059 268.686 62.833 269.338 63.3399C274.26 67.0016 277.524 75.3062 279.299 85.817C280.311 91.87 280.817 98.6476 280.781 105.75C280.781 108.359 280.71 111.043 280.564 113.688C279.695 128.039 280.564 140.506 281.07 147.718C281.219 149.814 281.326 151.445 281.362 152.605Z" fill="#FFB93E"/>
<path d="M281.074 147.712C202.004 147.605 266.49 88.6762 266.49 88.6762L279.302 85.8138C280.315 91.8668 280.821 98.6444 280.785 105.747C280.785 108.356 280.714 111.04 280.568 113.684C279.698 128.032 280.568 140.499 281.074 147.712Z" fill="#FFA412"/>
<path d="M183.799 147.327H232.965V98.0904H183.799V147.327Z" fill="#8F7A61"/>
<path d="M230.918 147.327H253.428V98.0904H230.918V147.327Z" fill="#7B6750"/>
<path d="M225.578 123.435L222.652 122.496C222.652 122.496 220.604 115.709 213.681 118.746C213.681 118.746 210.871 120.238 212.107 122.005C213.347 123.773 213.119 122.84 214.81 125.384C216.503 127.928 219.18 129.137 221.315 128.175L223.748 128.247L225.578 123.435Z" fill="#D4BF9E"/>
<path d="M272.767 67.0828C272.767 67.0828 290.673 95.6032 271.599 128.559C265.646 138.845 220.672 129.069 220.672 129.069C220.672 129.069 218.92 125.898 223.611 122.558C223.611 122.558 253.554 117.483 257.123 116.631C260.289 115.877 258.177 86.7332 261.798 78.2759C265.416 69.8185 272.767 67.0828 272.767 67.0828Z" fill="#FFB93E"/>
<path d="M264.657 52.1696C264.657 52.1696 260.53 59.8146 252.678 61.9525C252.279 58.6905 252.279 56.8417 252.279 56.8417L258.577 51.8057L264.657 52.1696Z" fill="#C9B28E"/>
<path d="M249.409 56.624C249.409 56.624 264.979 59.2136 266.439 49.4793C267.899 39.7451 270.893 33.5231 261.014 31.4567C251.135 29.3903 248.64 32.8148 247.365 35.9437C246.892 37.1046 246.5 40.1187 246.397 43.5C246.372 44.3188 245.201 46.9453 245.213 47.7861C245.222 48.3838 246.471 47.9095 246.501 48.5C246.724 52.9035 247.501 56.1835 249.409 56.624Z" fill="#D4BF9E"/>
<path d="M250.269 41.8922C249.983 41.5997 249.989 41.1301 250.282 40.8449C250.575 40.559 251.043 40.5657 251.329 40.8583C251.615 41.1516 251.609 41.6197 251.316 41.9056C251.023 42.1915 250.555 42.1855 250.269 41.8922Z" fill="#263238"/>
<path d="M251.574 40.807C251.489 40.8899 251.013 40.4751 250.312 40.4285C249.612 40.3714 249.08 40.7129 249.008 40.6173C248.972 40.5751 249.062 40.4211 249.294 40.2655C249.522 40.1107 249.907 39.9722 250.344 40.0048C250.78 40.0374 251.14 40.2307 251.343 40.4166C251.55 40.6047 251.615 40.7707 251.574 40.807Z" fill="#263238"/>
<path d="M246.849 48.1214C246.85 48.0681 246.411 48.0088 245.7 47.9555C245.516 47.9473 245.366 47.9155 245.345 47.814C245.303 47.7022 245.363 47.5007 245.442 47.277C245.594 46.8037 245.748 46.3223 245.908 45.8179C246.549 43.7403 246.985 42.0323 246.884 42.0005C246.782 41.9686 246.18 43.627 245.539 45.7038C245.388 46.2112 245.244 46.6956 245.102 47.1719C245.048 47.3881 244.937 47.6429 245.048 47.9362C245.108 48.0829 245.257 48.1821 245.379 48.2066C245.501 48.2355 245.605 48.2295 245.693 48.2281C246.406 48.2118 246.847 48.1747 246.849 48.1214Z" fill="#263238"/>
<path d="M266.337 50.1519C266.337 50.1519 266.023 37.1133 251.838 35.0177C242.121 33.5848 242.929 26.5343 244.042 25.2477C244.042 25.2477 256.601 25.3517 264.147 27.2556C275.561 30.1376 268.024 48.2122 266.337 50.1519Z" fill="#263238"/>
<path d="M311.736 281.756L310.98 280.781L302.408 285.593C302.327 287.234 302.285 289.135 302.376 290.798C302.437 291.926 302.372 293.079 302.171 294.171C301.993 295.022 301.084 298.658 298.43 299.613C295.416 300.695 295.173 303.015 300.319 302.979C301.24 302.972 302.145 302.969 303.005 302.966C306.217 302.956 308.959 300.77 309.831 297.676C310.175 296.461 310.811 295.093 311.914 293.638C313.264 292.055 314.857 290.658 315.373 288.923C316.255 285.947 311.736 281.756 311.736 281.756Z" fill="#CD9E64"/>
<path d="M408.553 219.893L410.243 218.516L387.578 188.852L379.398 188.511L408.553 219.893Z" fill="#232323"/>
<path d="M438.164 219.893L439.562 218.516L420.813 188.852L414.045 188.511L438.164 219.893Z" fill="#232323"/>
<path d="M576.557 142.588C576.557 136.958 572.109 132.396 566.619 132.396C561.13 132.396 556.682 136.961 556.682 142.588C556.682 148.219 561.13 152.781 566.619 152.781C572.106 152.781 576.557 148.216 576.557 142.588Z" fill="#CD9E64"/>
<path d="M450.475 279.995H551.535C552.632 279.995 553.53 279.088 553.53 277.981V268.415C553.53 267.307 552.632 266.401 551.535 266.401H462.265C461.168 266.401 460.27 267.307 460.27 268.415L450.475 279.995Z" fill="#232323"/>
<path d="M449.584 272.503C449.584 255.799 436.061 242.257 419.382 242.257C402.702 242.257 389.18 255.799 389.18 272.503C389.18 289.206 402.702 302.748 419.382 302.748C436.061 302.748 449.584 289.209 449.584 272.503Z" fill="#232323"/>
<path d="M434.778 272.506C434.778 263.99 427.883 257.089 419.383 257.089C410.879 257.089 403.988 263.993 403.988 272.506C403.988 281.022 410.883 287.923 419.383 287.923C427.887 287.923 434.778 281.022 434.778 272.506Z" fill="#CD9E64"/>
<path d="M574.625 229.813C578.891 228.452 583.43 227.721 588.134 227.721C591.457 227.721 594.701 228.088 597.816 228.78C615.702 232.747 629.592 247.481 632.349 265.809C632.878 269.335 630.14 272.503 626.577 272.503H626.38C624.462 272.503 622.876 271.034 622.694 269.12C620.991 251.523 606.138 237.721 588.131 237.721C582.752 237.721 577.655 238.953 573.106 241.146C561.459 246.767 553.4 258.71 553.4 272.499H543.41C543.413 252.524 556.547 235.557 574.625 229.813Z" fill="#232323"/>
<path d="M528.281 266.401L543.416 272.503C553.896 252.095 564.596 242.081 573.752 237.143C590.217 228.253 601.68 235.781 597.819 228.78L569.573 169.094C566.925 165.41 563.477 162.612 559.619 160.783C555.424 158.798 550.752 157.963 546.109 158.388C540.72 158.886 537.197 164.331 538.913 169.474C542.612 180.547 544.033 191.682 544.033 202.251C544.03 237.435 528.281 266.401 528.281 266.401Z" fill="#232323"/>
<path d="M543.709 165.296L555.107 160.936C556.658 160.936 559.617 162.339 559.617 160.786L557.926 132.909C557.926 131.356 556.658 130.086 555.107 130.086H547.758C546.207 130.086 539.988 133.065 540.429 138.641L538.473 166.742C538.476 168.295 542.158 165.296 543.709 165.296Z" fill="#232323"/>
<path d="M349.556 189.891H425.472C427.668 189.891 429.466 188.092 429.466 185.889V183.143C429.466 180.944 427.668 179.14 425.472 179.14H349.556C347.359 179.14 345.559 180.94 345.559 183.143V185.889C345.562 188.092 347.359 189.891 349.556 189.891Z" fill="#232323"/>
<path d="M589.377 302.687C606.043 301.992 618.99 287.899 618.296 271.21C617.602 254.521 603.53 241.555 586.864 242.25C570.199 242.945 557.252 257.037 557.946 273.727C558.64 290.416 572.712 303.382 589.377 302.687Z" fill="#232323"/>
<path d="M572.734 272.506C572.734 275.102 573.377 277.552 574.509 279.696C574.584 279.836 574.658 279.972 574.739 280.109C577.38 284.778 582.386 287.926 588.129 287.926C596.633 287.926 603.527 281.025 603.527 272.506C603.527 266.089 599.614 260.591 594.047 258.275C593.992 258.249 593.93 258.226 593.872 258.2C592.097 257.482 590.16 257.089 588.132 257.089C579.629 257.089 572.734 263.99 572.734 272.506Z" fill="#CD9E64"/>
<path d="M477.509 211.582C477.509 211.582 469.71 242.549 496.015 271.102L431.328 266.401L439.562 203.895L477.509 211.582Z" fill="#232323"/>
<path d="M358.5 275.995C358.5 277.097 358.948 278.097 359.674 278.822C360.398 279.547 361.397 279.995 362.494 279.995H459.382C461.578 279.995 463.379 278.195 463.379 275.992L462.094 212.531L429.468 210.53C386.006 210.533 358.5 232.474 358.5 275.995Z" fill="#232323"/>
<path d="M556.68 142.007C556.68 142.991 556.771 143.95 556.942 144.885C558.292 152.153 564.661 157.657 572.311 157.657V126.359C563.681 126.359 556.68 133.364 556.68 142.007Z" fill="#3D3B3B"/>
<path d="M532.012 144.122C532.074 144.122 532.719 143.995 532.781 143.982L549.973 139.206C550.655 139.073 551.128 138.225 551.028 137.315C550.927 136.405 550.294 135.772 549.61 135.908L532.376 139.277C531.694 139.411 531.149 140.447 530.987 141.344C530.721 142.842 531.402 144.122 532.012 144.122Z" fill="#8F7A61"/>
<path d="M573.561 238.352C573.405 239.316 573.256 240.249 573.11 241.149C573.152 241.129 573.198 241.107 573.243 241.084C577.759 238.93 582.811 237.721 588.135 237.721C606.141 237.721 620.994 251.523 622.698 269.12C622.879 271.034 624.466 272.503 626.383 272.503H626.581C630.14 272.503 632.882 269.335 632.353 265.809C629.605 247.54 615.8 232.848 598.001 228.822C597.943 228.806 597.881 228.793 597.823 228.78L569.577 169.094C566.929 165.41 563.481 162.612 559.623 160.783C564.438 168.896 577.72 194.843 574.632 229.81C574.418 232.211 574.129 234.654 573.756 237.143C573.688 237.546 573.626 237.949 573.561 238.352Z" fill="#232323"/>
<path d="M412.627 199.184V208.609C412.627 210.244 413.964 211.582 415.596 211.582H477.509C479.141 211.582 480.481 210.24 480.481 208.609V199.184C480.481 197.546 479.141 196.208 477.509 196.208H415.596C413.96 196.208 412.627 197.546 412.627 199.184Z" fill="#FFB93E"/>
<path d="M366.174 279.998H459.383C459.383 279.998 465.07 245.438 444.092 233.767C439.04 230.957 432.694 229.988 425.777 230.664C403.984 232.802 376.54 251.296 366.174 279.998Z" fill="#232323"/>
<path d="M556.941 144.885C558.291 152.153 564.66 157.657 572.31 157.657V148.924C567.716 149.109 561.101 148.609 556.941 144.885Z" fill="#232323"/>
<path d="M432.225 211.586H477.51C479.142 211.586 480.482 210.244 480.482 208.613V199.187C480.482 197.55 479.142 196.211 477.51 196.211H446.487C443.791 200.019 438.723 206.481 432.225 211.586Z" fill="#FFA412"/>
<path d="M366.174 279.998H404.886C428.252 268.123 426.822 239.476 425.777 230.664C403.984 232.802 376.54 251.296 366.174 279.998Z" fill="#3D3B3B"/>
<path opacity="0.2" d="M574.74 280.105C577.381 284.774 582.387 287.923 588.13 287.923C596.634 287.923 603.528 281.022 603.528 272.503C603.528 266.086 599.615 260.588 594.048 258.272C592.708 264.945 588.399 277.308 574.74 280.105Z" fill="#232323"/>
<path d="M573.56 238.352C573.405 239.316 573.255 240.249 573.109 241.149C573.152 241.129 573.197 241.107 573.242 241.084C578.82 235.918 590.603 231.343 597.997 228.822C597.939 228.806 597.877 228.793 597.819 228.78L569.573 169.094C566.926 165.41 563.477 162.612 559.619 160.783C564.434 168.896 577.717 194.843 574.628 229.81C574.414 232.211 574.125 234.654 573.752 237.143C573.687 237.546 573.625 237.949 573.56 238.352Z" fill="#3D3B3B"/>
<path d="M423.233 139.297H374.979V179.14H423.233V139.297Z" fill="#FFA412"/>
<path d="M399.104 139.297H350.854V179.14H399.104V139.297Z" fill="#FFB93E"/>
<path d="M423.204 169.036H415.561L416.232 166.882L415.561 165.341H423.204V169.036Z" fill="#F1A34F"/>
<path opacity="0.4" d="M350.854 148.235H358.501L357.826 146.081L358.501 144.541H350.854V148.235Z" fill="#D86713"/>
<path d="M350.854 172.733H358.501L357.826 170.576L358.501 169.036H350.854V172.733Z" fill="#F1A34F"/>
<path d="M472.127 103.19C463.785 106.582 448.533 99.3299 448.533 99.3299C448.533 99.3299 453.595 94.843 454.561 86.3434C454.61 85.9145 454.649 85.4791 454.675 85.0307C455.554 84.7188 457.212 84.1275 458.987 83.4939L466.377 88.5333C466.377 88.5333 466.556 91.0123 466.293 95.3466C466.248 96.1036 466.189 96.9159 466.111 97.7834C469.946 99.5086 472.127 103.19 472.127 103.19Z" fill="#D4BF9E"/>
<path d="M466.377 88.5333C466.377 88.5333 466.556 91.0123 466.293 95.3466C459.571 94.1217 455.869 88.686 454.564 86.3434C454.613 85.9145 454.652 85.4791 454.678 85.0307C455.557 84.7188 457.215 84.1275 458.99 83.4939L466.377 88.5333Z" fill="#C9B28E"/>
<path d="M467.74 92.143C467.74 92.143 453.374 91.6751 453.802 82.7174C454.231 73.7629 452.667 67.6709 461.858 67.5897C471.05 67.5117 472.665 71.0142 473.249 74.0359C473.83 77.0607 471.488 92.0325 467.74 92.143Z" fill="#D4BF9E"/>
<path d="M471.921 79.8922C471.636 79.5997 471.642 79.1301 471.934 78.8449C472.227 78.559 472.696 78.5657 472.982 78.8582C473.268 79.1516 473.261 79.6197 472.968 79.9056C472.676 80.1915 472.207 80.1855 471.921 79.8922Z" fill="#263238"/>
<path d="M473.226 78.807C473.141 78.8899 472.665 78.4751 471.964 78.4285C471.264 78.3714 470.732 78.7129 470.66 78.6173C470.624 78.5751 470.714 78.4211 470.947 78.2655C471.175 78.1107 471.559 77.9722 471.996 78.0048C472.432 78.0374 472.792 78.2307 472.995 78.4166C473.202 78.6047 473.267 78.7707 473.226 78.807Z" fill="#263238"/>
<path d="M465.112 78.9197C465.447 79.1552 465.527 79.6174 465.292 79.9522C465.056 80.287 464.595 80.367 464.26 80.1314C463.925 79.8966 463.845 79.4345 464.08 79.0997C464.316 78.7649 464.778 78.6849 465.112 78.9197Z" fill="#263238"/>
<path d="M465.574 78.9544C465.489 79.0373 465.013 78.6226 464.312 78.5759C463.611 78.5189 463.079 78.8603 463.008 78.7655C462.972 78.7226 463.062 78.5685 463.294 78.4137C463.522 78.2596 463.907 78.1204 464.344 78.153C464.78 78.1848 465.14 78.3789 465.343 78.5655C465.55 78.7522 465.615 78.9181 465.574 78.9544Z" fill="#263238"/>
<path d="M468.028 84.9122C468.026 84.8588 468.466 84.7996 469.177 84.7463C469.361 84.7381 469.511 84.7063 469.532 84.6048C469.574 84.4929 469.514 84.2915 469.435 84.0678C469.283 83.5945 469.129 83.1131 468.969 82.6087C468.328 80.5311 467.892 78.8231 467.993 78.7912C468.095 78.7594 468.697 80.4177 469.337 82.4946C469.489 83.002 469.633 83.4864 469.774 83.9626C469.829 84.1789 469.94 84.4337 469.829 84.727C469.769 84.8737 469.62 84.9729 469.498 84.9973C469.376 85.0262 469.272 85.0203 469.184 85.0188C468.471 85.0025 468.029 84.9655 468.028 84.9122Z" fill="#263238"/>
<path d="M465.703 85.546C464.998 85.066 467.648 86.7385 469.08 86.757C469.08 86.757 468.18 88.0147 466.746 87.3873C465.256 86.7355 465.703 85.546 465.703 85.546Z" fill="white"/>
<path d="M454.562 86.3434C454.562 86.3434 454.001 83.364 455.619 81.4015C455.619 81.4015 454.575 78.4806 455.697 77.8243C456.82 77.1712 457.404 79.6633 457.897 79.1954C458.39 78.7275 460.564 76.5182 461.232 73.6037C461.901 70.6893 471.864 72.7785 473.039 73.1294C474.213 73.4803 466.43 58.9309 458.02 62.3782C449.614 65.8254 448.981 70.1467 449.951 73.6492C450.922 77.1485 450.834 85.6221 454.562 86.3434Z" fill="#263238"/>
<path d="M440.818 171.817C440.818 171.817 441.814 189.391 445.812 194.398C449.809 199.405 526.393 197.462 526.393 197.462C526.393 197.462 526.727 186.194 523.729 183.296C520.732 180.398 506.748 172.074 462.095 167.356L440.818 171.817Z" fill="#232323"/>
<path d="M439.796 135.031C441.045 150.126 439.4 173.087 440.818 177.067C442.041 180.498 455.969 178.458 461.527 177.314C463.584 176.889 466.079 176.284 468.651 175.566C475.831 173.568 483.657 170.715 484.494 168.594C484.526 168.509 484.555 168.431 484.572 168.35C484.653 168.045 484.637 167.752 484.559 167.463C484.351 166.664 483.705 165.816 483.332 164.344C483.203 163.827 483.105 163.233 483.073 162.538C482.943 159.802 482.949 156.624 482.855 153.203C482.846 152.891 482.836 152.573 482.826 152.254C482.82 151.829 482.813 151.364 482.761 150.942L482.758 150.786C482.758 150.704 482.755 150.626 482.752 150.545C482.632 146.328 482.385 141.896 482.103 137.497C482.012 136.126 481.915 134.761 481.811 133.416C481.778 132.938 481.736 132.467 481.7 131.996C481.626 131.116 481.554 130.242 481.473 129.381C480.847 122.619 480 116.602 478.887 112.801C477.061 106.601 473.038 102.56 469.375 99.5996L466.724 97.5559C463.769 98.1375 460.271 97.7509 457.108 96.4058C453.688 94.9404 452.507 93.8942 451.91 94.2906C444.007 99.7751 438.323 116.576 439.796 135.031Z" fill="#CD9E64"/>
<path d="M498.836 255.286C498.836 255.286 499.514 266.225 501.626 266.381C501.908 266.401 512.346 266.401 512.346 266.401L525.671 266.323C525.671 266.323 525.583 263.106 521.69 262.427C517.793 261.748 511.275 259.006 508.916 253.85C506.431 248.43 498.836 255.286 498.836 255.286Z" fill="#FFB93E"/>
<path d="M496.052 255.997C496.052 255.997 498.628 257.982 503.877 258.236C505.23 258.301 506.466 258.229 507.553 258.09C510.447 257.722 512.254 256.884 512.254 256.884L526.393 197.462C526.393 197.462 511.077 184.059 503.086 192.393C502.044 193.482 501.155 195.363 500.396 197.822C495.325 214.204 496.052 255.997 496.052 255.997Z" fill="#232323"/>
<path d="M462.094 123.558C462.094 123.558 472.009 159.915 483.335 164.347C483.205 163.831 483.108 163.236 483.075 162.541C482.945 159.805 482.952 156.627 482.858 153.206C482.848 152.894 482.838 152.576 482.829 152.257C482.822 151.832 482.816 151.367 482.764 150.945L482.761 150.789C482.761 150.708 482.757 150.63 482.754 150.548C482.634 146.331 482.387 141.899 482.105 137.5C482.014 136.129 481.917 134.764 481.813 133.419C476.827 127.386 470.062 123.051 462.094 123.558Z" fill="#8F7A61"/>
<path d="M521.576 137.562C521.576 137.562 525.894 137.897 527.003 137.562C528.113 137.227 533.33 134.115 535.218 134.784C537.107 135.45 541.879 140.343 540.656 142.565C540.656 142.565 538.437 142.621 536.383 140.509C534.329 138.397 532.11 139.843 532.331 140.119C532.551 140.395 535.773 141.675 535.215 142.231C534.66 142.786 530.443 142.676 529.443 142.01C528.444 141.344 521.008 142.176 521.008 142.176L521.576 137.562Z" fill="#D4BF9E"/>
<path d="M462.094 104.382C462.094 104.382 488.948 127.305 496.015 129.517C503.084 131.727 528.056 136.587 528.056 136.587C528.056 136.587 528.744 142.507 526.402 144.733C526.402 144.733 494.314 142.871 490.317 142.023C486.32 141.175 456.549 125.725 454.119 124.559C451.693 123.389 452.072 102.495 462.094 104.382Z" fill="#CD9E64"/>
<path d="M496.052 255.997C496.052 255.997 498.628 257.982 503.877 258.236C505.23 258.301 506.466 258.229 507.553 258.09C499.488 247.875 500.393 197.822 500.393 197.822C495.325 214.204 496.052 255.997 496.052 255.997Z" fill="black"/>
<path d="M447.832 74.2406V74.377C447.832 74.7539 448.004 75.0788 448.251 75.2153C448.335 75.2608 448.423 75.29 448.513 75.29H482.557C482.933 75.29 483.238 74.8806 483.238 74.3803V74.2438C483.238 73.7434 482.933 73.3341 482.557 73.3341L474.955 72.3561C474.245 66.6994 470.494 62.0858 465.537 60.4937C465.537 60.4937 465.534 60.4937 465.53 60.4937C464.32 60.1038 463.042 59.8959 461.721 59.8959C454.736 59.8959 449.013 65.676 448.416 73.0416C448.41 73.1294 448.403 73.2106 448.397 73.2983C448.309 73.3633 448.26 73.4023 448.254 73.4055C448.004 73.5387 447.832 73.8669 447.832 74.2406Z" fill="#CD9E64"/>
<path d="M459.337 73.0384C456.8 59.5937 465.248 60.458 465.53 60.4905C464.32 60.1006 463.042 59.8926 461.721 59.8926C454.736 59.8926 449.013 65.6727 448.416 73.0384H459.337Z" fill="#8F7A61"/>
<path d="M426.257 31.9668C425.871 31.9668 425.495 31.7719 425.284 31.4145C424.96 30.8751 425.135 30.1766 425.673 29.8549C425.696 29.8387 426.28 29.491 427.393 28.8672C427.941 28.5618 428.632 28.7567 428.937 29.3058C429.242 29.8549 429.048 30.547 428.499 30.8524C427.422 31.4534 426.848 31.7978 426.845 31.8011C426.66 31.9148 426.455 31.9668 426.257 31.9668Z" fill="#8F7A61"/>
<path d="M718.489 174.273C718.486 174.273 718.485 174.273 718.482 174.273C717.856 174.27 717.35 173.757 717.353 173.129C717.353 172.892 717.356 172.649 717.356 172.398C717.356 171.362 717.343 170.296 717.317 169.227C717.304 168.6 717.801 168.077 718.427 168.064C719.047 168.048 719.576 168.548 719.589 169.175C719.615 170.261 719.628 171.346 719.628 172.398C719.628 172.652 719.628 172.902 719.624 173.143C719.621 173.77 719.115 174.273 718.489 174.273ZM718.314 166.401C717.71 166.401 717.21 165.926 717.181 165.319C717.12 164.032 717.038 162.716 716.944 161.413C716.899 160.786 717.369 160.244 717.996 160.198C718.622 160.153 719.164 160.624 719.209 161.251C719.303 162.573 719.384 163.905 719.449 165.211C719.478 165.839 718.995 166.371 718.369 166.404C718.349 166.401 718.33 166.401 718.314 166.401ZM717.746 158.544C717.168 158.544 716.672 158.103 716.617 157.514C716.493 156.225 716.354 154.915 716.201 153.625C716.127 153.001 716.575 152.436 717.197 152.361C717.82 152.287 718.385 152.735 718.46 153.359C718.612 154.668 718.755 155.994 718.878 157.3C718.936 157.924 718.479 158.479 717.856 158.541C717.817 158.541 717.781 158.544 717.746 158.544ZM716.824 150.724C716.266 150.724 715.78 150.314 715.702 149.746C715.52 148.459 715.325 147.156 715.118 145.879C715.017 145.259 715.439 144.674 716.055 144.573C716.675 144.476 717.259 144.895 717.36 145.512C717.571 146.805 717.768 148.125 717.95 149.427C718.038 150.048 717.603 150.623 716.983 150.711C716.931 150.721 716.879 150.724 716.824 150.724ZM715.566 142.952C715.027 142.952 714.55 142.569 714.449 142.02C714.216 140.746 713.963 139.456 713.7 138.182C713.573 137.568 713.966 136.964 714.582 136.837C715.199 136.711 715.799 137.107 715.926 137.721C716.192 139.011 716.448 140.32 716.685 141.607C716.798 142.224 716.39 142.819 715.773 142.933C715.705 142.946 715.634 142.952 715.566 142.952ZM713.973 135.245C713.457 135.245 712.986 134.888 712.866 134.361C712.574 133.094 712.266 131.817 711.951 130.56C711.799 129.952 712.165 129.332 712.775 129.179C713.382 129.027 714.002 129.394 714.154 130.004C714.475 131.278 714.787 132.571 715.082 133.855C715.222 134.465 714.842 135.076 714.229 135.219C714.141 135.239 714.057 135.245 713.973 135.245ZM712.045 127.616C711.546 127.616 711.091 127.285 710.952 126.781C710.605 125.527 710.241 124.263 709.872 123.025C709.69 122.424 710.031 121.791 710.631 121.609C711.231 121.427 711.864 121.768 712.045 122.369C712.422 123.623 712.792 124.903 713.142 126.174C713.307 126.778 712.954 127.405 712.35 127.574C712.246 127.603 712.146 127.616 712.045 127.616ZM709.784 120.082C709.307 120.082 708.859 119.776 708.704 119.296C708.304 118.061 707.883 116.816 707.454 115.592C707.247 115 707.558 114.35 708.152 114.142C708.742 113.935 709.391 114.246 709.599 114.841C710.034 116.082 710.459 117.343 710.864 118.594C711.059 119.192 710.731 119.832 710.134 120.027C710.021 120.066 709.901 120.082 709.784 120.082ZM707.188 112.658C706.728 112.658 706.296 112.375 706.124 111.92C705.67 110.708 705.193 109.483 704.71 108.278C704.476 107.696 704.758 107.034 705.339 106.8C705.92 106.566 706.582 106.848 706.815 107.43C707.305 108.648 707.789 109.889 708.249 111.121C708.47 111.709 708.171 112.365 707.584 112.586C707.454 112.635 707.321 112.658 707.188 112.658ZM704.255 105.357C703.814 105.357 703.396 105.1 703.211 104.668C702.698 103.473 702.166 102.27 701.628 101.097C701.368 100.526 701.618 99.853 702.189 99.5899C702.76 99.3299 703.431 99.5801 703.694 100.152C704.236 101.341 704.778 102.56 705.297 103.771C705.543 104.35 705.277 105.016 704.703 105.266C704.557 105.328 704.405 105.357 704.255 105.357ZM700.988 98.2058C700.567 98.2058 700.164 97.9718 699.966 97.5657C699.402 96.4025 698.815 95.2264 698.218 94.0729C697.929 93.5141 698.149 92.8285 698.704 92.5394C699.259 92.2502 699.947 92.4711 700.236 93.0267C700.839 94.1964 701.436 95.3888 702.007 96.5682C702.283 97.1336 702.046 97.8126 701.482 98.0888C701.323 98.17 701.154 98.2058 700.988 98.2058ZM697.384 91.2202C696.981 91.2202 696.592 91.0058 696.388 90.6289C695.765 89.4885 695.119 88.3416 694.474 87.2271C694.159 86.6845 694.344 85.9892 694.886 85.6741C695.427 85.3589 696.125 85.5441 696.436 86.0867C697.092 87.2206 697.744 88.3805 698.377 89.5372C698.678 90.0896 698.477 90.7784 697.926 91.0805C697.754 91.1747 697.569 91.2202 697.384 91.2202ZM693.448 84.4134C693.065 84.4134 692.692 84.2217 692.478 83.8708C691.803 82.7694 691.106 81.6582 690.402 80.5665C690.061 80.0402 690.214 79.3351 690.739 78.994C691.265 78.6528 691.969 78.8055 692.31 79.3319C693.023 80.4365 693.731 81.5672 694.415 82.6849C694.743 83.221 694.574 83.9196 694.039 84.2477C693.854 84.3582 693.65 84.4134 693.448 84.4134ZM689.185 77.808C688.822 77.808 688.465 77.6358 688.248 77.3109C687.518 76.2387 686.765 75.1633 686.012 74.1138C685.645 73.6037 685.762 72.8922 686.272 72.5283C686.781 72.1611 687.492 72.2781 687.855 72.7882C688.617 73.8507 689.38 74.9424 690.123 76.0308C690.476 76.5507 690.343 77.2589 689.824 77.6098C689.626 77.7431 689.406 77.808 689.185 77.808ZM684.604 71.4236C684.26 71.4236 683.919 71.2676 683.699 70.972C682.92 69.942 682.116 68.9056 681.308 67.8886C680.918 67.398 680.999 66.6832 681.489 66.2901C681.979 65.9002 682.693 65.9814 683.086 66.472C683.906 67.502 684.721 68.5547 685.509 69.6009C685.889 70.1012 685.788 70.816 685.289 71.1929C685.081 71.3456 684.841 71.4236 684.604 71.4236ZM679.711 65.2699C679.387 65.2699 679.066 65.1301 678.842 64.8637C678.015 63.8727 677.161 62.8785 676.302 61.9006C675.886 61.4294 675.932 60.7114 676.402 60.2955C676.873 59.8796 677.59 59.9284 678.005 60.3995C678.874 61.3904 679.741 62.4009 680.581 63.4049C680.983 63.8857 680.922 64.6038 680.438 65.0067C680.227 65.1854 679.968 65.2699 679.711 65.2699ZM674.524 59.3695C674.219 59.3695 673.914 59.2461 673.69 59.0056C672.814 58.0569 671.912 57.1049 671.01 56.1724C670.572 55.7208 670.585 55.0028 671.033 54.5641C671.484 54.1255 672.201 54.1353 672.639 54.5869C673.557 55.5324 674.472 56.5006 675.357 57.4623C675.782 57.9237 675.756 58.6417 675.296 59.0706C675.075 59.2688 674.799 59.3695 674.524 59.3695ZM669.053 53.7291C668.768 53.7291 668.479 53.6219 668.259 53.4042C667.34 52.501 666.393 51.5912 665.443 50.7042C664.985 50.2754 664.959 49.5573 665.387 49.0959C665.816 48.6378 666.536 48.6118 666.993 49.0407C667.954 49.9407 668.914 50.8634 669.848 51.7797C670.296 52.2183 670.303 52.9396 669.865 53.388C669.641 53.6154 669.349 53.7291 669.053 53.7291ZM663.317 48.3584C663.048 48.3584 662.779 48.2642 662.561 48.0692C661.595 47.205 660.605 46.344 659.619 45.5057C659.142 45.0996 659.083 44.3815 659.489 43.9039C659.895 43.4263 660.612 43.3678 661.088 43.7739C662.088 44.622 663.09 45.496 664.07 46.3732C664.537 46.7923 664.579 47.5104 664.164 47.9783C663.94 48.2317 663.632 48.3584 663.317 48.3584ZM657.335 43.2703C657.085 43.2703 656.832 43.1891 656.621 43.0169C655.622 42.2046 654.59 41.3891 653.561 40.5931C653.065 40.2097 652.974 39.4949 653.357 38.9978C653.74 38.5007 654.454 38.4097 654.95 38.7931C655.991 39.5989 657.036 40.4242 658.048 41.2494C658.535 41.6458 658.61 42.3606 658.217 42.848C657.993 43.1274 657.666 43.2703 657.335 43.2703ZM651.122 38.465C650.888 38.465 650.651 38.3935 650.45 38.244C649.409 37.4772 648.344 36.7105 647.283 35.9632C646.771 35.6025 646.648 34.8942 647.008 34.3776C647.368 33.8643 648.075 33.7408 648.591 34.1014C649.665 34.8585 650.745 35.635 651.8 36.4115C652.306 36.7852 652.413 37.4967 652.04 38.0003C651.813 38.3025 651.469 38.465 651.122 38.465ZM644.698 33.9455C644.48 33.9455 644.26 33.8838 644.065 33.7538C642.991 33.0325 641.894 32.3145 640.801 31.6159C640.272 31.278 640.117 30.573 640.457 30.0466C640.795 29.517 641.499 29.361 642.024 29.7022C643.131 30.4105 644.24 31.1383 645.33 31.8693C645.853 32.2202 645.992 32.9253 645.642 33.4484C645.424 33.7668 645.064 33.9455 644.698 33.9455ZM638.082 29.7119C637.881 29.7119 637.677 29.6567 637.492 29.5462C636.385 28.8704 635.256 28.1979 634.14 27.5481C633.599 27.2329 633.414 26.5376 633.728 25.995C634.043 25.4524 634.737 25.2672 635.282 25.5824C636.415 26.2419 637.557 26.921 638.676 27.6065C639.211 27.9347 639.38 28.6332 639.056 29.1693C638.841 29.517 638.465 29.7119 638.082 29.7119ZM431.403 29.1336C430.994 29.1336 430.598 28.9094 430.394 28.5228C430.105 27.9672 430.32 27.2784 430.874 26.9892C432.007 26.3979 433.194 25.7936 434.401 25.1957C434.962 24.9163 435.644 25.147 435.923 25.7091C436.202 26.2712 435.971 26.9535 435.41 27.2329C434.219 27.8242 433.045 28.4188 431.925 29.0036C431.76 29.0914 431.578 29.1336 431.403 29.1336ZM631.295 25.7578C631.11 25.7578 630.919 25.7123 630.747 25.6149C629.608 24.9813 628.453 24.3575 627.314 23.7564C626.759 23.464 626.548 22.7752 626.84 22.2196C627.132 21.664 627.82 21.4528 628.375 21.7452C629.527 22.3528 630.698 22.9864 631.85 23.6264C632.398 23.9318 632.596 24.6239 632.294 25.173C632.083 25.5466 631.694 25.7578 631.295 25.7578ZM438.447 25.6376C438.022 25.6376 437.613 25.3972 437.418 24.9845C437.149 24.4159 437.392 23.7401 437.96 23.4705C439.135 22.9149 440.341 22.356 441.545 21.8134C442.116 21.5535 442.791 21.8102 443.047 22.382C443.304 22.9539 443.051 23.6264 442.48 23.8863C441.289 24.4257 440.092 24.978 438.93 25.5271C438.771 25.6019 438.609 25.6376 438.447 25.6376ZM445.61 22.4015C445.169 22.4015 444.751 22.1448 444.566 21.7127C444.316 21.1344 444.582 20.4683 445.159 20.2181C446.36 19.6983 447.586 19.1817 448.796 18.6813C449.377 18.4409 450.039 18.7203 450.279 19.2986C450.519 19.8802 450.24 20.543 449.663 20.7835C448.462 21.2806 447.249 21.7907 446.058 22.304C445.912 22.3723 445.76 22.4015 445.61 22.4015ZM624.349 22.0896C624.177 22.0896 624.005 22.0506 623.839 21.9694C622.675 21.3846 621.497 20.8095 620.332 20.2539C619.764 19.9842 619.524 19.3051 619.794 18.7398C620.063 18.1712 620.741 17.9308 621.305 18.2005C622.483 18.7626 623.677 19.3441 624.855 19.9355C625.416 20.2181 625.643 20.9004 625.361 21.4625C625.166 21.8589 624.767 22.0896 624.349 22.0896ZM452.875 19.4026C452.42 19.4026 451.995 19.1297 451.817 18.6813C451.587 18.0965 451.872 17.4369 452.456 17.2062C453.683 16.7221 454.922 16.2445 456.139 15.7864C456.726 15.5655 457.381 15.8611 457.602 16.4492C457.822 17.0373 457.524 17.6936 456.94 17.9145C455.733 18.3694 454.503 18.8438 453.29 19.3214C453.154 19.3766 453.014 19.4026 452.875 19.4026ZM617.26 18.7138C617.104 18.7138 616.945 18.6813 616.796 18.6131C615.615 18.0802 614.411 17.5539 613.22 17.047C612.643 16.8001 612.374 16.134 612.62 15.5557C612.867 14.9774 613.532 14.7077 614.109 14.9546C615.316 15.468 616.533 16.0008 617.73 16.5402C618.301 16.7969 618.557 17.4727 618.301 18.0445C618.106 18.4636 617.691 18.7138 617.26 18.7138ZM460.23 16.6312C459.763 16.6312 459.328 16.342 459.162 15.8774C458.951 15.286 459.256 14.6362 459.847 14.4218C461.086 13.9767 462.342 13.538 463.572 13.1157C464.165 12.9142 464.811 13.2294 465.012 13.824C465.216 14.4185 464.898 15.0651 464.305 15.2665C463.085 15.6824 461.842 16.1178 460.613 16.5597C460.486 16.6084 460.356 16.6312 460.23 16.6312ZM610.031 15.6369C609.892 15.6369 609.749 15.6109 609.609 15.5557C608.406 15.0748 607.182 14.5972 605.972 14.1424C605.385 13.9214 605.087 13.2651 605.307 12.677C605.528 12.0889 606.183 11.79 606.77 12.011C607.997 12.4723 609.236 12.9532 610.453 13.4406C611.037 13.6745 611.319 14.3341 611.086 14.9189C610.907 15.3673 610.482 15.6369 610.031 15.6369ZM467.666 14.0871C467.186 14.0871 466.741 13.7817 466.586 13.3008C466.391 12.703 466.719 12.063 467.316 11.868C468.565 11.4619 469.83 11.0622 471.079 10.6756C471.679 10.4904 472.315 10.8283 472.497 11.4294C472.682 12.0305 472.344 12.6673 471.744 12.8492C470.508 13.2294 469.253 13.6258 468.016 14.0286C467.9 14.0676 467.783 14.0871 467.666 14.0871ZM602.679 12.872C602.553 12.872 602.426 12.8525 602.303 12.807C601.07 12.3749 599.827 11.9525 598.607 11.5496C598.011 11.3547 597.686 10.7113 597.881 10.1135C598.075 9.51567 598.718 9.19077 599.315 9.38571C600.551 9.79185 601.81 10.2175 603.056 10.6561C603.646 10.864 603.958 11.5139 603.75 12.1052C603.588 12.5796 603.146 12.872 602.679 12.872ZM475.174 11.7738C474.68 11.7738 474.229 11.4521 474.083 10.955C473.908 10.3507 474.255 9.72037 474.856 9.54492C476.118 9.17777 477.396 8.81387 478.652 8.46947C479.255 8.30377 479.881 8.66117 480.047 9.26549C480.212 9.86982 479.855 10.4969 479.252 10.6626C478.006 11.0038 476.741 11.3644 475.488 11.7283C475.384 11.7575 475.281 11.7738 475.174 11.7738ZM595.217 10.4254C595.107 10.4254 594.996 10.4092 594.886 10.3767C593.653 9.99979 592.391 9.63264 591.142 9.27849C590.539 9.10954 590.185 8.48247 590.357 7.87489C590.526 7.27056 591.155 6.91641 591.759 7.08861C593.027 7.44601 594.302 7.81965 595.551 8.1998C596.151 8.38175 596.489 9.01857 596.307 9.61964C596.155 10.1103 595.704 10.4254 595.217 10.4254ZM482.753 9.69112C482.246 9.69112 481.786 9.34997 481.653 8.83662C481.497 8.22904 481.864 7.60846 482.47 7.45251C483.736 7.1276 485.024 6.80594 486.299 6.49728C486.909 6.35107 487.522 6.72472 487.668 7.33554C487.814 7.94637 487.441 8.56044 486.831 8.70665C485.565 9.01207 484.29 9.33048 483.035 9.65213C482.941 9.68138 482.843 9.69112 482.753 9.69112ZM587.658 8.29727C587.563 8.29727 587.469 8.28427 587.372 8.26153C586.113 7.93662 584.838 7.62146 583.583 7.32579C582.973 7.18284 582.593 6.56876 582.739 5.95793C582.882 5.34711 583.495 4.96696 584.105 5.11317C585.377 5.41209 586.665 5.7305 587.94 6.0619C588.547 6.21786 588.913 6.83843 588.757 7.44601C588.624 7.95612 588.164 8.29727 587.658 8.29727ZM490.39 7.85215C489.871 7.85215 489.4 7.4915 489.284 6.9619C489.147 6.34782 489.53 5.74024 490.143 5.60378C491.431 5.31462 492.729 5.03519 494.001 4.77202C494.617 4.64531 495.214 5.04169 495.344 5.65577C495.471 6.26984 495.075 6.87417 494.462 7.00089C493.203 7.26081 491.918 7.54023 490.64 7.82615C490.555 7.8424 490.471 7.85215 490.39 7.85215ZM580.014 6.49403C579.936 6.49403 579.855 6.48428 579.777 6.46804C578.515 6.19836 577.23 5.93844 575.952 5.69151C575.335 5.57454 574.933 4.97671 575.05 4.35939C575.167 3.74206 575.764 3.33918 576.38 3.45614C577.671 3.70307 578.975 3.9695 580.251 4.24242C580.864 4.37238 581.256 4.97671 581.123 5.59079C581.01 6.12688 580.536 6.49403 580.014 6.49403ZM498.082 6.2601C497.547 6.2601 497.07 5.87996 496.97 5.33411C496.853 4.71679 497.258 4.1222 497.875 4.00524C499.169 3.75831 500.477 3.52112 501.758 3.30019C502.378 3.19622 502.965 3.60885 503.069 4.22617C503.176 4.8435 502.761 5.43158 502.144 5.5388C500.873 5.75974 499.578 5.99367 498.297 6.23735C498.225 6.2536 498.151 6.2601 498.082 6.2601ZM572.298 5.0157C572.237 5.0157 572.172 5.0092 572.107 4.99945C570.826 4.78177 569.528 4.57383 568.253 4.38538C567.633 4.2944 567.205 3.71607 567.296 3.09225C567.386 2.47167 567.967 2.03954 568.587 2.13377C569.878 2.32546 571.192 2.53665 572.487 2.75759C573.106 2.86156 573.522 3.44964 573.415 4.07022C573.324 4.62256 572.844 5.0157 572.298 5.0157ZM505.824 4.92148C505.272 4.92148 504.789 4.52184 504.704 3.95975C504.607 3.33918 505.032 2.75759 505.652 2.66012C506.953 2.45868 508.267 2.26373 509.558 2.08503C510.178 1.99731 510.752 2.43268 510.839 3.05651C510.924 3.68033 510.492 4.25217 509.869 4.33989C508.594 4.51534 507.293 4.70704 506.002 4.90848C505.94 4.91498 505.882 4.92148 505.824 4.92148ZM564.531 3.85578C564.483 3.85578 564.434 3.85253 564.385 3.84603C563.107 3.68358 561.803 3.52762 560.508 3.39116C559.885 3.32293 559.434 2.76409 559.499 2.14027C559.567 1.51644 560.125 1.06157 560.748 1.1298C562.056 1.26951 563.376 1.42547 564.671 1.59117C565.294 1.6724 565.732 2.24099 565.654 2.86156C565.583 3.43665 565.096 3.85578 564.531 3.85578ZM513.604 3.84603C513.036 3.84603 512.546 3.42365 512.478 2.84532C512.403 2.22149 512.848 1.65615 513.471 1.58142C514.781 1.42222 516.102 1.27601 517.393 1.1428C518.016 1.07457 518.574 1.53269 518.639 2.15651C518.704 2.78033 518.25 3.33918 517.624 3.40416C516.342 3.53737 515.038 3.68033 513.74 3.83953C513.695 3.84278 513.649 3.84603 513.604 3.84603ZM521.42 3.04351C520.836 3.04351 520.339 2.59514 520.29 2.0038C520.239 1.37673 520.702 0.827639 521.325 0.775653C522.646 0.665185 523.97 0.564463 525.261 0.476738C525.887 0.440998 526.429 0.908865 526.468 1.53594C526.51 2.16301 526.036 2.70561 525.41 2.74459C524.132 2.82907 522.821 2.92979 521.514 3.04026C521.481 3.04026 521.452 3.04351 521.42 3.04351ZM556.722 3.01752C556.69 3.01752 556.657 3.01752 556.621 3.01427C555.337 2.9038 554.026 2.80308 552.728 2.71535C552.102 2.67311 551.628 2.13052 551.67 1.50345C551.713 0.876375 552.251 0.405258 552.881 0.444247C554.195 0.531972 555.518 0.632694 556.819 0.746412C557.446 0.801646 557.906 1.35074 557.854 1.97781C557.802 2.57239 557.306 3.01752 556.722 3.01752ZM529.255 2.52041C528.651 2.52041 528.152 2.04604 528.122 1.43846C528.093 0.811393 528.577 0.278544 529.203 0.246053C530.52 0.181072 531.85 0.129087 533.148 0.0933468C533.778 0.0641051 534.297 0.567712 534.316 1.19478C534.336 1.82186 533.842 2.34496 533.216 2.36445C531.931 2.40344 530.617 2.45543 529.313 2.51716C529.294 2.52041 529.274 2.52041 529.255 2.52041ZM548.887 2.49442C548.867 2.49442 548.851 2.49442 548.832 2.49442C547.537 2.43268 546.223 2.38395 544.929 2.34821C544.302 2.33196 543.806 1.80886 543.825 1.18179C543.842 0.554716 544.371 0.0511088 544.99 0.0771014C546.301 0.112841 547.628 0.161577 548.935 0.22331C549.562 0.252552 550.045 0.7854 550.016 1.41247C549.99 2.02005 549.49 2.49442 548.887 2.49442ZM537.106 2.28647C536.483 2.28647 535.977 1.78612 535.971 1.16229C535.964 0.535221 536.467 0.018618 537.093 0.0121199C538.404 -0.000876457 539.721 -0.00412554 541.042 0.0056217C541.668 0.0121199 542.174 0.522225 542.168 1.15255C542.161 1.77637 541.655 2.27998 541.032 2.27998C541.029 2.27998 541.026 2.27998 541.022 2.27998C539.715 2.27023 538.414 2.27348 537.116 2.28647C537.116 2.28647 537.113 2.28647 537.106 2.28647Z" fill="#CD9E64"/>
<path d="M718.291 180.105C718.258 180.105 718.226 180.105 718.193 180.102C717.567 180.05 717.106 179.498 717.158 178.874C717.158 178.867 717.213 178.201 717.265 176.976C717.291 176.349 717.82 175.865 718.446 175.888C719.072 175.914 719.559 176.444 719.533 177.071C719.478 178.351 719.423 179.036 719.42 179.066C719.371 179.657 718.875 180.105 718.291 180.105Z" fill="#8F7A61"/>
<path d="M234.914 81.0019C234.872 81.0019 234.826 80.9986 234.781 80.9954C234.135 80.9207 233.493 80.8492 232.854 80.7777C232.231 80.7095 231.78 80.1474 231.851 79.5236C231.919 78.8997 232.481 78.4481 233.104 78.5196C233.749 78.5911 234.395 78.6626 235.044 78.7405C235.667 78.812 236.114 79.3773 236.04 80.0012C235.975 80.5763 235.482 81.0019 234.914 81.0019Z" fill="#FF9136"/>
<path d="M22.9825 228.182C22.9338 228.182 22.8851 228.179 22.8332 228.172C22.2103 228.091 21.7723 227.522 21.8534 226.898C22.0189 225.631 22.2071 224.315 22.4147 222.987C22.512 222.366 23.0928 221.94 23.7125 222.038C24.3322 222.135 24.7572 222.717 24.6598 223.338C24.4554 224.647 24.2705 225.943 24.1083 227.191C24.0337 227.766 23.5438 228.182 22.9825 228.182ZM24.1862 220.436C24.118 220.436 24.0531 220.43 23.985 220.417C23.3686 220.306 22.9565 219.715 23.0668 219.097C23.2972 217.821 23.5438 216.518 23.8033 215.228C23.9266 214.61 24.5268 214.211 25.14 214.338C25.7565 214.461 26.1523 215.062 26.029 215.676C25.7727 216.95 25.5293 218.236 25.3022 219.5C25.2017 220.049 24.7247 220.436 24.1862 220.436ZM25.7273 212.758C25.6461 212.758 25.5618 212.749 25.4807 212.733C24.8675 212.596 24.4814 211.988 24.6177 211.374C24.8999 210.107 25.1984 208.817 25.5099 207.54C25.6591 206.93 26.2723 206.556 26.8823 206.705C27.4922 206.855 27.8653 207.469 27.7161 208.08C27.4079 209.34 27.1126 210.614 26.8336 211.868C26.7168 212.398 26.2464 212.758 25.7273 212.758ZM27.5766 205.156C27.4792 205.156 27.3819 205.143 27.2846 205.117C26.6779 204.954 26.3177 204.334 26.4767 203.726C26.8109 202.465 27.1613 201.189 27.5182 199.934C27.6901 199.33 28.3195 198.982 28.923 199.155C29.5265 199.327 29.8736 199.957 29.7017 200.561C29.348 201.803 29.0009 203.063 28.6699 204.311C28.5402 204.821 28.0795 205.156 27.5766 205.156ZM29.7211 197.637C29.6108 197.637 29.4973 197.621 29.387 197.585C28.7867 197.4 28.4493 196.763 28.6342 196.165C29.0171 194.918 29.4162 193.654 29.8249 192.416C30.0196 191.818 30.662 191.497 31.259 191.691C31.856 191.886 32.1804 192.53 31.9825 193.128C31.5802 194.352 31.1844 195.597 30.8048 196.832C30.6588 197.322 30.2078 197.637 29.7211 197.637ZM32.1609 190.207C32.0376 190.207 31.9079 190.187 31.7846 190.142C31.1941 189.934 30.8826 189.284 31.0903 188.693C31.5218 187.461 31.9728 186.217 32.427 184.995C32.6476 184.407 33.2997 184.108 33.887 184.329C34.4742 184.55 34.7727 185.203 34.5521 185.791C34.1011 187 33.6566 188.228 33.2316 189.446C33.0694 189.914 32.6314 190.207 32.1609 190.207ZM34.8927 182.883C34.7532 182.883 34.6105 182.857 34.4742 182.802C33.8902 182.571 33.6047 181.909 33.8383 181.327C34.3185 180.112 34.8181 178.887 35.3242 177.688C35.5676 177.11 36.2327 176.837 36.8102 177.08C37.3877 177.324 37.6602 177.99 37.4169 178.568C36.9172 179.754 36.4241 180.966 35.9504 182.165C35.772 182.61 35.3437 182.883 34.8927 182.883ZM37.9198 175.677C37.764 175.677 37.6083 175.644 37.4591 175.579C36.8848 175.323 36.6285 174.65 36.8848 174.078C37.4169 172.883 37.9652 171.68 38.52 170.504C38.786 169.936 39.4641 169.692 40.0319 169.962C40.5997 170.228 40.843 170.907 40.5769 171.476C40.0319 172.639 39.4868 173.825 38.9612 175.007C38.7666 175.427 38.3545 175.677 37.9198 175.677ZM41.242 168.607C41.0733 168.607 40.8981 168.568 40.7359 168.487C40.1746 168.207 39.9443 167.525 40.2233 166.963C40.8073 165.79 41.4075 164.61 42.011 163.46C42.303 162.905 42.9875 162.69 43.5456 162.983C44.1004 163.275 44.3145 163.961 44.0225 164.519C43.4288 165.653 42.8351 166.817 42.2575 167.976C42.0629 168.376 41.6606 168.607 41.242 168.607ZM44.8693 161.689C44.6844 161.689 44.4962 161.644 44.321 161.547C43.7727 161.241 43.5748 160.549 43.8765 160C44.5124 158.85 45.1645 157.7 45.8167 156.582C46.1314 156.039 46.8289 155.857 47.3707 156.173C47.9126 156.488 48.0943 157.186 47.7795 157.729C47.1372 158.834 46.4915 159.971 45.8653 161.105C45.6577 161.475 45.2684 161.689 44.8693 161.689ZM48.8015 154.941C48.5971 154.941 48.3927 154.886 48.2078 154.772C47.6725 154.444 47.507 153.742 47.8347 153.209C48.5225 152.092 49.2266 150.971 49.9306 149.882C50.2713 149.353 50.9721 149.203 51.5009 149.544C52.0265 149.886 52.179 150.591 51.8383 151.117C51.144 152.189 50.4497 153.294 49.7716 154.399C49.5542 154.746 49.1811 154.941 48.8015 154.941ZM53.0387 148.378C52.8181 148.378 52.5975 148.313 52.3996 148.18C51.8805 147.826 51.7475 147.117 52.1011 146.601C52.8408 145.516 53.5968 144.43 54.3495 143.378C54.7161 142.868 55.4234 142.751 55.9328 143.115C56.4421 143.482 56.5589 144.19 56.1956 144.7C55.4526 145.74 54.7064 146.809 53.9764 147.881C53.7558 148.206 53.3989 148.378 53.0387 148.378ZM57.5809 142.033C57.3441 142.033 57.104 141.958 56.8996 141.802C56.4 141.425 56.2994 140.71 56.6757 140.21C57.4609 139.167 58.2687 138.121 59.0798 137.097C59.4692 136.607 60.1829 136.522 60.6761 136.912C61.166 137.302 61.2504 138.017 60.861 138.511C60.0629 139.518 59.2648 140.551 58.4926 141.578C58.2655 141.877 57.9248 142.033 57.5809 142.033ZM62.4313 135.915C62.175 135.915 61.9155 135.827 61.7046 135.651C61.2244 135.248 61.1595 134.53 61.5618 134.05C62.3956 133.049 63.2554 132.045 64.1184 131.06C64.5337 130.589 65.2507 130.544 65.7212 130.956C66.1916 131.372 66.237 132.09 65.825 132.562C64.9749 133.53 64.1282 134.521 63.3073 135.505C63.077 135.775 62.7558 135.915 62.4313 135.915ZM67.5802 130.047C67.3044 130.047 67.0287 129.946 66.808 129.745C66.3473 129.319 66.3214 128.598 66.7464 128.136C67.6354 127.175 68.5438 126.216 69.4522 125.284C69.8902 124.835 70.6105 124.825 71.0582 125.264C71.506 125.703 71.5157 126.421 71.0777 126.872C70.1855 127.792 69.2868 128.737 68.414 129.683C68.1902 129.927 67.8852 130.047 67.5802 130.047ZM73.0211 124.455C72.7259 124.455 72.4306 124.341 72.2067 124.111C71.7687 123.662 71.7785 122.941 72.2262 122.502C73.1638 121.589 74.1209 120.676 75.0748 119.793C75.5355 119.367 76.2525 119.393 76.6808 119.854C77.1058 120.316 77.0799 121.034 76.6192 121.463C75.6783 122.333 74.7341 123.23 73.8127 124.13C73.5921 124.348 73.3066 124.455 73.0211 124.455ZM78.7442 119.153C78.4295 119.153 78.1148 119.023 77.891 118.766C77.4789 118.295 77.5243 117.577 77.9948 117.161C78.9714 116.303 79.9771 115.442 80.9829 114.607C81.4663 114.204 82.1801 114.272 82.5824 114.753C82.9847 115.237 82.9166 115.952 82.4364 116.355C81.4468 117.18 80.4573 118.025 79.4937 118.873C79.2796 119.062 79.0103 119.153 78.7442 119.153ZM84.7399 114.162C84.4025 114.162 84.0716 114.013 83.8477 113.73C83.4584 113.236 83.5427 112.521 84.0359 112.131C85.0611 111.322 86.1091 110.517 87.1538 109.737C87.6567 109.36 88.3672 109.464 88.7435 109.967C89.1199 110.471 89.0161 111.183 88.5132 111.559C87.4847 112.326 86.453 113.119 85.444 113.915C85.2331 114.081 84.9865 114.162 84.7399 114.162ZM90.9887 109.493C90.6318 109.493 90.2814 109.324 90.0608 109.012C89.7006 108.499 89.8207 107.791 90.3333 107.427C91.4007 106.673 92.4908 105.926 93.5712 105.201C94.0936 104.853 94.7976 104.993 95.1448 105.516C95.4919 106.039 95.3524 106.744 94.8301 107.092C93.7626 107.804 92.692 108.541 91.6408 109.285C91.4429 109.425 91.2125 109.493 90.9887 109.493ZM97.471 105.162C97.0947 105.162 96.7248 104.974 96.5107 104.632C96.1765 104.103 96.3355 103.398 96.8643 103.063C97.9577 102.374 99.0835 101.682 100.213 101.01C100.751 100.688 101.449 100.867 101.77 101.406C102.091 101.945 101.913 102.644 101.374 102.966C100.261 103.628 99.1516 104.308 98.0745 104.987C97.8895 105.104 97.6786 105.162 97.471 105.162ZM104.171 101.172C103.772 101.172 103.389 100.961 103.178 100.591C102.873 100.041 103.068 99.3494 103.613 99.044C104.748 98.4072 105.906 97.7769 107.062 97.166C107.616 96.8736 108.304 97.0848 108.596 97.6404C108.888 98.196 108.677 98.8848 108.122 99.1772C106.984 99.7783 105.842 100.402 104.722 101.029C104.55 101.127 104.359 101.172 104.171 101.172ZM111.065 97.5299C110.647 97.5299 110.244 97.2993 110.046 96.8964C109.767 96.3343 109.998 95.652 110.559 95.3726C111.717 94.7975 112.908 94.2256 114.099 93.67C114.666 93.4069 115.341 93.6538 115.607 94.2224C115.873 94.791 115.624 95.4668 115.056 95.7332C113.885 96.279 112.71 96.8444 111.568 97.4097C111.406 97.4942 111.234 97.5299 111.065 97.5299ZM118.131 94.2386C117.693 94.2386 117.275 93.9819 117.09 93.5563C116.84 92.9812 117.103 92.3119 117.677 92.0585C118.871 91.5386 120.088 91.0253 121.295 90.5314C121.875 90.2942 122.537 90.5737 122.774 91.1552C123.011 91.7368 122.732 92.3996 122.151 92.6368C120.964 93.1209 119.763 93.6278 118.586 94.1411C118.436 94.2094 118.284 94.2386 118.131 94.2386ZM125.35 91.295C124.893 91.295 124.461 91.0155 124.289 90.5607C124.065 89.9726 124.361 89.3163 124.948 89.0921C126.158 88.6307 127.397 88.1758 128.63 87.7372C129.221 87.526 129.87 87.8379 130.081 88.4293C130.288 89.0206 129.98 89.6704 129.39 89.8816C128.173 90.3137 126.95 90.7621 125.756 91.217C125.62 91.2722 125.483 91.295 125.35 91.295ZM132.696 88.6924C132.219 88.6924 131.774 88.387 131.615 87.9094C131.421 87.3116 131.745 86.6715 132.342 86.4733C133.585 86.0672 134.84 85.6676 136.083 85.2907C136.683 85.1055 137.316 85.4466 137.501 86.0477C137.682 86.6488 137.345 87.2823 136.745 87.4675C135.522 87.8412 134.279 88.2343 133.053 88.6372C132.932 88.6729 132.812 88.6924 132.696 88.6924ZM140.151 86.4213C139.655 86.4213 139.201 86.0932 139.058 85.5896C138.889 84.9852 139.24 84.3582 139.846 84.1892C141.095 83.8383 142.37 83.4972 143.633 83.169C144.239 83.0131 144.859 83.3802 145.015 83.9878C145.17 84.5954 144.804 85.2159 144.197 85.3719C142.948 85.6935 141.689 86.0314 140.456 86.3791C140.356 86.4083 140.255 86.4213 140.151 86.4213ZM147.701 84.4784C147.185 84.4784 146.718 84.1242 146.598 83.6011C146.455 82.9903 146.835 82.3762 147.445 82.2333C148.707 81.9376 149.995 81.6484 151.27 81.3723C151.883 81.2423 152.487 81.6322 152.616 82.2463C152.746 82.8603 152.357 83.4647 151.744 83.5946C150.482 83.8643 149.21 84.1502 147.964 84.4426C147.873 84.4654 147.785 84.4784 147.701 84.4784ZM155.322 82.8441C154.79 82.8441 154.313 82.4672 154.209 81.9214C154.089 81.304 154.492 80.7095 155.108 80.5892C156.38 80.3423 157.678 80.1051 158.962 79.8809C159.579 79.7737 160.169 80.1896 160.276 80.8069C160.383 81.4275 159.968 82.0156 159.352 82.1228C158.08 82.3437 156.798 82.5777 155.54 82.8214C155.465 82.8376 155.394 82.8441 155.322 82.8441ZM163.002 81.5087C162.45 81.5087 161.967 81.1058 161.879 80.5438C161.785 79.9232 162.21 79.3416 162.83 79.2474C164.111 79.0492 165.416 78.8607 166.707 78.6853C167.33 78.6008 167.901 79.0362 167.985 79.66C168.07 80.2838 167.635 80.8557 167.012 80.9401C165.734 81.1123 164.442 81.3008 163.174 81.4957C163.119 81.5055 163.06 81.5087 163.002 81.5087ZM170.727 80.4625C170.159 80.4625 169.669 80.0369 169.601 79.4586C169.529 78.8347 169.974 78.2694 170.597 78.1979C171.885 78.0485 173.196 77.9055 174.49 77.7755C175.113 77.7138 175.671 78.1687 175.733 78.7925C175.794 79.4163 175.34 79.9752 174.714 80.0369C173.429 80.1636 172.132 80.3066 170.86 80.456C170.814 80.4593 170.769 80.4625 170.727 80.4625ZM229.1 80.3781C229.061 80.3781 229.026 80.3748 228.987 80.3716C227.686 80.2416 226.385 80.1214 225.116 80.0109C224.49 79.9557 224.029 79.4066 224.084 78.7795C224.139 78.1524 224.691 77.6911 225.314 77.7463C226.589 77.8568 227.9 77.9802 229.21 78.1102C229.833 78.1719 230.291 78.7275 230.229 79.3546C230.171 79.9394 229.678 80.3781 229.1 80.3781ZM221.33 79.699C221.301 79.699 221.271 79.699 221.242 79.6957C219.964 79.6015 218.66 79.5105 217.365 79.4293C216.739 79.3903 216.262 78.851 216.304 78.2239C216.343 77.5968 216.882 77.1225 217.508 77.1615C218.812 77.2427 220.126 77.3337 221.414 77.4311C222.04 77.4766 222.508 78.0225 222.462 78.6495C222.417 79.2441 221.92 79.699 221.33 79.699ZM178.481 79.6893C177.897 79.6893 177.4 79.2409 177.352 78.6463C177.3 78.0192 177.764 77.4701 178.39 77.4181C179.675 77.3109 180.989 77.2135 182.296 77.129C182.922 77.0835 183.464 77.5611 183.503 78.1882C183.545 78.8152 183.072 79.3578 182.446 79.3968C181.151 79.4813 179.85 79.5788 178.578 79.686C178.546 79.686 178.513 79.6893 178.481 79.6893ZM213.546 79.2116C213.527 79.2116 213.508 79.2116 213.488 79.2116C212.2 79.1467 210.893 79.0914 209.608 79.0427C208.982 79.0199 208.492 78.4936 208.514 77.8633C208.537 77.2362 209.066 76.7488 209.692 76.7683C210.99 76.8171 212.304 76.8723 213.605 76.9373C214.231 76.9698 214.714 77.5026 214.682 78.1297C214.65 78.7405 214.147 79.2116 213.546 79.2116ZM186.261 79.1726C185.661 79.1726 185.158 78.7015 185.129 78.0907C185.096 77.4636 185.58 76.9308 186.206 76.8983C187.507 76.8333 188.824 76.7781 190.119 76.7326C190.741 76.7228 191.27 77.2037 191.293 77.8308C191.316 78.4578 190.823 78.9842 190.196 79.0069C188.915 79.0524 187.611 79.1077 186.319 79.1726C186.3 79.1726 186.28 79.1726 186.261 79.1726ZM205.75 78.929C205.74 78.929 205.731 78.929 205.724 78.929C204.426 78.8997 203.119 78.877 201.841 78.864C201.214 78.8575 200.708 78.3441 200.715 77.7171C200.721 77.09 201.231 76.5929 201.86 76.5896C203.151 76.6026 204.469 76.6221 205.776 76.6546C206.402 76.6676 206.899 77.1907 206.886 77.8178C206.869 78.4351 206.363 78.929 205.75 78.929ZM194.051 78.903C193.434 78.903 192.928 78.4091 192.915 77.7885C192.902 77.1615 193.402 76.6416 194.028 76.6286C195.31 76.6026 196.627 76.5864 197.944 76.5799C197.947 76.5799 197.947 76.5799 197.951 76.5799C198.577 76.5799 199.083 77.0867 199.086 77.7106C199.089 78.3376 198.583 78.851 197.957 78.8542C196.653 78.8607 195.349 78.877 194.077 78.903C194.067 78.903 194.057 78.903 194.051 78.903Z" fill="#CD9E64"/>
<path d="M22.3796 233.985C22.3569 233.985 22.3342 233.985 22.3115 233.981C21.6853 233.946 21.2084 233.406 21.2441 232.779C21.2473 232.75 21.2862 232.068 21.4095 230.794C21.4712 230.17 22.026 229.706 22.6489 229.771C23.2718 229.832 23.7293 230.388 23.6709 231.012C23.5508 232.233 23.5119 232.903 23.5119 232.909C23.4762 233.52 22.9733 233.985 22.3796 233.985Z" fill="#FF9136"/>
</svg>
