<?xml version="1.0" standalone="no"?>
<!DOCTYPE svg PUBLIC "-//W3C//DTD SVG 20010904//EN"
 "http://www.w3.org/TR/2001/REC-SVG-20010904/DTD/svg10.dtd">
<svg version="1.0" xmlns="http://www.w3.org/2000/svg"
 width="800.000000pt" height="800.000000pt" viewBox="0 0 800.000000 800.000000"
 preserveAspectRatio="xMidYMid meet">
<metadata>
Created by potrace 1.11, written by Peter Selinger 2001-2013
</metadata>
<g transform="translate(0.000000,800.000000) scale(0.100000,-0.100000)"
fill="#000000" stroke="none">
<path d="M3730 6543 c-19 -8 -62 -25 -95 -38 -57 -22 -196 -77 -240 -95 -11
-5 -57 -24 -102 -43 -45 -19 -84 -32 -87 -29 -3 3 -6 1 -6 -5 0 -5 -6 -10 -12
-10 -7 0 -34 -10 -60 -21 -26 -12 -50 -22 -53 -22 -4 0 -21 -7 -38 -15 -18 -8
-158 -64 -312 -126 -154 -61 -284 -114 -290 -117 -5 -4 -14 -7 -20 -8 -8 -2
-146 -56 -300 -119 -11 -5 -22 -9 -25 -10 -3 -1 -16 -6 -30 -12 -14 -6 -61
-25 -105 -42 -44 -17 -89 -36 -100 -41 -11 -5 -123 -50 -250 -101 -126 -50
-243 -97 -260 -104 -16 -7 -61 -25 -100 -40 -38 -15 -88 -35 -110 -45 -22 -9
-96 -39 -165 -65 -129 -51 -141 -59 -225 -159 -22 -26 -48 -58 -59 -70 -10
-11 -35 -41 -55 -65 -20 -25 -49 -59 -64 -75 -16 -17 -36 -43 -45 -58 -9 -16
-22 -28 -29 -28 -7 0 -13 -6 -13 -14 0 -8 -3 -16 -7 -18 -5 -1 -30 -30 -58
-63 -47 -57 -81 -96 -115 -134 -8 -9 -32 -38 -53 -64 -21 -25 -43 -52 -50 -59
-7 -7 -30 -35 -52 -62 -22 -28 -53 -64 -68 -80 -36 -38 -61 -75 -56 -81 3 -2
103 23 224 56 232 64 281 77 305 84 8 2 15 4 15 5 0 1 11 4 25 6 14 3 56 14
94 25 38 11 77 23 87 25 25 5 63 16 184 49 33 10 65 18 70 19 6 2 30 9 55 16
25 7 50 14 55 16 6 1 62 16 125 33 63 18 122 34 130 36 8 2 132 36 275 75 143
39 268 73 278 75 9 2 21 6 25 9 5 3 19 7 33 10 49 10 67 15 105 26 22 6 86 24
144 40 143 39 402 110 420 115 8 3 31 9 50 14 173 46 155 35 227 141 21 30 43
60 48 66 6 6 19 23 30 39 11 15 48 66 83 112 34 46 62 86 62 88 0 4 93 131
118 161 5 5 14 20 21 31 6 12 17 27 24 35 7 7 32 40 55 72 45 64 51 59 26 -24
-9 -29 -18 -62 -20 -73 -2 -11 -11 -45 -20 -76 -9 -31 -17 -63 -19 -71 -6 -28
-93 -365 -99 -380 -3 -8 -8 -28 -11 -45 -8 -40 -13 -60 -16 -60 -1 0 -3 -9 -5
-20 -3 -19 -7 -36 -35 -132 -5 -21 -11 -45 -11 -53 -1 -15 -28 -61 -28 -48 0
4 -15 2 -32 -3 -18 -6 -40 -12 -48 -14 -8 -1 -35 -8 -60 -15 -25 -7 -53 -14
-62 -16 -38 -8 -59 -14 -238 -59 -102 -26 -195 -49 -207 -51 -12 -2 -34 -9
-48 -14 -14 -5 -25 -8 -25 -5 0 2 -18 -2 -40 -10 -22 -8 -40 -12 -40 -10 0 3
-11 0 -25 -5 -14 -5 -36 -12 -48 -14 -12 -3 -67 -16 -122 -31 -55 -14 -109
-28 -120 -30 -11 -3 -92 -23 -180 -45 -88 -23 -171 -43 -185 -46 -14 -3 -34
-8 -45 -11 -11 -4 -24 -8 -30 -9 -5 -1 -39 -10 -75 -19 -36 -9 -110 -27 -165
-41 -55 -14 -118 -30 -140 -35 -22 -6 -48 -12 -57 -14 -28 -6 -140 -35 -192
-51 -26 -8 -56 -14 -66 -14 -20 0 -32 -59 -17 -85 4 -8 4 -15 0 -15 -4 0 -8
-43 -8 -95 0 -52 4 -95 8 -95 5 0 5 -5 1 -11 -8 -14 -8 -284 1 -298 3 -6 3
-11 -2 -11 -4 0 -8 -72 -8 -160 0 -88 4 -160 8 -160 5 0 5 -5 1 -11 -8 -14 -8
-284 1 -298 3 -6 3 -11 -2 -11 -9 0 -8 -483 1 -498 3 -5 2 -12 -1 -16 -9 -8
-7 -231 2 -245 3 -6 3 -11 -2 -11 -8 0 -8 -458 0 -466 2 -3 22 -7 43 -9 22 -3
50 -7 64 -10 27 -5 76 -12 159 -21 30 -3 64 -8 75 -10 12 -2 41 -7 66 -10 25
-3 54 -6 65 -8 32 -6 96 -15 150 -22 28 -3 61 -8 75 -9 13 -2 47 -7 75 -10 27
-4 61 -8 75 -10 14 -2 45 -7 70 -10 25 -3 56 -8 70 -10 14 -2 63 -9 110 -15
47 -6 101 -13 120 -16 56 -8 98 -14 133 -18 17 -3 52 -7 77 -11 25 -3 59 -7
75 -9 17 -2 64 -9 105 -16 41 -6 95 -14 120 -17 63 -7 90 -10 130 -17 19 -3
58 -8 85 -11 28 -4 66 -8 85 -11 19 -2 46 -6 60 -9 24 -5 88 -13 140 -19 14
-2 45 -6 70 -9 25 -4 63 -9 85 -12 22 -2 50 -6 62 -9 12 -3 46 -7 75 -10 29
-4 62 -8 74 -10 11 -2 45 -7 75 -10 30 -3 65 -8 77 -11 13 -2 51 -7 83 -11
l59 -7 0 29 c2 280 0 5067 -2 5069 -2 2 -19 -4 -38 -12z"/>
<path d="M4226 4013 c1 -1402 2 -2551 3 -2554 0 -4 20 -3 44 1 55 10 123 20
167 25 19 2 49 6 65 8 41 7 102 16 150 22 22 3 56 7 75 10 19 2 58 7 85 11 28
3 52 7 55 9 3 1 36 6 73 10 37 3 78 8 89 10 12 3 44 7 72 10 28 3 62 7 76 10
30 5 106 16 140 20 44 5 124 16 150 20 14 2 45 7 70 10 47 6 108 14 150 20 14
3 43 7 65 9 22 3 56 8 75 11 19 3 53 7 75 10 78 9 200 26 225 31 14 2 45 6 70
9 25 3 54 7 65 9 12 2 48 7 80 11 60 7 83 10 140 19 17 2 53 7 80 11 28 3 61
8 75 10 14 2 45 6 70 9 25 3 54 8 66 10 11 2 45 7 75 10 30 3 63 8 74 10 11 2
49 7 85 12 36 5 70 9 75 10 6 1 15 2 22 3 12 1 16 123 9 321 0 25 2 57 6 73 4
15 4 27 0 27 -9 0 -7 441 1 464 4 9 3 16 -1 16 -9 0 -8 1081 1 1104 4 9 3 16
-1 16 -4 0 -7 105 -7 233 l0 232 -130 33 c-71 18 -141 35 -153 38 -13 3 -49
12 -80 20 -32 9 -68 18 -82 21 -20 5 -180 45 -275 70 -11 2 -37 9 -57 14 -21
5 -55 13 -75 18 -38 9 -68 17 -100 26 -52 14 -102 26 -138 34 -22 5 -76 19
-120 31 -44 12 -87 22 -95 24 -8 1 -35 8 -60 15 -25 7 -54 15 -65 17 -11 1
-38 8 -60 14 -22 6 -49 13 -60 15 -30 7 -52 13 -140 35 -44 12 -88 23 -97 25
-19 4 -406 102 -460 116 -38 10 -41 16 -64 109 -2 8 -10 42 -19 75 -9 33 -17
67 -19 75 -1 8 -10 40 -19 70 -9 30 -18 66 -21 80 -2 14 -14 61 -26 105 -12
44 -23 87 -25 95 -2 8 -11 42 -20 75 -9 33 -18 71 -21 84 -3 14 -7 28 -9 31
-2 4 -7 20 -9 37 -3 16 -17 68 -30 114 -13 46 -23 85 -21 87 1 2 46 -57 99
-130 53 -73 103 -141 111 -150 8 -10 27 -37 42 -60 15 -24 35 -51 44 -61 9
-10 34 -43 55 -75 21 -31 44 -62 50 -68 6 -7 32 -44 59 -83 27 -39 52 -71 56
-71 3 0 12 -13 18 -29 11 -26 23 -31 134 -61 67 -18 154 -42 192 -52 63 -18
114 -32 155 -43 8 -2 58 -15 110 -30 52 -15 111 -31 130 -35 19 -5 78 -21 130
-35 52 -15 100 -28 105 -29 6 -2 30 -8 55 -15 25 -7 54 -15 65 -17 11 -2 31
-8 45 -13 14 -5 63 -19 110 -31 47 -13 132 -36 190 -51 58 -16 121 -34 140
-39 19 -5 60 -16 90 -25 243 -67 347 -96 360 -99 8 -2 76 -20 150 -40 74 -21
142 -39 150 -40 8 -2 42 -12 75 -22 33 -9 67 -18 75 -20 8 -1 96 -24 195 -52
265 -73 254 -72 207 -24 -15 15 -45 50 -67 77 -22 28 -42 52 -46 55 -5 5 -313
368 -384 454 -22 27 -49 58 -60 70 -12 13 -39 45 -60 72 -22 27 -44 54 -50 60
-5 6 -29 33 -52 60 -23 27 -50 59 -61 71 -10 13 -70 43 -133 68 -63 25 -124
50 -136 55 -26 11 -27 12 -170 69 -57 23 -149 59 -205 82 -57 22 -112 45 -123
50 -19 8 -74 30 -85 34 -3 1 -18 7 -35 14 -16 7 -115 46 -220 88 -104 41 -203
81 -220 88 -16 7 -61 25 -100 40 -38 15 -93 38 -121 51 -28 13 -54 24 -59 24
-7 0 -316 123 -390 155 -16 7 -73 30 -125 50 -52 21 -108 43 -125 50 -16 7
-100 41 -185 74 -85 34 -164 66 -175 70 -11 5 -45 19 -75 31 -30 11 -64 25
-75 30 -16 7 -197 80 -199 80 -1 0 0 -1146 0 -2547z"/>
</g>
</svg>
